<svg xmlns="http://www.w3.org/2000/svg" width="32" height="32" viewBox="0 0 32 32">
    <path d="M24,20c0.695,0,1.366,0.104,2,0.294V2c0-0.552-0.447-1-1-1H5
        C4.447,1,4,1.448,4,2v26c0,0.553,0.447,1,1,1h12.294C17.104,28.366,17,27.695,17,27C17,23.134,20.134,20,24,20z M9,6h4
        c0.553,0,1,0.448,1,1c0,0.553-0.447,1-1,1H9C8.447,8,8,7.553,8,7C8,6.448,8.447,6,9,6z M9,12h10c0.553,0,1,0.448,1,1
        c0,0.553-0.447,1-1,1H9c-0.553,0-1-0.447-1-1C8,12.448,8.447,12,9,12z M12,22H9c-0.553,0-1-0.447-1-1c0-0.552,0.447-1,1-1h3
        c0.553,0,1,0.448,1,1C13,21.553,12.553,22,12,22z M16,18H9c-0.553,0-1-0.447-1-1c0-0.552,0.447-1,1-1h7c0.553,0,1,0.448,1,1
        C17,17.553,16.553,18,16,18z M28,25h-2v-2c0-0.552-0.447-1-1-1h-2c-0.553,0-1,0.448-1,1v2h-2c-0.553,0-1,0.448-1,1v2
        c0,0.553,0.447,1,1,1h2v2c0,0.553,0.447,1,1,1h2c0.553,0,1-0.447,1-1v-2h2c0.553,0,1-0.447,1-1v-2C29,25.448,28.553,25,28,25z"/>
</svg>
