<svg xmlns="http://www.w3.org/2000/svg" width="32" height="32" viewBox="0 0 32 32">
    <path d="M5,9v2c0,0.552,0.448,1,1,1h2c0.552,0,1-0.448,1-1V9c0-0.552-0.448-1-1-1H6
        C5.448,8,5,8.448,5,9z M17,10V9c0-0.552-0.447-1-1-1h-4c-0.552,0-1,0.448-1,1v1c0,0.552,0.448,1,1,1h4C16.553,11,17,10.552,17,10z
         M12,14c-0.552,0-1,0.447-1,1v1c0,0.553,0.448,1,1,1h2c0.553,0,1-0.447,1-1v-1c0-0.553-0.447-1-1-1H12z M9,6h4
        c0.553,0,1-0.448,1-1V2c0-0.552-0.447-1-1-1H9C8.448,1,8,1.448,8,2v3C8,5.552,8.448,6,9,6z M31.52,17.968l-1.261-1.26
        L16.83,30.373l1.139,1.139c0.65,0.65,1.705,0.65,2.357,0L31.52,20.323C32.172,19.673,32.172,18.618,31.52,17.968z M28.505,14.955
        l-3.466-3.464c-0.65-0.65-1.705-0.65-2.357,0L22,12.171V5c0-1.657-1.344-3-3-3h-3v3h3v10.17l-7.512,7.508
        c-0.651,0.65-0.651,1.705,0,2.355L13.455,27H3V5h3V2H3C1.343,2,0,3.343,0,5v22c0,1.656,1.343,3,3,3h13.348l-1.315-1.338
        L28.505,14.955z M8,20H6c-0.552,0-1,0.447-1,1v2c0,0.553,0.448,1,1,1h2c0.552,0,1-0.447,1-1v-2C9,20.447,8.552,20,8,20z M9,15
        c0-0.553-0.448-1-1-1H6c-0.552,0-1,0.447-1,1v2c0,0.553,0.448,1,1,1h2c0.552,0,1-0.447,1-1V15z"/>
</svg>
