<svg xmlns="http://www.w3.org/2000/svg" width="32" height="32" viewBox="0 0 32 32">
    <path fill="#414446" d="M24.437,17.463l-0.215,0.215l-1.312-4.766l2.022-1.83
        c0.373-0.227,0.878-0.649,1.592-1.363c0.208-0.208,0.404-0.412,0.593-0.613l0.219-0.198l-0.021-0.021
        c2.785-3.062,3.218-5.268,2.142-6.344c-1.075-1.075-3.282-0.643-6.343,2.142l-0.021-0.021l-0.198,0.219
        c-0.201,0.188-0.405,0.384-0.613,0.592c-0.714,0.713-1.136,1.218-1.362,1.592l-1.815,2.006L14.391,7.71l0.146-0.146
        c0.82-0.82,0.853-2.118,0.071-2.899c-0.781-0.78-2.079-0.749-2.899,0.071L10.004,6.44L5.978,5.275
        C5.151,5.05,4.411,4.943,3.87,5.502C3.867,5.505,3.864,5.506,3.861,5.509L2.056,7.39l12.076,7.179l-3.494,3.861l-5.192-0.766
        c-0.011,0-0.019,0.004-0.03,0.002c-0.52-0.078-0.919-0.057-1.346,0.365l-1.478,1.477l6.088,3.812l3.812,6.088l1.465-1.465
        c0.441-0.434,0.46-0.838,0.382-1.365c0-0.002,0-0.002,0-0.004l-0.769-5.213l3.848-3.482l7.037,12.178l1.535-1.473
        c0.008-0.008,0.01-0.018,0.019-0.025c0.712-0.633,0.81-1.375,0.604-2.18c-0.003-0.01-0.002-0.021-0.005-0.033l-1.165-4.232
        l1.822-1.822c0.82-0.818,0.852-2.117,0.07-2.898S25.256,16.643,24.437,17.463z"/>
</svg>
