<svg xmlns="http://www.w3.org/2000/svg" width="32" height="32" viewBox="0 0 32 32">
    <path d="M29.384,14.6l-3.458-2.1l3.458-2.1c0.821-0.499,0.821-1.308,0-1.806
        L17.484,1.368c-0.822-0.499-2.154-0.499-2.976,0L2.609,8.594c-0.821,0.499-0.821,1.308,0,1.806l3.458,2.1l-3.458,2.1
        c-0.821,0.499-0.821,1.309,0,1.807l3.453,2.097L2.609,20.6c-0.821,0.499-0.821,1.309,0,1.807l11.899,7.227
        c0.821,0.498,2.153,0.498,2.976,0l11.899-7.227c0.821-0.498,0.821-1.308,0-1.807l-3.453-2.097l3.453-2.097
        C30.205,15.908,30.205,15.099,29.384,14.6z M16.002,26.818l-8.695-5.314l1.842-1.126l5.36,3.255c0.821,0.498,2.153,0.498,2.976,0
        l5.365-3.258l1.847,1.129L16.002,26.818z M16.002,20.818l-8.695-5.314l1.847-1.129l5.355,3.252c0.821,0.498,2.153,0.498,2.976,0
        l5.36-3.255l1.852,1.132L16.002,20.818z"/>
</svg>
