<svg xmlns="http://www.w3.org/2000/svg" width="32" height="32" viewBox="0 0 32 32">
    <path d="M6,22h20c1.656,0,3-1.344,3-3v-2c0,1.656-1.344,3-3,3H6c-1.656,0-3-1.344-3-3v2
        C3,20.656,4.344,22,6,22z M6,18h20c1.656,0,3-1.344,3-3V4c0-1.657-1.344-3-3-3H6C4.344,1,3,2.343,3,4v11C3,16.656,4.344,18,6,18z
         M9,14H7c-0.553,0-1-0.448-1-1s0.447-1,1-1h2c0.553,0,1,0.448,1,1S9.553,14,9,14z M22,12h2c0.553,0,1,0.448,1,1s-0.447,1-1,1h-2
        c-0.553,0-1-0.448-1-1S21.447,12,22,12z M17,12h2c0.553,0,1,0.448,1,1s-0.447,1-1,1h-2c-0.553,0-1-0.448-1-1S16.447,12,17,12z
         M15,13c0,0.552-0.447,1-1,1h-2c-0.553,0-1-0.448-1-1s0.447-1,1-1h2C14.553,12,15,12.448,15,13z M10.996,4.277
        C11.292,4.105,11.63,4,11.996,4C13.103,4,14,4.897,14,6.003s-0.897,2.003-2.004,2.003c-0.366,0-0.705-0.105-1-0.277
        C11.594,7.383,12,6.744,12,6.003S11.594,4.624,10.996,4.277z M7.996,3.993C9.104,3.993,10,4.89,10,5.997S9.104,8,7.996,8
        C6.89,8,5.992,7.103,5.992,5.997S6.89,3.993,7.996,3.993z M30,7.555V22c0,1.104-0.896,2-2,2h-7c-0.52,0-1,0.234-1,1
        c0,1.104-0.896,2-2,2h-4c-1.104,0-2-0.896-2-2c0-0.766-0.48-1-1-1H4c-1.104,0-2-0.896-2-2V7.539c-1.19,0.674-2,1.922-2,3.399V26
        c0,2.209,1.791,4,4,4h24c2.209,0,4-1.791,4-4V11C32,9.523,31.19,8.248,30,7.555z"/>
</svg>
