<svg xmlns="http://www.w3.org/2000/svg" width="32" height="32" viewBox="0 0 32 32">
    <path d="M29,2H3C1.343,2,0,3.343,0,5v10c0,1.656,1.343,3,3,3h4v10c0,1.656,1.344,3,3,3
        h12c1.656,0,3-1.344,3-3V18h4c1.656,0,3-1.344,3-3V5C32,3.343,30.656,2,29,2z M12,27.986c-1.104,0-2-0.891-2-1.988
        s0.896-1.988,2-1.988s2,0.891,2,1.988S13.104,27.986,12,27.986z M13.721,23.004c-0.347-0.596-0.983-1-1.721-1
        s-1.374,0.404-1.721,1C10.106,22.707,10,22.367,10,21.999c0-1.106,0.896-2.003,2-2.003s2,0.896,2,2.003
        C14,22.367,13.894,22.707,13.721,23.004z M22,27c0,0.553-0.447,1-1,1s-1-0.447-1-1v-2c0-0.553,0.447-1,1-1s1,0.447,1,1V27z M22,20
        c0,0.553-0.447,1-1,1s-1-0.447-1-1v-2c0-0.553,0.447-1,1-1s1,0.447,1,1V20z M21,14c-0.553,0-1-0.448-1-1v-1h2v1
        C22,13.552,21.553,14,21,14z M29,15h-4v-3c1.104,0,2-0.896,2-2s-0.896-2-2-2H7c-1.104,0-2,0.896-2,2s0.896,2,2,2v3H3V5h2.004
        V4.992H28.01V5H29V15z"/>
</svg>
