<svg xmlns="http://www.w3.org/2000/svg" width="32" height="32" viewBox="0 0 32 32">
    <path d="M32,24.993c0,1.657-1.343,3-3,3H3c-1.656,0-3-1.343-3-3v-15c0-1.657,1.344-3,3-3
        h14l0,0h3.185l2.434-2.306c0.032-0.03,0.064-0.059,0.098-0.086c0.036-0.039,0.073-0.077,0.111-0.114C23.839,3.529,25.181,3,26.602,3
        s2.763,0.529,3.776,1.49c1.022,0.969,1.595,2.265,1.61,3.648c0.005,0.361-0.037,0.717-0.107,1.064C31.951,9.456,32,9.718,32,9.993
        V24.993z M24,22.993h2c0.553,0,1-0.447,1-1c0-0.552-0.447-1-1-1h-2c-0.553,0-1,0.448-1,1C23,22.546,23.447,22.993,24,22.993z
         M18,22.993h2c0.553,0,1-0.447,1-1c0-0.552-0.447-1-1-1h-2c-0.553,0-1,0.448-1,1C17,22.546,17.447,22.993,18,22.993z M12,22.993h2
        c0.553,0,1-0.447,1-1c0-0.552-0.447-1-1-1h-2c-0.553,0-1,0.448-1,1C11,22.546,11.447,22.993,12,22.993z M6,22.993h2
        c0.553,0,1-0.447,1-1c0-0.552-0.447-1-1-1H6c-0.553,0-1,0.448-1,1C5,22.546,5.447,22.993,6,22.993z M7,11.993
        c-1.109,0-2.008,0.894-2.008,1.995S5.891,15.982,7,15.982c1.108,0,2.008-0.893,2.008-1.994S8.108,11.993,7,11.993z M10.994,11.993
        c-0.366,0-0.704,0.104-1,0.274c0.596,0.346,1.002,0.982,1.002,1.721c0,0.737-0.406,1.375-1.002,1.72c0.296,0.17,0.634,0.274,1,0.274
        c1.109,0,2.008-0.893,2.008-1.994S12.104,11.993,10.994,11.993z M29.3,5.646c-1.492-1.412-3.911-1.412-5.402,0
        c-0.071,0.067-0.123,0.146-0.188,0.217l-0.021-0.021l-1.216,1.151h2.5l0.173-0.164c0.001,0,0.001,0,0.001,0s0,0,0-0.001l0.065-0.061
        l0.006,0.006c0.806-0.696,2.052-0.682,2.831,0.056c0.787,0.745,0.797,1.943,0.036,2.704l0.006,0.005l-0.249,0.235l0.003,0.002
        l-3.325,3.147l0,0l-0.006,0.005l-0.939,0.89c-0.001-0.001-0.001-0.001-0.002-0.002l-1.745,1.646
        c-0.005,0.005-0.006,0.012-0.011,0.017c-0.006,0.005-0.013,0.006-0.018,0.011l-0.062,0.058l-0.013-0.012
        c-0.345,0.253-0.835,0.242-1.151-0.057c-0.307-0.291-0.323-0.737-0.08-1.062l-0.02-0.019l0.097-0.092
        c0.002-0.002,0.002-0.003,0.003-0.005c0.002-0.001,0.004-0.001,0.005-0.002l1.75-1.661h-0.001l3.66-3.464l-0.003-0.003
        c0.331-0.326,0.329-0.844-0.01-1.165c-0.336-0.317-0.871-0.32-1.217-0.02l-0.005-0.005l-0.025,0.024l0,0l0,0l-5.61,5.31l0.021,0.021
        c-0.829,0.982-0.774,2.413,0.188,3.323c0.961,0.91,2.473,0.962,3.511,0.177l0.021,0.02l0.207-0.196h0.001l0,0l6.221-5.891
        c0.004-0.004,0.009-0.006,0.013-0.01c0.004-0.003,0.007-0.008,0.01-0.012l0.053-0.049l-0.005-0.006
        C30.784,9.276,30.77,7.037,29.3,5.646z"/>
</svg>
