<svg xmlns="http://www.w3.org/2000/svg" width="32" height="32" viewBox="0 0 32 32">
    <path d="M26.55,4.398c-3.266-3.197-8.561-3.197-11.827,0 c-0.153,0.15-0.292,0.309-0.432,0.467l-0.022-0.022l-5.983,5.857c-0.016,0.015-0.031,0.029-0.046,0.045l-0.027,0.026l0.002,0.002
        c-0.32,0.337-0.52,0.786-0.52,1.283c0,1.044,0.864,1.89,1.931,1.89c0.508,0,0.966-0.196,1.311-0.51l0.006,0.006l6.056-5.928
        l0.008,0.007l0.598-0.584l0.015,0.014c1.763-1.577,4.49-1.544,6.196,0.125c1.724,1.687,1.743,4.399,0.08,6.124l0.012,0.011
        l-0.544,0.533l0.004,0.004l-7.277,7.125L15.96,21l-1.942,1.9c-0.001-0.002-0.002-0.002-0.003-0.004l-3.79,3.697
        c-0.021,0.021-0.034,0.045-0.056,0.066s-0.048,0.035-0.07,0.055l-0.102,0.1l-0.011-0.01c-0.754,0.576-1.843,0.533-2.536-0.145
        c-0.676-0.662-0.739-1.689-0.199-2.426l-0.021-0.02l0.205-0.201c0.005-0.006,0.009-0.012,0.015-0.018
        c0.005-0.004,0.012-0.008,0.018-0.014l3.823-3.752c-0.001,0-0.002,0-0.003,0l7.981-7.814c0.001-0.001,0.002-0.001,0.003-0.002
        l0.027-0.027l-0.003-0.002c0.726-0.739,0.719-1.913-0.024-2.642c-0.735-0.719-1.913-0.731-2.669-0.048l-0.006-0.005L4.261,21.766
        l0.046,0.045c-1.815,2.225-1.697,5.465,0.409,7.525c2.105,2.061,5.414,2.178,7.687,0.4l0.046,0.045l0.453-0.443
        c0.001,0,0.001,0,0.002-0.002c0.001,0,0.001,0,0.002-0.002l13.604-13.322c0.014-0.012,0.028-0.023,0.041-0.036
        s0.023-0.027,0.037-0.04l0.1-0.098l-0.005-0.006C29.809,12.626,29.77,7.549,26.55,4.398z"/>
</svg>
