<svg xmlns="http://www.w3.org/2000/svg" width="32" height="32" viewBox="0 0 32 32">
    <path d="M21,17h-4v3h4V17z M21,13h-4v3h4V13z M29,5h-1V4c0-1.104-0.896-2-2-2h-2
        c-1.104,0-2,0.896-2,2v1h-3V4c0-1.104-0.896-2-2-2h-2c-1.104,0-2,0.896-2,2v1h-3V4c0-1.104-0.896-2-2-2H6C4.896,2,4,2.896,4,4v1H3
        C1.343,5,0,6.343,0,8v18c0,1.657,1.343,3,3,3h26c1.656,0,3-1.343,3-3V8C32,6.343,30.656,5,29,5z M29,26H3V11h26V26z M21,21h-4v3h4
        V21z M27,17h-4v3h4V17z M27,13h-4v3h4V13z M9,17H5v3h4V17z M9,21H5v3h4V21z M15,13h-4v3h4V13z M15,21h-4v3h4V21z M15,17h-4v3h4V17
        z M27,21h-4v3h4V21z"/>
</svg>
