<svg xmlns="http://www.w3.org/2000/svg" width="32" height="32" viewBox="0 0 32 32">
    <path d="M29.236,5.158c0.008-0.035,0.005-0.064-0.012-0.091
        c-0.141-0.224-1.059-1.262-2.562-2.003c-0.078-0.048-0.157-0.097-0.244-0.136l-1.537-0.695c-0.812-0.367-1.754-0.128-2.129,0.523
        l-3.391,5.909c-0.375,0.654-0.1,1.578,0.639,2.078l1.293,0.878c0.002,0.001,0.002,0.003,0.004,0.004
        c0.602,0.393,1.914,1.693,0.117,3.781c-0.012,0.013-0.014,0.024-0.024,0.037c-1.196,1.494-2.556,3.006-4.049,4.487
        c-0.66,0.574-1.32,1.123-1.977,1.639c-0.009,0.008-0.017,0.01-0.027,0.018c-2.091,1.762-3.381,0.489-3.771-0.096
        c0-0.001-0.001-0.001-0.002-0.002l-0.871-1.26c-0.495-0.716-1.415-0.981-2.068-0.612l-5.91,3.339
        c-0.652,0.368-0.895,1.289-0.533,2.079l0.686,1.496c0.037,0.081,0.083,0.153,0.128,0.226c0.732,1.472,1.768,2.365,1.991,2.502
        c0.027,0.017,0.056,0.019,0.091,0.011c2.874,2.286,11.232-1.098,17.298-7.535C28.437,15.758,31.501,7.937,29.236,5.158z
         M2.206,10.655c0.035,0.078,0.84,1.848,1.894,3.322c1.083,1.516,2.399,2.718,2.468,2.781l0.008,0.012
        c0.122,0.169,0.278,0.254,0.434,0.253c0.156,0.001,0.312-0.084,0.434-0.253l0.009-0.012c0.068-0.062,1.384-1.265,2.467-2.781
        c1.055-1.474,1.859-3.244,1.895-3.322l0.011-0.015c0.127-0.178,0.195-0.422,0.195-0.67c0-0.115-0.015-0.231-0.045-0.342
        c-0.095-0.351-0.325-0.581-0.582-0.581H9.006v-0.23c0-3.711,2.848-3.797,2.848-3.797l-0.007-0.043
        c0.667-0.155,1.164-0.751,1.164-1.467c0-0.834-0.673-1.51-1.504-1.51c-0.253,0-0.488,0.068-0.697,0.179
        c-1.528,0.4-5.518,1.932-5.771,6.868H2.627c-0.257,0-0.487,0.23-0.583,0.581C2.015,9.739,2,9.854,2,9.97
        c0,0.249,0.068,0.492,0.195,0.67L2.206,10.655z"/>
</svg>
