<svg xmlns="http://www.w3.org/2000/svg" width="32" height="32" viewBox="0 0 32 32">
    <path d="M29.686,24.312C31.117,22.789,32,20.745,32,18.491c0-2.596-1.166-4.917-3-6.478
        V7c0-1.657-1.343-3-3-3H3C1.343,4,0,5.343,0,7v13c0,1.656,1.343,3,3,3h13.283c1.504,2.399,4.166,4,7.208,4
        c1.161,0,2.268-0.234,3.276-0.655l1.909,2.843c0.548,0.815,1.67,1.058,2.506,0.54c0.836-0.517,1.07-1.597,0.522-2.412
        L29.686,24.312z M7,18H5c-0.553,0-1-0.447-1-1s0.447-1,1-1h2c0.553,0,1,0.447,1,1S7.553,18,7,18z M5.996,12.024
        c-1.106,0-2.004-0.897-2.004-2.003S4.89,8.017,5.996,8.017C7.104,8.017,8,8.914,8,10.021S7.104,12.024,5.996,12.024z
         M8.996,11.747C9.594,11.4,10,10.761,10,10.021s-0.406-1.38-1.004-1.727c0.295-0.171,0.634-0.277,1-0.277
        c1.106,0,2.004,0.897,2.004,2.003s-0.897,2.003-2.004,2.003C9.63,12.024,9.292,11.918,8.996,11.747z M14,18h-2
        c-0.553,0-1-0.447-1-1s0.447-1,1-1h2c0.553,0,1,0.447,1,1S14.553,18,14,18z M29.627,20.664c-0.015,0.04-0.029,0.08-0.045,0.121
        c-0.016,0.043-0.041,0.082-0.058,0.125c-0.097,0.242-0.203,0.479-0.327,0.707c-0.014,0.025-0.022,0.055-0.037,0.08
        c-0.012,0.02-0.024,0.038-0.036,0.059c-0.031,0.054-0.072,0.102-0.105,0.154c-0.101,0.163-0.208,0.321-0.322,0.475
        c-0.051,0.068-0.1,0.139-0.153,0.205c-0.163,0.202-0.339,0.393-0.524,0.573c-0.019,0.018-0.033,0.039-0.052,0.057
        c-0.001,0.001-0.001,0.001-0.002,0.002c-0.03,0.028-0.062,0.056-0.092,0.084c-0.003,0.003-0.007,0.006-0.011,0.009
        c-0.033,0.03-0.07,0.057-0.104,0.086c-0.096,0.083-0.193,0.163-0.294,0.241c-0.064,0.05-0.13,0.099-0.196,0.146
        c-0.112,0.08-0.228,0.156-0.345,0.229c-0.061,0.037-0.121,0.075-0.183,0.11c-0.131,0.076-0.265,0.146-0.4,0.212
        c-0.055,0.027-0.108,0.054-0.163,0.079c-0.15,0.068-0.304,0.129-0.459,0.186c-0.031,0.012-0.061,0.026-0.092,0.037
        c-0.001,0-0.002,0.001-0.003,0.001l0.001,0.002c-0.008,0.003-0.016,0.004-0.022,0.006c-0.011,0.004-0.021,0.005-0.032,0.008
        c-0.289,0.098-0.587,0.176-0.894,0.232c-0.006,0.001-0.012,0.004-0.019,0.005c-0.059,0.011-0.119,0.018-0.179,0.027
        c-0.011,0.002-0.021,0.001-0.031,0.003c-0.269,0.039-0.542,0.064-0.82,0.07c-0.011,0-0.021,0.003-0.031,0.003
        c-0.034,0.001-0.066,0.009-0.101,0.009c-0.134,0-0.264-0.017-0.396-0.025c-0.102-0.006-0.204-0.008-0.305-0.019
        c-0.126-0.014-0.249-0.036-0.373-0.058c-0.123-0.02-0.245-0.042-0.366-0.069c-0.104-0.023-0.206-0.05-0.308-0.079
        c-0.149-0.042-0.296-0.089-0.44-0.142c-0.072-0.025-0.146-0.05-0.217-0.079c-0.206-0.082-0.407-0.174-0.603-0.276
        c-0.009-0.005-0.02-0.008-0.028-0.013c-0.013-0.007-0.024-0.013-0.036-0.019c-0.009-0.004-0.018-0.008-0.025-0.013
        c-0.002,0-0.003-0.001-0.005-0.002c-0.146-0.08-0.285-0.167-0.424-0.258c-0.003-0.002-0.006-0.004-0.009-0.006
        c-0.036-0.023-0.074-0.044-0.109-0.068c-0.002-0.001-0.003-0.002-0.005-0.003c-0.123-0.084-0.241-0.175-0.358-0.268
        c-0.011-0.008-0.021-0.017-0.031-0.024c-0.036-0.029-0.075-0.056-0.11-0.086c-0.003-0.002-0.005-0.004-0.008-0.006
        c-0.108-0.09-0.21-0.187-0.312-0.283c-0.018-0.017-0.035-0.033-0.054-0.05c-0.026-0.026-0.055-0.051-0.081-0.077
        c-0.006-0.006-0.013-0.012-0.019-0.018c-0.022-0.023-0.049-0.045-0.071-0.068h0.01c-0.002-0.002-0.003-0.004-0.005-0.005
        c-0.007-0.007-0.012-0.016-0.018-0.022c-0.539-0.568-0.979-1.23-1.285-1.965c-0.004-0.009-0.009-0.018-0.013-0.026
        c-0.016-0.036-0.026-0.074-0.041-0.11c-0.045-0.114-0.084-0.229-0.123-0.346c-0.01-0.031-0.023-0.061-0.032-0.091
        c-0.004-0.011-0.009-0.021-0.012-0.032c-0.021-0.065-0.033-0.134-0.052-0.199c-0.021-0.079-0.04-0.159-0.06-0.238
        c0.001,0,0.001,0,0.002-0.001c-0.107-0.467-0.169-0.951-0.169-1.451c0-0.015,0.002-0.029,0.002-0.044
        c-0.001,0-0.003,0.001-0.004,0.001c0.006-0.868,0.185-1.694,0.499-2.449c0.006-0.012,0.009-0.025,0.015-0.037
        c0.005-0.012,0.008-0.024,0.013-0.035c0.001,0.001,0.002,0.001,0.003,0.002c0.233-0.542,0.539-1.045,0.903-1.499
        c0,0-0.001-0.001-0.002-0.002c0.007-0.009,0.016-0.017,0.023-0.026c0.284-0.35,0.604-0.669,0.954-0.953
        c0.053-0.043,0.11-0.082,0.165-0.124c0.122-0.093,0.245-0.184,0.374-0.268c0.076-0.05,0.155-0.095,0.233-0.142
        c0.113-0.067,0.228-0.133,0.345-0.193c0.091-0.047,0.183-0.09,0.275-0.133c0.11-0.05,0.222-0.098,0.335-0.142
        c0.104-0.04,0.206-0.079,0.312-0.113c0.107-0.036,0.217-0.067,0.327-0.097c0.113-0.031,0.227-0.063,0.344-0.088
        c0.104-0.022,0.209-0.038,0.314-0.055c0.126-0.021,0.251-0.044,0.38-0.058c0.08-0.008,0.162-0.009,0.243-0.014
        c0.146-0.01,0.292-0.025,0.441-0.025c0.083,0,0.164,0.012,0.246,0.016c0.162,0.006,0.324,0.014,0.483,0.031
        c0.017,0.002,0.033,0.001,0.05,0.003c0.074,0.009,0.146,0.022,0.22,0.034c0.031,0.005,0.062,0.013,0.093,0.018
        c0.127,0.022,0.252,0.046,0.376,0.075c0.028,0.006,0.058,0.01,0.086,0.017c0.071,0.018,0.142,0.035,0.212,0.055
        c0.021,0.006,0.041,0.015,0.062,0.021c0.124,0.037,0.245,0.08,0.367,0.124c0.067,0.024,0.138,0.042,0.204,0.069
        c0.023,0.01,0.048,0.017,0.071,0.026c0.017,0.007,0.031,0.017,0.048,0.023c0.204,0.086,0.402,0.183,0.596,0.289
        c0.021,0.011,0.044,0.02,0.064,0.031c0.014,0.007,0.025,0.016,0.039,0.023c0.063,0.037,0.121,0.081,0.184,0.12
        c0.112,0.069,0.223,0.14,0.33,0.215c0.031,0.022,0.065,0.041,0.097,0.063c0.026,0.019,0.051,0.038,0.076,0.057
        c0.021,0.017,0.039,0.038,0.061,0.055c0.265,0.206,0.514,0.43,0.743,0.673c0.049,0.051,0.095,0.103,0.142,0.155
        c0.215,0.243,0.413,0.5,0.591,0.772c0.018,0.027,0.042,0.05,0.06,0.078c0.001,0,0.001,0,0.001,0.001v-0.008
        c0.014,0.022,0.023,0.047,0.037,0.069c0.035,0.058,0.062,0.121,0.097,0.18c0.048,0.084,0.094,0.169,0.138,0.256
        c0.039,0.076,0.085,0.147,0.121,0.225c0.013,0.027,0.026,0.053,0.039,0.081c0.017,0.038,0.027,0.079,0.044,0.117
        c0.01,0.023,0.017,0.047,0.025,0.07c0.083,0.2,0.165,0.4,0.228,0.609c0.008,0.024,0.012,0.05,0.02,0.074
        c0.032,0.113,0.051,0.23,0.076,0.346c0.014,0.064,0.029,0.128,0.042,0.192c0.012,0.064,0.031,0.127,0.042,0.192
        c0.011,0.064,0.021,0.129,0.029,0.193c0.007,0.052,0.006,0.106,0.012,0.158c0.005,0.045,0.006,0.092,0.01,0.137
        C29.977,18.14,30,18.322,30,18.512c0,0.112-0.022,0.217-0.029,0.327c-0.009,0.183-0.024,0.364-0.048,0.543
        c-0.01,0.062-0.007,0.13-0.018,0.192c-0.006,0.039-0.011,0.077-0.018,0.115c-0.007,0.037-0.021,0.07-0.028,0.106
        c-0.051,0.253-0.119,0.499-0.198,0.74C29.647,20.578,29.642,20.623,29.627,20.664z M19.474,15.646
        c-0.583,0.813-0.935,1.802-0.935,2.878c0,1.043,0.325,2.008,0.875,2.806c0.148-0.301,0.279-0.626,0.372-1.001
        c0.143-0.574,0.215-1.244,0.215-1.99c0-0.672-0.068-1.283-0.204-1.817C19.714,16.195,19.602,15.91,19.474,15.646z M27.6,19.392
        c-0.206-0.094-0.465-0.157-0.79-0.157h-0.044v-4.091c0-0.137-0.025-0.25-0.048-0.365c-0.38-0.327-0.798-0.611-1.265-0.811
        c-0.128,0.038-0.247,0.095-0.354,0.195c-0.137,0.129-0.304,0.326-0.509,0.604l-2.986,4c-0.083,0.109-0.153,0.201-0.21,0.277
        c-0.058,0.078-0.114,0.159-0.173,0.248c-0.064,0.101-0.111,0.193-0.142,0.28c-0.036,0.099-0.054,0.202-0.054,0.303
        c0,0.349,0.115,0.634,0.346,0.843c0.222,0.2,0.544,0.308,0.957,0.308h2.58v0.8c0,0.342,0.095,0.611,0.264,0.802
        c0.157,0.173,0.368,0.259,0.606,0.278c0.336-0.176,0.647-0.386,0.933-0.63c0.036-0.132,0.054-0.281,0.054-0.45v-0.8h0.146
        c0.336,0,0.589-0.073,0.773-0.202c0.144-0.1,0.315-0.31,0.315-0.685C28,19.68,27.782,19.476,27.6,19.392z M24.909,19.234h-1.706
        l1.706-2.294V19.234z"/>
</svg>
