<svg xmlns="http://www.w3.org/2000/svg" width="32" height="32" viewBox="0 0 32 32">
    <path d="M29.722,25.343c-0.456-0.986-2.695-6.55-9.495-12.065
        c4.55-4.43,7.774-7.304,7.91-7.41c2.638-2.074,0.443-3.771-1.333-3.105c-3.018,1.129-6.994,2.906-11.583,7.038
        c-2.263-1.348-4.854-2.63-7.834-3.767C2.429,4.142,0.254,6.346,3.625,8.268c2.515,1.434,5.213,3.299,7.864,5.301
        c-2.456,2.756-5.043,6.219-7.72,10.61c-2.769,4.542,0.319,6.128,2.5,3.663c3.352-3.79,6.789-7.397,9.918-10.558
        c6.881,5.669,12.329,11.062,11.507,10.166C29.829,29.822,30.392,26.79,29.722,25.343z"/>
</svg>
