<svg xmlns="http://www.w3.org/2000/svg" width="32" height="32" viewBox="0 0 32 32">
    <path d="M20.889,16.48l6.107-6.107c0.675-0.675,0.675-1.769,0-2.443l-2.443-2.443
        c-0.674-0.675-1.769-0.675-2.443,0l-6.107,6.107L9.895,5.487c-0.675-0.675-1.769-0.675-2.443,0L5.008,7.93
        c-0.675,0.674-0.675,1.768,0,2.443l6.107,6.107l-6.107,6.107c-0.675,0.676-0.675,1.77,0,2.443l2.443,2.443
        c0.674,0.674,1.768,0.674,2.443,0l6.107-6.107l6.107,6.107c0.675,0.674,1.77,0.674,2.443,0l2.443-2.443
        c0.675-0.674,0.675-1.768,0-2.443L20.889,16.48z"/>
</svg>
