<svg xmlns="http://www.w3.org/2000/svg" width="32" height="32" viewBox="0 0 32 32">
    <path d="M16,2C8.268,2,2,8.268,2,16s6.268,14,14,14s14-6.268,14-14S23.732,2,16,2z
         M22.711,19.727c0.412,0.412,0.412,1.08,0,1.492l-1.492,1.492c-0.412,0.412-1.08,0.412-1.492,0l-3.73-3.73l-3.73,3.73
        c-0.412,0.412-1.08,0.412-1.492,0l-1.491-1.492c-0.412-0.412-0.412-1.08,0-1.492l3.729-3.73l-3.729-3.729
        c-0.412-0.412-0.412-1.08,0-1.492l1.491-1.492c0.412-0.412,1.08-0.412,1.492,0l3.73,3.73l3.73-3.73
        c0.412-0.412,1.08-0.412,1.492,0l1.492,1.492c0.412,0.412,0.412,1.08,0,1.492l-3.73,3.729L22.711,19.727z"/>
</svg>
