<svg xmlns="http://www.w3.org/2000/svg" width="32" height="32" viewBox="0 0 32 32">
    <path d="M26,25.998c-0.553,0-1-0.447-1-1.001h-3c-1.657,0-3-1.343-3-3.001v-2.993h-2
        v7.995c0,1.105-0.896,2.001-2,2.001H4.275C7.19,31.115,11.357,32,16,32c6.904,0,12.773-1.94,15.012-7.003H27
        C27,25.551,26.553,25.998,26,25.998z M15,19.003h-2v1.998c0,1.657-1.343,3.001-3,3.001H6.999C6.996,24.553,6.551,24.997,6,24.997
        s-0.996-0.444-0.999-0.995h-4.38c0.369,1.135,0.906,2.127,1.578,2.996H15V19.003z M31.999,19.991L31.999,19.991
        C31.994,18.891,31.102,18,30,18h-4.998v-5.007h1.233v-0.036c0.389,0.066,0.801-0.02,1.101-0.301c0.486-0.454,0.486-1.191,0-1.645
        c0,0-2.192-2.865-4.761-5.267c-2.534-2.37-5.444-4.277-5.444-4.277c-0.111-0.104-0.242-0.173-0.377-0.226
        c-0.17-0.091-0.448-0.155-0.78-0.155c-0.377,0-0.696,0.08-0.85,0.192c-0.099,0.049-0.193,0.11-0.278,0.189
        c0,0-2.91,1.907-5.444,4.277C6.833,8.146,4.64,11.011,4.64,11.011c-0.485,0.454-0.485,1.191,0,1.645
        c0.307,0.286,0.729,0.371,1.124,0.297v0.04h1.233V18H2c-1.101,0-1.994,0.891-1.999,1.99h0c0,0.003,0,0.006,0,0.009V20v1.001h0.052
        H5v-0.005c0-0.553,0.447-1.001,1-1.001s1,0.448,1,1.001v0.005h3V18h0.012v-7.229l-0.005-0.294
        c0.577-0.707,1.399-1.731,2.349-2.643c1.623-1.559,3.478-2.832,3.498-2.845l0.136,0.03l0.075-0.022
        c0.157,0.107,1.963,1.345,3.516,2.836c0.952,0.914,1.833,1.942,2.41,2.648l-0.002,0.289v7.224H22v4.001h3c0-0.553,0.447-1,1-1
        s1,0.447,1,1h4.829c0.046-0.326,0.097-0.649,0.119-0.995H32V20C32,19.997,31.999,19.994,31.999,19.991z"/>
</svg>
