<svg xmlns="http://www.w3.org/2000/svg" width="32" height="32" viewBox="0 0 32 32">
    <path d="M19.437,10.247l-5.082,5.563c-0.1,0.109-0.179,0.247-0.224,0.388l-2.26,7.145
        c-0.08,0.251-0.037,0.474,0.105,0.556c0.143,0.083,0.356,0.009,0.534-0.186l5.082-5.564c0.1-0.108,0.179-0.246,0.224-0.387
        l2.26-7.145c0.08-0.251,0.037-0.474-0.105-0.556C19.827,9.978,19.614,10.052,19.437,10.247z M19.707,3.512
        C19.116,2.042,17.682,1,16,1s-3.116,1.042-3.707,2.512C6.363,5.139,2,10.554,2,17c0,7.732,6.268,14,14,14s14-6.268,14-14
        C30,10.554,25.638,5.139,19.707,3.512z M18.231,26.947L16,25.459l-2.231,1.488c-3.839-0.858-6.854-3.88-7.714-7.718L7.541,17
        l-1.486-2.229c0.858-3.838,3.875-6.86,7.715-7.717L16,8.541l2.23-1.487c3.84,0.857,6.856,3.879,7.715,7.717L24.459,17l1.486,2.229
        C25.086,23.067,22.07,26.089,18.231,26.947z"/>
</svg>
