<svg xmlns="http://www.w3.org/2000/svg" width="32" height="32" viewBox="0 0 32 32">
    <path d="M28,30h-9.4c-0.015-0.001-0.029-0.008-0.044-0.008
        c-0.524,0-0.787-0.093-1.258-0.557l-14.77-14.77c-0.321-0.332-0.526-0.65-0.526-1.102C2.002,13.562,2,13.56,2,13.557V4
        c0-1.104,0.896-2,2-2h15c1.104,0,2,0.896,2,2v7h7c1.104,0,2,0.896,2,2v15C30,29.104,29.104,30,28,30z M10.983,19.085
        c0.121-0.015,0.24-0.036,0.366-0.036c1.689,0,3.061,1.37,3.061,3.061c0,0.112-0.021,0.219-0.032,0.327l1.853,1.829
        c0.138-0.485,0.233-0.988,0.233-1.521c0-3.056-2.388-5.532-5.334-5.532c-0.606,0-1.179,0.124-1.719,0.319L10.983,19.085z M27,17
        c-1.657,0-3-1.343-3-3H5.833l1.937,1.912C8.782,15.4,9.911,15.1,11.13,15.1c4.124,0,7.468,3.368,7.468,7.646
        c0,1.139-0.262,2.204-0.692,3.174L19,27h5c0-1.657,1.343-3,3-3V17z M22.5,22c-0.828,0-1.5-0.672-1.5-1.5s0.672-1.5,1.5-1.5
        s1.5,0.672,1.5,1.5S23.328,22,22.5,22z"/>
</svg>
