<svg xmlns="http://www.w3.org/2000/svg" width="32" height="32" viewBox="0 0 32 32">
    <path d="M29,26H3c-1.656,0-3-1.343-3-3V8c0-1.657,1.344-3,3-3h26c1.657,0,3,1.343,3,3v15
        C32,24.657,30.657,26,29,26z M5.957,13.711c0.315-0.36,0.727-0.54,1.232-0.54c0.366,0,0.678,0.102,0.935,0.305
        c0.256,0.203,0.425,0.48,0.505,0.831l1.365-0.323c-0.155-0.542-0.389-0.957-0.699-1.246c-0.521-0.489-1.2-0.733-2.035-0.733
        c-0.957,0-1.729,0.312-2.315,0.935c-0.587,0.622-0.881,1.497-0.881,2.623c0,1.064,0.292,1.903,0.876,2.518S6.269,19,7.176,19
        c0.732,0,1.338-0.18,1.814-0.538s0.817-0.906,1.022-1.645l-1.337-0.421c-0.115,0.496-0.305,0.859-0.568,1.09
        s-0.579,0.346-0.945,0.346c-0.497,0-0.901-0.182-1.212-0.545c-0.311-0.362-0.466-0.972-0.466-1.827
        C5.484,14.654,5.643,14.071,5.957,13.711z M15.205,12.119l-1.672,5.007l-1.729-5.007H10.31l2.441,6.766h1.472l2.445-6.766H15.205z
         M22.068,12.119l-1.672,5.007l-1.729-5.007h-1.495l2.441,6.766h1.472l2.445-6.766H22.068z M28.305,17.68h-2.6
        c0.068-0.116,0.158-0.236,0.268-0.359c0.11-0.123,0.372-0.373,0.785-0.748s0.699-0.663,0.857-0.863
        c0.239-0.301,0.414-0.59,0.523-0.865c0.11-0.275,0.166-0.565,0.166-0.869c0-0.536-0.192-0.983-0.578-1.344
        c-0.385-0.359-0.914-0.54-1.588-0.54c-0.615,0-1.128,0.156-1.537,0.467c-0.41,0.311-0.654,0.823-0.731,1.536l1.304,0.13
        c0.025-0.379,0.118-0.649,0.279-0.812c0.162-0.163,0.379-0.245,0.652-0.245c0.276,0,0.493,0.078,0.65,0.233
        c0.156,0.155,0.235,0.378,0.235,0.667c0,0.262-0.091,0.526-0.271,0.794c-0.134,0.193-0.495,0.562-1.086,1.107
        c-0.732,0.674-1.223,1.215-1.472,1.622c-0.248,0.408-0.397,0.839-0.447,1.295h4.589V17.68z"/>
</svg>
