<svg xmlns="http://www.w3.org/2000/svg" width="32" height="32" viewBox="0 0 32 32">
    <path d="M2,17h11c1.104,0,2-0.896,2-2V4c0-1.104-0.896-2-2-2H2C0.896,2,0,2.896,0,4v11
        C0,16.104,0.896,17,2,17z M12,14H5.732L12,7.733V14z M3,5h6.258L3,11.258V5z M32,22.875c0,0,0-3.484,0-4.789
        c0-2.511-1.662-5.955-2.914-8.965c-1.06-2.547-6.348-2.382-9.086-2.98c-2.738-0.599-3,0.571-3,2V19H0v3.689
        C0,25.861,2.012,26,2.012,26s0.368,0,1,0c0,0.002,0,0.005,0,0.007c0,2.765,2.233,5.007,4.988,5.007s4.988-2.242,4.988-5.007
        c0-0.002-0.001-0.005-0.001-0.007h6.025c0,0.002-0.001,0.005-0.001,0.007c0,2.765,2.233,5.007,4.988,5.007
        s4.988-2.242,4.988-5.007c0-0.002-0.001-0.005-0.001-0.007h0.083C32.415,26,32,22.875,32,22.875z M8,28.006
        c-1.102,0-1.995-0.896-1.995-2.004C6.005,24.896,6.898,24,8,24s1.995,0.896,1.995,2.002C9.995,27.109,9.102,28.006,8,28.006z
         M24,28.006c-1.102,0-1.995-0.896-1.995-2.004C22.005,24.896,22.898,24,24,24s1.995,0.896,1.995,2.002
        C25.995,27.109,25.102,28.006,24,28.006z M22,16c-0.553,0-1-0.447-1-1v-4c0-0.552,0.447-1,1-1h4l2,6H22z"/>
</svg>
