<svg xmlns="http://www.w3.org/2000/svg" width="32" height="32" viewBox="0 0 32 32">
    <path d="M18,8.414l1.5,4.336L21,8.414C21.213,7.862,22.025,8,22.482,8s0.655,0.447,0.442,1
        l-1.927,5c-0.213,0.553-0.756,1-1.213,1c-0.114,0-0.456,0-0.57,0c-0.457,0-1-0.447-1.213-1l-1.927-5c-0.213-0.553-0.015-1,0.442-1
        S17.787,7.862,18,8.414z M12.5,12.375H12v-0.044c-1.141-0.203-2-1.085-2-2.144C10,8.979,11.119,8,12.5,8H14c0.553,0,1,0.447,1,1
        s-0.447,1-1,1h-2v0.625h0.5c1.381,0,2.5,0.979,2.5,2.188S13.881,15,12.5,15H11c-0.553,0-1-0.447-1-1c0-0.552,0.447-1,1-1h2v-0.625
        H12.5z M27.991,17.777c0,2.144-0.271,2.802-1.967,4.419c-0.064,0.062-0.104,0.123-0.152,0.184l-5.927,5.927
        C18.496,29.631,17.902,30,16.031,30H8c-1.104,0-2-0.896-2-2V17h3v10h7c1.104,0,2-0.896,2-2v-3c0-1.104,0.896-2,2-2h3
        c1.104,0,2-0.896,2-2V5H9v1H6V4c0-1.104,0.896-2,2-2h18c1.104,0,2,0.896,2,2v13.69C27.999,17.721,27.991,17.745,27.991,17.777z M8,8
        c0.553,0,1,0.447,1,1s-0.447,1-1,1H7c-0.553,0-1,0.447-1,1v1c0,0.553,0.447,1,1,1h1c0.553,0,1,0.448,1,1c0,0.553-0.447,1-1,1H7
        c-1.657,0-3-1.343-3-3v-1c0-1.657,1.343-3,3-3H8z"/>
</svg>
