<svg xmlns="http://www.w3.org/2000/svg" width="32" height="32" viewBox="0 0 32 32">
    <path d="M24,9v4h1c0.553,0,1,0.448,1,1c0,0.553-0.447,1-1,1h-2c-0.553,0-1-0.447-1-1V9
        c0-0.553,0.447-1,1-1S24,8.447,24,9z M14,15c-0.553,0-1-0.447-1-1V9c0-0.553,0.447-1,1-1s1.208,0.447,1.466,1L17,12.296L18.534,9
        C18.792,8.447,19.447,8,20,8s1,0.447,1,1v5c0,0.553-0.447,1-1,1s-1-0.447-1-1v-1.704c0,0-0.947,2.671-2,2.671s-2-2.671-2-2.671V14
        C15,14.553,14.553,15,14,15z M30.991,17.777c0,2.144-0.271,2.802-1.967,4.419c-0.064,0.062-0.104,0.123-0.152,0.185l-5.926,5.925
        C21.496,29.631,20.902,30,19.031,30H11c-1.104,0-2-0.896-2-2V17h3v10h7c1.104,0,2-0.896,2-2v-3c0-1.104,0.896-2,2-2h3
        c1.104,0,2-0.896,2-2V5H12v1H9V4c0-1.104,0.896-2,2-2h18c1.104,0,2,0.896,2,2v13.69C30.998,17.721,30.991,17.745,30.991,17.777z
         M11,8c0.553,0,1,0.447,1,1s-0.447,1-1,1v4c0,0.553-0.447,1-1,1s-1-0.447-1-1v-4c-0.553,0-1-0.447-1-1s0.447-1,1-1H11z M6,15
        c-0.553,0-1-0.447-1-1v-1H3v1c0,0.553-0.447,1-1,1s-1-0.447-1-1V9c0-0.553,0.447-1,1-1s1,0.447,1,1v2h2V9c0-0.553,0.447-1,1-1
        s1,0.447,1,1v5C7,14.553,6.553,15,6,15z"/>
</svg>
