<svg xmlns="http://www.w3.org/2000/svg" width="32" height="32" viewBox="0 0 32 32">
    <path d="M19,15c-0.553,0-1-0.447-1-1V9c0-0.553,0.447-1,1-1h3c0.553,0,1,0.447,1,1
        s-0.447,1-1,1h-2v1h1c0.553,0,1,0.448,1,1c0,0.553-0.447,1-1,1h-1v1C20,14.553,19.553,15,19,15z M14,8c1.657,0,3,1.343,3,3v1
        c0,1.657-1.343,3-3,3h-2c-0.553,0-1-0.447-1-1V9c0-0.553,0.447-1,1-1H14z M13,13h1c0.553,0,1-0.447,1-1v-1c0-0.553-0.447-1-1-1h-1
        V13z M27.991,17.777c0,2.144-0.271,2.802-1.967,4.419c-0.064,0.062-0.104,0.123-0.152,0.184l-5.927,5.927
        C18.496,29.631,17.902,30,16.031,30H8c-1.104,0-2-0.896-2-2V17h3v10h7c1.104,0,2-0.896,2-2v-3c0-1.104,0.896-2,2-2h3
        c1.104,0,2-0.896,2-2V5H9v1H6V4c0-1.104,0.896-2,2-2h18c1.104,0,2,0.896,2,2v13.69C27.998,17.721,27.991,17.745,27.991,17.777z
         M10,10.5c0,1.381-1.119,2.5-2.5,2.5H6v1c0,0.553-0.447,1-1,1s-1-0.447-1-1V9c0-0.553,0.447-1,1-1h2.5C8.881,8,10,9.119,10,10.5z
         M6,11h2v-1H6V11z"/>
</svg>
