<svg xmlns="http://www.w3.org/2000/svg" width="32" height="32" viewBox="0 0 32 32">
    <path d="M17,15c-0.553,0-1-0.447-1-1v-4c-0.553,0-1-0.447-1-1s0.447-1,1-1h2
        c0.553,0,1,0.447,1,1s-0.447,1-1,1v4C18,14.553,17.553,15,17,15z M13.515,14.919c-0.55,0.253-1.062,0.022-1.383-0.515l-0.646-1.084
        l-0.637,1.056c-0.323,0.535-0.839,0.764-1.392,0.513c-0.553-0.253-0.609-0.891-0.287-1.426l1.207-1.999L9.229,9.54
        c-0.32-0.538-0.329-1.179,0.221-1.432s1.126-0.022,1.447,0.515l0.594,0.995l0.602-0.998c0.323-0.535,0.903-0.764,1.456-0.512
        s0.545,0.89,0.223,1.425l-1.172,1.941l1.201,2.014C14.12,14.025,14.064,14.666,13.515,14.919z M27.991,17.777
        c0,2.144-0.271,2.802-1.967,4.419c-0.064,0.062-0.104,0.123-0.152,0.185l-5.926,5.925C18.496,29.631,17.902,30,16.031,30H8
        c-1.104,0-2-0.896-2-2V17h3v10h7c1.104,0,2-0.896,2-2v-3c0-1.104,0.896-2,2-2h3c1.104,0,2-0.896,2-2V5H9v1H6V4c0-1.104,0.896-2,2-2
        h18c1.104,0,2,0.896,2,2v13.69C27.998,17.721,27.991,17.745,27.991,17.777z M8,9c0,0.553-0.447,1-1,1v4c0,0.553-0.447,1-1,1
        s-1-0.447-1-1v-4c-0.553,0-1-0.447-1-1s0.447-1,1-1h2C7.553,8,8,8.447,8,9z"/>
</svg>
