<svg xmlns="http://www.w3.org/2000/svg" width="32" height="32" viewBox="0 0 32 32">
    <path d="M26.568,20.025c-1.11-2.44-4.077-3.733-7.568-4.708V7.581
        c2.474,0.746,2.685,2.831,2.631,3.848C22.08,11.872,22.77,11.96,23.562,12h1.693c1.006-0.131,1.818-0.655,1.366-2.354
        c-0.106-0.399,0.103-0.29,0.387,0.1C26.164,7.376,24.08,3.878,19,3.021V2.51C19,1.439,17.881,1,16.5,1S14,1.439,14,2.51v0.484
        c-6.903,0.996-8.007,6-7.844,8.258C6.361,14.084,9.003,16.708,14,18.48v6.869c-2.241-0.658-2.926-2.179-3.088-3.432
        c-0.2,0.197-0.36,0.239-0.369,0.033c-0.056-1.324-0.774-1.87-2.214-1.93c-0.923-0.037-1.88-0.092-2.322,0.54
        c0.057,1.903,0.79,8.19,7.993,9.313v0.676C14,31.621,15.119,32,16.5,32s2.5-0.379,2.5-1.449v-0.699
        C25.658,28.846,28.425,24.099,26.568,20.025z M14,13.891c-2.347-1.015-2.954-2.362-2.9-3.462c0.067-1.353,1.099-2.31,2.9-2.785
        V13.891z M19,25.572v-5.598c1.535,0.505,2.611,1.02,2.846,1.616C22.74,23.861,22.034,25.192,19,25.572z"/>
</svg>
