<svg xmlns="http://www.w3.org/2000/svg" width="32" height="32" viewBox="0 0 32 32">
    <path d="M14,6h4v1h3V6c0-1.657-1.343-3-3-3h-4c-1.657,0-3,1.343-3,3v1h3V6z M25,8H7
        c-1.104,0-2,0.896-2,2v1c0,1.028,0.779,1.865,1.777,1.978L8.083,27c0,1.657,1.344,3,3,3h9.75c1.657,0,3-1.343,3-3l1.375-14.021
        C26.213,12.874,27,12.033,27,11v-1C27,8.896,26.104,8,25,8z M12.116,27c-0.559,0-1.061-0.569-1.122-1.272L9.933,14.272
        C9.871,13.569,10.274,13,10.832,13c0.559,0,1.061,0.569,1.121,1.272l1.062,11.455C13.076,26.431,12.674,27,12.116,27z M17,25.728
        C17,26.431,16.553,27,16,27s-1-0.569-1-1.272V14.272C15,13.569,15.447,13,16,13s1,0.569,1,1.272V25.728z M21.006,25.728
        C20.944,26.431,20.442,27,19.884,27c-0.558,0-0.96-0.569-0.899-1.272l1.062-11.455C20.107,13.569,20.609,13,21.168,13
        c0.558,0,0.961,0.569,0.899,1.272L21.006,25.728z"/>
</svg>
