<svg xmlns="http://www.w3.org/2000/svg" width="32" height="32" viewBox="0 0 32 32">
    <path d="M4.042,17.975v2.084c1.538-0.51,3.446-0.949,5.488-0.949
        c1.678,0,2.777,0.305,3.512,0.699v-2.189c-0.871-0.285-1.979-0.482-3.4-0.49C7.349,17.113,5.495,17.484,4.042,17.975z
         M4.042,10.719v2.084c1.538-0.509,3.446-0.949,5.488-0.949c1.678,0,2.777,0.304,3.512,0.699v-2.189
        c-0.871-0.286-1.979-0.484-3.4-0.494C7.349,9.854,5.495,10.229,4.042,10.719z M4.042,14.411v2.084
        c1.538-0.51,3.446-0.949,5.488-0.949c1.678,0,2.777,0.304,3.512,0.699v-2.189c-0.871-0.286-1.979-0.484-3.4-0.494
        C7.349,13.545,5.495,13.919,4.042,14.411z M19.045,10.179v0.506v1.683v1.812v1.505v0.499c0.734-0.396,1.834-0.699,3.512-0.699
        c2.043,0,3.951,0.439,5.488,0.949v-0.749v-1.15v-1.915v-1.934v-0.151c-1.453-0.49-3.307-0.994-5.6-0.979
        C21.025,9.565,19.916,9.893,19.045,10.179z M19.045,17.619v2.189c0.734-0.395,1.834-0.699,3.512-0.699
        c2.043,0,3.951,0.439,5.488,0.949v-2.084c-1.453-0.49-3.307-0.861-5.6-0.846C21.025,17.137,19.916,17.334,19.045,17.619z
         M29.502,6.428c-1.577-0.743-3.905-1.451-7.057-1.429c-5.503,0.038-6.404,2.875-6.404,2.875s-0.898-2.837-6.4-2.875
        c-3.145-0.022-5.47,0.684-7.047,1.425c-2.195,1.165-2.516,2.602-2.552,4.225v12.576c0,0.018,0.004,0.031,0.004,0.049
        c0,2.432-0.025,3.534,4.092,3.008c0.018-0.003,0.035-0.005,0.052-0.007c0.267-0.035,0.549-0.076,0.851-0.124
        c0.083-0.014,0.145,0.002,0.218,0.003c1.01-0.097,2.027-0.151,2.95-0.151c1.944,0,3.688,0.24,4.931,0.622
        c0.028,0.007,0.057,0.014,0.083,0.021c0.488,0.125,0.932,0.35,1.75,0.35h2.144c0.818,0,1.26-0.225,1.748-0.35
        c0.023-0.006,0.049-0.013,0.074-0.019c1.243-0.383,2.99-0.624,4.938-0.624c0.89,0,1.866,0.052,2.839,0.143
        c0.1-0.012,0.207-0.014,0.329,0.006c0.296,0.047,0.572,0.087,0.834,0.121c0.028,0.004,0.056,0.008,0.083,0.011
        c3.213,0.409,3.894-0.182,4.038-1.622V9.892C31.861,8.579,31.342,7.408,29.502,6.428z M14.997,12.19L14.997,12.19v11.193
        c-0.894-0.739-2.502-1.511-5.355-1.531C6.558,21.83,4.26,22.51,2.684,23.237V8.928C4.36,8.245,6.834,7.482,9.53,7.482
        c2.835,0,4.04,0.859,4.559,1.58c0.002,0.002,0.003,0.002,0.005,0.005c0.083,0.111,0.195,0.261,0.313,0.442
        c0.016,0.025,0.03,0.048,0.046,0.074c0.085,0.136,0.171,0.289,0.251,0.462c0.013,0.029,0.025,0.06,0.038,0.09
        c0.079,0.185,0.151,0.386,0.205,0.612c0.005,0.023,0.008,0.048,0.013,0.071c0.053,0.244,0.088,0.508,0.088,0.8
        C15.049,11.842,15.028,12.027,14.997,12.19z M29.33,23.204c-1.573-0.714-3.847-1.373-6.885-1.353
        c-2.95,0.021-4.57,0.845-5.445,1.605V11.516h0.043c0.032-1.18,0.573-1.943,0.878-2.353c0.478-0.738,1.668-1.681,4.636-1.681
        c2.657,0,5.1,0.741,6.773,1.416V23.204z"/>
</svg>
