<svg xmlns="http://www.w3.org/2000/svg" width="32" height="32" viewBox="0 0 32 32">
    <path d="M25.004,17.182l-0.008,0.002c-0.037-0.536-1.953-0.398-4.439,0.58
        c-2.387,0.938-4.321,2.297-4.509,2.904l-0.036,0.014l-0.036-0.014c-0.187-0.607-2.122-1.967-4.509-2.904
        c-2.487-0.978-4.402-1.116-4.438-0.58L7.02,17.182L7.013,17.15l-0.001,4.332v0.457H7.05c0.381,2.824,4.244,5.043,8.962,5.043
        s8.581-2.219,8.962-5.043h0.038v-0.457l-0.001-4.332L25.004,17.182z M31.955,21.754l-0.943-3.771v-1.958l0.009-0.014
        c0,0,0.066-1.895-1.147-3.228l1.352-0.507c1.063-0.415,0.937-1.222,0.213-1.507c-0.007-0.003-0.009-0.008-0.015-0.011L16.53,5.172
        c-0.006,0.002-0.012,0.003-0.018,0.005c-0.147-0.051-0.312-0.089-0.5-0.089c-0.186,0-0.35,0.038-0.497,0.089
        c-0.006-0.002-0.013-0.003-0.019-0.005L0.601,10.758c-0.006,0.003-0.008,0.008-0.015,0.011c-0.724,0.285-0.851,1.093,0.215,1.508
        l14.692,5.512c0.007-0.002,0.015-0.004,0.021-0.006c0.147,0.055,0.312,0.096,0.498,0.096c0.188,0,0.353-0.041,0.501-0.096
        c0.006,0.002,0.014,0.004,0.02,0.006l9.577-3.596c-0.345-0.398-0.881-0.56-1.761-0.798l-8.365-2.189l-0.002-0.065
        c0.014,0.01,0.029,0.021,0.029,0.021s-0.194-1.511,1.402-1c0.122,0.039,0.218,0.06,0.303,0.07l7.187,1.761
        c0.064,0.022,0.127,0.046,0.2,0.065c3.002,0.808,3.903,2.636,3.911,3.924h-0.003v2.001l-0.943,3.771
        c-0.034,0.074-0.057,0.15-0.057,0.229c0,0.553,0.896,1,2,1s2-0.447,2-1C32.012,21.904,31.989,21.828,31.955,21.754z"/>
</svg>
