<svg xmlns="http://www.w3.org/2000/svg" width="32" height="32" viewBox="0 0 32 32">
    <path d="M8,13H5v2h3V13z M8,17H5v2h3V17z M30.896,12.221 c-0.001-0.008-0.001-0.016-0.002-0.023c-0.343-0.114-0.689-0.196-1.033-0.196c-2.33,0.001-4.572,0.002-4.572,0.002
        C23.709,12.003,23,13.427,23,15h-0.057c-0.004,0.531-0.436,0.962-0.97,0.962s-0.966-0.431-0.97-0.962H21c0-2.753,1.238-5,4-5
        h5.713c-0.116-1.252-0.256-2.505-0.45-3.758c-0.174-1.068-1.229-2.181-2.316-2.417c-5.291-1.101-10.58-1.101-15.871,0
        c-1.087,0.235-2.143,1.348-2.317,2.417C9.667,6.828,9.594,7.414,9.52,8H1C0.448,8,0,8.448,0,9v14c0,0.553,0.448,1,1,1h8.518
        c0.075,0.589,0.149,1.177,0.24,1.766c0.174,1.068,1.23,2.182,2.317,2.417c5.291,1.101,10.58,1.101,15.871,0
        c1.087-0.235,2.143-1.349,2.316-2.417c0.257-1.651,0.447-3.303,0.573-4.954C31.521,20.494,32,19.805,32,19v-5
        C32,13.219,31.548,12.55,30.896,12.221z M10,21H3V11h7V21z M27.496,18c-0.836,0-1.514-0.67-1.514-1.496s0.678-1.496,1.514-1.496
        c0.837,0,1.515,0.67,1.515,1.496S28.333,18,27.496,18z"/>
</svg>
