<svg xmlns="http://www.w3.org/2000/svg" width="32" height="32" viewBox="0 0 32 32">
    <path d="M29.019,4.457l-10.748-3.33c-1.485-0.46-3.061,0.371-3.521,1.856l-2.783,8.995
        h3.395c2.565,0,4.644,2.081,4.644,4.647v2.72l4.021,1.246c1.483,0.459,3.06-0.371,3.52-1.856l3.327-10.756
        C31.333,6.494,30.502,4.917,29.019,4.457z M17.471,6.75c-0.99-0.306-1.543-1.358-1.237-2.347c0.307-0.991,1.357-1.544,2.346-1.238
        c0.99,0.307,1.544,1.358,1.237,2.347C19.51,6.503,18.459,7.057,17.471,6.75z M20.693,12.252c-0.989-0.306-1.544-1.358-1.237-2.348
        c0.307-0.99,1.356-1.544,2.346-1.237c0.99,0.307,1.543,1.357,1.237,2.347C22.733,12.004,21.683,12.559,20.693,12.252z
         M26.219,17.063c-0.307,0.99-1.356,1.544-2.346,1.237s-1.543-1.356-1.236-2.347c0.306-0.99,1.355-1.544,2.346-1.237
        C25.972,15.023,26.525,16.074,26.219,17.063z M15.171,13.979H3.836c-1.565,0-2.834,1.27-2.834,2.836v11.343
        c0,1.566,1.269,2.835,2.834,2.835h11.335c1.564,0,2.834-1.269,2.834-2.835V16.815C18.005,15.25,16.735,13.979,15.171,13.979z
         M5.002,28.993c-1.105,0-2.001-0.896-2.001-2.003c0-1.104,0.896-2.001,2.001-2.001c1.104,0,2,0.896,2,2.001
        C7.002,28.097,6.106,28.993,5.002,28.993z M5.002,19.985c-1.105,0-2.001-0.897-2.001-2.003c0-1.104,0.896-2.001,2.001-2.001
        c1.104,0,2,0.897,2,2.001C7.002,19.088,6.106,19.985,5.002,19.985z M9.441,24.534c-1.095,0-1.983-0.889-1.983-1.985
        c0-1.095,0.888-1.983,1.983-1.983c1.094,0,1.982,0.889,1.982,1.983C11.423,23.646,10.535,24.534,9.441,24.534z M14.004,28.993
        c-1.104,0-2.001-0.896-2.001-2.003c0-1.104,0.896-2.001,2.001-2.001c1.105,0,2.001,0.896,2.001,2.001
        C16.005,28.097,15.109,28.993,14.004,28.993z M14.004,19.985c-1.104,0-2.001-0.897-2.001-2.003c0-1.104,0.896-2.001,2.001-2.001
        c1.105,0,2.001,0.897,2.001,2.001C16.005,19.088,15.109,19.985,14.004,19.985z"/>
</svg>
