<svg xmlns="http://www.w3.org/2000/svg" width="32" height="32" viewBox="0 0 32 32">
    <path d="M29.987,27.419c0-0.003,0.001-0.004,0.001-0.006v-1.762
        c-0.021-2.862-2.354-1.364-3.666-0.441c-0.031,0.021-0.054,0.025-0.082,0.041c-1.651,1.094-3.621,1.743-5.752,1.743
        c-3.338,0-6.306-1.564-8.228-3.994h7.778c0.364,0,0.896-0.257,1.078-0.567l1.774-2.935c0.181-0.31,0.312-0.69,0.13-0.999
        C22.839,18.19,22.504,18,22.141,18H10.114c-0.07-0.491-0.119-0.989-0.119-1.5c0-0.169,0.018-0.333,0.025-0.5h14.127
        c0.364,0,0.831-0.191,1.013-0.502l1.709-3c0.181-0.31,0.18-0.69-0.002-0.999S26.35,11,25.987,11H11.564
        c1.849-2.993,5.148-4.993,8.924-4.993c2.457,0,4.709,0.854,6.494,2.271c0.054,0.001,0.116,0.028,0.191,0.103
        c0.713,0.706,1.479,0.961,2.111-0.143c0.011-0.02,0.022-0.026,0.034-0.042l0.939-1.637c0.009-0.016,0.012-0.031,0.022-0.047
        c0.519-0.789,0.49-1.457-0.102-2.072C27.527,2.296,24.166,1,20.488,1C13.867,1,8.232,5.159,6.011,11H3.679
        c-0.321,0-0.623,0.149-0.815,0.402l-1.859,3c-0.23,0.304-0.266,0.708-0.093,1.047C1.084,15.787,1.436,16,1.82,16h3.193
        c-0.005,0.168-0.025,0.331-0.025,0.5c0,0.507,0.028,1.006,0.076,1.5h-1.71c-0.32,0-0.622,0.148-0.813,0.4l-2.329,3
        c-0.231,0.303-0.269,0.708-0.096,1.047S0.639,23,1.025,23h5.406c2.459,5.31,7.821,9,14.057,9c3.204,0,6.171-0.987,8.641-2.654
        C29.698,28.935,29.987,28.233,29.987,27.419z"/>
</svg>
