<svg xmlns="http://www.w3.org/2000/svg" width="32" height="32" viewBox="0 0 32 32">
    <path d="M30.035,25h-6.5h-15h-6.5c-0.553,0-1,0.447-1,1v1c0,0.553,0.447,1,1,1h4.05
        c0.232,1.142,1.24,2,2.45,2h15c1.21,0,2.218-0.858,2.449-2h4.051c0.553,0,1-0.447,1-1v-1C31.035,25.447,30.588,25,30.035,25z
         M31.541,10.306c0,0-3-2.411-6.513-4.431c-3.466-1.994-7.446-3.598-7.446-3.598c-0.117-0.067-0.248-0.119-0.385-0.16
        c-0.332-0.13-0.737-0.209-1.18-0.209c-0.445,0-0.852,0.08-1.184,0.211c-0.134,0.042-0.262,0.092-0.376,0.158
        c0,0-3.98,1.604-7.446,3.598c-3.513,2.02-6.513,4.431-6.513,4.431c-0.664,0.383-0.664,1.002,0,1.385
        c0.162,0.093,0.351,0.153,0.548,0.198C1.044,11.926,1.035,11.961,1.035,12c0,0.956,0.671,1.752,1.567,1.95l-0.507,6.294
        C1.467,20.581,1.035,21.236,1.035,22c0,0.553,0.447,1,1,1h4c0.553,0,1-0.447,1-1c0-0.764-0.432-1.419-1.061-1.756L5.468,13.95
        c0.896-0.198,1.567-0.995,1.567-1.95c0-0.009-0.002-0.017-0.002-0.025h2.005c0,0.009-0.002,0.017-0.002,0.025
        c0,0.956,0.671,1.752,1.567,1.95l-0.507,6.294C9.467,20.581,9.035,21.236,9.035,22c0,0.553,0.447,1,1,1h4c0.553,0,1-0.447,1-1
        c0-0.764-0.432-1.419-1.061-1.756l-0.507-6.294c0.896-0.198,1.567-0.995,1.567-1.95c0-0.009-0.002-0.017-0.002-0.025h0.515
        c0.157,0.002,0.313,0.006,0.47,0.006c0.161,0,0.321-0.004,0.481-0.006h0.54c-0.001,0.009-0.003,0.017-0.003,0.025
        c0,0.956,0.672,1.752,1.567,1.95l-0.507,6.294c-0.628,0.337-1.061,0.992-1.061,1.756c0,0.553,0.447,1,1,1h4c0.553,0,1-0.447,1-1
        c0-0.764-0.433-1.419-1.061-1.756l-0.507-6.294c0.896-0.198,1.567-0.995,1.567-1.95c0-0.009-0.002-0.017-0.003-0.025h2.006
        c-0.001,0.009-0.003,0.017-0.003,0.025c0,0.956,0.672,1.752,1.567,1.95l-0.507,6.294c-0.628,0.337-1.061,0.992-1.061,1.756
        c0,0.553,0.447,1,1,1h4c0.553,0,1-0.447,1-1c0-0.764-0.433-1.419-1.061-1.756l-0.507-6.294c0.896-0.198,1.567-0.995,1.567-1.95
        c0-0.041-0.01-0.078-0.012-0.118c0.186-0.044,0.364-0.103,0.518-0.19C32.205,11.308,32.205,10.689,31.541,10.306z M16,9
        c-1.104,0-2-0.896-2-2s0.896-2,2-2s2,0.896,2,2S17.104,9,16,9z"/>
</svg>
