<svg xmlns="http://www.w3.org/2000/svg" width="32" height="32" viewBox="0 0 32 32">
    <path d="M31.68,20.742l-1.854-2.004c0.924-1.806-1.711-2.409-3.443-0.817
        c-1.957,2.135-5.482,4.094-10.377,3.976c-4.894,0.118-8.419-1.841-10.377-3.976c-1.731-1.592-4.365-0.988-3.442,0.817
        l-1.853,2.004c-0.573,0.62-0.389,1.482,0.411,1.927c0.801,0.444,1.914,0.302,2.487-0.318l1.069-1.157
        c0.744,0.708,1.643,1.445,2.685,2.126l-0.857,2.089c-0.381,0.928,0.058,1.991,0.981,2.374c0.922,0.384,1.979-0.059,2.359-0.986
        l0.75-1.828c1.152,0.433,2.418,0.744,3.788,0.888v1.888c0,1.205,0.896,2.182,2,2.182c1.105,0,2-0.977,2-2.182v-1.888
        c1.365-0.143,2.625-0.452,3.773-0.882l0.746,1.822c0.381,0.928,1.438,1.37,2.359,0.986c0.922-0.383,1.361-1.446,0.98-2.374
        l-0.852-2.079c1.047-0.684,1.951-1.425,2.699-2.136l1.068,1.157c0.572,0.62,1.688,0.763,2.486,0.318
        C32.068,22.225,32.252,21.362,31.68,20.742z"/>
</svg>
