<svg xmlns="http://www.w3.org/2000/svg" width="32" height="32" viewBox="0 0 32 32">
    <path d="M27,30h-6v-9.063h2c0.553,0,1-0.445,1-0.994v-1.988c0-0.549-0.447-0.994-1-0.994
        h-1.993l0.006-1.382c0-1.027-0.535-1.601,0.987-1.601h2c0.553,0,1-0.445,1-0.995v-1.988C25,10.445,24.553,10,24,10h-3
        c-3.91,0-5,1.756-5,4.972v1.988h-1c-0.553,0-1,0.445-1,0.994v1.988c0,0.549,0.447,0.994,1,0.994h1V30H5c-1.656,0-3-1.343-3-3V5
        c0-1.657,1.344-3,3-3h22c1.656,0,3,1.343,3,3v22C30,28.657,28.656,30,27,30z"/>
</svg>
