<svg xmlns="http://www.w3.org/2000/svg" width="32" height="32" viewBox="0 0 32 32">
    <path d="M31.65,12.385c-0.231-0.718-0.899-1.205-1.656-1.209l-9.439,0.012l-2.907-8.976C17.416,1.49,16.742,1,15.98,1
        c-0.761,0.001-1.435,0.491-1.667,1.214l-2.898,8.979l-9.441,0.001c-0.756,0.005-1.424,0.493-1.654,1.211
        c-0.231,0.718,0.026,1.502,0.639,1.944l7.657,5.66l-2.942,9.208c-0.231,0.723,0.034,1.512,0.655,1.951
        c0.304,0.215,0.658,0.321,1.013,0.321c0.371,0,0.741-0.118,1.053-0.351l7.598-5.701l7.603,5.69c0.311,0.233,0.681,0.35,1.051,0.35
        c0.354,0,0.71-0.106,1.014-0.321c0.621-0.44,0.885-1.229,0.653-1.952l-2.948-9.204l7.651-5.671
        C31.626,13.887,31.883,13.102,31.65,12.385z M19.37,18.437l2.54,7.072l-5.909-4.734h-0.02l-5.892,4.722l2.54-7.072l-6.108-4.442
        l7.533,0.006l1.941-6.036l0.001-0.01l0.001,0.003l0.005-0.016l0.009,0.058L17.945,14l7.533-0.006L19.37,18.437z"/>
</svg>
