<svg xmlns="http://www.w3.org/2000/svg" width="32" height="32" viewBox="0 0 32 32">
    <path d="M26,2H6C5.447,2,5,2.447,5,3v26c0,0.553,0.447,1,1,1h10c2.209,0,4-1.791,4-4v-2
        c0-0.552,0.447-1,1-1h2c2.209,0,4-1.791,4-4V3C27,2.447,26.553,2,26,2z M11,7h4c0.553,0,1,0.447,1,1s-0.447,1-1,1h-4
        c-0.553,0-1-0.447-1-1S10.447,7,11,7z M14,23h-3c-0.553,0-1-0.447-1-1s0.447-1,1-1h3c0.553,0,1,0.447,1,1S14.553,23,14,23z M21,19
        H11c-0.553,0-1-0.447-1-1c0-0.552,0.447-1,1-1h10c0.553,0,1,0.448,1,1C22,18.553,21.553,19,21,19z M21,15H11c-0.553,0-1-0.447-1-1
        c0-0.552,0.447-1,1-1h10c0.553,0,1,0.448,1,1C22,14.553,21.553,15,21,15z"/>
</svg>
