<svg xmlns="http://www.w3.org/2000/svg" width="32" height="32" viewBox="0 0 32 32">
    <path d="M29.914,15.426v-1.961c0-1.104-0.595-2.496-1.328-3.108l-2.057-1.716
        l-2.268-2.278c-0.522-0.525-1.371-0.525-1.895,0s-0.523,1.377,0,1.903l2.592,2.603v1.923c0,1.104,0.596,2.496,1.328,3.108
        l0.762,0.636c0.067,1.699-0.188,3.568-1.255,5.027c-1.285,1.758-3.69,1.725-5.794,1.244V5c0-1.104-0.896-2-2-2H4
        C2.896,3,2,3.896,2,5v22c0,1.104,0.896,2,2,2h14c1.104,0,2-0.896,2-2v-1.187c2.335,0.395,5.061,0.23,7.203-1.732
        C29.877,21.631,30.162,18.054,29.914,15.426z M13,13c0-1.104-0.896-2-2-2s-2,0.896-2,2H5c0-3.313,2.687-6,6-6s6,2.687,6,6H13z"/>
</svg>
