<svg xmlns="http://www.w3.org/2000/svg" width="32" height="32" viewBox="0 0 32 32">
    <path d="M28,4H5C3.343,4,2,5.343,2,7v18c0,1.657,1.343,3,3,3h23c1.657,0,3-1.343,3-3V7
        C31,5.343,29.657,4,28,4z M7.5,24C6.672,24,6,23.328,6,22.5S6.672,21,7.5,21S9,21.672,9,22.5S8.328,24,7.5,24z M7.5,20
        C6.672,20,6,19.328,6,18.5S6.672,17,7.5,17S9,17.672,9,18.5S8.328,20,7.5,20z M13.5,24c-0.828,0-1.5-0.672-1.5-1.5
        s0.672-1.5,1.5-1.5s1.5,0.672,1.5,1.5S14.328,24,13.5,24z M13.5,20c-0.828,0-1.5-0.672-1.5-1.5s0.672-1.5,1.5-1.5
        s1.5,0.672,1.5,1.5S14.328,20,13.5,20z M19.5,24c-0.828,0-1.5-0.672-1.5-1.5s0.672-1.5,1.5-1.5s1.5,0.672,1.5,1.5
        S20.328,24,19.5,24z M19.5,20c-0.828,0-1.5-0.672-1.5-1.5s0.672-1.5,1.5-1.5s1.5,0.672,1.5,1.5S20.328,20,19.5,20z M27,23
        c0,0.553-0.447,1-1,1h-1c-0.553,0-1-0.447-1-1v-5c0-0.553,0.447-1,1-1h1c0.553,0,1,0.447,1,1V23z M28,14H5V8h23V14z"/>
</svg>
