<svg xmlns="http://www.w3.org/2000/svg" width="32" height="32" viewBox="0 0 32 32">
    <path d="M13.671,24.025c-1.039,0-1.896,0.311-2.568,0.932s-1.037,1.479-1.096,2.573
        c-0.057,1.035,0.219,1.879,0.824,2.529c0.604,0.65,1.426,0.976,2.465,0.976c1.064,0,1.936-0.325,2.609-0.976
        S16.945,28.565,17,27.53c0.059-1.094-0.215-1.952-0.82-2.573C15.572,24.336,14.736,24.025,13.671,24.025z M24.386,4.134
        c-5.19-5.29-13.129-2.578-16.179-1.237C8.191,2.907,8.183,2.922,8.164,2.931C7.379,3.308,7.263,3.821,7.53,4.615l1.373,2.638
        c0.435,0.743,1.029,0.742,1.971,0.33c0.011-0.005,0.021-0.003,0.033-0.007c1.256-0.587,3.185-1.312,5.193-1.392
        c3.426-0.137,5.188,2.111,2.475,4.749c-2.582,2.51-7.049,3.994-7.478,10.087h0.015C11.121,21.563,11.511,22,12.057,22h4
        c0.553,0,1-0.447,1-1l0.024-0.24c0.194-1.154,1.005-2.963,3.893-4.866C25.796,12.716,27.667,7.477,24.386,4.134z"/>
</svg>
