<svg xmlns="http://www.w3.org/2000/svg" width="32" height="32" viewBox="0 0 32 32">
    <path d="M30.547,13.765c-0.848-1.021-2.588-2.99-4.705-4.713
        c-2.316-1.884-5.029-3.376-5.805-3.789c-0.635-0.337-1.408-0.325-2.031,0.032S17,6.302,17,7.004v3.007H3.541
        c-1.396,0-2.527,1.119-2.527,2.499v4.999c0,1.379,1.131,2.498,2.527,2.498H17v3.008c0,0.701,0.383,1.35,1.006,1.707
        c0.621,0.357,1.393,0.371,2.029,0.035c0.768-0.408,3.455-1.883,5.795-3.787c2.203-1.793,4.031-3.893,4.715-4.713
        C30.848,15.894,31,15.452,31,15.01C31,14.57,30.85,14.128,30.547,13.765z"/>
</svg>
