<svg xmlns="http://www.w3.org/2000/svg" width="32" height="32" viewBox="0 0 32 32">
    <path d="M30.707,7.688l-15.81,16.815l-6.734-6.174c1.537-0.776,2.771-2.061,3.48-3.636
        l3.012,3.287l9.892-15.953c0.01-0.014,0.02-0.021,0.027-0.035c0.447-0.737,0.711-0.725,0.994-0.49l5.076,5.066
        C31.16,7.098,31.055,7.303,30.707,7.688z M14.993,8.269l-2.719,2.715c-0.085-1.002-0.365-1.946-0.805-2.798l2.658-2.654
        c0.475-0.473,1.242-0.473,1.714,0l2.85,2.845l-1.354,2.233L14.993,8.269z M4.767,16.991c-2.968,0-5.373-2.404-5.373-5.369
        s2.405-5.369,5.373-5.369s5.373,2.404,5.373,5.369S7.735,16.991,4.767,16.991z M5.18,19.119l9.812,9.797l10.341-10.324l-1.512-1.51
        l1.754-1.832l2.486,2.482c0.473,0.473,0.473,1.239,0,1.712L15.842,31.646c-0.472,0.473-1.24,0.473-1.714,0L1.909,19.444
        c-0.279-0.278-0.373-0.656-0.323-1.019c0.97,0.453,2.047,0.714,3.188,0.714C4.911,19.14,5.044,19.126,5.18,19.119z"/>
</svg>
