<svg xmlns="http://www.w3.org/2000/svg" width="32" height="32" viewBox="0 0 32 32">
    <path d="M29.299,22.938l-5.91-3.346c-0.653-0.371-1.573-0.104-2.068,0.613l-0.871,1.262
        c0,0.002-0.001,0.002-0.002,0.002c-0.389,0.588-1.68,1.861-3.771,0.096c-0.014-0.012-0.025-0.016-0.039-0.027
        c-0.653-0.512-1.309-1.061-1.965-1.633c-1.493-1.482-2.854-2.998-4.049-4.495c-0.011-0.013-0.014-0.023-0.024-0.036
        c-1.796-2.092-0.484-3.395,0.117-3.788c0.002-0.001,0.002-0.003,0.004-0.004l1.294-0.88c0.737-0.501,1.014-1.427,0.638-2.082
        L9.262,2.698C8.888,2.044,7.945,1.805,7.133,2.173L5.596,2.87C5.51,2.909,5.433,2.957,5.355,3.004
        C3.849,3.747,2.931,4.789,2.79,5.013C2.772,5.04,2.771,5.07,2.778,5.105C0.511,7.892,3.584,15.743,9.656,21.732
        c6.064,6.438,14.408,9.818,17.279,7.531c0.035,0.008,0.064,0.006,0.092-0.012c0.223-0.137,1.257-1.031,1.988-2.502
        c0.047-0.074,0.093-0.148,0.131-0.23l0.686-1.5C30.193,24.229,29.951,23.307,29.299,22.938z"/>
</svg>
