<svg xmlns="http://www.w3.org/2000/svg" width="32" height="32" viewBox="0 0 32 32">
    <path d="M22,11.037V1c0-0.552-0.447-1-1-1H1C0.447,0,0,0.448,0,1v26c0,0.553,0.447,1,1,1
        h12.26c1.847,2.337,4.664,3.862,7.847,3.98V32h0.659v-0.014C27.441,31.844,32,27.212,32,21.506C32,15.879,27.565,11.3,22,11.037z
         M6,6h10c0.553,0,1,0.448,1,1s-0.447,1-1,1H6C5.447,8,5,7.552,5,7S5.447,6,6,6z M10,20H6c-0.553,0-1-0.447-1-1s0.447-1,1-1h4
        c0.553,0,1,0.447,1,1S10.553,20,10,20z M12,16H6c-0.553,0-1-0.448-1-1s0.447-1,1-1h6c0.553,0,1,0.448,1,1S12.553,16,12,16z M6,12
        c-0.553,0-1-0.448-1-1s0.447-1,1-1h10c0.553,0,1,0.448,1,1s-0.447,1-1,1H6z M21.499,28c-3.59,0-6.501-2.908-6.501-6.496
        s2.911-6.497,6.501-6.497c3.591,0,6.501,2.909,6.501,6.497S25.09,28,21.499,28z M22.004,20.393V17.99c0-0.553-0.446-1-0.997-1
        s-0.997,0.447-0.997,1v2.978c-0.052,0.346,0.036,0.708,0.304,0.974l1.717,1.709c0.449,0.447,1.176,0.447,1.624,0
        c0.449-0.446,0.449-1.17,0-1.616L22.004,20.393z"/>
</svg>
