<svg xmlns="http://www.w3.org/2000/svg" width="32" height="32" viewBox="0 0 32 32">
    <path d="M24.905,23.822c-0.001-0.016-0.005-0.029-0.006-0.045l-0.522-13.284
        C24.274,7.803,23.498,1.966,15.823,2C9.525,2.027,7.762,6.253,7.656,8.996c0.001,0.641,0.36,1.903,1.802,1.901
        c1.601-0.002,2.246-0.949,2.305-2.078c0.125-2.118,1.536-3.69,4.285-3.596c2.706,0.154,3.896,1.333,3.944,3.787
        c0.111,5.693-12.408,2.113-12.72,10.221l-0.269,7.024C6.925,28.309,8.305,30,10.086,30h11.828c1.782,0,3.162-1.691,3.083-3.745
        L24.905,23.822z M15.999,26.995c-2.757,0-4.99-2.237-4.99-4.997c0-2.761,2.233-4.998,4.99-4.998s4.991,2.237,4.991,4.998
        C20.99,24.758,18.756,26.995,15.999,26.995z M13.005,22.999h5.989V21h-5.989V22.999z"/>
</svg>
