<svg xmlns="http://www.w3.org/2000/svg" width="32" height="32" viewBox="0 0 32 32">
    <path d="M31.502,16.158c0,0-3-4.108-6.513-7.552c-3.466-3.398-7.446-6.131-7.446-6.131
        c-0.123-0.121-0.263-0.212-0.409-0.288c-0.31-0.197-0.708-0.32-1.149-0.32c-0.433,0-0.824,0.119-1.131,0.309
        c-0.156,0.078-0.305,0.171-0.435,0.299c0,0-3.98,2.733-7.446,6.131c-3.513,3.444-6.512,7.552-6.512,7.552
        c-0.665,0.652-0.665,1.708,0,2.359c0.417,0.41,0.998,0.562,1.537,0.456V19H4v8c0,1.104,0.896,2,2,2h20c1.104,0,2-0.896,2-2v-8
        h1.996v-0.021c0.53,0.094,1.096-0.059,1.506-0.461C32.166,17.866,32.166,16.811,31.502,16.158z M15,23h-2c-0.553,0-1-0.447-1-1v-2
        h3V23z M15,18h-3v-2c0-0.552,0.447-1,1-1h2V18z M20,22c0,0.553-0.447,1-1,1h-2v-3h3V22z M20,18h-3v-3h2c0.553,0,1,0.448,1,1V18z"/>
</svg>
