<svg xmlns="http://www.w3.org/2000/svg" width="32" height="32" viewBox="0 0 32 32">
    <path d="M29.579,12.728c0.662-1.697,0.755-3.201,0.008-4.243 c-0.174-0.243-0.396-0.44-0.641-0.617c-0.151-0.131-0.319-0.251-0.521-0.347c-0.433-0.207-0.983-0.324-1.626-0.362
        c-2.393-2.91-5.929-4.843-9.927-5.093c-0.535-0.682-1.133-1.088-1.801-1.065l-0.115,0.008c-1.349,0.122-1.552,0.355-1.917,1.337
        c-1.876,0.408-3.614,1.186-5.129,2.262c-0.21-0.015-0.423-0.035-0.618-0.027C6.296,4.619,5.51,4.941,4.956,5.538
        C4.443,6.092,4.028,7.004,4.225,8.471C2.823,10.653,2,13.244,2,16.031c0,1.867,0.375,3.643,1.038,5.268
        c-0.056,0.248-0.076,0.467-0.08,0.672c-0.068,0.734,0.026,1.568,0.326,2.398c0.464,1.283,1.319,2.355,2.198,2.848
        c0.055,0.031,0.119,0.053,0.177,0.08c0.097,0.045,0.193,0.098,0.289,0.127c0.255,0.1,0.527,0.182,0.83,0.232
        c0.481,0.078,1.026,0.111,1.612,0.105c2.042,1.324,4.441,2.145,7.031,2.25c0.623,0.75,1.371,1.086,2.105,1.061l0.689-0.008
        c0.759-0.084,1.349-0.594,1.789-1.623c1.479-0.445,2.859-1.123,4.09-2c0.435,0.068,0.846,0.098,1.227,0.084
        c0.997-0.039,1.784-0.359,2.337-0.957c0.827-0.893,0.945-2.197,0.557-3.721c1.125-2.02,1.772-4.34,1.772-6.816
        C29.987,14.891,29.836,13.789,29.579,12.728z M23.222,7.551c-0.655,0.151-1.354,0.353-2.075,0.584
        c-0.162-0.199-0.341-0.389-0.551-0.557c-0.503-0.403-1.076-0.641-1.652-0.737c-0.163-0.579-0.337-1.147-0.527-1.686
        C20.224,5.552,21.862,6.393,23.222,7.551z M17.751,9.142c0.386-0.482,1.133-0.525,1.668-0.097c0.535,0.428,0.655,1.167,0.27,1.649
        c-0.386,0.482-1.133,0.525-1.668,0.097S17.365,9.625,17.751,9.142z M12.272,13.98c1.125-0.692,2.309-1.358,3.538-1.97
        c0.18-0.089,0.353-0.158,0.531-0.243c0.149,0.176,0.315,0.342,0.504,0.493c0.506,0.405,1.081,0.644,1.66,0.738
        c0.127,0.858,0.245,1.772,0.351,2.759c0.171,1.613,0.27,3.053,0.319,4.354c-0.314,0.01-0.634,0.047-0.954,0.143
        c-0.786,0.232-1.42,0.701-1.854,1.275c-0.969-0.736-1.942-1.543-2.892-2.422c-0.604-0.561-1.178-1.131-1.728-1.705
        c0.14-0.205,0.267-0.423,0.372-0.662C12.536,15.796,12.558,14.799,12.272,13.98z M16.025,4.891c0.183,0,0.36,0.019,0.541,0.027
        c0.226,0.58,0.46,1.283,0.693,2.097c-0.436,0.174-0.831,0.44-1.138,0.823c-0.582,0.727-0.72,1.669-0.486,2.561
        c-0.01,0.005-0.02,0.009-0.029,0.014c-1.45,0.721-2.841,1.517-4.153,2.349c-0.142-0.114-0.296-0.212-0.465-0.291
        c-0.917-0.427-1.984-0.176-2.822,0.537c-0.4-0.597-0.761-1.186-1.066-1.757c-0.202-0.379-0.368-0.739-0.518-1.089
        C8.546,7.001,12.035,4.891,16.025,4.891z M10.537,15.992c-0.277,0.63-0.913,0.95-1.42,0.714c-0.508-0.236-0.693-0.939-0.416-1.569
        c0.277-0.63,0.914-0.949,1.421-0.713C10.629,14.659,10.815,15.362,10.537,15.992z M5.589,12.203
        c0.415,0.767,0.914,1.558,1.48,2.359c-0.219,0.551-0.311,1.115-0.286,1.65c-0.041,0.036-0.086,0.071-0.126,0.107
        c-0.622,0.56-1.145,1.083-1.584,1.571C4.971,17.285,4.9,16.667,4.9,16.031C4.9,14.684,5.151,13.398,5.589,12.203z M5.486,19.533
        c0.443-0.562,1.028-1.182,1.729-1.826c0.25,0.422,0.593,0.77,1.037,0.977c0.689,0.32,1.466,0.264,2.166-0.086
        c0.585,0.613,1.2,1.223,1.843,1.818c1.159,1.074,2.333,2.018,3.498,2.873c0.002,0.178,0.026,0.355,0.066,0.531
        c-1.89,0.945-3.71,1.574-5.289,1.895C8.167,24.365,6.36,22.162,5.486,19.533z M18.909,26.773c-0.921,0.25-1.884,0.398-2.884,0.398
        c-0.896,0-1.764-0.119-2.6-0.318c1.123-0.363,2.298-0.844,3.494-1.447c0.578,0.396,1.318,0.592,2.097,0.545
        C18.983,26.242,18.948,26.521,18.909,26.773z M19.353,24.104c-0.657,0.193-1.328-0.111-1.497-0.684
        c-0.17-0.572,0.225-1.195,0.882-1.391c0.657-0.193,1.328,0.111,1.497,0.684C20.404,23.285,20.01,23.908,19.353,24.104z
         M20.585,15.567c-0.018-0.161-0.142-1.25-0.379-2.753c0.426-0.175,0.812-0.439,1.113-0.814c0.544-0.679,0.704-1.547,0.533-2.385
        c1.015-0.292,1.961-0.507,2.788-0.614c1.137,1.395,1.946,3.067,2.302,4.905c-1.213,1.98-3.219,4.34-6.024,6.604
        C20.873,18.934,20.766,17.273,20.585,15.567z M22.435,25.127c-0.281-0.107-0.574-0.238-0.873-0.379
        c0.664-0.744,0.954-1.727,0.677-2.662c-0.016-0.053-0.045-0.096-0.063-0.146c1.855-1.525,3.569-3.264,4.922-5.023
        C26.828,20.307,25.058,23.271,22.435,25.127z"/>
</svg>
