<svg xmlns="http://www.w3.org/2000/svg" width="32" height="32" viewBox="0 0 32 32">
    <path d="M18.552,16.483L22.69,14l-4.015-4.014h-5.352L9.31,14l4.139,2.483
        C11.146,17.387,9.441,19.477,9.079,22h1.181c-0.001,0.006-0.003,0.011-0.004,0.017h1.674c0.384-1.89,2.054-3.312,4.058-3.312
        c2.003,0,3.674,1.423,4.058,3.312h1.674c-0.001-0.006-0.003-0.011-0.004-0.017h1.206C22.559,19.477,20.853,17.387,18.552,16.483z
         M13,14l2-2h2l2,2H13z M28.016,19.361c-0.387-0.317-0.833-0.62-1.348-0.9C28.742,16.72,30,14.467,30,12c0-5.523-6.268-10-14-10
        S2,6.477,2,12c0,2.467,1.258,4.72,3.332,6.461c-0.515,0.28-0.961,0.583-1.348,0.9C2.598,20.097,2,21.892,2,24
        c0,2.595,0.913,4.702,3.082,4.951C7.536,29.797,11.506,30,16,30s8.464-0.203,10.918-1.049C29.088,28.702,30,26.595,30,24
        C30,21.892,29.402,20.096,28.016,19.361z M26,22c0,2.209-4.478,2-10,2S6,24.209,6,22c0-0.901,0.753-1.729,2.012-2.397v-2.165
        c-1.567-1.003-2.53-2.296-2.53-3.719c0-3.178,4.709-5.754,10.519-5.754s10.519,2.576,10.519,5.754c0,1.417-0.955,2.704-2.51,3.706
        v2.188C25.256,20.278,26,21.104,26,22z"/>
</svg>
