<svg xmlns="http://www.w3.org/2000/svg" width="32" height="32" viewBox="0 0 32 32">
    <path d="M29,13.013V8c0-1.657-1.343-3-3-3H3C1.343,5,0,6.343,0,8v13c0,1.657,1.343,3,3,3
        h13.283c1.504,2.399,4.166,4,7.208,4c4.7,0,8.51-3.81,8.51-8.509C32,16.895,30.834,14.574,29,13.013z M5.993,9.001
        c1.107,0,2.004,0.896,2.004,2.003s-0.896,2.003-2.004,2.003c-1.106,0-2.004-0.896-2.004-2.003S4.887,9.001,5.993,9.001z M7,19H5
        c-0.553,0-1-0.447-1-1s0.447-1,1-1h2c0.553,0,1,0.447,1,1S7.553,19,7,19z M8.993,12.728c0.595-0.347,1-0.985,1-1.724
        s-0.404-1.376-1-1.724c0.296-0.173,0.637-0.279,1.004-0.279c1.106,0,2.004,0.896,2.004,2.003s-0.897,2.003-2.004,2.003
        C9.629,13.007,9.289,12.9,8.993,12.728z M14,19h-2c-0.553,0-1-0.447-1-1s0.447-1,1-1h2c0.553,0,1,0.447,1,1S14.553,19,14,19z
         M23.495,26.008c-1.847,0-3.51-0.772-4.693-2.008h0.02c-1.128-1.168-1.825-2.754-1.825-4.505c0-1.12,0.284-2.173,0.783-3.093
        c1.103-2.024,3.249-3.397,5.716-3.397c0.044,0,0.087,0.006,0.131,0.007c0.211,0.004,0.42,0.017,0.626,0.041
        c0.097,0.011,0.192,0.029,0.288,0.044c0.16,0.026,0.319,0.057,0.477,0.095c0.091,0.022,0.182,0.044,0.271,0.07
        c0.183,0.053,0.361,0.113,0.537,0.181c0.054,0.021,0.108,0.037,0.16,0.059c0.231,0.097,0.456,0.206,0.673,0.328
        c0.037,0.021,0.072,0.044,0.108,0.065c0.186,0.108,0.365,0.225,0.538,0.351c0.04,0.03,0.08,0.06,0.121,0.091
        c0.184,0.14,0.36,0.288,0.528,0.447c0.013,0.012,0.025,0.022,0.038,0.034c0.382,0.368,0.72,0.782,1.004,1.233
        c0.632,1.003,1.003,2.186,1.003,3.458C29.999,23.098,27.088,26.008,23.495,26.008z M24,18.397v-2.408c0-0.552-0.446-1-0.997-1
        s-0.997,0.448-0.997,1v3c0,0.001,0.001,0.003,0.001,0.004c-0.046,0.341,0.043,0.696,0.307,0.958l1.718,1.708
        c0.448,0.446,1.175,0.446,1.623,0c0.449-0.446,0.449-1.17,0-1.616L24,18.397z"/>
</svg>
