<svg xmlns="http://www.w3.org/2000/svg" width="32" height="32" viewBox="0 0 32 32">
    <path d="M29,26H3c-1.104,0-2-0.896-2-2V8c0-1.104,0.896-2,2-2h26c1.104,0,2,0.896,2,2v16
        C31,25.104,30.104,26,29,26z M3.527,23.431c0.245,0,0.463-0.099,0.631-0.251l0.063,0.072l8.163-5.005l-1.619-1.257l-7.497,4.598
        c-0.394,0.114-0.688,0.464-0.688,0.896C2.58,23.006,3.005,23.431,3.527,23.431z M28.434,7.816c-0.178,0-0.336,0.063-0.479,0.149
        l-0.024-0.03l-10.646,6.528c-0.718,0.44-1.881,0.44-2.598,0L4.061,7.947L4.031,7.982C3.883,7.887,3.717,7.816,3.527,7.816
        c-0.522,0-0.947,0.425-0.947,0.948c0,0.255,0.104,0.485,0.269,0.655L2.83,9.442l11.857,7.271c0.717,0.439,1.88,0.439,2.598,0
        L29.16,9.431l-0.029-0.036c0.152-0.168,0.251-0.386,0.251-0.63C29.382,8.241,28.957,7.816,28.434,7.816z M29.057,21.781l0.007-0.007
        l-0.19-0.117c-0.027-0.015-0.051-0.037-0.08-0.05l-7.527-4.615l-1.619,1.256l8.143,4.993l0.039-0.046
        c0.165,0.141,0.372,0.235,0.605,0.235c0.523,0,0.948-0.425,0.948-0.947C29.382,22.201,29.253,21.955,29.057,21.781z"/>
</svg>
