<svg xmlns="http://www.w3.org/2000/svg" width="32" height="32" viewBox="0 0 32 32">
    <path d="M29,19.873l-0.043-0.348c-0.024-0.646-0.092-1.236-0.215-1.758l-0.352-2.862
        c-0.148-0.965-1.187-1.741-2.4-1.877C25.751,7.449,21.38,3,16.007,3c-5.309,0-9.64,4.343-9.974,9.827H5.64v0.27
        c-1.038,0.243-1.876,0.949-2.009,1.808l-0.346,2.727c-0.163,0.623-0.258,1.329-0.271,2.139L3,19.873h0.008
        c0,0.036-0.004,0.067-0.004,0.104c0,7.148,5.819,9.838,12.998,9.838c7.178,0,12.977-2.689,12.977-9.838
        c0-0.037-0.005-0.068-0.005-0.104H29z M17,22.528v1.409c0,0.592-0.445,1.072-0.993,1.072s-0.998-0.48-0.998-1.072l0.003-1.403
        c-0.601-0.346-1.01-0.986-1.01-1.729c0-1.105,0.895-2.002,1.999-2.002S18,19.7,18,20.806C18,21.544,17.596,22.182,17,22.528z
         M21.652,12.828V13h-1.725c-0.577,0.224-0.985,0.594-1.484,0.989c-0.016,0.012-0.029,0.024-0.045,0.036
        c-0.035,0.028-0.068,0.055-0.105,0.083c-0.079,0.06-0.159,0.102-0.239,0.134c-0.621,0.343-1.459,0.557-2.391,0.557
        c-0.917,0-1.744-0.205-2.361-0.538c-0.096-0.033-0.192-0.081-0.288-0.153c-0.576-0.438-1-0.861-1.635-1.107H9.641v-0.172h1.065
        c-0.002,0-0.003-0.001-0.005-0.001H9.995c0-0.021,0.003-0.04,0.004-0.06c-0.545-0.073-0.366-0.704,0.167-1.236
        c0.637-2.627,3.001-4.581,5.829-4.581c3.277,0,5.937,2.622,6,5.877h-1.388c-0.002,0-0.004,0.001-0.006,0.001H21.652z"/>
</svg>
