<svg xmlns="http://www.w3.org/2000/svg" width="32" height="32" viewBox="0 0 32 32">
    <path d="M26,9.581l-0.197-0.206c0.011,0.122,0.023,0.24,0.012,0.39L26,9.581z M29,20.106
        l-0.013-0.102c-0.011-0.845-0.101-1.59-0.271-2.235l-0.348-2.864C28.205,13.842,26.966,13,25.597,13h-4.57
        c-0.955,0.12-1.456,0.557-2.07,1.052c-0.06,0.053-0.126,0.103-0.193,0.152c-0.037,0.029-0.071,0.057-0.109,0.086
        c-0.057,0.043-0.114,0.079-0.172,0.107c-0.629,0.36-1.497,0.583-2.457,0.583c-0.921,0-1.752-0.208-2.374-0.542
        c-0.092-0.033-0.185-0.079-0.275-0.148c-0.771-0.588-1.267-1.153-2.374-1.291h-0.858c-0.552-2.108-0.078-4.44,1.479-6.082
        c2.318-2.443,6.101-2.418,8.448,0.056c0.001,0.001,0.003,0.003,0.004,0.005l0.002-0.002l2.128,2.242l0.275-0.291l1.685,1.759
        c0.163-0.042,0.334-0.149,0.526-0.341c0.02-0.02,0.04-0.031,0.06-0.045c0.013-0.016,0.018-0.032,0.032-0.046
        c0.555-0.553,0.435-0.933-0.067-1.458c-0.18-0.187-0.063-0.353,0.146-0.407L23.922,7.41L25,6.273l-2.12-2.231l-0.017,0.017
        c-4.124-3.982-10.326-4.084-14.077-0.13c-2.3,2.424-3.146,5.819-2.591,9.085c-1.292,0.074-2.429,0.877-2.584,1.891l-0.369,3.141
        c-0.113,0.507-0.177,1.074-0.199,1.695L3,20.106h0.023c0,0.02-0.003,0.036-0.003,0.056C3.021,27.311,8.819,30,15.998,30
        c7.178,0,12.998-2.689,12.998-9.838c0-0.02-0.003-0.036-0.003-0.056H29z M16.982,22.723v1.214c0,0.593-0.444,1.073-0.991,1.073
        c-0.548,0-0.991-0.48-0.991-1.073v-1.225c-0.594-0.347-0.998-0.984-0.998-1.722c0-1.105,0.895-2.002,1.999-2.002
        c1.104,0,1.999,0.896,1.999,2.002C18,21.735,17.587,22.378,16.982,22.723z"/>
</svg>
