<svg xmlns="http://www.w3.org/2000/svg" width="32" height="32" viewBox="0 0 32 32">
    <path d="M29.768,13.917C29.291,13.035,26.032,7.98,26,7.302V4.828c0-1.006-0.792-1.821-1.769-1.821H4.774
        c-0.977,0-1.769,0.815-1.769,1.821V6.63H3v10.388C3,26.177,8.178,30,15.225,30c7.874,0,11.019-3.756,11.019-12.742
        c0-0.793,0.395-1.121,1.331-1.368c0.528-0.139,0.994-0.274,1.312-0.375C30.115,15.127,30.201,14.722,29.768,13.917z M18.505,7.993
        C19.329,7.993,20,8.669,20,9.499c0,0.835-0.671,1.508-1.495,1.508c-0.825,0-1.496-0.673-1.496-1.508
        C17.009,8.669,17.68,7.993,18.505,7.993z M21.215,22.011c-2.361,0-4.939-0.46-6.161-3.868c-0.156-0.436,0.045-0.926,0.449-1.094
        c0.405-0.168,0.859,0.049,1.016,0.484c0.831,2.32,2.413,2.786,4.696,2.786c0.434,0,0.785,0.378,0.785,0.846
        C22,21.632,21.648,22.011,21.215,22.011z"/>
</svg>
