<svg xmlns="http://www.w3.org/2000/svg" width="32px" height="32px" viewBox="0 0 32 32">
    <path d="M29,6H3C1.343,6,0,7.343,0,9v15c0,1.656,1.343,3,3,3h26c1.656,0,3-1.344,3-3V9
        C32,7.343,30.656,6,29,6z M12.492,22c-3.035,0-5.497-2.463-5.497-5.5S9.457,11,12.492,11c3.036,0,5.497,2.462,5.497,5.5
        S15.528,22,12.492,22z M19.508,22c-0.482,0-0.948-0.068-1.395-0.186c1.311-1.388,2.119-3.254,2.119-5.314
        s-0.809-3.927-2.119-5.314C18.559,11.069,19.025,11,19.508,11c3.037,0,5.498,2.462,5.498,5.5S22.545,22,19.508,22z"/>
</svg>
