<svg xmlns="http://www.w3.org/2000/svg" width="32" height="32" viewBox="0 0 32 32">
    <path d="M26.717,27h-5.693c-1.192-0.18-0.977-0.797,0.61-1.805
        c0.046-0.029,0.077-0.061,0.107-0.09c2.487-1.789,4.112-4.701,4.112-7.998c0-3.646-1.986-6.823-4.932-8.526L16,23.373L11.078,8.581
        c-2.944,1.704-4.931,4.88-4.931,8.526c0,3.289,1.618,6.191,4.097,7.979c0.032,0.037,0.07,0.074,0.122,0.109
        c1.508,1.014,1.775,1.627,0.606,1.805H5.283C3.236,24.566,2,21.43,2,18c0-5.87,3.615-10.891,8.738-12.97
        c0.007-0.003,0.014-0.005,0.021-0.008c0.159-0.064,0.326-0.115,0.488-0.174c1.005-0.293,1.811-0.083,2.243,0.949l2.467,7.962
        l2.487-7.893c0.42-1.084,1.219-1.327,2.234-1.045C26.106,6.748,30,11.912,30,18C30,21.43,28.764,24.566,26.717,27z"/>
</svg>
