<svg xmlns="http://www.w3.org/2000/svg" width="32" height="32" viewBox="0 0 32 32">
    <path d="M23,0H9C7.343,0,6,1.343,6,3v26c0,1.656,1.343,3,3,3h14c1.656,0,3-1.344,3-3V3
        C26,1.343,24.656,0,23,0z M14,2h4c0.553,0,1,0.448,1,1s-0.447,1-1,1h-4c-0.553,0-1-0.448-1-1S13.447,2,14,2z M16,30.095
        c-0.868,0-1.572-0.702-1.572-1.569c0-0.865,0.704-1.568,1.572-1.568s1.572,0.703,1.572,1.568
        C17.572,29.393,16.868,30.095,16,30.095z M23,24c0,0.553-0.447,1-1,1H10c-0.553,0-1-0.447-1-1V7c0-0.552,0.447-1,1-1h12
        c0.553,0,1,0.448,1,1V24z"/>
</svg>
