<svg xmlns="http://www.w3.org/2000/svg" width="32" height="32" viewBox="0 0 32 32">
    <path d="M15.996,2C8.264,2,1.994,8.269,1.994,16.002c0,7.734,6.27,14.002,14.002,14.002
        C23.73,30.004,30,23.736,30,16.002C30,8.269,23.73,2,15.996,2z M21.314,20.074l-0.5,0.865c-0.275,0.479-0.887,0.643-1.365,0.367
        L14,18.105l0.125-0.217C14.052,17.75,14,17.6,14,17.432V9.993c0-0.552,0.447-1,1-1h1c0.553,0,1,0.448,1,1v6.396l3.949,2.318
        C21.428,18.984,21.592,19.596,21.314,20.074z"/>
</svg>
