<svg xmlns="http://www.w3.org/2000/svg" width="32" height="32" viewBox="0 0 32 32">
    <path d="M27,24H5v-1H2v2c0,1.104,0.896,2,2,2h24c1.104,0,2-0.896,2-2v-2h-3V24z
         M6.5,12.014c-0.82,0-1.486,0.666-1.486,1.486S5.68,14.986,6.5,14.986S7.986,14.32,7.986,13.5S7.32,12.014,6.5,12.014z
         M25.5,12.014c-0.82,0-1.486,0.666-1.486,1.486s0.666,1.486,1.486,1.486s1.486-0.666,1.486-1.486S26.32,12.014,25.5,12.014z M30,5
        H2C0.896,5,0,5.896,0,7v13c0,1.104,0.896,2,2,2h28c1.104,0,2-0.896,2-2V7C32,5.896,31.104,5,30,5z M12.812,19H4.894
        c0.057-0.157,0.093-0.324,0.093-0.5c0-0.82-0.666-1.486-1.486-1.486c-0.176,0-0.343,0.036-0.5,0.093V9.894
        C3.157,9.95,3.324,9.986,3.5,9.986c0.821,0,1.486-0.666,1.486-1.486c0-0.176-0.036-0.343-0.093-0.5h7.919
        C11.125,9.15,10,11.181,10,13.5S11.125,17.85,12.812,19z M16,17c-1.656,0-3-1.567-3-3.5s1.344-3.5,3-3.5s3,1.567,3,3.5
        S17.656,17,16,17z M29,17.106c-0.157-0.057-0.324-0.093-0.5-0.093c-0.82,0-1.486,0.666-1.486,1.486c0,0.176,0.036,0.343,0.093,0.5
        h-7.919C20.875,17.85,22,15.819,22,13.5S20.875,9.15,19.188,8h7.919c-0.057,0.157-0.093,0.324-0.093,0.5
        c0,0.82,0.666,1.486,1.486,1.486c0.176,0,0.343-0.036,0.5-0.093V17.106z"/>
</svg>
