<svg xmlns="http://www.w3.org/2000/svg" width="32" height="32" viewBox="0 0 32 32">
    <path d="M29.657,7.852l-0.017-0.013c-0.086-0.102-1.745-2.073-3.836-3.695
        c-2.035-1.578-4.478-2.783-4.585-2.836l-0.021-0.016C20.954,1.102,20.618,1,20.274,1c-0.158,0-0.319,0.022-0.472,0.067
        C19.318,1.209,19,1.555,19,1.938v0.006v3.059c-6.143,0.113-11.472,2.672-14.375,6.44c-0.162,0.158-0.29,0.345-0.394,0.547
        c-0.042,0.062-0.09,0.12-0.131,0.182c0.014,0.004,0.026,0.011,0.041,0.015c-0.088,0.229-0.142,0.475-0.142,0.735
        c0,1.151,0.946,2.084,2.113,2.084c0.645,0,1.215-0.291,1.603-0.74c0.01,0.01,0.022,0.018,0.033,0.028
        c2.237-1.466,5.16-2.362,8.369-2.362c0.996,0,1.953,0.111,2.883,0.274v2.851v0.006c0,0.384,0.318,0.73,0.803,0.872
        c0.152,0.045,0.313,0.067,0.472,0.067c0.344,0,0.68-0.102,0.925-0.292l0.021-0.016c0.107-0.053,2.55-1.257,4.585-2.835
        c2.091-1.622,3.75-3.593,3.836-3.695l0.017-0.013c0.234-0.182,0.351-0.416,0.35-0.649C30.008,8.267,29.892,8.033,29.657,7.852z
         M24.889,16.997c-0.646,0-1.216,0.292-1.604,0.741c-0.011-0.01-0.022-0.019-0.033-0.028c-2.236,1.467-5.159,2.361-8.368,2.361
        c-0.997,0-1.954-0.11-2.884-0.273v-2.864v-0.006c0-0.385-0.29-0.73-0.73-0.873c-0.14-0.045-0.286-0.067-0.431-0.067
        c-0.312,0-0.619,0.102-0.843,0.293l-0.019,0.016c-0.098,0.053-2.322,1.258-4.175,2.838c-1.905,1.623-3.417,3.596-3.495,3.697
        l-0.015,0.014c-0.214,0.182-0.319,0.416-0.318,0.65c-0.001,0.232,0.104,0.467,0.318,0.648l0.015,0.014
        c0.078,0.102,1.59,2.074,3.495,3.697c1.853,1.58,4.077,2.787,4.175,2.84l0.019,0.016c0.224,0.189,0.53,0.293,0.843,0.293
        c0.145,0,0.291-0.023,0.431-0.068c0.44-0.143,0.73-0.486,0.73-0.871v-0.008V27c6.145-0.113,11.475-2.673,14.377-6.441
        c0.16-0.157,0.288-0.344,0.391-0.544c0.043-0.062,0.092-0.122,0.133-0.185c-0.014-0.004-0.026-0.011-0.041-0.015
        c0.089-0.229,0.143-0.476,0.143-0.735C27.002,17.93,26.056,16.997,24.889,16.997z"/>
</svg>
