<svg xmlns="http://www.w3.org/2000/svg" width="32" height="32" viewBox="0 0 32 32">
    <path d="M29.413,22.382l-7.04,7.033C21.998,29.789,21.49,30,20.96,30h-9.935
        c-0.531,0-1.04-0.211-1.415-0.587L2.585,22.38C2.21,22.005,2,21.497,2,20.967V11.02c0-0.531,0.211-1.04,0.587-1.415l7.024-7.02
        C9.986,2.211,10.494,2,11.025,2h9.936c0.529,0,1.037,0.21,1.412,0.584l7.039,7.02C29.788,9.979,30,10.488,30,11.02v9.947
        C30,21.498,29.789,22.007,29.413,22.382z M22.711,12.267c0.412-0.412,0.412-1.08,0-1.492l-1.492-1.492
        c-0.412-0.412-1.08-0.412-1.492,0l-3.73,3.73l-3.729-3.73c-0.412-0.412-1.08-0.412-1.492,0l-1.492,1.492
        c-0.412,0.412-0.412,1.08,0,1.492l3.73,3.73l-3.73,3.729c-0.412,0.412-0.412,1.08,0,1.492l1.492,1.492
        c0.412,0.412,1.08,0.412,1.492,0l3.729-3.73l3.73,3.73c0.412,0.412,1.08,0.412,1.492,0l1.492-1.492c0.412-0.412,0.412-1.08,0-1.492
        l-3.73-3.729L22.711,12.267z"/>
</svg>
