<svg xmlns="http://www.w3.org/2000/svg" width="32" height="32" viewBox="0 0 32 32">
    <path d="M31.016,26.385c0,1.412-0.972,2.556-2.184,2.605c0,0.003,0,0.006,0.001,0.009
        H3.271v-0.001c-0.003,0-0.006,0.001-0.009,0.001C2.014,28.999,1,27.829,1,26.385c0-0.658,0.218-1.252,0.565-1.712L13.894,4.295
        c0.007,0.003,0.015,0.006,0.021,0.01C14.264,3.537,15.069,3,16.008,3c0.939,0,1.744,0.537,2.092,1.305
        c0.008-0.004,0.016-0.007,0.022-0.01l12.31,20.348c-0.001,0.001-0.001,0.001-0.002,0.002C30.79,25.107,31.016,25.713,31.016,26.385z
         M18.008,11.999c0-0.552-0.447-1-1-1h-2c-0.553,0-1,0.448-1,1v7c0,0.553,0.447,1,1,1h2c0.553,0,1-0.447,1-1V11.999z M18.008,22.999
        c0-0.553-0.447-1-1-1h-2c-0.553,0-1,0.447-1,1v1c0,0.553,0.447,1,1,1h2c0.553,0,1-0.447,1-1V22.999z"/>
</svg>
