<svg xmlns="http://www.w3.org/2000/svg" width="32" height="32" viewBox="0 0 32 32">
    <path d="M19.47,22.62C18.193,23.486,16.659,24,15,24c-4.418,0-8-3.582-8-8s3.582-8,8-8
        c3.727,0,6.849,2.552,7.737,6h-1.84c-0.001,0-0.003,0.001-0.004,0.001c-1.229,0-0.981,1.064-0.011,2.076
        c0.001,0.001,0,0.001,0.001,0.002l3.118,3.455c0.552,0.611,1.445,0.611,1.997,0l3.525-3.907c0.63-0.854,0.66-1.626-0.387-1.626
        c-0.001,0-0.003-0.001-0.004-0.001H26.82C25.866,8.327,20.944,4,15,4C8.373,4,3,9.373,3,16c0,6.628,5.373,12,12,12
        c2.69,0,5.163-0.897,7.162-2.396L19.47,22.62z"/>
    <path d="M16,16v-5c0-0.553-0.447-1-1-1s-1,0.447-1,1v4.586l-1.83,1.83
        c-0.391,0.391-0.391,1.023,0,1.414s1.023,0.391,1.414,0l2.121-2.121l0,0c0.094-0.094,0.167-0.205,0.219-0.328
        c0.02-0.049,0.019-0.102,0.03-0.152C15.972,16.153,16,16.081,16,16z"/>
</svg>
