<svg xmlns="http://www.w3.org/2000/svg" width="32" height="32" viewBox="0 0 32 32">
    <path d="M30,14.012h-0.219c0-0.003,0-0.006,0-0.01h-5.488
        c-1.579,0-2.288,1.424-2.288,2.998h-0.054c0,0.535-0.436,0.969-0.973,0.969S20.007,17.535,20.007,17h-0.002c0-2.753,1.238-5,4-5h6
        v0.06c0.011-0.027,0.022-0.06,0.032-0.088c-0.032-0.025-0.051-0.068-0.051-0.134C29.986,9.36,27.987,9,26.292,9C17.31,9,7,9,7,9
        l16.281-3.483l0.542,1.44h3.768l-0.794-2.85c-0.409-1.468-1.979-2.379-3.507-2.033L5.39,6.394
        C3.855,6.493,3.079,6.597,3.079,6.597c-1.09,0.11-2.163,1.083-2.347,2.152c-0.977,5.832-0.977,11.663,0,17.495
        c0.184,1.068,1.257,2.041,2.347,2.152c8.273,0.805,15.547,0.805,23.82,0c1.09-0.111,2.162-1.084,2.347-2.152
        c0.155-0.927,0.268-2.044,0.349-3.232H30c1.104,0,2-0.895,2-2v-5C32,14.908,31.104,14.012,30,14.012z M26.514,20.004
        c-0.836,0-1.514-0.67-1.514-1.496s0.678-1.496,1.514-1.496c0.837,0,1.515,0.67,1.515,1.496S27.351,20.004,26.514,20.004z"/>
</svg>
