<svg xmlns="http://www.w3.org/2000/svg" width="32" height="32" viewBox="0 0 32 32">
    <path d="M29.334,13.094c-0.038,0-0.074,0.009-0.112,0.013 c-0.068-0.008-0.136-0.021-0.206-0.021h-0.027l-2.693-6.001c-1.482-2.887-3.341-3.073-5.449-3.073h-9.703
        c-2.058,0-3.88,0.17-5.346,2.867l-2.786,6.207H2.984c-0.071,0-0.138,0.014-0.206,0.021c-0.038-0.003-0.074-0.013-0.112-0.013
        C1.194,13.094,0,15.762,0,19.053c0,3.29,1.194,5.958,2.667,5.958c0.074,0,0.147-0.012,0.22-0.024
        c0.033,0.001,0.064,0.01,0.098,0.01h0.027v0.67C3.012,26.955,3.906,29,5.01,29h1.998c1.104,0,1.998-2.045,1.998-3.334v-0.67
        h13.988v0.67c0,1.289,0.895,3.334,1.998,3.334h1.998c1.104,0,1.998-2.045,1.998-3.334v-0.67h0.027c0.033,0,0.064-0.009,0.098-0.01
        c0.073,0.013,0.146,0.024,0.221,0.024c1.473,0,2.666-2.668,2.666-5.958C32,15.762,30.807,13.094,29.334,13.094z M8.736,7.533
        C8.914,7.134,9.365,6.824,9.75,6.824h12.551c0.385,0,0.836,0.31,1.014,0.709l2.481,5.552H6.255L8.736,7.533z M7.986,21h-2
        c-1.104,0-2-0.67-2-1.496c0-0.827,0.896-1.497,2-1.497h2c1.104,0,2,0.67,2,1.497C9.986,20.33,9.09,21,7.986,21z M26.014,20.993h-2
        c-1.104,0-2-0.67-2-1.496c0-0.827,0.896-1.497,2-1.497h2c1.104,0,2,0.67,2,1.497C28.014,20.323,27.118,20.993,26.014,20.993z"/>
</svg>
