<svg xmlns="http://www.w3.org/2000/svg" width="32" height="32" viewBox="0 0 32 32">
    <path d="M27,1H7C5.344,1,4,2.343,4,4v1.35C2.821,5.913,2,7.106,2,8.5v1
        c0,1.394,0.821,2.587,2,3.15v6.699c-1.179,0.562-2,1.756-2,3.15v1c0,1.395,0.821,2.588,2,3.15V28c0,1.656,1.344,3,3,3h20
        c1.656,0,3-1.344,3-3V4C30,2.343,28.656,1,27,1z M16.937,7c4.13,0.038,4.97,3.15,5.14,4.576c0.115,0.41,0.195,0.832,0.195,1.276
        c0,2.749-1.791,4.818-1.791,4.818s-0.436,0.92-1.121,1.805c0.078,0.013,0.149,0.026,0.226,0.039
        c-0.641,0.438-1.554,0.719-2.581,0.719c-1.028,0-1.941-0.28-2.583-0.72c0.06-0.01,0.113-0.021,0.173-0.03
        c-0.663-0.887-1.075-1.812-1.075-1.812s-1.791-2.069-1.791-4.818c0-0.041,0.012-0.08,0.013-0.121
        C11.676,11.339,11.87,6.954,16.937,7z M23.397,23.701c0,0-3.265,0.891-6.421,0.891c-3.24,0-6.374-0.891-6.374-0.891
        c-0.042-0.131-0.619-1.758-0.619-1.906c0-0.895,0.884-1.434,2.275-1.824c0.842,1.191,2.64,2.021,4.748,2.021
        c2.108,0,3.905-0.83,4.747-2.022c1.385,0.391,2.265,0.933,2.265,1.825C24.018,21.943,23.439,23.57,23.397,23.701z M16.942,18.898
        c2.2,0,3.338-4.154,3.338-5.372c0-0.873-0.353-1.662-0.921-2.245l-1.457-0.58l-4.167,3.038
        C13.779,14.673,14.768,18.898,16.942,18.898z"/>
</svg>
