<svg xmlns="http://www.w3.org/2000/svg" width="32" height="32" viewBox="0 0 32 32">
    <path d="M28,12.142C28,5.436,22.627,0,16,0S4,5.436,4,12.142
        c0,0.047,0.006,0.092,0.007,0.139C4,12.599,4.004,12.948,4.029,13.356c0.342,5.592,6.985,14.184,10.156,17.989
        c0.031-0.027,0.067-0.048,0.1-0.074C14.658,31.71,15.295,32,16.021,32c1.021,0,1.866-0.572,2.047-1.328
        c2.35-2.857,5.993-7.625,8.074-12.061C27.312,16.737,28,14.523,28,12.142z M16.002,17.005c-2.761,0-4.998-2.241-4.998-5.006
        s2.237-5.006,4.998-5.006S21,9.234,21,11.999S18.763,17.005,16.002,17.005z"/>
</svg>
