<svg xmlns="http://www.w3.org/2000/svg" width="32" height="32" viewBox="0 0 32 32">
    <path d="M24.064,13.747c-1.938-0.226-3.689,1.161-3.914,3.096 c-0.225,1.932,1.162,3.682,3.1,3.907c1.938,0.227,3.691-1.16,3.916-3.094S26.002,13.973,24.064,13.747z M26.999,9.92L26.998,1
        c0-0.552-0.447-1-1-1H6C5.448,0,5,0.448,5,1l0.002,25.914c0,0.553,0.448,1,1,1h10.637c0.445-0.192,0.818-0.176,0.779-0.064
        c-0.008,0.021-0.01,0.043-0.017,0.064h0.003l-0.087,0.75c0.107,1.242,1.462,2.133,2.85,1.893l2.122-0.672l1.834,1.095
        c1.539,0.763,3.133,0.142,3.388-2.012l0.58-5c1.907-1.268,3.267-3.333,3.552-5.788C32.056,14.622,30.085,11.34,26.999,9.92z
         M13.994,5h4c0.553,0,1,0.448,1,1c0,0.553-0.447,1-1,1h-4c-0.553,0-1-0.447-1-1C12.994,5.448,13.441,5,13.994,5z M13.999,19.998
        h-3c-0.552,0-1-0.447-1-1C10,18.447,10.447,18,11,18h3c0.553,0,1,0.447,1,0.998C14.999,19.551,14.552,19.998,13.999,19.998z
         M15.676,16.002H11c-0.552,0-1-0.449-1-1.002c0-0.552,0.447-1,1-1h4.999c0.083,0,0.156,0.028,0.233,0.047
        C15.967,14.659,15.782,15.315,15.676,16.002z M11,12c-0.552,0-1-0.447-1-1c0-0.552,0.447-1,1-1h9.102
        c-0.992,0.484-1.878,1.163-2.596,2H11z M28.105,19.334c0.463,2.085-0.266,2.98-2.155,2.715l-0.761,6.537l-2.551-1.666
        l-2.867,1.037l0.683-5.865c-1.292-0.082-1.754-0.994-1.362-2.758c-1.953-1.246-1.953-2.487,0-3.732
        c-0.502-2.262,0.379-3.142,2.641-2.641c1.244-1.953,2.488-1.953,3.732,0c2.262-0.501,3.143,0.379,2.641,2.641
        C30.059,16.847,30.059,18.088,28.105,19.334z"/>
</svg>
