<svg xmlns="http://www.w3.org/2000/svg" width="32" height="32" viewBox="0 0 32 32">
    <path fill="#414446" d="M18.397,18.979c-3.782-1.74-6.413-5.551-6.413-9.982 c0-0.591,0.06-1.166,0.149-1.731c-1.239-0.452-3.008-0.301-4.05,0.394c-2.926,2.029-5.402,4.509-7.432,7.438
        c-0.802,1.205-0.883,3.381-0.143,4.59c1.644,2.563,3.744,4.667,6.304,6.31c1.208,0.74,3.382,0.659,4.585-0.142
        c0.708-0.491,1.386-1.011,2.041-1.555L21.333,32h2.042L25,30.375V28l-7.646-7.646C17.717,19.91,18.056,19.443,18.397,18.979z
         M7.595,14.589c-1.917,1.919-3.471,3.475-3.471,3.475s-2.458-0.395,2.045-4.903s4.896-2.046,4.896-2.046
        S9.512,12.669,7.595,14.589z M22.994,0c-4.975,0-9.007,4.028-9.007,8.997c0,4.968,4.032,8.997,9.007,8.997
        c4.974,0,9.006-4.029,9.006-8.997C32,4.028,27.968,0,22.994,0z M22.994,14.992c-3.312,0-5.998-2.685-5.998-5.995
        c0-3.311,2.686-5.995,5.998-5.995s5.998,2.684,5.998,5.995C28.992,12.308,26.307,14.992,22.994,14.992z M25,8h-1.459l-1.197-2.073
        c-0.275-0.479-0.888-0.642-1.365-0.366c-0.479,0.276-0.643,0.888-0.366,1.366l1.5,2.598C22.329,9.9,22.75,10.072,23.153,10H25
        c0.553,0,1-0.448,1-1S25.553,8,25,8z"/>
</svg>
