<svg xmlns="http://www.w3.org/2000/svg" width="32" height="32" viewBox="0 0 32 32">
    <path d="M28.181,24.465c-0.054-0.051-0.114-0.087-0.17-0.132l-0.873-0.95l1.03-1.051
        c0.852-0.869,0.852-2.276,0-3.145l-0.771-0.786c-0.851-0.869-2.23-0.869-3.082,0l-0.905,0.924l-2.176-2.368
        c0.797-1.373,1.261-2.964,1.261-4.667c0-5.131-4.141-9.29-9.248-9.29C8.14,3,4,7.158,4,12.29c0,5.13,4.14,9.29,9.247,9.29
        c1.325,0,2.583-0.285,3.722-0.789l7.685,7.514l0.011-0.012c0.002,0.001,0.003,0.003,0.004,0.004
        c1.041,0.987,2.67,0.929,3.64-0.129C29.278,27.108,29.222,25.451,28.181,24.465z M11.486,12.041c-1.399,0-2.534-1.138-2.534-2.542
        s1.135-2.543,2.534-2.543c1.4,0,2.535,1.139,2.535,2.543S12.886,12.041,11.486,12.041z"/>
</svg>
