<svg xmlns="http://www.w3.org/2000/svg" width="32" height="32" viewBox="0 0 32 32">
    <path d="M19.881,22.62C18.604,23.486,17.07,24,15.411,24c-4.418,0-8-3.582-8-8
        s3.582-8,8-8c3.727,0,6.849,2.552,7.737,6h-1.84c-0.001,0-0.003,0.001-0.004,0.001c-1.229,0-0.981,1.064-0.011,2.076
        c0.001,0.001,0,0.001,0.001,0.002l3.118,3.455c0.552,0.611,1.445,0.611,1.997,0l3.525-3.907c0.63-0.854,0.66-1.626-0.387-1.626
        c-0.001,0-0.003-0.001-0.004-0.001h-2.313c-0.954-5.673-5.876-10-11.82-10c-6.627,0-12,5.373-12,12c0,6.628,5.373,12,12,12
        c2.69,0,5.163-0.897,7.162-2.396L19.881,22.62z"/>
</svg>
