<svg xmlns="http://www.w3.org/2000/svg" width="32" height="32" viewBox="0 0 32 32">
    <path d="M13.893,4.493c0,0-0.013,0.006-0.015,0.007 c-0.056-0.595-0.752-0.768-1.784-0.813l0.514,5.192c0,0.47-0.275,1.069-0.779,1.069c-0.504,0-0.912-0.4-0.912-0.895l-0.271-5.381
        c-0.211,0.001-0.425,0.003-0.647,0.003c-0.217,0-0.427-0.001-0.635-0.003L9.093,9.053c0,0.495-0.408,0.895-0.912,0.895
        c-0.504,0-0.779-0.599-0.779-1.069l0.514-5.193C6.881,3.731,6.181,3.902,6.122,4.495L6.118,4.493L6.109,4.546
        c0,0.009-0.005,0.015-0.005,0.024c0,0.002,0.001,0.004,0.001,0.006l-1.073,7.052c-0.279,2.304,1.347,3.611,2.934,4.216
        L7.021,26.136C6.808,28.177,8.091,30,9.909,30h0.201c1.818,0,3.101-1.823,2.887-3.864l-0.92-10.309
        c1.573-0.613,3.179-1.915,2.901-4.2L13.893,4.493z M24.008,17.13c-0.029-0.278-0.052-0.533-0.088-0.761l0.066-0.048
        c0,0,3.234-3.801,1.506-8.037c-2.273-5.569-5.495-4.738-5.495-4.738l0.017,13.649l-0.999,8.942C18.801,28.178,20.083,30,21.9,30
        h0.2c1.818,0,3.101-1.822,2.887-3.862L24.008,17.13z"/>
</svg>
