<svg xmlns="http://www.w3.org/2000/svg" width="32" height="32" viewBox="0 0 32 32">
    <path d="M17.9,21v-0.005c0.033,0,0.066,0.005,0.1,0.005c5.523,0,10-4.477,10-10
        c0-5.422-4.316-9.825-9.7-9.985V1H11C9.896,1,9,1.896,9,3v2v0.443V16H7.598C6.336,16,6,17.119,6,18.5S6.336,21,7.598,21H9v2H7.548
        C6.313,23,6,24.119,6,25.5S6.313,28,7.548,28H9v1v1.203C9,31.438,10.119,32,11.5,32s2.5-0.562,2.5-1.797V29v-1h5.327
        C20.562,28,21,26.881,21,25.5S20.562,23,19.327,23H14v-2H17.9z M14,6h4v0.009C20.769,6.058,23,8.27,23,11
        c0,2.731-2.231,4.942-5,4.991V16h-4V6z"/>
</svg>
