<svg xmlns="http://www.w3.org/2000/svg" width="32" height="32" viewBox="0 0 32 32">
    <path d="M24.977,13.003C24.977,6.926,20.057,2,13.988,2S3,6.926,3,13.003
        s4.92,11.004,10.988,11.004S24.977,19.08,24.977,13.003z M13.989,20.009c-3.866,0-6.999-3.134-6.999-7
        c0-3.865,3.133-6.999,6.999-6.999c3.865,0,6.999,3.134,6.999,6.999C20.988,16.875,17.854,20.009,13.989,20.009z M30.492,26.893
        l-5.435-5.436c-0.436-0.435-1.142-0.435-1.576,0l-1.576,1.576c-0.436,0.436-0.436,1.141,0,1.576l5.436,5.436
        c0.435,0.435,1.141,0.435,1.576,0l1.575-1.576C30.928,28.033,30.928,27.328,30.492,26.893z"/>
</svg>
