<svg xmlns="http://www.w3.org/2000/svg" width="32" height="32" viewBox="0 0 32 32">
    <path d="M29.125,23.333c1.035,0,1.875-0.82,1.875-1.833c0-0.523-0.227-0.992-0.586-1.326
        c-1.064-0.953-1.96-2.547-2.196-3.444c-0.02-0.075-0.058-0.131-0.102-0.178c-1.748-4.127-5.604-7.169-10.255-7.82
        c0.002-0.022,0.014-0.042,0.014-0.064V7.938h1.875c1.151,0,0.938-1.104,0.938-1.104h-0.01C20.627,6.075,18.557,5,16,5
        s-4.627,1.075-4.678,1.833h-0.01c0,0-0.147,1.104,0.938,1.104h1.875v0.729c0,0.023,0.012,0.042,0.014,0.064
        c-4.652,0.651-8.513,3.697-10.262,7.827c-0.041,0.046-0.076,0.1-0.095,0.171c-0.013,0.048-0.034,0.104-0.051,0.155
        c-0.033,0.086-0.058,0.177-0.089,0.264c-0.356,0.924-1.152,2.223-2.074,3.04c-0.018,0.017-0.032,0.034-0.049,0.051
        c-0.056,0.049-0.099,0.102-0.132,0.156C1.147,20.703,1,21.083,1,21.5c0,1.013,0.84,1.833,1.875,1.833
        C1.84,23.333,1,24.154,1,25.167S1.84,27,2.875,27h26.25C30.16,27,31,26.18,31,25.167S30.16,23.333,29.125,23.333z M25.511,17.534
        c1.061,1.6,1.728,3.478,0.765,3.478c-2.575,0-2.566-1.081-2.815-1.756c-1.714-4.65-4.177-7.046-5.715-7.952
        C21.619,11.661,23.779,14.919,25.511,17.534z M6.303,18.751c1.558-3.678,4.31-7.282,8.073-7.429
        c-0.603,0.789-2.337,3.936-2.337,7.059c0,1.19-0.629,2.631-2.148,2.631c-1.519,0-5.529-0.021-5.529-0.021
        C4.404,20.835,5.545,20.542,6.303,18.751z"/>
</svg>
