<svg xmlns="http://www.w3.org/2000/svg" width="32" height="32" viewBox="0 0 32 32">
    <path d="M29.423,22.103C29.183,17.546,28.548,9.1,28.548,9.1c0-1.104-0.895-2-2-2
        c0,0-1.784,0.104-4.056,0.198c-0.374-2.897-2.891-5.139-5.945-5.139c-3.054,0-5.571,2.242-5.945,5.138
        C8.333,7.204,6.551,7.1,6.551,7.1c-1.104,0-2,0.896-2,2c0,0-0.632,8.387-0.875,13.002c-0.257,4.879,0.004,3.801,0.004,3.801
        c0,0.5,0.19,0.952,0.495,1.303c0.35,1.051,6.27,1.776,12.389,1.776c6.211,0,12.22-0.746,12.407-1.822
        c0.281-0.345,0.456-0.778,0.456-1.257C29.427,25.903,29.683,27.032,29.423,22.103z M13.547,7.284c0-1.657,1.344-3,3-3
        c1.654,0,2.998,1.343,2.998,3V7.4c-1.037,0.028-2.068,0.047-2.995,0.047c-0.929,0-1.963-0.019-3.002-0.047V7.284z M11.776,10.957
        h0.036c0.043-0.444,0.405-0.795,0.86-0.795s0.816,0.351,0.86,0.795h0.005v0.024c0.001,0.021,0.012,0.038,0.012,0.058
        s-0.01,0.038-0.012,0.058v0.987c0,1.478,1.533,3.15,3.009,3.15s3.008-1.673,3.008-3.15v-1.127h0.036
        c0.043-0.444,0.405-0.795,0.86-0.795s0.817,0.351,0.86,0.795h0.005v0.024c0.001,0.021,0.012,0.038,0.012,0.058
        s-0.011,0.038-0.012,0.058v0.987c0,2.463-2.309,4.461-4.77,4.461c-2.462,0-4.771-1.999-4.771-4.461V10.957z"/>
</svg>
