<svg xmlns="http://www.w3.org/2000/svg" width="32" height="32" viewBox="0 0 32 32">
    <path d="M32,9.006C32,4.032,27.974,0,23.007,0c-3.922,0-7.248,2.518-8.478,6.024
        c-0.173-0.002-0.345-0.005-0.52-0.005c-5.035,0-9.339,0.809-11.122,1.954c-1.636,0.781-2.88,4.61-2.88,9.037
        c0,4.414,1.238,8.236,2.868,9.03c0.693,0.448,1.776,0.845,3.135,1.162l0.005,2.273c0,0.004,0.003,0.007,0.003,0.011
        c0,1.17,1.007,1.853,2.812,0.828l3.89-2.332c0.424,0.012,0.853,0.02,1.289,0.02c5.074,0,9.403-0.821,11.16-1.98
        c1.615-0.844,2.835-4.639,2.835-9.012c0-0.172-0.005-0.342-0.009-0.512C30.409,14.883,32,12.131,32,9.006z M7.063,13h7.892
        c0.363,0.732,0.821,1.406,1.36,2.008H7.063c-0.592,0-1.071-0.449-1.071-1.004S6.472,13,7.063,13z M17.928,20H7.071
        C6.479,20,6,19.557,6,19.009S6.479,18.018,7.071,18h10.856C18.52,18.018,19,18.461,19,19.009S18.52,20,17.928,20z M23.005,15.013
        c-3.316,0-6.005-2.688-6.005-6.006s2.688-6.006,6.005-6.006c3.315,0,6.004,2.689,6.004,6.006S26.32,15.013,23.005,15.013z
         M22.995,4.988c-1.659,0-3.005,1.255-3.005,2.804c0,0.138,0.013,0.274,0.033,0.407l1.772,0.003
        c-0.05-0.129-0.088-0.265-0.088-0.41c0-0.664,0.576-1.202,1.287-1.202c0.712,0,1.288,0.538,1.288,1.202
        c0,0.275-0.116,0.517-0.283,0.72l-0.34,0.285c-0.022,0.013-0.048,0.02-0.07,0.032l-1.814,1.522c0.007,0.003,0.013,0.007,0.02,0.01
        l-1.413,1.184c-0.23,0.144-0.392,0.376-0.392,0.655c0,0.442,0.385,0.801,0.859,0.801h4.292C25.616,13,26,12.642,26,12.199
        c0-0.443-0.384-0.802-0.858-0.802h-1.949l1.854-1.566c0.03-0.027,0.063-0.05,0.093-0.078l0.29-0.246l-0.035-0.043
        C25.77,8.997,26,8.422,26,7.792C26,6.243,24.655,4.988,22.995,4.988z"/>
</svg>
