<svg xmlns="http://www.w3.org/2000/svg" width="32" height="32" viewBox="0 0 32 32">
    <path d="M25,0H9C8.447,0,8,0.448,8,1v10.429c-1.039,0.331-1.783,1.631-2.273,2.646c-2.604,5.384-3.73,8.379,1.284,12.354
        c2.458,1.948,2.313,4.389,2.307,4.484L9.223,32h7.379l0.301-0.426c0.113-0.16,2.342-3.437,0.982-7.788
        c1.113-0.093,1.836-0.495,2.098-1.238c0.242-0.685,0.248-1.575,0.113-2.548H25c0.553,0,1-0.447,1-1V1C26,0.448,25.553,0,25,0z
         M20.672,4.31C21.18,4.818,21,5.522,20.492,6.03l-5.516,5.517c-0.162,0.162-0.34,0.28-0.521,0.354
        c-0.342-0.193-0.752-0.32-1.244-0.364c-0.375-0.485-0.242-1.065,0.223-1.532l5.518-5.517C19.459,3.98,20.164,3.802,20.672,4.31z
         M14.504,4c0.832,0,1.506,0.674,1.506,1.506c0,0.832-0.674,1.506-1.506,1.506s-1.506-0.674-1.506-1.506
        C12.998,4.674,13.672,4,14.504,4z M15.143,29.639h-3.705c-0.156-1.203-0.662-3.27-2.82-4.912
        c-3.891-2.965-2.22-6.144-0.598-10.153v5.502l0.104,0.552c0.094,0.054,0.549,0.23,1.006,0.23c0.768,0,2.127-1.928,2.18-3.571
        c0.092-2.885,0.506-3.384,1.455-3.413c0.84,0,1.17,0.437,1.252,3.022c0.01,0.336-0.047,0.672-0.043,1.004
        c0.012,1.556-0.031,3.163,0.766,4.489C16.771,25.764,15.68,28.606,15.143,29.639z M18.131,21.75
        c-0.102,0.031-0.316,0.076-0.719,0.076c-0.117,0-0.254-0.013-0.381-0.02c-0.078-0.14-0.141-0.276-0.225-0.417
        c-0.236-0.392-0.359-0.871-0.441-1.39h1.703C18.193,20.712,18.236,21.329,18.131,21.75z M19.498,11.989
        c-0.824,0-1.494-0.669-1.494-1.495c0-0.826,0.67-1.495,1.494-1.495s1.492,0.669,1.492,1.495
        C20.99,11.32,20.322,11.989,19.498,11.989z"/>
</svg>
