<svg xmlns="http://www.w3.org/2000/svg" width="32" height="32" viewBox="0 0 32 32">
    <path d="M29.708,11.801l-0.017-0.021c-0.053-0.107-1.256-2.55-2.833-4.584
        c-1.62-2.091-3.589-3.751-3.691-3.837l-0.013-0.016c-0.182-0.234-0.415-0.351-0.648-0.35c-0.233-0.001-0.467,0.115-0.648,0.35
        l-0.013,0.016c-0.103,0.086-2.071,1.746-3.691,3.837c-1.577,2.035-2.78,4.477-2.833,4.584l-0.017,0.021
        c-0.189,0.245-0.292,0.582-0.292,0.925c0,0.158,0.022,0.319,0.067,0.473C15.221,13.683,15.566,14,15.949,14h0.007h3.052v10
        c0,1.104,0.893,2,1.995,2h2.995c1.103,0,1.996-0.896,1.996-2V14h3.062h0.007c0.384,0,0.729-0.317,0.87-0.802
        C29.978,13.045,30,12.884,30,12.726C30,12.383,29.897,12.046,29.708,11.801z M16.062,19h-0.007H13V9c0-1.104-0.896-2-2-2H8
        C6.896,7,6,7.896,6,9v10H2.956H2.95c-0.385,0-0.729,0.317-0.871,0.802c-0.045,0.153-0.067,0.314-0.067,0.473
        c0,0.343,0.103,0.68,0.292,0.925L2.32,21.22c0.053,0.107,1.256,2.55,2.833,4.585c1.62,2.091,3.589,3.751,3.691,3.837l0.013,0.016
        c0.182,0.234,0.415,0.351,0.648,0.35c0.233,0.001,0.467-0.115,0.648-0.35l0.013-0.016c0.103-0.086,2.071-1.746,3.691-3.837
        c1.577-2.035,2.78-4.478,2.833-4.585l0.017-0.021C16.897,20.954,17,20.617,17,20.274c0-0.158-0.022-0.319-0.067-0.473
        C16.791,19.317,16.446,19,16.062,19z"/>
</svg>
