<svg xmlns="http://www.w3.org/2000/svg" width="32" height="32" viewBox="0 0 32 32">
    <path d="M26.971,27.988l-1.997-3c1.757-0.062,3.102-1.494,3.023-3.245L26.931,3.761
        C26.86,2.229,25.466,1,23.813,1H7.022C5.369,1,4.141,2.229,4.071,3.761L3.004,21.743c-0.078,1.738,1.248,3.159,2.985,3.241
        l-2.406,3.614C2.669,30.087,2.711,31,4.414,31h1.241l0.673-1h18.303l0.673,1h1.235c1.922,0,1.734-1.159,0.438-3
        C26.974,27.996,26.975,27.992,26.971,27.988z M7,20.5c0-1.109,0.899-2.009,2.009-2.009s2.009,0.899,2.009,2.009
        s-0.899,2.009-2.009,2.009S7,21.609,7,20.5z M8.346,27l1.346-2h11.576l1.346,2H8.346z M21.99,22.509
        c-1.109,0-2.008-0.899-2.008-2.009s0.898-2.009,2.008-2.009S24,19.391,24,20.5S23.1,22.509,21.99,22.509z M6.477,15l0.596-9
        h16.808l0.596,9H6.477z"/>
</svg>
