<svg xmlns="http://www.w3.org/2000/svg" width="32" height="32" viewBox="0 0 32 32">
    <path d="M31.609,21.365c-0.586,0.903-2.152,3.218-4.041,5.193
        c-2.006,2.099-4.309,3.725-4.968,4.173c-0.544,0.371-1.206,0.356-1.739-0.037C20.327,30.3,20,29.585,20,28.812v-1.844h-5.037
        c-1-0.026-1.124-0.273-1.595-0.74c-0.011-0.011-0.017-0.01-0.027-0.02L0.673,13.532c-0.001-0.001-0.001-0.002-0.003-0.003
        c-0.629-0.565-0.668-0.939-0.668-1.569C0.001,11.957,0,11.956,0,11.953V3.682c0-0.946,0.754-1.714,1.684-1.714h12.628
        c0.93,0,1.684,0.768,1.684,1.714v9.286H20v-1.801c0-0.773,0.328-1.489,0.862-1.884c0.534-0.394,1.196-0.407,1.741-0.035
        c0.664,0.455,2.989,2.1,4.975,4.176c1.814,1.898,3.306,4.069,4.033,5.194c0.26,0.4,0.389,0.887,0.389,1.372
        C32,20.478,31.87,20.964,31.609,21.365z M5.922,15.124c0.221-0.086,0.452-0.145,0.696-0.145c1.317,0,2.386,0.877,2.386,2.976
        c0,0.108-0.006,0.192-0.015,0.265l1.102,1.112c0.078-0.425,0.109-0.877,0.109-1.364c0-2.277-1.538-4-3.2-4
        c-0.62,0-1.33,0.069-1.949,0.276L5.922,15.124z M12.996,6.968c-1.105,0-2-0.895-2.001-1.998L4.996,4.969
        c0,1.1-0.889,1.99-1.988,1.998v5.217l0.759,0.765c0.831-0.541,1.815-0.78,2.878-0.78c2.96,0,5.359,2.467,5.359,5.757
        c0,0.967-0.194,1.936-0.535,2.797L13,22.268l0.009-15.301C13.004,6.967,13,6.968,12.996,6.968z M8.014,9.271
        c-0.721,0-1.304-0.583-1.304-1.303s0.583-1.303,1.304-1.303c0.719,0,1.303,0.583,1.303,1.303S8.732,9.271,8.014,9.271z"/>
</svg>
