<svg xmlns="http://www.w3.org/2000/svg" width="32" height="32" viewBox="0 0 32 32">
    <path d="M29,30H3c-1.656,0-3-1.343-3-3V12c0-1.656,1.344-3,3-3h3.062v3H3v2h3.689
        c0.478,0.618,1.131,1.449,1.627,2.022c1.005,1.161,2.051,2.151,3.029,2.978H3v8h26v-8h-8.346c0.979-0.826,2.024-1.816,3.029-2.978
        c0.496-0.573,1.149-1.404,1.627-2.022H29v-2h-3.062V9H29c1.657,0,3,1.344,3,3v15C32,28.657,30.657,30,29,30z M20.766,15.684
        c-1.379,1.361-2.953,2.479-3.77,3.025C16.705,18.902,16.352,19,15.999,19s-0.706-0.098-0.997-0.293
        c-0.656-0.439-2.336-1.614-3.771-3.03c-1.523-1.505-2.704-3.232-3.028-3.727c-0.27-0.408-0.26-0.904,0.027-1.304
        C8.516,10.246,9.035,10,9.596,10h1.398L11,5c0-1.104,0.896-2,2-2h6c1.104,0,2,0.896,2,2v5h1.404c0.561,0,1.08,0.246,1.367,0.646
        c0.285,0.401,0.295,0.897,0.025,1.306C23.467,12.451,22.273,14.195,20.766,15.684z"/>
</svg>
