<svg xmlns="http://www.w3.org/2000/svg" width="32" height="32" viewBox="0 0 32 32">
    <path d="M29.712,15.539c-3.473-4.836-10.704-9.808-14.456-12.269
        c-0.218-0.174-0.55-0.27-0.854-0.271c-0.177,0-0.438,0.034-0.608,0.107c-0.468,0.195-0.908,0.687-0.903,1.211
        c0.59,2.51,1.748,4.982,2.781,7.682H5.7C4.209,12,3,13.212,3,14.707v3.609c0,1.495,1.209,2.707,2.7,2.707h10.137
        c-1.07,2.698-2.324,5.148-2.947,7.658c-0.005,0.524,0.435,1.016,0.903,1.21c0.17,0.075,0.51,0.108,0.688,0.108
        c0.304,0,0.594-0.096,0.812-0.269c3.75-2.457,10.974-7.44,14.429-12.271c0.188-0.255,0.277-0.6,0.278-0.96
        C29.999,16.141,29.899,15.794,29.712,15.539z"/>
</svg>
