<svg xmlns="http://www.w3.org/2000/svg" width="32" height="32" viewBox="0 0 32 32">
    <path d="M10.998,20.014h2.008l0.315-5.002h-2.638L10.998,20.014z M14.998,20.014h2.008
        l0.315-5.002h-2.639L14.998,20.014z M29,6H3C1.343,6,0,7.343,0,9v15c0,1.657,1.343,3,3,3h26c1.657,0,3-1.343,3-3V9
        C32,7.343,30.657,6,29,6z M25,14.499c0,0.283-0.252,0.513-0.562,0.513h-1.755l0.315,5.002H23.5c0.276,0,0.5,0.223,0.5,0.497v0.996
        c0,0.274-0.224,0.498-0.5,0.498h-4.501C18.996,22.556,18.551,23,18,23h-4c-0.551,0-0.996-0.444-0.999-0.995H8.5
        c-0.276,0-0.5-0.224-0.5-0.498v-0.996c0-0.274,0.224-0.497,0.5-0.497h0.506l0.315-5.002H7.562C7.252,15.012,7,14.782,7,14.499
        S7,14,7,14s0.025-0.005,0.066-0.013l8.755-3.939c0.115-0.068,0.303-0.068,0.419,0l8.753,3.932h-0.102C24.955,13.991,25,14,25,14
        S25,14.216,25,14.499z M18.998,20.014h2.008l0.315-5.002h-2.639L18.998,20.014z"/>
</svg>
