<svg xmlns="http://www.w3.org/2000/svg" width="32" height="32" viewBox="0 0 32 32">
    <path d="M29,32H3c-1.656,0-3-1.343-3-3V14c0-1.656,1.344-3,3-3h3v3H3v2h3.631
        c0.48,0.618,1.139,1.449,1.638,2.022c1.011,1.161,2.063,2.151,3.048,2.978H3v8h26v-8h-8.316c0.984-0.826,2.037-1.816,3.048-2.978
        c0.499-0.573,1.157-1.404,1.638-2.022H29v-2h-3v-3h3c1.656,0,3,1.344,3,3v15C32,30.657,30.656,32,29,32z M20.764,17.684
        c-1.379,1.361-2.955,2.479-3.771,3.025C16.701,20.903,16.348,21,15.995,21c-0.354,0-0.708-0.098-0.999-0.293
        c-0.656-0.439-2.337-1.614-3.771-3.03C9.7,16.172,8.52,14.444,8.194,13.95c-0.27-0.408-0.259-0.904,0.026-1.305
        C8.508,12.245,9.027,12,9.588,12h1.404v-1.989H8.021C7.457,10.011,7,9.542,7,8.963V1.048C7,0.469,7.457,0,8.021,0h3.719
        c0.505,0.004,0.677,0.127,0.968,0.447c0.004,0.004,0.01,0.008,0.015,0.012l7.999,8c0.181,0.193,0.277,0.352,0.277,0.765
        C20.998,9.228,21,9.23,21,9.234V12h1.403c0.562,0,1.081,0.246,1.368,0.646c0.285,0.401,0.295,0.897,0.025,1.306
        C23.467,14.451,22.271,16.195,20.764,17.684z M16.189,6.753c-0.362,0.143-0.762,0.216-1.186,0.216c-1.591,0-2.881-1.301-2.881-2.906
        c0-0.406,0.064-0.788,0.191-1.138L11.378,2H9v6h8.452L16.189,6.753z M10.479,3.752c0.428,0,0.775,0.347,0.775,0.773
        s-0.348,0.772-0.775,0.772S9.703,4.952,9.703,4.525S10.051,3.752,10.479,3.752z"/>
</svg>
