<svg xmlns="http://www.w3.org/2000/svg" width="32" height="32" viewBox="0 0 32 32">
    <path d="M27.129,21.998c-1.672,0-11.754,0-14.939,0c-1.414,0-2.061-1.623-2.061-1.623
        S10.102,20.238,10.056,20c1.943,0,6.781,0,12.726,0C30.543,20,31,7,31,7H8.129c0-0.001,0-0.001,0-0.002c0-4.266-5-4-5-4v0.006
        c-1.104,0-2,0.896-2,2s0.896,2,2,2c0.03,0,0.058-0.007,0.087-0.009C3.447,6.993,4.091,7.07,4.129,7.998
        c0.046,1.117,1.071,7.458,2,12.301c0.556,2.899,1.982,4.32,3.305,5.022c-0.774,0.425-1.305,1.237-1.305,2.183
        c0,1.381,1.119,2.5,2.5,2.5s2.5-1.119,2.5-2.5c0-0.568-0.197-1.086-0.516-1.506c1.111,0,4.161,0,9.032,0
        c-0.318,0.42-0.516,0.938-0.516,1.506c0,1.381,1.119,2.5,2.5,2.5s2.5-1.119,2.5-2.5c0-0.781-0.365-1.47-0.926-1.928
        C28.34,24.551,28.466,21.998,27.129,21.998z"/>
</svg>
