<svg xmlns="http://www.w3.org/2000/svg" width="32" height="32" viewBox="0 0 32 32">
    <path d="M27.952,6.271c0.835-0.104,1.64-0.295,2.419-0.551
        c0.041,0.003,0.088,0.001,0.147-0.02c0.644-0.221,0.745-0.001,0.603,0.349c-0.768,1.016-1.666,1.923-2.674,2.678
        c0.012,0.293,0.019,0.587,0.019,0.882c0,9.011-6.605,19.4-18.685,19.4c-2.758,0-5.371-0.626-7.727-1.74
        c-1.074-0.628-1.346-1.349,0.39-1.257c0.177,0.009,0.294-0.025,0.388-0.076c2.473-0.3,4.741-1.298,6.604-2.813
        c-2.874-0.055-5.3-2.026-6.135-4.735c0.401,0.08,0.812,0.123,1.235,0.123c0.6,0,1.18-0.084,1.73-0.24
        C3.263,17.644,1,14.888,1,11.584c0-0.029,0-0.058,0-0.086c0.885,0.511,1.898,0.817,2.975,0.854
        c-1.762-1.223-2.922-3.311-2.922-5.676c0-0.244,0.022-0.482,0.047-0.72C1.126,5.712,1.16,5.497,1.201,5.304
        c0.004-0.02,0.007-0.039,0.012-0.059c0.318-1.429,1.072-1.387,2.793,0.246c0.052,0.05,0.104,0.07,0.156,0.108
        c3.061,2.775,6.986,4.547,11.316,4.772c-0.112-0.499-0.17-1.02-0.17-1.554C15.309,5.053,18.248,2,21.875,2
        c1.89,0,3.596,0.828,4.794,2.153C27.82,3.918,28.917,3.524,29.941,3c0.629-0.135,0.372,0.699,0.002,1.315
        C29.412,5.1,28.746,5.776,27.952,6.271z"/>
</svg>
