<svg xmlns="http://www.w3.org/2000/svg" viewBox="0 0 32 32">
    <path d="M27.5,29.5h-1.111c-0.183,0-0.356-0.07-0.488-0.198l-1.172-1.139l-1.172,1.139c-0.131,0.128-0.306,0.198-0.488,0.198
		h-0.795c-0.183,0-0.357-0.07-0.487-0.198l-1.172-1.139l-1.171,1.139c-0.131,0.128-0.307,0.198-0.488,0.198H18.16
		c-0.184,0-0.357-0.07-0.488-0.198L16.5,28.163l-1.171,1.139C15.198,29.43,15.022,29.5,14.84,29.5h-0.795
		c-0.182,0-0.357-0.07-0.488-0.198l-1.172-1.139l-1.172,1.139c-0.13,0.128-0.305,0.198-0.487,0.198H9.931
		c-0.182,0-0.357-0.07-0.488-0.198l-1.172-1.139L7.1,29.302C6.969,29.43,6.794,29.5,6.612,29.5H5.5c-0.551,0-1-0.448-1-1v-26
		c0-0.551,0.447-1,0.996-1h1.116c0.182,0,0.357,0.071,0.488,0.198l1.172,1.139l1.172-1.139C9.574,1.571,9.749,1.5,9.931,1.5h0.795
		c0.182,0,0.357,0.071,0.488,0.198l1.172,1.139l1.172-1.139c0.13-0.127,0.305-0.198,0.487-0.198h0.795
		c0.182,0,0.357,0.071,0.488,0.198L16.5,2.837l1.172-1.139C17.803,1.571,17.979,1.5,18.16,1.5h0.795
		c0.182,0,0.357,0.071,0.486,0.198l1.173,1.139l1.172-1.139c0.13-0.127,0.306-0.198,0.487-0.198h0.795
		c0.183,0,0.356,0.071,0.488,0.198l1.172,1.139L25.9,1.698C26.031,1.571,26.206,1.5,26.389,1.5h1.115c0.549,0,0.996,0.449,0.996,1
		v26C28.5,29.052,28.051,29.5,27.5,29.5z M22.336,15.143l-1.906-1.786l0,0l-6.104-5.715c-0.211-0.197-0.552-0.197-0.763,0
		l-1.907,1.786c-0.21,0.197-0.21,0.517,0,0.714l5.722,5.357l-5.722,5.356c-0.21,0.199-0.21,0.519,0,0.715l1.907,1.787
		c0.211,0.197,0.552,0.197,0.763,0l6.104-5.715l0,0l1.906-1.787C22.547,15.659,22.547,15.339,22.336,15.143z"/>
</svg>