<svg xmlns="http://www.w3.org/2000/svg" viewBox="0 0 32 32">
    <path d="M16,30C8.268,30,2,23.732,2,16S8.268,2,16,2c7.732,0,14,6.268,14,14
		S23.732,30,16,30z M16,5C9.925,5,5,9.925,5,16s4.925,11,11,11s11-4.925,11-11S22.075,5,16,5z M24.088,19.047l-7.116-1.906
		c-0.005,0.02-0.008,0.04-0.012,0.061c-0.012,0.061-0.013,0.122-0.036,0.18c-0.051,0.123-0.125,0.234-0.217,0.327
		c0,0,0,0.001-0.001,0.001l-4.121,4.121c-0.391,0.391-1.024,0.391-1.414,0c-0.391-0.391-0.391-1.023,0-1.414l3.83-3.83V8
		c0-0.553,0.448-1,1-1s1,0.447,1,1v8.389l7.277,1.95c0.533,0.143,0.924,0.417,0.871,0.613C25.096,19.147,24.621,19.19,24.088,19.047
		z"/>
</svg>
