<svg xmlns="http://www.w3.org/2000/svg" width="32" height="32" viewBox="0 0 32 32">
    <path d="M16,2C8.268,2,2,8.269,2,16c0,7.732,6.268,14,14,14c7.732,0,14-6.268,14-14C30,8.269,23.732,2,16,2z M16,27
        C9.925,27,5,22.075,5,16S9.925,5,16,5c6.075,0,11,4.925,11,11S22.075,27,16,27z M23.701,17.829L17,15.584V8
        c0-0.549-0.422-1-1.001-1C15.418,7,15,7.451,15,8v7.479l-3.247,3.051c-0.327,0.309-0.375,1.259-0.048,1.567s0.857,0.309,1.184,0
        L17,16.584l6.502,2.166c0.561,0.143,0.758-0.026,0.813-0.22C24.371,18.336,24.262,17.972,23.701,17.829z"/>
</svg>
