<svg xmlns="http://www.w3.org/2000/svg" width="32" height="32" viewBox="0 0 32 32">
    <path d="M28.6,19H25.4c-0.222,0-0.4,0.179-0.4,0.4V25H7v-5.6C7,19.179,6.821,19,6.6,19
        H3.4C3.179,19,3,19.179,3,19.4V25c0,2.209,1.791,4,4,4h18c2.209,0,4-1.791,4-4v-5.6C29,19.179,28.821,19,28.6,19z M10.396,14
        h1.601v4.996c0,1.107,0.896,2.004,2.001,2.004h4.003c1.105,0,2.002-0.896,2.002-2.004V14h1.601c0.49,0,0.945-0.272,1.195-0.718
        c0.25-0.444,0.26-0.996,0.023-1.449c-0.284-0.549-1.316-2.469-2.649-4.141c-1.255-1.573-2.726-2.879-3.299-3.367
        C16.619,4.108,16.31,4,16.001,4s-0.617,0.108-0.872,0.324c-0.714,0.605-2.093,1.849-3.299,3.361
        c-1.318,1.653-2.363,3.591-2.652,4.146c-0.236,0.453-0.228,1.005,0.022,1.45S9.905,14,10.396,14z"/>
</svg>
