<svg xmlns="http://www.w3.org/2000/svg" width="32" height="32" viewBox="0 0 32 32">
<path d="M27.447,21.032C24.874,27.108,19.628,32,16,32c-3.627,0-8.874-4.892-11.447-10.968
	c-2.499-0.396-2.542-5.399-2.542-5.399c-0.083-0.708,0.33-1.355,0.998-1.729C3.051,5.128,8.85,0,16,0
	c7.15,0,12.949,5.128,12.992,13.904c0.667,0.373,1.08,1.021,0.997,1.729C29.989,15.633,29.946,20.637,27.447,21.032z M26.114,15.08
	c0.037-0.391,0.063-0.781,0.064-1.17c-0.553,0.046-1.111,0.076-1.682,0.076c-4.25,0-8.048-1.343-10.694-3.458
	c0.166,1.455,0.677,3.016,1.938,4.169c0,0-3.278,0.401-6.34-2.886c-1.048,0.943-2.248,1.722-3.567,2.282
	c0.005,0.326,0.036,0.653,0.067,0.98c-0.726,0.218-1.102,1.256-0.837,2.364s1.068,1.865,1.815,1.731
	c1.948,5.132,6.204,9.467,9.123,9.467s7.186-4.334,9.136-9.466c0.743,0.124,1.54-0.63,1.802-1.732
	C27.201,16.338,26.831,15.307,26.114,15.08z M19.999,20C18.895,20,18,19.104,18,18s0.895-2,1.999-2c1.104,0,1.999,0.896,1.999,2
	S21.103,20,19.999,20z M19.999,23.271c0,1.099-2.343,1.822-3.999,1.822c-1.655,0-3.999-0.724-3.999-1.822
	c0-1.098,2.343-0.24,3.999-0.24C17.656,23.031,19.999,22.174,19.999,23.271z M12.001,20c-1.104,0-2-0.896-2-2s0.896-2,2-2
	s2,0.896,2,2S13.105,20,12.001,20z"/>
</svg>
