<svg xmlns="http://www.w3.org/2000/svg" width="32" height="32" viewBox="0 0 32 32">
    <path d="M29,29H3c-1.657,0-3-1.343-3-3V6c0-1.657,1.343-3,3-3h26c1.657,0,3,1.343,3,3v20
        C32,27.657,30.657,29,29,29z M4,4.771c-0.679,0-1.229,0.55-1.229,1.229S3.321,7.229,4,7.229S5.229,6.679,5.229,6
        S4.679,4.771,4,4.771z M29,9H3v17h26V9z M8,11h16c1.104,0,2,0.896,2,2v9c0,1.104-0.896,2-2,2H8c-1.104,0-2-0.896-2-2v-9
        C6,11.896,6.896,11,8,11z M20.667,21h1.866C22.791,21,23,20.776,23,20.5S22.791,20,22.533,20h-1.866c-0.258,0-0.467,0.224-0.467,0.5
        S20.409,21,20.667,21z M16.934,21H18.8c0.258,0,0.467-0.224,0.467-0.5S19.058,20,18.8,20h-1.866c-0.258,0-0.467,0.224-0.467,0.5
        S16.676,21,16.934,21z M13.2,21h1.866c0.258,0,0.467-0.224,0.467-0.5S15.324,20,15.066,20H13.2c-0.258,0-0.467,0.224-0.467,0.5
        S12.942,21,13.2,21z M12.5,16.602c0.267,0.241,0.612,0.398,1,0.398c0.828,0,1.5-0.672,1.5-1.5S14.328,14,13.5,14
        c-0.388,0-0.733,0.157-1,0.398C12.803,14.673,13,15.06,13,15.5S12.803,16.327,12.5,16.602z M9.467,21h1.866
        c0.258,0,0.467-0.224,0.467-0.5S11.591,20,11.333,20H9.467C9.209,20,9,20.224,9,20.5S9.209,21,9.467,21z M10.5,17
        c0.828,0,1.5-0.672,1.5-1.5S11.328,14,10.5,14S9,14.672,9,15.5S9.672,17,10.5,17z"/>
</svg>
