<svg xmlns="http://www.w3.org/2000/svg" width="32" height="32" viewBox="0 0 32 32">
    <path d="M23.311,18.018h1.647l-0.819-2.599L23.311,18.018z M29,6H3C1.343,6,0,7.343,0,9
        v15c0,1.656,1.343,3,3,3h26c1.656,0,3-1.344,3-3V9C32,7.343,30.656,6,29,6z M8.512,21.009H6.4l0.013-0.04l-2.429-8.976
        l2.088-0.001l1.47,5.433l1.731-5.433h2.112L8.512,21.009z M13.537,21.009h-2.112l0.893-9.017h2.112L13.537,21.009z M20.131,18.549
        c-0.52,3.219-5.263,2.244-5.263,2.244l0.538-2.633c0,0,2.328,0.739,2.497,0.053c0.285-1.148-2.272-0.1-2.072-3.639
        c0.201-3.538,5.173-2.409,5.173-2.409l-0.648,2.409c0,0-2.104-0.559-2.301,0.381C17.766,16.34,20.59,15.704,20.131,18.549z
         M25.9,21.009l-0.297-0.942h-2.945l-0.301,0.942h-2.111l2.843-8.921l-0.03-0.096h2.172l-0.042,0.132l2.8,8.885H25.9z"/>
</svg>
