<svg xmlns="http://www.w3.org/2000/svg" width="32" height="32" viewBox="0 0 32 32">
    <path d="M27,30H5c-1.656,0-3-1.343-3-3V5c0-1.657,1.344-3,3-3h22c1.656,0,3,1.343,3,3v22
        C30,28.657,28.656,30,27,30z M22.227,16.948c-0.507-0.683-1.232-1.166-2.176-1.449c0.668-0.312,1.199-0.781,1.59-1.406
        c0.391-0.624,0.586-1.311,0.586-2.059c0-0.69-0.158-1.313-0.475-1.869c-0.317-0.556-0.714-1.001-1.189-1.335
        c-0.475-0.334-1.014-0.554-1.617-0.659c-0.602-0.105-1.516-0.158-2.741-0.158l-3.188-0.01C13.01,8.003,13.006,8,13,8h-2
        c-0.553,0-1,0.447-1,1v14c0,0.553,0.447,1,1,1h2c0.008,0,0.014-0.004,0.02-0.004l2.266-0.009c1.993-0.015,3.25-0.051,3.771-0.109
        c0.832-0.095,1.531-0.347,2.098-0.757c0.566-0.411,1.015-0.959,1.342-1.646c0.328-0.687,0.492-1.394,0.492-2.119
        C22.988,18.434,22.734,17.631,22.227,16.948z M16.379,13.997c-0.121,0-0.238-0.014-0.352-0.037h-2.016v-2.964h2.595v0.017
        c0.783,0.103,1.386,0.727,1.386,1.483C17.992,13.325,17.27,13.997,16.379,13.997z M16.602,18.009
        c0.783,0.104,1.385,0.727,1.385,1.482c0,0.828-0.722,1.499-1.611,1.499c-0.121,0-0.238-0.014-0.352-0.037h-2.013v-2.961h2.591
        V18.009z"/>
</svg>
