<svg xmlns="http://www.w3.org/2000/svg" width="32" height="32" viewBox="0 0 32 32">
    <path d="M16,12c-1.657,0-3,1.343-3,2.999C13,16.657,14.342,18,16,18
        c1.656,0,3-1.343,3-3.001C19,13.343,17.655,12,16,12z M10.241,5.641c0.342,0,0.746-0.125,1.199-0.374
        C12.72,4.566,14.255,4.21,16,4.21c1.745,0,3.279,0.356,4.561,1.057c0.453,0.249,0.856,0.374,1.198,0.374
        c0.718,0,1.203-0.657,1.526-1.408C21.207,2.824,18.7,2,16,2s-5.207,0.824-7.286,2.233C9.038,4.984,9.524,5.641,10.241,5.641z
         M26.381,22.802C28.018,20.627,29,17.931,29,14.999c0-3.817-1.655-7.24-4.276-9.618c-0.64,1.081-1.593,1.909-2.965,1.909
        c-0.661,0-1.371-0.204-2.108-0.608C18.653,6.137,17.425,5.86,16,5.86c-1.425,0-2.653,0.277-3.65,0.822
        c-0.737,0.405-1.446,0.608-2.109,0.608c-1.372,0-2.324-0.829-2.964-1.909C4.656,7.759,3,11.182,3,14.999
        c0,2.932,0.982,5.628,2.62,7.803c-0.615,0.458-1.01,0.962-1.151,1.495C4.297,24.702,4.19,25.21,4.19,25.769
        c0,0.691,0.16,1.309,0.41,1.743c0.976,1.857,5.572,3.264,11.301,3.264c5.167,0,9.411-1.145,10.911-2.731
        c0.546-0.265,0.95-1.188,0.95-2.295c0-0.474-0.075-0.912-0.202-1.283C27.464,23.871,27.06,23.307,26.381,22.802z M16,22
        c-3.866,0-7-3.135-7-7c0-3.866,3.134-7,7-7s7,3.134,7,7C23,18.865,19.865,22,16,22z"/>
</svg>
