<svg xmlns="http://www.w3.org/2000/svg" width="48" height="48" viewBox="0 0 48 48">
    <path d="M41.5,43.019h-2.493v2.482c0,0.828-0.673,1.499-1.503,1.499h-3.006
        c-0.83,0-1.502-0.671-1.502-1.499v-2.482h-2.494c-0.828,0-1.5-0.675-1.5-1.507v-3.013c0-0.832,0.672-1.507,1.5-1.507h2.494V34.51
        c0-0.828,0.672-1.499,1.502-1.499h3.006c0.83,0,1.503,0.671,1.503,1.499v2.482H41.5c0.828,0,1.5,0.675,1.5,1.507v3.013
        C43,42.344,42.328,43.019,41.5,43.019z M25.997,40.005c0,1.051,0.164,2.062,0.465,3.014H7.506c-0.828,0-1.5-0.672-1.5-1.5v-39
        c0-0.829,0.672-1.5,1.5-1.5h30.001c0.829,0,1.5,0.671,1.5,1.5v27.954c-0.948-0.298-1.958-0.46-3.005-0.46
        C30.477,30.013,25.997,34.486,25.997,40.005z M13.618,33.011h4.799c0.884,0,1.601-0.671,1.601-1.499s-0.717-1.499-1.601-1.499
        h-4.799c-0.884,0-1.6,0.671-1.6,1.499S12.734,33.011,13.618,33.011z M13.571,27.016h10.872c0.857,0,1.553-0.672,1.553-1.499
        c0-0.828-0.695-1.499-1.553-1.499H13.571c-0.858,0-1.554,0.671-1.554,1.499C12.018,26.344,12.713,27.016,13.571,27.016z
         M19.506,7.998h-5.99c-0.828,0-1.498,0.67-1.498,1.498s0.67,1.499,1.498,1.499h5.99c0.827,0,1.498-0.671,1.498-1.499
        S20.333,7.998,19.506,7.998z M28.521,17.99H13.518c-0.828,0-1.5,0.679-1.5,1.515c0,0.837,0.672,1.515,1.5,1.515h15.003
        c0.828,0,1.5-0.678,1.5-1.515C30.021,18.669,29.349,17.99,28.521,17.99z"/>
</svg>
