<svg xmlns="http://www.w3.org/2000/svg" width="48" height="48" viewBox="0 0 48 48">
    <path d="M39.5,43.01h-2.49v2.49c0,0.829-0.672,1.5-1.5,1.5h-3c-0.828,0-1.5-0.671-1.5-1.5
        v-2.49h-2.512c-0.829,0-1.501-0.672-1.501-1.5v-3c0-0.828,0.672-1.5,1.501-1.5h2.512v-2.512c0-0.829,0.672-1.501,1.5-1.501h3
        c0.828,0,1.5,0.672,1.5,1.501v2.512h2.49c0.829,0,1.5,0.672,1.5,1.5v3C41,42.338,40.329,43.01,39.5,43.01z M24.01,30.018
        c-4.588,0-12-8.31-12-16.323c0-8.013,5.372-12.695,12-12.695s12.001,4.683,12.001,12.695C36.011,21.708,28.599,30.018,24.01,30.018z
         M32.002,13.829c-0.05,0-0.096,0.01-0.145,0.01c-3.991,0-7.521-1.222-9.958-3.125c0.073,1.505,0.453,3.539,2.131,5.121
        c0,0-4.65-1.056-6.656-3.514c-0.41,0.314-0.842,0.606-1.299,0.865c-0.021,0.273-0.072,0.528-0.072,0.815
        c0,5.223,4.945,11.325,8.007,11.325s8.007-6.103,8.007-11.325C32.017,13.941,32.002,13.89,32.002,13.829z M24.01,32.748
        c1.416,0,2.423-0.163,3.244-0.485c-1.996,1.912-3.244,4.598-3.244,7.58c0,1.875,0.497,3.631,1.357,5.154
        c-0.449,0.001-0.899,0.001-1.357,0.001c-9.391,0-17.004-0.002-17.004-6.148c0-5.038,4.354-8.553,9.947-9.836
        C19.273,31.515,20.081,32.748,24.01,32.748z"/>
</svg>
