<svg xmlns="http://www.w3.org/2000/svg" width="48" height="48" viewBox="0 0 48 48">
    <path d="M45.5,36.003H43v2.498C43,39.329,42.328,40,41.5,40h-3
        c-0.828,0-1.5-0.671-1.5-1.499v-2.498h-2.5c-0.828,0-1.5-0.671-1.5-1.499v-2.998c0-0.828,0.672-1.499,1.5-1.499H37v-2.498
        c0-0.828,0.672-1.499,1.5-1.499h3c0.828,0,1.5,0.671,1.5,1.499v2.498h2.5c0.828,0,1.5,0.671,1.5,1.499v2.998
        C47,35.332,46.328,36.003,45.5,36.003z M30,33.005c0,1.045,0.162,2.052,0.46,2.999H4.5c-2.485,0-4.5-2.014-4.5-4.497V13.519
        c0-2.483,2.015-4.497,4.5-4.497h33c2.485,0,4.5,2.014,4.5,4.497v9.693c-0.646-0.131-1.314-0.2-2-0.2
        C34.478,23.012,30,27.485,30,33.005z M9.006,15.019c-1.651,0-2.99,1.337-2.99,2.987s1.339,2.987,2.99,2.987s2.99-1.337,2.99-2.987
        S10.657,15.019,9.006,15.019z M10.5,27.01h-3c-0.828,0-1.5,0.671-1.5,1.499s0.672,1.499,1.5,1.499h3c0.828,0,1.5-0.671,1.5-1.499
        S11.328,27.01,10.5,27.01z M14.995,15.019c-0.55,0-1.059,0.157-1.502,0.414c0.89,0.518,1.495,1.47,1.495,2.573
        s-0.605,2.056-1.495,2.573c0.443,0.257,0.952,0.414,1.502,0.414c1.66,0,3.006-1.337,3.006-2.987S16.655,15.019,14.995,15.019z
         M21.5,27.01h-3c-0.828,0-1.5,0.671-1.5,1.499s0.672,1.499,1.5,1.499h3c0.828,0,1.5-0.671,1.5-1.499S22.328,27.01,21.5,27.01z"/>
</svg>
