<svg xmlns="http://www.w3.org/2000/svg" width="48" height="48" viewBox="0 0 48 48">
    <path d="M47.257,30.211L30.204,47.258c-0.991,0.99-2.599,0.99-3.591,0l-2.259-2.259H4.518
        c-2.484,0-4.499-2.016-4.499-4.502V7.486C0.02,5,2.034,2.985,4.518,2.985h4.499v4.017H4.034v34.012h16.333l-3.626-3.625
        c-0.991-0.991-0.991-2.598,0-3.589l12.285-12.28V7.002h-5.015V2.985h4.499c2.484,0,4.499,2.015,4.499,4.501v10.052l0.784-0.784
        c0.991-0.991,2.599-0.991,3.591,0l4.713,4.711L22.033,42.278l2.609,2.708l20.113-20.863l2.501,2.499
        C48.248,27.613,48.248,29.221,47.257,30.211z M17.529,20.99h2.999c0.828,0,1.5,0.749,1.5,1.673v1.673c0,0.924-0.672,1.673-1.5,1.673
        h-2.999c-0.828,0-1.5-0.749-1.5-1.673v-1.673C16.03,21.739,16.701,20.99,17.529,20.99z M16.03,13.66c0-0.924,0.671-1.674,1.5-1.674
        h5.998c0.828,0,1.5,0.75,1.5,1.674v1.673c0,0.924-0.672,1.673-1.5,1.673h-5.998c-0.828,0-1.5-0.749-1.5-1.673V13.66z M21.013,2.985
        v4.017V7.39c0,0.882-0.671,1.597-1.5,1.597h-5.999c-0.828,0-1.5-0.715-1.5-1.597V7.002V2.985V2.598c0-0.883,0.671-1.598,1.5-1.598
        h5.999c0.828,0,1.5,0.715,1.5,1.598V2.985z M8.033,13.488c0-0.828,0.671-1.5,1.5-1.5h2.999c0.828,0,1.5,0.672,1.5,1.5v3.002
        c0,0.828-0.671,1.5-1.5,1.5H9.532c-0.828,0-1.5-0.672-1.5-1.5V13.488z M9.532,29.994h2.999c0.828,0,1.5,0.672,1.5,1.501v3.001
        c0,0.828-0.671,1.5-1.5,1.5H9.532c-0.828,0-1.5-0.672-1.5-1.5v-3.001C8.033,30.666,8.704,29.994,9.532,29.994z M8.033,22.492
        c0-0.829,0.671-1.501,1.5-1.501h2.999c0.828,0,1.5,0.672,1.5,1.501v3c0,0.829-0.671,1.501-1.5,1.501H9.532
        c-0.828,0-1.5-0.672-1.5-1.501V22.492z"/>
</svg>
