<svg xmlns="http://www.w3.org/2000/svg" width="48" height="48" viewBox="0 0 48 48">
    <path d="M40.974,13.317l0.031,0.031l-0.33,0.297c-0.282,0.3-0.577,0.605-0.89,0.917
        c-1.072,1.068-1.831,1.7-2.393,2.04l-3.04,2.739l1.972,7.133l0.322-0.321c1.233-1.227,3.185-1.274,4.358-0.105
        c1.175,1.169,1.127,3.111-0.105,4.339l-2.739,2.727l1.749,6.325c0.004,0.02,0.004,0.04,0.009,0.06
        c0.311,1.204,0.163,2.313-0.907,3.263c-0.012,0.01-0.016,0.023-0.026,0.034L36.676,45L26.097,26.776l-5.785,5.212l1.155,7.798
        c0.001,0.003-0.001,0.005,0,0.008c0.116,0.789,0.089,1.391-0.569,2.039l-2.207,2.196l-5.729-9.11l-9.152-5.705l2.218-2.209
        c0.643-0.633,1.244-0.664,2.026-0.549c0.019,0.002,0.029-0.004,0.047-0.002l7.804,1.146l5.253-5.779L3,11.078l2.714-2.814
        c0.005-0.005,0.011-0.005,0.016-0.011c0.805-0.831,1.903-0.68,3.131-0.351l6.089,1.754l2.563-2.551
        c1.232-1.228,3.184-1.275,4.357-0.106c1.175,1.169,1.127,3.112-0.105,4.339l-0.22,0.218l7.085,2.042l2.729-3.002
        c0.342-0.559,0.976-1.314,2.049-2.382c0.312-0.312,0.619-0.605,0.921-0.886l0.299-0.329l0.031,0.031
        c4.602-4.168,7.918-4.816,9.536-3.206C45.812,5.434,45.161,8.736,40.974,13.317z"/>
</svg>
