<svg xmlns="http://www.w3.org/2000/svg" width="48" height="48" viewBox="0 0 48 48">
    <path d="M44.076,25.601l-5.18,3.145l5.18,3.146c1.232,0.748,1.232,1.961,0,2.71
        l-17.85,10.838c-1.232,0.749-3.23,0.749-4.462,0L3.915,34.601c-1.232-0.749-1.232-1.962,0-2.71l5.179-3.146l-5.179-3.145
        c-1.232-0.749-1.232-1.962,0-2.71l5.042-3.062l-5.043-3.005c-1.231-0.733-1.231-1.923,0-2.656L21.75,3.54
        c1.23-0.733,3.228-0.733,4.458,0l17.836,10.627c1.232,0.733,1.232,1.923,0,2.656l-5.027,2.996l5.059,3.071
        C45.309,23.639,45.309,24.852,44.076,25.601z M34.352,22.6l-8.143,4.851c-1.23,0.733-3.228,0.733-4.458,0l-8.119-4.837l-2.671,1.633
        l13.042,7.972l13.043-7.972L34.352,22.6z M34.273,31.552l-8.047,4.888c-1.232,0.748-3.23,0.748-4.462,0l-8.041-4.883l-2.763,1.689
        l13.042,7.973l13.043-7.973L34.273,31.552z"/>
</svg>
