<svg xmlns="http://www.w3.org/2000/svg" width="48" height="48" viewBox="0 0 48 48">
    <path d="M43.5,42h-39C2.015,42,0,39.985,0,37.5v-27C0,8.015,2.015,6,4.5,6h39
        c2.485,0,4.5,2.015,4.5,4.5v27C48,39.985,45.985,42,43.5,42z M41,14.228C41,13.55,40.474,13,39.824,13c0,0-1.646,0-5.877,0
        c-1.636,0-0.949,1.586,0.506,3.344l-9.773,8.692l-5.897-5.508L8.056,30.725c-0.786,0.912-0.732,2.333,0.119,3.173
        c0.354,0.349,0.789,0.543,1.234,0.585c0.626,0.059,1.27-0.183,1.729-0.716l7.61-7.671l5.852,5.25l13.012-11.92
        C39.389,20.836,41,21.591,41,20.368C41,17.132,41,14.228,41,14.228z"/>
</svg>
