<svg xmlns="http://www.w3.org/2000/svg" width="48" height="48" viewBox="0 0 48 48">
    <path d="M42,46H6c-3.313,0-6-2.717-6-6.069V17.173c0-2.241,1.214-4.176,3-5.228V33.99
        C3,35.647,4.343,37,6,37h10.405c0.027,0.017,0.056,0.031,0.095,0.031c0.78,0,1.5,0.346,1.5,1.508v0.263c0,1.772,1.344,3.21,3,3.21h6
        c1.657,0,3-1.438,3-3.21v-0.263c0-1.162,0.721-1.508,1.5-1.508c0.039,0,0.068-0.015,0.095-0.031H42c1.657,0,3-1.353,3-3.01V11.945
        c1.786,1.052,3,2.986,3,5.228v22.758C48,43.283,45.314,46,42,46z M38.615,33.986H9.385C6.963,33.986,5,31.84,5,29.191v-3.197
        c0,2.648,1.963,5.015,4.385,5.015h29.23c2.422,0,4.385-2.366,4.385-5.015v3.197C43,31.84,41.037,33.986,38.615,33.986z M38.5,28h-29
        C7.015,28,5,25.957,5,23.422V6.591C5,4.056,7.015,2,9.5,2h29C40.985,2,43,4.056,43,6.591v16.831C43,25.957,40.985,28,38.5,28z
         M11.99,6.99c-1.66,0-3.006,1.347-3.006,3.009c0,1.661,1.346,3.008,3.006,3.008s3.006-1.347,3.006-3.008
        C14.996,8.337,13.65,6.99,11.99,6.99z M13.5,19.002h-3c-0.828,0-1.5,0.673-1.5,1.502s0.672,1.502,1.5,1.502h3
        c0.829,0,1.5-0.673,1.5-1.502S14.329,19.002,13.5,19.002z M17.996,6.99c-0.551,0-1.06,0.159-1.503,0.417
        c0.89,0.521,1.495,1.48,1.495,2.592c0,1.11-0.605,2.069-1.495,2.591c0.443,0.258,0.952,0.417,1.503,0.417
        c1.66,0,3.006-1.347,3.006-3.008C21.002,8.337,19.656,6.99,17.996,6.99z M21.5,19.002h-3c-0.828,0-1.5,0.673-1.5,1.502
        s0.672,1.502,1.5,1.502h3c0.828,0,1.5-0.673,1.5-1.502S22.328,19.002,21.5,19.002z M29.5,19.002h-3c-0.828,0-1.5,0.673-1.5,1.502
        s0.672,1.502,1.5,1.502h3c0.828,0,1.5-0.673,1.5-1.502S30.328,19.002,29.5,19.002z M37.5,19.002h-3c-0.828,0-1.5,0.673-1.5,1.502
        s0.672,1.502,1.5,1.502h3c0.828,0,1.5-0.673,1.5-1.502S38.328,19.002,37.5,19.002z"/>
</svg>
