<svg xmlns="http://www.w3.org/2000/svg" width="48" height="48" viewBox="0 0 48 48">
    <path d="M43.5,25.995H38v15.504C38,43.984,35.91,46,33.334,46H14.667
        C12.089,46,10,43.984,10,41.499V25.995H4.5c-2.485,0-4.5-2.015-4.5-4.499V6.499C0,4.015,2.015,2,4.5,2h39
        C45.985,2,48,4.015,48,6.499v14.997C48,23.98,45.985,25.995,43.5,25.995z M30,39.51c0,0.829,0.672,1.501,1.5,1.501
        S33,40.339,33,39.51v-3.004c0-0.829-0.672-1.502-1.5-1.502S30,35.677,30,36.506V39.51z M30,29.514c0,0.829,0.672,1.502,1.5,1.502
        s1.5-0.673,1.5-1.502V26.51c0-0.829-0.672-1.501-1.5-1.501S30,25.681,30,26.51V29.514z M31.5,20.988c0.828,0,1.5-0.669,1.5-1.494
        v-2.509h-3v2.509C30,20.319,30.672,20.988,31.5,20.988z M18,40.989c1.657,0,3-1.337,3-2.985s-1.343-2.984-3-2.984s-3,1.336-3,2.984
        S16.343,40.989,18,40.989z M15.418,33.508c0.52-0.894,1.476-1.5,2.582-1.5c1.106,0,2.062,0.606,2.582,1.5
        C20.841,33.062,21,32.552,21,32c0-1.662-1.343-3.009-3-3.009S15,30.338,15,32C15,32.552,15.159,33.062,15.418,33.508z M44,5.989
        l-6.787-0.008C37.217,5.987,37.221,5.994,37.225,6H10.775c0.004-0.006,0.007-0.013,0.012-0.019L4,5.989v16.017h6v-5.185
        c-1.159-0.394-2-1.502-2-2.824c0-1.321,0.841-2.43,2-2.823v-0.163h0.896c0.004,0,0.009-0.001,0.013-0.001h26.182
        c0.005,0,0.009,0.001,0.013,0.001H38v0.162c1.158,0.395,2,1.503,2,2.824c0,1.322-0.842,2.431-2,2.824v5.185h6V5.989z"/>
</svg>
