<svg xmlns="http://www.w3.org/2000/svg" width="48" height="48" viewBox="0 0 48 48">
    <path d="M39.525,22.988l0.008,0.008l-0.135,0.132c-0.023,0.024-0.045,0.053-0.07,0.077
        s-0.053,0.046-0.078,0.069L18.843,43.473c0,0.001-0.001,0.002-0.001,0.002c-0.001,0.001-0.001,0.001-0.002,0.001l-0.682,0.675
        l-0.068-0.068c-3.412,2.696-8.38,2.52-11.54-0.607c-3.163-3.13-3.376-8.069-0.644-11.446l-0.04-0.04l18.438-18.242l0,0
        c0-0.001,0-0.001,0-0.001l0.082-0.081l0.01,0.008c1.135-1.036,2.902-1.018,4.006,0.074c1.117,1.104,1.127,2.885,0.037,4.008
        l0.004,0.004L28.402,17.8l0,0l0,0L16.417,29.659c0.002,0,0.003,0.001,0.005,0.001l-5.74,5.692c-0.009,0.008-0.019,0.014-0.026,0.021
        c-0.009,0.009-0.015,0.019-0.022,0.027l-0.308,0.304l0.031,0.03c-0.81,1.115-0.716,2.675,0.299,3.679
        c1.042,1.03,2.676,1.097,3.809,0.222l0.016,0.015l0.152-0.151c0.034-0.03,0.073-0.053,0.105-0.085
        c0.032-0.031,0.054-0.068,0.084-0.101l5.708-5.627c0.001,0.002,0.003,0.004,0.005,0.007l3.085-3.053l0.003-0.003l0,0l10.927-10.811
        l-0.008-0.008l0.816-0.808l-0.018-0.018c2.498-2.614,2.467-6.73-0.121-9.291c-2.561-2.533-6.656-2.583-9.303-0.189l-0.02-0.021
        l-0.213,0.209c0,0.001,0,0.001-0.002,0.002c0,0.001,0,0.001-0.002,0.002L25,10.378l-0.012-0.011l-9.091,8.995l-0.01-0.01
        c-0.518,0.476-1.205,0.772-1.968,0.772c-1.6,0-2.897-1.283-2.897-2.866c0-0.754,0.301-1.435,0.781-1.946l-0.004-0.004l0.044-0.044
        c0.021-0.021,0.04-0.04,0.062-0.061l8.985-8.891l0.035,0.034c0.208-0.241,0.417-0.481,0.648-0.71c4.903-4.851,12.852-4.851,17.754,0
        C44.16,10.419,44.221,18.123,39.525,22.988z"/>
</svg>
