<svg xmlns="http://www.w3.org/2000/svg" width="48" height="48" viewBox="0 0 48 48">
    <path d="M48,37.429C48,39.953,45.985,42,43.5,42h-39C2.015,42,0,39.953,0,37.429V14.571
        C0,12.047,2.015,10,4.5,10h25.858l3.568-3.427c0.048-0.046,0.097-0.09,0.146-0.131c0.055-0.06,0.109-0.116,0.168-0.173
        c1.518-1.457,3.529-2.263,5.661-2.263s4.145,0.806,5.665,2.267c1.532,1.474,2.392,3.442,2.415,5.546
        c0.007,0.538-0.05,1.065-0.15,1.582C47.931,13.776,48,14.164,48,14.571V37.429z M35.5,34.006h3c0.828,0,1.5-0.675,1.5-1.508
        s-0.672-1.508-1.5-1.508h-3c-0.828,0-1.5,0.675-1.5,1.508S34.672,34.006,35.5,34.006z M26.5,34.006h3c0.828,0,1.5-0.675,1.5-1.508
        s-0.672-1.508-1.5-1.508h-3c-0.828,0-1.5,0.675-1.5,1.508S25.672,34.006,26.5,34.006z M17.5,34.006h3c0.828,0,1.5-0.675,1.5-1.508
        s-0.672-1.508-1.5-1.508h-3c-0.828,0-1.5,0.675-1.5,1.508S16.672,34.006,17.5,34.006z M8.5,34.006h3c0.828,0,1.5-0.675,1.5-1.508
        s-0.672-1.508-1.5-1.508h-3c-0.828,0-1.5,0.675-1.5,1.508S7.672,34.006,8.5,34.006z M10,17.995c-1.664,0-3.013,1.347-3.013,3.008
        S8.336,24.01,10,24.01c1.663,0,3.012-1.346,3.012-3.007S11.663,17.995,10,17.995z M15.991,17.995c-0.549,0-1.057,0.157-1.5,0.413
        c0.895,0.521,1.503,1.481,1.503,2.595c0,1.112-0.608,2.073-1.503,2.594c0.443,0.256,0.951,0.413,1.5,0.413
        c1.663,0,3.012-1.346,3.012-3.007S17.654,17.995,15.991,17.995z M43.949,8.03c-2.237-2.147-5.865-2.147-8.104,0
        c-0.106,0.103-0.184,0.221-0.28,0.329l-0.031-0.03l-1.824,1.749h3.751l0.26-0.248c0-0.001,0-0.001,0.001-0.001V9.828l0.097-0.093
        l0.01,0.01c1.208-1.06,3.077-1.037,4.246,0.084c1.182,1.133,1.195,2.954,0.055,4.111l0.008,0.008l-0.372,0.357l0.003,0.003
        l-4.986,4.784l0,0l-0.01,0.009l-1.409,1.353c-0.001-0.001-0.001-0.003-0.002-0.004l-2.618,2.503
        c-0.007,0.007-0.009,0.017-0.017,0.023c-0.008,0.008-0.019,0.01-0.026,0.017l-0.092,0.089l-0.019-0.018
        c-0.517,0.384-1.253,0.367-1.727-0.088c-0.462-0.441-0.486-1.119-0.121-1.613l-0.029-0.027l0.146-0.141
        c0.002-0.002,0.003-0.004,0.005-0.006s0.004-0.003,0.006-0.004l2.626-2.524c-0.001-0.001-0.002-0.001-0.002-0.001l5.49-5.267
        l-0.004-0.004c0.496-0.497,0.494-1.282-0.016-1.771c-0.503-0.482-1.307-0.486-1.825-0.029l-0.008-0.007l-0.037,0.036l0,0l0,0
        l-8.416,8.073l0.031,0.03c-1.243,1.494-1.162,3.669,0.28,5.053s3.71,1.462,5.268,0.269l0.031,0.03l0.312-0.299c0,0,0,0,0.001,0
        v-0.001l9.332-8.955c0.006-0.005,0.013-0.009,0.018-0.015c0.007-0.005,0.01-0.012,0.016-0.018l0.078-0.075l-0.007-0.008
        C46.177,13.55,46.155,10.146,43.949,8.03z"/>
</svg>
