<svg xmlns="http://www.w3.org/2000/svg" width="48" height="48" viewBox="0 0 48 48">
    <path d="M43.5,42h-39C2.015,42,0,39.985,0,37.5v-27C0,8.015,2.015,6,4.5,6h39
        c2.485,0,4.5,2.015,4.5,4.5v27C48,39.985,45.985,42,43.5,42z M44,10H4v28h40V10z M10.022,33.99H7.008V13.01h3.015V33.99z
         M17.012,30.985h-4.008V13.01h4.008V30.985z M21.983,33.99h-2.956V13.01h2.956V33.99z M29.008,30.985H25V13.01h4.008V30.985z
         M34.999,30.985h-4.008V13.01h4.008V30.985z M40.992,33.99h-3.015V13.01h3.015V33.99z"/>
</svg>
