<svg xmlns="http://www.w3.org/2000/svg" width="48" height="48" viewBox="0 0 48 48">
    <path d="M45,23.018h-0.125l-3.975,16C40.9,41.502,39.154,42,37,42H11
        c-2.154,0-3.9-0.498-3.9-2.982l-3.976-16H3c-2.485,0-3-2.015-3-4.5s0.515-4.5,3-4.5h18.132c0.266-0.289,0.562-0.549,0.912-0.742
        l14.765-7.846c1.795-0.986,2.609-0.247,4.043,1.946c1.142,1.747,2.046,3.435-0.477,4.902l-3.166,1.74H45c2.485,0,3,2.015,3,4.5
        S47.485,23.018,45,23.018z M16,36.932l-2.161-12.754c-0.244-1.326-1.508-1.17-2.483-1.141c-0.975,0.027-1.606-0.077-1.277,1.248
        l2.872,12.732c0.196,0.791,0.89,1.018,1.601,0.996C15.262,37.992,16.146,37.723,16,36.932z M24,16.029
        c-1.098,0-1.988,0.89-1.988,1.988s0.891,1.988,1.988,1.988s1.988-0.89,1.988-1.988S25.098,16.029,24,16.029z M24.006,26.014
        c-1.163,0-2.062-0.102-2.012,0.99l0.423,10.16c0.03,0.65,0.741,0.854,1.589,0.854s1.558-0.203,1.588-0.854l0.424-10.16
        C26.068,25.912,25.168,26.014,24.006,26.014z M36.644,23.037c-0.975-0.029-2.239-0.185-2.482,1.141L32,36.932
        c-0.146,0.791,0.738,1.061,1.449,1.082c0.71,0.021,1.403-0.205,1.6-0.996l2.871-12.732C38.25,22.96,37.619,23.064,36.644,23.037z"/>
</svg>
