<svg xmlns="http://www.w3.org/2000/svg" width="48" height="48" viewBox="0 0 48 48">
    <path d="M41.66,44.991H28.182c-0.137,0.027-0.277,0.024-0.422,0H15.305
        c-0.729,0-1.305-0.576-1.305-1.286v-2.501l-9.125-2.521c-0.629-0.174-1.003-0.837-0.836-1.481l7.871-30.328
        c0.167-0.644,0.812-1.025,1.441-0.852l7.094,1.963C21.637,4.435,25.008,2,28.986,2c4.352,0,7.98,2.905,8.822,7.003h3.852
        c0.727,0,1.316,0.575,1.316,1.285v33.417C42.977,44.415,42.387,44.991,41.66,44.991z M14,12.8L7.989,36.158L14,37.836V12.8z
         M19.356,35.02h10.242c0.76,0,1.375-0.678,1.375-1.513c0-0.836-0.615-1.513-1.375-1.513H19.356c-0.759,0-1.374,0.677-1.374,1.513
        C17.982,34.342,18.597,35.02,19.356,35.02z M31,27.512c0-0.836-0.564-1.513-1.262-1.513H19.243c-0.696,0-1.26,0.677-1.26,1.513
        c0,0.835,0.563,1.512,1.26,1.512h10.496C30.436,29.023,31,28.347,31,27.512z M19.293,20c-0.724,0-1.311,0.674-1.311,1.5
        c0,0.827,0.587,1.5,1.311,1.5h3.368c0.725,0,1.312-0.673,1.312-1.5c0-0.826-0.587-1.5-1.312-1.5H19.293z M35,10.461
        c0-3.805-3.049-5.559-6.066-5.471c-2.527,0.073-5.022,1.451-5.738,3.983l2.781-0.012v0.813c0.01-2.962,6.004-2.901,6.004,0.14
        c0,3.043,0,6.797,0,8.19c0,1.395-1.98,1.338-1.98,0c0-1.337,0-2.851,0-5.913c0-1.7-3.012-1.512-3.012,0c0,3.018,0,2.162,0,6.547
        s8.012,4.346,8.012,0C35,14.393,35,18.032,35,10.461z M37.66,25.999h-1.334c-0.736,0-1.332,0.677-1.332,1.513
        c0,0.835,0.596,1.512,1.332,1.512h1.334c0.736,0,1.334-0.677,1.334-1.512C38.994,26.676,38.396,25.999,37.66,25.999z M37.66,31.994
        h-1.334c-0.736,0-1.332,0.677-1.332,1.513c0,0.835,0.596,1.513,1.332,1.513h1.334c0.736,0,1.334-0.678,1.334-1.513
        C38.994,32.671,38.396,31.994,37.66,31.994z"/>
</svg>
