<svg xmlns="http://www.w3.org/2000/svg" width="48" height="48" viewBox="0 0 48 48">
    <path d="M33.587,32.593c-9.107,9.654-21.658,14.73-25.97,11.3
        c-0.051,0.01-0.094,0.007-0.133-0.017c-0.339-0.208-1.92-1.574-3.021-3.822c-0.054-0.089-0.115-0.17-0.161-0.268l-1.029-2.243
        c-0.543-1.185-0.178-2.566,0.801-3.118l8.871-5.007c0.981-0.554,2.362-0.156,3.105,0.918l1.308,1.89
        c0.001,0.001,0.003,0.001,0.004,0.003c0.545,0.818,2.27,2.534,5.052,0.606c0.063-0.049,0.127-0.094,0.19-0.144
        c0.06-0.044,0.12-0.092,0.181-0.139c1.075-0.834,2.158-1.722,3.24-2.663c2.466-2.443,4.679-4.94,6.596-7.398
        c1.956-2.772,0.189-4.507-0.652-5.057c-0.002-0.001-0.002-0.004-0.004-0.005L30.02,16.11c-1.105-0.75-1.521-2.135-0.958-3.115
        l5.091-8.861c0.561-0.978,1.977-1.336,3.195-0.786l2.307,1.043c0.102,0.046,0.184,0.109,0.276,0.163
        c2.312,1.114,3.722,2.706,3.937,3.046c0.025,0.04,0.029,0.084,0.018,0.136C47.284,11.901,42.68,23.635,33.587,32.593z M17.842,7.413
        l0.01,0.064c0,0-4.264,0.127-4.264,5.628c0,0.276,0,0.58,0,0.899h3.476h0.006c0.385,0,0.73,0.347,0.872,0.874
        c0.045,0.167,0.067,0.342,0.067,0.515c0,0.374-0.103,0.74-0.293,1.007L17.7,16.423c-0.053,0.117-1.259,2.778-2.837,4.995
        c-1.623,2.278-3.594,4.087-3.696,4.18l-0.013,0.018c-0.182,0.256-0.416,0.382-0.65,0.381c-0.233,0.001-0.468-0.125-0.649-0.381
        l-0.013-0.018c-0.103-0.093-2.073-1.901-3.696-4.18c-1.579-2.217-2.784-4.878-2.837-4.995L3.293,16.4
        C3.103,16.134,3,15.768,3,15.394c0-0.173,0.021-0.348,0.067-0.515c0.142-0.527,0.487-0.874,0.872-0.874h0.006h3.669
        c0.087-7.768,6.321-10.124,8.671-10.736C16.6,3.104,16.952,3,17.333,3c1.243,0,2.251,1.002,2.251,2.238
        C19.584,6.299,18.839,7.183,17.842,7.413z"/>
</svg>
