<svg xmlns="http://www.w3.org/2000/svg" width="48" height="48" viewBox="0 0 48 48">
    <path d="M43.5,40h-39C2.015,40,0,37.953,0,35.429V12.571C0,10.047,2.015,8,4.5,8h39
        c2.485,0,4.5,2.047,4.5,4.571v22.857C48,37.953,45.985,40,43.5,40z M8.5,32.006h3c0.828,0,1.5-0.675,1.5-1.508
        s-0.672-1.508-1.5-1.508h-3c-0.828,0-1.5,0.675-1.5,1.508S7.672,32.006,8.5,32.006z M9.999,15.995c-1.663,0-3.012,1.347-3.012,3.008
        s1.349,3.007,3.012,3.007c1.664,0,3.013-1.346,3.013-3.007S11.663,15.995,9.999,15.995z M15.991,15.995
        c-0.549,0-1.057,0.157-1.5,0.413c0.895,0.521,1.503,1.481,1.503,2.595c0,1.112-0.608,2.073-1.503,2.594
        c0.443,0.256,0.951,0.413,1.5,0.413c1.663,0,3.012-1.346,3.012-3.007S17.654,15.995,15.991,15.995z M20.5,28.99h-3
        c-0.828,0-1.5,0.675-1.5,1.508s0.672,1.508,1.5,1.508h3c0.828,0,1.5-0.675,1.5-1.508S21.328,28.99,20.5,28.99z M29.5,28.99h-3
        c-0.828,0-1.5,0.675-1.5,1.508s0.672,1.508,1.5,1.508h3c0.828,0,1.5-0.675,1.5-1.508S30.328,28.99,29.5,28.99z M38.5,28.99h-3
        c-0.828,0-1.5,0.675-1.5,1.508s0.672,1.508,1.5,1.508h3c0.828,0,1.5-0.675,1.5-1.508S39.328,28.99,38.5,28.99z"/>
</svg>
