<svg xmlns="http://www.w3.org/2000/svg" width="48" height="48" viewBox="0 0 48 48">
    <path d="M31.362,24.24l8.9,8.902c0.983,0.982,0.983,2.576,0,3.561l-3.561,3.559
        c-0.982,0.984-2.576,0.984-3.561,0l-8.9-8.9l-8.9,8.9c-0.983,0.984-2.577,0.984-3.561,0l-3.56-3.559
        c-0.983-0.984-0.983-2.578,0-3.561l8.901-8.902l-8.901-8.9c-0.983-0.983-0.983-2.577,0-3.561l3.56-3.561
        c0.983-0.982,2.577-0.982,3.561,0l8.9,8.901l8.9-8.901c0.984-0.982,2.578-0.982,3.561,0l3.561,3.561
        c0.983,0.983,0.983,2.577,0,3.561L31.362,24.24z"/>
</svg>
