<svg xmlns="http://www.w3.org/2000/svg" width="48" height="48" viewBox="0 0 48 48">
    <path d="M44.551,38.447c-0.682-1.494-4.039-9.926-14.23-18.287
        c6.818-6.714,11.652-11.07,11.855-11.231c3.953-3.144,0.664-5.715-1.998-4.707c-4.523,1.711-10.484,4.404-17.362,10.667
        c-3.393-2.043-7.275-3.986-11.743-5.709c-7.431-2.866-10.69,0.474-5.639,3.387c3.77,2.174,7.815,5,11.787,8.036
        c-3.681,4.178-7.56,9.427-11.571,16.081c-4.15,6.885,0.478,9.289,3.747,5.553c5.024-5.744,10.175-11.213,14.867-16.002
        C34.576,34.826,42.742,43,41.51,41.643C44.713,45.238,45.555,40.643,44.551,38.447z"/>
</svg>
