<svg xmlns="http://www.w3.org/2000/svg" width="48" height="48" viewBox="0 0 48 48">
    <path d="M24.003,45.994c-12.148,0-21.997-9.849-21.997-21.997S11.854,2,24.003,2
        S46,11.849,46,23.997S36.151,45.994,24.003,45.994z M34.513,18.15c0.646-0.646,0.646-1.691,0-2.337l-2.337-2.337
        c-0.646-0.646-1.691-0.646-2.337,0l-5.842,5.842l-5.842-5.842c-0.645-0.646-1.69-0.646-2.336,0l-2.337,2.337
        c-0.646,0.646-0.646,1.691,0,2.337l5.842,5.841l-5.842,5.842c-0.646,0.646-0.646,1.691,0,2.337l2.337,2.337
        c0.646,0.646,1.691,0.646,2.336,0l5.842-5.842l5.842,5.842c0.646,0.646,1.691,0.646,2.337,0l2.337-2.337
        c0.646-0.646,0.646-1.691,0-2.337l-5.842-5.842L34.513,18.15z"/>
</svg>
