<svg xmlns="http://www.w3.org/2000/svg" width="48" height="48" viewBox="0 0 48 48">
    <path d="M47.943,29.998c-0.031,0.694-0.103,1.355-0.193,2.002H41v-0.591
        c0-0.774-0.672-1.401-1.5-1.401S38,30.635,38,31.409V32h-4.997l0.004-7.01H33v-9.586l0.004-0.43
        c-0.866-1.052-2.206-2.581-3.635-3.941c-2.328-2.219-5.035-4.062-5.271-4.222l-0.114,0.033l-0.218-0.048l0.015,0.004
        c-0.028,0.02-2.813,1.914-5.248,4.233c-1.424,1.356-2.676,2.882-3.541,3.933L15,15.404v9.598h-0.001v0.758L14.997,27h0.002v3.995H10
        v-0.586c0-0.774-0.671-1.401-1.5-1.401c-0.828,0-1.5,0.627-1.5,1.401v0.586H0.153c-0.03-0.334-0.081-0.651-0.096-0.997H0v-1.333
        C0,27.193,1.343,26,3,26h7.083v-7.06H8.176v-0.061c-0.61,0.114-1.263-0.015-1.737-0.455c-0.751-0.697-0.751-1.827,0-2.523
        c0,0,3.39-4.396,7.361-8.079c3.917-3.635,8.416-6.309,8.416-6.309c0.13-0.121,0.276-0.215,0.429-0.29
        c0.238-0.173,0.732-0.295,1.315-0.295c0.515,0,0.944,0.098,1.207,0.238c0.209,0.081,0.409,0.187,0.582,0.347
        c0,0,4.498,2.674,8.415,6.309c3.971,3.684,7.361,8.079,7.361,8.079c0.75,0.697,0.75,1.827,0,2.523
        c-0.465,0.431-1.102,0.563-1.702,0.461v0.055h-1.907V26H45c1.656,0,3,1.193,3,2.665v1.333H47.943z M7,35.625
        c0,0.773,0.672,1.401,1.5,1.401c0.829,0,1.5-0.628,1.5-1.401V35h5.002c2.21,0,4.002-1.8,4.002-4.005V27H23v13H3.744
        c-1.209-1.424-2.169-3.066-2.797-5H7V35.625z M25,40V27h4v5.135C29,34.267,30.791,36,33,36h5v0.619c0,0.773,0.672,1.401,1.5,1.401
        s1.5-0.628,1.5-1.401V36h5.708C43.518,43.959,34.574,47,24,47c-7.306,0-13.814-1.472-18.2-5H23C24.25,42,25,41.24,25,40z"/>
</svg>
