<svg xmlns="http://www.w3.org/2000/svg" width="48" height="48" viewBox="0 0 48 48">
    <path d="M24,46.984c-11.598,0-21-9.402-21-21C3,16.313,9.547,8.19,18.444,5.752
        C19.335,3.554,21.482,2,24,2s4.665,1.554,5.556,3.752C38.453,8.19,45,16.313,45,25.984C45,37.582,35.598,46.984,24,46.984z
         M26.847,10.961L24,12.858l-2.846-1.897c-5.966,1.124-10.697,5.709-12.05,11.588l2.291,3.436l-2.292,3.438
        c1.315,5.713,5.821,10.202,11.549,11.482L24,38.673l3.348,2.231c5.728-1.28,10.234-5.77,11.549-11.482l-2.291-3.438l2.291-3.436
        C37.543,16.67,32.812,12.085,26.847,10.961z M26.725,27.127c-0.066,0.212-0.186,0.417-0.336,0.581l-7.623,8.346
        c-0.267,0.292-0.586,0.403-0.801,0.279c-0.215-0.124-0.278-0.458-0.159-0.834l3.39-10.717c0.067-0.212,0.186-0.418,0.335-0.582
        l7.623-8.346c0.268-0.292,0.587-0.402,0.801-0.278c0.215,0.124,0.279,0.457,0.16,0.834L26.725,27.127z"/>
</svg>
