<svg xmlns="http://www.w3.org/2000/svg" width="48" height="48" viewBox="0 0 48 48">
    <path d="M42,44.978H27.957c-0.041-0.007-0.083-0.013-0.123-0.013
        c-0.787,0-1.181-0.139-1.887-0.833L3.794,21.99c-0.482-0.498-0.792-0.976-0.792-1.653C3.002,20.33,3,20.323,3,20.317V5.998
        C3,4.342,4.343,3,6,3h22c1.656,0,3,1.342,3,2.998v10.994h11c1.656,0,3,1.343,3,2.999v21.987C45,43.635,43.656,44.978,42,44.978z
         M16.471,28.614c0.183-0.023,0.363-0.055,0.553-0.055c2.536,0,4.592,2.055,4.592,4.589c0,0.17-0.03,0.332-0.049,0.497l2.85,2.813
        c0.204-0.708,0.347-1.442,0.347-2.219c0-4.499-3.611-8.146-8.067-8.146c-0.832,0-1.618,0.161-2.369,0.401L16.471,28.614z M41,25.938
        c-0.166,0.019-0.328,0.051-0.5,0.051c-2.485,0-4.5-2.014-4.5-4.498c0-0.172,0.032-0.336,0.051-0.503L8.749,20.99l3.081,3.042
        c1.473-0.681,3.116-1.049,4.865-1.049c6.238,0,11.295,4.958,11.295,11.257c0,1.69-0.383,3.282-1.043,4.72L29,40.986h7.051
        C36.032,40.818,36,40.653,36,40.479c0-2.483,2.015-4.497,4.5-4.497c0.172,0,0.334,0.031,0.5,0.05V25.938z M34,32.984
        c-1.104,0-2-0.896-2-1.999c0-1.104,0.896-1.999,2-1.999s2,0.895,2,1.999C36,32.089,35.104,32.984,34,32.984z"/>
</svg>
