<svg xmlns="http://www.w3.org/2000/svg" width="48" height="48" viewBox="0 0 48 48">
    <path d="M37.421,37H35v4.5c0,2.485-2.05,4.5-4.579,4.5H10.579C8.05,46,6,43.985,6,41.5v-27
        c0-2.485,2.05-4.5,4.579-4.5H13V5.5C13,3.015,15.05,1,17.579,1h19.842C39.95,1,42,3.015,42,5.5v27C42,34.985,39.95,37,37.421,37z
         M13,34c0-0.191,0.043-0.373,0.109-0.541C13.041,33.149,13,32.83,13,32.5V14h-3v28h21v-5H17.579c-1.387,0-2.614-0.618-3.454-1.576
        C13.482,35.254,13,34.695,13,34z M38,5H17v28h21V5z M22.6,10H27.4c0.884,0,1.6,0.672,1.6,1.5S28.284,13,27.4,13H22.6
        c-0.883,0-1.6-0.672-1.6-1.5S21.717,10,22.6,10z M22.556,15h9.889C33.304,15,34,15.672,34,16.5S33.304,18,32.444,18h-9.889
        C21.696,18,21,17.328,21,16.5S21.696,15,22.556,15z M22.5,20h6c0.828,0,1.5,0.672,1.5,1.5S29.328,23,28.5,23h-6
        c-0.828,0-1.5-0.672-1.5-1.5S21.672,20,22.5,20z M22.556,25h9.889C33.304,25,34,25.672,34,26.5S33.304,28,32.444,28h-9.889
        C21.696,28,21,27.328,21,26.5S21.696,25,22.556,25z"/>
</svg>
