<svg xmlns="http://www.w3.org/2000/svg" width="48" height="48" viewBox="0 0 48 48">
    <path d="M43.5,39.007h-39c-2.485,0-4.5-2.047-4.5-4.572V11.572C0,9.047,2.015,7,4.5,7h39
        c2.485,0,4.5,2.047,4.5,4.572v22.862C48,36.96,45.985,39.007,43.5,39.007z M7.97,19.938c0.494-0.616,1.138-0.924,1.931-0.924
        c0.574,0,1.062,0.174,1.464,0.521s0.665,0.821,0.792,1.422l2.139-0.553c-0.243-0.928-0.608-1.639-1.095-2.134
        c-0.817-0.837-1.882-1.256-3.19-1.256c-1.499,0-2.708,0.533-3.628,1.6s-1.38,2.563-1.38,4.491c0,1.822,0.458,3.26,1.373,4.31
        c0.914,1.051,2.082,1.576,3.503,1.576c1.148,0,2.097-0.307,2.844-0.92s1.281-1.553,1.603-2.816l-2.096-0.719
        c-0.18,0.848-0.477,1.469-0.891,1.864c-0.413,0.395-0.907,0.593-1.481,0.593c-0.778,0-1.411-0.312-1.897-0.933
        c-0.487-0.621-0.73-1.664-0.73-3.129C7.229,21.554,7.476,20.555,7.97,19.938z M22.461,17.214l-2.62,8.571l-2.708-8.571h-2.344
        l3.825,11.581h2.307l3.833-11.581H22.461z M33.217,17.214l-2.621,8.571l-2.708-8.571h-2.344l3.825,11.581h2.307l3.832-11.581H33.217
        z M42.987,26.733h-4.073c0.107-0.2,0.247-0.406,0.42-0.616c0.173-0.211,0.583-0.638,1.23-1.28c0.646-0.643,1.095-1.135,1.343-1.478
        c0.375-0.516,0.648-1.01,0.821-1.481c0.173-0.471,0.259-0.968,0.259-1.488c0-0.917-0.302-1.684-0.905-2.3s-1.433-0.924-2.489-0.924
        c-0.963,0-1.766,0.266-2.408,0.798s-1.024,1.409-1.146,2.631l2.044,0.221c0.039-0.647,0.186-1.111,0.438-1.39
        c0.253-0.279,0.594-0.419,1.021-0.419c0.433,0,0.772,0.133,1.019,0.398c0.245,0.267,0.369,0.646,0.369,1.142
        c0,0.448-0.142,0.901-0.424,1.359c-0.209,0.332-0.776,0.964-1.701,1.896c-1.148,1.153-1.917,2.079-2.307,2.777
        s-0.623,1.437-0.701,2.216h7.19V26.733z"/>
</svg>
