<svg xmlns="http://www.w3.org/2000/svg" width="48" height="48" viewBox="0 0 48 48">
    <path d="M24.01,45.99C11.854,45.99,2,36.143,2,23.995C2,11.848,11.854,2,24.01,2
        S46.02,11.848,46.02,23.995C46.02,36.143,36.166,45.99,24.01,45.99z M24.01,6.998c-9.396,0-17.013,7.61-17.013,16.997
        c0,3.255,0.932,6.287,2.521,8.871c1.314-1.279,2.805-2.377,4.419-3.277l6.909,9.543c1.299,1.793,3.807,2.195,5.601,0.895
        c1.793-1.299,2.195-3.807,0.896-5.6l-5.332-7.363c0.658-0.062,1.324-0.1,1.998-0.1c5.64,0,10.748,2.256,14.492,5.902
        c1.588-2.584,2.521-5.615,2.521-8.871C41.023,14.608,33.406,6.998,24.01,6.998z M34.449,21.902c-1.324,0-2.396-1.074-2.396-2.398
        s1.072-2.398,2.396-2.398c1.326,0,2.398,1.074,2.398,2.398S35.775,21.902,34.449,21.902z M28.486,15.904
        c-1.324,0-2.398-1.074-2.398-2.398s1.074-2.398,2.398-2.398s2.398,1.074,2.398,2.398S29.811,15.904,28.486,15.904z M19.521,15.904
        c-1.324,0-2.398-1.074-2.398-2.398s1.074-2.398,2.398-2.398c1.325,0,2.398,1.074,2.398,2.398S20.845,15.904,19.521,15.904z
         M25.49,36.105c0.521,0.742,0.342,1.77-0.402,2.291c-0.743,0.521-1.77,0.342-2.292-0.4l-7.563-10.777
        c-0.522-0.744-0.342-1.77,0.402-2.291c0.744-0.523,1.77-0.344,2.292,0.4L25.49,36.105z M13.523,21.902
        c-1.325,0-2.398-1.074-2.398-2.398s1.074-2.398,2.398-2.398s2.398,1.074,2.398,2.398S14.848,21.902,13.523,21.902z"/>
</svg>
