<svg xmlns="http://www.w3.org/2000/svg" width="48" height="48" viewBox="0 0 48 48">
    <path d="M43.605,39c-0.191,0-0.405,0-0.612,0c-0.003,3.866-3.132,7-6.993,7
        s-6.99-3.134-6.993-7c-3.313,0-6.754,0-10.014,0C18.99,42.866,15.86,46,12,46s-6.99-3.134-6.993-7c-1.247,0-1.99,0-1.99,0
        S0,38.791,0,34.035C0,32.58,0,31.152,0,29h26V12.211c0-2.143,0.393-3.897,4.5-3s11.539,0.649,13.128,4.47
        C45.506,18.197,48,23.363,48,27.13c0,1.956,0,7.183,0,7.183S48.622,39,43.605,39z M12,36c-1.652,0-2.993,1.345-2.993,3.004
        s1.341,3.004,2.993,3.004s2.993-1.345,2.993-3.004S13.652,36,12,36z M36,42.008c1.652,0,2.993-1.345,2.993-3.004S37.652,36,36,36
        s-2.992,1.345-2.992,3.004S34.348,42.008,36,42.008z M38.857,15h-6.286C31.703,15,31,15.672,31,16.5v6c0,0.828,0.703,1.5,1.571,1.5
        H42L38.857,15z M19.934,26H3.066C1.373,26,0,24.627,0,22.934V6.067C0,4.373,1.373,3,3.066,3h16.867C21.627,3,23,4.373,23,6.067
        v16.867C23,24.627,21.627,26,19.934,26z M5,8v9.012L14.012,8H5z M18,12.005L9.005,21H18V12.005z"/>
</svg>
