<svg xmlns="http://www.w3.org/2000/svg" width="48" height="48" viewBox="0 0 48 48">
    <path d="M38.991,21.507c0,0.868-0.67,1.479-1.496,1.479h-2.994
        c-0.826,0-1.496-0.703-1.496-1.571v-7.857c0-0.868,0.67-1.572,1.496-1.572c0.827,0,1.497,0.704,1.497,1.572L35.991,20h1.535
        C38.354,20,38.991,20.639,38.991,21.507z M20.481,22.985c-0.828,0-1.5-0.703-1.5-1.571v-7.857c0-0.868,0.672-1.572,1.5-1.572
        c0.829,0,1.813,0.704,2.199,1.572l2.303,5.179l2.302-5.179c0.386-0.868,1.371-1.572,2.199-1.572c0.829,0,1.501,0.704,1.501,1.572
        v7.857c0,0.868-0.672,1.571-1.501,1.571c-0.828,0-1.5-0.703-1.5-1.571v-2.679c0,0-1.222,4.25-3.04,4.25s-2.962-4.25-2.962-4.25
        v2.679C21.982,22.282,21.311,22.985,20.481,22.985z M45.987,27.115c0,2.733-0.31,3.881-1.934,5.633l-9.462,9.462
        c-2.375,2.181-3.235,2.775-6.174,2.775l-0.001,0.001h-12.42c-1.656,0-3-1.343-3-2.999V26h3.993v15.001h11.006l0,0
        c1.66-0.001,3.006-1.344,3.006-3l0,0v-4.937c0-1.701,1.377-3.08,3.075-3.08h4.603c0.102,0.011,0.201,0.031,0.306,0.031
        c1.652,0,2.991-1.344,2.991-3c0-0.003-0.001-0.005-0.001-0.007V6.998H16.99v2.017h-3.993V6.012c0-1.656,1.344-2.998,3-2.998H43
        c1.657,0,3,1.342,3,2.998v20.975C45.998,27.031,45.987,27.067,45.987,27.115z M17.555,13.583c0,0.865-0.712,1.567-1.551,1.567v6.269
        c0,0.865-0.649,1.566-1.489,1.566c-0.839,0-1.52-0.701-1.52-1.566V15.15c-0.84,0-1.521-0.702-1.521-1.567s0.681-1.567,1.521-1.567
        h3.04C16.874,12.016,17.555,12.718,17.555,13.583z M8.56,22.985c-0.839,0-1.551-0.701-1.551-1.566L6.991,20h-3L4,21.419
        c0,0.865-0.649,1.566-1.489,1.566c-0.839,0-1.52-0.701-1.52-1.566v-7.836c0-0.865,0.618-1.567,1.457-1.567
        c0.84,0,1.552,0.702,1.552,1.567L3.991,17H6.96l0.049-3.417c0-0.865,0.618-1.567,1.457-1.567c0.84,0,1.521,0.702,1.521,1.567v7.836
        C9.986,22.284,9.399,22.985,8.56,22.985z"/>
</svg>
