<svg xmlns="http://www.w3.org/2000/svg" width="48" height="48" viewBox="0 0 48 48">
    <path d="M26.484,23.016c-0.83,0-1.502-0.706-1.502-1.576v-6.454H24.73
        c-0.968,0-1.752-0.672-1.752-1.5s0.784-1.5,1.752-1.5h1.75c0.001,0,0.003-0.001,0.004-0.001s0.002,0.001,0.003,0.001h1.748
        c0.968,0,1.752,0.672,1.752,1.5s-0.784,1.5-1.752,1.5h-0.249v6.454C27.986,22.31,27.313,23.016,26.484,23.016z M21.231,22.827
        c-0.88,0.395-1.7,0.035-2.214-0.805l-1.021-1.669l-1.016,1.652c-0.515,0.839-1.337,1.198-2.22,0.803
        c-0.882-0.395-0.973-1.394-0.458-2.232l1.919-3.122l-1.856-3.032c-0.515-0.84-0.527-1.841,0.354-2.236
        c0.88-0.396,1.804-0.035,2.317,0.804l0.963,1.572l0.967-1.573c0.515-0.839,1.44-1.198,2.322-0.803
        c0.883,0.395,0.869,1.394,0.354,2.232l-1.869,3.043l1.915,3.13C22.203,21.43,22.112,22.432,21.231,22.827z M41.986,27.115
        c0,2.733-0.309,3.881-1.933,5.633l-9.461,9.461c-2.375,2.182-3.235,2.776-6.175,2.776l-0.001,0.001h-12.42c-1.656,0-3-1.343-3-2.999
        V26h3.993v15.001h11.006l0,0c1.66,0,3.006-1.344,3.006-3l0,0v-4.937c0-1.701,1.377-3.08,3.075-3.08h4.603
        c0.102,0.011,0.201,0.031,0.306,0.031c1.652,0,2.99-1.344,2.99-3c0-0.003,0-0.005,0-0.007V6.998H12.99v2.017H8.997V6.012
        c0-1.656,1.344-2.998,3-2.998H39c1.657,0,3,1.342,3,2.998v20.973C41.998,27.03,41.986,27.067,41.986,27.115z M9.492,11.984
        c0.001,0,0.002,0.001,0.003,0.001h1.812c0.933,0,1.689,0.672,1.689,1.5s-0.757,1.5-1.689,1.5h-0.313v6.428
        c0,0.867-0.673,1.571-1.502,1.571S7.99,22.28,7.99,21.413v-6.428H7.928c-0.934,0-1.689-0.672-1.689-1.5s0.756-1.5,1.689-1.5h1.562
        C9.49,11.985,9.491,11.984,9.492,11.984z"/>
</svg>
