<svg xmlns="http://www.w3.org/2000/svg" width="48" height="48" viewBox="0 0 48 48">
    <path d="M28.137,13.667l2.356,6.793l2.356-6.793c0.334-0.865,1.611-0.649,2.329-0.649
        s1.029,0.701,0.695,1.566l-3.027,7.835c-0.334,0.865-1.188,1.566-1.905,1.566c-0.18,0-0.717,0-0.896,0
        c-0.719,0-1.571-0.701-1.906-1.566l-3.026-7.835c-0.334-0.865-0.023-1.566,0.695-1.566C26.525,13.018,27.802,12.802,28.137,13.667z
         M16.149,16.467c0-1.889,1.734-3.467,3.842-3.467h2.419c0.843,0,1.596,0.78,1.596,1.643c0,0.863-0.861,1.357-1.704,1.357h-3.311v1h1
        c2.107,0,4.005,1.445,4.005,3.567c0,1.888-1.924,3.418-4.031,3.418h-2.289c-0.843,0-1.526-0.699-1.526-1.562
        c0-0.862,0.538-1.423,1.381-1.423h3.461v-1C20.991,20,16.149,20.526,16.149,16.467z M41.987,27.115c0,2.733-0.31,3.881-1.934,5.633
        l-9.462,9.462c-2.375,2.181-3.235,2.775-6.174,2.775l-0.001,0.001h-12.42c-1.656,0-3-1.343-3-2.999V26h3.993v15.001h11.006l0,0
        c1.66-0.001,3.006-1.344,3.006-3l0,0v-4.937c0-1.701,1.377-3.08,3.075-3.08h4.603c0.102,0.011,0.201,0.031,0.306,0.031
        c1.652,0,2.991-1.344,2.991-3c0-0.003-0.001-0.005-0.001-0.007V6.998H12.99v2.017H8.997V6.012c0-1.656,1.344-2.998,3-2.998H39
        c1.657,0,3,1.342,3,2.998v20.975C41.998,27.031,41.987,27.067,41.987,27.115z M13.097,13.005c0.843,0,1.526,0.743,1.526,1.606
        c0,0.862-0.684,1.39-1.526,1.39h-1.612c-0.844,0-1.526,0.699-1.526,1.562v1.864c0,0.863,0.683,1.562,1.526,1.562h1.612
        c0.843,0,1.526,0.57,1.526,1.433c0,0.863-0.684,1.606-1.526,1.606H11.57c-2.529,0-4.579-2.143-4.579-4.73v-1.562
        c0-2.589,2.05-4.731,4.579-4.731H13.097z"/>
</svg>
