<svg xmlns="http://www.w3.org/2000/svg" width="48" height="48" viewBox="0 0 48 48">
    <path d="M29.603,22.985c-0.885,0-1.602-0.702-1.602-1.569V13.57
        c0-0.867,0.717-1.569,1.602-1.569h4.806c0.885,0,1.603,0.577,1.603,1.444c0,0.866-0.657,1.541-1.542,1.541H31v2h2
        c0.885,0,1.408,0.644,1.408,1.511c0,0.866-0.523,1.489-1.408,1.489h-2v1.406C31,22.26,30.487,22.985,29.603,22.985z M21.503,12.001
        c2.486,0,4.502,2.107,4.502,4.708v1.569c0,2.6-2.016,4.707-4.502,4.707h-3.002c-0.829,0-1.501-0.702-1.501-1.569V13.57
        c0-0.867,0.672-1.569,1.501-1.569H21.503z M19.992,19.972h1.511c0.835,0,1.511-0.745,1.511-1.663v-1.663
        c0-0.918-0.676-1.662-1.511-1.662h-1.511V19.972z M41.996,27.102c0,2.733-0.31,3.881-1.934,5.632L30.6,42.197
        c-2.374,2.18-3.234,2.774-6.173,2.774l-0.001,0.001h-12.42c-1.656,0-3-1.343-3-2.999V25.986h3.993v15.001h11.006l0,0
        c1.66-0.001,3.006-1.344,3.006-3l0,0v-4.937c0-1.701,1.377-3.08,3.076-3.08h4.602c0.102,0.011,0.201,0.031,0.306,0.031
        c1.652,0,2.991-1.344,2.991-3c0-0.003-0.001-0.005-0.001-0.007V6.984H12.999v2.017H9.006V5.998c0-1.656,1.344-2.998,3-2.998h27.003
        c1.657,0,3,1.342,3,2.998v20.975C42.007,27.018,41.996,27.054,41.996,27.102z M15.005,15.924c0,2.167-1.896,4.062-4.005,4.062H9
        l-0.009,1.43c0,0.867-0.621,1.569-1.464,1.569C6.684,22.985,6,22.283,6,21.416V13.57c0-0.867,0.684-1.569,1.527-1.569h3.816
        C13.452,12.001,15.005,13.758,15.005,15.924z M9,16.986h3v-2H9V16.986z"/>
</svg>
