<svg xmlns="http://www.w3.org/2000/svg" width="48" height="48" viewBox="0 0 48 48">
    <path d="M37.929,17.928h-2.512c-1.579-0.081-2.866-0.312-3.405-1.786
        c-0.104-1.766-0.684-4.331-4.012-5.246v11.722c5.395,1.488,9.988,3.453,11.668,7.227C42.445,36.079,38.137,43.35,28,44.779v1.023
        C28,47.425,26.262,48,24.326,48C22.391,48,21,47.425,21,45.803v-1c-8.706-1.312-11.287-7.738-11.936-11.682
        C8.692,30.439,10,30.019,11.575,30h0.262c0.326,0.004,0.659,0.02,0.988,0.033c2.135,0.09,3.2,0.912,3.283,2.919
        c0.003,0.065,0.019,0.108,0.039,0.143c0.302,1.832,1.573,3.964,4.853,4.876V27.547C13.526,24.858,9.449,20.86,9.144,16.543
        C8.9,13.106,10.666,5.475,21,4.007V3.289C21,1.666,22.391,1,24.326,1C26.262,1,28,1.666,28,3.289v0.709
        c7.646,1.212,10.645,6.584,11.941,10.292c0.005,0.023,0.006,0.041,0.013,0.067C40.624,16.935,39.42,17.729,37.929,17.928z M28,38.29
        c4.713-0.528,5.6-2.561,4.246-6.071c-0.361-0.938-1.857-1.743-4.246-2.535V38.29z M21,11.039c-2.751,0.707-4.505,2.173-4.606,4.256
        c-0.082,1.689,1.017,3.762,4.606,5.307V11.039z"/>
</svg>
