<svg xmlns="http://www.w3.org/2000/svg" width="48" height="48" viewBox="0 0 48 48">
    <path d="M37,42.978H11c-3.313,0-6-2.721-6-6.077v-5.553v-1.738v-0.993
        c0-0.355,0.269-0.643,0.6-0.643h4.8c0.332,0,0.6,0.287,0.6,0.643v0.993v1.738v5.64h26v-5.64v-1.738v-0.993
        c0-0.355,0.269-0.643,0.6-0.643H42.4c0.331,0,0.6,0.287,0.6,0.643v0.993v1.738V36.9C43,40.257,40.313,42.978,37,42.978z
         M30.552,25.449c-1.97,2.36-4.278,4.318-5.18,5.051c-0.399,0.325-0.886,0.488-1.371,0.488c-0.484,0-0.969-0.162-1.369-0.486
        c-1.122-0.909-3.287-2.772-5.18-5.042c-2.071-2.48-3.711-5.387-4.164-6.218c-0.371-0.681-0.358-1.508,0.035-2.177
        c0.393-0.668,1.106-1.077,1.878-1.077h2.794V7.997C17.996,6.342,19.34,5,20.998,5h6.004c1.658,0,3.002,1.342,3.002,2.997v7.991
        h2.795c0.771,0,1.484,0.409,1.877,1.076s0.407,1.494,0.037,2.175C34.266,20.062,32.645,22.941,30.552,25.449z"/>
</svg>
