<svg xmlns="http://www.w3.org/2000/svg" width="48" height="48" viewBox="0 0 48 48">
    <path d="M43.844,16.102c-0.017,0.016-0.046,0.017-0.063,0.032l-2.766,2.772
        c-0.03,0.037-0.038,0.092-0.072,0.126c-0.033,0.034-0.088,0.042-0.126,0.071l-3.626,3.634c-0.02,0.025-0.019,0.066-0.041,0.089
        c-0.021,0.021-0.062,0.021-0.088,0.04L19.735,40.23c-0.004,0.004-0.012,0.008-0.016,0.012c-0.692,0.703-2.159,1.686-3.404,2.168
        l-6.053,2.062l-5.721,1.225c0.001-0.012,0-0.021,0-0.031c-0.58,0.051-1.157-0.117-1.581-0.545s-0.592-1.014-0.542-1.6
        c-0.01,0-0.02-0.002-0.031,0l1.294-6.117l2.314-6.662c0.254-0.652,0.506-1.045,0.883-1.465L31.931,4.192
        c0.003-0.003,0.003-0.009,0.006-0.012c1.021-1.022,4.305-4.996,10.584,1.287S44.864,15.08,43.844,16.102z M8.199,32.104
        c-1.08,2.561-2.382,6.83-2.382,6.83l3.449,3.449c0,0,4.402-1.436,6.94-2.508c1.016-0.428,1.764-1.17,1.764-1.17
        c-0.685-1.525-1.935-3.367-3.593-5.025c-1.583-1.582-3.36-2.805-4.861-3.508C9.516,30.172,8.862,30.533,8.199,32.104z M30.829,9.638
        L12.768,27.703c0,0,0.682,0.273,1.354,0.662c0.7,0.404,1.392,0.928,1.392,0.928l17.917-17.921c0,0-0.668-0.724-1.371-1.192
        C31.472,9.789,30.829,9.638,30.829,9.638z M40.4,7.653c-2.083-2.084-4.491-3.052-5.4-2.179l-0.005-0.006l-2.146,2.15
        c1.346,0.721,2.852,1.836,4.301,3.285s2.562,2.954,3.283,4.3l2.097-2.108c0.011-0.01,0.028-0.013,0.038-0.023
        c0.012-0.011,0.015-0.028,0.025-0.04l0.005-0.005l-0.001-0.002C43.429,12.097,42.465,9.717,40.4,7.653z"/>
</svg>
