<svg xmlns="http://www.w3.org/2000/svg" width="48" height="48" viewBox="0 0 48 48">
    <path d="M46.807,18.692L45,19.454c1,1.546,1,4.841,1,4.841l-0.014,0.021L46,27.25
        l1.414,5.894c0.051,0.119,0.086,0.238,0.086,0.356c0,0.828-1.344,1.5-3,1.5s-3-0.672-3-1.5c0-0.118,0.033-0.237,0.086-0.356
        L43,27.25v-2.998h0.004c-0.014-2.364,0.717-4.244-5.383-5.886c-0.07-0.019-0.109-0.048-0.174-0.069l-10.902-2.669
        c-0.129-0.017-0.275-0.046-0.461-0.106c-0.139-0.045-0.268-0.077-0.389-0.102l-0.033-0.008c-1.934-0.378-1.678,1.61-1.678,1.61
        s-0.023-0.017-0.043-0.03l0.003,0.097l12.626,3.306c1.271,0.345,2.055,0.589,2.562,1.176l-14.371,5.389
        c-0.009-0.004-0.021-0.006-0.029-0.009c-0.222,0.083-0.468,0.144-0.747,0.144s-0.525-0.061-0.747-0.144
        c-0.01,0.004-0.021,0.006-0.031,0.01L1.161,18.692c-1.589-0.624-1.399-1.832-0.315-2.258c0.01-0.004,0.014-0.012,0.022-0.016
        l22.345-8.292c0.008,0.003,0.018,0.004,0.026,0.008C23.459,8.057,23.706,8,23.986,8s0.526,0.057,0.747,0.134
        c0.008-0.003,0.017-0.004,0.024-0.007L47.1,16.418c0.01,0.004,0.014,0.012,0.023,0.016C48.207,16.86,48.396,18.068,46.807,18.692z
         M11.024,32.748l0.002-6.312l0.01,0.049l0.012,0.004c0.052-0.804,2.811-0.779,6.392,0.684c3.438,1.405,6.226,3.445,6.493,4.355
        l0.052,0.021l0.052-0.021c0.268-0.91,3.056-2.95,6.494-4.355c3.58-1.463,6.34-1.487,6.393-0.684l0.01-0.004l0.012-0.049v6.312
        c0,0.001,0,0.002,0,0.002c0,0.001,0,0.002,0,0.002v0.684h-0.055C36.34,37.67,30.777,41,23.984,41c-6.794,0-12.356-3.33-12.905-7.564
        h-0.055v-0.684c0,0,0-0.001,0-0.002C11.024,32.75,11.024,32.749,11.024,32.748z"/>
</svg>
