<svg xmlns="http://www.w3.org/2000/svg" width="48" height="48" viewBox="0 0 48 48">
    <path d="M45.203,31.977c-0.189,2.428-0.461,4.83-0.824,7.172
        c-0.262,1.602-1.846,3.271-3.477,3.625c-7.859,1.636-15.945,1.636-23.805,0c-1.631-0.354-3.215-2.023-3.476-3.625
        c-0.161-1.035-0.296-2.094-0.422-3.148H1.529C0.683,36,0,35.532,0,34.506v-21c0-0.828,0.685-1.5,1.529-1.5h11.67
        c0.126-1.056,0.261-2.107,0.422-3.143c0.261-1.603,1.845-3.271,3.476-3.625c7.936-1.65,15.869-1.65,23.805,0
        c1.631,0.354,3.215,2.022,3.477,3.625c0.262,1.686,0.458,3.402,0.627,5.137H38c-4.144,0-6,3.399-6,7.558h0.006
        c0.01,0.8,0.655,1.446,1.455,1.446c0.799,0,1.444-0.646,1.455-1.446H35c0-2.377,1.064-4.527,3.432-4.527
        c0,0,3.352-0.001,6.838-0.002c0.001,0.004,0.002,0.009,0.002,0.014C46.806,17.225,48,18.523,48,20.117v8.778
        C48,30.512,46.77,31.824,45.203,31.977z M15,16H4v16.006h11V16z M42.01,21.694c-1.278,0-2.314,1.031-2.314,2.304
        c0,1.274,1.036,2.305,2.314,2.305c1.277,0,2.313-1.031,2.313-2.305C44.323,22.725,43.287,21.694,42.01,21.694z M12,22H7v-2.995h5V22
        z M12,29H7v-2.994h5V29z"/>
</svg>
