<svg xmlns="http://www.w3.org/2000/svg" width="48" height="48" viewBox="0 0 48 48">
    <path d="M45.831,12.228L40.947,28.01c-0.674,2.18-2.985,3.398-5.163,2.725l-5.776-1.789
        v-4.183c0-3.75-3.038-6.79-6.785-6.79h-5.094l4.045-13.074c0.674-2.179,2.985-3.399,5.163-2.724l15.771,4.887
        C45.286,7.736,46.505,10.049,45.831,12.228z M27.896,5.115c-1.584-0.491-3.265,0.396-3.755,1.981
        c-0.491,1.584,0.396,3.267,1.979,3.758c1.583,0.491,3.265-0.396,3.755-1.981C30.366,7.288,29.48,5.605,27.896,5.115z M32.574,13.208
        c-1.584-0.491-3.266,0.396-3.755,1.981c-0.491,1.585,0.396,3.268,1.979,3.758c1.583,0.49,3.265-0.396,3.755-1.981
        C35.044,15.382,34.157,13.699,32.574,13.208z M36.917,22.127c-1.583-0.491-3.265,0.396-3.755,1.981
        c-0.49,1.583,0.396,3.267,1.979,3.757c1.584,0.49,3.266-0.396,3.756-1.98C39.388,24.3,38.501,22.617,36.917,22.127z M27,25.171
        v16.686C27,44.161,25.134,46,22.831,46H6.158C3.855,46,2,44.161,2,41.856V25.171C2,22.868,3.855,21,6.158,21h16.673
        C25.134,21,27,22.868,27,25.171z M21.005,42.997c1.655,0,2.997-1.342,2.997-3c0-1.656-1.342-2.998-2.997-2.998
        s-2.997,1.342-2.997,2.998C18.008,41.655,19.35,42.997,21.005,42.997z M8.015,24c-1.655,0-2.997,1.343-2.997,3s1.342,3,2.997,3
        c1.656,0,2.998-1.344,2.998-3S9.671,24,8.015,24z M8.015,36.999c-1.655,0-2.997,1.342-2.997,2.998c0,1.658,1.342,3,2.997,3
        c1.656,0,2.998-1.342,2.998-3C11.013,38.341,9.671,36.999,8.015,36.999z M14.496,30.487c-1.67,0-3.023,1.354-3.023,3.025
        c0,1.67,1.354,3.025,3.023,3.025s3.023-1.355,3.023-3.025C17.52,31.841,16.166,30.487,14.496,30.487z M18.008,26.999
        c0,1.656,1.342,3,2.997,3s2.997-1.344,2.997-3s-1.342-3-2.997-3S18.008,25.343,18.008,26.999z"/>
</svg>
