<svg xmlns="http://www.w3.org/2000/svg" width="48" height="48" viewBox="0 0 48 48">
    <path d="M41.4,16.961c-1.228,1.164-2.544,1.847-3.614,1.847
        c-1.069,0-2.387-0.724-3.613-1.887l-1.662,0.012c-0.688-0.998-2.215-2.523-3.174-3.202c0.393-1.942,0.646-4.372,1.161-6.528
        c0.047-0.285,0.128-0.543,0.199-0.811c0.101-0.401,0.198-0.773,0.288-1.083c0.01-0.036,0.023-0.006,0.036,0.052
        c1.162-2.777,3.747-4.341,6.765-4.341s5.604,1.564,6.766,4.341c0.014-0.058,0.025-0.088,0.036-0.052
        c0.089,0.31,0.187,0.682,0.288,1.083c0.071,0.267,0.152,0.525,0.199,0.811c0.863,3.606,1.976,9.75,1.976,9.75L41.4,16.961z
         M42.573,7.218c-1.316,1.132-2.967,1.837-4.787,1.837s-3.471-0.706-4.787-1.837c-0.137,0.516-0.233,1.063-0.233,1.675
        c0,3.373,3.101,7.068,5.021,7.068s5.021-3.696,5.021-7.068C42.808,8.281,42.712,7.733,42.573,7.218z M32.82,24.272
        c0,5.84-5.44,11.897-8.81,11.897c-3.368,0-8.81-6.058-8.81-11.897c0-5.841,3.944-9.254,8.81-9.254S32.82,18.432,32.82,24.272z
         M29.878,24.256c-0.037,0-0.07,0.007-0.106,0.007c-3.675,0-6.841-1.444-8.522-3.556c-0.754,1.248-1.785,2.315-3.063,3.061
        c-0.016,0.208-0.052,0.4-0.052,0.618c0,3.958,3.63,8.294,5.877,8.294c2.248,0,5.878-4.336,5.878-8.294
        C29.889,24.34,29.878,24.301,29.878,24.256z M10.002,19.027c-2.674,0-6.994-5.156-6.994-10.129c0-4.972,3.131-7.878,6.994-7.878
        c3.863,0,6.995,2.906,6.995,7.878C16.997,13.871,12.677,19.027,10.002,19.027z M10.019,17c1.101,0,1.993-1.059,1.993-1.629
        s-0.892-0.302-1.993-0.302c-1.101,0-1.993-0.269-1.993,0.302S8.918,17,10.019,17z M14.731,8.989c0-0.029-0.006-0.054-0.007-0.083
        C14.621,8.91,14.523,8.93,14.418,8.93c-2.819,0-5.246-1.188-6.534-2.925C7.257,7.108,6.384,8.04,5.3,8.658
        C5.295,8.771,5.274,8.873,5.274,8.989c0,1.167,0.356,2.364,0.878,3.445c1.033,0.428,2.47,1.235,3.906,1.235
        c1.395,0,2.797-0.817,3.827-1.304C14.388,11.302,14.731,10.132,14.731,8.989z M9.872,21.179c0.927,0,2.248-0.29,3.313-1.158
        c-0.311,1.154-0.526,2.384-0.526,3.759c0,1.064,0.151,2.133,0.4,3.185c-0.941,0.032-2.129,0.038-3.188,0.038
        c-4.9,0-8.872-0.002-8.872-3.162c0-2.591,2.272-3.636,5.19-4.296C7.401,20.831,8.783,21.179,9.872,21.179z M19.031,36.214
        c1.638,1.792,2.207,3.053,4.979,3.053c2.768,0,3.335-1.256,4.97-3.043c3.946,0.925,7.028,2.771,7.028,6.371
        c0,4.404-5.371,4.405-11.998,4.405c-6.626,0-11.999-0.001-11.999-4.405C12.012,38.984,15.084,37.134,19.031,36.214z M35.362,23.78
        c0-1.338-0.17-2.571-0.476-3.7c1.087,0.822,1.956,1.099,2.899,1.099c1.132,0,2.567-0.345,3.826-1.627
        c3.037,0.664,5.41,1.706,5.41,4.289c0,3.16-4.135,3.162-9.236,3.162c-1.101,0-1.861-0.006-2.84-0.038
        C35.204,25.913,35.362,24.845,35.362,23.78z"/>
</svg>
