<svg xmlns="http://www.w3.org/2000/svg" width="48" height="48" viewBox="0 0 48 48">
    <path d="M46.078,9.356c-0.012,0.019-0.016,0.035-0.025,0.054l-1.424,2.506
        c-0.016,0.022-0.031,0.032-0.047,0.059c-0.947,1.675-2.1,1.286-3.168,0.217c-0.113-0.113-0.207-0.154-0.289-0.156
        c-2.678-2.149-6.057-3.444-9.746-3.444c-5.602,0-10.507,2.964-13.299,7.415h21.454c0.539,0,1.039,0.304,1.311,0.797
        c0.27,0.493,0.271,1.102,0.002,1.596l-2.543,4.791c-0.27,0.496-0.965,0.803-1.506,0.803H15.656c-0.005,0.17-0.025,0.336-0.025,0.508
        c0,0.851,0.085,1.679,0.212,2.493h17.706c0.549,0,1.057,0.305,1.334,0.8c0.273,0.495,0.078,1.106-0.197,1.603l-2.689,4.706
        c-0.275,0.498-1.082,0.91-1.635,0.91H19.579c2.886,3.304,7.097,5.397,11.8,5.397c3.199,0,6.154-0.983,8.633-2.642
        c0.043-0.023,0.078-0.029,0.125-0.062c1.971-1.4,5.479-3.678,5.5,0.686v2.656c0,0.004,0,0.005,0,0.008
        c0,1.236-0.436,2.302-1.293,2.923C40.639,46.505,36.188,48,31.379,48c-9.102,0-16.962-5.293-20.784-12.988H1.542
        c-0.584,0-1.117-0.343-1.379-0.887c-0.261-0.543-0.205-1.193,0.146-1.679l3.53-4.812c0.291-0.404,0.748-0.642,1.233-0.642H8.25
        c-0.086-0.82-0.134-1.65-0.134-2.493c0-0.172,0.022-0.338,0.025-0.508H3.58c-0.572,0-1.095-0.341-1.353-0.88
        c-0.256-0.541-0.204-1.188,0.139-1.673l2.766-4.791c0.285-0.404,0.734-0.643,1.213-0.643h3.363C13.082,7.23,21.501,1,31.379,1
        C36.9,1,41.945,2.967,45.926,6.217C46.814,7.149,46.855,8.16,46.078,9.356z"/>
</svg>
