<svg xmlns="http://www.w3.org/2000/svg" width="48" height="48" viewBox="0 0 48 48">
    <path d="M42,47.955V7.999L42.012,8V5H42V4.997L37.994,5H17.007l20.987,2.518V48h-21.57
        c-2.45,0-4.436-2.036-4.436-4.548v-0.589c-5.847,0.033-8.714-4.354-10.06-7.476C-0.144,30.581,3.44,30.46,3.44,30.46l5.861,2.175
        c0,0,2.306-3.216,2.492-4.058c0.155-0.698-1.679-0.536-2.543-0.519c-2.854,0.057-3.037-3.027-2.682-5.144
        c0.378-2.26,2.746-4.905,5.432-6.606V5.549C12,3.036,13.974,1,16.424,1h25.14C44.014,1,46,3.036,46,5.549v37.903
        C46,45.811,44.242,47.727,42,47.955z M26.062,10.066c-1.898-0.411-3.785,0.844-4.217,2.803c-0.432,1.96,0.758,3.883,2.654,4.294
        c1.898,0.412,3.785-0.843,4.217-2.803C29.146,12.401,27.959,10.479,26.062,10.066z M20.979,37.803l-0.143,9.566l1.549-1.21
        c0,0,2.973-7.373,2.143-9.531S18.129,31.2,18.129,31.2s1.093-1.159,2.015-2.28c0.948-1.154,2.196-3.967,2.196-3.967
        s2.867,2.299,4.756,2.619c2.48,0.42,7.086-3.66,7.086-3.66l-0.354-1.989l-6.312,2.778l-4.012-5.457c0,0-1.535,0.433-3.965,2.562
        c-2.923,2.561-8.342,8.508-4.005,12.52C17.148,35.818,20.979,37.803,20.979,37.803z M9.517,36.741L4.412,33.01l-0.679,1.059
        c0,0,3.549,4.771,6.257,5.61c1.088,0.336,5.54-2.486,5.54-2.486s-0.894-0.45-2.096-1.566c-1.071-0.993-0.855-2.573-0.855-2.573
        L9.517,36.741z M13.448,19.644c-3.121,1.814-4.379,4.611-4.379,4.611l0.514,1.261l4.494-3.298l1.743,0.187l3.178-3.543
        C18.998,18.861,16.435,17.907,13.448,19.644z"/>
</svg>
