<svg xmlns="http://www.w3.org/2000/svg" width="48" height="48" viewBox="0 0 48 48">
    <path d="M47.249,18.618c-0.229,0.132-0.496,0.219-0.774,0.285
        c0.004,0.06,0.018,0.116,0.018,0.177c0,1.435-1.012,2.63-2.361,2.921l0.774,9.827c0.94,0.504,1.587,1.484,1.587,2.624
        c0,0.826-0.67,1.496-1.498,1.496h-5.992c-0.827,0-1.498-0.67-1.498-1.496c0-1.14,0.646-2.12,1.587-2.624l0.774-9.827
        c-1.35-0.291-2.361-1.486-2.361-2.921c0-0.014,0.004-0.025,0.004-0.039h-3.004c0,0.014,0.004,0.025,0.004,0.039
        c0,1.435-1.012,2.63-2.361,2.921l0.774,9.827c0.94,0.504,1.587,1.484,1.587,2.624c0,0.826-0.67,1.496-1.498,1.496h-5.992
        c-0.827,0-1.498-0.67-1.498-1.496c0-1.14,0.646-2.12,1.587-2.624l0.774-9.827c-1.35-0.291-2.361-1.486-2.361-2.921
        c0-0.014,0.004-0.025,0.004-0.039h-0.689c-0.279,0.005-0.559,0.011-0.839,0.011c-0.272,0-0.544-0.006-0.817-0.011H22.52
        c0,0.014,0.004,0.025,0.004,0.039c0,1.435-1.012,2.63-2.362,2.921l0.775,9.827c0.94,0.504,1.587,1.483,1.587,2.624
        c0,0.826-0.67,1.496-1.498,1.496h-5.992c-0.827,0-1.498-0.67-1.498-1.496c0-1.14,0.646-2.12,1.587-2.624l0.775-9.827
        c-1.35-0.291-2.362-1.486-2.362-2.921c0-0.014,0.004-0.025,0.004-0.039h-3.004c0,0.014,0.004,0.025,0.004,0.039
        c0,1.435-1.012,2.63-2.362,2.921l0.775,9.827c0.94,0.504,1.587,1.483,1.587,2.624c0,0.826-0.671,1.496-1.498,1.496H3.049
        c-0.827,0-1.498-0.67-1.498-1.496c0-1.14,0.646-2.12,1.587-2.624l0.774-9.827c-1.349-0.291-2.361-1.486-2.361-2.921
        c0-0.057,0.014-0.11,0.017-0.166c-0.296-0.066-0.579-0.157-0.821-0.296c-0.995-0.571-0.995-1.498,0-2.07
        c0,0,4.494-3.605,9.756-6.627c5.192-2.981,11.154-5.38,11.154-5.38c0.171-0.098,0.362-0.175,0.563-0.236
        c0.498-0.196,1.108-0.316,1.774-0.316c0.664,0,1.271,0.118,1.768,0.313c0.206,0.062,0.402,0.139,0.578,0.239
        c0,0,5.962,2.398,11.154,5.38c5.262,3.021,9.755,6.627,9.755,6.627C48.245,17.12,48.245,18.047,47.249,18.618z M23.99,15
        c1.654,0,2.996-1.347,2.996-3.007c0-1.661-1.342-3.007-2.996-3.007c-1.655,0-2.996,1.346-2.996,3.007
        C20.994,13.653,22.335,15,23.99,15z M3.455,38h9.531c0.001,0,0.002,0,0.003,0h22.002c0.001,0,0.003,0,0.003,0h9.531
        c0.811,0,1.467,0.592,1.467,1.331v1.339c0,0.739-0.656,1.339-1.467,1.339h-5.922C38.343,43.699,36.832,45,34.991,45H12.989
        c-1.841,0-3.352-1.301-3.613-2.991H3.455c-0.81,0-1.467-0.6-1.467-1.339v-1.339C1.988,38.592,2.645,38,3.455,38z"/>
</svg>
