<?xml version="1.0" encoding="utf-8"?>
<!-- Generator: Adobe Illustrator 16.0.4, SVG Export Plug-In . SVG Version: 6.00 Build 0)  -->
<!DOCTYPE svg PUBLIC "-//W3C//DTD SVG 1.1//EN" "http://www.w3.org/Graphics/SVG/1.1/DTD/svg11.dtd">
<svg version="1.1" id="Layer_1" xmlns="http://www.w3.org/2000/svg" xmlns:xlink="http://www.w3.org/1999/xlink" x="0px" y="0px"
	 width="48px" height="48px" viewBox="0 0 48 48" enable-background="new 0 0 48 48" xml:space="preserve">
<path fill-rule="evenodd" clip-rule="evenodd" d="M47.545,33.519c0.814,0.988,0.553,2.363-0.584,3.07
	c-1.139,0.708-2.723,0.481-3.537-0.507l-2.215-2.686c-1.176,1.049-2.584,2.132-4.217,3.11l1.793,3.915
	c0.609,1.331-0.094,2.854-1.57,3.403c-1.475,0.549-3.166-0.084-3.773-1.414l-1.627-3.554c-1.488,0.478-3.088,0.835-4.805,1.01v2.859
	c0,1.808-1.344,3.273-3,3.273c-1.657,0-3-1.466-3-3.273v-2.859c-2.024-0.206-3.89-0.662-5.595-1.276l-1.537,3.82
	c-0.535,1.33-2.02,1.963-3.316,1.414c-1.297-0.549-1.914-2.072-1.379-3.403l1.629-4.05c-1.54-0.943-2.878-1.975-4-2.976
	l-2.215,2.686c-0.815,0.988-2.398,1.215-3.537,0.507c-1.138-0.707-1.4-2.082-0.585-3.07l2.953-3.579
	c0.024-0.028,0.055-0.051,0.08-0.078c-1.893-2.87,2.262-3.913,4.959-1.511c2.932,3.099,8.213,5.941,15.543,5.771
	c7.33,0.171,12.611-2.672,15.543-5.771c2.697-2.402,6.852-1.359,4.959,1.511c0.025,0.027,0.057,0.05,0.08,0.078L47.545,33.519z"/>
</svg>
