<?xml version="1.0" encoding="utf-8"?>
<!-- Generator: Adobe Illustrator 16.0.4, SVG Export Plug-In . SVG Version: 6.00 Build 0)  -->
<!DOCTYPE svg PUBLIC "-//W3C//DTD SVG 1.1//EN" "http://www.w3.org/Graphics/SVG/1.1/DTD/svg11.dtd">
<svg version="1.1" id="Layer_1" xmlns="http://www.w3.org/2000/svg" xmlns:xlink="http://www.w3.org/1999/xlink" x="0px" y="0px"
	 width="48px" height="48px" viewBox="0 0 48 48" enable-background="new 0 0 48 48" xml:space="preserve">
<path fill-rule="evenodd" clip-rule="evenodd" d="M47.526,14.925l-1.67,2.278c0.893,3.104-3.311,5.144-5.314,2.666
	c-0.121-0.149-0.217-0.229-0.297-0.272c-3.232-3.76-8.402-7.378-16.254-7.205c-7.853-0.173-13.021,3.445-16.255,7.205
	C7.656,19.64,7.561,19.72,7.44,19.869c-2.004,2.478-6.208,0.438-5.315-2.666l-1.67-2.278c-0.815-1.112-0.553-2.66,0.585-3.457
	s2.722-0.541,3.537,0.571l0.839,1.145c1.057-0.938,2.319-1.855,3.762-2.693L8.163,8.233C7.628,7.044,8.245,5.682,9.542,5.19
	c1.296-0.491,2.782,0.075,3.316,1.265l0.887,1.972c2.112-0.698,4.516-1.19,7.245-1.358V4.917c0-1.607,1.343-2.91,3-2.91
	c1.656,0,3,1.303,3,2.91v2.151c2.434,0.15,4.586,0.573,6.525,1.154l0.906-1.768c0.607-1.189,2.299-1.756,3.773-1.265
	c1.477,0.491,2.18,1.854,1.57,3.043l-1.111,2.17c1.508,0.86,2.816,1.81,3.91,2.78l0.84-1.145c0.814-1.112,2.398-1.368,3.537-0.571
	C48.079,12.265,48.341,13.812,47.526,14.925z M14.991,22.997c0-4.963,4.029-8.985,9-8.985v8.97l7.559-4.851
	c0.908,1.403,1.441,3.071,1.441,4.866c0,4.964-4.029,8.986-9,8.986C19.02,31.983,14.991,27.961,14.991,22.997z M12.51,30.75
	c2.677,1.697,6.461,3.299,11.466,3.307c5.371-0.007,9.383-1.856,12.127-3.688c3.209-1.565,5.129,2.169,2.99,3.929
	C35.698,36.479,31.306,39.98,23.836,40c-7.469-0.02-11.582-3.521-14.977-5.704C6.572,32.414,9.16,28.529,12.51,30.75z"/>
</svg>
