<svg xmlns="http://www.w3.org/2000/svg" width="48" height="48" viewBox="0 0 48 48">
    <path d="M40.5,44.978h-8.518l0.039-13.966h2.466c0.854,0,1.546-0.659,1.546-1.473v-3.135
        c0-0.813-0.692-1.473-1.546-1.473H31.97l0.009-1.359c0-1.523-0.327-2.561,2.025-2.561h2.467c0.854,0,1.545-0.66,1.545-1.474v-3.071
        c0-0.813-0.691-1.474-1.545-1.474h-4.762c-6.044,0-7.728,2.602-7.728,7.366v2.572h-1.483c-0.854,0-1.545,0.659-1.545,1.473v3.135
        c0,0.813,0.692,1.473,1.545,1.473h1.483v13.966H7.5c-2.485,0-4.5-2.014-4.5-4.498V7.497C3,5.014,5.015,3,7.5,3h33
        C42.985,3,45,5.014,45,7.497v32.982C45,42.964,42.985,44.978,40.5,44.978z"/>
</svg>
