<svg xmlns="http://www.w3.org/2000/svg" width="48" height="48" viewBox="0 0 48 48">
    <path d="M45.947,21.664l-11.174,8.373l4.307,13.589c0.338,1.067-0.049,2.232-0.955,2.883
        c-0.443,0.316-0.963,0.476-1.48,0.476c-0.539,0-1.08-0.173-1.535-0.518l-11.102-8.401l-11.095,8.417
        C12.458,46.827,11.917,47,11.375,47c-0.518,0-1.035-0.157-1.478-0.474c-0.908-0.648-1.295-1.813-0.958-2.881l4.297-13.594
        L2.054,21.694c-0.894-0.653-1.27-1.812-0.932-2.871c0.337-1.06,1.312-1.78,2.416-1.788l13.788-0.001l4.232-13.258
        c0.338-1.066,1.322-1.791,2.433-1.792c0.001,0,0.001,0,0.001,0c1.111,0,2.095,0.724,2.433,1.789l4.246,13.252l13.785-0.018
        c1.105,0.006,2.08,0.726,2.418,1.785C47.215,19.852,46.84,21.01,45.947,21.664z"/>
</svg>
