<svg xmlns="http://www.w3.org/2000/svg" width="48" height="48" viewBox="0 0 48 48">
    <path d="M40.949,28.5C40.691,31.576,38.143,34,35,34h-3.5c-0.828,0-1.5,0.672-1.5,1.5V39
        c0,3.143-2.424,5.691-5.5,5.949V45h-16C7.672,45,7,44.328,7,43.5v-39C7,3.672,7.672,3,8.5,3h31C40.328,3,41,3.672,41,4.5v24H40.949z
         M15.5,34H20c0.828,0,1.5-0.671,1.5-1.5c0-0.828-0.672-1.5-1.5-1.5h-4.5c-0.828,0-1.5,0.672-1.5,1.5C14,33.329,14.672,34,15.5,34z
         M15.5,28h15c0.828,0,1.5-0.672,1.5-1.5S31.328,25,30.5,25h-15c-0.828,0-1.5,0.672-1.5,1.5S14.672,28,15.5,28z M21.5,10h-6
        c-0.828,0-1.5,0.672-1.5,1.5s0.672,1.5,1.5,1.5h6c0.828,0,1.5-0.672,1.5-1.5S22.328,10,21.5,10z M30.5,19h-15
        c-0.828,0-1.5,0.672-1.5,1.5s0.672,1.5,1.5,1.5h15c0.828,0,1.5-0.672,1.5-1.5S31.328,19,30.5,19z"/>
</svg>
