<svg xmlns="http://www.w3.org/2000/svg" width="48" height="48" viewBox="0 0 48 48">
    <path d="M40.834,37.121c-3.215,2.943-7.33,3.094-10.834,2.389V41c0,1.656-1.324,3-2.982,3
        H6.002C4.344,44,3,42.656,3,41V8c0-1.657,1.344-3,3.002-3h21.016C28.676,5,30,6.343,30,8v26.84c3.158,0.781,6.788,0.893,8.718-1.744
        c1.529-2.088,1.943-4.779,1.89-7.283l-1.455-1.138c-1.182-0.924-2.139-3.024-2.139-4.692v-4.005l-3.412-3.404
        c-0.823-0.821-0.823-2.152,0-2.973c0.822-0.821,2.156-0.821,2.98,0l6.406,6.392L43,16c1.182,0.924,1.995,3.331,1.995,4.998L45,25
        C45.133,28.868,44.385,33.869,40.834,37.121z M16.51,11c-4.974,0-9.006,4.029-9.006,9h6.004c0-1.657,1.344-3,3.002-3
        c1.658,0,3.002,1.343,3.002,3h6.004C25.517,15.029,21.484,11,16.51,11z"/>
</svg>
