<svg xmlns="http://www.w3.org/2000/svg" width="48" height="48" viewBox="0 0 48 48">
    <path d="M41.448,42H6.552C4.038,42,2,39.985,2,37.5v-27C2,8.015,4.038,6,6.552,6h34.896
        C43.962,6,46,8.015,46,10.5v27C46,39.985,43.962,42,41.448,42z M35,35.429C35,36.297,35.749,37,36.668,37h1.662
        c0.918,0,1.67-0.703,1.67-1.571v-8.856C40,25.703,39.248,25,38.33,25h-1.662C35.749,25,35,25.703,35,26.572V35.429z M28.501,37
        c1.378,0,2.494-1.119,2.494-2.5S29.879,32,28.501,32c-1.377,0-2.494,1.119-2.494,2.5S27.124,37,28.501,37z M28.501,30
        c1.378,0,2.494-1.119,2.494-2.5S29.879,25,28.501,25c-1.377,0-2.494,1.119-2.494,2.5S27.124,30,28.501,30z M19.501,37
        c1.378,0,2.494-1.119,2.494-2.5S20.879,32,19.501,32c-1.377,0-2.494,1.119-2.494,2.5S18.124,37,19.501,37z M19.501,30
        c1.378,0,2.494-1.119,2.494-2.5S20.879,25,19.501,25c-1.377,0-2.494,1.119-2.494,2.5S18.124,30,19.501,30z M10.501,37
        c1.378,0,2.494-1.119,2.494-2.5S11.879,32,10.501,32c-1.377,0-2.494,1.119-2.494,2.5S9.124,37,10.501,37z M10.501,30
        c1.378,0,2.494-1.119,2.494-2.5S11.879,25,10.501,25c-1.377,0-2.494,1.119-2.494,2.5S9.124,30,10.501,30z M41.012,12H6.988v9h34.023
        V12z"/>
</svg>
