<svg xmlns="http://www.w3.org/2000/svg" width="48" height="48" viewBox="0 0 48 48">
    <path d="M31.578,23.813c-4.143,2.726-5.381,5.401-5.7,7.158v0.57
        c0,0.809-0.657,1.465-1.468,1.465h-5.868c-0.811,0-1.468-0.656-1.468-1.465l0.01-0.01c0.632-8.938,7.187-11.309,10.972-14.983
        c3.98-3.863,1.395-7.155-3.631-6.955c-3.018,0.121-5.913,1.231-7.751,2.101c-1.391,0.58-2.257,0.525-2.885-0.743
        c-0.023-0.048-0.058-0.075-0.089-0.109L12.026,7.63c-0.535-1.354-0.453-2.199,0.804-2.802c0.054-0.025,0.087-0.062,0.124-0.098
        c4.553-1.979,16.075-5.824,23.63,1.86C41.398,11.487,38.651,19.16,31.578,23.813z M17.548,37.319c0.962-0.887,2.185-1.33,3.67-1.33
        c1.523,0,2.719,0.443,3.585,1.33c0.866,0.886,1.258,2.11,1.175,3.671c-0.079,1.479-0.601,2.681-1.564,3.608
        c-0.963,0.928-2.207,1.393-3.73,1.393c-1.485,0-2.66-0.465-3.524-1.393s-1.257-2.13-1.178-3.608
        C16.064,39.43,16.587,38.205,17.548,37.319z"/>
</svg>
