<svg xmlns="http://www.w3.org/2000/svg" width="48" height="48" viewBox="0 0 48 48">
    <path d="M45.365,24.312c-1.213,1.482-3.697,4.342-6.723,6.843
        c-3.309,2.736-7.183,4.902-8.291,5.501c-0.908,0.49-2.011,0.473-2.902-0.046c-0.891-0.519-1.437-1.462-1.437-2.481v-4.123H5.794
        C3.699,30.006,2,28.328,2,26.257v-7.498c0-2.071,1.699-3.749,3.794-3.749h20.219v-4.127c0-1.018,0.546-1.961,1.436-2.479
        c0.89-0.52,1.991-0.538,2.899-0.05c1.097,0.591,4.937,2.732,8.279,5.497c3.148,2.604,5.76,5.652,6.735,6.843
        c0.434,0.528,0.65,1.17,0.65,1.812C46.013,23.145,45.797,23.785,45.365,24.312z"/>
</svg>
