<svg xmlns="http://www.w3.org/2000/svg" width="48" height="48" viewBox="0 0 48 48">
    <path d="M47.736,10.368L23.715,35.721l-9.918-9.021c2.292-1.188,4.129-3.12,5.196-5.48
        l4.356,4.716L38.305,2.001c0.014-0.02,0.028-0.031,0.041-0.053c0.678-1.105,1.074-1.087,1.504-0.735l7.705,7.633
        C48.248,9.563,48.169,9.871,47.736,10.368z M23.861,11.365l-3.917,3.88c-0.162-1.482-0.605-2.879-1.276-4.137l3.884-3.849
        c0.716-0.71,1.877-0.71,2.593,0l4.307,4.267l-2.046,3.352L23.861,11.365z M8.511,25.01C3.811,25.01,0,21.203,0,16.506
        c0-4.695,3.811-8.503,8.511-8.503s8.51,3.808,8.51,8.503C17.021,21.203,13.211,25.01,8.511,25.01z M9.33,27.947l14.531,14.396
        l15.634-15.49l-2.287-2.266l2.652-2.748l3.759,3.725c0.716,0.709,0.716,1.859,0,2.568L25.146,46.438
        c-0.716,0.709-1.876,0.709-2.593,0L4.08,28.133c-0.359-0.355-0.538-0.822-0.536-1.289c1.507,0.727,3.191,1.145,4.976,1.145
        C8.793,27.988,9.062,27.967,9.33,27.947z"/>
</svg>
