<svg xmlns="http://www.w3.org/2000/svg" width="48" height="48" viewBox="0 0 48 48">
    <path d="M44.73,37.531l-1.029,2.248c-0.045,0.098-0.107,0.178-0.161,0.268
        c-1.101,2.254-2.682,3.623-3.02,3.83c-0.04,0.025-0.083,0.027-0.134,0.018c-4.312,3.438-16.861-1.648-25.969-11.324
        C5.324,23.592,0.72,11.833,4.119,7.657C4.108,7.604,4.111,7.56,4.137,7.52c0.215-0.341,1.625-1.936,3.938-3.053
        C8.166,4.414,8.249,4.351,8.35,4.305l2.307-1.046c1.219-0.552,2.634-0.192,3.196,0.787l5.09,8.882
        c0.563,0.982,0.147,2.371-0.958,3.122l-1.945,1.322c-0.002,0.001-0.002,0.003-0.004,0.005c-0.842,0.551-2.608,2.29-0.652,5.068
        c1.917,2.463,4.13,4.966,6.595,7.414c1.08,0.941,2.161,1.83,3.235,2.664c0.063,0.051,0.128,0.102,0.191,0.148
        c0.062,0.049,0.123,0.092,0.185,0.139c2.782,1.934,4.508,0.215,5.053-0.605c0.001-0.002,0.003-0.002,0.005-0.004l1.307-1.895
        c0.743-1.076,2.124-1.475,3.104-0.92l8.872,5.018C44.908,34.959,45.273,36.344,44.73,37.531z"/>
</svg>
