<svg xmlns="http://www.w3.org/2000/svg" width="48" height="48" viewBox="0 0 48 48">
    <path d="M33.148,47.968V48H32.16v-0.017c-4.837-0.104-9.119-2.421-11.891-5.983H1.5
        C0.671,42,0,41.328,0,40.5v-39C0,0.672,0.671,0,1.5,0h30C32.328,0,33,0.672,33,1.5v15.512c8.327,0.268,15,7.087,15,15.481
        C48,40.838,41.406,47.623,33.148,47.968z M8.5,30h7c0.829,0,1.5-0.672,1.5-1.5S16.329,27,15.5,27h-7C7.672,27,7,27.672,7,28.5
        S7.672,30,8.5,30z M8.5,24h10c0.829,0,1.5-0.672,1.5-1.5S19.329,21,18.5,21h-10C7.672,21,7,21.672,7,22.5S7.672,24,8.5,24z M24.5,9
        h-16C7.672,9,7,9.672,7,10.5S7.672,12,8.5,12h16c0.828,0,1.5-0.672,1.5-1.5S25.328,9,24.5,9z M24.5,15h-16C7.672,15,7,15.672,7,16.5
        S7.672,18,8.5,18h16c0.828,0,1.5-0.672,1.5-1.5S25.328,15,24.5,15z M32.498,22.012c-5.799,0-10.501,4.698-10.501,10.494
        S26.699,43,32.498,43C38.299,43,43,38.302,43,32.506S38.299,22.012,32.498,22.012z M34.047,36.477l-2.576-2.563
        c-0.41-0.407-0.539-0.965-0.449-1.493c0-0.013-0.008-0.023-0.008-0.036v-4.801c0-0.883,0.67-1.6,1.496-1.6s1.496,0.717,1.496,1.6
        v4.004l2.477,2.465c0.672,0.669,0.672,1.755,0,2.425C35.81,37.146,34.719,37.146,34.047,36.477z"/>
</svg>
