<svg xmlns="http://www.w3.org/2000/svg" width="48" height="48" viewBox="0 0 48 48">
    <path d="M33.363,45H15.588c-2.678,0-4.707-2.538-4.588-5.621l0.36-10.541
        c0.467-12.166,19.28-6.795,19.113-15.338c-0.072-3.682-1.861-5.452-5.927-5.684c-4.131-0.141-6.252,2.217-6.439,5.396
        c-0.088,1.695-1.058,3.116-3.463,3.12c-2.166,0.003-2.708-1.891-2.708-2.853C12.095,9.363,14.746,3.042,24.209,3
        c11.533-0.051,12.699,8.689,12.854,12.727l0.786,19.959c0.001,0.016,0.005,0.029,0.006,0.044l0.14,3.649
        C38.114,42.462,36.041,45,33.363,45z M24.474,26c-3.866,0-7,3.135-7,7c0,3.866,3.134,7,7,7s7-3.134,7-7
        C31.474,29.135,28.34,26,24.474,26z M21,32h7v2h-7V32z"/>
</svg>
