<svg xmlns="http://www.w3.org/2000/svg" width="48" height="48" viewBox="0 0 48 48">
    <path d="M47.252,28.277c-0.613,0.602-1.463,0.83-2.258,0.689V29h-3v12c0,1.657-1.344,3-3,3
        H9c-1.657,0-3-1.343-3-3l0,0V29H2.994v-0.039c-0.808,0.156-1.679-0.07-2.305-0.684c-0.997-0.978-0.997-2.562,0-3.539
        c0,0,4.499-6.164,9.768-11.329c5.199-5.097,11.169-9.197,11.169-9.197c0.195-0.191,0.418-0.332,0.652-0.448
        c0.461-0.285,1.048-0.463,1.697-0.463c0.662,0,1.26,0.185,1.725,0.479c0.22,0.114,0.43,0.251,0.614,0.432c0,0,5.97,4.1,11.169,9.197
        c5.269,5.166,9.768,11.329,9.768,11.329C48.249,25.715,48.249,27.3,47.252,28.277z M17.994,33.5c0,0.828,0.672,1.5,1.5,1.5H23v-5
        h-5.006V33.5z M17.994,24.5V28H23v-5h-3.506C18.666,23,17.994,23.672,17.994,24.5z M30,24.5c0-0.828-0.672-1.5-1.5-1.5H25v5h5V24.5z
         M30,30h-5v5h3.5c0.828,0,1.5-0.672,1.5-1.5V30z"/>
</svg>
