<svg xmlns="http://www.w3.org/2000/svg" width="48" height="48" viewBox="0 0 48 48">
    <path d="M24,45C12.402,45,3,35.599,3,24C3,12.402,12.402,3,24,3c11.598,0,21,9.402,21,21
        C45,35.599,35.598,45,24,45z M20.498,22.5l-1.497,12c-0.104,0.828,0.529,1.5,1.413,1.5h3.2c0.884,0,1.683-0.672,1.787-1.5l1.498-12
        c0.104-0.828-0.529-1.5-1.414-1.5h-3.199C21.401,21,20.601,21.672,20.498,22.5z M26.607,12h-3.2c-0.884,0-1.684,0.672-1.787,1.5
        l-0.374,3c-0.104,0.828,0.529,1.5,1.413,1.5h3.2c0.883,0,1.684-0.672,1.787-1.5l0.375-3C28.125,12.672,27.492,12,26.607,12z"/>
</svg>
