<svg xmlns="http://www.w3.org/2000/svg" width="48" height="48" viewBox="0 0 48 48">
    <path d="M44.314,18.817c0.422,1.657,0.666,3.385,0.666,5.174
        c0,3.604-0.908,6.993-2.506,9.958c0.727,2.502,0.617,4.654-0.721,6.096c-0.842,0.908-2.041,1.4-3.561,1.457
        c-0.703,0.027-1.477-0.053-2.299-0.211c-1.701,1.174-3.582,2.105-5.592,2.742c-0.689,1.914-1.664,2.812-2.941,2.953l-1.055,0.012
        c-1.253,0.043-2.53-0.611-3.539-2.055c-3.747-0.217-7.218-1.432-10.185-3.359c-0.891,0.014-1.716-0.035-2.445-0.156
        C9.377,41.303,8.72,41.068,8.16,40.74c-0.221-0.129-0.438-0.291-0.654-0.465c-0.009-0.008-0.021-0.014-0.03-0.021
        c-1.039-0.854-1.987-2.199-2.55-3.756c-0.449-1.242-0.591-2.494-0.489-3.594c0.009-0.303,0.042-0.627,0.126-0.99
        C3.563,29.469,3,26.799,3,23.991c0-4.042,1.16-7.804,3.136-11.008C5.661,10.446,6.327,8.91,7.167,8.004
        c0.843-0.91,2.041-1.4,3.561-1.458c0.458-0.018,0.946,0.011,1.456,0.073c2.14-1.46,4.563-2.531,7.169-3.121l-0.07,0.002
        c0.683-1.891,0.838-2.284,3.095-2.487l0.177-0.013c1.155-0.04,2.175,0.756,3.073,2.059c5.945,0.46,11.186,3.405,14.713,7.788
        c0.828,0.075,1.545,0.244,2.121,0.52c0.299,0.144,0.551,0.321,0.775,0.517c0.365,0.263,0.697,0.56,0.959,0.922
        C45.262,14.296,45.189,16.416,44.314,18.817z M39.76,38.197c0.184-0.199,0.311-0.467,0.385-0.791
        c-0.354,0.424-0.727,0.828-1.111,1.223C39.336,38.529,39.582,38.389,39.76,38.197z M30.352,34.014
        c-0.254-0.857-1.26-1.316-2.246-1.023c-0.986,0.291-1.578,1.225-1.323,2.084c0.255,0.857,1.261,1.316,2.247,1.023
        C30.014,35.807,30.607,34.873,30.352,34.014z M18.179,25.056c-0.172,0.392-0.387,0.741-0.62,1.071
        c0.824,0.859,1.682,1.713,2.587,2.551c1.424,1.32,2.884,2.533,4.338,3.646c0.652-0.904,1.631-1.639,2.848-2
        c0.502-0.148,1.002-0.203,1.492-0.213c-0.078-1.957-0.227-4.12-0.482-6.539c-0.156-1.47-0.332-2.833-0.521-4.116
        c-0.889-0.135-1.775-0.5-2.552-1.122c-0.269-0.215-0.513-0.45-0.729-0.7c-0.305,0.146-0.607,0.283-0.914,0.436
        c-1.807,0.898-3.545,1.874-5.2,2.89C18.835,22.179,18.796,23.656,18.179,25.056z M24.039,40.701c1.535,0,3.018-0.225,4.43-0.613
        c0.055-0.373,0.1-0.797,0.145-1.217c-1.215,0.092-2.371-0.213-3.267-0.836c-1.793,0.908-3.554,1.635-5.237,2.182
        C21.372,40.521,22.683,40.701,24.039,40.701z M15.81,38.52c2.37-0.486,5.098-1.432,7.928-2.855
        c-0.045-0.199-0.092-0.398-0.104-0.598c-1.776-1.309-3.568-2.756-5.336-4.395c-0.983-0.91-1.922-1.838-2.815-2.775
        c-1.011,0.463-2.116,0.533-3.104,0.072c-0.657-0.307-1.164-0.818-1.539-1.436c-1.066,0.973-1.953,1.908-2.624,2.76
        C9.533,33.223,12.265,36.5,15.81,38.52z M15.183,21.58c-0.761-0.354-1.714,0.124-2.131,1.07c-0.417,0.945-0.138,1.999,0.623,2.353
        c0.761,0.354,1.715-0.125,2.131-1.07C16.222,22.987,15.943,21.934,15.183,21.58z M7.35,23.992c0,0.973,0.092,1.922,0.252,2.85
        c0.654-0.727,1.433-1.506,2.358-2.338c0.068-0.061,0.146-0.122,0.215-0.184c-0.042-0.761,0.082-1.562,0.366-2.352
        c-0.849-1.189-1.602-2.364-2.237-3.505C7.697,20.196,7.35,22.051,7.35,23.992z M24.963,7.328c-0.308-0.017-0.612-0.047-0.924-0.047
        c-6.056,0-11.341,3.24-14.266,8.071c0.196,0.438,0.412,0.888,0.66,1.354c0.49,0.918,1.076,1.867,1.728,2.829
        c1.27-1.129,2.913-1.542,4.321-0.886c0.271,0.126,0.517,0.289,0.742,0.475c1.93-1.217,3.971-2.383,6.098-3.441
        c0.05-0.024,0.099-0.046,0.149-0.071c-0.376-1.358-0.176-2.802,0.713-3.912c0.477-0.596,1.1-1.004,1.783-1.263
        C25.631,9.245,25.291,8.204,24.963,7.328z M26.626,13.658c-0.579,0.723-0.397,1.831,0.405,2.474
        c0.803,0.643,1.922,0.578,2.502-0.146c0.578-0.723,0.396-1.831-0.404-2.473C28.326,12.87,27.205,12.935,26.626,13.658z
         M27.799,7.723c0.275,0.808,0.527,1.656,0.764,2.516c0.814,0.16,1.619,0.502,2.332,1.072c0.342,0.274,0.625,0.587,0.881,0.915
        c1.098-0.346,2.16-0.647,3.154-0.868C32.914,9.616,30.484,8.343,27.799,7.723z M37.037,13.548c-1.248,0.145-2.688,0.462-4.236,0.902
        c0.229,1.231-0.023,2.499-0.822,3.495c-0.426,0.532-0.965,0.917-1.562,1.181c0.357,2.271,0.543,3.913,0.57,4.156
        c0.266,2.507,0.432,4.957,0.504,7.283c4.168-3.408,7.135-6.947,8.895-9.891C39.848,18.012,38.672,15.586,37.037,13.548z
         M33.238,32.797c0.037,0.096,0.09,0.18,0.119,0.277c0.43,1.449-0.043,2.975-1.107,4.104c0.428,0.205,0.852,0.4,1.26,0.564
        c4.055-2.805,6.779-7.363,7.145-12.578C38.635,27.832,36.047,30.475,33.238,32.797z"/>
</svg>
