<svg xmlns="http://www.w3.org/2000/svg" width="48" height="48" viewBox="0 0 48 48">
    <path d="M40.002,27.691c0.772,0.42,1.442,0.874,2.022,1.351C44.104,30.145,45,32.838,45,36
        c0,3.891-1.368,7.053-4.621,7.426C36.698,44.695,30.742,45,24,45s-12.698-0.305-16.379-1.574C4.368,43.053,3,39.891,3,36
        c0-3.162,0.896-5.855,2.976-6.958c0.58-0.477,1.25-0.931,2.021-1.351C4.887,25.078,3,21.7,3,18C3,9.716,12.402,3,24,3
        s21,6.716,21,15C45,21.7,43.113,25.078,40.002,27.691z M24,11.946c-8.714,0-15.777,3.865-15.777,8.632
        c0,2.135,1.444,4.074,3.796,5.579v3.245C10.13,30.404,9,31.648,9,33c0,3.313,6.716,3,15,3s15,0.313,15-3
        c0-1.345-1.116-2.582-2.986-3.582v-3.281c2.332-1.502,3.764-3.433,3.764-5.559C39.777,15.811,32.714,11.946,24,11.946z M34.381,33
        h-1.809c0.001,0.009,0.004,0.017,0.006,0.025h-2.512c-0.575-2.835-3.081-4.969-6.086-4.969s-5.511,2.134-6.086,4.969h-2.511
        c0.001-0.009,0.005-0.017,0.006-0.025h-1.771c0.543-3.786,3.101-6.92,6.554-8.275L13.965,21l6.021-6h8.027l6.021,6l-6.208,3.725
        C31.28,26.08,33.838,29.214,34.381,33z M28.5,21l-3-3h-3l-3,3H28.5z"/>
</svg>
