<svg xmlns="http://www.w3.org/2000/svg" width="48" height="48" viewBox="0 0 48 48">
    <path d="M35.009,43.006c-4.603,0-8.637-2.398-10.947-6.006H4.552
        C2.038,37,0,34.95,0,32.421V12.579C0,10.05,2.038,8,4.552,8h33.896C40.962,8,43,10.05,43,12.579v7.192
        c3.044,2.379,5.008,6.075,5.008,10.237C48.008,37.187,42.188,43.006,35.009,43.006z M6.499,30h2.997c0.828,0,1.498-0.672,1.498-1.5
        S10.324,27,9.496,27H6.499C5.671,27,5,27.672,5,28.5S5.671,30,6.499,30z M7.99,15.001c-1.66,0-3.006,1.345-3.006,3.005
        s1.346,3.005,3.006,3.005s3.006-1.345,3.006-3.005S9.65,15.001,7.99,15.001z M13.996,15.001c-0.553,0-1.062,0.159-1.507,0.419
        c0.893,0.521,1.499,1.478,1.499,2.586s-0.606,2.065-1.499,2.586c0.444,0.26,0.954,0.419,1.507,0.419
        c1.659,0,3.005-1.345,3.005-3.005S15.655,15.001,13.996,15.001z M18.502,27h-2.998c-0.827,0-1.498,0.672-1.498,1.5
        s0.671,1.5,1.498,1.5h2.998C19.329,30,20,29.328,20,28.5S19.329,27,18.502,27z M39.565,21.113c-0.025-0.014-0.053-0.024-0.078-0.038
        c-0.284-0.144-0.578-0.271-0.877-0.388c-0.094-0.036-0.188-0.07-0.283-0.104c-0.237-0.085-0.48-0.158-0.726-0.225
        c-0.128-0.034-0.254-0.069-0.384-0.098c-0.226-0.052-0.457-0.09-0.688-0.126c-0.142-0.021-0.28-0.049-0.424-0.064
        c-0.276-0.03-0.558-0.043-0.841-0.051c-0.089-0.002-0.175-0.014-0.264-0.014c-1.381,0-2.696,0.279-3.894,0.784
        c-3.588,1.519-6.106,5.074-6.106,9.218c0,2.382,0.835,4.566,2.225,6.284c0,0,0.001,0,0.001,0.001
        c0.142,0.175,0.296,0.339,0.448,0.504c1.829,1.962,4.43,3.197,7.326,3.197c5.53,0,10.014-4.475,10.014-9.994
        c0-2.252-0.756-4.322-2.015-5.993v0.018C42.093,22.813,40.919,21.813,39.565,21.113z M36.046,34.451l-2.575-2.686
        c-0.4-0.417-0.533-0.984-0.457-1.526v-4.685c0-0.867,0.67-1.571,1.496-1.571s1.496,0.704,1.496,1.571v3.774l2.477,2.582
        c0.673,0.701,0.673,1.839,0,2.54S36.719,35.152,36.046,34.451z"/>
</svg>
