<svg xmlns="http://www.w3.org/2000/svg" width="48" height="48" viewBox="0 0 48 48">
    <path d="M43.934,40H4.067C2.373,40,1,38.612,1,36.899V12.095
        c0-1.713,1.373-3.101,3.067-3.101h39.867c1.693,0,3.066,1.388,3.066,3.101v24.805C47,38.612,45.627,40,43.934,40z M4.876,36.017
        c0.375,0,0.708-0.153,0.966-0.389l0.097,0.112l12.517-7.76l-2.482-1.948L4.479,33.16c-0.605,0.178-1.056,0.719-1.056,1.388
        C3.423,35.359,4.074,36.017,4.876,36.017z M43.066,11.811c-0.274,0-0.517,0.097-0.735,0.23l-0.038-0.046L25.97,22.116
        c-1.101,0.682-2.883,0.682-3.983,0L5.692,12.013l-0.043,0.054c-0.227-0.148-0.482-0.256-0.772-0.256
        c-0.802,0-1.453,0.657-1.453,1.469c0,0.396,0.159,0.752,0.411,1.017L3.806,14.33l18.18,11.271c1.1,0.683,2.883,0.683,3.983,0
        l18.21-11.29l-0.046-0.055c0.233-0.261,0.385-0.599,0.385-0.978C44.519,12.468,43.868,11.811,43.066,11.811z M44.021,33.46
        l0.01-0.012l-0.292-0.181c-0.044-0.023-0.078-0.058-0.124-0.076l-11.541-7.156l-2.482,1.947l12.484,7.74l0.06-0.069
        c0.254,0.218,0.571,0.363,0.931,0.363c0.802,0,1.452-0.657,1.452-1.469C44.519,34.11,44.32,33.729,44.021,33.46z"/>
</svg>
