<svg xmlns="http://www.w3.org/2000/svg" width="48" height="48" viewBox="0 0 48 48">
    <path d="M44,30.935C44,41.882,35.047,46,24.004,46C12.96,46,4.007,41.882,4.007,30.935
        c0-0.336,0.028-0.636,0.044-0.95H4l0.08-0.59c0.025-0.285,0.069-0.547,0.109-0.814l0.782-5.823c0.242-1.486,2.012-2.663,4.018-2.754
        c0-0.002,0-0.004,0-0.006c0-8.284,6.719-15,15.008-15c8.287,0,15.008,6.716,15.008,15c0,0.002-0.002,0.003-0.002,0.005
        c2.01,0.088,3.785,1.267,4.027,2.755l0.74,5.513c0.066,0.386,0.127,0.779,0.162,1.203L44,29.984h-0.045
        C43.973,30.299,44,30.599,44,30.935z M23.004,34.832v1.873c0,0.707,0.445,1.28,0.994,1.28s0.992-0.573,0.992-1.28v-1.876
        c1.17-0.412,2.014-1.515,2.014-2.824c0-1.66-1.35-3.007-3.012-3.007s-3.01,1.347-3.01,3.007
        C20.982,33.317,21.83,34.423,23.004,34.832z M32.936,19.18c-0.414-4.581-4.262-8.171-8.955-8.171c-4.711,0-8.568,3.618-8.958,8.224
        c-0.04,0.136-0.043,0.256-0.019,0.362c-0.006,0.131-0.02,0.259-0.02,0.391h0.912c1.845,0.063,2.674,0.771,3.742,1.581
        c0.029,0.023,0.062,0.045,0.092,0.068c0.098,0.072,0.191,0.146,0.294,0.219c0.108,0.078,0.218,0.133,0.327,0.179
        c0.951,0.506,2.229,0.818,3.641,0.818c1.408,0,2.682-0.312,3.633-0.816c0.111-0.045,0.225-0.102,0.336-0.181
        c0.104-0.076,0.201-0.15,0.301-0.226c0.025-0.02,0.053-0.038,0.078-0.058c1.07-0.812,1.898-1.521,3.748-1.585h0.893
        c0-0.117-0.014-0.23-0.018-0.347C33.004,19.51,32.996,19.355,32.936,19.18z"/>
</svg>
