<svg xmlns="http://www.w3.org/2000/svg" width="48" height="48" viewBox="0 0 48 48">
    <path d="M43.999,30.935C43.999,41.882,35.047,46,24.003,46S4.007,41.882,4.007,30.935
        c0-0.336,0.027-0.636,0.045-0.95H4l0.079-0.591c0.025-0.283,0.069-0.543,0.108-0.808l0.782-5.829
        c0.247-1.514,2.077-2.695,4.127-2.747c-0.796-4.865,0.478-9.923,3.901-13.532c5.626-5.932,14.93-5.779,21.116,0.194l0.024-0.025
        l3.18,3.347l-2.026,2.137l1.609,1.68c0.721,0.763,0.889,1.326,0.099,2.13l-1.235,1.222l-2.635-2.752l-0.004,0.004l-0.843-0.888
        l-0.861-0.899l0.004-0.004l-1.491-1.572l-0.003,0.003c-0.002-0.003-0.004-0.006-0.007-0.009c-3.521-3.711-9.194-3.748-12.671-0.083
        c-2.31,2.436-3.06,5.904-2.276,9.039h0.917c1.845,0.063,2.674,0.756,3.742,1.566c0.029,0.023,0.062,0.045,0.092,0.068
        c0.097,0.073,0.191,0.146,0.293,0.219c0.108,0.078,0.218,0.133,0.328,0.179c0.951,0.506,2.228,0.818,3.64,0.818
        c1.408,0,2.683-0.312,3.633-0.816c0.112-0.045,0.225-0.102,0.335-0.181c0.105-0.076,0.203-0.15,0.302-0.226
        c0.026-0.02,0.054-0.038,0.078-0.058c1.07-0.812,1.899-1.507,3.748-1.57h6.683c2.104,0,4.01,1.21,4.261,2.757l0.74,5.513
        c0.067,0.385,0.127,0.779,0.162,1.203l0.068,0.512h-0.044C43.972,30.299,43.999,30.599,43.999,30.935z M23.992,28.998
        c-1.663,0-3.01,1.347-3.01,3.007c0,1.312,0.847,2.418,2.021,2.827v1.873c0,0.707,0.444,1.28,0.993,1.28
        c0.548,0,0.993-0.573,0.993-1.28v-1.876c1.169-0.412,2.012-1.515,2.012-2.824C27.002,30.345,25.654,28.998,23.992,28.998z"/>
</svg>
