<svg xmlns="http://www.w3.org/2000/svg" width="48" height="48" viewBox="0 0 48 48">
    <path d="M44.303,22.98c-0.483,0.152-1.19,0.356-1.992,0.568
        c-1.42,0.374-2.02,0.87-2.02,2.075c0,13.636-4.771,19.334-16.719,19.334c-10.692,0-18.549-5.801-18.549-19.699v-8.771
        c-0.001-0.019-0.006-0.036-0.006-0.055v-9.67C5.018,5.236,6.219,4,7.701,4h29.522c1.482,0,2.684,1.236,2.684,2.763v2.735h0.012
        v0.998c0,0.97,4.993,8.713,5.72,10.06C46.298,21.776,46.168,22.392,44.303,22.98z M28.506,11.971c-1.381,0-2.504,1.125-2.504,2.505
        c0,1.39,1.123,2.509,2.504,2.509s2.504-1.119,2.504-2.509C31.01,13.096,29.887,11.971,28.506,11.971z M32.792,30.267
        c-3.587,0-6.073-0.741-7.379-4.435c-0.245-0.693-0.957-1.039-1.595-0.771c-0.635,0.268-0.951,1.048-0.705,1.741
        c1.918,5.427,5.969,6.158,9.679,6.158c0.681,0,1.232-0.603,1.232-1.347C34.024,30.87,33.473,30.267,32.792,30.267z"/>
</svg>
