<svg xmlns="http://www.w3.org/2000/svg" width="48" height="48" viewBox="0 0 48 48">
    <path d="M43.5,40h-39C2.015,40,0,37.953,0,35.429V12.571C0,10.047,2.015,8,4.5,8h39
        c2.485,0,4.5,2.047,4.5,4.571v22.857C48,37.953,45.985,40,43.5,40z M19.004,15.991c-4.412,0-7.989,3.586-7.989,8.009
        c0,4.424,3.577,8.01,7.989,8.01s7.989-3.586,7.989-8.01C26.993,19.577,23.416,15.991,19.004,15.991z M28.996,16.01
        c-0.743,0-1.459,0.109-2.142,0.298c1.946,1.983,3.15,4.696,3.15,7.692c0,2.997-1.204,5.71-3.15,7.693
        c0.683,0.189,1.398,0.298,2.142,0.298c4.42,0,8.002-3.577,8.002-7.991C36.998,19.587,33.416,16.01,28.996,16.01z"/>
</svg>
