<svg xmlns="http://www.w3.org/2000/svg" width="48" height="48" viewBox="0 0 48 48">
    <path d="M45.177,39.339C44.574,40.891,43.046,42,41.24,42H6.72
        c-1.798,0-3.323-1.101-3.93-2.644C1.736,37.263,1,32.526,1,27.009c0-5.511,0.734-10.243,1.786-12.341
        c0.604-1.548,2.132-2.653,3.934-2.653h7.303v-2.006c0-2.761,2.238-5,5-5h10c2.762,0,4.978,2.239,4.978,5v2.006h7.24
        c1.81,0,3.34,1.114,3.939,2.671c1.048,2.106,1.778,6.826,1.778,12.322C46.958,32.511,46.226,37.235,45.177,39.339z M30.022,10
        c0-0.552-0.447-1-1-1H19c-0.553,0-1,0.448-1,1v2.015h12.022V10z M40.216,15.853c-0.124,0-0.245,0.062-0.363,0.157V15.84l-31.988,0
        v0.042c-0.041-0.011-0.081-0.03-0.122-0.03c-1.238,0-2.242,5.088-2.242,11.156c0,6.068,1.004,10.986,2.242,10.986
        c0.041,0,0.081-0.02,0.122-0.029v0.041h31.988v-0.168c0.118,0.095,0.239,0.156,0.363,0.156c1.238,0,2.242-4.918,2.242-10.986
        C42.458,20.941,41.454,15.853,40.216,15.853z M29.589,30H27v2.717C27,33.426,26.328,34,25.499,34h-2.976
        c-0.828,0-1.499-0.574-1.499-1.283V30h-2.589c-0.779,0-1.412-0.696-1.412-1.556v-2.889c0-0.859,0.633-1.556,1.412-1.556h2.589
        v-2.696c0-0.709,0.671-1.283,1.499-1.283h2.976c0.829,0,1.501,0.574,1.501,1.283V24h2.589C30.368,24,31,24.696,31,25.556v2.889
        C31,29.304,30.368,30,29.589,30z"/>
</svg>
