<svg xmlns="http://www.w3.org/2000/svg" width="48" height="48" viewBox="0 0 48 48">
    <path d="M42.474,35.528c-0.026,0.029-0.06,0.058-0.088,0.086
        c-0.308,0.305-0.627,0.539-0.957,0.693c-2.817,1.549-9.559,2.641-17.438,2.641c-0.531,0-1.057-0.006-1.577-0.016l-6.909,4.21
        c-0.002,0.001-0.004,0.001-0.005,0.003c-2.795,1.645-4.386,0.71-4.479-1.068L11,37.771c-1.904-0.41-3.435-0.907-4.448-1.466
        c-0.312-0.146-0.612-0.364-0.902-0.646c-0.052-0.05-0.108-0.1-0.152-0.15c-2.043-2.163-3.491-7.504-3.491-13.59
        c0-7.153,2.001-13.279,4.617-14.415C9.482,5.955,16.182,5,23.991,5c7.808,0,14.505,0.954,17.366,2.504
        C43.987,8.635,46,14.763,46,21.92C46,28.024,44.535,33.379,42.474,35.528z M12.469,27h17.044c0.81,0,1.466-0.674,1.466-1.506
        c0-0.832-0.656-1.506-1.466-1.506H12.469c-0.81,0-1.466,0.674-1.466,1.506C11.003,26.326,11.659,27,12.469,27z M34.315,17H12.675
        c-0.924,0-1.673,0.691-1.673,1.513S11.751,20,12.675,20h21.641c0.924,0,1.673-0.666,1.673-1.487S35.239,17,34.315,17z"/>
</svg>
