<svg xmlns="http://www.w3.org/2000/svg" width="48" height="48" viewBox="0 0 48 48">
    <path d="M40.076,41h-8.617c-1.67-0.27-1.381-1.148,0.762-2.557
        c0.023-0.016,0.046-0.029,0.068-0.045c0.056-0.036,0.104-0.07,0.162-0.106c0.068-0.043,0.115-0.089,0.162-0.136
        c3.729-2.683,6.167-7.049,6.167-11.994c0-5.471-2.979-10.236-7.397-12.791L24,35.56l-7.382-22.188
        c-4.417,2.556-7.397,7.32-7.397,12.791c0,4.951,2.442,9.321,6.182,12c0.043,0.044,0.084,0.088,0.146,0.13
        c2.24,1.506,2.682,2.431,0.988,2.708H7.925C4.855,37.35,3,32.644,3,27.5c0-8.805,5.422-16.337,13.108-19.455
        c0.01-0.004,0.019-0.008,0.029-0.012c0.24-0.098,0.49-0.173,0.734-0.262c1.507-0.44,2.716-0.125,3.364,1.424l3.7,11.942
        l3.731-11.839c0.629-1.627,1.827-1.991,3.352-1.568C39.16,10.62,45,18.368,45,27.5C45,32.644,43.145,37.35,40.076,41z"/>
</svg>
