<svg xmlns="http://www.w3.org/2000/svg" width="48" height="48" viewBox="0 0 48 48">
    <path d="M34.5,48h-21C11.015,48,9,45.985,9,43.5v-39C9,2.015,11.015,0,13.5,0h21
        C36.985,0,39,2.015,39,4.5v39C39,45.985,36.985,48,34.5,48z M24,44.988c1.111,0,2.013-0.894,2.013-1.995S25.111,40.999,24,40.999
        s-2.013,0.893-2.013,1.994S22.889,44.988,24,44.988z M26.5,3h-5C20.672,3,20,3.672,20,4.5C20,5.329,20.672,6,21.5,6h5
        C27.328,6,28,5.329,28,4.5C28,3.672,27.328,3,26.5,3z M35,10.526C35,9.684,34.328,9,33.5,9h-19C13.672,9,13,9.684,13,10.526v25.947
        C13,37.316,13.672,38,14.5,38h19c0.828,0,1.5-0.684,1.5-1.526V10.526z"/>
</svg>
