<svg xmlns="http://www.w3.org/2000/svg" width="48" height="48" viewBox="0 0 48 48">
    <path d="M23.996,45c-11.6,0-21.004-9.403-21.004-21.004c0-11.6,9.404-21.004,21.004-21.004
        C35.597,2.992,45,12.396,45,23.996C45,35.597,35.597,45,23.996,45z M31.934,27.742l-5.938-3.748v-9.486
        c0-0.878-0.746-1.59-1.667-1.59h-1.667c-0.92,0-1.666,0.712-1.666,1.59V26.08c0,0.394,0.166,0.742,0.415,1.021l-0.024,0.051
        l0.188,0.111c0.148,0.124,0.313,0.226,0.501,0.294l7.482,4.395c0.718,0.414,1.635,0.169,2.049-0.549l0.875-1.611
        C32.896,29.073,32.65,28.156,31.934,27.742z"/>
</svg>
