<svg xmlns="http://www.w3.org/2000/svg" width="48" height="48" viewBox="0 0 48 48">
    <path d="M44.461,13.95l-0.025,0.018c-0.132,0.15-2.692,3.041-5.918,5.42
        c-3.139,2.314-6.906,4.081-7.071,4.159l-0.032,0.022c-0.378,0.279-0.896,0.43-1.426,0.43c-0.245,0-0.492-0.033-0.729-0.099
        c-0.748-0.208-1.238-0.715-1.238-1.278v-0.009v-3.779c-1.469-0.264-2.984-0.439-4.563-0.439c-4.883,0-9.331,1.344-12.735,3.543
        c-0.016-0.015-0.034-0.027-0.05-0.042c-0.59,0.674-1.458,1.11-2.44,1.11c-1.775,0-3.215-1.399-3.215-3.125
        c0-0.39,0.082-0.759,0.216-1.103c-0.021-0.007-0.04-0.016-0.062-0.022c0.062-0.092,0.134-0.179,0.197-0.271
        c0.157-0.304,0.354-0.586,0.6-0.823c4.445-5.687,12.63-9.541,22.053-9.666V3.382V3.373c0-0.563,0.49-1.07,1.238-1.278
        c0.236-0.066,0.483-0.099,0.729-0.099c0.529,0,1.048,0.15,1.426,0.429l0.032,0.023c0.165,0.077,3.933,1.845,7.071,4.159
        c3.226,2.379,5.786,5.269,5.918,5.419l0.025,0.019c0.361,0.267,0.54,0.609,0.539,0.952C45.001,13.34,44.822,13.684,44.461,13.95z
         M8.736,27.827c2.769-2.419,6.091-4.266,6.237-4.347l0.028-0.023c0.333-0.292,0.791-0.448,1.258-0.448
        c0.216,0,0.435,0.033,0.643,0.103c0.659,0.218,1.092,0.747,1.092,1.336v0.009v4.868c1.166,0.164,2.355,0.278,3.586,0.278
        c4.884,0,9.332-1.344,12.736-3.544c0.016,0.016,0.034,0.027,0.05,0.043c0.59-0.675,1.458-1.111,2.439-1.111
        c1.776,0,3.216,1.399,3.216,3.126c0,0.39-0.082,0.758-0.216,1.102c0.021,0.007,0.04,0.017,0.061,0.022
        c-0.062,0.093-0.134,0.181-0.197,0.272c-0.157,0.302-0.351,0.582-0.595,0.818c-4.29,5.491-12.067,9.273-21.08,9.643v4.579v0.009
        c0,0.589-0.433,1.118-1.092,1.336C16.694,45.967,16.476,46,16.26,46c-0.467,0-0.925-0.156-1.258-0.448l-0.028-0.023
        c-0.146-0.081-3.469-1.929-6.237-4.347c-1.112-0.973-2.129-2.021-2.97-2.954c-0.247-0.084-0.508-0.149-0.751-0.239l0.312-0.257
        c-1.057-1.209-1.749-2.128-1.812-2.213L3.494,35.5c-0.319-0.279-0.477-0.638-0.476-0.996c-0.001-0.357,0.156-0.716,0.476-0.995
        l0.021-0.019C3.633,33.333,5.892,30.312,8.736,27.827z"/>
</svg>
