<svg xmlns="http://www.w3.org/2000/svg" width="48" height="48" viewBox="0 0 48 48">
    <path d="M45,34H3c-1.657,0-3-1.369-3-3.059V11.059C0,9.37,1.343,8,3,8h42
        c1.657,0,3,1.37,3,3.059v19.882C48,32.631,46.657,34,45,34z M7.814,12C7.928,12.316,8,12.652,8,13.007
        c0,1.661-1.347,3.007-3.007,3.007c-0.35,0-0.681-0.071-0.993-0.182v10.349C4.312,26.071,4.643,26,4.993,26
        C6.654,26,8,27.346,8,29.008c0,0.35-0.071,0.68-0.181,0.992h12.277C17.084,28.384,15,24.967,15,21c0-3.967,2.084-7.384,5.098-9
        H7.814z M24,15.1c-2.607,0-4.721,2.642-4.721,5.901s2.113,5.9,4.721,5.9s4.721-2.641,4.721-5.9S26.607,15.1,24,15.1z M44,15.829
        c-0.316,0.113-0.652,0.186-1.007,0.186c-1.661,0-3.007-1.347-3.007-3.007c0-0.355,0.072-0.691,0.186-1.007H27.903
        C30.916,13.617,33,17.034,33,21c0,3.966-2.084,7.383-5.097,9h12.264c-0.11-0.312-0.181-0.643-0.181-0.992
        c0-1.662,1.346-3.008,3.007-3.008c0.354,0,0.69,0.072,1.007,0.186V15.829z M38,23.01c-1.109,0-2.01-0.9-2.01-2.01
        c0-1.109,0.9-2.009,2.01-2.009s2.01,0.9,2.01,2.009C40.01,22.11,39.109,23.01,38,23.01z M10,23.01c-1.11,0-2.009-0.9-2.009-2.01
        c0-1.109,0.899-2.009,2.009-2.009s2.01,0.9,2.01,2.009C12.01,22.11,11.11,23.01,10,23.01z M7,37h34v-1h4v1.938c0,1.657-1.344,3-3,3
        H6c-1.657,0-3-1.343-3-3V36h4V37z"/>
</svg>
