<svg xmlns="http://www.w3.org/2000/svg" width="48" height="48" viewBox="0 0 48 48">
    <path d="M47.023,39.078c0,2.119-1.49,3.834-3.348,3.908c0,0.005,0,0.01,0.001,0.014H4.483
        c0,0,0-0.001,0-0.002C4.479,42.998,4.475,43,4.47,43C2.554,43,1,41.244,1,39.078c0-0.987,0.334-1.879,0.866-2.568L20.77,5.936
        c0.011,0.005,0.023,0.009,0.034,0.015c0.533-1.15,1.769-1.957,3.208-1.957S26.687,4.8,27.22,5.95
        c0.012-0.006,0.023-0.01,0.034-0.015l18.874,30.528c-0.001,0.001-0.002,0.002-0.003,0.003C46.678,37.161,47.023,38.07,47.023,39.078
        z M27.016,17.551c0-0.859-0.672-1.557-1.502-1.557H22.51c-0.83,0-1.502,0.697-1.502,1.557v10.891c0,0.859,0.672,1.556,1.502,1.556
        h3.004c0.83,0,1.502-0.696,1.502-1.556V17.551z M27.016,34.665c0-0.92-0.672-1.667-1.502-1.667H22.51
        c-0.83,0-1.502,0.747-1.502,1.667v1.668c0,0.92,0.672,1.666,1.502,1.666h3.004c0.83,0,1.502-0.746,1.502-1.666V34.665z"/>
</svg>
