<svg xmlns="http://www.w3.org/2000/svg" width="48" height="48" viewBox="0 0 48 48">
    <path d="M44.119,33.579L33.56,44.132c-0.562,0.561-1.324,0.877-2.119,0.877H16.538
        c-0.796,0-1.56-0.316-2.122-0.88L3.877,33.577C3.315,33.014,3,32.252,3,31.456V16.532c0-0.797,0.316-1.561,0.88-2.123L14.417,3.878
        C14.979,3.316,15.742,3,16.537,3h14.904c0.794,0,1.556,0.315,2.118,0.876l10.559,10.532C44.683,14.971,45,15.735,45,16.532v14.924
        C45,32.254,44.684,33.017,44.119,33.579z M34.066,18.403c0.618-0.618,0.618-1.621,0-2.239l-2.238-2.238
        c-0.617-0.618-1.62-0.618-2.238,0l-5.595,5.597l-5.596-5.597c-0.618-0.618-1.62-0.618-2.238,0l-2.238,2.238
        c-0.618,0.618-0.618,1.621,0,2.239L19.519,24l-5.596,5.597c-0.618,0.618-0.618,1.62,0,2.238l2.238,2.238
        c0.618,0.618,1.62,0.618,2.238,0l5.596-5.597l5.595,5.597c0.618,0.618,1.621,0.618,2.238,0l2.238-2.238
        c0.618-0.618,0.618-1.62,0-2.238L28.471,24L34.066,18.403z"/>
</svg>
