<svg xmlns="http://www.w3.org/2000/svg" width="48" height="48" viewBox="0 0 48 48">
    <path d="M24,45C12.402,45,3,35.596,3,23.995S12.402,2.991,24,2.991
        c11.598,0,21,9.403,21,21.004S35.598,45,24,45z M19.608,36.637c0.536,0.585,1.266,0.878,2.188,0.878
        c0.945,0,1.718-0.293,2.316-0.878s0.922-1.343,0.971-2.274c0.052-0.984-0.19-1.756-0.729-2.314c-0.538-0.559-1.28-0.839-2.226-0.839
        c-0.922,0-1.682,0.28-2.278,0.839c-0.597,0.559-0.921,1.33-0.973,2.314C18.827,35.294,19.071,36.052,19.608,36.637z M31.566,13.316
        c-4.582-4.732-11.563-2.349-14.301-1.136c-0.021,0.019-0.038,0.039-0.067,0.054c-0.76,0.37-0.81,0.89-0.486,1.721l1.013,1.973
        c0.019,0.021,0.04,0.037,0.054,0.066c0.384,0.79,0.917,0.812,1.777,0.441c1.113-0.531,2.849-1.201,4.656-1.274
        c3.039-0.123,4.604,1.898,2.197,4.271c-2.291,2.257-6.254,3.591-6.637,9.067l-0.006,0.007c0,0.497,0.397,0.899,0.888,0.899h3.55
        c0.49,0,0.888-0.402,0.888-0.899v-0.281c0.187-1.04,0.924-2.645,3.447-4.331C32.816,21.036,34.479,16.324,31.566,13.316z"/>
</svg>
