<svg xmlns="http://www.w3.org/2000/svg" width="48" height="48" viewBox="0 0 48 48">
    <path d="M43.985,29.184c0.015,1.419,0.02,2.88,0.008,4.253
        c-0.039,4.605-0.637,7.869-9.071,8.426c-0.253,0.07-0.513,0.12-0.788,0.12h-0.122h-7.065h-0.229c-1.639,0-2.966-1.342-2.966-2.998
        S25.079,36,26.718,36h7.416c1.422,0,2.607,0.998,2.896,2.349c0.031,0.011,0.057,0.021,0.057,0.021
        c0.257-0.11,0.487-0.218,0.689-0.315c1.995-0.775,3.299-2.178,3.299-4.726c0-0.798-0.014-2.016-0.031-3.341h-0.187
        c-0.798,2.214-1.351,4.344-2.552,6.316c-0.797-1.428-2.479-1.908-3.773-2.058c1.684-2.657,3.049-5.706,3.763-8.829l-2.688,1.917
        c-0.056,3.091-2.681,5.582-5.923,5.582c-2.611,0-4.803-1.625-5.596-3.867h-0.673c-0.793,2.242-2.985,3.867-5.596,3.867
        c-3.242,0-5.868-2.491-5.923-5.582l-4.39-3.131c-0.138,0.576-0.148,1.248,0.017,1.944c0.393,1.662,1.585,2.796,2.693,2.596
        c2.378,6.332,7.074,11.846,11.077,13.603C21.886,42.635,22.844,43,23.995,43c1.043,0,5.305,0,9.023,0
        c-3.153,3.074-6.523,4.98-9.267,4.98c-5.385,0-13.185-7.332-17.002-16.446c-3.692-0.613-3.755-8.094-3.755-8.094
        c-0.123-1.062,0.489-2.033,1.48-2.593c0.037-7.62,2.948-13.391,7.443-16.911c0.336,3.177,1.45,7.899,4.93,10.532
        c-2.061,2.915-4.878,5.245-8.183,6.664c0,0.022,0.004,0.046,0.005,0.069l4.421,3.153C14.174,23.383,15.88,23,17.819,23
        c2.741,0,5.025,0.781,5.706,2.875h0.455C24.662,23.789,26.944,23,29.685,23c1.936,0,3.638,0.399,4.721,1.36l4.429-3.158
        c0.003-0.117,0.019-0.235,0.019-0.353c0-0.322-0.025-0.628-0.038-0.942c-0.761,0.061-1.532,0.096-2.313,0.096
        c-5.532,0-10.542-1.58-14.346-4.139c-1.028-1.034-2.191-2.031-2.191-2.031s-3.112-2.174-4.555-6.336
        c-0.632-1.823-0.62-3.99-0.505-5.456C17.555,0.709,20.559,0,23.752,0c9.378,0,17.185,6.01,18.917,16.493h0.365
        c1.638,0,2.966,1.029,2.966,5.998C46,25.868,44.893,28.089,43.985,29.184z M17.819,26c-1.638,0-2.966-0.109-2.966,1.372
        s1.328,2.683,2.966,2.683s2.966-1.201,2.966-2.683S19.457,26,17.819,26z M29.685,26c-1.639,0-2.967-0.109-2.967,1.372
        s1.328,2.683,2.967,2.683s2.967-1.201,2.967-2.683S31.323,26,29.685,26z"/>
</svg>
