<svg xmlns="http://www.w3.org/2000/svg" width="48" height="48" viewBox="0 0 48 48">
    <path d="M22.55,17c0.828,0,1.45,0.672,1.45,1.5V26c0,0.107-0.04,0.201-0.061,0.302
        c-0.019,0.09-0.02,0.184-0.055,0.27c-0.076,0.185-0.187,0.352-0.326,0.491c0,0,0,0.001-0.001,0.001l-3.132,3.182
        c-0.586,0.586-1.536,0.586-2.121,0c-0.586-0.586-0.586-1.535,0-2.121l2.745-2.745V18.5C21.05,17.672,21.722,17,22.55,17z
         M44.337,23.44l-3.536,3.919c-0.052,0.331-0.09,0.666-0.158,0.99l-0.483-0.279l-1.11,1.231c-0.827,0.917-2.169,0.917-2.996,0
        l-4.677-5.183c-0.001-0.001,0-0.002-0.002-0.004c-1.456-1.517-1.828-3.114,0.017-3.114c0.002,0,0.005-0.001,0.007-0.001h3.238
        c-1.518-5.248-6.349-9.089-12.086-9.089c-6.953,0-12.589,5.636-12.589,12.589s5.636,12.59,12.589,12.59
        c2.641,0,5.078-0.83,7.1-2.222l3.98,4.41C30.542,41.605,26.715,43,22.55,43c-10.217,0-18.5-8.282-18.5-18.5
        C4.05,14.283,12.333,6,22.55,6c9.02,0,16.521,6.458,18.159,15h3.04c0.003,0,0.005,0.001,0.007,0.001
        C45.326,21.001,45.281,22.16,44.337,23.44z"/>
</svg>
