<svg xmlns="http://www.w3.org/2000/svg" width="48" height="48" viewBox="0 0 48 48">
    <path d="M35.742,11L34.93,8.857l-24.422,5.16c0,0,15.464,0,28.938,0
        c2.467,0,5.354,0.537,5.525,3.965L36.008,18c-4.144,0-6,3.411-6,7.541h0.006c0.01,0.795,0.655,1.437,1.455,1.437
        c0.799,0,1.444-0.642,1.455-1.437h0.084c0-2.36,1.064-4.496,3.432-4.496l8.635-0.021C46.699,21.062,48,22.434,48,24.129v7.777
        c0,1.719-1.336,3.111-2.992,3.111h-0.614c-0.122,1.783-0.29,3.459-0.523,4.848c-0.276,1.604-1.886,3.062-3.521,3.229
        c-12.41,1.208-23.32,1.208-35.73,0c-1.636-0.166-3.245-1.625-3.521-3.229c-1.448-8.645-1.448-17.596,0-26.241
        c0.232-1.344,1.402-2.577,2.738-3.041l0.001-0.009l0.058-0.014c0.162-0.053,0.326-0.089,0.492-0.118l30.548-7.375
        c2.291-0.518,4.646,0.847,5.261,3.05L41.562,11H35.742z M39.502,31.004c1.375,0,2.489-1.117,2.489-2.494s-1.114-2.494-2.489-2.494
        c-1.374,0-2.488,1.117-2.488,2.494S38.128,31.004,39.502,31.004z"/>
</svg>
