<svg xmlns="http://www.w3.org/2000/svg" width="48" height="48" viewBox="0 0 48 48">
    <path d="M44,37c-0.111,0-0.22-0.018-0.328-0.037c-0.051,0.003-0.098,0.016-0.148,0.016
        h-0.541v0.942c0,1.933-1.342,5-2.997,5h-2.997c-1.655,0-2.997-3.067-2.997-5v-0.942H13.978v0.942c0,1.933-1.342,5-2.997,5H7.983
        c-1.655,0-2.997-3.067-2.997-5v-0.942h-0.51c-0.051,0-0.098-0.013-0.148-0.016C4.22,36.982,4.111,37,4,37c-2.209,0-4-4.029-4-9
        c0-4.97,1.791-9,4-9c0.056,0,0.11,0.014,0.165,0.019c0.104-0.012,0.205-0.033,0.312-0.033h1.221L4.5,18.65l4.195-9.35
        c2.198-4.045,4.932-4.3,8.02-4.3c0.001,0,0.001,0,0.002,0h14.55c0.001,0,0.001,0,0.002,0c3.16,0,5.948,0.278,8.171,4.602L43.5,18.65
        l-1.112,0.336h1.136c0.107,0,0.208,0.021,0.312,0.033C43.891,19.014,43.944,19,44,19c2.209,0,4,4.03,4,9C48,32.971,46.209,37,44,37z
         M6.011,28.499c0,1.374,1.353,2.501,3.01,2.501h3c1.657,0,2.99-1.127,2.99-2.501S13.667,26,12.01,26h-3
        C7.354,26,6.011,27.125,6.011,28.499z M34.973,10.033c-0.268-0.599-0.943-1.062-1.521-1.062H14.625
        c-0.578,0-1.253,0.464-1.521,1.062l-4,8.967h29.87L34.973,10.033z M38.99,26h-3c-1.657,0-3,1.125-3,2.499S34.343,31,36,31h3
        c1.656,0,2.989-1.127,2.989-2.501S40.646,26,38.99,26z"/>
</svg>
