<svg xmlns="http://www.w3.org/2000/svg" width="48" height="48" viewBox="0 0 48 48">
    <path d="M39.5,47h-30C7.015,47,5,44.985,5,42.5v-2.099c-1.773-0.871-3-2.616-3-4.651v-1.5
        c0-2.035,1.227-3.78,3-4.651V19.401c-1.773-0.871-3-2.616-3-4.651v-1.5c0-2.035,1.227-3.78,3-4.651V6.5C5,4.015,7.015,2,9.5,2h30
        C41.985,2,44,4.015,44,6.5v36C44,44.985,41.985,47,39.5,47z M32.092,18.014c-0.254-2.188-1.511-6.968-7.688-7.026
        c-7.576-0.071-7.866,6.662-7.769,8.8c-0.002,0.063-0.02,0.122-0.02,0.187c0,4.221,2.68,7.398,2.68,7.398s0.574,1.317,1.503,2.632
        C21.747,30.616,23.052,31,24.506,31c1.375,0,2.619-0.342,3.553-0.897c1.007-1.347,1.646-2.73,1.646-2.73s2.68-3.178,2.68-7.398
        C32.385,19.291,32.264,18.643,32.092,18.014z M31.408,30.848c-1.327,1.691-3.897,2.854-6.9,2.854c-3.002,0-5.572-1.162-6.899-2.854
        c-2.195,0.604-3.603,1.44-3.603,2.858c0,0.226,0.863,2.726,0.927,2.926c0,0,4.686,1.366,9.532,1.366c4.72,0,9.604-1.366,9.604-1.366
        c0.062-0.2,0.926-2.7,0.926-2.926C34.994,32.291,33.594,31.451,31.408,30.848z M24.414,28.952c-3.253,0-4.731-6.489-4.797-7.922
        l6.232-4.665l2.18,0.89c0.849,0.896,1.376,2.106,1.376,3.447C29.405,22.572,27.705,28.952,24.414,28.952z"/>
</svg>
