<svg xmlns="http://www.w3.org/2000/svg" width="48" height="48" viewBox="0 0 48 48">
    <path d="M47.425,19.555c-0.023,0.085-0.043,0.17-0.078,0.255l-0.742,1.833
        c-0.393,0.968-1.428,1.534-2.324,1.292l-8.113-2.198c-0.896-0.243-1.457-1.243-1.246-2.261c0,0,0.469-2.54,0.916-3.617
        c0.586-1.41,0.816-3.028-2.637-3.534c-2.883-0.423-5.084-0.419-7.943-0.417C24.866,10.965,24.433,11,23.968,11
        c-0.463,0-0.896-0.035-1.285-0.092c-2.809-0.011-4.989-0.001-7.837,0.417c-3.454,0.506-3.224,2.124-2.638,3.534
        c0.448,1.078,0.917,3.617,0.917,3.617c0.211,1.019-0.35,2.018-1.247,2.261l-8.114,2.198c-0.895,0.242-1.93-0.324-2.323-1.292
        L0.697,19.81c-0.035-0.085-0.055-0.17-0.078-0.255c-0.699-1.87-0.595-3.516-0.524-3.821c0.008-0.035,0.031-0.061,0.064-0.083
        C0.577,11.194,10.595,5.203,23.021,5.011l0.002-0.004c0.014,0,0.061,0,0.123,0c0.053,0,0.105-0.005,0.158-0.006
        c0.045,0,0.365,0.001,0.719,0.003C24.374,5.001,24.696,5,24.741,5c0.053,0.001,0.105,0.006,0.158,0.006c0.062,0,0.107,0,0.123,0
        v0.004c12.428,0.192,22.445,6.183,22.861,10.641c0.035,0.022,0.057,0.048,0.064,0.083C48.021,16.04,48.124,17.686,47.425,19.555z
         M8.276,28.92c4.211-2.627,3.34-5.381,6.298-8.666c1.226-1.361,2.106-2.147,3.111-2.607c-0.107-0.083-0.208-0.154-0.318-0.243
        c-2.554-2.071-3.544-4.906-0.328-5.36c3.217-0.454,2.943,3.712,6.791,3.712c0.055,0,0.104,0.024,0.156,0.031
        c0.074-0.013,0.148-0.031,0.227-0.031c3.848,0,3.574-4.166,6.791-3.712c3.215,0.454,2.225,3.289-0.328,5.36
        c-0.115,0.093-0.221,0.167-0.332,0.254c1.01,0.459,1.896,1.232,3.125,2.596c2.957,3.284,2.088,6.039,6.299,8.666
        c2.723,1.697,4.53,3.203,5.06,6.51c0.1,0.339,0.172,0.694,0.172,1.088c0,0.994,0,1.681,0,2.148h-0.01c0,0.001,0,0.001,0,0.002
        c0,2.393-1.853,4.332-4.173,4.332H7.227c-2.316,0-4.194-1.936-4.198-4.324c-0.001-0.004-0.01-0.006-0.01-0.01
        c0-0.506,0-0.717,0-0.758c0-0.338,0-0.784,0-1.391c0-0.394,0.071-0.749,0.171-1.088C3.718,32.123,5.553,30.617,8.276,28.92z
         M24.022,33.915c4.172,0,7.553-2.712,7.553-6.058S28.194,21.8,24.022,21.8s-7.554,2.711-7.554,6.057S19.851,33.915,24.022,33.915z"
        />
</svg>
