<svg xmlns="http://www.w3.org/2000/svg" width="48" height="48" viewBox="0 0 48 48">
    <path d="M41.984,19.16c0.004,0.425-0.003,0.882-0.036,1.409 c-0.509,8.168-10.257,20.497-15.184,26.245c-0.423,0.695-1.516,1.194-2.811,1.194c-1.315,0-2.422-0.516-2.827-1.229
        C16.214,41.018,6.55,28.722,6.042,20.569c-0.049-0.781-0.054-1.439-0.021-2c0-0.023-0.004-0.046-0.004-0.069
        c0-10.217,8.059-18.5,18-18.5s18,8.283,18,18.5C42.017,18.723,41.992,18.939,41.984,19.16z M24.017,10.413
        c-4.21,0-7.621,3.434-7.621,7.669s3.411,7.669,7.621,7.669c4.209,0,7.622-3.434,7.622-7.669S28.226,10.413,24.017,10.413z"/>
</svg>
