<svg xmlns="http://www.w3.org/2000/svg" width="48" height="48" viewBox="0 0 48 48">
    <path d="M45,32.609v1.874v0.3c0,1.767-1.343,3.198-3,3.198h-4v2.332
        c0,3.128-2.418,5.664-5.4,5.664H15.4c-2.982,0-5.4-2.536-5.4-5.664v-2.332H6c-1.657,0-3-1.432-3-3.198v-0.3v-0.499v-0.801v-0.574
        v-9.642c0-3.3,2.687-5.975,6-5.975h1V3h28v13.993h1c3.314,0,6,2.675,6,5.975V32.609L45,32.609z M15,40.98h18v-5.997H15V40.98z
         M34,6.998H14v13.993h20V6.998z M38.5,23.989c-1.381,0-2.5,1.118-2.5,2.498s1.119,2.499,2.5,2.499s2.5-1.119,2.5-2.499
        S39.881,23.989,38.5,23.989z"/>
</svg>
