<svg xmlns="http://www.w3.org/2000/svg" width="48" height="48" viewBox="0 0 48 48">
    <path d="M43.916,28.988c-0.468,4.033-2.819,7.381-6.067,9.297l-0.695,6.143l0,0
        c-0.373,3.307-2.752,4.261-5.045,3.098l-2.74-1.68l-3.043,0.99c-2.492,0.591-4.594-0.53-4.221-3.836l0,0l0.066-1.087L5.521,42
        c-0.829,0-1.5-1.172-1.5-2V1.545c0-0.828,0.671-1.5,1.5-1.5h30c0.828,0,1.479,0.672,1.479,1.5v14.816
        C41.605,18.628,44.542,23.601,43.916,28.988z M12.621,31.045h6.906c-0.282-0.961-0.434-2.014-0.475-3.045h-6.431
        c-0.884,0-1.6,0.717-1.6,1.545S11.737,31.045,12.621,31.045z M12.592,25.045h6.696c0.216-1.062,0.568-2.108,1.029-3.045h-7.725
        c-0.868,0-1.571,0.717-1.571,1.545S11.724,25.045,12.592,25.045z M23.521,8h-6c-0.828,0-1.5,0.717-1.5,1.545
        c0,0.828,0.672,1.5,1.5,1.5h6c0.828,0,1.5-0.672,1.5-1.5C25.021,8.717,24.349,8,23.521,8z M12.604,16
        c-0.875,0-1.583,0.717-1.583,1.545c0,0.829,0.709,1.5,1.583,1.5h9.785c1.202-1.286,2.661-2.358,4.292-3.045H12.604z M38.272,24.916
        c0.755-3.403-0.572-4.728-3.981-3.974c-1.876-2.94-3.753-2.94-5.63,0c-3.409-0.754-4.736,0.57-3.98,3.974
        c-2.945,1.873-2.945,3.746,0,5.62c-0.555,2.498,0.023,3.865,1.713,4.124l-0.967,8.328l4.299-1.557l3.828,2.502l1.088-9.369
        c3.135,0.578,4.357-0.752,3.631-4.028C41.217,28.662,41.217,26.789,38.272,24.916z M30.886,33.02
        c-3.017-0.352-5.179-3.086-4.828-6.108c0.35-3.022,3.079-5.187,6.096-4.835c3.018,0.352,5.18,3.086,4.83,6.107
        C36.634,31.206,33.903,33.371,30.886,33.02z"/>
</svg>
