<svg xmlns="http://www.w3.org/2000/svg" width="48" height="48" viewBox="0 0 48 48">
    <path d="M34.498,26.99c-7.453,0-13.494-6.042-13.494-13.495S27.045,0,34.498,0
        s13.494,6.042,13.494,13.495S41.951,26.99,34.498,26.99z M34.482,4.503c-4.969,0-8.996,4.026-8.996,8.993s4.027,8.993,8.996,8.993
        s8.998-4.026,8.998-8.993S39.451,4.503,34.482,4.503z M37.492,15h-3c-0.066,0-0.123-0.029-0.188-0.038
        c-0.053-0.011-0.105-0.015-0.158-0.032c-0.59-0.144-1.029-0.618-1.113-1.229l-1.852-3.427c-0.395-0.73-0.16-1.665,0.523-2.086
        s1.557-0.171,1.951,0.559L35.412,12h2.08c0.828,0,1.5,0.672,1.5,1.5C38.992,14.329,38.32,15,37.492,15z M27.072,28.209
        c-0.48,0.644-0.945,1.303-1.457,1.915L37,42v3.562L35.055,48h-3.062L19.664,35.974c-0.875,0.712-1.766,1.408-2.703,2.058
        c-1.791,1.191-5.025,1.311-6.822,0.211c-3.811-2.442-6.936-5.568-9.379-9.378c-1.102-1.797-0.981-5.032,0.211-6.822
        c3.02-4.354,6.704-8.04,11.057-11.056C13.646,9.909,16.15,9.717,18,10.5c-0.18,0.972-0.285,1.97-0.285,2.994
        C17.715,19.93,21.695,25.491,27.072,28.209z M9.914,19.928c-6.515,6.504-2.959,7.074-2.959,7.074s2.248-2.244,5.021-5.014
        c2.771-2.769,5.02-5.013,5.02-5.013S16.428,13.423,9.914,19.928z"/>
</svg>
