<svg xmlns="http://www.w3.org/2000/svg" width="48" height="48" viewBox="0 0 48 48">
    <path d="M40.189,35.552l1.314,1.425c0.086,0.069,0.179,0.124,0.26,0.201
        c1.57,1.485,1.655,3.978,0.191,5.569c-1.463,1.592-3.922,1.679-5.49,0.194c-0.002-0.002-0.004-0.005-0.006-0.007l-0.018,0.019
        L25.355,32.149c-1.822,0.826-3.84,1.298-5.972,1.298c-8.009,0-14.501-6.494-14.501-14.505S11.375,4.438,19.384,4.438
        s14.501,6.494,14.501,14.505c0,2.745-0.775,5.302-2.1,7.49l2.779,3.016l1.367-1.391c1.283-1.307,3.366-1.307,4.65,0l1.163,1.183
        c1.284,1.306,1.284,3.424,0,4.729L40.189,35.552z M15.867,10.435c-2.208,0-3.997,1.79-3.997,3.997c0,2.208,1.789,3.997,3.997,3.997
        c2.207,0,3.996-1.789,3.996-3.997C19.863,12.224,18.074,10.435,15.867,10.435z"/>
</svg>
