<svg xmlns="http://www.w3.org/2000/svg" width="48" height="48" viewBox="0 0 48 48">
    <path d="M44.337,23.44l-3.536,3.919c-0.052,0.331-0.09,0.666-0.158,0.99l-0.483-0.279
        l-1.11,1.231c-0.827,0.917-2.169,0.917-2.996,0l-4.677-5.183c-0.001-0.001,0-0.002-0.002-0.004
        c-1.456-1.517-1.828-3.114,0.017-3.114c0.002,0,0.005-0.001,0.007-0.001h3.238c-1.518-5.248-6.349-9.089-12.086-9.089
        c-6.953,0-12.589,5.636-12.589,12.589s5.636,12.59,12.589,12.59c2.641,0,5.078-0.83,7.1-2.222l3.98,4.41
        C30.542,41.605,26.715,43,22.55,43c-10.217,0-18.5-8.282-18.5-18.5C4.05,14.283,12.333,6,22.55,6c9.02,0,16.521,6.458,18.159,15
        h3.04c0.003,0,0.005,0.001,0.007,0.001C45.326,21.001,45.281,22.16,44.337,23.44z"/>
</svg>
