<svg xmlns="http://www.w3.org/2000/svg" width="48" height="48" viewBox="0 0 48 48">
    <path d="M45.001,37.053c0,0.221-0.18,0.4-0.4,0.4c-0.146,0-0.271-0.084-0.34-0.203
        c-0.002,0.002-0.005,0.003-0.007,0.004c-1.452-2.623-5.864-7.257-18.919-7.257c-1.287,0-2.378,0-3.335,0v4.132
        c0,1.02-0.546,1.963-1.437,2.481c-0.891,0.519-1.994,0.536-2.901,0.046c-1.109-0.599-4.983-2.766-8.291-5.501
        c-3.025-2.501-5.511-5.36-6.723-6.843C2.216,23.785,2,23.145,2,22.505c0-0.642,0.217-1.283,0.65-1.812
        c0.977-1.19,3.587-4.239,6.735-6.843c3.343-2.765,7.183-4.906,8.28-5.497c0.907-0.488,2.009-0.47,2.899,0.05
        C21.455,8.922,22,9.865,22,10.883v4.141l3.183,0.008c18.078,0,19.776,16.273,19.814,22.004l0,0
        C44.997,37.041,45.001,37.047,45.001,37.053z"/>
</svg>
