<svg xmlns="http://www.w3.org/2000/svg" width="48" height="48" viewBox="0 0 48 48">
<path d="M35.978,24.085l-0.1,0.073c0.055,0.347,0.088,0.737,0.133,1.163l1.469,13.773
	C37.8,42.214,35.876,45,33.149,45h-0.301c-2.727,0-4.65-2.786-4.33-5.905l1.498-13.675L30,4.553c0,0,4.827-1.272,8.237,7.244
	C40.831,18.274,35.978,24.085,35.978,24.085z M18.109,23.33l1.38,15.762C19.811,42.213,17.886,45,15.158,45h-0.301
	c-2.729,0-4.653-2.787-4.332-5.908l1.416-15.737c-2.381-0.926-4.82-2.923-4.4-6.446L9.149,6.128c0-0.003-0.001-0.007-0.001-0.01
	c0-0.016,0.009-0.025,0.009-0.041L9.168,6l0.006,0.003c0.054-0.545,0.467-0.851,1.12-1.026c0.666-0.054,1.17,0.691,1.053,1.812
	c-0.01,0.094-0.004,0.163,0.009,0.219l-0.259,5.699c0,0.719,0.413,1.634,1.168,1.634c0.756,0,1.368-0.612,1.368-1.368l0.406-8.228
	c0.312,0.002,0.626,0.004,0.953,0.004c0.334,0,0.655-0.002,0.971-0.004l0.406,8.228c0,0.756,0.612,1.368,1.368,1.368
	s1.109-0.915,1.109-1.634l-0.221-5.651c0.028-0.058,0.044-0.138,0.031-0.267c-0.111-1.064,0.337-1.787,0.952-1.813
	c0.639,0.175,1.039,0.483,1.087,1.035C20.697,6.01,20.716,6,20.716,6l1.747,10.909C22.878,20.402,20.47,22.393,18.109,23.33z"/>
</svg>
