<svg xmlns="http://www.w3.org/2000/svg" width="48" height="48" viewBox="0 0 48 48">
    <path d="M25.85,30.995v0.004h-0.072c-0.006,0-0.01,0.001-0.016,0.001
        c-0.004,0-0.01-0.001-0.015-0.001H20v3.012h8.436c1.893,0,2.564,1.564,2.564,3.493c0,1.931-0.672,3.494-2.564,3.494H20v4.307
        C20,47.156,18.433,48,16.5,48c-1.933,0-3.5-0.844-3.5-2.695v-2.291l0,0v-2.016h-2.626C8.481,40.998,8,39.435,8,37.504
        c0-1.929,0.481-3.493,2.374-3.493H13v-3.012h-2.603C8.504,30.999,8,29.439,8,27.501c0-1.938,0.504-3.499,2.397-3.499H13v-20
        c0,0,0,0,0-0.001C13,2.344,14.343,1,16,1h11.013v0.062C34.842,1.69,41,8.134,41,16.005C41,24.263,34.225,30.948,25.85,30.995z
         M26.029,7.988H20v16.013h6V24l0,0c4.418,0,8-3.591,8-8.011C34,11.579,30.434,8.004,26.029,7.988z"/>
</svg>
