<svg xmlns="http://www.w3.org/2000/svg" width="48" height="48" viewBox="0 0 48 48">
    <path d="M44.496,43.051l-2.435,2.443c-0.673,0.675-1.763,0.675-2.436,0l-8.396-8.428
        c-0.673-0.675-0.673-1.77,0-2.444l2.435-2.443c0.673-0.676,1.763-0.676,2.435,0l8.397,8.428
        C45.168,41.281,45.168,42.375,44.496,43.051z M19.014,36.007c-9.384,0-16.991-7.611-16.991-17.001c0-9.389,7.607-17,16.991-17
        s16.991,7.611,16.991,17C36.005,28.396,28.397,36.007,19.014,36.007z M18.999,8.006c-6.075,0-11,4.929-11,11.01
        c0,6.08,4.925,11.01,11,11.01S30,25.096,30,19.016C30,12.935,25.074,8.006,18.999,8.006z"/>
</svg>
