<svg xmlns="http://www.w3.org/2000/svg" width="48" height="48" viewBox="0 0 48 48">
    <path d="M44.125,35C45.713,35,47,36.344,47,38c0,1.657-1.287,3-2.875,3H3.875
        C2.288,41,1,39.657,1,38c0-1.656,1.287-3,2.875-3C2.287,35,1,33.656,1,32c0-0.916,0.402-1.726,1.022-2.276
        c0.054-0.132,0.135-0.26,0.267-0.374c1.409-1.224,2.63-3.219,3.174-4.627c0.046-0.125,0.082-0.255,0.13-0.379
        c0.026-0.083,0.061-0.174,0.081-0.25c0.028-0.107,0.081-0.189,0.143-0.258c2.612-6.162,8.355-10.714,15.285-11.722
        C21.045,11.973,21,11.825,21,11.667V11h-2.603C16.781,11,17,9,17,9h0.039C17.241,7.729,20.265,6,24,6c3.735,0,6.76,1.729,6.961,3
        h0.008c0,0,0.004,0.029,0.006,0.046C30.978,9.075,31,9.107,31,9.136c0,0.018-0.014,0.027-0.016,0.043c0.032,0.479,0,1.82-1.412,1.82
        H27v0.667c0,0.158-0.045,0.306-0.102,0.447c6.93,1.008,12.674,5.56,15.285,11.722c0.062,0.069,0.115,0.15,0.143,0.258
        c0.021,0.076,0.055,0.166,0.081,0.247c0.049,0.126,0.085,0.259,0.132,0.386c0.544,1.407,1.764,3.4,3.172,4.623
        c0.133,0.114,0.213,0.242,0.268,0.374C46.598,30.274,47,31.084,47,32C47,33.656,45.713,35,44.125,35z M9.455,27.126
        C9.107,27.947,8.707,28.541,8.315,29h9.105c0.43-0.729,0.638-1.614,0.638-2.429c0-4.685,2.601-9.404,3.504-10.588
        C15.919,16.203,11.79,21.609,9.455,27.126z M26.617,15.956c2.309,1.359,6.002,4.953,8.573,11.928
        c0.123,0.333,0.214,0.73,0.405,1.116h4.418c-0.23-1.027-0.896-2.416-1.747-3.699C35.669,21.379,32.429,16.491,26.617,15.956z"/>
</svg>
