<svg xmlns="http://www.w3.org/2000/svg" width="48" height="48" viewBox="0 0 48 48">
    <path d="M41.428,23.997c0,0.422-0.033,0.836-0.063,1.25l4.062,4.494
        c-0.983,3.641-2.865,6.908-5.412,9.543l-5.998-1.287c-0.735,0.508-1.515,0.955-2.328,1.344l-1.966,5.936
        C27.957,45.732,26.116,46,24.21,46c-1.878,0-3.69-0.26-5.43-0.703l-1.905-5.883c-0.825-0.383-1.61-0.836-2.358-1.34l-6.065,1.26
        c-2.552-2.623-4.441-5.881-5.438-9.514l4.014-4.381c-0.04-0.476-0.066-0.957-0.066-1.443c0-0.446,0.02-0.888,0.054-1.325L3,18.229
        c0.987-3.638,2.87-6.902,5.418-9.532l6.002,1.287c0.739-0.504,1.515-0.96,2.331-1.348l1.962-5.922C20.473,2.261,22.308,2,24.21,2
        c1.886,0,3.706,0.257,5.453,0.704l1.912,5.903c0.803,0.378,1.567,0.82,2.297,1.311l6.089-1.263c2.557,2.625,4.449,5.888,5.446,9.526
        l-4.042,4.411C41.404,23.055,41.428,23.523,41.428,23.997z M24.194,15.993c-4.424,0-8.009,3.577-8.009,7.989
        s3.585,7.989,8.009,7.989c4.423,0,8.009-3.576,8.009-7.989S28.617,15.993,24.194,15.993z"/>
</svg>
