<svg xmlns="http://www.w3.org/2000/svg" width="48" height="48" viewBox="0 0 48 48">
    <path d="M34,20.99c-2.637,0-5.001-1.141-6.646-2.945l-4.74,2.084
        c-0.542-2.015-1.639-3.797-3.123-5.178l5.536-2.436C25.016,12.343,25,12.171,25,11.995C25,7.027,29.029,3,34,3s9,4.027,9,8.995
        S38.971,20.99,34,20.99z M12,31.984c-4.971,0-9-4.027-9-8.995s4.029-8.995,9-8.995s9,4.027,9,8.995S16.971,31.984,12,31.984z
         M22.428,26.479L26.99,29.3c1.594-1.434,3.697-2.312,6.01-2.312c4.971,0,9,4.027,9,8.995s-4.029,8.995-9,8.995s-9-4.027-9-8.995
        c0-0.479,0.049-0.946,0.121-1.405l-5.08-3.141C20.591,30.145,21.773,28.433,22.428,26.479z"/>
</svg>
