<svg xmlns="http://www.w3.org/2000/svg" width="48" height="48" viewBox="0 0 48 48">
    <path d="M42.702,40.466c0,0.767-0.285,1.46-0.742,1.992 c-0.006,0.009-0.015,0.019-0.021,0.027c-0.487,0.558-1.17,0.919-1.938,0.979c-3.168,0.938-9.407,1.527-15.968,1.527
        c-6.547,0-12.858-0.586-16.032-1.521c-1.536-0.094-2.757-1.396-2.757-3.005c0,0-0.376,1.327,0-6.046
        c0.355-6.975,1.205-19.397,1.205-19.397C6.448,13.354,7.759,12,9.376,12c0,0,2.468,0.285,5.657,0.556
        C15.248,7.796,19.181,4,24.015,4s8.767,3.796,8.981,8.556C36.186,12.285,38.653,12,38.653,12c1.617,0,2.928,1.354,2.928,3.023
        c0,0,0.77,12.51,1.121,19.397C43.082,41.87,42.702,40.466,42.702,40.466z M28.998,12.372c0-2.487-2.231-4.503-4.983-4.503
        s-4.983,2.017-4.983,4.503v0.477c1.719,0.103,3.447,0.173,4.983,0.173s3.265-0.07,4.983-0.173V12.372z M32.05,17.714h-0.033
        c0-0.732-0.666-1.326-1.486-1.326c-0.821,0-1.487,0.594-1.487,1.326c0,0.063,0.031,0.117,0.04,0.177v1.11
        c0,2.233-2.58,4.292-5.068,4.292s-5.068-2.058-5.068-4.292v-1.07c0.015-0.073,0.05-0.14,0.05-0.217c0-0.732-0.682-1.326-1.522-1.326
        s-1.523,0.594-1.523,1.326c0,0.044,0.024,0.082,0.029,0.125v1.163c0,3.723,3.888,6.896,8.035,6.896s8.035-3.174,8.035-6.896V17.714z"/>
</svg>
