<svg xmlns="http://www.w3.org/2000/svg" width="48" height="48" viewBox="0 0 48 48">
    <path d="M41.993,25.747c0.006,0.255,0.013,0.508,0.013,0.766
        c0,6.56-1.828,12.252-4.25,13.518c-2.635,1.738-9.13,2.971-16.741,2.971c-0.774,0-1.533-0.016-2.281-0.041l-5.489,3.291
        c-2.707,1.536-4.216,0.513-4.216-1.243c0-0.014-0.004-0.025-0.005-0.038l-0.007-3.167c-2.039-0.477-3.665-1.071-4.704-1.744
        c-2.445-1.192-4.301-6.924-4.301-13.546c0-6.637,1.864-12.379,4.318-13.553c2.672-1.719,9.129-2.932,16.685-2.932
        c0.262,0,0.519,0.005,0.778,0.008C23.638,4.776,28.627,1,34.51,1C41.96,1,48,7.048,48,14.509C48,19.196,45.613,23.324,41.993,25.747
        z M10.595,31H26.88c0.888,0,1.607-0.669,1.607-1.488c0-0.82-0.72-1.512-1.607-1.512H10.595c-0.888,0-1.607,0.691-1.607,1.512
        C8.987,30.331,9.707,31,10.595,31z M22.68,21H10.63c-0.907,0-1.643,0.676-1.643,1.508s0.735,1.507,1.643,1.507h14.298
        C24.046,23.123,23.288,22.108,22.68,21z M34.487,5.502c-4.974,0-9.007,4.033-9.007,9.009s4.033,9.01,9.007,9.01
        s9.006-4.034,9.006-9.01S39.461,5.502,34.487,5.502z M39,18.809C39,19.471,38.424,20,37.713,20h-6.439
        c-0.711,0-1.288-0.529-1.288-1.191c0-0.415,0.241-0.764,0.587-0.979l2.12-1.772c-0.011-0.004-0.02-0.01-0.03-0.015l2.723-2.277
        c0.034-0.018,0.072-0.028,0.105-0.047L36,13.292c0.25-0.303,0.425-0.665,0.425-1.076c0-0.993-0.864-1.799-1.932-1.799
        s-1.932,0.806-1.932,1.799c0,0.218,0.057,0.42,0.133,0.613l-2.66-0.005c-0.03-0.199-0.049-0.402-0.049-0.608
        c0-2.317,2.019-4.196,4.508-4.196S39,9.898,39,12.216c0,0.941-0.346,1.803-0.909,2.503l0.053,0.064l-0.435,0.367
        c-0.044,0.041-0.093,0.076-0.139,0.116l-2.783,2.343h2.926C38.424,17.609,39,18.146,39,18.809z"/>
</svg>
