<svg xmlns="http://www.w3.org/2000/svg" width="48" height="48" viewBox="0 0 48 48">
    <path d="M37.5,30h-7.626c0.199,1.459,0.191,2.795-0.171,3.822
        c-0.374,1.061-1.347,1.678-2.878,1.856c2.038,6.527-1.304,11.442-1.473,11.683c0,0-0.354,0.639-1.627,0.639c-1.962,0-5.9,0-8.11,0
        c-1.601,0-1.64-1.631-1.64-1.631c0.011-0.143,0.228-3.804-3.46-6.727c-7.521-5.961-5.833-10.454-1.926-18.53
        c0.734-1.521,1.852-3.473,3.41-3.968V1.5C12,0.672,12.672,0,13.5,0h24C38.328,0,39,0.672,39,1.5v27C39,29.328,38.328,30,37.5,30z
         M28.996,18.014c1.1,0,1.991-0.898,1.991-2.007S30.096,14,28.996,14c-1.099,0-1.99,0.898-1.99,2.007S27.897,18.014,28.996,18.014z
         M25.208,32.084c0.106,0.177,0.185,0.349,0.282,0.523c0.153,0.008,0.32,0.023,0.464,0.023c0.604,0,0.928-0.066,1.081-0.113
        c0.15-0.611,0.099-1.495-0.074-2.518h-2.43C24.652,30.782,24.854,31.494,25.208,32.084z M16.963,25.932
        c-0.08,2.465-2.118,5.355-3.27,5.355c-0.686,0-1.369-0.265-1.509-0.346l-0.154-0.826v-8.254c-2.586,6.387-5.75,10.168,0.896,15.228
        C16.162,39.553,16.765,43.196,17,45h6c0.807-1.548,2.155-6.355-0.894-11.416c-1.196-1.988-1.075-4.4-1.095-6.734
        c-0.004-0.496,0.025-1.001,0.01-1.505c-0.121-3.879-0.617-4.409-1.877-4.409C17.721,20.979,17.101,21.604,16.963,25.932z M21.004,6
        c-1.109,0-2.008,0.893-2.008,1.995s0.898,1.994,2.008,1.994s2.008-0.893,2.008-1.994S22.113,6,21.004,6z M30.537,6.465
        c-0.762-0.762-1.818-0.495-2.58,0.268l-8.274,8.275c-0.762,0.762-0.94,1.729-0.179,2.491s1.729,0.583,2.491-0.178l8.274-8.275
        C31.031,8.283,31.299,7.227,30.537,6.465z"/>
</svg>
