<svg xmlns="http://www.w3.org/2000/svg" width="48" height="48" viewBox="0 0 48 48">
    <path d="M40.479,45.658c-0.256,0.271-0.547,0.447-0.891,0.455
        c-0.359,0.008-0.766-0.129-1.206-0.347L24,37.004L9.62,45.766c-0.441,0.219-0.848,0.355-1.207,0.348
        c-0.344-0.008-0.635-0.184-0.892-0.454C7.203,45.183,7,44.62,7,44V5c0-1.656,1.324-3,2.957-3h28.086C39.676,2,41,3.344,41,5v39
        C41,44.62,40.798,45.182,40.479,45.658z M34.112,16.784c-0.138-0.391-0.474-0.684-0.889-0.773l-5.214-0.843l-2.49-4.587
        c-0.22-0.355-0.616-0.572-1.043-0.572c-0.428,0-0.824,0.217-1.045,0.572l-2.487,4.587l-5.214,0.843
        c-0.415,0.09-0.751,0.383-0.888,0.773c-0.137,0.39-0.054,0.821,0.219,1.137l3.7,3.761l-0.741,5.054
        c-0.034,0.407,0.151,0.802,0.489,1.044c0.213,0.153,0.467,0.232,0.725,0.232c0.152,0,0.304-0.028,0.448-0.084l4.793-2.219
        l4.793,2.219c0.146,0.056,0.298,0.084,0.449,0.084c0.256,0,0.512-0.079,0.725-0.232c0.338-0.242,0.523-0.637,0.49-1.043
        l-0.741-5.055l3.7-3.76C34.166,17.605,34.249,17.174,34.112,16.784z"/>
</svg>
