<svg xmlns="http://www.w3.org/2000/svg" width="48" height="48" viewBox="0 0 48 48">
    <path d="M43.5,48.007h-39c-2.485,0-4.5-2.048-4.5-4.574V20.561
        c0-2.526,2.015-4.574,4.5-4.574H9v4.025H4v3.975h5.934c0.722,0.929,1.716,2.187,2.469,3.052c1.718,1.974,3.514,3.62,5.151,4.948H4
        v12.027h40V31.986H30.446c1.638-1.328,3.435-2.975,5.151-4.948c0.752-0.865,1.747-2.123,2.469-3.052H44v-3.975h-5v-4.025h4.5
        c2.485,0,4.5,2.048,4.5,4.574v22.872C48,45.959,45.985,48.007,43.5,48.007z M31.143,26.842c-2.065,2.117-4.427,3.857-5.65,4.706
        c-0.436,0.302-0.965,0.453-1.493,0.453c-0.53,0-1.06-0.152-1.496-0.455c-0.982-0.684-3.501-2.512-5.65-4.715
        c-2.283-2.34-4.052-5.028-4.54-5.796c-0.403-0.636-0.388-1.407,0.041-2.029c0.429-0.623,1.207-1.005,2.048-1.005H17V15h-5
        c-0.845,0-2-0.812-2-1.68V2.007C10,1.139,10.628,0,12,0h5.208c0.726,0.013,0.987,0.197,1.415,0.668
        c0.037,0.041,0.094,0.078,0.159,0.113l11.805,11.79c0.268,0.286,0.409,0.525,0.409,1.14c0,0.006,0.004,0.01,0.004,0.016v4.274h2.599
        c0.841,0,1.62,0.382,2.049,1.006c0.429,0.623,0.443,1.396,0.038,2.03C35.191,21.813,33.402,24.525,31.143,26.842z M23.734,9.734
        c-0.488,0.17-1.022,0.251-1.582,0.251c-2.294,0-4.155-1.861-4.155-4.157c0-0.561,0.083-1.092,0.253-1.577L17,3h-4v9h13L23.734,9.734
        z M15.499,6.003c0.833,0,1.508,0.673,1.508,1.504c0,0.83-0.675,1.504-1.508,1.504s-1.507-0.674-1.507-1.504
        C13.991,6.676,14.666,6.003,15.499,6.003z"/>
</svg>
