<svg xmlns="http://www.w3.org/2000/svg" width="48" height="48" viewBox="0 0 48 48">
    <path d="M22.892,43.506l-1.172-1.172l-1.147,1.321c-0.18,0.207-0.421,0.323-0.672,0.323
        h-1.094c-0.25,0-0.49-0.116-0.671-0.323l-1.611-1.854l-1.611,1.854c-0.18,0.207-0.421,0.323-0.671,0.323h-1.094
        c-0.251,0-0.491-0.116-0.671-0.323l-1.611-1.854l-1.612,1.854c-0.18,0.207-0.42,0.323-0.671,0.323H7.489
        c-0.251,0-0.491-0.116-0.671-0.323l-1.611-1.854l-1.611,1.854c-0.18,0.207-0.421,0.323-0.672,0.323H1.396
        c-0.759,0-1.376-0.731-1.376-1.629V1.629C0.02,0.731,0.634,0,1.39,0h1.534c0.251,0,0.492,0.116,0.672,0.323l1.611,1.854l1.611-1.854
        C6.998,0.116,7.238,0,7.489,0h1.094c0.251,0,0.491,0.116,0.671,0.323l1.612,1.854l1.611-1.854C12.657,0.116,12.897,0,13.148,0h1.094
        c0.25,0,0.491,0.116,0.671,0.323l1.611,1.854l1.612-1.854C18.316,0.116,18.557,0,18.807,0H19.9c0.251,0,0.491,0.116,0.672,0.323
        l1.611,1.854l1.611-1.854C23.975,0.116,24.216,0,24.466,0h1.094c0.251,0,0.491,0.116,0.671,0.323l1.611,1.854l1.611-1.854
        C29.634,0.116,29.874,0,30.125,0h1.534c0.756,0,1.37,0.731,1.37,1.629v15.862l0.77-0.77c0.99-0.991,2.598-0.991,3.588,0l6.133,6.135
        L22.892,43.506z M29.027,4.721c-0.444,0.216-0.917,0.323-1.389,0.323c-0.948,0-1.896-0.435-2.619-1.303L24.86,3.55l-0.159,0.191
        c-0.724,0.868-1.672,1.303-2.619,1.303c-0.948,0-1.896-0.435-2.619-1.303L19.304,3.55l-0.16,0.191
        c-0.724,0.868-1.671,1.303-2.619,1.303c-0.947,0-1.896-0.435-2.619-1.303L13.746,3.55l-0.159,0.191
        c-0.724,0.868-1.671,1.303-2.619,1.303S9.072,4.609,8.349,3.741L8.189,3.55L8.03,3.741C7.307,4.609,6.358,5.044,5.41,5.044
        c-0.472,0-0.943-0.107-1.389-0.323v34.551c0.444-0.217,0.917-0.323,1.389-0.323c0.948,0,1.897,0.435,2.62,1.303l0.159,0.19
        l0.159-0.19c0.723-0.868,1.671-1.303,2.619-1.303s1.896,0.435,2.619,1.303l0.159,0.19l0.159-0.19
        c0.723-0.868,1.672-1.303,2.619-1.303c0.948,0,1.897,0.435,2.619,1.303l0.16,0.19l0.159-0.19c0.027-0.033,0.06-0.055,0.088-0.086
        l-2.8-2.801c-0.991-0.991-0.991-2.599,0-3.59l12.276-12.28V4.721z M7.515,22.505c0-0.828,0.671-1.5,1.499-1.5h10.493
        c0.828,0,1.499,0.672,1.499,1.5c0,0.829-0.671,1.501-1.499,1.501H9.014C8.186,24.006,7.515,23.334,7.515,22.505z M10.513,10.503
        c0-0.829,0.671-1.501,1.499-1.501h8.994c0.828,0,1.499,0.672,1.499,1.501c0,0.828-0.671,1.5-1.499,1.5h-8.994
        C11.184,12.003,10.513,11.331,10.513,10.503z M22.505,15.004h1.499c0.828,0,1.499,0.672,1.499,1.5c0,0.829-0.671,1.5-1.499,1.5
        h-1.499c-0.828,0-1.499-0.671-1.499-1.5C21.006,15.676,21.677,15.004,22.505,15.004z M18.008,16.504c0,0.829-0.671,1.5-1.499,1.5
        H9.014c-0.828,0-1.499-0.671-1.499-1.5c0-0.828,0.671-1.5,1.499-1.5h7.495C17.337,15.004,18.008,15.676,18.008,16.504z
         M9.014,27.007h4.497c0.828,0,1.499,0.671,1.499,1.5c0,0.828-0.671,1.5-1.499,1.5H9.014c-0.828,0-1.499-0.672-1.499-1.5
        C7.515,27.678,8.186,27.007,9.014,27.007z M46.132,25.469l1.125,1.125c0.991,0.992,0.991,2.6,0,3.59L30.209,47.237
        c-0.99,0.991-2.597,0.991-3.588,0l-1.118-1.118L46.132,25.469z"/>
</svg>
