<svg xmlns="http://www.w3.org/2000/svg" width="48" height="48" viewBox="0 0 48 48">
    <path d="M43.5,40h-39C2.015,40,0,37.953,0,35.429V12.571C0,10.047,2.015,8,4.5,8h39
        c2.485,0,4.5,2.047,4.5,4.571v22.857C48,37.953,45.985,40,43.5,40z M38,19.999c0,0-0.154-0.022-0.414-0.058h0.404l-13.131-5.869
        c-0.173-0.101-0.454-0.101-0.627,0L11.01,19.993h0.031C11.026,19.995,11,19.999,11,19.999s0,0.749,0,1.199s0.378,0.815,0.844,0.815
        h2.121l-0.434,6.996H12.75c-0.414,0-0.75,0.336-0.75,0.751v1.501c0,0.415,0.336,0.751,0.75,0.751h6.836
        c-0.041,0.14-0.086,0.278-0.086,0.431c0,0.842,0.672,1.523,1.5,1.523h6c0.828,0,1.5-0.682,1.5-1.523
        c0-0.152-0.045-0.291-0.086-0.431h6.836c0.414,0,0.75-0.336,0.75-0.751v-1.501c0-0.415-0.336-0.751-0.75-0.751h-0.775l-0.434-6.996
        h3.115c0.467,0,0.844-0.365,0.844-0.815S38,19.999,38,19.999z M28.475,29.01l-0.434-6.996h3.924l-0.434,6.996H28.475z M22.475,29.01
        l-0.434-6.996h3.924l-0.434,6.996H22.475z M16.475,29.01l-0.434-6.996h3.923l-0.434,6.996H16.475z"/>
</svg>
