<svg xmlns="http://www.w3.org/2000/svg" width="48" height="48" viewBox="0 0 48 48">
    <path d="M40.5,46h-1.668c-0.273,0-0.535-0.106-0.731-0.297l-1.758-1.709l-1.757,1.709
        C34.39,45.894,34.127,46,33.854,46h-1.192c-0.273,0-0.536-0.106-0.731-0.297l-1.758-1.709l-1.758,1.709
        C28.219,45.894,27.955,46,27.682,46H26.49c-0.273,0-0.537-0.106-0.732-0.297L24,43.994l-1.758,1.709
        C22.047,45.894,21.784,46,21.511,46h-1.192c-0.273,0-0.536-0.106-0.732-0.297l-1.758-1.709l-1.757,1.709
        C15.875,45.894,15.612,46,15.339,46h-1.193c-0.273,0-0.536-0.106-0.731-0.297l-1.758-1.709L9.9,45.703
        C9.704,45.894,9.441,46,9.168,46H7.5C6.673,46,6,45.327,6,44.5v-41C6,2.673,6.67,2,7.494,2h1.674C9.441,2,9.704,2.106,9.9,2.297
        l1.757,1.709l1.758-1.709C13.611,2.106,13.873,2,14.146,2h1.193c0.273,0,0.536,0.106,0.732,0.297l1.758,1.709l1.757-1.709
        C19.782,2.106,20.045,2,20.318,2h1.192c0.273,0,0.536,0.106,0.731,0.297L24,4.006l1.758-1.709C25.953,2.106,26.217,2,26.49,2h1.191
        c0.273,0,0.536,0.106,0.732,0.297l1.758,1.709l1.758-1.709C32.125,2.106,32.388,2,32.661,2h1.192c0.273,0,0.535,0.106,0.732,0.297
        l1.757,1.709l1.758-1.709C38.297,2.106,38.559,2,38.832,2h1.674C41.33,2,42,2.673,42,3.5v41C42,45.327,41.327,46,40.5,46z M13.5,37
        h12c0.828,0,1.5-0.672,1.5-1.5S26.328,34,25.5,34h-12c-0.828,0-1.5,0.672-1.5,1.5S12.672,37,13.5,37z M13.572,29h7.857
        C22.297,29,23,28.328,23,27.5S22.297,26,21.429,26h-7.857C12.704,26,12,26.672,12,27.5S12.704,29,13.572,29z M13.5,19
        c-0.828,0-1.5,0.672-1.5,1.5s0.672,1.5,1.5,1.5h12c0.828,0,1.5-0.672,1.5-1.5S26.328,19,25.5,19H13.5z M28.5,10h-9
        c-0.829,0-1.5,0.672-1.5,1.5s0.671,1.5,1.5,1.5h9c0.828,0,1.5-0.672,1.5-1.5S29.328,10,28.5,10z M34.666,19h-1.332
        C32.598,19,32,19.672,32,20.5s0.598,1.5,1.334,1.5h1.332C35.403,22,36,21.328,36,20.5S35.403,19,34.666,19z M34.666,26h-1.332
        C32.598,26,32,26.672,32,27.5s0.598,1.5,1.334,1.5h1.332C35.403,29,36,28.328,36,27.5S35.403,26,34.666,26z M34.666,34h-1.332
        C32.598,34,32,34.672,32,35.5s0.598,1.5,1.334,1.5h1.332C35.403,37,36,36.328,36,35.5S35.403,34,34.666,34z"/>
</svg>
