<svg xmlns="http://www.w3.org/2000/svg" width="48" height="48" viewBox="0 0 48 48">
    <path d="M43.5,44.009h-39c-2.485,0-4.5-2.048-4.5-4.574V16.562
        c0-2.526,2.015-4.574,4.5-4.574H9v4.025H4v3.975h5.934c0.722,0.929,1.716,2.187,2.469,3.052c1.717,1.974,3.514,3.62,5.151,4.948H4
        v12.027h40V27.988H30.446c1.638-1.328,3.435-2.975,5.151-4.948c0.752-0.865,1.747-2.123,2.469-3.052H44v-3.975h-5v-4.025h4.5
        c2.485,0,4.5,2.048,4.5,4.574v22.872C48,41.961,45.985,44.009,43.5,44.009z M31.143,22.844c-2.065,2.117-4.427,3.857-5.65,4.705
        c-0.436,0.303-0.965,0.454-1.493,0.454c-0.53,0-1.06-0.152-1.496-0.455c-0.983-0.684-3.501-2.512-5.65-4.715
        c-2.283-2.34-4.052-5.028-4.54-5.796c-0.403-0.636-0.388-1.407,0.041-2.029c0.429-0.623,1.207-1.005,2.048-1.005h2.589L17,6.107
        C17,4.391,18.254,3,19.8,3h8.4C29.746,3,31,4.391,31,6.107v7.896h2.599c0.842,0,1.62,0.382,2.049,1.006s0.443,1.396,0.038,2.03
        C35.191,17.815,33.402,20.528,31.143,22.844z"/>
</svg>
