<svg xmlns="http://www.w3.org/2000/svg" width="48" height="48" viewBox="0 0 48 48">
    <path d="M43.5,40H18.714c2.036-2.566,3.212-6.162,3.212-10.91
        c0-0.964,0.404-1.222,1.556-1.521c0.647-0.169,1.22-0.333,1.61-0.455c1.508-0.472,1.612-0.964,1.079-1.942
        c-0.587-1.078-4.169-7.277-4.169-8.054v-3.984c0-0.418-0.352-1.135-1.297-1.135c-0.079,0-0.148,0.012-0.219,0.021
        c-0.07-0.01-0.14-0.021-0.219-0.021c-0.944,0-1.281,0.717-1.281,1.135v4.063c0,1.463,3.186,6.464,3.617,7.444
        c0.258,0.581,0.076,0.799-0.604,1.017c-0.721,0.16-1.02,0.233-1.551,0.382c-1.437,0.391-1.547,1.58-1.547,3.05
        c0,5.406-1.818,8.852-4.437,10.91H4.5C2.015,40,0,37.953,0,35.429V12.571C0,10.047,2.015,8,4.5,8h39c2.485,0,4.5,2.047,4.5,4.571
        v22.857C48,37.953,45.985,40,43.5,40z M6.514,28.795c-0.258-0.645-1.01-0.965-1.678-0.717c-0.668,0.25-1,0.973-0.742,1.617
        c1.531,3.822,4.877,4.312,7.619,4.312c0.716,0,1.298-0.561,1.298-1.251s-0.582-1.25-1.298-1.25
        C8.676,31.507,7.317,30.797,6.514,28.795z M10.505,14.012c-1.382,0-2.507,1.12-2.507,2.494c0,1.383,1.125,2.498,2.507,2.498
        c1.385,0,2.51-1.115,2.51-2.498C13.015,15.132,11.89,14.012,10.505,14.012z"/>
</svg>
