<svg xmlns="http://www.w3.org/2000/svg" width="48" height="48" viewBox="0 0 48 48">
    <path d="M38.438,36.935l3.045,4.493c1.674,2.558,1.829,4.572-0.9,4.572
        c0,0-0.001,0-0.002,0h-1.67l-1.346-2H10.108l-1.346,2H7.583c0,0-0.001,0-0.001,0c-2.882,0-2.695-2.238-0.75-5
        c0.069-0.099,0.118-0.193,0.155-0.285l2.406-3.747c-2.562-0.169-4.504-2.277-4.388-4.853L6.688,5.142C6.792,2.844,8.635,1,11.114,1
        H36.3c2.479,0,4.572,1.844,4.676,4.142l1.518,26.974C42.604,34.578,40.832,36.611,38.438,36.935z M34.873,40l-2.018-3H14.817
        l-2.018,3H34.873z M35.596,30c0-1.664-1.35-3.013-3.014-3.013S29.568,28.336,29.568,30s1.35,3.014,3.014,3.014
        S35.596,31.664,35.596,30z M14.582,33.014c1.664,0,3.013-1.35,3.013-3.014s-1.349-3.013-3.013-3.013S11.569,28.336,11.569,30
        S12.918,33.014,14.582,33.014z M36.438,8H11.227l-0.895,14h27L36.438,8z"/>
</svg>
