<svg xmlns="http://www.w3.org/2000/svg" width="48" height="48" viewBox="0 0 48 48">
    <path d="M43.593,25.422c-5.118,7.156-15.823,14.539-21.378,18.18
        C21.891,43.857,21.462,44,21.011,44c-0.264,0-0.768-0.049-1.021-0.16c-0.693-0.289-1.345-1.016-1.338-1.793
        c0.899-3.625,2.688-7.17,4.243-11.051H8.052C5.814,30.996,4,29.117,4,26.799v-5.598c0-2.318,1.814-4.197,4.052-4.197h14.592
        c-1.497-3.871-3.141-7.437-3.991-11.051c-0.007-0.777,0.645-1.504,1.338-1.793C20.244,4.049,20.63,4,20.893,4
        c0.451,0.001,0.942,0.143,1.266,0.4c5.56,3.646,16.273,11.012,21.418,18.177c0.278,0.377,0.427,0.89,0.427,1.423
        C44.004,24.533,43.869,25.045,43.593,25.422z"/>
</svg>
