<svg xmlns="http://www.w3.org/2000/svg" width="48" height="48" viewBox="0 0 48 48">
    <path d="M47.415,31.12c-0.879,1.396-3.229,4.973-6.062,8.026
        c-3.008,3.242-6.464,5.755-7.451,6.447c-0.816,0.573-1.809,0.551-2.609-0.058C30.491,44.927,30,43.821,30,42.627v-2.649h-7.561
        c-1.496-0.041-1.683-0.41-2.388-1.109c-0.017-0.017-0.025-0.016-0.041-0.03L1.008,19.82c-0.002-0.002-0.001-0.003-0.003-0.005
        c-0.944-0.848-1.003-1.41-1.003-2.354c0-0.004-0.002-0.006-0.002-0.01V5.572C-0.001,4.152,1.13,3,2.524,3h18.942
        c1.395,0,2.526,1.152,2.526,2.572v12.422H30V15.36c0-1.195,0.491-2.301,1.294-2.91c0.801-0.608,1.794-0.629,2.61-0.054
        c0.998,0.702,4.485,3.243,7.462,6.452c2.723,2.934,4.96,6.288,6.051,8.026C47.806,27.494,48,28.245,48,28.996
        C48,29.748,47.805,30.501,47.415,31.12z M9.51,23.16c0.293-0.1,0.597-0.169,0.917-0.169c1.957,0,3.542,1.297,3.573,4.378
        l1.922,1.803c0.208-0.76,0.277-1.59,0.277-2.496c0-3.409-2.394-5.989-4.978-5.989c-1.182,0-2.597,0.119-3.671,0.638L9.51,23.16z
         M19.999,10.002c-0.002,0-0.004,0.001-0.007,0.001c-1.657,0-3.001-1.344-3.001-3.001c0-0.003,0.001-0.005,0.001-0.008h-10
        c0,0.003,0.001,0.005,0.001,0.008c0,1.655-1.34,2.996-2.994,3v7.992l1.65,1.547c1.396-1.08,3.127-1.549,5.02-1.549
        c4.604,0,8.335,3.693,8.335,8.62c0,1.577-0.328,3.181-0.958,4.551l1.953,1.831V10.002z M12.003,13.988
        c-1.105,0-2.001-0.896-2.001-2.001s0.896-2.001,2.001-2.001c1.105,0,2.002,0.896,2.002,2.001S13.108,13.988,12.003,13.988z"/>
</svg>
