<svg xmlns="http://www.w3.org/2000/svg" width="48" height="48" viewBox="0 0 48 48">
    <path d="M24.033,45.932c-12.131,0-21.966-9.834-21.966-21.966
        C2.067,11.834,11.902,2,24.033,2C36.165,2,46,11.834,46,23.965C46,36.098,36.165,45.932,24.033,45.932z M38.229,18.351l-3.813-4.338
        c0,0-1.288,2.048-3.35,3.193c-2.062,1.145-5.566-0.047-5.566-0.047s-1.134-3.242,1.031-4.243l3.195-0.047
        c0,0-0.671-1.669-0.258-3.194c0.412-1.524,1.34-0.19,2.988-1.334c0.127-0.088,0.25-0.136,0.371-0.169
        c-2.605-1.454-5.603-2.29-8.798-2.29c-1.071,0-2.115,0.111-3.136,0.29c-0.012,0.918-1.391,1.882-2.93,2.549
        c-0.543,0.236-1.4,0.281-2.225,0.203c-0.261,0.454-0.532,1.027-0.701,1.832c-0.294,2.078-1.811,2.437-1.927,2.353
        c-0.009-0.004-0.09,1.107,0.853,2.325c1.038,1.282,0.936,3.785,0.664,4.211c-0.013,0.067-0.05,0.104-0.104,0.113
        c-0.054,0.009-0.126-0.008-0.213-0.051c-0.175-0.086-0.416-0.277-0.724-0.574c-0.596-0.58-1.551-1.647-2.023-2.623
        c-0.914-1.845-2.008-1.618-3.081-1.75c-1.427,2.404-2.308,5.162-2.484,8.116c0.683-0.263,1.328-0.557,1.685-0.719
        c0.964-0.438,3.694-0.877,4.017,0.292c0.32,1.167,3.924,2.189,5.049,2.482c1.124,0.292,3.373,0.438,4.659,1.605
        c1.285,1.168-0.964,3.359-1.125,4.09s-1.675,2.482-2.318,3.65c-0.643,1.168-0.964,1.605-1.767,2.189
        c-0.804,0.585-1.286,1.607-1.286,1.607l0.132,1.578c2.649,1.521,5.712,2.404,8.986,2.404c3.894,0,7.491-1.242,10.442-3.336
        c-0.396-2.773-1.383-6.412-3.84-7.447c-0.521,0.916,0.292,2.191-2.13,2.179c-4.492-0.026-4.26-6.536-4.26-6.536
        c-0.792-4.853,1.988-2.121,2.13-4.359c0.146-2.295,4.63-2.735,9.16-1.478c4.531,1.257,5.892-0.583,5.892-0.583l0.334-0.112
        c-0.317-1.578-0.854-3.073-1.554-4.474C39.927,16.948,39.26,18.879,38.229,18.351z"/>
</svg>
