<svg xmlns="http://www.w3.org/2000/svg" width="48" height="48" viewBox="0 0 48 48">
    <path d="M43.938,10.031c1.614,0,2.145,0.648,1.754,3.161c0,0.004,0.001,0.006,0,0.01
        C44.937,18.851,42.34,30,33.603,30c-8.515,0-15.519,0-18.713,0c0.07,0.359,0.11,0.566,0.11,0.566S15.97,33,18.09,33
        c4.78,0,19.902,0,22.41,0c1.854,0,1.834,3.275-1.898,4.984C39.451,38.719,40,39.789,40,41c0,2.209-1.791,4-4,4s-4-1.791-4-4
        c0-0.732,0.211-1.41,0.555-2c-6.58,0-10.995,0-13.109,0C19.789,39.59,20,40.268,20,41c0,2.209-1.791,4-4,4s-4-1.791-4-4
        c0-1.316,0.645-2.475,1.626-3.203C11.74,36.686,9.788,34.56,9,30.451C7.607,23.188,6.069,13.675,6,12c-0.07-1.692-1-2-1-2l0,0
        c-1.657,0-3-1.343-3-3s1.343-3,3-3l0,0c0,0,6.599,0.113,6.965,6h31.793C43.816,10.013,43.875,10.031,43.938,10.031z"/>
</svg>
