<svg xmlns="http://www.w3.org/2000/svg" width="48" height="48" viewBox="0 0 48 48">
    <path d="M43.5,37H32.986v2H34.5c0.828,0,1.5,0.746,1.5,1.667v1.667
        C36,43.254,35.328,44,34.5,44h-21c-0.828,0-1.5-0.746-1.5-1.666v-1.667C12,39.746,12.672,39,13.5,39h1.514v-2H4.5
        C2.015,37,0,34.953,0,32.429V9.572C0,7.047,2.015,5,4.5,5h39C45.985,5,48,7.047,48,9.572v22.857C48,34.953,45.985,37,43.5,37z
         M20.717,14h-9.941c-0.843,0-1.604,0.597-1.697,1.333l-0.17,1.333C8.814,17.403,9.422,18,10.266,18h2.816l-1.537,9.5
        c-0.134,0.828,0.429,1.5,1.258,1.5h1.5c0.828,0,1.608-0.672,1.742-1.5l1.537-9.5h2.624c0.844,0,1.604-0.597,1.698-1.333l0.17-1.333
        C22.168,14.597,21.561,14,20.717,14z M39.229,14h-1.5c-0.828,0-1.848,0.672-2.276,1.5l-4.316,8.343L29.52,15.5
        c-0.16-0.828-0.961-1.5-1.79-1.5h-1.5c-0.829,0-1.37,0.672-1.21,1.5l2.326,12c0.16,0.828,0.962,1.5,1.791,1.5h0.832h0.668h0.832
        c0.828,0,1.847-0.672,2.275-1.5l6.209-12C40.382,14.672,40.059,14,39.229,14z"/>
</svg>
