<svg xmlns="http://www.w3.org/2000/svg" width="48" height="48" viewBox="0 0 48 48">
    <path d="M42.192,10.482c1.244-0.157,2.445-0.448,3.606-0.837
        c0.062,0.005,0.131,0.002,0.22-0.029c0.958-0.335,1.11-0.001,0.897,0.529c-1.145,1.541-2.482,2.918-3.986,4.064
        c0.02,0.443,0.029,0.89,0.029,1.338c0,13.675-9.848,29.443-27.854,29.443c-4.109,0-8.006-0.95-11.517-2.643
        c-1.603-0.951-2.005-2.046,0.581-1.906c0.263,0.014,0.439-0.038,0.578-0.115c3.687-0.456,7.067-1.97,9.845-4.271
        c-4.284-0.083-7.899-3.075-9.145-7.187c0.598,0.121,1.211,0.187,1.842,0.187c0.893,0,1.757-0.127,2.579-0.363
        c-4.479-0.951-7.853-5.134-7.853-10.147c0-0.044,0-0.087,0.001-0.13c1.319,0.774,2.829,1.24,4.434,1.294
        c-2.627-1.855-4.355-5.022-4.355-8.613c0-0.37,0.034-0.731,0.069-1.092c0.04-0.37,0.091-0.697,0.151-0.99
        c0.005-0.03,0.011-0.06,0.017-0.09c0.475-2.168,1.6-2.104,4.164,0.375c0.078,0.075,0.155,0.105,0.233,0.163
        c4.563,4.212,10.415,6.901,16.869,7.244c-0.167-0.758-0.253-1.548-0.253-2.358C23.345,8.634,27.729,4,33.135,4
        c2.815,0,5.359,1.257,7.146,3.269c1.717-0.357,3.351-0.955,4.877-1.75c0.938-0.205,0.556,1.062,0.003,1.997
        C44.369,8.705,43.375,9.732,42.192,10.482z"/>
</svg>
