<svg xmlns="http://www.w3.org/2000/svg" width="48" height="48" viewBox="0 0 48 48">
    <path d="M40.506,2h-1.674c-0.273,0-0.535,0.109-0.731,0.304L36.343,4.05l-1.758-1.746
        C34.39,2.109,34.127,2,33.854,2h-1.192c-0.273,0-0.536,0.109-0.732,0.304L30.172,4.05l-1.758-1.746
        C28.218,2.109,27.955,2,27.682,2h-1.192c-0.273,0-0.535,0.109-0.731,0.304L24,4.05l-1.758-1.746C22.047,2.109,21.784,2,21.511,2
        h-1.192c-0.273,0-0.536,0.109-0.732,0.304L17.829,4.05l-1.758-1.746C15.875,2.109,15.612,2,15.339,2h-1.192
        c-0.273,0-0.536,0.109-0.731,0.304L11.657,4.05L9.899,2.304C9.703,2.109,9.441,2,9.168,2H7.494C6.67,2,6,2.688,6,3.533v40.934
        C6,45.312,6.673,46,7.5,46h1.668c0.273,0,0.535-0.109,0.731-0.304l1.758-1.746l1.758,1.746C13.61,45.891,13.873,46,14.146,46
        h1.192c0.273,0,0.536-0.109,0.732-0.304l1.758-1.746l1.757,1.746C19.782,45.891,20.045,46,20.318,46h1.192
        c0.273,0,0.536-0.109,0.731-0.304L24,43.95l1.758,1.746C25.953,45.891,26.216,46,26.489,46h1.192c0.273,0,0.536-0.109,0.732-0.304
        l1.757-1.747l1.758,1.747C32.125,45.891,32.388,46,32.661,46h1.192c0.273,0,0.536-0.109,0.732-0.304l1.757-1.747l1.758,1.747
        C38.297,45.891,38.559,46,38.832,46H40.5c0.827,0,1.5-0.688,1.5-1.533V3.533C42,2.688,41.33,2,40.506,2z M32.252,24.656
        L20.23,35.887c-0.316,0.295-0.829,0.295-1.146,0l-2.862-2.674c-0.316-0.296-0.316-0.774,0-1.07l8.588-8.021L16.223,16.1
        c-0.316-0.295-0.316-0.773,0-1.069l2.862-2.674c0.316-0.295,0.829-0.295,1.146,0l12.021,11.23
        C32.568,23.882,32.568,24.361,32.252,24.656z"/>
</svg>
