<svg xmlns="http://www.w3.org/2000/svg" width="48" height="48" viewBox="0 0 48 48">
    <path d="M24,2C11.85,2,2,11.862,2,24.027c0,12.166,9.85,22.028,22,22.028s22-9.862,22-22.028C46,11.862,36.15,2,24,2z M24,42.051
        c-9.941,0-18-8.068-18-18.022S14.059,6.005,24,6.005s18,8.069,18,18.023S33.941,42.051,24,42.051z M35.053,27.651L25,24.283
        V12.904c0-0.822-0.632-1.5-1.502-1.5c-0.871,0-1.498,0.678-1.498,1.5v11.201l-4.87,4.576c-0.491,0.464-0.627,1.846-0.136,2.31
        c0.49,0.463,1.35,0.527,1.84,0.064L25,25.783l9.752,3.25c0.842,0.213,1.137-0.04,1.221-0.33
        C36.057,28.411,35.893,27.864,35.053,27.651z"/>
</svg>
