<svg xmlns="http://www.w3.org/2000/svg" width="48" height="48" viewBox="0 0 48 48">
    <path d="M37,43H11c-3.313,0-6-2.721-6-6.077v-5.552c0-0.001,0-0.001,0-0.001v-2.731
        c0-0.355,0.269-0.643,0.6-0.643H10.4c0.331,0,0.6,0.287,0.6,0.643v0.993v1.738v5.64h26v-5.64v-1.738v-0.993
        c0-0.355,0.269-0.643,0.6-0.643H42.4c0.331,0,0.6,0.287,0.6,0.643v0.993l0,0v7.291C43,40.279,40.313,43,37,43z M32.799,20.009
        h-2.794V28c0,1.655-1.345,2.997-3.003,2.997h-6.004c-1.658,0-3.002-1.342-3.002-2.997v-7.991h-2.795
        c-0.771,0-1.485-0.409-1.878-1.077c-0.393-0.669-0.406-1.496-0.035-2.177c0.453-0.831,2.094-3.737,4.164-6.218
        c1.894-2.269,4.059-4.133,5.18-5.042c0.4-0.324,0.885-0.486,1.369-0.486c0.485,0,0.972,0.163,1.371,0.488
        c0.901,0.732,3.209,2.69,5.18,5.051c2.093,2.508,3.714,5.388,4.161,6.21c0.37,0.681,0.355,1.508-0.037,2.175
        C34.282,19.6,33.569,20.009,32.799,20.009z"/>
</svg>
