<svg xmlns="http://www.w3.org/2000/svg" width="48" height="48" viewBox="0 0 48 48">
    <path d="M41.188,31.547C37.329,40.666,29.443,48,24,48
        c-5.444,0-13.329-7.334-17.189-16.453C3.08,30.934,3.016,23.45,3.016,23.45c-0.125-1.062,0.495-2.033,1.497-2.594
        C4.577,7.691,13.274,0,24,0c10.726,0,19.423,7.691,19.487,20.855c1.002,0.561,1.621,1.532,1.497,2.594
        C44.984,23.45,44.921,30.934,41.188,31.547z M39.171,22.62c0.057-0.586,0.096-1.172,0.096-1.754
        c-0.828,0.069-1.666,0.114-2.52,0.114c-6.364,0-12.072-1.993-16.04-5.153c0.253,2.173,1.02,4.499,2.903,6.22
        c0,0-4.911,0.602-9.501-4.317c-1.578,1.41-3.382,2.572-5.361,3.412c0.008,0.489,0.054,0.979,0.101,1.471
        c-1.09,0.326-1.653,1.883-1.256,3.546s1.603,2.797,2.722,2.597C13.236,36.452,19.622,42.954,24,42.954
        c4.378,0,10.777-6.5,13.702-14.198c1.115,0.186,2.31-0.943,2.705-2.598C40.802,24.507,40.247,22.96,39.171,22.62z M29.998,30
        c-1.656,0-2.999-1.33-2.999-2.969c0-1.641,1.343-2.971,2.999-2.971c1.655,0,2.999,1.33,2.999,2.971
        C32.997,28.67,31.653,30,29.998,30z M29.998,34.907c0,1.647-3.514,2.733-5.998,2.733c-2.485,0-5.998-1.086-5.998-2.733
        s3.513-0.36,5.998-0.36C26.484,34.547,29.998,33.26,29.998,34.907z M18.002,30c-1.656,0-2.999-1.33-2.999-2.969
        c0-1.641,1.343-2.971,2.999-2.971s2.999,1.33,2.999,2.971C21.001,28.67,19.658,30,18.002,30z"/>
</svg>
