<svg xmlns="http://www.w3.org/2000/svg" width="48" height="48" viewBox="0 0 48 48">
    <path d="M24.504,45.99C15.389,45.99,8,45.988,8,39.93c0-4.965,4.226-8.43,9.654-9.694
        c2.252,2.465,3.036,3.68,6.85,3.68c3.807,0,4.586-1.21,6.836-3.666c5.428,1.271,9.66,4.73,9.66,9.681
        C41,45.988,33.619,45.99,24.504,45.99z M24.504,31.093c-4.633,0-12.118-8.331-12.118-16.365C12.386,6.694,17.811,2,24.504,2
        c6.691,0,12.117,4.694,12.117,12.728C36.621,22.762,29.137,31.093,24.504,31.093z M32.572,14.863c-0.049,0-0.096,0.01-0.145,0.01
        c-4.025,0-7.586-1.223-10.045-3.127c0.045,1.54,0.369,3.729,2.141,5.415c0,0-4.881-1.127-6.802-3.744
        c-0.389,0.29-0.799,0.559-1.23,0.801c-0.021,0.274-0.072,0.53-0.072,0.818c0,5.236,4.994,11.354,8.085,11.354
        c3.092,0,8.084-6.118,8.084-11.354C32.588,14.975,32.574,14.923,32.572,14.863z"/>
</svg>
