<svg xmlns="http://www.w3.org/2000/svg" width="48" height="48" viewBox="0 0 48 48">
    <path d="M43.5,44h-39C2.015,44,0,41.985,0,39.499V9.493c0-2.486,2.015-4.501,4.5-4.501h39
        c2.485,0,4.5,2.015,4.5,4.501v30.006C48,41.985,45.985,44,43.5,44z M6.5,7.993c-0.828,0-1.499,0.672-1.499,1.5
        s0.671,1.499,1.499,1.499s1.499-0.671,1.499-1.499S7.328,7.993,6.5,7.993z M43,12.994H5v26.005h38V12.994z M12,15.994h24
        c1.657,0,3,1.378,3,3.078v13.849c0,1.7-1.343,3.078-3,3.078H12c-1.657,0-3-1.378-3-3.078V19.072C9,17.372,10.343,15.994,12,15.994z
         M31.333,31.999h2.934c0.405,0,0.733-0.448,0.733-1.001c0-0.552-0.328-1-0.733-1h-2.934c-0.404,0-0.733,0.448-0.733,1
        C30.6,31.551,30.929,31.999,31.333,31.999z M25.467,31.999H28.4c0.404,0,0.732-0.448,0.732-1.001c0-0.552-0.328-1-0.732-1h-2.934
        c-0.405,0-0.733,0.448-0.733,1C24.733,31.551,25.062,31.999,25.467,31.999z M19.6,31.999h2.934c0.405,0,0.733-0.448,0.733-1.001
        c0-0.552-0.328-1-0.733-1H19.6c-0.404,0-0.732,0.448-0.732,1C18.867,31.551,19.195,31.999,19.6,31.999z M17.667,23.477
        c0.354,0.319,0.818,0.52,1.333,0.52c1.104,0,2-0.896,2-2c0-1.105-0.896-2.001-2-2.001c-0.515,0-0.979,0.2-1.333,0.52
        c0.406,0.366,0.666,0.891,0.666,1.481C18.333,22.586,18.073,23.11,17.667,23.477z M13.733,31.999h2.934
        c0.404,0,0.733-0.448,0.733-1.001c0-0.552-0.329-1-0.733-1h-2.934c-0.405,0-0.733,0.448-0.733,1
        C13,31.551,13.328,31.999,13.733,31.999z M15,23.996c1.104,0,2-0.896,2-2c0-1.105-0.896-2.001-2-2.001s-2,0.896-2,2.001
        C13,23.101,13.896,23.996,15,23.996z"/>
</svg>
