<svg xmlns="http://www.w3.org/2000/svg" width="48" height="48" viewBox="0 0 48 48">
    <path d="M43.5,40h-39C2.015,40,0,37.953,0,35.429V12.571C0,10.047,2.015,8,4.5,8h39
        c2.485,0,4.5,2.047,4.5,4.571v22.857C48,37.953,45.985,40,43.5,40z M13.911,17.005l-2.597,8.419l-2.206-8.419l-3.132,0.002
        l3.644,13.908L9.6,30.977h0.035h3.133l4.31-13.972H13.911z M18.477,17.005l-1.339,13.972h3.167l1.34-13.972H18.477z M23.746,21.008
        c-0.301,5.483,3.534,3.856,3.108,5.638c-0.255,1.062-3.745-0.083-3.745-0.083l-0.807,4.08c0,0,7.113,1.509,7.894-3.477
        c0.689-4.408-3.547-3.424-3.113-5.569c0.294-1.454,3.451-0.589,3.451-0.589l0.972-3.733C31.506,17.274,24.047,15.524,23.746,21.008z
         M37.847,17.005h-0.126H34.68h-0.092l0.045,0.149l-4.264,13.822h3.167l0.45-1.46h4.419l0.445,1.46h3.133l-4.2-13.766L37.847,17.005z
         M34.967,26.342l1.241-4.025l1.229,4.025H34.967z"/>
</svg>
