<svg xmlns="http://www.w3.org/2000/svg" width="48" height="48" viewBox="0 0 48 48">
    <path d="M40.5,45h-33C5.015,45,3,42.986,3,40.502V7.52c0-2.483,2.015-4.497,4.5-4.497h33
        c2.485,0,4.5,2.014,4.5,4.497v32.982C45,42.986,42.985,45,40.5,45z M33.34,25.433c-0.76-1.023-1.849-1.748-3.265-2.173
        c1.004-0.468,1.8-1.171,2.386-2.107s0.879-1.966,0.879-3.088c0-1.034-0.237-1.968-0.713-2.802c-0.476-0.832-1.07-1.5-1.783-2
        c-0.713-0.501-1.521-0.831-2.425-0.989c-0.903-0.157-2.274-0.236-4.113-0.236l-4.783-0.015c-0.008,0-0.015-0.005-0.023-0.005h-3
        c-0.828,0-1.5,0.671-1.5,1.499v20.989c0,0.827,0.672,1.499,1.5,1.499h3c0.011,0,0.02-0.006,0.03-0.006l3.397-0.014
        c2.99-0.022,4.876-0.076,5.658-0.164c1.246-0.141,2.295-0.52,3.146-1.135s1.521-1.438,2.013-2.467
        c0.492-1.029,0.737-2.088,0.737-3.178C34.481,27.659,34.102,26.456,33.34,25.433z M24.568,21.008c-0.182,0-0.358-0.021-0.528-0.056
        h-3.022v-4.443h3.891v0.025c1.174,0.154,2.079,1.09,2.079,2.224C26.988,20,25.905,21.008,24.568,21.008z M24.903,27.023
        c1.173,0.154,2.078,1.089,2.078,2.222c0,1.241-1.083,2.247-2.418,2.247c-0.182,0-0.357-0.02-0.527-0.055h-3.019v-4.439h3.887V27.023
        z"/>
</svg>
