<svg xmlns="http://www.w3.org/2000/svg" width="48" height="48" viewBox="0 0 48 48">
    <path d="M40.103,33.828c0.602,0.46,1.049,0.952,1.346,1.465
        c0.438,0.66,0.723,1.654,0.723,2.78c0,1.058-0.25,1.999-0.643,2.658c-1.537,3-8.657,5.269-17.523,5.269
        c-8.866,0-15.985-2.269-17.523-5.268c-0.392-0.659-0.643-1.601-0.643-2.659c0-1.127,0.286-2.121,0.724-2.781
        c0.297-0.512,0.744-1.004,1.344-1.464C5.468,30.513,4.01,26.432,4.01,22c0-5.876,2.549-11.145,6.583-14.804
        c0.984,1.632,2.448,2.882,4.553,2.882c1.019,0,2.11-0.309,3.244-0.922c1.534-0.827,3.424-1.247,5.615-1.247
        c2.192,0,4.081,0.42,5.615,1.247c1.133,0.613,2.226,0.922,3.242,0.922c2.105,0,3.57-1.25,4.555-2.882C41.451,10.855,44,16.123,44,22
        C44,26.432,42.542,30.513,40.103,33.828z M24.005,10.989c-6.073,0-10.997,4.93-10.997,11.012c0,6.081,4.923,11.011,10.997,11.011
        s10.996-4.93,10.996-11.011C35.001,15.919,30.078,10.989,24.005,10.989z M24.005,26.998c-2.766,0-5.008-2.239-5.008-5.002
        s2.242-5.002,5.008-5.002s5.008,2.239,5.008,5.002S26.771,26.998,24.005,26.998z M32.862,7.579c-0.525,0-1.145-0.19-1.842-0.566
        C29.049,5.95,26.69,5.41,24.005,5.41c-2.684,0-5.044,0.54-7.014,1.603c-0.697,0.376-1.318,0.566-1.845,0.566
        c-1.105,0-1.854-1-2.351-2.142c3.197-2.169,7.055-3.438,11.209-3.438s8.012,1.27,11.209,3.438
        C34.718,6.579,33.969,7.579,32.862,7.579z"/>
</svg>
