<svg xmlns="http://www.w3.org/2000/svg" width="16" height="16" viewBox="0 0 16 16">
    <path d="M13.805,7.5l0.006,0.007l-0.066,0.061c-0.004,0.005-0.008,0.011-0.012,0.015 c-0.006,0.005-0.012,0.008-0.016,0.013l-7.922,7.491v0.002c-0.001,0-0.001,0-0.001,0l-0.262,0.244l-0.027-0.023
        c-1.312,0.979-3.23,0.924-4.457-0.199c-1.226-1.121-1.303-2.895-0.257-4.117l-0.026-0.023l7.087-6.617l0,0l0,0l0.031-0.029
        l0.008,0.006c0.436-0.375,1.115-0.376,1.543,0.016c0.434,0.396,0.438,1.037,0.02,1.444l0.004,0.003L9.441,5.807l0,0l0,0l-4.608,4.3
        c0,0,0.001,0,0.002,0l-2.212,2.068c-0.001,0.002-0.004,0.002-0.005,0.004c-0.002,0.002-0.002,0.004-0.004,0.006l-0.123,0.115
        l0.025,0.021c-0.307,0.404-0.283,0.957,0.108,1.314c0.403,0.369,1.025,0.379,1.461,0.064l0.016,0.014l0.078-0.072
        c0.007-0.006,0.016-0.006,0.021-0.014c0.007-0.006,0.009-0.014,0.015-0.02l2.206-2.051c0,0.002,0,0.002,0,0.004l5.176-5.032
        l-0.004-0.003l0.314-0.293l-0.006-0.006c0.547-0.785,1.311-2.07,0.043-3.352C10.26,1.174,8.322,2.976,7.305,3.844L7.297,3.836
        L7.215,3.913l0,0c0,0.001,0,0.001,0,0.001L6.953,4.158L6.947,4.154l-2.78,2.55L4.161,6.698C3.962,6.871,3.7,6.982,3.406,6.983
        C2.788,6.986,2.285,6.525,2.282,5.955C2.281,5.682,2.398,5.439,2.583,5.253L2.579,5.25l0.022-0.021
        C2.605,5.224,2.609,5.22,2.613,5.217L5.359,2.7l0.026,0.024c0.081-0.089,0.145-0.188,0.236-0.27
        c2.597-2.332,5.449-3.551,7.873-1.192C15.477,3.192,15.42,6.04,13.805,7.5z"/>
</svg>
