<svg  xmlns="http://www.w3.org/2000/svg" width="16" height="16" viewBox="0 0 16 16">
    <path d="M6.99,6.52c0,0.277,0.248,0.502,0.556,0.502h3.889 c0.307,0,0.556-0.225,0.556-0.502c0-0.276-0.249-0.502-0.556-0.502H7.546C7.238,6.018,6.99,6.243,6.99,6.52z M7.654,8.999h2.667
        c0.368,0,0.667-0.219,0.667-0.488c0-0.269-0.299-0.487-0.667-0.487H7.654c-0.368,0-0.666,0.219-0.666,0.487
        C6.988,8.78,7.286,8.999,7.654,8.999z M13.265,0h-7.52C4.787,0,4.011,0.729,4.011,1.627v1.386H2.735C1.777,3.013,1,3.739,1,4.636
        v9.74C1,15.272,1.777,16,2.735,16h7.52c0.958,0,1.734-0.728,1.734-1.624v-1.357h1.275c0.958,0,1.735-0.729,1.735-1.627V1.627
        C15,0.729,14.223,0,13.265,0z M9.99,14.023H3V5.018h1.011V6.66C3.957,6.741,3.917,6.831,3.917,6.933
        c0,0.102,0.04,0.192,0.094,0.273V8.26C3.957,8.341,3.917,8.431,3.917,8.533c0,0.102,0.04,0.191,0.094,0.272V9.86
        c-0.054,0.081-0.094,0.171-0.094,0.272s0.04,0.191,0.094,0.272v0.986c0,0.021,0.006,0.04,0.006,0.061
        c-0.058,0.083-0.1,0.176-0.1,0.281c0,0.214,0.14,0.396,0.34,0.481c0.302,0.479,0.852,0.804,1.488,0.804H9.99V14.023z M13,11.012
        H6.01V2.006H13V11.012z M7.592,5.016h1.806C9.73,5.016,10,4.791,10,4.514c0-0.276-0.27-0.502-0.603-0.502H7.592
        c-0.333,0-0.603,0.226-0.603,0.502C6.989,4.791,7.259,5.016,7.592,5.016z"/>
</svg>
