<svg xmlns="http://www.w3.org/2000/svg" width="16" height="16" viewBox="0 0 16 16">
    <path d="M13.887,1.994H10.62V1.797C10.62,0.805,9.916,0,9.048,0H6.952 C6.084,0,5.38,0.805,5.38,1.797v0.197H2.113C1.499,1.994,1,2.53,1,3.191v0.6c0,0.625,0.45,1.121,1.017,1.176l0.723,9.232
        C2.739,15.193,3.483,16,4.401,16h7.151c0.917,0,1.661-0.807,1.661-1.801l0.761-9.23C14.546,4.918,15,4.418,15,3.791v-0.6
        C15,2.53,14.501,1.994,13.887,1.994z M5.19,14.003c-0.321,0-0.609-0.326-0.645-0.729l-0.61-7.557
        C3.9,5.315,4.132,4.989,4.452,4.989c0.321,0,0.609,0.326,0.645,0.729l0.61,7.557C5.742,13.677,5.511,14.003,5.19,14.003z
         M8.575,13.274c0,0.402-0.258,0.729-0.575,0.729s-0.574-0.326-0.574-0.729L7.18,5.718c0-0.402,0.503-0.729,0.82-0.729
        s0.794,0.326,0.794,0.729L8.575,13.274z M11.412,13.274c-0.035,0.402-0.324,0.729-0.645,0.729c-0.321,0-0.553-0.326-0.518-0.729
        l0.61-7.557c0.035-0.402,0.324-0.729,0.645-0.729c0.321,0,0.553,0.326,0.518,0.729L11.412,13.274z"/>
</svg>
