<svg xmlns="http://www.w3.org/2000/svg" width="16" height="16" viewBox="0 0 16 16">
    <path d="M15.628,11.973c-0.398,0.284-0.955,0.193-1.24-0.203l-0.463-0.642
        c-0.408,0.508-0.888,0.999-1.43,1.436l0.495,1.203c0.193,0.469-0.029,1.006-0.498,1.2c-0.469,0.193-1.005-0.03-1.198-0.499
        l-0.381-0.922c-0.58,0.265-1.211,0.45-1.891,0.53v0.881C9.022,15.533,8.57,16,8.013,16c-0.558,0-1.01-0.467-1.01-1.043v-0.881
        c-0.704-0.083-1.355-0.278-1.952-0.558l-0.392,0.949c-0.193,0.469-0.73,0.692-1.199,0.499c-0.468-0.194-0.691-0.731-0.498-1.2
        l0.514-1.246c-0.52-0.426-0.981-0.902-1.375-1.393L1.638,11.77c-0.286,0.396-0.842,0.487-1.241,0.203
        c-0.399-0.283-0.491-0.835-0.205-1.231L1.05,9.552C0.95,9.367,0.856,9.187,0.776,9.015C-0.126,7.047,1.452,6.275,2.457,7.84
        c1.048,1.936,2.936,4.355,5.556,4.248c2.62,0.107,4.508-2.312,5.556-4.248c1.005-1.564,2.583-0.793,1.681,1.175
        c-0.08,0.172-0.174,0.353-0.274,0.537l0.858,1.189C16.12,11.138,16.028,11.689,15.628,11.973z"/>
</svg>
