<svg xmlns="http://www.w3.org/2000/svg" width="16" height="16" viewBox="0 0 16 16">
    <path d="M15.833,5.039l-0.451,0.6c0.374,1.148-1.067,1.926-1.759,1.02
        c-0.018-0.022-0.028-0.026-0.041-0.037c-0.008-0.006-0.018-0.006-0.025-0.012c-0.122-0.082-0.205-0.193-0.268-0.312
        c-1.105-1.251-2.79-2.384-5.277-2.326C5.524,3.914,3.84,5.047,2.734,6.298C2.672,6.416,2.589,6.527,2.468,6.609
        C2.46,6.615,2.45,6.615,2.442,6.621C2.429,6.632,2.418,6.636,2.401,6.658c-0.692,0.906-2.134,0.129-1.759-1.02l-0.451-0.6
        c-0.286-0.38-0.194-0.908,0.205-1.18c0.399-0.272,0.955-0.185,1.241,0.195L1.76,4.217c0.439-0.404,0.973-0.798,1.605-1.139
        L2.962,2.141C2.768,1.69,2.991,1.176,3.46,0.99s1.005,0.028,1.199,0.479l0.402,0.934C5.648,2.238,6.289,2.117,7.002,2.07V1
        c0-0.553,0.452-1,1.01-1c0.559,0,1.01,0.447,1.01,1v1.07c0.687,0.045,1.307,0.158,1.877,0.313l0.395-0.915
        c0.193-0.45,0.73-0.664,1.199-0.479c0.468,0.186,0.691,0.7,0.498,1.15L12.6,3.049c0.657,0.348,1.212,0.751,1.664,1.168l0.123-0.162
        c0.286-0.38,0.842-0.468,1.241-0.195C16.027,4.131,16.119,4.659,15.833,5.039z M7.996,11c-1.665,0-3.014-1.343-3.014-3
        s1.349-3,3.014-3v3l2.518-1.645C10.826,6.828,11.01,7.392,11.01,8C11.01,9.657,9.66,11,7.996,11z M3.941,9.997
        c0.951,1.045,2.294,2.029,4.07,2.034c1.88-0.005,3.283-1.109,4.258-2.222c1.144-1.04,2.432,0.171,1.628,1.365
        c-1.318,1.479-3.216,2.812-5.886,2.823c-2.669-0.011-4.567-1.345-5.886-2.823C1.278,9.915,2.759,8.632,3.941,9.997z"/>
</svg>
