<svg xmlns="http://www.w3.org/2000/svg" width="16" height="16" viewBox="0 0 16 16">
    <path d="M15.957,6.637C15.84,6.284,15.5,6.044,15.116,6.042L10.32,6.048l-1.477-4.53 C8.727,1.162,8.385,0.922,7.998,0.922c0,0,0,0-0.001,0c-0.386,0-0.729,0.241-0.846,0.597L5.679,6.051H0.883
        C0.499,6.054,0.16,6.294,0.043,6.646C-0.075,7,0.056,7.386,0.367,7.603l3.889,2.449l-1.289,4.854 c-0.112,0.348,0.017,0.728,0.32,0.939C3.435,15.948,3.608,16,3.781,16c0.181,0,0.361-0.057,0.514-0.169l3.708-3.109l3.71,3.104
        c0.152,0.112,0.333,0.168,0.514,0.168c0.173,0,0.347-0.051,0.494-0.154c0.304-0.212,0.433-0.592,0.319-0.94l-1.293-4.852 l3.887-2.455C15.944,7.375,16.075,6.989,15.957,6.637z M10.084,9.472l1.396,4.489l-3.477-2.762l-3.516,2.898l1.609-4.601
        L1.803,7.054h5.068l1.143-3.92l1.119,3.92h5.1L10.084,9.472z"/>
</svg>
