<svg xmlns="http://www.w3.org/2000/svg" width="16" height="16" viewBox="0 0 16 16">
    <path d="M15,9.742l-0.003-0.026c-0.005-0.462-0.056-0.865-0.15-1.216L14.66,6.984 c-0.088-0.563-0.756-1.01-1.493-1.01h-2.295C10.158,6.01,9.869,6.325,9.418,6.663C9.398,6.678,9.38,6.681,9.36,6.692
        c-0.037,0.022-0.08,0.04-0.122,0.062c-0.001,0-0.002,0-0.002,0.001C8.904,6.921,8.479,7.029,8.002,7.029S7.1,6.921,6.769,6.755
        C6.753,6.751,6.737,6.743,6.722,6.737C6.7,6.726,6.679,6.717,6.658,6.705C6.63,6.69,6.603,6.684,6.575,6.663
        c-0.44-0.33-0.733-0.634-1.409-0.681C4.88,4.931,5.131,3.77,5.949,2.951C7.17,1.729,9.163,1.741,10.4,2.979
        c0.001,0.001,0.001,0.002,0.002,0.003l0.001-0.001l1.121,1.121l1.473-1.474L11.88,1.513l-0.009,0.009
        c-2.173-1.992-5.44-2.043-7.417-0.065C3.248,2.663,2.807,4.349,3.09,5.975H2.821c-0.737,0-1.404,0.446-1.492,1.01L1.125,8.639
        c-0.062,0.264-0.096,0.56-0.109,0.882L0.989,9.742h0.015c0,0.012-0.002,0.021-0.002,0.033c0,3.79,3.134,5.216,6.999,5.216
        S15,13.565,15,9.775c0-0.012-0.002-0.021-0.002-0.033H15z M7.992,12.021c-0.595,0-1.077-0.463-1.077-1.034
        c0-0.572,0.482-1.035,1.077-1.035c0.594,0,1.076,0.463,1.076,1.035C9.068,11.559,8.586,12.021,7.992,12.021z"/>
</svg>
