<svg xmlns="http://www.w3.org/2000/svg" width="16" height="16" viewBox="0 0 16 16">
    <path d="M15,9.751l-0.004-0.026c-0.004-0.462-0.055-0.865-0.15-1.216L14.66,6.993 c-0.086-0.543-0.713-0.969-1.418-0.999c-0.039-2.873-2.369-5.072-5.244-5.072c-2.875,0-5.204,2.198-5.243,5.07
        c-0.709,0.027-1.341,0.454-1.427,1L1.125,8.647c-0.061,0.264-0.096,0.56-0.109,0.882L0.988,9.751h0.015
        c0,0.012-0.002,0.021-0.002,0.033C1.001,13.574,4.135,15,8,15c3.865,0,7-1.426,7-5.216c0-0.012-0.002-0.021-0.002-0.033H15z
         M7.99,12.03c-0.594,0-1.076-0.463-1.076-1.034c0-0.572,0.482-1.035,1.076-1.035c0.596,0,1.076,0.463,1.076,1.035
        C9.066,11.567,8.586,12.03,7.99,12.03z M10.871,5.983c-0.713,0.035-1.004,0.351-1.455,0.688C9.398,6.687,9.379,6.689,9.359,6.701
        c-0.037,0.022-0.08,0.04-0.121,0.062c-0.002,0-0.002,0-0.004,0.001C8.904,6.93,8.479,7.038,8,7.038
        c-0.477,0-0.9-0.108-1.232-0.274C6.752,6.76,6.737,6.752,6.721,6.746C6.7,6.734,6.678,6.726,6.658,6.714
        C6.629,6.699,6.602,6.692,6.575,6.672C6.124,6.334,5.833,6.019,5.121,5.983H5.094C5.1,4.376,6.397,2.981,7.998,2.981 c1.6,0,2.898,1.395,2.904,3.002H10.871z"/>
</svg>
