<svg xmlns="http://www.w3.org/2000/svg" width="16" height="16" viewBox="0 0 16 16">
    <path d="M15.343,7.417c-0.188,0.06-0.465,0.139-0.778,0.222 c-0.555,0.146-0.788,0.34-0.788,0.811c0,5.325-1.863,7.551-6.53,7.551c-4.176,0-7.244-2.266-7.244-7.693V4.87
        C0.002,4.866,0,4.863,0,4.859V1.083c0-0.596,0.47-1.079,1.048-1.079h11.53c0.578,0,1.048,0.483,1.048,1.079v1.068h0.005v0.39
        c0,0.379,1.95,3.403,2.233,3.929C16.121,6.946,16.071,7.187,15.343,7.417z M9.002,3.001c-0.549,0-0.995,0.45-0.995,1.003
        c0,0.557,0.446,1.005,0.995,1.005c0.55,0,0.996-0.448,0.996-1.005C9.998,3.451,9.552,3.001,9.002,3.001z M10.586,9.896
        c-1.285,0-1.959-0.214-2.427-1.582C8.071,8.056,7.63,7.928,7.402,8.027C7.175,8.126,6.906,8.415,6.994,8.672
        c0.688,2.012,2.263,2.345,3.592,2.345c0.244,0,0.411-0.316,0.411-0.592S10.83,9.896,10.586,9.896z"/>
</svg>
