<svg xmlns="http://www.w3.org/2000/svg"	width="16" height="16" viewBox="0 0 16 16">
    <path d="M6.996,5.009c0.551,0,0.997,0.257,0.997,0.572v2.861 c0,0.142-0.099,0.267-0.247,0.366c-0.01,0.018-0.009,0.042-0.022,0.057l-1.638,1.637c-0.181,0.181-0.643,0.012-1.032-0.378
        s-0.56-0.853-0.378-1.033l1.322-1.322V5.581C5.998,5.266,6.444,5.009,6.996,5.009z M15.632,7.704l-2.021,2.462
        c-0.336,0.408-0.879,0.408-1.215,0l-1.895-2.308c0,0,0-0.001-0.001-0.001c-0.59-0.676-0.74-0.855,0.007-0.855
        c0.001,0,0.001-0.001,0.001-0.001h1.391c-0.463-2.28-2.479-3.997-4.897-3.997c-2.761,0-4.999,2.237-4.999,4.998S4.24,13,7.001,13
        c0.88,0,1.697-0.241,2.413-0.644l1.327,1.539c-1.081,0.695-2.358,1.108-3.74,1.108C3.134,15.004,0,11.869,0,8.002S3.134,1,7.001,1
        c3.523,0,6.411,2.612,6.899,6.001h1.615c0.001,0,0.001,0.001,0.002,0.001C16.208,7.002,16.112,7.079,15.632,7.704z"/>
</svg>
