<svg xmlns="http://www.w3.org/2000/svg" width="16" height="16" viewBox="0 0 16 16">
    <path d="M6,0.979c2.76,0,5,2.224,5,4.971s-5,6.78-5,6.78S1,8.697,1,5.95S3.239,0.979,6,0.979 M6,8.324
        c1.383,0,2.499-1.096,2.499-2.448c0-1.354-1.116-2.448-2.499-2.448c-1.38,0-2.5,1.094-2.5,2.448C3.5,7.226,4.62,8.324,6,8.324
         M6,0C2.691,0,0,2.669,0,5.95c0,3.118,4.815,7.095,5.364,7.536L6,14l0.637-0.514C7.186,13.043,12,9.068,12,5.95
        C12,2.669,9.309,0,6,0L6,0z M6,7.344c-0.827,0-1.5-0.658-1.5-1.468S5.173,4.407,6,4.407s1.499,0.659,1.499,1.469
        S6.827,7.344,6,7.344L6,7.344z"/>
</svg>
