<svg xmlns="http://www.w3.org/2000/svg" width="16" height="16" viewBox="0 0 16 16">
    <path d="M14.015,5.958C13.987,2.664,11.313,0,8.017,0c-3.279,0-5.94,2.636-5.995,5.906
        C2.002,6.132,1.995,6.39,2.015,6.722C2.188,9.65,5.54,14.046,7.149,16h1.707c1.617-1.954,4.985-6.35,5.158-9.278
        C14.032,6.417,14.029,6.173,14.015,5.958z M8.017,8.161c-1.188,0-2.152-0.968-2.152-2.16c0-1.193,0.964-2.161,2.152-2.161
        s2.152,0.968,2.152,2.161C10.169,7.193,9.205,8.161,8.017,8.161z"/>
</svg>
