<svg xmlns="http://www.w3.org/2000/svg" width="16" height="16" viewBox="0 0 16 16">
    <path d="M8,0C3.582,0,0,3.582,0,8s3.582,8,8,8c4.418,0,8-3.582,8-8S12.418,0,8,0z
         M7.719,12.887C7.49,13.09,7.203,13.182,6.86,13.161c-0.334-0.02-0.592-0.145-0.773-0.372c-0.182-0.229-0.253-0.515-0.215-0.858
        c0.041-0.362,0.175-0.642,0.404-0.835c0.229-0.194,0.51-0.281,0.844-0.261c0.343,0.021,0.606,0.14,0.788,0.358
        c0.184,0.219,0.254,0.51,0.213,0.872C8.083,12.409,7.949,12.684,7.719,12.887z M9.605,8.111C8.653,8.681,8.351,9.206,8.26,9.587
        L8.254,9.691c-0.012,0.184-0.164,0.324-0.342,0.313L6.626,9.928C6.449,9.917,6.313,9.76,6.324,9.575l0.021-0.019
        c0.272-1.988,1.713-2.362,2.588-3.144c0.925-0.825,0.403-1.607-0.701-1.628C7.578,4.772,6.941,4.98,6.525,5.152
        C6.2,5.275,6.005,5.257,5.882,4.953C5.877,4.942,5.87,4.936,5.864,4.928L5.546,4.188C5.443,3.867,5.468,3.671,5.755,3.55
        c0.007-0.003,0.006-0.01,0.011-0.014c1.009-0.388,3.564-1.134,5.127,0.726C11.882,5.438,11.219,7.146,9.605,8.111z"/>
</svg>
