<svg xmlns="http://www.w3.org/2000/svg" width="16" height="16" viewBox="0 0 16 16">
    <path d="M15.762,13.509l-3.638-3.695c0.577-0.971,0.914-2.101,0.914-3.312
        C13.038,2.911,10.127,0,6.535,0C2.944,0,0.033,2.911,0.033,6.502s2.911,6.502,6.502,6.502c1.211,0,2.34-0.337,3.311-0.913
        l3.611,3.67c0.318,0.311,0.834,0.311,1.152,0l1.152-1.126C16.08,14.323,16.08,13.819,15.762,13.509z M6.524,10.995
        c-2.488,0-4.506-2.017-4.506-4.503c0-2.487,2.018-4.504,4.506-4.504c2.489,0,4.506,2.017,4.506,4.504
        C11.03,8.979,9.014,10.995,6.524,10.995z"/>
</svg>
