<svg xmlns="http://www.w3.org/2000/svg" width="16" height="16" viewBox="0 0 16 16">
    <path d="M14.014,8.248l-0.048-0.027c0.003-0.073,0.016-0.144,0.016-0.217 c0-0.092-0.015-0.18-0.02-0.271l2.022-2.058l-1.976-3.382l-2.782,0.678c-0.161-0.104-0.32-0.209-0.49-0.297L9.97,0.004H6.019
        l-0.786,2.68C5.055,2.777,4.888,2.887,4.722,2.997L1.977,2.312L0,5.694L1.988,7.74l0.037,0.021 C2.021,7.843,2.008,7.922,2.008,8.004c0,0.083,0.014,0.162,0.018,0.245l-2.024,2.059l1.976,3.382l2.757-0.67
        c0.176,0.114,0.354,0.229,0.542,0.325L6.037,16h3.952l0.786-2.686c0.181-0.095,0.351-0.207,0.52-0.32l2.731,0.682l1.976-3.383 L14.014,8.248z M8.012,10.984c-1.657,0-3-1.342-3-2.997c0-1.655,1.343-2.996,3-2.996s3,1.341,3,2.996 C11.012,9.643,9.669,10.984,8.012,10.984z"/>
</svg>
