<svg xmlns="http://www.w3.org/2000/svg" width="16" height="16" viewBox="0 0 16 16">
    <path d="M15.833,7.431C13.801,4.565,9.568,1.619,7.372,0.16C7.244,0.057,7.049,0,6.871,0
        C6.767,0,6.615,0.02,6.515,0.064C6.241,0.18,5.983,0.471,5.986,0.781c0,1.433,0.362,2.765,0.783,4.234H1.651
        C0.739,5.016,0,5.817,0,6.806v2.387c0,0.989,0.739,1.791,1.651,1.791h5.11c-0.416,1.488-0.775,2.886-0.775,4.234
        c-0.003,0.311,0.254,0.602,0.528,0.717C6.615,15.98,6.814,16,6.918,16c0.178,0,0.348-0.057,0.475-0.159
        c2.195-1.456,6.423-4.409,8.446-7.271C15.948,8.418,16.002,8.213,16.002,8C16.002,7.787,15.943,7.582,15.833,7.431z"/>
</svg>
