<svg xmlns="http://www.w3.org/2000/svg" width="64" height="64" viewBox="0 0 64 64">
    <path d="M61,49h-4v4c0,1.104-0.896,2-2,2h-4c-1.104,0-2-0.896-2-2v-4h-4
        c-1.104,0-2-0.896-2-2v-4c0-1.104,0.896-2,2-2h4v-4c0-1.104,0.896-2,2-2h4c1.104,0,2,0.896,2,2v4h4c1.104,0,2,0.896,2,2v4
        C63,48.104,62.104,49,61,49z M39,45c0,1.391,0.21,2.732,0.588,4H7c-3.313,0-6-2.687-6-6V19c0-3.313,2.687-6,6-6h44
        c3.313,0,6,2.687,6,6v12.588C55.732,31.21,54.391,31,53,31C45.269,31,39,37.268,39,45z M12.986,21.002
        c-2.213,0-4.007,1.793-4.007,4.006s1.794,4.007,4.007,4.007c2.214,0,4.008-1.794,4.008-4.007S15.2,21.002,12.986,21.002z M15,37h-4
        c-1.104,0-2,0.896-2,2c0,1.105,0.896,2,2,2h4c1.104,0,2-0.895,2-2C17,37.896,16.104,37,15,37z M20.994,21.002
        c-0.736,0-1.416,0.212-2.009,0.558c1.19,0.695,1.999,1.972,1.999,3.448c0,1.478-0.809,2.754-1.999,3.448
        c0.593,0.346,1.272,0.559,2.009,0.559c2.213,0,4.008-1.794,4.008-4.007S23.207,21.002,20.994,21.002z M29,37h-4
        c-1.104,0-2,0.896-2,2c0,1.105,0.896,2,2,2h4c1.104,0,2-0.895,2-2C31,37.896,30.104,37,29,37z"/>
</svg>
