<svg xmlns="http://www.w3.org/2000/svg" width="64" height="64" viewBox="0 0 64 64">
    <path d="M56,57h-4v4c0,1.104-0.896,2-2,2h-4c-1.104,0-2-0.896-2-2v-4h-4
        c-1.104,0-2-0.896-2-2v-4c0-1.104,0.896-2,2-2h4v-4c0-1.104,0.896-2,2-2h4c1.104,0,2,0.896,2,2v4h4c1.104,0,2,0.896,2,2v4
        C58,56.104,57.104,57,56,57z M34,53c0,1.392,0.21,2.732,0.588,4H10c-1.104,0-2-0.895-2-2V3c0-1.104,0.896-2,2-2h40
        c1.104,0,2,0.896,2,2v36.588C50.731,39.21,49.391,39,48,39C40.268,39,34,45.269,34,53z M18,43h6c1.104,0,2-0.895,2-2
        c0-1.104-0.896-2-2-2h-6c-1.104,0-2,0.896-2,2C16,42.105,16.896,43,18,43z M18,35h14c1.104,0,2-0.895,2-2c0-1.104-0.896-2-2-2H18
        c-1.104,0-2,0.896-2,2C16,34.105,16.896,35,18,35z M26,11h-8c-1.104,0-2,0.896-2,2s0.896,2,2,2h8c1.104,0,2-0.896,2-2
        S27.104,11,26,11z M38,23H18c-1.104,0-2,0.896-2,2c0,1.105,0.896,2,2,2h20c1.104,0,2-0.895,2-2C40,23.896,39.104,23,38,23z"/>
</svg>
