<svg xmlns="http://www.w3.org/2000/svg" width="64" height="64" viewBox="0 0 64 64">
    <path d="M52.963,57h-4v4c0,1.104-0.896,2-2,2h-4c-1.104,0-2-0.896-2-2v-4h-4
        c-1.104,0-2-0.896-2-2v-4c0-1.104,0.896-2,2-2h4v-4c0-1.104,0.896-2,2-2h4c1.104,0,2,0.896,2,2v4h4c1.104,0,2,0.896,2,2v4
        C54.963,56.104,54.067,57,52.963,57z M30.963,39.361c-6.166,0-16.126-10.981-16.126-21.572c0-10.59,7.22-16.777,16.126-16.777
        S47.09,7.199,47.09,17.789C47.09,28.38,37.129,39.361,30.963,39.361z M41.701,17.967c-0.065,0.001-0.127,0.014-0.193,0.014
        c-5.356,0-10.095-1.611-13.369-4.121c0.062,2.03,0.494,4.916,2.852,7.137c0,0-6.496-1.484-9.053-4.936
        c-0.519,0.383-1.063,0.738-1.637,1.057c-0.029,0.362-0.097,0.699-0.097,1.078c0,6.902,6.646,14.967,10.759,14.967
        c4.114,0,10.759-8.064,10.759-14.967C41.722,18.115,41.703,18.047,41.701,17.967z M30.963,43.082c2.676,0,4.226-0.449,5.535-1.347
        l0.064,0.064c-3.399,2.555-5.6,6.62-5.6,11.2c0,2.149,0.499,4.178,1.364,5.997c-0.454,0.001-0.903,0.001-1.364,0.001
        C18.833,58.998,9,58.996,9,51.01c0-6.545,5.624-11.111,12.848-12.778C24.846,41.48,25.888,43.082,30.963,43.082z"/>
</svg>
