<svg xmlns="http://www.w3.org/2000/svg" width="64" height="64" viewBox="0 0 64 64">
    <path d="M24,27c-1.104,0-2,0.896-2,2v2c0,1.104,0.896,2,2,2h4c1.104,0,2-0.896,2-2v-2
        c0-1.104-0.896-2-2-2H24z M34,19v-2c0-1.104-0.896-2-2-2h-8c-1.104,0-2,0.896-2,2v2c0,1.104,0.896,2,2,2h8
        C33.104,21,34,20.104,34,19z M10,17v4c0,1.104,0.896,2,2,2h4c1.104,0,2-0.896,2-2v-4c0-1.104-0.896-2-2-2h-4
        C10.896,15,10,15.896,10,17z M18,11h8c1.104,0,2-0.896,2-2V3c0-1.104-0.896-2-2-2h-8c-1.104,0-2,0.896-2,2v6
        C16,10.104,16.896,11,18,11z M16,39h-4c-1.104,0-2,0.896-2,2v4c0,1.104,0.896,2,2,2h4c1.104,0,2-0.896,2-2v-4
        C18,39.896,17.104,39,16,39z M63.039,34.896l-2.531-2.53L33.649,59.697l2.288,2.287c1.302,1.301,3.412,1.301,4.713,0
        l22.389-22.377C64.342,38.307,64.342,36.197,63.039,34.896z M56.999,28.859l-6.921-6.918c-1.302-1.301-3.412-1.301-4.714,0
        L44,23.305V9c0-3.313-2.686-6-6-6h-6v6h6v20.302L22.976,44.318c-1.302,1.301-1.302,3.41,0,4.711L26.948,53H6V9h6V3H6
        C2.687,3,0,5.687,0,9v44c0,3.313,2.687,6,6,6h26.717l-2.668-2.716L56.999,28.859z M18,29c0-1.104-0.896-2-2-2h-4
        c-1.104,0-2,0.896-2,2v4c0,1.104,0.896,2,2,2h4c1.104,0,2-0.896,2-2V29z"/>
</svg>
