<svg xmlns="http://www.w3.org/2000/svg" width="64" height="64" viewBox="0 0 64 64">
    <path d="M58.768,30.187l-6.906-4.194l6.906-4.194c1.643-0.997,1.643-2.614,0-3.612
        L34.969,3.735c-1.644-0.998-4.308-0.998-5.951,0L5.219,18.187c-1.643,0.998-1.643,2.615,0,3.612l6.906,4.194l-6.906,4.194
        c-1.643,0.999-1.643,2.616,0,3.614l6.905,4.193l-6.905,4.193c-1.643,0.996-1.643,2.615,0,3.613l23.799,14.451
        c1.643,0.998,4.307,0.998,5.951,0l23.799-14.451c1.643-0.998,1.643-2.617,0-3.613l-6.905-4.193l6.905-4.193
        C60.41,32.803,60.41,31.186,58.768,30.187z M18.298,29.742l10.72,6.51c1.643,0.998,4.307,0.998,5.951,0l10.729-6.516l3.693,2.258
        L32.003,42.625l-17.39-10.631L18.298,29.742z M32.003,54.625l-17.39-10.631l3.684-2.252l10.721,6.51
        c1.643,0.998,4.307,0.998,5.951,0l10.729-6.516l3.694,2.258L32.003,54.625z"/>
</svg>
