<svg xmlns="http://www.w3.org/2000/svg" width="64" height="64" viewBox="0 0 64 64">
    <path d="M58,8H6c-3.313,0-6,2.687-6,6v36c0,3.314,2.687,6,6,6h52c3.314,0,6-2.686,6-6V14
        C64,10.687,61.314,8,58,8z M54,28.286c0,1.716-2.375,0.641-4.982-1.349L32.8,41.794l-7.802-6.999L14.851,45.021
        c-0.612,0.712-1.472,1.034-2.306,0.955c-0.593-0.057-1.174-0.315-1.645-0.779c-1.135-1.121-1.207-3.015-0.159-4.23l14.302-14.929
        l7.864,7.343L44.67,22.919C42.401,20.367,41.248,18,43.715,18c6.168,0,8.57,0,8.57,0C53.232,18,54,18.768,54,19.714
        C54,19.714,54,23.769,54,28.286z"/>
</svg>
