<svg xmlns="http://www.w3.org/2000/svg" width="64" height="64" viewBox="0 0 64 64">
    <path d="M12,45h40c3.313,0,6-2.687,6-6v-4c0,3.313-2.687,6-6,6H12c-3.313,0-6-2.687-6-6
        v4C6,42.313,8.687,45,12,45z M12,37h40c3.313,0,6-2.687,6-6V9c0-3.313-2.687-6-6-6H12C8.687,3,6,5.687,6,9v22
        C6,34.313,8.687,37,12,37z M44,25h4c1.105,0,2,0.896,2,2s-0.895,2-2,2h-4c-1.104,0-2-0.896-2-2S42.896,25,44,25z M34,25h4
        c1.104,0,2,0.896,2,2s-0.896,2-2,2h-4c-1.104,0-2-0.896-2-2S32.896,25,34,25z M30,27c0,1.104-0.895,2-2,2h-4c-1.104,0-2-0.896-2-2
        s0.896-2,2-2h4C29.105,25,30,25.896,30,27z M21.985,9.56c0.593-0.346,1.273-0.559,2.009-0.559c2.213,0,4.007,1.794,4.007,4.007
        s-1.794,4.007-4.007,4.007c-0.736,0-1.416-0.212-2.009-0.559c1.19-0.694,1.999-1.971,1.999-3.448S23.176,10.254,21.985,9.56z
         M18,29h-4c-1.104,0-2-0.896-2-2s0.896-2,2-2h4c1.104,0,2,0.896,2,2S19.104,29,18,29z M15.987,9.001
        c2.214,0,4.008,1.794,4.008,4.007s-1.794,4.007-4.008,4.007c-2.213,0-4.008-1.794-4.008-4.007S13.773,9.001,15.987,9.001z
         M60,16.079V45c0,2.209-1.791,4-4,4H42c-1.04,0-2,0.469-2,2c0,2.209-1.791,4-4,4h-8c-2.209,0-4-1.791-4-4c0-1.531-0.96-2-2-2H8
        c-2.209,0-4-1.791-4-4V16.079C1.611,17.463,0,20.041,0,23v30c0,4.418,3.582,8,8,8h48c4.418,0,8-3.582,8-8V23
        C64,20.041,62.389,17.463,60,16.079z"/>
</svg>
