<svg xmlns="http://www.w3.org/2000/svg" width="64" height="64" viewBox="0 0 64 64">
    <path d="M58,3H6C2.687,3,0,5.687,0,9v20c0,3.313,2.687,6,6,6h8v20c0,3.313,2.687,6,6,6
        h24c3.314,0,6-2.687,6-6V35h8c3.313,0,6-2.687,6-6V9C64,5.687,61.313,3,58,3z M24,54.972c-2.209,0-4-1.78-4-3.976
        c0-2.196,1.791-3.977,4-3.977s4,1.78,4,3.977C28,53.191,26.209,54.972,24,54.972z M27.442,45.007
        c-0.693-1.19-1.968-1.999-3.442-1.999s-2.749,0.809-3.442,1.999C20.212,44.414,20,43.734,20,42.998c0-2.213,1.791-4.007,4-4.007
        s4,1.794,4,4.007C28,43.734,27.788,44.414,27.442,45.007z M44,53c0,1.104-0.896,2-2,2s-2-0.896-2-2v-4c0-1.104,0.896-2,2-2
        s2,0.896,2,2V53z M44,39c0,1.104-0.896,2-2,2s-2-0.896-2-2v-4c0-1.104,0.896-2,2-2s2,0.896,2,2V39z M42,27c-1.104,0-2-0.896-2-2
        v-2h4v2C44,26.104,43.104,27,42,27z M58,29h-8v-6c2.209,0,4-1.791,4-4s-1.791-4-4-4H14c-2.209,0-4,1.791-4,4s1.791,4,4,4v6H6V9
        h4.008V8.983H56.02V9H58V29z"/>
</svg>
