<svg xmlns="http://www.w3.org/2000/svg" width="64" height="64" viewBox="0 0 64 64">
    <path d="M53.371,30.667l0.008,0.01l-0.178,0.175c-0.033,0.033-0.061,0.068-0.094,0.102
        c-0.033,0.032-0.068,0.059-0.102,0.091L25.818,57.669c-0.001,0.001-0.002,0.002-0.004,0.003c-0.001,0.002-0.002,0.003-0.003,0.004
        l-0.906,0.887l-0.054-0.052c-4.546,3.563-11.198,3.287-15.413-0.839c-4.214-4.126-4.497-10.638-0.856-15.089l-0.053-0.052
        l24.563-24.047v-0.001c0.002,0,0.002,0,0.002,0l0.109-0.107l0.01,0.011c1.516-1.367,3.869-1.342,5.338,0.097
        c1.488,1.457,1.502,3.804,0.051,5.283l0.006,0.006l-0.057,0.055l0,0v0.001L22.609,39.435c0.002,0.001,0.004,0.002,0.007,0.003
        l-7.674,7.528c-0.011,0.01-0.024,0.018-0.035,0.027c-0.011,0.012-0.019,0.024-0.029,0.035l-0.409,0.402l0.041,0.039
        c-1.078,1.471-0.953,3.526,0.397,4.849c1.389,1.359,3.564,1.446,5.074,0.293l0.021,0.019l0.205-0.199
        c0.045-0.04,0.096-0.069,0.14-0.112c0.042-0.041,0.07-0.089,0.11-0.132l7.605-7.418c0.002,0.003,0.004,0.006,0.006,0.01
        L46.74,26.499l-0.01-0.009l1.086-1.065l-0.014-0.014c3.33-3.447,3.279-8.88-0.168-12.257c-3.412-3.339-8.869-3.404-12.395-0.249
        l-0.027-0.028l-0.283,0.275c0,0.001-0.002,0.002-0.002,0.003c-0.002,0-0.002,0.002-0.004,0.003l-0.906,0.886l-0.016-0.014
        L21.891,25.887l-0.014-0.013c-0.688,0.627-1.605,1.019-2.621,1.019c-2.132,0-3.859-1.691-3.859-3.778
        c0-0.994,0.399-1.891,1.041-2.565l-0.006-0.006l0.058-0.056c0.027-0.028,0.055-0.055,0.083-0.082L28.543,8.687l0.046,0.045
        c0.278-0.317,0.557-0.635,0.864-0.936c6.533-6.395,17.123-6.395,23.654,0C59.547,14.099,59.625,24.253,53.371,30.667z"/>
</svg>
