<svg xmlns="http://www.w3.org/2000/svg" width="64" height="64" viewBox="0 0 64 64">
    <path d="M64,49.987c0,3.314-2.686,6-6,6H6c-3.313,0-6-2.686-6-6v-30c0-3.313,2.687-6,6-6
        h28l0,0h6.369l4.867-4.611c0.063-0.061,0.129-0.118,0.195-0.172c0.072-0.079,0.146-0.153,0.224-0.228C47.679,7.06,50.361,6,53.203,6
        c2.843,0,5.525,1.06,7.553,2.981c2.044,1.938,3.188,4.529,3.221,7.296c0.009,0.729-0.066,1.445-0.209,2.145
        C63.904,18.925,64,19.442,64,19.987V49.987z M48,45.987h4c1.104,0,2-0.896,2-2s-0.896-2-2-2h-4c-1.104,0-2,0.896-2,2
        S46.896,45.987,48,45.987z M36,45.987h4c1.104,0,2-0.896,2-2s-0.896-2-2-2h-4c-1.104,0-2,0.896-2,2S34.896,45.987,36,45.987z
         M24,45.987h4c1.104,0,2-0.896,2-2s-0.896-2-2-2h-4c-1.104,0-2,0.896-2,2S22.896,45.987,24,45.987z M12,45.987h4
        c1.104,0,2-0.896,2-2s-0.896-2-2-2h-4c-1.104,0-2,0.896-2,2S10.896,45.987,12,45.987z M13.999,23.988
        c-2.218,0-4.016,1.786-4.016,3.989c0,2.202,1.798,3.988,4.016,3.988s4.017-1.786,4.017-3.988
        C18.016,25.774,16.217,23.988,13.999,23.988z M21.988,23.988c-0.732,0-1.409,0.209-2,0.549c1.192,0.689,2.003,1.964,2.003,3.44
        c0,1.476-0.811,2.75-2.003,3.439c0.591,0.34,1.268,0.549,2,0.549c2.218,0,4.016-1.786,4.016-3.988
        C26.004,25.774,24.206,23.988,21.988,23.988z M58.6,11.292c-2.983-2.824-7.821-2.824-10.805,0c-0.143,0.135-0.245,0.291-0.374,0.434
        l-0.042-0.04l-2.432,2.302h5l0.347-0.327c0.001-0.001,0.001-0.001,0.001-0.001c0-0.001,0.001-0.001,0.001-0.001l0.129-0.122
        l0.013,0.012c1.611-1.393,4.104-1.364,5.662,0.111c1.574,1.49,1.593,3.887,0.072,5.408l0.011,0.011l-0.496,0.47l0.004,0.005
        l-6.649,6.293l0,0l-0.012,0.012l-1.88,1.778c-0.001-0.001-0.001-0.003-0.002-0.004l-3.491,3.291c-0.01,0.01-0.012,0.022-0.022,0.032
        c-0.01,0.01-0.024,0.013-0.034,0.022l-0.123,0.115l-0.025-0.022c-0.688,0.504-1.67,0.483-2.302-0.115
        c-0.615-0.582-0.647-1.474-0.161-2.123l-0.039-0.036l0.194-0.185c0.003-0.002,0.003-0.006,0.006-0.008s0.006-0.003,0.009-0.005
        l3.5-3.321c0-0.001-0.002-0.001-0.002-0.001l7.319-6.928l-0.005-0.006c0.662-0.653,0.659-1.688-0.021-2.33
        c-0.671-0.636-1.741-0.641-2.434-0.038l-0.01-0.01l-0.05,0.047c0,0,0,0,0,0.001c-0.001,0-0.001,0-0.001,0l-11.221,10.62l0.042,0.039
        c-1.658,1.966-1.549,4.827,0.374,6.647s4.946,1.923,7.023,0.354l0.042,0.04l0.414-0.393l0.001-0.001c0,0,0.001,0,0.001-0.001
        l12.442-11.78c0.008-0.007,0.017-0.012,0.024-0.019c0.008-0.008,0.013-0.017,0.021-0.024l0.104-0.098l-0.009-0.012
        C61.568,18.554,61.54,14.075,58.6,11.292z"/>
</svg>
