<svg xmlns="http://www.w3.org/2000/svg" width="64" height="64" viewBox="0 0 64 64">
    <path d="M60,19h-8.913l3.675-1.984c3.41-1.949,2.188-4.189,0.644-6.51
        c-1.938-2.913-3.04-3.895-5.466-2.584L29.973,18.343c-0.337,0.182-0.639,0.408-0.919,0.657H4c-3.313,0-4,2.687-4,6s0.687,6,4,6
        l5.467,22c0,3.314,2.328,4,5.2,4h34.667c2.872,0,5.2-0.686,5.2-4L60,31c3.314,0,4-2.687,4-6S63.314,19,60,19z M19.581,51.078
        c-0.93,0.027-1.837-0.273-2.094-1.324l-3.758-16.943c-0.431-1.761,0.396-1.623,1.671-1.66s2.93-0.246,3.249,1.52l2.829,16.969
        C21.667,50.691,20.51,51.051,19.581,51.078z M33.834,49.873C33.8,50.732,32.982,51,32.006,51c-0.975,0-1.793-0.268-1.828-1.127
        L29.69,36.461c-0.058-1.441,0.978-1.309,2.315-1.309c1.339,0,2.375-0.133,2.316,1.309L33.834,49.873z M32,27.567
        c-1.418,0-2.567-1.149-2.567-2.567s1.149-2.567,2.567-2.567s2.567,1.149,2.567,2.567S33.418,27.567,32,27.567z M50.271,32.811
        l-3.758,16.943c-0.257,1.051-1.164,1.352-2.094,1.324s-2.088-0.387-1.896-1.439l2.828-16.969c0.319-1.765,1.973-1.557,3.249-1.52
        S50.702,31.05,50.271,32.811z"/>
</svg>
