<svg xmlns="http://www.w3.org/2000/svg" width="64" height="64" viewBox="0 0 64 64">
    <path d="M54.273,13h-4.34C49.146,7.17,44.111,3,38.002,3
        c-5.475,0-10.089,3.351-11.556,8.243l-7.969-2.205c-0.837-0.232-1.697,0.275-1.92,1.134L6.073,50.577
        c-0.223,0.858,0.275,1.742,1.113,1.974l10.816,2.992v3.737c0,0.946,0.773,1.714,1.728,1.714h18.089c0.037,0.003,0.074,0,0.112,0
        h16.342c0.953,0,1.727-0.768,1.727-1.523V14.904C56,13.767,55.227,13,54.273,13z M18.002,50.073l-6.206-1.764l6.206-23.917V50.073
        z M25.744,24.97h4.492c0.965,0,1.748,0.903,1.748,2.018c0,1.113-0.783,2.017-1.748,2.017h-4.492c-0.964,0-1.748-0.903-1.748-2.017
        C23.997,25.873,24.78,24.97,25.744,24.97z M36.236,45.033H25.744c-0.964,0-1.748-0.902-1.748-2.017
        c0-1.113,0.783-2.017,1.748-2.017h10.492c0.965,0,1.748,0.903,1.748,2.017C37.984,44.131,37.201,45.033,36.236,45.033z
         M36.414,37.033H25.602c-0.886,0-1.605-0.902-1.605-2.017c0-1.113,0.719-2.017,1.605-2.017h10.812
        c0.887,0,1.605,0.903,1.605,2.017C38.02,36.131,37.301,37.033,36.414,37.033z M36,24.974c0-5.761,0-4.286,0-8.25
        c0-1.986,4.002-2.234,4.002,0c0,4.023,0,4.493,0,6.25s1.998,1.832,1.998,0c0-1.831,0-5.127,0-9.125
        c0-3.669-6.721-3.879-7.828-0.875h-4.076c0.593-3.866,4.207-5.959,7.845-6.062c4.021-0.115,8.061,2.189,8.061,7.188
        c0,9.946,0,5.165,0,10.875S36,30.734,36,24.974z M47.984,45.033h-1.986c-1.096,0-1.986-0.902-1.986-2.017
        c0-1.113,0.891-2.017,1.986-2.017h1.986c1.098,0,1.986,0.903,1.986,2.017C49.971,44.131,49.082,45.033,47.984,45.033z
         M47.984,37.033h-1.986c-1.096,0-1.986-0.902-1.986-2.017c0-1.113,0.891-2.017,1.986-2.017h1.986c1.098,0,1.986,0.903,1.986,2.017
        C49.971,36.131,49.082,37.033,47.984,37.033z"/>
</svg>
