<svg xmlns="http://www.w3.org/2000/svg" width="64" height="64" viewBox="0 0 64 64">
    <path d="M62,64v-4c0-2.071-1.58-3.755-3.597-3.959C58.272,56.014,58.138,56,58,56V6
        c0-1.104-0.896-2-2-2h-6V2c0-1.104-0.896-2-2-2H16c-1.104,0-2,0.896-2,2v2H8C6.896,4,6,4.896,6,6v50
        c-0.138,0-0.273,0.014-0.403,0.041C3.58,56.245,2,57.929,2,60v4H62z M42,14h8v8h-8V14z M42,28h8v8h-8V28z M42,42h8v14h-8V42z
         M28,14h8v8h-8V14z M28,28h8v8h-8V28z M28,42h8v8h-8V42z M14,14h8v8h-8V14z M14,28h8v8h-8V28z M14,42h8v8h-8V42z"/>
</svg>
