<svg xmlns="http://www.w3.org/2000/svg" width="64" height="64" viewBox="0 0 64 64">
    <path d="M42,27h-8v6h8V27z M42,35h-8v6h8V35z M54,27h-8v6h8V27z M42,43h-8v6h8V43z
         M54,35h-8v6h8V35z M18,43h-8v6h8V43z M58,11h-2V9c0-2.209-1.791-4-4-4h-4c-2.209,0-4,1.791-4,4v2h-6V9c0-2.209-1.791-4-4-4h-4
        c-2.209,0-4,1.791-4,4v2h-6V9c0-2.209-1.791-4-4-4h-4C9.791,5,8,6.791,8,9v2H6c-3.313,0-6,2.687-6,6v36c0,3.313,2.687,6,6,6h52
        c3.313,0,6-2.687,6-6V17C64,13.687,61.313,11,58,11z M58,53H6V23h52V53z M18,35h-8v6h8V35z M30,35h-8v6h8V35z M30,27h-8v6h8V27z
         M30,43h-8v6h8V43z M54,43h-8v6h8V43z"/>
</svg>
