<svg xmlns="http://www.w3.org/2000/svg" width="64" height="64" viewBox="0 0 64 64">
    <path d="M58.483,10.169c0.003-0.049-0.007-0.092-0.033-0.133
        c-0.283-0.45-2.124-2.54-5.146-4.026c-0.149-0.093-0.3-0.186-0.467-0.261l-3.073-1.394c-1.624-0.736-3.51-0.257-4.258,1.05
        l-6.783,11.841c-0.75,1.31-0.196,3.162,1.277,4.164l2.588,1.761c0.004,0.002,0.006,0.005,0.009,0.007
        c1.203,0.788,3.825,3.394,0.233,7.577c-0.112,0.131-0.208,0.257-0.29,0.379c-2.331,2.893-4.972,5.817-7.854,8.681
        c-1.211,1.057-2.422,2.078-3.628,3.035c-0.123,0.08-0.25,0.175-0.381,0.286c-4.183,3.532-6.762,0.982-7.54-0.189
        c-0.003-0.004-0.006-0.006-0.009-0.011l-1.738-2.519c-0.99-1.436-2.83-1.967-4.137-1.227l-11.82,6.69
        c-1.304,0.738-1.79,2.584-1.066,4.167l1.372,2.997c0.074,0.161,0.165,0.306,0.255,0.45c1.464,2.951,3.537,4.741,3.982,5.016
        c0.041,0.025,0.084,0.035,0.133,0.032c5.754,4.639,22.674-2.244,34.835-15.282C56.961,31.294,63.024,15.689,58.483,10.169z
         M4.412,21.344c0.07,0.156,1.681,3.703,3.788,6.657c2.167,3.036,4.799,5.446,4.936,5.571l0.017,0.023
        c0.243,0.341,0.555,0.509,0.867,0.507c0.312,0.002,0.625-0.166,0.867-0.507l0.018-0.023c0.137-0.125,2.769-2.535,4.935-5.571
        c2.108-2.954,3.718-6.501,3.788-6.657l0.021-0.029c0.254-0.356,0.391-0.845,0.391-1.343c0-0.23-0.029-0.464-0.09-0.687
        c-0.189-0.703-0.65-1.165-1.164-1.165h-4.771v-0.461c0-7.436,5.695-7.607,5.695-7.607l-0.014-0.087
        c1.333-0.311,2.328-1.505,2.328-2.94c0-1.67-1.347-3.024-3.008-3.024c-0.506,0-0.976,0.138-1.395,0.36
        c-3.062,0.804-11.078,3.853-11.572,13.76H5.254c-0.513,0-0.975,0.462-1.164,1.165C4.03,19.508,4,19.741,4,19.972
        c0,0.498,0.137,0.986,0.391,1.343L4.412,21.344z"/>
</svg>
