<svg xmlns="http://www.w3.org/2000/svg" width="64" height="64" viewBox="0 0 64 64">
    <path d="M59.377,49.618C62.236,46.573,64,42.488,64,37.982c0-5.192-2.333-9.834-6-12.956
        V15c0-3.313-2.687-6-6-6H6c-3.313,0-6,2.687-6,6v26c0,3.313,2.687,6,6,6h26.565c3.009,4.799,8.333,8,14.416,8
        c2.324,0,4.539-0.469,6.558-1.312l3.799,5.654c1.096,1.631,3.34,2.115,5.013,1.081s2.141-3.194,1.044-4.825L59.377,49.618z
         M11.977,17.001c2.214,0,4.008,1.794,4.008,4.007s-1.794,4.007-4.008,4.007c-2.213,0-4.008-1.794-4.008-4.007
        S9.764,17.001,11.977,17.001z M13.99,37h-4c-1.104,0-2-0.896-2-2s0.896-2,2-2h4c1.104,0,2,0.896,2,2S15.095,37,13.99,37z
         M17.976,24.456c1.19-0.694,1.999-1.971,1.999-3.448s-0.809-2.754-1.999-3.448c0.592-0.346,1.273-0.559,2.009-0.559
        c2.213,0,4.008,1.794,4.008,4.007s-1.795,4.007-4.008,4.007C19.249,25.015,18.568,24.802,17.976,24.456z M27.99,37h-4
        c-1.104,0-2-0.896-2-2s0.896-2,2-2h4c1.104,0,2,0.896,2,2S29.095,37,27.99,37z M57.086,46.208l-0.016-0.023
        c-0.002,0.002-0.003,0.004-0.005,0.006c-0.078,0.096-0.164,0.186-0.245,0.28c-0.156,0.18-0.314,0.355-0.479,0.526
        c-0.115,0.119-0.233,0.235-0.353,0.351c-0.141,0.135-0.286,0.265-0.434,0.394c-0.059,0.051-0.122,0.097-0.181,0.146
        c-0.117,0.099-0.236,0.192-0.356,0.287c-0.085,0.066-0.165,0.139-0.251,0.203c-0.11,0.082-0.218,0.168-0.331,0.247
        c-0.048,0.033-0.099,0.063-0.147,0.096c-0.054,0.036-0.108,0.069-0.162,0.105c-0.097,0.062-0.19,0.125-0.287,0.186
        c-0.086,0.053-0.171,0.105-0.258,0.156c-0.044,0.026-0.093,0.047-0.138,0.072c-0.257,0.148-0.521,0.284-0.789,0.414
        c-0.108,0.053-0.215,0.107-0.325,0.157c-0.291,0.132-0.59,0.249-0.892,0.36c-0.064,0.023-0.125,0.054-0.189,0.076
        c-0.006,0.002-0.011,0.004-0.017,0.006l0.022,0.033c-1.337,0.465-2.768,0.729-4.263,0.729c-3.693,0-7.02-1.546-9.387-4.017h0.039
        c-0.019-0.02-0.034-0.042-0.052-0.062c-1.083-1.136-1.968-2.46-2.584-3.93c-0.011-0.021-0.022-0.043-0.031-0.065
        c-0.021-0.049-0.035-0.1-0.055-0.148c-0.133-0.333-0.258-0.669-0.363-1.014c-0.034-0.11-0.057-0.226-0.087-0.337
        c-0.049-0.179-0.091-0.359-0.136-0.54c0.002,0,0.003-0.001,0.004-0.001c-0.215-0.938-0.339-1.908-0.339-2.91
        c0-0.03,0.004-0.059,0.005-0.088c-0.004,0-0.007,0.002-0.011,0.002c0.002-0.24,0.03-0.474,0.046-0.711
        c0.013-0.206,0.019-0.414,0.04-0.617c0.004-0.033,0.003-0.068,0.007-0.103c0.018-0.153,0.046-0.303,0.069-0.455
        c0.012-0.08,0.032-0.156,0.045-0.235c0.038-0.219,0.077-0.437,0.125-0.651c0.01-0.046,0.016-0.093,0.026-0.138
        c0.039-0.164,0.08-0.326,0.125-0.488c0.014-0.048,0.032-0.094,0.046-0.142c0.06-0.206,0.128-0.408,0.198-0.61
        c0.026-0.075,0.047-0.154,0.074-0.229c0.051-0.138,0.097-0.277,0.151-0.413c0.013-0.031,0.028-0.062,0.043-0.092
        c0.479-1.152,1.119-2.219,1.892-3.175c-0.001-0.001-0.003-0.002-0.004-0.003c0.04-0.053,0.08-0.106,0.123-0.158
        c0.216-0.259,0.445-0.507,0.681-0.749c0.027-0.028,0.056-0.055,0.084-0.082c0.031-0.032,0.063-0.062,0.095-0.094
        c0.042-0.04,0.083-0.082,0.125-0.122c0.168-0.161,0.341-0.317,0.518-0.469c0.057-0.049,0.114-0.098,0.171-0.147
        c0.023-0.02,0.047-0.042,0.071-0.062c0.022-0.02,0.045-0.04,0.068-0.059c0.253-0.204,0.514-0.398,0.781-0.583
        c0.023-0.016,0.048-0.031,0.071-0.046c0.058-0.039,0.116-0.076,0.174-0.114c0.047-0.03,0.093-0.061,0.14-0.091
        c0.18-0.116,0.363-0.227,0.55-0.334c0.047-0.027,0.095-0.053,0.142-0.08c0.064-0.035,0.127-0.073,0.191-0.107
        c0.025-0.014,0.051-0.029,0.076-0.042c0.285-0.15,0.575-0.291,0.873-0.42c0.021-0.009,0.044-0.017,0.065-0.026
        c0.062-0.026,0.124-0.049,0.187-0.074c0.06-0.023,0.118-0.048,0.179-0.071c0.199-0.078,0.399-0.152,0.604-0.221
        c0.042-0.014,0.083-0.026,0.125-0.04c0.085-0.028,0.169-0.056,0.255-0.082c0.031-0.01,0.062-0.021,0.093-0.03
        c0.279-0.082,0.562-0.154,0.849-0.218c0.028-0.006,0.057-0.01,0.085-0.016c0.101-0.021,0.201-0.039,0.302-0.058
        c0.052-0.009,0.102-0.02,0.153-0.029c0.227-0.04,0.455-0.076,0.686-0.104c0.04-0.005,0.081-0.008,0.122-0.013
        c0.088-0.01,0.176-0.02,0.265-0.028c0.039-0.003,0.078-0.009,0.118-0.012c0.258-0.021,0.518-0.033,0.779-0.04
        c0.104-0.002,0.207-0.016,0.312-0.016c4.646,0,8.711,2.442,11.01,6.104v0c0.003,0.004,0.005,0.008,0.007,0.012
        c0.076,0.121,0.133,0.253,0.205,0.377c0.12,0.208,0.234,0.419,0.344,0.635c0.072,0.142,0.16,0.274,0.228,0.418
        c0.022,0.05,0.048,0.098,0.07,0.148c0.087,0.192,0.165,0.388,0.242,0.585c0.069,0.177,0.134,0.355,0.196,0.535
        c0.05,0.146,0.102,0.291,0.146,0.439c0.108,0.355,0.201,0.717,0.279,1.084c0.007,0.034,0.012,0.07,0.019,0.104
        c0.078,0.385,0.137,0.776,0.18,1.173c0.002,0.024,0.006,0.049,0.008,0.073c0.045,0.435,0.075,0.873,0.075,1.319
        C59.999,41.121,58.905,43.971,57.086,46.208z M55.198,39.751c-0.412-0.188-0.929-0.315-1.579-0.315H53.53v-8.183
        c0-0.275-0.03-0.52-0.075-0.75c-0.767-0.66-1.63-1.208-2.573-1.611c-0.249,0.077-0.474,0.206-0.682,0.401
        c-0.274,0.259-0.608,0.653-1.019,1.206l-5.973,8c-0.166,0.219-0.307,0.404-0.42,0.557c-0.116,0.155-0.229,0.317-0.346,0.496
        c-0.129,0.2-0.223,0.386-0.283,0.56c-0.072,0.198-0.108,0.403-0.108,0.605c0,0.696,0.232,1.268,0.692,1.685
        c0.443,0.401,1.088,0.616,1.914,0.616h5.159v1.598c0,0.687,0.189,1.226,0.529,1.605c0.321,0.358,0.753,0.547,1.251,0.576
        c0.65-0.342,1.257-0.754,1.812-1.226c0.082-0.276,0.12-0.594,0.12-0.956v-1.598h0.292c0.672,0,1.178-0.146,1.547-0.403
        c0.288-0.201,0.631-0.62,0.631-1.37C56,40.326,55.564,39.916,55.198,39.751z M49.817,39.436h-3.412l3.412-4.588V39.436z
         M38.941,32.234c-1.174,1.629-1.872,3.621-1.872,5.781c0,2.094,0.652,4.033,1.761,5.635c0.298-0.603,0.547-1.274,0.733-2.024
        c0.285-1.15,0.429-2.49,0.429-3.981c0-1.343-0.137-2.565-0.408-3.635C39.418,33.353,39.199,32.764,38.941,32.234z"/>
</svg>
