<svg xmlns="http://www.w3.org/2000/svg" width="64" height="64" viewBox="0 0 64 64">
    <path d="M58,11H6c-3.313,0-6,2.687-6,6v30c0,3.314,2.687,6,6,6h52c3.313,0,6-2.686,6-6
        V17C64,13.687,61.313,11,58,11z M16,43h-4c-1.104,0-2-0.896-2-2s0.896-2,2-2h4c1.104,0,2,0.896,2,2S17.104,43,16,43z
         M13.999,28.979c-2.218,0-4.016-1.786-4.016-3.988c0-2.203,1.798-3.989,4.016-3.989s4.016,1.786,4.016,3.989
        C18.015,27.192,16.217,28.979,13.999,28.979z M19.988,28.43c1.192-0.689,2.004-1.964,2.004-3.439c0-1.476-0.812-2.75-2.004-3.44
        c0.591-0.34,1.268-0.549,2-0.549c2.218,0,4.016,1.786,4.016,3.989c0,2.202-1.798,3.988-4.016,3.988
        C21.256,28.979,20.579,28.77,19.988,28.43z M28,43h-4c-1.104,0-2-0.896-2-2s0.896-2,2-2h4c1.104,0,2,0.896,2,2S29.104,43,28,43z
         M40,43h-4c-1.104,0-2-0.896-2-2s0.896-2,2-2h4c1.104,0,2,0.896,2,2S41.104,43,40,43z M52,43h-4c-1.104,0-2-0.896-2-2s0.896-2,2-2
        h4c1.104,0,2,0.896,2,2S53.104,43,52,43z"/>
</svg>
