<svg xmlns="http://www.w3.org/2000/svg" width="64" height="64" viewBox="0 0 64 64">
    <path d="M41.771,32l12.216-12.215c1.35-1.351,1.35-3.537,0-4.886l-4.886-4.887
        c-1.349-1.349-3.537-1.349-4.887,0L32,22.228L19.784,10.012c-1.35-1.349-3.537-1.349-4.886,0l-4.886,4.887
        c-1.349,1.349-1.349,3.536,0,4.886L22.227,32L10.012,44.216c-1.349,1.349-1.349,3.536,0,4.886l4.886,4.886
        c1.349,1.35,3.537,1.35,4.886,0L32,41.772l12.215,12.215c1.35,1.35,3.538,1.35,4.887,0l4.886-4.886c1.35-1.35,1.35-3.537,0-4.886
        L41.771,32z"/>
</svg>
