<svg xmlns="http://www.w3.org/2000/svg" width="64" height="64" viewBox="0 0 64 64">
    <path d="M32,4C16.536,4,4,16.536,4,32s12.536,28,28,28s28-12.536,28-28S47.464,4,32,4z
         M45.422,39.454c0.824,0.823,0.824,2.159,0,2.983l-2.984,2.984c-0.823,0.824-2.16,0.824-2.984,0l-7.46-7.461l-7.461,7.461
        c-0.824,0.824-2.16,0.824-2.984,0l-2.983-2.984c-0.824-0.824-0.824-2.16,0-2.983l7.461-7.461l-7.461-7.461
        c-0.824-0.824-0.824-2.16,0-2.984l2.983-2.983c0.824-0.824,2.16-0.824,2.984,0l7.461,7.46l7.46-7.46
        c0.824-0.824,2.161-0.824,2.984,0l2.984,2.983c0.824,0.824,0.824,2.16,0,2.984l-7.461,7.461L45.422,39.454z"/>
</svg>
