<svg xmlns="http://www.w3.org/2000/svg" width="64" height="64" viewBox="0 0 64 64">
    <path d="M55.478,54.984c0.04,0.04,0.069,0.08,0.08,0.09c0.39,0.53-10.09-9.73-23.16-20.5c-6.26,6.32-13.14,13.53-19.84,21.109
        c-4.36,4.931-10.54,1.761-5-7.319c5.35-8.78,10.53-15.71,15.44-21.22c-5.3-4.01-10.7-7.74-15.73-10.6
        c-6.74-3.85-2.39-8.25,7.53-4.47c5.96,2.27,11.14,4.83,15.67,7.53c9.17-8.26,17.13-11.82,23.16-14.08
        c3.551-1.32,7.94,2.07,2.67,6.22c-0.27,0.21-6.72,5.96-15.819,14.82c13.6,11.03,18.08,22.15,18.99,24.13
        c1.319,2.85,0.239,8.81-3.91,4.38C55.537,55.044,55.508,55.014,55.478,54.984z"/>
</svg>
