<svg xmlns="http://www.w3.org/2000/svg" width="64" height="64" viewBox="0 0 64 64">
    <path d="M30,37.016h-4V41c0,3.313-2.686,6-6,6h-6c0,1.104-0.896,2-2,2s-2-0.896-2-2
        H1.186c0.735,2.272,1.809,4.26,3.156,6H30V37.016z M63.999,38.99C63.994,36.786,62.206,35,60,35h-9.996V24.999h2.467v-0.071
        c0.777,0.133,1.602-0.04,2.201-0.601c0.973-0.908,0.973-2.381,0-3.289c0,0-4.386-5.729-9.521-10.531
        C40.082,5.77,34.262,1.958,34.262,1.958c-0.199-0.187-0.429-0.316-0.668-0.42c-0.327-0.204-0.938-0.342-1.646-0.342
        c-0.768,0-1.424,0.162-1.725,0.394c-0.189,0.097-0.369,0.217-0.531,0.369c0,0-5.82,3.812-10.888,8.549
        C13.667,15.309,9.28,21.038,9.28,21.038c-0.972,0.908-0.972,2.381,0,3.289c0.612,0.573,1.458,0.742,2.247,0.593v0.08h2.468V35H4
        c-2.206,0-3.994,1.786-3.999,3.99h0c0,0.002,0,0.004,0,0.006S0,38.999,0,39v2h0.07H10c0-1.104,0.896-2,2-2s2,0.896,2,2h6v-6h0.043
        V20.558l-0.01-0.587c1.153-1.413,2.798-3.461,4.697-5.283c3.246-3.116,6.959-5.661,6.997-5.687l-0.021-0.006l0.291,0.064
        l0.151-0.044c0.314,0.214,3.924,2.69,7.031,5.671c1.902,1.827,3.666,3.881,4.82,5.294l-0.004,0.577V35H44v8h6c0-1.104,0.896-2,2-2
        s2,0.896,2,2h9.719c0.09-0.65,0.166-1.312,0.211-2H64v-2C64,38.997,63.999,38.994,63.999,38.99z M52,51c-1.104,0-2-0.896-2-2h-6
        c-3.313,0-6-2.686-6-6v-5.984h-4V53c0,2.209-1.791,4-4,4H8.497C14.34,61.236,22.7,63,32,63c13.818,0,25.585-3.869,30.062-14H54
        C54,50.104,53.104,51,52,51z"/>
</svg>
