<svg xmlns="http://www.w3.org/2000/svg" width="64" height="64" viewBox="0 0 64 64">
    <path d="M39.941,20.122c-0.286-0.166-0.713-0.018-1.068,0.372L28.709,31.621
        c-0.199,0.219-0.357,0.493-0.447,0.775l-4.52,14.289c-0.159,0.502-0.074,0.946,0.212,1.112c0.286,0.165,0.712,0.017,1.068-0.372
        l10.164-11.128c0.2-0.218,0.358-0.492,0.447-0.774l4.52-14.289C40.312,20.731,40.227,20.287,39.941,20.122z M39.413,7
        C38.226,4.069,35.356,2,32,2s-6.225,2.069-7.413,5C12.722,10.25,4,21.104,4,34c0,15.464,12.536,28,28,28s28-12.536,28-28
        C60,21.104,51.277,10.25,39.413,7z M36.463,53.894L32,50.918l-4.463,2.976c-7.679-1.716-13.71-7.76-15.427-15.437L15.082,34
        l-2.972-4.458c1.716-7.677,7.748-13.719,15.428-15.435L32,17.082l4.462-2.975c7.68,1.716,13.712,7.758,15.428,15.435L48.918,34
        l2.972,4.458C50.174,46.134,44.142,52.177,36.463,53.894z"/>
</svg>
