<svg xmlns="http://www.w3.org/2000/svg" width="64" height="64" viewBox="0 0 64 64">
    <path d="M56,60H37.277c-0.056-0.009-0.111-0.016-0.166-0.016
        c-1.049,0-1.574-0.186-2.517-1.114L5.059,29.334c-0.643-0.664-1.056-1.301-1.056-2.205C4.003,27.119,4,27.11,4,27.101V8
        c0-2.209,1.791-4,4-4h30c2.209,0,4,1.791,4,4v14h14c2.209,0,4,1.791,4,4v30C60,58.209,58.209,60,56,60z M21.967,38.17
        c0.242-0.029,0.48-0.071,0.731-0.071c3.381,0,6.122,2.74,6.122,6.121c0,0.224-0.041,0.437-0.064,0.653l3.742,3.695
        c0.279-0.976,0.43-2.008,0.43-3.079c0-6.11-4.776-11.063-10.668-11.063c-1.215,0-2.373,0.227-3.456,0.621L21.967,38.17z M54,34
        c-3.313,0-6-2.687-6-6l0,0H11.666l3.825,3.776c2.028-1.03,4.324-1.576,6.769-1.576c8.248,0,14.936,6.735,14.936,15.289
        c0,2.281-0.5,4.43-1.361,6.372L38,54h10c0-3.313,2.687-6,6-6V34z M45,44c-1.656,0-3-1.343-3-3c0-1.656,1.344-3,3-3s3,1.344,3,3
        C48,42.657,46.656,44,45,44z"/>
</svg>
