<svg xmlns="http://www.w3.org/2000/svg" width="64" height="64" viewBox="0 0 64 64">
    <path d="M50,50h-4v6c0,3.313-2.687,6-6,6H14c-3.313,0-6-2.687-6-6V20c0-3.313,2.687-6,6-6
        h4V8c0-3.313,2.687-6,6-6h26c3.313,0,6,2.687,6,6v36C56,47.313,53.313,50,50,50z M19.498,47.929C18.639,47.705,18,46.931,18,46
        c0-0.257,0.053-0.502,0.142-0.728C18.053,44.861,18,44.438,18,44V20h-4v36h26v-6H24C22.197,50,20.599,49.188,19.498,47.929z M50,8
        H24v36h26V8z M30,14h6c1.104,0,2,0.896,2,2s-0.896,2-2,2h-6c-1.104,0-2-0.896-2-2S28.896,14,30,14z M30,20h14c1.104,0,2,0.896,2,2
        s-0.896,2-2,2H30c-1.104,0-2-0.896-2-2S28.896,20,30,20z M30,26h8c1.104,0,2,0.896,2,2s-0.896,2-2,2h-8c-1.104,0-2-0.896-2-2
        S28.896,26,30,26z M30,32h14c1.104,0,2,0.896,2,2s-0.896,2-2,2H30c-1.104,0-2-0.896-2-2S28.896,32,30,32z"/>
</svg>
