<svg xmlns="http://www.w3.org/2000/svg" width="64" height="64" viewBox="0 0 64 64">
    <path d="M25.861,21.038c1.766,0,3.198-1.432,3.198-3.198s-1.432-3.198-3.198-3.198
        c-1.766,0-3.198,1.432-3.198,3.198S24.095,21.038,25.861,21.038z M37.816,14.642c-1.768,0-3.199,1.432-3.199,3.198
        s1.432,3.198,3.199,3.198c1.766,0,3.197-1.432,3.197-3.198S39.582,14.642,37.816,14.642z M20.681,33.068
        c-0.992,0.697-1.232,2.064-0.536,3.057l10.084,14.367c0.696,0.992,2.064,1.232,3.056,0.537c0.992-0.697,1.232-2.064,0.535-3.057
        L23.737,33.604C23.041,32.613,21.672,32.373,20.681,33.068z M45.768,22.641c-1.766,0-3.197,1.432-3.197,3.198
        s1.432,3.198,3.197,3.198s3.197-1.432,3.197-3.198S47.533,22.641,45.768,22.641z M31.847,2C15.363,2,2,15.363,2,31.847
        c0,16.485,13.363,29.848,29.847,29.848c16.485,0,29.848-13.363,29.848-29.848C61.695,15.363,48.332,2,31.847,2z M51.277,44.072
        c-5.002-4.92-11.859-7.957-19.43-7.957c-0.822,0-1.634,0.043-2.438,0.112l6.882,9.505c1.732,2.393,1.197,5.736-1.193,7.469
        c-2.393,1.732-5.737,1.197-7.469-1.195l-9.055-12.504c-2.261,1.237-4.333,2.777-6.156,4.57c-2.234-3.543-3.547-7.727-3.547-12.225
        c0-12.689,10.287-22.976,22.976-22.976c12.69,0,22.977,10.287,22.977,22.976C54.824,36.346,53.512,40.529,51.277,44.072z
         M21.062,25.838c0-1.766-1.432-3.198-3.198-3.198s-3.198,1.432-3.198,3.198s1.432,3.198,3.198,3.198S21.062,27.604,21.062,25.838z
        "/>
</svg>
