<svg xmlns="http://www.w3.org/2000/svg" width="64" height="64" viewBox="0 0 64 64">
    <path d="M64,44.75c0,0,0-6.97,0-9.577c0-5.022-3.325-11.91-5.829-17.932
        c-2.119-5.094-12.694-4.764-18.171-5.96c-5.477-1.197-6,1.143-6,4V37H0v7.381C0,50.722,4.022,51,4.022,51s0.727,0,2.002,0
        c0.007,5.523,4.47,10,9.975,10s9.968-4.477,9.975-10h12.05c0.007,5.523,4.469,10,9.975,10s9.968-4.477,9.975-10h0.166
        C64.83,51,64,44.75,64,44.75z M16,55.011c-2.203,0-3.99-1.794-3.99-4.005C12.01,48.793,13.797,47,16,47
        c2.204,0,3.99,1.793,3.99,4.006C19.99,53.217,18.204,55.011,16,55.011z M48,55.011c-2.203,0-3.99-1.794-3.99-4.005
        C44.01,48.793,45.797,47,48,47c2.204,0,3.99,1.793,3.99,4.006C51.99,53.217,50.204,55.011,48,55.011z M44,31c-1.104,0-2-0.896-2-2
        v-8c0-1.104,0.896-2,2-2h8l4,12H44z M4,33h22c2.209,0,4-1.791,4-4V7c0-2.209-1.791-4-4-4H4C1.791,3,0,4.791,0,7v22
        C0,31.209,1.791,33,4,33z M24,27H11.466L24,14.466V27z M6,9h12.516L6,21.516V9z"/>
</svg>
