<svg xmlns="http://www.w3.org/2000/svg" width="64" height="64" viewBox="0 0 64 64">
    <path d="M38,30c-1.104,0-2-0.896-2-2V18c0-1.104,0.896-2,2-2h6c1.104,0,2,0.896,2,2
        s-0.896,2-2,2h-4v2h2c1.104,0,2,0.896,2,2s-0.896,2-2,2h-2v2C40,29.104,39.104,30,38,30z M28,16c3.313,0,6,2.687,6,6v2
        c0,3.313-2.687,6-6,6h-4c-1.104,0-2-0.896-2-2V18c0-1.104,0.896-2,2-2H28z M26,26h2c1.104,0,2-0.896,2-2v-2c0-1.104-0.896-2-2-2h-2
        V26z M55.981,35.554c0,4.288-0.542,5.604-3.933,8.839c-0.129,0.124-0.21,0.246-0.306,0.368L39.892,56.613
        C36.991,59.261,35.805,60,32.062,60H16c-2.209,0-4-1.791-4-4V34h6v20h14c2.209,0,4-1.791,4-4v-6c0-2.209,1.791-4,4-4h6
        c2.209,0,4-1.791,4-4V10H18v2h-6V8c0-2.209,1.791-4,4-4h36c2.209,0,4,1.791,4,4v27.382C55.997,35.442,55.981,35.491,55.981,35.554z
         M20,21c0,2.762-2.238,5-5,5h-3v2c0,1.104-0.896,2-2,2s-2-0.896-2-2V18c0-1.104,0.896-2,2-2h5C17.762,16,20,18.238,20,21z M12,22h4
        v-2h-4V22z"/>
</svg>
