<svg xmlns="http://www.w3.org/2000/svg" width="64" height="64" viewBox="0 0 64 64">
    <path d="M36,16.829l3,8.671l3-8.671C42.426,15.725,44.052,16,44.966,16s1.31,0.896,0.884,2
        l-3.853,10c-0.426,1.104-1.512,2-2.427,2c-0.229,0-0.912,0-1.141,0c-0.914,0-2.001-0.896-2.427-2L32.15,18
        c-0.426-1.104-0.03-2,0.884-2S35.574,15.725,36,16.829z M25,24.75h-1v-0.088c-2.282-0.406-4-2.171-4-4.287
        C20,17.959,22.238,16,25,16h3c1.104,0,2,0.896,2,2s-0.896,2-2,2h-4v1.25h1c2.762,0,5,1.959,5,4.375S27.762,30,25,30h-3
        c-1.104,0-2-0.896-2-2s0.896-2,2-2h4v-1.25H25z M55.982,35.554c0,4.288-0.543,5.604-3.934,8.839
        c-0.129,0.124-0.21,0.246-0.306,0.369L39.892,56.613C36.991,59.261,35.805,60,32.062,60H16c-2.209,0-4-1.791-4-4V34h6v20h14
        c2.209,0,4-1.791,4-4v-6c0-2.209,1.791-4,4-4h6c2.209,0,4-1.791,4-4V10H18v2h-6V8c0-2.209,1.791-4,4-4h36c2.209,0,4,1.791,4,4
        v27.382C55.997,35.442,55.982,35.491,55.982,35.554z M16,16c1.104,0,2,0.896,2,2s-0.896,2-2,2h-2c-1.104,0-2,0.896-2,2v2
        c0,1.104,0.896,2,2,2h2c1.104,0,2,0.896,2,2s-0.896,2-2,2h-2c-3.313,0-6-2.687-6-6v-2c0-3.313,2.687-6,6-6H16z"/>
</svg>
