<svg xmlns="http://www.w3.org/2000/svg" width="64" height="64" viewBox="0 0 64 64">
    <path d="M34,30c-1.104,0-2-0.896-2-2v-8c-1.104,0-2-0.896-2-2s0.896-2,2-2h4
        c1.104,0,2,0.896,2,2s-0.896,2-2,2v8C36,29.104,35.104,30,34,30z M27.029,29.838c-1.1,0.506-2.123,0.045-2.765-1.029l-1.294-2.168
        l-1.274,2.111c-0.646,1.069-1.676,1.528-2.782,1.024c-1.105-0.504-1.219-1.779-0.573-2.85l2.413-4l-2.297-3.848
        c-0.642-1.074-0.658-2.355,0.441-2.862c1.1-0.506,2.252-0.045,2.894,1.029l1.188,1.99l1.203-1.995
        c0.646-1.07,1.807-1.529,2.912-1.025c1.106,0.504,1.09,1.78,0.444,2.85l-2.344,3.885l2.403,4.025
        C28.241,28.051,28.128,29.332,27.029,29.838z M55.982,35.554c0,4.288-0.543,5.604-3.934,8.839c-0.129,0.124-0.21,0.246-0.306,0.369
        L39.893,56.612C36.991,59.261,35.805,60,32.062,60H16c-2.209,0-4-1.791-4-4V34h6v20h14c2.209,0,4-1.791,4-4v-6c0-2.209,1.791-4,4-4
        h6c2.209,0,4-1.791,4-4V10H18v2h-6V8c0-2.209,1.791-4,4-4h36c2.209,0,4,1.791,4,4v27.382C55.997,35.442,55.982,35.491,55.982,35.554
        z M16,18c0,1.104-0.896,2-2,2v8c0,1.104-0.896,2-2,2s-2-0.896-2-2v-8c-1.104,0-2-0.896-2-2s0.896-2,2-2h4C15.104,16,16,16.896,16,18
        z"/>
</svg>
