<svg xmlns="http://www.w3.org/2000/svg" width="64" height="64" viewBox="0 0 64 64">
    <path d="M48,18v8h2c1.104,0,2,0.896,2,2s-0.896,2-2,2h-4c-1.104,0-2-0.896-2-2V18
        c0-1.104,0.896-2,2-2S48,16.896,48,18z M28,30c-1.104,0-2-0.896-2-2V18c0-1.104,0.896-2,2-2s2.417,0.896,2.932,2L34,24.591
        L37.068,18c0.515-1.104,1.827-2,2.932-2s2,0.896,2,2v10c0,1.104-0.896,2-2,2s-2-0.896-2-2v-3.409c0,0-1.895,5.343-4,5.343
        s-4-5.343-4-5.343V28C30,29.104,29.104,30,28,30z M61.981,35.554c0,4.288-0.542,5.604-3.933,8.839
        c-0.129,0.124-0.21,0.246-0.306,0.369L45.893,56.612c-2.9,2.648-4.088,3.388-7.83,3.388H22c-2.209,0-4-1.791-4-4V34h6v20h14
        c2.209,0,4-1.791,4-4v-6c0-2.209,1.791-4,4-4h6c2.209,0,4-1.791,4-4V10H24v2h-6V8c0-2.209,1.791-4,4-4h36c2.209,0,4,1.791,4,4
        v27.382C61.997,35.442,61.981,35.491,61.981,35.554z M22,16c1.104,0,2,0.896,2,2s-0.896,2-2,2v8c0,1.104-0.896,2-2,2s-2-0.896-2-2
        v-8c-1.104,0-2-0.896-2-2s0.896-2,2-2H22z M12,30c-1.104,0-2-0.896-2-2v-2H6v2c0,1.104-0.896,2-2,2s-2-0.896-2-2V18
        c0-1.104,0.896-2,2-2s2,0.896,2,2v4h4v-4c0-1.104,0.896-2,2-2s2,0.896,2,2v10C14,29.104,13.104,30,12,30z"/>
</svg>
