<svg xmlns="http://www.w3.org/2000/svg" width="64" height="64" viewBox="0 0 64 64">
    <path d="M50.014,23h-3.389c-2.135-0.107-3.875-0.413-4.598-2.37
        c-0.15-2.13-1.16-5.113-5.027-6.399V29.72c6.852,1.939,12.719,4.52,14.91,9.33c3.682,8.088-1.734,17.51-14.842,19.615v1.436
        c0,2.141-2.238,2.899-5,2.899s-5-0.759-5-2.899v-1.303C15.26,57.094,11.985,48.515,11.096,43.225
        c-0.003-0.021-0.001-0.037-0.004-0.06c-0.522-3.577,1.25-4.141,3.384-4.165h0.346c0.441,0.006,0.891,0.025,1.338,0.044
        c2.744,0.113,4.162,1.128,4.387,3.516c0.008,0.062,0.016,0.125,0.021,0.188c0.004,0.054,0.016,0.099,0.018,0.154
        c0.004,0.066,0.014,0.12,0.033,0.162c0.381,2.522,1.852,5.506,6.449,6.733V36.062c-10.182-3.546-15.572-8.839-15.986-14.559
        c-0.33-4.55,1.888-14.7,15.986-16.579V4.02c0-2.141,2.238-3.02,5-3.02s5,0.879,5,3.02v1.038c9.869,1.773,13.994,8.594,15.689,13.296
        C53.623,21.7,52.012,22.739,50.014,23z M37,50.102c5.811-0.811,7.221-3.457,5.463-7.92c-0.457-1.155-2.545-2.159-5.463-3.138V50.102
        z M27.068,14.186c-3.807,0.917-5.957,2.886-6.096,5.672c-0.111,2.248,1.146,5.012,6.096,7.056V14.186z"/>
</svg>
