<svg xmlns="http://www.w3.org/2000/svg" width="64" height="64" viewBox="0 0 64 64">
    <path d="M50,57H14c-4.418,0-8-3.581-8-8v-7.8v-1.8V37.8C6,37.358,6.358,37,6.8,37h6.4
        c0.441,0,0.8,0.358,0.8,0.8V39.4v1.8V49h36v-7.8v-1.8V37.8c0-0.441,0.358-0.8,0.8-0.8h6.4c0.441,0,0.8,0.358,0.8,0.8V39.4v1.8V49
        C58,53.419,54.418,57,50,57z M40.34,33.63c-2.412,3.024-5.169,5.51-6.598,6.723C33.232,40.784,32.615,41,31.999,41
        c-0.619,0-1.237-0.217-1.747-0.65c-1.147-0.977-4.087-3.587-6.597-6.734c-2.666-3.344-4.731-7.184-5.3-8.28
        c-0.471-0.907-0.453-2.01,0.048-2.899S19.812,21,20.793,21h3.201v-9.993C23.994,8.794,25.786,7,27.997,7h8.006
        c2.211,0,4.003,1.794,4.003,4.007V21h3.201c0.982,0,1.892,0.547,2.393,1.438c0.5,0.891,0.517,1.993,0.045,2.901
        C45.066,26.447,42.978,30.322,40.34,33.63z"/>
</svg>
