<svg xmlns="http://www.w3.org/2000/svg" width="64" height="64" viewBox="0 0 64 64">
    <path d="M50,15H14c-2.209,0-4,1.791-4,4v2c0,2.057,1.558,3.731,3.555,3.955L16.167,53
        c0,3.313,2.687,6,6,6h19.5c3.313,0,6-2.687,6-6l2.749-28.042C52.427,24.747,54,23.066,54,21v-2C54,16.791,52.209,15,50,15z
         M24.231,53c-1.116,0-2.12-1.14-2.243-2.545l-2.123-22.909C19.742,26.14,20.548,25,21.664,25s2.121,1.14,2.243,2.546l2.123,22.909
        C26.153,51.86,25.348,53,24.231,53z M34,50.455C34,51.86,33.104,53,32,53s-2-1.14-2-2.545V27.546C30,26.14,30.896,25,32,25
        s2,1.14,2,2.546V50.455z M44.135,27.546l-2.123,22.909C41.889,51.86,40.885,53,39.769,53s-1.922-1.14-1.799-2.545l2.123-22.909
        C40.216,26.14,41.22,25,42.336,25S44.258,26.14,44.135,27.546z M28,11h8v2h6v-2c0-3.313-2.687-6-6-6h-8c-3.313,0-6,2.687-6,6v2h6
        V11z"/>
</svg>
