<svg xmlns="http://www.w3.org/2000/svg" width="64" height="64" viewBox="0 0 64 64">
    <path d="M58.273,21.548c-0.043,0.043-0.098,0.071-0.146,0.106l-3.494,3.5
        c-0.064,0.109-0.137,0.212-0.227,0.301c-0.088,0.089-0.191,0.16-0.299,0.226l-4.617,4.627c-0.041,0.074-0.084,0.146-0.141,0.205
        c-0.059,0.057-0.131,0.098-0.203,0.139L26.129,53.713c-0.006,0.006-0.016,0.01-0.021,0.016c-0.922,0.938-2.879,2.248-4.539,2.891
        l-8.07,2.75L5.871,61c0.001-0.014-0.001-0.027,0-0.041c-0.773,0.068-1.543-0.156-2.108-0.727c-0.565-0.57-0.789-1.35-0.723-2.133
        c-0.014,0.002-0.027-0.002-0.041,0l1.726-8.154l3.085-8.879c0.338-0.871,0.675-1.396,1.178-1.953l33.39-33.429
        c0.008-0.008,0.012-0.02,0.02-0.027c1.361-1.363,5.74-6.66,14.111,1.715C64.883,15.748,59.637,20.186,58.273,21.548z M10.749,42.881
        c-1.44,3.41-3.176,9.105-3.176,9.105l4.599,4.598c0,0,5.87-1.914,9.252-3.344c1.355-0.572,2.352-1.561,2.352-1.561
        c-0.914-2.033-2.58-4.49-4.791-6.699c-2.111-2.109-4.479-3.74-6.48-4.676C12.504,40.305,11.633,40.785,10.749,42.881z
         M40.922,12.933L16.84,37.016c0,0,0.91,0.361,1.807,0.881c0.934,0.539,1.855,1.236,1.855,1.236l23.889-23.889
        c0,0-0.891-0.966-1.83-1.59C41.779,13.132,40.922,12.933,40.922,12.933z M53.684,10.286c-2.777-2.778-5.988-4.068-7.201-2.904
        l-0.008-0.008l-2.844,2.85c1.787,0.961,3.797,2.475,5.719,4.396c1.92,1.92,3.434,3.929,4.395,5.715l2.777-2.794
        c0.016-0.013,0.037-0.017,0.051-0.031c0.016-0.015,0.02-0.037,0.033-0.052l0.008-0.008l-0.002-0.002
        C57.721,16.21,56.436,13.038,53.684,10.286z"/>
</svg>
