<svg xmlns="http://www.w3.org/2000/svg" width="64" height="64" viewBox="0 0 64 64">
    <path d="M63.991,46.557c0,4.859,0.05,7.066-8.169,6.019
        c-0.047-0.006-0.093-0.012-0.14-0.019c-0.528-0.068-1.085-0.148-1.683-0.244c-0.245-0.039-0.46-0.034-0.66-0.011
        c-1.944-0.181-3.896-0.285-5.675-0.285c-3.882,0-7.366,0.479-9.851,1.239c-0.061,0.015-0.119,0.029-0.175,0.043
        c-0.977,0.253-1.86,0.7-3.497,0.7c-0.005,0-0.008,0.001-0.013,0.001h-4.257c-0.004,0-0.008-0.001-0.013-0.001
        c-1.636,0-2.521-0.447-3.497-0.7c-0.06-0.016-0.123-0.03-0.187-0.046c-2.484-0.76-5.966-1.236-9.842-1.236
        c-1.779,0-3.733,0.103-5.682,0.283c-0.198-0.022-0.411-0.025-0.653,0.013c-0.616,0.099-1.192,0.182-1.735,0.252
        c-0.018,0.002-0.034,0.005-0.052,0.007c-8.256,1.06-8.204-1.147-8.204-6.015c0-0.035-0.008-0.062-0.009-0.096V21.3
        c0.072-3.242,0.711-6.111,5.084-8.44C8.238,11.374,12.896,9.956,19.2,10C30.204,10.077,32,15.75,32,15.75l0,0
        c0,0,1.796-5.673,12.8-5.75c6.304-0.044,10.961,1.374,14.115,2.859c4.373,2.329,5.013,5.198,5.085,8.44v25.161
        C63.999,46.494,63.991,46.521,63.991,46.557z M30,23.006v-0.02c0-0.016-0.003-0.03-0.004-0.046
        c-0.055-1.388-0.455-2.482-0.905-3.311c-0.021-0.04-0.042-0.081-0.063-0.12c-0.068-0.121-0.135-0.232-0.203-0.341
        c-0.036-0.059-0.071-0.115-0.107-0.17c-0.06-0.091-0.115-0.175-0.173-0.257c-0.044-0.063-0.084-0.122-0.126-0.18
        c-0.062-0.084-0.115-0.16-0.17-0.232l0,0l0,0c-0.048-0.065-0.101-0.136-0.143-0.192c-0.003-0.005-0.005-0.004-0.009-0.009
        c-1.037-1.442-3.446-3.162-9.119-3.162c-5.393,0-10.341,1.526-13.693,2.892v28.625c3.151-1.453,7.747-2.812,13.916-2.77
        c5.805,0.041,9.032,1.638,10.8,3.138V23.535c0.004-0.099,0.015-0.187,0.015-0.292C30.015,23.16,30.002,23.087,30,23.006z
         M58.568,17.799c-3.35-1.35-8.232-2.832-13.547-2.832c-5.934,0-8.313,1.885-9.27,3.361c-0.628,0.844-1.767,2.431-1.767,4.915
        c0,0.104,0.011,0.191,0.015,0.289v23.319c1.768-1.5,4.995-3.097,10.8-3.138c6.077-0.042,10.621,1.277,13.769,2.706V17.799z
         M38,35.249c1.741-0.571,3.959-0.968,6.8-0.987c4.587-0.032,8.294,0.717,11.2,1.698v4.169c-3.076-1.02-6.892-1.899-10.979-1.899
        c-3.353,0-5.553,0.607-7.021,1.398V35.249z M38,32.368v-0.996V28.36v-3.621v-3.367V20.36c1.741-0.572,3.959-1.228,6.8-1.247
        c4.587-0.032,8.294,0.977,11.2,1.957v0.302v3.867v3.831v2.302v1.497c-3.076-1.019-6.892-1.898-10.979-1.898
        C41.669,30.971,39.469,31.578,38,32.368z M8,40.129V35.96c2.906-0.981,6.613-1.73,11.2-1.698c2.841,0.02,5.059,0.416,6.8,0.987
        v4.379c-1.469-0.791-3.669-1.398-7.022-1.398C14.892,38.229,11.076,39.109,8,40.129z M8,32.992v-4.168
        c2.906-0.981,6.613-1.73,11.2-1.699c2.841,0.021,5.059,0.416,6.8,0.988v4.379c-1.469-0.791-3.669-1.398-7.022-1.398
        C14.892,31.094,11.076,31.974,8,32.992z M8,25.61v-4.169c2.906-0.981,6.613-1.73,11.2-1.698c2.841,0.02,5.059,0.415,6.8,0.987v4.379
        c-1.469-0.791-3.669-1.398-7.022-1.398C14.892,23.711,11.076,24.591,8,25.61z"/>
</svg>
