<svg xmlns="http://www.w3.org/2000/svg" width="64" height="64" viewBox="0 0 64 64">
    <path d="M49.823,35.647l-0.009,0.004c-0.074-1.055-3.878-0.778-8.806,1.147
        c-4.728,1.848-8.598,4.545-8.971,5.744l-0.037,0.015l-0.037-0.015c-0.373-1.199-4.243-3.896-8.972-5.744
        c-4.926-1.926-8.729-2.202-8.803-1.147l-0.009-0.004l-0.015-0.065l-0.002,8.556c0,0.001,0,0.002,0,0.003s0,0.002,0,0.003v0.899
        h0.075C14.993,50.617,22.649,55,32.001,55s17.008-4.383,17.763-9.957h0.075v-0.899c0-0.001,0-0.002,0-0.003s0-0.002,0-0.003
        l-0.002-8.552L49.823,35.647z M63.892,44.709l-1.929-7.479v-3.861l0.018-0.027c0,0-0.008-3.749-2.483-6.381l2.65-0.99
        c2.11-0.82,1.861-2.414,0.426-2.976c-0.025-0.01-0.045-0.023-0.066-0.036L33.09,11.969c-0.309-0.12-0.683-0.191-1.087-0.191
        c-0.389,0-0.75,0.066-1.052,0.178c0,0-0.001,0-0.001,0l-0.007,0.002c-0.003,0.001-0.007,0.002-0.01,0.004L1.491,22.96
        c-0.021,0.011-0.04,0.024-0.063,0.034c-1.433,0.561-1.683,2.151,0.417,2.972l29.097,10.871c0.003-0.001,0.007-0.002,0.01-0.003
        c0.301,0.12,0.662,0.19,1.051,0.19c0.39,0,0.751-0.07,1.053-0.19c0.002,0.001,0.005,0.001,0.007,0.002l18.954-7.081
        c-0.67-0.771-1.701-1.092-3.374-1.545l-16.696-4.354l-0.003-0.128c0.033,0.023,0.057,0.039,0.057,0.039s-0.337-2.616,2.215-2.119
        l0.053,0.013c0.158,0.033,0.325,0.074,0.506,0.132c0.245,0.078,0.438,0.117,0.608,0.14l14.227,3.47
        c0.131,0.047,0.261,0.094,0.411,0.135c5.946,1.595,7.969,5.203,7.987,7.748H58v3.945l-1.807,7.4
        c-0.071,0.16-0.121,0.324-0.121,0.497c0,1.091,1.775,1.975,3.963,1.975c2.189,0,3.965-0.884,3.965-1.975
        C64,44.984,63.96,44.844,63.892,44.709z"/>
</svg>
