<svg xmlns="http://www.w3.org/2000/svg" width="64" height="64" viewBox="0 0 64 64">
    <path d="M61.65,41.627c-0.254,3.297-0.633,6.592-1.146,9.889
        c-0.349,2.137-2.46,4.361-4.635,4.832c-10.58,2.203-21.16,2.203-31.739,0c-2.176-0.471-4.287-2.695-4.636-4.832
        c-0.182-1.176-0.33-2.35-0.479-3.523H2c-1.104,0-2-0.896-2-2V18c0-1.104,0.896-2,2-2h17.016c0.149-1.175,0.297-2.357,0.479-3.532
        c0.349-2.137,2.46-4.347,4.636-4.817C34.71,5.45,45.29,5.45,55.87,7.651c2.175,0.471,4.286,2.681,4.635,4.817
        c0.39,2.508,0.669,5.016,0.901,7.523H50c-5.524,0-8,4.493-8,10h0.006c0.012,1.06,0.875,1.915,1.941,1.915s1.93-0.855,1.942-1.915H46
        c0-3.146,1.419-5.989,4.576-5.989c0,0,4.484-0.002,9.145-0.003c0.68,0,1.367,0.16,2.047,0.385c0,0.015,0.002,0.028,0.003,0.043
        C63.087,25.082,64,26.421,64,27.992v10C64,39.611,63.033,40.998,61.65,41.627z M20,21.992H6V42h14V21.992z M54.993,29.99
        c-1.673,0-3.028,1.34-3.028,2.992c0,1.653,1.355,2.993,3.028,2.993s3.028-1.34,3.028-2.993C58.021,31.33,56.666,29.99,54.993,29.99z
         M16,30h-6v-4h6V30z M16,38h-6v-4h6V38z"/>
</svg>
