<svg xmlns="http://www.w3.org/2000/svg" width="64" height="64" viewBox="0 0 64 64">
    <path d="M30.333,28H7.667C4.537,28,2,30.537,2,33.666v22.666C2,59.463,4.537,62,7.667,62
        h22.667C33.463,62,36,59.463,36,56.332V33.666C36,30.537,33.463,28,30.333,28z M10.012,57.973c-2.21,0-4.002-1.793-4.002-4.003
        s1.792-4.003,4.002-4.003c2.211,0,4.003,1.793,4.003,4.003S12.223,57.973,10.012,57.973z M10.012,39.96
        c-2.21,0-4.002-1.792-4.002-4.003c0-2.21,1.792-4.002,4.002-4.002c2.211,0,4.003,1.792,4.003,4.002
        C14.015,38.168,12.223,39.96,10.012,39.96z M18.894,49.056c-2.191,0-3.968-1.776-3.968-3.968c0-2.19,1.776-3.967,3.968-3.967
        c2.19,0,3.967,1.776,3.967,3.967C22.86,47.279,21.084,49.056,18.894,49.056z M28.024,57.973c-2.211,0-4.003-1.793-4.003-4.003
        s1.792-4.003,4.003-4.003c2.21,0,4.002,1.793,4.002,4.003S30.234,57.973,28.024,57.973z M28.024,39.96
        c-2.211,0-4.003-1.792-4.003-4.003c0-2.21,1.792-4.002,4.003-4.002c2.21,0,4.002,1.792,4.002,4.002
        C32.026,38.168,30.234,39.96,28.024,39.96z M58.065,8.912L36.56,2.253c-2.97-0.919-6.122,0.743-7.042,3.712l-5.568,17.986h6.79
        c5.132,0,9.292,4.16,9.292,9.292v5.438l8.046,2.491c2.97,0.92,6.122-0.742,7.041-3.712l6.659-21.506
        C62.696,12.983,61.034,9.831,58.065,8.912z M34.96,13.499c-1.98-0.613-3.088-2.714-2.476-4.694
        c0.613-1.98,2.715-3.087,4.694-2.475s3.088,2.714,2.475,4.694C39.041,13.004,36.939,14.111,34.96,13.499z M41.407,24.499
        c-1.979-0.613-3.087-2.715-2.475-4.694c0.613-1.979,2.715-3.087,4.694-2.475s3.088,2.714,2.475,4.694
        C45.489,24.004,43.387,25.112,41.407,24.499z M52.464,34.119c-0.613,1.98-2.715,3.088-4.694,2.476
        c-1.979-0.613-3.087-2.715-2.475-4.694c0.613-1.979,2.715-3.087,4.694-2.475S53.077,32.14,52.464,34.119z"/>
</svg>
