<svg xmlns="http://www.w3.org/2000/svg" width="64" height="64" viewBox="0 0 64 64">
    <path d="M17.506,31.653c0-1.816,0.291-3.44,0.711-4.964
        c-1.442,1.146-2.977,1.528-4.232,1.528c-1.475,0-3.347-0.46-4.986-2.158c-3.952,0.872-7.028,2.252-7.028,5.672
        c0,4.175,5.379,4.176,12.015,4.176c1.433,0,2.788-0.008,4.062-0.05C17.71,34.468,17.506,33.059,17.506,31.653z M13.985,25.489
        c3.694,0,9.662-6.727,9.662-13.212C23.647,5.791,19.321,2,13.985,2S4.323,5.791,4.323,12.277
        C4.323,18.763,10.291,25.489,13.985,25.489z M13.985,22.847c-1.438,0-2.603-1.316-2.603-2.026s1.165-0.376,2.603-0.376
        s2.603-0.334,2.603,0.376S15.423,22.847,13.985,22.847z M7.453,12.396c0-0.152,0.03-0.284,0.037-0.432
        c1.497-0.807,2.703-2.022,3.568-3.461c1.78,2.266,5.133,3.815,9.026,3.815c0.146,0,0.28-0.026,0.424-0.03
        c0,0.038,0.009,0.07,0.009,0.108c0,1.49-0.475,3.016-1.17,4.404c-1.422,0.635-3.359,1.7-5.287,1.7
        c-1.984,0-3.968-1.052-5.395-1.61C7.945,15.479,7.453,13.919,7.453,12.396z M31.985,47.963c4.309,0,11.27-7.847,11.27-15.412
        s-5.045-11.987-11.27-11.987s-11.27,4.422-11.27,11.987S27.677,47.963,31.985,47.963z M24.534,31.898
        c1.635-0.967,2.953-2.35,3.918-3.966c2.151,2.736,6.201,4.606,10.902,4.606c0.047,0,0.09-0.009,0.136-0.01
        c0.001,0.06,0.015,0.11,0.015,0.169c0,5.127-4.645,10.745-7.52,10.745s-7.52-5.618-7.52-10.745
        C24.466,32.417,24.514,32.167,24.534,31.898z M38.343,48.033c-2.092,2.313-2.817,3.941-6.357,3.941
        c-3.547,0-4.275-1.634-6.37-3.954c-5.049,1.191-8.979,3.588-8.979,8.264c0,5.706,6.873,5.708,15.349,5.708
        c8.478,0,15.35-0.002,15.35-5.708C47.335,51.622,43.392,49.23,38.343,48.033z M54.962,26.069
        c-1.638,1.692-3.504,2.148-4.977,2.148c-1.228,0-2.724-0.365-4.139-1.451c0.398,1.49,0.618,3.119,0.618,4.887
        c0,1.405-0.204,2.814-0.541,4.204c1.274,0.042,2.629,0.05,4.062,0.05C56.62,35.907,62,35.906,62,31.731
        C62,28.321,58.913,26.945,54.962,26.069z M41.796,22.639l3.488,0.359c1.596,1.536,3.31,2.491,4.701,2.491s3.105-0.955,4.701-2.491
        l7.299-0.752c0,0-1.396-7.32-2.518-12.082c-0.062-0.376-0.167-0.718-0.26-1.071c-0.131-0.529-0.259-1.021-0.375-1.429
        c-0.014-0.048-0.029-0.008-0.047,0.069C57.274,4.066,53.911,2,49.985,2s-7.289,2.066-8.801,5.733
        c-0.018-0.077-0.033-0.117-0.047-0.069c-0.116,0.409-0.243,0.9-0.375,1.429c-0.093,0.353-0.198,0.694-0.259,1.071
        c-0.671,2.847-1.435,6.584-1.944,9.149C39.806,20.21,40.899,21.32,41.796,22.639z M43.758,10.184
        c1.713,1.495,3.859,2.426,6.228,2.426s4.516-0.932,6.229-2.426c0.178,0.681,0.304,1.405,0.304,2.212
        c0,4.454-4.034,9.333-6.532,9.333s-6.532-4.88-6.532-9.333C43.453,11.589,43.579,10.865,43.758,10.184z"/>
</svg>
