<svg xmlns="http://www.w3.org/2000/svg" width="64" height="64" viewBox="0 0 64 64">
    <path d="M61.271,12.023c-0.016,0.024-0.02,0.047-0.033,0.071l-1.896,3.305
        c-0.021,0.03-0.042,0.042-0.062,0.078c-1.264,2.208-2.797,1.697-4.222,0.285c-0.144-0.142-0.263-0.193-0.366-0.202
        c-3.572-2.842-8.084-4.547-13.006-4.547c-7.551,0-14.151,4.002-17.848,9.986h28.846c0.725,0,1.396,0.381,1.76,0.998
        s0.365,1.379,0.004,1.998l-3.418,6C50.666,30.617,49.732,31,49.004,31H20.75c-0.016,0.334-0.051,0.663-0.051,1
        c0,1.021,0.098,2.018,0.239,3H44.99c0.726,0,1.396,0.381,1.76,0.998s0.104,1.379-0.258,1.998l-3.549,5.869
        C42.579,44.486,41.516,45,40.786,45H25.229c3.844,4.859,9.78,7.987,16.456,7.987c4.211,0,8.106-1.237,11.385-3.377
        c0.088-0.038,0.182-0.087,0.285-0.159c2.627-1.848,7.615-4.853,7.645,0.903v3.462c0,0.008-0.002,0.014-0.002,0.022
        c0,1.518-0.797,2.86-1.785,3.7C54.225,60.971,48.198,63,41.686,63c-12.477,0-23.225-7.375-28.142-18H2.759
        c-0.771,0-1.474-0.428-1.82-1.105c-0.344-0.678-0.27-1.488,0.193-2.094l4.658-6C6.172,35.297,6.776,35,7.416,35h3.417
        c-0.095-0.987-0.147-1.987-0.147-3c0-0.335,0.015-0.667,0.025-1H4.35c-0.769,0-1.472-0.426-1.818-1.102
        c-0.345-0.678-0.273-1.486,0.187-2.094l3.719-6C6.821,21.299,7.425,21,8.068,21h4.633C17.14,9.312,28.44,1,41.686,1
        c7.17,0,13.758,2.446,19.004,6.536C62.219,8.863,62.406,10.296,61.271,12.023z"/>
</svg>
