<svg xmlns="http://www.w3.org/2000/svg" width="64" height="64" viewBox="0 0 64 64">
    <path d="M56,1H22c-3.313,0-6,2.687-6,6v14.277c-3.694,2.263-6.961,5.878-7.479,8.943
        c-0.478,2.822-0.232,6.934,3.611,6.858c1.164-0.023,3.632-0.239,3.424,0.691c-0.251,1.122-3.355,5.41-3.355,5.41L4.309,40.28
        c0,0-4.826,0.161-2.036,6.569C4.1,51.045,8.005,56.952,16,56.815V57c0,3.314,2.687,6,6,6h28V10.294L22,7h28l6.026-0.004v56.003
        C59.328,62.984,62,60.306,62,57V7C62,3.687,59.314,1,56,1z M13.127,52.571c-3.646-1.118-8.424-7.479-8.424-7.479l0.914-1.412
        l6.873,4.976l4.123-4.918c0,0-0.291,2.105,1.151,3.431c1.619,1.488,2.822,2.089,2.822,2.089S14.592,53.02,13.127,52.571z
         M29.088,16.826c0.58-2.613,3.121-4.286,5.675-3.737s4.154,3.112,3.574,5.726c-0.58,2.612-3.121,4.286-5.675,3.736
        C30.108,22.002,28.508,19.438,29.088,16.826z M31.32,25.326l5.4,7.275l8.498-3.705l0.476,2.652c0,0-6.198,5.44-9.539,4.881
        c-2.544-0.427-6.403-3.492-6.403-3.492s-1.678,3.75-2.956,5.289c-1.24,1.494-2.711,3.04-2.711,3.04s7.496,4.359,8.613,7.237
        c1.118,2.878-2.884,12.709-2.884,12.709l-2.085,1.612L27.92,50.07c0,0-5.157-2.646-7.33-4.637
        c-5.84-5.35,1.456-13.278,5.392-16.692C29.255,25.902,31.32,25.326,31.32,25.326z M25.253,24.815l-4.278,4.724l-2.346-0.249
        l-6.051,4.397l-0.691-1.681c0,0,1.693-3.729,5.896-6.149C21.803,23.543,25.253,24.815,25.253,24.815z"/>
</svg>
