<svg xmlns="http://www.w3.org/2000/svg" width="64" height="64" viewBox="0 0 64 64">
    <path d="M63.003,20.614c0,0-5.999-4.821-13.024-8.862
        c-6.932-3.987-14.892-7.195-14.892-7.195c-0.048-0.028-0.107-0.044-0.157-0.07c-0.729-0.41-1.753-0.669-2.896-0.669
        c-0.878,0-1.683,0.156-2.342,0.412c-0.278,0.087-0.543,0.192-0.779,0.328c0,0-7.96,3.208-14.892,7.195
        c-7.025,4.041-13.024,8.862-13.024,8.862c-1.329,0.765-1.329,2.004,0,2.769c0.322,0.185,0.7,0.311,1.095,0.406
        C2.088,23.86,2.07,23.928,2.07,24c0,1.911,1.343,3.504,3.134,3.9L4.195,40.449C2.898,41.11,2,42.444,2,44c0,1.104,0.896,2,2,2h8
        c1.104,0,2-0.896,2-2c0-1.496-0.832-2.785-2.048-3.472L10.936,27.9c1.792-0.396,3.134-1.989,3.134-3.9
        c0-0.018-0.005-0.034-0.005-0.052h4.011c0,0.018-0.005,0.034-0.005,0.052c0,1.911,1.343,3.504,3.134,3.9l-1.009,12.549
        C18.898,41.11,18,42.444,18,44c0,1.104,0.896,2,2,2h8c1.104,0,2-0.896,2-2c0-1.496-0.832-2.785-2.048-3.472L26.936,27.9
        c1.792-0.396,3.134-1.989,3.134-3.9c0-0.018-0.005-0.034-0.005-0.052h0.878c0.364,0.006,0.728,0.014,1.092,0.014
        c0.376,0,0.751-0.008,1.127-0.014h0.913c0,0.018-0.005,0.034-0.005,0.052c0,1.911,1.343,3.504,3.135,3.9l-1.01,12.549
        C34.897,41.11,34,42.444,34,44c0,1.104,0.896,2,2,2h8c1.104,0,2-0.896,2-2c0-1.496-0.831-2.785-2.048-3.472L42.936,27.9
        c1.792-0.396,3.135-1.989,3.135-3.9c0-0.018-0.005-0.034-0.005-0.052h4.01c0,0.018-0.005,0.034-0.005,0.052
        c0,1.911,1.343,3.504,3.135,3.9l-1.01,12.549C50.897,41.11,50,42.444,50,44c0,1.104,0.896,2,2,2h8c1.104,0,2-0.896,2-2
        c0-1.496-0.831-2.785-2.048-3.472L58.936,27.9c1.792-0.396,3.135-1.989,3.135-3.9c0-0.084-0.02-0.163-0.024-0.246
        c0.343-0.093,0.673-0.208,0.957-0.371C64.332,22.618,64.332,21.379,63.003,20.614z M32.07,18c-2.209,0-4-1.791-4-4s1.791-4,4-4
        s4,1.791,4,4S34.279,18,32.07,18z M60,50H47.07h-30H4c-1.104,0-2,0.896-2,2v2c0,1.104,0.896,2,2,2h8.171
        c0.463,2.282,2.48,4,4.899,4h30c2.419,0,4.436-1.718,4.899-4H60c1.104,0,2-0.896,2-2v-2C62,50.896,61.104,50,60,50z"/>
</svg>
