<svg xmlns="http://www.w3.org/2000/svg" width="64" height="64" viewBox="0 0 64 64">
    <path d="M62.511,45.488c-1.6,0.889-3.826,0.604-4.973-0.637l-2.141-2.314
        c-1.494,1.422-3.299,2.908-5.396,4.273l1.705,4.156c0.762,1.857-0.117,3.982-1.961,4.75c-1.846,0.766-3.957-0.119-4.719-1.975
        l-1.492-3.639c-2.297,0.859-4.814,1.496-7.547,1.781v3.752c0,2.41-1.791,4.363-4,4.363s-4-1.953-4-4.363v-3.752
        c-2.746-0.287-5.273-0.928-7.578-1.795l-1.498,3.652c-0.76,1.855-2.873,2.74-4.717,1.975c-1.846-0.768-2.724-2.893-1.962-4.75
        l1.712-4.174c-2.084-1.361-3.879-2.842-5.367-4.256l-2.141,2.314c-1.146,1.24-3.373,1.525-4.974,0.637
        c-1.601-0.887-1.968-2.613-0.822-3.854l3.707-4.008c-1.845-3.611,3.421-4.818,6.885-1.635c3.916,4.27,10.968,8.188,20.755,7.951
        c9.787,0.236,16.84-3.682,20.754-7.951c3.465-3.184,8.73-1.977,6.887,1.635l3.705,4.008C64.479,42.875,64.112,44.602,62.511,45.488z
        "/>
</svg>
