<svg xmlns="http://www.w3.org/2000/svg" width="64" height="64" viewBox="0 0 64 64">
    <path d="M63.359,19.237l-2.064,2.679c1.566,4.207-4.303,7.066-7.059,3.761
        c-0.162-0.194-0.289-0.299-0.396-0.354c-4.342-4.9-11.283-9.615-21.826-9.391c-10.545-0.225-17.485,4.49-21.827,9.391
        c-0.107,0.057-0.235,0.16-0.397,0.354c-2.756,3.306-8.624,0.446-7.059-3.761l-2.064-2.679c-1.146-1.488-0.778-3.559,0.822-4.625
        c1.601-1.065,3.828-0.724,4.974,0.765l0.981,1.273c1.659-1.384,3.639-2.733,5.975-3.91l-1.161-2.426
        c-0.761-1.592,0.117-3.414,1.961-4.07c1.845-0.657,3.957,0.101,4.719,1.691l1.116,2.334c2.399-0.637,5.023-1.104,7.958-1.277V6
        c0-2.209,1.791-4,4-4c2.209,0,4,1.791,4,4v2.992c2.922,0.173,5.535,0.637,7.926,1.269l1.113-2.325
        c0.762-1.591,2.873-2.349,4.719-1.691c1.844,0.656,2.723,2.479,1.961,4.07l-1.154,2.412c2.348,1.18,4.338,2.534,6.004,3.924
        l0.982-1.273c1.145-1.488,3.373-1.83,4.973-0.765C64.139,15.679,64.506,17.749,63.359,19.237z M20.013,30.001
        c0-6.627,5.373-12,12-12v12l10.027-6.582c1.244,1.891,1.973,4.15,1.973,6.582c0,6.628-5.373,12-12,12
        C25.386,42.001,20.013,36.629,20.013,30.001z M16.083,39.613c3.719,2.276,8.978,4.425,15.931,4.436
        c7.463-0.01,13.035-2.49,16.848-4.948c4.457-2.1,7.125,2.909,4.152,5.27c-4.715,2.927-10.816,7.625-21.194,7.65
        c-10.377-0.025-16.092-4.724-20.808-7.65C7.834,41.846,11.429,36.634,16.083,39.613z"/>
</svg>
