<svg xmlns="http://www.w3.org/2000/svg" width="64" height="64" viewBox="0 0 64 64">
    <path d="M54,60H42V41.873h4c1.104,0,2-0.89,2-1.988v-3.977c0-1.099-0.896-1.988-2-1.988
        h-3.986l0.012-2.763c0-2.057-1.07-3.203,1.975-3.203h4c1.104,0,2-0.891,2-1.988v-3.978C50,20.891,49.104,20,48,20h-6
        c-7.821,0-10,3.512-10,9.942v3.978h-2c-1.104,0-2,0.89-2,1.988v3.977c0,1.099,0.896,1.988,2,1.988h2V60H10c-3.313,0-6-2.687-6-6V10
        c0-3.313,2.687-6,6-6h44c3.313,0,6,2.687,6,6v44C60,57.313,57.313,60,54,60z"/>
</svg>
