<svg xmlns="http://www.w3.org/2000/svg" width="64" height="64" viewBox="0 0 64 64">
    <path d="M62.737,24.429c-0.463-1.435-1.799-2.41-3.312-2.419l-18.881-0.005L34.731,4.048c-0.463-1.445-1.811-2.424-3.334-2.424
        c0,0,0,0-0.001,0c-1.521,0.001-2.869,0.982-3.332,2.428l-5.797,17.966l-17.79,0.001c-1.512,0.01-2.848,0.987-3.309,2.423
        c-0.463,1.435,0.053,3.005,1.277,3.89l14.22,11.325l-5.884,18.422c-0.462,1.445,0.067,3.023,1.311,3.904
        c0.607,0.43,1.316,0.643,2.025,0.643c0.741,0,1.482-0.236,2.105-0.703l15.195-11.406l15.205,11.387
        c0.622,0.467,1.362,0.699,2.102,0.699c0.709,0,1.42-0.215,2.027-0.643c1.242-0.883,1.771-2.461,1.307-3.906l-5.897-18.414
        l15.304-11.318C62.688,27.434,63.202,25.865,62.737,24.429z M38.099,36.814l5.08,14.15l-11.771-9.436l-11.771,9.436l5.08-14.15
        l-12.217-8.886l15.065,0.01l3.693-11.485l0.095-0.635l0.055,0.17l0.055-0.17l0.095,0.636l3.692,11.484l15.066-0.01L38.099,36.814z
        "/>
</svg>
