<svg xmlns="http://www.w3.org/2000/svg" width="64" height="64" viewBox="0 0 64 64">
    <path d="M46,46h-4c-1.104,0-2,0.896-2,2v4c0,4.418-3.582,8-8,8H12c-1.104,0-2-0.896-2-2V6
        c0-1.104,0.896-2,2-2h40c1.104,0,2,0.896,2,2v32C54,42.418,50.418,46,46,46z M22,46h6c1.104,0,2-0.896,2-2s-0.896-2-2-2h-6
        c-1.104,0-2,0.896-2,2S20.896,46,22,46z M22,38h20c1.104,0,2-0.896,2-2s-0.896-2-2-2H22c-1.104,0-2,0.896-2,2S20.896,38,22,38z
         M30,14h-8c-1.104,0-2,0.896-2,2s0.896,2,2,2h8c1.104,0,2-0.896,2-2S31.104,14,30,14z M42,26H22c-1.104,0-2,0.896-2,2s0.896,2,2,2
        h20c1.104,0,2-0.896,2-2S43.104,26,42,26z"/>
</svg>
