<svg xmlns="http://www.w3.org/2000/svg" width="64" height="64" viewBox="0 0 64 64">
    <path d="M59.908,31.472v-4.541c0-2.209-1.188-4.992-2.655-6.216l-4.363-3.641
        l-4.327-4.347c-1.047-1.051-2.744-1.051-3.79,0c-1.047,1.051-1.047,2.755,0,3.806L50,21.783v3.803
        c0,2.209,1.188,4.992,2.655,6.217l1.464,1.221c0.141,3.414-0.361,7.176-2.505,10.104c-2.576,3.521-7.401,3.451-11.614,2.486V10
        c0-2.209-1.791-4-4-4H8c-2.209,0-4,1.791-4,4v44c0,2.209,1.791,4,4,4h28c2.209,0,4-1.791,4-4v-2.368
        c4.674,0.794,10.143,0.462,14.433-3.47C59.571,43.453,60.299,36.658,59.908,31.472z M26.026,26c0-2.209-1.791-4-4-4s-4,1.791-4,4
        h-8c0-6.627,5.373-12,12-12s12,5.373,12,12H26.026z"/>
</svg>
