<svg xmlns="http://www.w3.org/2000/svg" width="64" height="64" viewBox="0 0 64 64">
    <path d="M55,8H9c-3.313,0-6,2.687-6,6v36c0,3.314,2.687,6,6,6h46c3.313,0,6-2.686,6-6V14
        C61,10.687,58.313,8,55,8z M14,48c-1.656,0-3-1.343-3-3c0-1.656,1.344-3,3-3s3,1.344,3,3C17,46.657,15.656,48,14,48z M14,40
        c-1.656,0-3-1.343-3-3c0-1.656,1.344-3,3-3s3,1.344,3,3C17,38.657,15.656,40,14,40z M26,48c-1.656,0-3-1.343-3-3
        c0-1.656,1.344-3,3-3s3,1.344,3,3C29,46.657,27.656,48,26,48z M26,40c-1.656,0-3-1.343-3-3c0-1.656,1.344-3,3-3s3,1.344,3,3
        C29,38.657,27.656,40,26,40z M38,48c-1.656,0-3-1.343-3-3c0-1.656,1.344-3,3-3s3,1.344,3,3C41,46.657,39.656,48,38,48z M38,40
        c-1.656,0-3-1.343-3-3c0-1.656,1.344-3,3-3s3,1.344,3,3C41,38.657,39.656,40,38,40z M53,46c0,1.104-0.896,2-2,2h-2
        c-1.104,0-2-0.896-2-2V36c0-1.104,0.896-2,2-2h2c1.104,0,2,0.896,2,2V46z M55,28H9V16h46V28z"/>
</svg>
