<svg xmlns="http://www.w3.org/2000/svg" width="64" height="64" viewBox="0 0 64 64">
    <path d="M42.883,31.787c-5.623,3.707-7.324,7.211-7.77,9.527V42c0,1.105-0.896,2-2,2h-8
        c-1.104,0-2-0.895-2-2l0.014-0.014c0.862-12.176,9.795-15.102,14.955-20.12c5.426-5.274,1.9-9.771-4.948-9.497
        c-4.113,0.164-8.061,1.681-10.566,2.867c-1.896,0.793-3.076,0.719-3.932-1.015c-0.04-0.082-0.091-0.144-0.146-0.197l-2.257-4.337
        c-0.729-1.848-0.618-3.004,1.096-3.826c0.073-0.035,0.117-0.086,0.168-0.134c6.206-2.702,21.913-7.953,32.212,2.54
        C56.27,14.955,52.524,25.434,42.883,31.787z M23.305,49.914c1.345-1.242,3.057-1.863,5.135-1.863c2.13,0,3.803,0.621,5.016,1.863
        s1.76,2.898,1.644,5.086c-0.11,2.072-0.84,3.746-2.188,5.047S29.821,62,27.69,62c-2.078,0-3.722-0.652-4.931-1.953
        C21.55,58.746,21,57.072,21.111,55C21.228,52.812,21.959,51.156,23.305,49.914z"/>
</svg>
