<svg xmlns="http://www.w3.org/2000/svg" width="64" height="64" viewBox="0 0 64 64">
    <path d="M61.09,32.479c-1.367,1.639-5.023,5.84-9.43,9.424
        c-4.68,3.809-10.057,6.76-11.592,7.572c-1.271,0.674-2.814,0.646-4.059-0.068C34.764,48.691,34,47.393,34,45.99v-6.014H7.081
        c-2.792,0-5.055-2.236-5.055-4.998v-9.996c0-2.76,2.263-4.998,5.055-4.998H34v-6.014c0-1.403,0.765-2.703,2.012-3.418
        c1.248-0.715,2.791-0.738,4.062-0.063c1.551,0.825,6.977,3.81,11.607,7.577c4.234,3.445,7.715,7.385,9.412,9.426
        C61.697,28.219,62,29.102,62,29.982C62,30.867,61.697,31.75,61.09,32.479z"/>
</svg>
