<svg xmlns="http://www.w3.org/2000/svg" width="64" height="64" viewBox="0 0 64 64">
    <path d="M63.56,13.488L31.782,47.285l-13.47-12.346c3.077-1.553,5.544-4.122,6.961-7.272
        l6.024,6.573L51.083,2.334c0.018-0.025,0.037-0.041,0.055-0.069c0.895-1.474,1.42-1.45,1.99-0.98L63.321,11.46
        C64.237,12.415,64.132,12.825,63.56,13.488z M31.974,14.817l-5.44,5.431c-0.168-2.004-0.729-3.893-1.607-5.595l5.316-5.309
        c0.947-0.946,2.483-0.946,3.43,0l5.696,5.688l-2.705,4.467L31.974,14.817z M11.522,32.264c-5.935,0-10.746-4.808-10.746-10.739
        s4.811-10.737,10.746-10.737c5.935,0,10.746,4.807,10.746,10.737S17.457,32.264,11.522,32.264z M11.535,36.561
        c0.274,0,0.542-0.027,0.812-0.041l19.627,19.594l20.683-20.648l-3.025-3.021l3.508-3.663l4.973,4.965
        c0.947,0.945,0.947,2.479,0,3.424L33.674,61.572c-0.947,0.945-2.483,0.945-3.43,0L5.805,37.17c-0.561-0.561-0.781-1.324-0.677-2.053
        C7.074,36.033,9.24,36.561,11.535,36.561z"/>
</svg>
