<svg xmlns="http://www.w3.org/2000/svg" width="64" height="64" viewBox="0 0 64 64">
    <path d="M58.597,45.883l-11.82-6.689c-1.307-0.74-3.146-0.209-4.137,1.227l-1.738,2.518
        c-0.002,0.006-0.006,0.008-0.008,0.012c-0.777,1.172-3.357,3.721-7.541,0.189c-0.131-0.111-0.258-0.207-0.381-0.287
        c-1.205-0.957-2.418-1.979-3.629-3.035c-2.883-2.863-5.523-5.787-7.854-8.681c-0.082-0.122-0.178-0.249-0.29-0.379
        c-3.592-4.184-0.97-6.789,0.233-7.577c0.005-0.003,0.008-0.008,0.013-0.011l2.583-1.757c1.475-1.002,2.027-2.854,1.277-4.163
        L18.523,5.406c-0.748-1.307-2.634-1.786-4.257-1.05L11.192,5.75c-0.166,0.075-0.315,0.168-0.463,0.26
        c-3.024,1.487-4.867,3.578-5.15,4.027c-0.026,0.042-0.036,0.085-0.033,0.134C1.004,15.692,7.07,31.298,19.089,43.268
        c12.162,13.035,29.078,19.916,34.832,15.277c0.049,0.004,0.092-0.006,0.133-0.031c0.445-0.275,2.518-2.064,3.98-5.012
        c0.092-0.146,0.184-0.293,0.258-0.455l1.371-2.996C60.388,48.467,59.901,46.621,58.597,45.883z"/>
</svg>
