<svg xmlns="http://www.w3.org/2000/svg" width="64" height="64" viewBox="0 0 64 64">
    <path d="M44,22.074V2c0-1.104-0.896-2-2-2H2C0.896,0,0,0.896,0,2v52c0,1.104,0.896,2,2,2
        h24.519c3.694,4.674,9.329,7.725,15.694,7.961V64h1.319v-0.027C54.882,63.687,64,54.423,64,43.012
        C64,31.758,55.131,22.601,44,22.074z M12,12h20c1.104,0,2,0.896,2,2s-0.896,2-2,2H12c-1.104,0-2-0.896-2-2S10.896,12,12,12z
         M20,40h-8c-1.104,0-2-0.896-2-2s0.896-2,2-2h8c1.104,0,2,0.896,2,2S21.104,40,20,40z M24,32H12c-1.104,0-2-0.896-2-2s0.896-2,2-2
        h12c1.104,0,2,0.896,2,2S25.104,32,24,32z M12,24c-1.104,0-2-0.896-2-2s0.896-2,2-2h20c1.104,0,2,0.896,2,2s-0.896,2-2,2H12z
         M42.998,56c-7.181,0-13.001-5.817-13.001-12.993s5.821-12.993,13.001-12.993C50.18,30.014,56,35.831,56,43.007
        S50.18,56,42.998,56z M44,40.758v-4.778c0-1.104-0.893-2-1.994-2s-1.994,0.896-1.994,2v5.878c-0.13,0.713,0.079,1.476,0.633,2.026
        l3.435,3.418c0.896,0.893,2.351,0.893,3.248,0s0.897-2.34,0-3.233L44,40.758z"/>
</svg>
