<svg xmlns="http://www.w3.org/2000/svg" width="64" height="64" viewBox="0 0 64 64">
<path d="M49.81,47.596c0-0.031-0.008-0.059-0.012-0.09l-1.035-26.538C48.558,15.594,47.019,3.932,31.784,4
	c-12.502,0.054-16.001,8.496-16.212,13.976c0.002,1.281,0.715,3.802,3.577,3.798c3.178-0.004,4.458-1.896,4.575-4.152
	c0.248-4.23,3.048-7.372,8.505-7.183c5.371,0.308,7.732,2.663,7.83,7.564c0.221,11.374-24.63,4.222-25.25,20.418l-0.534,14.033
	c-0.154,4.103,2.585,7.481,6.12,7.481h23.479c3.535,0,6.275-3.379,6.119-7.481L49.81,47.596z M32.132,53.934
	c-5.473,0-9.905-4.469-9.905-9.982c0-5.518,4.432-9.984,9.905-9.984s9.908,4.467,9.908,9.984
	C42.04,49.465,37.604,53.934,32.132,53.934z M26.111,45.994H38V42H26.111V45.994z"/>
</svg>
