<svg xmlns="http://www.w3.org/2000/svg" width="64" height="64" viewBox="0 0 64 64">
    <path d="M63.003,33.305c0,0-5.999-8.218-13.024-15.105
        C43.047,11.403,35.087,5.937,35.087,5.937c-0.265-0.259-0.568-0.448-0.885-0.604c-0.61-0.369-1.382-0.599-2.233-0.599
        c-0.834,0-1.591,0.221-2.195,0.577c-0.336,0.158-0.659,0.352-0.938,0.625c0,0-7.959,5.466-14.892,12.262
        C6.918,25.086,0.919,33.305,0.919,33.305c-1.329,1.303-1.329,3.414,0,4.717c0.835,0.819,1.996,1.123,3.073,0.912V39H8v15.999
        C8,55,8,55,8,55c0,2.209,1.791,4,4,4h40c2.209,0,4-1.791,4-4V39h3.992v-0.057c1.06,0.187,2.191-0.117,3.011-0.921
        C64.332,36.72,64.332,34.607,63.003,33.305z M30,47h-4c-1.104,0-2-0.896-2-2v-4h6V47z M30,37h-6v-4c0-1.104,0.896-2,2-2h4V37z
         M40,45c0,1.104-0.896,2-2,2h-4v-6h6V45z M40,37h-6v-6h4c1.104,0,2,0.896,2,2V37z"/>
</svg>
