<svg xmlns="http://www.w3.org/2000/svg" width="64" height="64" viewBox="0 0 64 64">
    <path d="M32,4C16.536,4,4,16.536,4,32s12.536,28,28,28c15.463,0,28-12.536,28-28
        S47.463,4,32,4z M36.512,30l-1.996,16c-0.137,1.104-1.205,2-2.383,2h-4.266c-1.179,0-2.022-0.896-1.885-2l1.996-16
        c0.139-1.104,1.205-2,2.383-2h4.268C35.807,28,36.65,28.896,36.512,30z M38.01,18l-0.5,4c-0.137,1.104-1.205,2-2.383,2h-4.266
        c-1.179,0-2.022-0.896-1.885-2l0.5-4c0.137-1.104,1.204-2,2.383-2h4.266C37.303,16,38.146,16.896,38.01,18z"/>
</svg>
