<svg xmlns="http://www.w3.org/2000/svg" width="64" height="64" viewBox="0 0 64 64">
    <path d="M58.946,25.434c1.318-3.388,1.48-6.383-0.01-8.463
        c-0.332-0.462-0.75-0.842-1.211-1.183c-0.314-0.287-0.682-0.538-1.111-0.745c-0.857-0.411-1.947-0.645-3.219-0.724
        c-4.789-5.847-11.889-9.724-19.91-10.216c-1.064-1.345-2.252-2.147-3.578-2.101l-0.23,0.017c-2.701,0.243-3.102,0.699-3.836,2.671
        c-3.75,0.81-7.226,2.356-10.253,4.505c-0.426-0.031-0.843-0.048-1.239-0.033c-1.995,0.076-3.567,0.72-4.674,1.914
        c-1.024,1.104-1.851,2.922-1.466,5.842c-2.81,4.368-4.446,9.562-4.446,15.143c0,3.734,0.747,7.291,2.073,10.547
        c-0.101,0.449-0.15,0.859-0.165,1.238c-0.153,1.488,0.048,3.201,0.66,4.891c1.095,3.027,3.278,5.488,5.345,6.119
        c0.506,0.193,1.043,0.355,1.641,0.455c0.94,0.154,2.001,0.219,3.142,0.211c4.104,2.684,8.951,4.324,14.169,4.529
        c1.24,1.48,2.727,2.145,4.188,2.094l1.379-0.018c1.527-0.166,2.721-1.164,3.604-3.246c2.959-0.891,5.719-2.242,8.178-3.998
        c0.859,0.135,1.674,0.195,2.43,0.166c1.994-0.076,3.566-0.719,4.674-1.912c1.652-1.785,1.893-4.391,1.115-7.436
        c2.254-4.037,3.543-8.688,3.543-13.641C59.737,29.778,59.462,27.559,58.946,25.434z M46.212,15.101
        c-1.312,0.302-2.705,0.696-4.152,1.159c-0.322-0.396-0.688-0.77-1.105-1.104c-1.006-0.806-2.152-1.293-3.305-1.485
        c-0.326-1.158-0.678-2.292-1.057-3.368C40.212,11.096,43.491,12.78,46.212,15.101z M35.265,18.284
        c0.771-0.964,2.266-1.051,3.336-0.193c1.07,0.857,1.311,2.333,0.539,3.297c-0.771,0.964-2.266,1.051-3.336,0.194
        S34.493,19.248,35.265,18.284z M24.327,27.946c2.244-1.38,4.604-2.707,7.057-3.926c0.352-0.175,0.697-0.333,1.047-0.5
        c0.303,0.357,0.641,0.694,1.023,1c1.012,0.811,2.166,1.3,3.326,1.489c0.252,1.715,0.486,3.541,0.695,5.505
        c0.34,3.207,0.543,6.09,0.645,8.684c-0.631,0.02-1.273,0.119-1.914,0.309c-1.572,0.467-2.861,1.391-3.73,2.541
        c-1.932-1.471-3.871-3.08-5.762-4.832c-1.207-1.119-2.357-2.258-3.455-3.404c0.281-0.408,0.533-0.852,0.744-1.33
        C24.835,31.592,24.897,29.584,24.327,27.946z M31.813,9.782c0.359,0,0.717,0.01,1.072,0.027c0.453,1.165,0.926,2.563,1.396,4.196
        c-0.873,0.349-1.66,0.903-2.275,1.67c-1.166,1.457-1.469,3.349-1,5.135c-0.01,0.005-0.02,0.009-0.031,0.015
        c-2.898,1.442-5.68,3.034-8.305,4.696c-0.283-0.228-0.594-0.424-0.932-0.581c-1.835-0.855-3.978-0.367-5.654,1.061
        c-0.796-1.19-1.516-2.363-2.122-3.501c-0.408-0.766-0.744-1.494-1.045-2.2C16.846,13.986,23.839,9.782,31.813,9.782z
         M20.837,31.982c-0.555,1.262-1.827,1.9-2.841,1.428s-1.386-1.877-0.831-3.139c0.555-1.26,1.827-1.898,2.841-1.425
        C21.021,29.318,21.392,30.723,20.837,31.982z M10.923,24.375c0.832,1.539,1.833,3.127,2.969,4.738
        c-0.439,1.106-0.623,2.241-0.574,3.315c-0.079,0.07-0.163,0.141-0.241,0.211c-1.254,1.129-2.306,2.182-3.188,3.166
        c-0.206-1.219-0.326-2.465-0.326-3.742C9.562,29.36,10.043,26.771,10.923,24.375z M10.707,39.1
        c0.886-1.131,2.058-2.375,3.468-3.668c0.5,0.842,1.205,1.52,2.093,1.934c1.378,0.643,2.932,0.529,4.331-0.172
        c1.17,1.229,2.399,2.447,3.688,3.639c2.312,2.143,4.66,4.064,6.982,5.781c0.008,0.35,0.053,0.701,0.133,1.051
        c-3.781,1.891-7.42,3.129-10.58,3.768C16.092,48.734,12.454,44.35,10.707,39.1z M37.577,53.584
        c-1.838,0.494-3.77,0.758-5.764,0.758c-1.803,0-3.555-0.221-5.234-0.625c2.254-0.727,4.611-1.689,7.016-2.902
        c1.158,0.795,2.641,1.199,4.201,1.105C37.729,52.508,37.657,53.072,37.577,53.584z M38.468,48.205
        c-1.314,0.389-2.656-0.223-2.996-1.367c-0.338-1.145,0.451-2.389,1.766-2.779c1.314-0.389,2.656,0.223,2.994,1.367
        C40.571,46.57,39.782,47.814,38.468,48.205z M41.603,41.002c-0.09-3.145-0.311-6.465-0.67-9.867
        c-0.035-0.322-0.277-2.482-0.752-5.488c0.852-0.35,1.619-0.896,2.221-1.646c1.092-1.363,1.42-3.106,1.074-4.788
        c2.033-0.587,3.916-0.999,5.572-1.212c2.271,2.791,3.891,6.136,4.6,9.811c-2.422,3.957-6.432,8.671-12.033,13.197L41.603,41.002z
         M44.644,50.26c-0.564-0.219-1.152-0.48-1.752-0.76c1.326-1.49,1.902-3.457,1.348-5.328c-0.029-0.096-0.066-0.186-0.102-0.277
        c3.719-3.057,7.145-6.559,9.852-10.08C53.46,40.607,49.894,46.543,44.644,50.26z"/>
</svg>
