<svg xmlns="http://www.w3.org/2000/svg" width="64" height="64" viewBox="0 0 64 64">
    <path d="M56.038,38.712c-0.771-0.634-1.66-1.237-2.687-1.796
        C57.491,33.432,60,28.929,60,24C60,12.955,47.464,4,32,4S4,12.955,4,24c0,4.929,2.509,9.432,6.648,12.916
        c-1.027,0.559-1.917,1.162-2.687,1.796C5.189,40.182,4,43.782,4,48c0,5.249,1.838,9.544,6.286,9.959
        C15.204,59.609,23.098,60,32,60s16.796-0.391,21.715-2.041C58.162,57.544,60,53.249,60,48C60,43.782,58.811,40.182,56.038,38.712z
         M52,44c0,4.418-8.954,4-20,4s-20,0.418-20-4c0-1.805,1.502-3.466,4.024-4.803v-4.289c-3.152-2.008-5.062-4.615-5.062-7.471
        c0-6.356,9.419-11.509,21.037-11.509s21.037,5.152,21.037,11.509c0,2.843-1.894,5.438-5.02,7.443v4.339
        C50.515,40.553,52,42.205,52,44z M37.131,32.978l8.25-4.95L37.353,20H26.647l-8.028,8.028l8.25,4.95
        c-4.589,1.814-7.987,5.984-8.71,11.022h2.359c-0.001,0.012-0.005,0.021-0.006,0.033h3.348c0.768-3.779,4.108-6.625,8.115-6.625
        c4.006,0,7.347,2.846,8.114,6.625h3.349c-0.002-0.012-0.005-0.021-0.006-0.033h2.409C45.118,38.962,41.72,34.792,37.131,32.978z
         M26,28l4-4h4l4,4H26z"/>
</svg>
