<svg xmlns="http://www.w3.org/2000/svg" width="64" height="64" viewBox="0 0 64 64">
    <path d="M58,27.026V17c0-3.313-2.687-6-6-6H6c-3.313,0-6,2.687-6,6v26
        c0,3.313,2.687,6,6,6h26.57c3.009,4.803,8.333,8.008,14.42,8.008c9.399,0,17.02-7.619,17.02-17.018
        C64.01,34.793,61.673,30.147,58,27.026z M11.986,19.001c2.214,0,4.008,1.794,4.008,4.007s-1.794,4.007-4.008,4.007
        c-2.213,0-4.007-1.794-4.007-4.007S9.773,19.001,11.986,19.001z M14,39h-4c-1.104,0-2-0.896-2-2s0.896-2,2-2h4
        c1.104,0,2,0.896,2,2S15.104,39,14,39z M17.985,26.456c1.19-0.695,1.999-1.971,1.999-3.448s-0.809-2.753-1.999-3.448
        c0.593-0.346,1.273-0.559,2.009-0.559c2.213,0,4.008,1.794,4.008,4.007s-1.795,4.007-4.008,4.007
        C19.259,27.015,18.578,26.802,17.985,26.456z M28,39h-4c-1.104,0-2-0.896-2-2s0.896-2,2-2h4c1.104,0,2,0.896,2,2S29.104,39,28,39z
         M47.001,53.024c-3.697,0-7.026-1.549-9.395-4.024h0.047c-2.257-2.336-3.651-5.508-3.651-9.01c0-1.342,0.204-2.635,0.582-3.852
        c1.652-5.285,6.586-9.12,12.417-9.12c2.676,0,5.161,0.81,7.229,2.194c0.041,0.027,0.081,0.057,0.122,0.084
        c0.278,0.191,0.549,0.395,0.811,0.606c0.052,0.042,0.106,0.082,0.157,0.125c0.26,0.216,0.508,0.445,0.75,0.681
        c0.101,0.099,0.198,0.199,0.296,0.301c0.151,0.157,0.297,0.319,0.439,0.483c0.17,0.196,0.334,0.396,0.492,0.603
        c0.104,0.136,0.209,0.272,0.309,0.412c0.12,0.17,0.236,0.343,0.349,0.518c1.295,2.021,2.055,4.418,2.055,6.996
        C60.009,47.202,54.186,53.024,47.001,53.024z M48.008,37.783v-4.804c0-1.104-0.893-2-1.994-2s-1.995,0.896-1.995,2v5.778
        c-0.17,0.741,0.029,1.549,0.609,2.126l3.434,3.418c0.896,0.893,2.351,0.893,3.248,0c0.896-0.894,0.896-2.34,0-3.233L48.008,37.783
        z"/>
</svg>
