<svg xmlns="http://www.w3.org/2000/svg" width="64" height="64" viewBox="0 0 64 64">
    <path d="M58,51H6c-2.209,0-4-1.791-4-4V15c0-2.209,1.791-4,4-4h52c2.209,0,4,1.791,4,4v32
        C62,49.209,60.209,51,58,51z M7.056,45.861c0.489,0,0.924-0.198,1.261-0.502l0.126,0.146l16.326-10.012l-3.237-2.513L6.538,42.176
        c-0.789,0.229-1.376,0.928-1.376,1.79C5.161,45.013,6.01,45.861,7.056,45.861z M56.869,14.634c-0.357,0-0.674,0.125-0.959,0.298
        l-0.049-0.061L34.568,27.928c-1.434,0.88-3.76,0.88-5.195,0L8.12,14.895l-0.057,0.069c-0.296-0.191-0.628-0.33-1.007-0.33
        c-1.046,0-1.895,0.849-1.895,1.895c0,0.511,0.207,0.971,0.536,1.312L5.66,17.884l23.713,14.542c1.435,0.88,3.761,0.88,5.195,0
        L58.32,17.861l-0.059-0.072c0.305-0.336,0.502-0.771,0.502-1.261C58.764,15.482,57.915,14.634,56.869,14.634z M58.114,42.562
        l0.013-0.015l-0.381-0.233c-0.056-0.029-0.102-0.074-0.16-0.099l-15.055-9.231l-3.237,2.513l16.283,9.985l0.079-0.091
        c0.33,0.281,0.744,0.47,1.213,0.47c1.046,0,1.895-0.849,1.895-1.896C58.764,43.402,58.506,42.91,58.114,42.562z"/>
</svg>
