<svg xmlns="http://www.w3.org/2000/svg" width="64" height="64" viewBox="0 0 64 64">
    <path d="M58,40.324C58,54.623,46.403,60,32.046,60C17.689,60,6.05,54.623,6.05,40.324
        c0-0.045,0.004-0.084,0.004-0.129H6l0.068-0.557c0.038-1.396,0.191-2.646,0.456-3.76l0.738-6.086
        c0.312-2.023,2.573-3.627,5.149-3.78C11.307,19.486,13,12.704,17.596,7.859c7.502-7.908,19.906-7.705,28.154,0.26l0.033-0.034
        l4.239,4.463l-2.701,2.848l2.146,2.241c0.961,1.016,1.185,1.768,0.131,2.84l-0.266,0.263c-1.065,1.038-1.815,0.812-2.829-0.147
        l-2.065-2.156l-0.005,0.005l-1.123-1.184l-1.148-1.199l0.005-0.005l-1.988-2.097l-0.004,0.004c-0.003-0.004-0.005-0.008-0.009-0.011
        C35.47,9,27.906,8.951,23.271,13.837c-3.108,3.276-4.1,7.937-3.008,12.146h1.55c2.344,0.236,3.353,1.392,4.938,2.599
        c0.183,0.139,0.369,0.232,0.553,0.297c1.245,0.668,2.905,1.084,4.745,1.084c1.923,0,3.662-0.445,4.922-1.168
        c0.113-0.057,0.226-0.129,0.338-0.213c0.075-0.057,0.143-0.113,0.216-0.17c0.14-0.104,0.277-0.205,0.399-0.316
        c1.264-1.02,2.062-1.891,4.087-2.096H51c2.738,0,5.452,1.666,5.779,3.793l0.69,5.689c0.361,1.346,0.515,2.895,0.526,4.68L58,40.195
        h-0.003C57.997,40.24,58,40.279,58,40.324z M32.012,37.979c-2.208,0-3.998,1.791-3.998,4.002c0,1.484,0.818,2.768,2.021,3.457v2.412
        c0,1.186,0.888,2.146,1.983,2.146c1.095,0,1.982-0.961,1.982-2.146v-2.418c1.195-0.691,2.01-1.971,2.01-3.451
        C36.01,39.77,34.22,37.979,32.012,37.979z"/>
</svg>
