<svg xmlns="http://www.w3.org/2000/svg" width="64" height="64" viewBox="0 0 64 64">
    <path d="M58.041,40.328c0,14.298-11.639,19.676-25.994,19.676
        c-14.358,0-25.997-5.378-25.997-19.676c0-0.21,0.023-0.392,0.028-0.596H6l0.123-0.962c0.062-0.921,0.159-1.797,0.328-2.583
        l0.812-6.391c0.295-1.915,2.336-3.458,4.739-3.749v-0.022h0.047C12.542,14.883,21.278,6,32.016,6
        C42.75,6,51.488,14.883,51.98,26.025h0.049v0.021c2.406,0.287,4.455,1.832,4.75,3.75l0.768,6.041
        c0.254,1.053,0.398,2.242,0.451,3.549l0.043,0.346h-0.027C58.02,39.937,58.041,40.117,58.041,40.328z M30.033,45.441v2.412
        c0,1.186,0.889,2.146,1.984,2.146C33.111,50,34,49.039,34,47.854v-2.419c1.195-0.691,2.01-1.97,2.01-3.451
        c0-2.21-1.791-4.002-3.998-4.002c-2.209,0-3.998,1.792-3.998,4.002C28.014,43.469,28.832,44.751,30.033,45.441z M43.996,25.373
        c0.02-0.125,0.016-0.263-0.021-0.414C43.453,18.821,38.303,14,32.016,14c-6.635,0-12.012,5.366-12.013,11.986h1.81
        c2.344,0.236,3.352,1.392,4.938,2.599c0.182,0.14,0.367,0.231,0.553,0.298c1.244,0.668,2.904,1.084,4.744,1.084
        c1.924,0,3.662-0.446,4.922-1.169c0.113-0.057,0.227-0.128,0.338-0.213c0.076-0.057,0.143-0.112,0.217-0.17
        c0.139-0.103,0.277-0.205,0.4-0.315c1.262-1.02,2.295-1.909,4.32-2.113h1.783C44.027,25.779,44.006,25.577,43.996,25.373z"/>
</svg>
