<svg xmlns="http://www.w3.org/2000/svg" width="64" height="64" viewBox="0 0 64 64">
    <path d="M57.781,31.018c-0.637,0.201-1.568,0.471-2.625,0.749
        C53.283,32.261,53,32.915,53,34.503c0,17.972-6.795,25.484-22.543,25.484c-14.094,0-24.45-7.647-24.45-25.966V22.46
        C6.007,22.436,6,22.412,6,22.388V9.642C6,7.63,7.584,6,9.537,6H48.45c1.954,0,3.538,1.63,3.538,3.642v3.604h0.015v1.317
        c0,1.276,6.582,11.483,7.54,13.258C60.41,29.431,60.239,30.241,57.781,31.018z M37.022,15.972c-1.649,0-2.99,1.353-2.99,3.012
        c0,1.671,1.341,3.018,2.99,3.018c1.65,0,2.991-1.347,2.991-3.018C40.014,17.324,38.673,15.972,37.022,15.972z M42.417,40.625
        c-4.567,0-7.731-0.933-9.395-5.572c-0.312-0.871-1.219-1.306-2.03-0.969c-0.809,0.337-1.211,1.316-0.898,2.188
        c2.443,6.817,7.601,7.736,12.323,7.736c0.866,0,1.569-0.757,1.569-1.691S43.283,40.625,42.417,40.625z"/>
</svg>
