<svg xmlns="http://www.w3.org/2000/svg" width="64" height="64" viewBox="0 0 64 64">
    <path d="M58,11H6c-3.313,0-6,2.687-6,6v30c0,3.314,2.687,6,6,6h52c3.313,0,6-2.686,6-6
        V17C64,13.687,61.313,11,58,11z M24.984,43.001c-6.072,0-10.994-4.926-10.994-11.001c0-6.074,4.922-10.999,10.994-10.999
        S35.979,25.926,35.979,32C35.979,38.075,31.056,43.001,24.984,43.001z M39.016,43.001c-0.966,0-1.897-0.138-2.79-0.371
        c2.621-2.775,4.239-6.509,4.239-10.629c0-4.12-1.618-7.854-4.239-10.629c0.893-0.234,1.824-0.371,2.79-0.371
        c6.074,0,10.998,4.925,10.998,10.999C50.014,38.075,45.09,43.001,39.016,43.001z"/>
</svg>
