<svg xmlns="http://www.w3.org/2000/svg" width="64" height="64" viewBox="0 0 64 64">
    <path d="M59.693,20.723c-0.758-2.153-2.85-3.703-5.317-3.703h-8.374v-2.698
        c0-4.032-3.326-7.301-7.429-7.301H25.431c-4.103,0-7.429,3.269-7.429,7.301v2.698H9.627c-2.455,0-4.537,1.534-5.305,3.668
        C2.952,23.546,2,29.771,2,37.012c0,7.255,0.956,13.49,2.33,16.34C5.104,55.477,7.18,57,9.627,57h44.749
        c2.46,0,4.546-1.54,5.31-3.682C61.051,50.453,62,44.238,62,37.012C62,29.799,61.055,23.595,59.693,20.723z M24.002,14.878
        c0-1.041,0.896-1.884,2-1.884h12c1.104,0,2,0.844,2,1.884v2.142h-16V14.878z M53.01,51.037c-0.053,0-0.104-0.024-0.157-0.037
        H11.147c-0.052,0.013-0.104,0.037-0.157,0.037C9.339,51.037,8,44.758,8,37.012c0-7.745,1.339-14.024,2.99-14.024
        c0.025,0,0.049,0.015,0.073,0.017V23h41.873v0.005c0.024-0.002,0.049-0.017,0.073-0.017c1.651,0,2.99,6.279,2.99,14.024
        C56,44.758,54.661,51.037,53.01,51.037z M39.985,33H36v-4.142c0-1.01-0.896-1.829-2-1.829h-4c-1.104,0-2,0.819-2,1.829V33h-3.981
        c-1.114,0-2.017,0.928-2.017,2.074v3.885c0,1.146,0.902,2.074,2.017,2.074H28v4.121c0,1.01,0.896,1.828,2,1.828h4
        c1.104,0,2-0.818,2-1.828v-4.121h3.985c1.113,0,2.017-0.928,2.017-2.074v-3.885C42.002,33.928,41.099,33,39.985,33z"/>
</svg>
