<svg xmlns="http://www.w3.org/2000/svg" width="64" height="64" viewBox="0 0 64 64">
    <path d="M55.312,12.792c-0.062-0.066-0.132-0.132-0.203-0.197
        c-0.016-0.014-0.031-0.031-0.048-0.044c-2.902-2.604-12.12-4.507-23.05-4.507c-10.794,0-19.922,1.855-22.943,4.409
        c-2.92,2.231-5.06,9.362-5.06,17.57c0,8.178,2.123,15.29,5.026,17.548c1.29,1.107,3.73,2.084,6.954,2.837l0.024,4.998
        c0.239,2.081,2.261,3.1,5.701,1.107c0.178-0.104,0.342-0.167,0.499-0.215l7.226-4.332c0.847,0.023,1.702,0.04,2.573,0.04
        c11.347,0,20.847-2.05,23.355-4.805C58.066,44.614,60,37.807,60,30.024C60,22.188,58.041,15.341,55.312,12.792z M40.09,36.043
        H17.923c-1.053,0-1.906-0.897-1.906-2.004c0-1.106,0.854-2.003,1.906-2.003H40.09c1.053,0,1.906,0.897,1.906,2.003
        C41.996,35.146,41.143,36.043,40.09,36.043z M45.832,28H18.118c-1.184,0-2.144-0.886-2.144-1.979c0-1.093,0.96-1.979,2.144-1.979
        h27.714c1.184,0,2.143,0.886,2.143,1.979C47.975,27.114,47.016,28,45.832,28z"/>
</svg>
