<svg xmlns="http://www.w3.org/2000/svg" width="64" height="64" viewBox="0 0 64 64">
    <path d="M53.441,54H41.945c-2.229-0.359-1.842-1.531,1.016-3.409
        c0.031-0.02,0.061-0.039,0.092-0.06c0.072-0.048,0.139-0.094,0.215-0.143c0.09-0.058,0.154-0.118,0.215-0.18
        c4.975-3.577,8.225-9.399,8.225-15.993c0-7.294-3.973-13.647-9.863-17.055L32,46.746l-9.843-29.585
        c-5.89,3.407-9.862,9.761-9.862,17.055c0,6.603,3.256,12.43,8.243,16.001c0.058,0.059,0.113,0.117,0.195,0.172
        c2.986,2.009,3.576,3.241,1.317,3.611H10.558C6.467,49.133,4,42.855,4,36c0-11.678,7.154-21.675,17.315-25.874
        c0.119-0.053,0.235-0.097,0.353-0.144c0.239-0.095,0.486-0.171,0.728-0.259c2.056-0.631,3.706-0.229,4.585,1.87l4.933,15.924
        l4.976-15.786c0.85-2.195,2.477-2.667,4.543-2.07c0.334,0.119,0.674,0.222,1,0.353c0.014,0.006,0.025,0.011,0.039,0.016
        C52.746,14.176,60,24.238,60,36C60,42.855,57.533,49.133,53.441,54z"/>
</svg>
