<svg xmlns="http://www.w3.org/2000/svg" width="64" height="64" viewBox="0 0 64 64">
    <path d="M46,0H18c-3.313,0-6,2.687-6,6v52c0,3.314,2.687,6,6,6h28c3.313,0,6-2.686,6-6V6
        C52,2.687,49.313,0,46,0z M28,4h8c1.104,0,2,0.896,2,2s-0.896,2-2,2h-8c-1.104,0-2-0.896-2-2S26.896,4,28,4z M32,60.189
        c-1.737,0-3.145-1.404-3.145-3.138c0-1.732,1.407-3.138,3.145-3.138s3.146,1.405,3.146,3.138
        C35.146,58.785,33.737,60.189,32,60.189z M46,48c0,1.104-0.896,2-2,2H20c-1.104,0-2-0.896-2-2V14c0-1.104,0.896-2,2-2h24
        c1.104,0,2,0.896,2,2V48z"/>
</svg>
