<svg xmlns="http://www.w3.org/2000/svg" width="64" height="64" viewBox="0 0 64 64">
    <path d="M54,49H10v-2H4v4c0,2.209,1.791,4,4,4h48c2.209,0,4-1.791,4-4v-4h-6V49z
         M13,25.028c-1.642,0-2.972,1.331-2.972,2.972s1.331,2.973,2.972,2.973s2.973-1.331,2.973-2.973S14.642,25.028,13,25.028z
         M51,25.028c-1.642,0-2.973,1.331-2.973,2.972s1.331,2.973,2.973,2.973s2.973-1.331,2.973-2.973S52.642,25.028,51,25.028z M60,11
        H4c-2.209,0-4,1.791-4,4v26c0,2.209,1.791,4,4,4h56c2.209,0,4-1.791,4-4V15C64,12.791,62.209,11,60,11z M25.625,39H9.787
        c0.113-0.313,0.185-0.647,0.185-1c0-1.642-1.331-2.973-2.972-2.973c-0.353,0-0.686,0.072-1,0.185V20.788
        c0.314,0.113,0.647,0.185,1,0.185c1.642,0,2.972-1.331,2.972-2.973c0-0.353-0.072-0.686-0.185-1h15.838
        C22.25,19.301,20,23.361,20,28S22.25,36.699,25.625,39z M32,35c-3.313,0-6-3.134-6-7s2.687-7,6-7c3.314,0,6,3.134,6,7
        S35.314,35,32,35z M58,35.212c-0.313-0.112-0.647-0.185-1-0.185c-1.642,0-2.973,1.331-2.973,2.973c0,0.353,0.072,0.687,0.185,1
        H38.375C41.75,36.699,44,32.639,44,28s-2.25-8.699-5.625-11h15.837c-0.112,0.314-0.185,0.647-0.185,1
        c0,1.642,1.331,2.973,2.973,2.973c0.353,0,0.687-0.072,1-0.185V35.212z"/>
</svg>
