<svg xmlns="http://www.w3.org/2000/svg" width="64" height="64" viewBox="0 0 64 64">
    <path d="M59.313,15.697l-0.032-0.025c-0.172-0.204-3.49-4.146-7.673-7.39
        c-4.069-3.156-8.954-5.565-9.169-5.671l-0.041-0.032c-0.49-0.38-1.163-0.585-1.849-0.585c-0.317,0-0.64,0.044-0.945,0.134
        C38.636,2.412,38,3.104,38,3.872v0.012v6.117C25.708,10.224,15.044,15.343,9.235,22.88c-0.325,0.317-0.584,0.694-0.792,1.102
        c-0.083,0.121-0.177,0.236-0.258,0.358c0.027,0.008,0.054,0.019,0.081,0.027C8.09,24.827,7.981,25.32,7.981,25.84
        c0,2.302,1.893,4.168,4.227,4.168c1.291,0,2.433-0.583,3.208-1.483c0.021,0.02,0.043,0.039,0.064,0.059
        c4.474-2.933,10.319-4.725,16.737-4.725c1.991,0,3.924,0.18,5.782,0.505v5.745v0.012c0,0.769,0.636,1.46,1.604,1.743
        c0.306,0.091,0.628,0.135,0.945,0.135c0.686,0,1.358-0.205,1.849-0.585l0.041-0.032c0.215-0.105,5.1-2.516,9.169-5.671
        c4.183-3.244,7.501-7.186,7.673-7.39l0.032-0.025c0.47-0.363,0.701-0.831,0.699-1.299C60.015,16.528,59.783,16.061,59.313,15.697z
         M49.761,33.987c-1.291,0-2.433,0.583-3.208,1.482c-0.021-0.02-0.044-0.038-0.064-0.059c-4.475,2.933-10.32,4.725-16.737,4.725
        c-1.979,0-3.902-0.177-5.751-0.499V33.86v-0.013c0-0.769-0.58-1.46-1.462-1.745c-0.278-0.09-0.571-0.134-0.86-0.134
        c-0.625,0-1.237,0.205-1.685,0.586l-0.037,0.031c-0.196,0.105-4.646,2.519-8.352,5.677c-3.81,3.247-6.832,7.191-6.989,7.396
        l-0.029,0.025c-0.427,0.364-0.639,0.832-0.637,1.3c-0.002,0.468,0.21,0.937,0.637,1.3l0.029,0.025
        c0.157,0.205,3.18,4.149,6.989,7.396c3.706,3.159,8.155,5.571,8.352,5.677l0.037,0.032C20.44,61.796,21.053,62,21.678,62
        c0.289,0,0.582-0.044,0.86-0.134C23.42,61.581,24,60.891,24,60.121v-0.013v-6.115c12.279-0.231,22.93-5.347,28.732-12.878
        c0.326-0.318,0.586-0.696,0.794-1.104c0.083-0.12,0.177-0.235,0.257-0.357c-0.027-0.009-0.054-0.019-0.081-0.027
        c0.177-0.459,0.285-0.951,0.285-1.472C53.987,35.853,52.095,33.987,49.761,33.987z"/>
</svg>
