<svg xmlns="http://www.w3.org/2000/svg" width="64" height="64" viewBox="0 0 64 64">
    <path d="M32,59.999c-15.464,0-28-12.535-28-28C4,16.535,16.536,4,32,4
        c15.465,0,28,12.535,28,27.999C60,47.464,47.465,59.999,32,59.999z M26.144,48.852c0.715,0.779,1.688,1.171,2.917,1.171
        c1.261,0,2.291-0.392,3.088-1.171c0.798-0.779,1.229-1.791,1.295-3.032c0.069-1.312-0.255-2.341-0.972-3.086
        c-0.718-0.745-1.708-1.117-2.968-1.117c-1.229,0-2.242,0.372-3.038,1.117s-1.229,1.773-1.298,3.086
        C25.103,47.061,25.428,48.072,26.144,48.852z M42.088,17.765c-6.109-6.309-15.417-3.132-19.068-1.515
        c-0.028,0.024-0.051,0.053-0.09,0.071c-1.014,0.493-1.08,1.187-0.648,2.294l1.35,2.63c0.024,0.027,0.053,0.05,0.072,0.089
        c0.512,1.052,1.223,1.082,2.369,0.588c1.485-0.708,3.798-1.601,6.209-1.698c4.052-0.165,6.138,2.531,2.927,5.693
        c-3.052,3.009-8.337,4.787-8.848,12.088l-0.008,0.008c0,0.663,0.53,1.199,1.184,1.199h4.733c0.654,0,1.184-0.536,1.184-1.199v-0.374
        c0.248-1.386,1.23-3.525,4.598-5.773C43.754,28.056,45.971,21.773,42.088,17.765z"/>
</svg>
