<svg xmlns="http://www.w3.org/2000/svg" width="64" height="64" viewBox="0 0 64 64">
    <path d="M58.826,44.764L44.746,58.83C43.996,59.578,42.98,60,41.92,60H22.051
        c-1.062,0-2.08-0.422-2.83-1.174L5.17,44.76C4.421,44.01,4,42.994,4,41.934V22.038c0-1.062,0.422-2.079,1.173-2.83L19.223,5.17
        C19.973,4.421,20.989,4,22.05,4h19.872c1.059,0,2.074,0.42,2.824,1.168l14.078,14.039c0.752,0.75,1.176,1.77,1.176,2.832v19.895
        C60,42.996,59.578,44.014,58.826,44.764z M45.422,24.533c0.824-0.824,0.824-2.16,0-2.984l-2.984-2.984
        c-0.823-0.824-2.16-0.824-2.984,0l-7.46,7.46l-7.461-7.46c-0.823-0.824-2.16-0.824-2.984,0l-2.983,2.984
        c-0.824,0.824-0.824,2.16,0,2.984l7.46,7.46l-7.46,7.461c-0.824,0.823-0.824,2.16,0,2.984l2.983,2.983
        c0.824,0.824,2.161,0.824,2.984,0l7.461-7.46l7.46,7.46c0.824,0.824,2.161,0.824,2.984,0l2.984-2.983
        c0.824-0.824,0.824-2.161,0-2.984l-7.461-7.461L45.422,24.533z"/>
</svg>
