<svg xmlns="http://www.w3.org/2000/svg" width="64" height="64" viewBox="0 0 64 64">
    <path d="M32,60C16.536,60,4,47.465,4,32C4,16.536,16.536,4.001,32,4.001
        c15.463,0,28,12.535,28,27.999C60,47.465,47.463,60,32,60z M48.244,21.936l-2.783-2.973c-0.768-0.82-2.014-0.82-2.781,0
        L27.377,35.313l-6.42-6.848c-0.769-0.821-2.014-0.821-2.782,0l-2.782,2.973c-0.768,0.821-0.768,2.151,0,2.973L25.986,45.76
        c0.769,0.82,2.014,0.82,2.782,0l19.476-20.852C49.012,24.088,49.012,22.757,48.244,21.936z"/>
</svg>
