<svg xmlns="http://www.w3.org/2000/svg" width="64" height="64" viewBox="0 0 64 64">
    <path d="M62,50.771c0,2.825-1.942,5.111-4.366,5.21c0.001,0.006,0,0.013,0.002,0.019H6.514
        c0-0.001,0-0.001,0-0.002C6.508,55.998,6.502,56,6.495,56c-2.499,0-4.524-2.341-4.524-5.229c0-1.315,0.435-2.504,1.13-3.423
        L27.756,6.591c0.015,0.008,0.03,0.013,0.045,0.02c0.696-1.533,2.307-2.608,4.185-2.608s3.488,1.075,4.185,2.608
        c0.015-0.007,0.03-0.012,0.045-0.02l24.618,40.696c-0.001,0.001-0.002,0.003-0.004,0.004C61.55,48.217,62,49.429,62,50.771z
         M35.985,22c0-1.104-0.896-2-2-2h-4c-1.104,0-2,0.896-2,2v14c0,1.104,0.896,2,2,2h4c1.104,0,2-0.896,2-2V22z M35.985,44
        c0-1.104-0.896-2-2-2h-4c-1.104,0-2,0.896-2,2v2c0,1.104,0.896,2,2,2h4c1.104,0,2-0.896,2-2V44z"/>
</svg>
