<svg  xmlns="http://www.w3.org/2000/svg" width="64" height="64" viewBox="0 0 64 64">
    <path d="M58.949,38.973c0.02,1.878,0.027,3.811,0.012,5.628
        c-0.055,6.143-1.516,10.496-12.889,11.238C45.732,55.934,45.381,56,45.01,56h-0.162h-9.529H35.01c-2.209,0-4-1.791-4-4s1.791-4,4-4
        h10c1.918,0,3.516,1.351,3.906,3.152c0.041,0.015,0.076,0.027,0.076,0.027c0.346-0.147,0.656-0.29,0.93-0.421
        c2.689-1.033,5.104-2.904,5.104-6.303c0-1.064-0.018-2.688-0.043-4.456H54.73c-1.076,2.953-2.477,5.794-4.096,8.425
        c-1.072-1.899-3.332-2.542-5.074-2.743c2.273-3.549,4.119-7.622,5.08-11.793l-3.654,2.578C46.742,40.667,43.27,44,39.01,44
        c-3.592,0-6.631-2.367-7.643-5.628h-0.715C29.641,41.633,26.602,44,23.01,44c-4.261,0-7.733-3.333-7.977-7.533l-5.929-4.183
        c-0.186,0.77-0.2,1.665,0.022,2.594c0.527,2.21,2.127,3.719,3.617,3.463c3.114,8.195,9.175,15.358,14.466,17.919
        c0.828,0.536,2.912,1.74,4.947,1.74c1.33,0,6.201,0,10.66,0c-4.049,3.718-8.307,6-11.807,6c-7.262,0-17.779-9.779-22.926-21.938
        c-4.978-0.817-5.063-10.797-5.063-10.797c-0.166-1.416,0.66-2.711,1.997-3.458C5.067,17.646,8.99,9.951,15.048,5.255
        c0.456,4.237,1.945,10.561,6.633,14.066c-2.779,3.881-6.572,6.983-11.024,8.872c0,0.026,0.004,0.054,0.005,0.08l5.644,3.981
        C17.732,30.646,20.196,30,23.01,30c3.721,0,6.82,1.144,7.715,4.14h0.57c0.896-2.985,3.994-4.101,7.715-4.101
        c2.809,0,5.27,0.627,6.697,2.22l5.652-3.987c0.004-0.153,0.014-0.308,0.014-0.46c0-0.679-0.041-1.331-0.082-1.982
        c-1.078,0.089-2.17,0.144-3.281,0.144c-8.301,0-15.771-2.538-21.047-6.593c-0.619-0.555-1.061-0.929-1.061-0.929
        s-0.209-0.147-0.545-0.423c-0.625-0.569-1.219-1.156-1.76-1.771c-0.01,0.02-0.021,0.037-0.031,0.056
        c-1.294-1.419-2.833-3.533-3.807-6.312c-0.853-2.432-0.835-5.322-0.681-7.277C22.654,0.945,26.705,0,31.01,0
        c12.646,0,23.172,8.017,25.508,22h0.492c2.209,0,4,1.373,4,8C61.01,34.515,60.178,37.516,58.949,38.973z M23.01,33.964
        c-2.209,0-4-0.173-4,2.036s1.791,4,4,4c2.209,0,4-1.791,4-4S25.219,33.964,23.01,33.964z M39.01,33.979c-2.209,0-4-0.188-4,2.021
        s1.791,4,4,4s4-1.791,4-4S41.219,33.979,39.01,33.979z"/>
</svg>
