<svg xmlns="http://www.w3.org/2000/svg" width="64" height="64" viewBox="0 0 64 64">
    <path d="M30,22c1.104,0,2,0.896,2,2v10c0,0.268-0.055,0.521-0.149,0.755
        c-0.001,0.001-0.001,0.001-0.001,0.002c-0.102,0.249-0.251,0.474-0.438,0.66l-0.001,0.001l-4.242,4.242
        c-0.781,0.781-2.047,0.781-2.828,0c-0.781-0.78-0.781-2.047,0-2.828l3.66-3.66V24C28,22.896,28.896,22,30,22z M59.05,31.254
        l-7.052,7.814c-1.103,1.223-2.892,1.223-3.994,0l-6.229-6.903c-0.003-0.004-0.005-0.007-0.008-0.011
        c-1.942-2.023-2.438-4.153,0.021-4.153c0.004,0,0.006-0.001,0.01-0.001h3.679C43.697,21.103,37.453,16,30,16
        c-8.836,0-16,7.164-16,16c0,8.837,7.164,16,16,16c3.318,0,6.387-1.028,8.939-2.76l5.393,5.976C40.334,54.212,35.382,56,30,56
        C16.745,56,6,45.255,6,32S16.745,8,30,8c11.889,0,21.732,8.653,23.641,20h4.625c0.004,0,0.006,0.001,0.01,0.001
        C60.369,28.001,60.309,29.547,59.05,31.254z"/>
</svg>
