<svg xmlns="http://www.w3.org/2000/svg" width="64" height="64" viewBox="0 0 64 64">
    <path d="M60,29.023h-0.438c0-0.006,0-0.012,0-0.018H48.586
        c-3.156,0-4.576,2.848-4.576,5.995h-0.107c0,1.07-0.871,1.938-1.945,1.938S40.014,36.07,40.014,35H40.01c0-5.506,2.477-10,8-10h12
        v0.12c0.013-0.033,0.027-0.074,0.04-0.108c-0.04-0.053-0.067-0.123-0.067-0.226c0-4.956-3.998-5.763-7.389-5.763
        c-17.965,0-38.583,0-38.583,0l32.564-6.88l0.714,2.812h8.346c-0.027-0.007-0.057-0.016-0.084-0.023l-1.954-7.011
        c-0.82-2.368-3.961-4.189-7.016-3.498L5.845,14.256c-0.219,0.039-0.435,0.086-0.649,0.157l-0.079,0.019l-0.002,0.012
        c-1.78,0.619-3.341,2.263-3.65,4.055c-1.953,11.663-1.953,23.326,0,34.989c0.369,2.138,2.514,4.084,4.694,4.305
        c16.546,1.61,31.093,1.61,47.64,0c2.18-0.221,4.326-2.167,4.693-4.305c0.311-1.853,0.535-4.087,0.697-6.464H60
        c2.209,0,4-1.791,4-4v-10C64,30.814,62.209,29.023,60,29.023z M53.004,41.006c-1.674,0-3.029-1.34-3.029-2.992
        s1.355-2.992,3.029-2.992c1.672,0,3.027,1.34,3.027,2.992S54.676,41.006,53.004,41.006z"/>
</svg>
