<svg xmlns="http://www.w3.org/2000/svg" width="64" height="64" viewBox="0 0 64 64">
    <path d="M61.456,27.963C60.78,26.792,59.556,26,58.141,26H57.9l-5.313-11.841
        c-2.966-5.765-6.683-6.136-10.896-6.136c-0.004,0-0.007,0-0.01,0H22.296c-0.003,0-0.006,0-0.01,0
        c-4.117,0-7.761,0.34-10.693,5.734L6.1,26H5.86c-1.415,0-2.639,0.792-3.315,1.962C1.02,30.059,0,33.812,0,38.106
        c0,6.581,2.388,11.916,5.333,11.916c0.104,0,0.205-0.021,0.307-0.034c0.074,0.004,0.145,0.022,0.22,0.022h0.164v1.322
        C6.023,53.911,7.812,58,10.02,58h3.996c2.207,0,3.996-4.089,3.996-6.667v-1.322h27.977v1.322c0,2.578,1.789,6.667,3.996,6.667
        h3.996c2.207,0,3.996-4.089,3.996-6.667v-1.322h0.164c0.075,0,0.146-0.019,0.219-0.022c0.103,0.013,0.203,0.034,0.307,0.034
        c2.946,0,5.334-5.335,5.334-11.916C64,33.812,62.98,30.061,61.456,27.963z M17.472,15.343c0.356-0.798,1.257-1.417,2.028-1.417
        h25.102c0.771,0,1.672,0.619,2.028,1.417L51.429,26H12.673L17.472,15.343z M15.972,42.022h-4c-2.209,0-4-1.34-4-2.992
        c0-1.653,1.791-2.993,4-2.993h4c2.209,0,4,1.34,4,2.993C19.971,40.683,18.181,42.022,15.972,42.022z M52.027,42.022h-3.999
        c-2.209,0-3.999-1.34-3.999-2.992c0-1.653,1.79-2.993,3.999-2.993h3.999c2.209,0,4,1.34,4,2.993
        C56.027,40.683,54.236,42.022,52.027,42.022z"/>
</svg>
