<svg xmlns="http://www.w3.org/2000/svg" width="64" height="64" viewBox="0 0 64 64">
    <path d="M52.898,38.361c-5.581-3.473-4.428-7.114-8.348-11.457
        c-1.431-1.585-2.507-2.58-3.653-3.21c0.001-0.001,0.003-0.002,0.004-0.003c3.405-2.59,4.726-6.133,0.438-6.701
        c-4.288-0.567-3.925,4.641-9.054,4.641c-0.094,0-0.18,0.021-0.269,0.034c-0.081-0.011-0.158-0.034-0.243-0.034
        c-5.129,0-4.766-5.208-9.054-4.641c-4.288,0.567-2.967,4.111,0.438,6.701c0.001,0,0.001,0.001,0.002,0.001
        c-1.146,0.631-2.221,1.627-3.651,3.212c-3.92,4.343-2.767,7.984-8.348,11.457c-3.574,2.224-5.994,4.195-6.722,8.479
        c-0.156,0.481-0.246,1-0.246,1.566v1.829c0-0.017,0,0.231,0,1.013c0,0.005,0.01,0.007,0.012,0.012
        c0.005,3.159,2.495,5.718,5.565,5.718H54.29c3.073,0,5.565-2.564,5.565-5.729v-0.001c0.002,0,0.012,0,0.012,0v-2.842
        c0-0.567-0.09-1.088-0.247-1.57C58.892,42.556,56.471,40.584,52.898,38.361z M32.029,44.966c-5.529,0-10.011-3.586-10.011-8.008
        c0-4.424,4.481-8.009,10.011-8.009s10.011,3.585,10.011,8.009C42.04,41.38,37.559,44.966,32.029,44.966z M63.932,21.456
        c-0.011-0.046-0.041-0.081-0.086-0.111C63.29,15.349,49.934,7.265,33.362,7.009V7.008h-0.039C33.211,7.006,33.1,7.001,32.986,7
        c-0.058,0-0.486,0.001-0.957,0.003C31.56,7.001,31.13,7,31.072,7c-0.113,0.001-0.225,0.006-0.337,0.008h-0.039v0.001
        c-16.57,0.256-29.928,8.34-30.483,14.335c-0.045,0.031-0.075,0.065-0.086,0.111c-0.095,0.411-0.234,2.625,0.699,5.139
        c0.031,0.115,0.058,0.229,0.104,0.343l0.991,2.465c0.524,1.301,1.904,2.063,3.097,1.737l10.818-2.956
        c1.196-0.327,1.944-1.671,1.662-3.041c0,0-0.625-3.416-1.222-4.865c-0.781-1.896-1.087-3.745,3.517-4.426
        c4.171-0.617,7.262,0.178,11.58,0.074c0.191,0.009,0.384,0.018,0.583,0.018c0.206,0,0.405-0.009,0.603-0.018
        c0.001,0,0.001,0,0.001,0c4.387,0.123,7.493-0.697,11.706-0.074c4.604,0.681,4.299,2.53,3.518,4.426
        c-0.598,1.449-1.223,4.865-1.223,4.865c-0.281,1.37,0.467,2.714,1.662,3.041l10.818,2.956c1.193,0.326,2.574-0.436,3.098-1.737
        l0.99-2.465c0.047-0.114,0.072-0.229,0.104-0.343C64.166,24.08,64.027,21.866,63.932,21.456z"/>
</svg>
