<svg xmlns="http://www.w3.org/2000/svg" width="64" height="64" viewBox="0 0 64 64">
    <path d="M56,24.283C56,10.872,45.255,0,32,0S8,10.872,8,24.283
        c0,4.182,1.045,8.115,2.885,11.551c4.307,9.892,13.021,20.938,17.798,26.607c0.013-0.01,0.027-0.017,0.04-0.026
        c0.761,0.788,1.958,1.305,3.318,1.305c1.572,0,2.926-0.688,3.637-1.69c5.064-6.019,14.02-17.443,18.039-27.404
        C55.179,31.487,56,27.983,56,24.283z M32,34.01c-5.521,0-9.996-4.482-9.996-10.012c0-5.53,4.475-10.012,9.996-10.012
        c5.521,0,9.997,4.481,9.997,10.012C41.997,29.527,37.521,34.01,32,34.01z"/>
</svg>
