<svg xmlns="http://www.w3.org/2000/svg" width="64" height="64" viewBox="0 0 64 64">
    <path d="M60,43.5V46c0,2.209-1.791,4-4,4h-6v2.667C50,56.717,46.776,60,42.8,60H21.2
        c-3.977,0-7.2-3.283-7.2-7.333V50H8c-2.209,0-4-1.791-4-4v-2v-0.5V29.736C4,25.464,7.582,22,12,22h2V4h36v18h2
        c4.418,0,8,3.464,8,7.736v13.761C60,43.498,60,43.499,60,43.5z M44,10H20v18h24V10z M44,46H20v8h24V46z M51,32c-1.656,0-3,1.344-3,3
        c0,1.657,1.344,3,3,3s3-1.343,3-3C54,33.344,52.656,32,51,32z"/>
</svg>
