<svg xmlns="http://www.w3.org/2000/svg" width="64" height="64" viewBox="0 0 64 64">
    <path d="M43.793,29.998c-3.875-0.45-7.38,2.321-7.83,6.19
        c-0.449,3.869,2.328,7.37,6.202,7.82s7.38-2.321,7.829-6.19S47.667,30.448,43.793,29.998z M50,22.515V2c0-1.104-0.896-2-2-2H8
        C6.896,0,6,0.896,6,2v52c0,1.104,0.896,2,2,2h22.608l-0.107,0.923c-0.487,4.204,2.172,6.184,5.402,5.566l4.339-1.374l3.909,2.332
        c3.003,1.34,6.045,0.022,6.534-4.184l1.013-8.715c3.894-2.527,6.673-6.708,7.25-11.682C59.758,31.882,55.974,25.437,50,22.515z
         M24,10h8c1.104,0,2,0.896,2,2c0,1.104-0.896,2-2,2h-8c-1.104,0-2-0.896-2-2C22,10.896,22.896,10,24,10z M24,42h-6
        c-1.104,0-2-0.895-2-2c0-1.104,0.896-2,2-2h6c1.104,0,2,0.896,2,2C26,41.105,25.104,42,24,42z M27.099,34H18c-1.104,0-2-0.896-2-2
        c0-1.105,0.896-2,2-2h10c0.133,0,0.264,0.015,0.39,0.039C27.799,31.274,27.362,32.601,27.099,34z M18,26c-1.104,0-2-0.896-2-2
        c0-1.104,0.896-2,2-2h18.975c-2.221,0.884-4.203,2.263-5.826,4H18z M51.875,41.174c0.938,4.232-0.545,6.045-4.448,5.438
        l-1.384,11.906l-5.104-3.335l-5.732,2.075l1.228-10.56c-2.49-0.213-3.357-2.051-2.587-5.524c-3.907-2.489-3.907-4.979,0-7.467
        c-1.003-4.523,0.757-6.283,5.279-5.281c2.489-3.906,4.979-3.906,7.467,0c4.523-1.002,6.283,0.758,5.281,5.281
        C55.781,36.195,55.781,38.685,51.875,41.174z"/>
</svg>
