<svg xmlns="http://www.w3.org/2000/svg" width="64" height="64" viewBox="0 0 64 64">
    <path d="M36.813,37.984C29.235,34.51,23.97,26.868,23.97,17.992
        c0-1.181,0.096-2.339,0.275-3.47c-2.479-0.894-6-0.59-8.077,0.794c-5.852,4.058-10.805,9.018-14.863,14.876
        c-1.604,2.41-1.765,6.763-0.284,9.18c3.285,5.126,7.487,9.333,12.607,12.618c2.415,1.48,6.763,1.32,9.169-0.283
        c1.415-0.982,2.775-2.02,4.085-3.106L42.667,64h4.082L50,60.75V56L34.714,40.714C35.438,39.829,36.134,38.915,36.813,37.984z
         M15.189,29.177c-3.833,3.838-6.941,6.95-6.941,6.95s-4.916-0.789,4.09-9.807c9.007-9.018,9.793-4.093,9.793-4.093
        S19.023,25.339,15.189,29.177z M50,16h-2.917l-2.395-4.146c-0.553-0.957-1.775-1.284-2.732-0.732
        c-0.956,0.553-1.284,1.775-0.731,2.732l3,5.196c0.441,0.765,1.312,1.118,2.132,0.95H50c1.104,0,2-0.896,2-2S51.104,16,50,16z
         M45.987,0c-9.948,0-18.013,8.056-18.013,17.994s8.064,17.994,18.013,17.994S64,27.931,64,17.994S55.936,0,45.987,0z
         M45.988,29.983c-6.626,0-11.996-5.368-11.996-11.989c0-6.622,5.37-11.99,11.996-11.99c6.625,0,11.996,5.368,11.996,11.99
        C57.984,24.616,52.613,29.983,45.988,29.983z"/>
</svg>
