<svg xmlns="http://www.w3.org/2000/svg" width="64" height="64" viewBox="0 0 64 64">
    <path d="M55.353,49.05c-0.108-0.103-0.232-0.176-0.347-0.268l-1.752-1.901l2.073-2.108
        c1.713-1.742,1.713-4.565,0-6.307l-1.551-1.577c-1.713-1.741-4.488-1.741-6.201,0l-1.822,1.854l-4.198-4.555
        c1.676-2.796,2.656-6.058,2.656-9.557C44.211,14.341,35.881,6,25.606,6C15.33,6,7,14.341,7,24.631
        c0,10.29,8.33,18.631,18.606,18.631c2.586,0,5.048-0.53,7.286-1.485l15.363,14.973l0.023-0.024
        c0.003,0.002,0.005,0.006,0.008,0.009c2.092,1.979,5.371,1.863,7.322-0.258C57.56,54.354,57.446,51.028,55.353,49.05z
         M21.76,24.134c-2.816,0-5.1-2.283-5.1-5.1s2.283-5.101,5.1-5.101s5.1,2.284,5.1,5.101S24.577,24.134,21.76,24.134z"/>
</svg>
