<svg xmlns="http://www.w3.org/2000/svg" width="64" height="64" viewBox="0 0 64 64">
    <path d="M59.05,31.254l-7.052,7.814c-1.103,1.223-2.892,1.223-3.994,0l-6.229-6.903
        c-0.003-0.004-0.005-0.007-0.008-0.011c-1.942-2.023-2.438-4.153,0.021-4.153c0.004,0,0.006-0.001,0.01-0.001h3.679
        C43.697,21.103,37.453,16,30,16c-8.836,0-16,7.164-16,16c0,8.837,7.164,16,16,16c3.318,0,6.387-1.028,8.939-2.76l5.393,5.976
        C40.334,54.212,35.382,56,30,56C16.745,56,6,45.255,6,32S16.745,8,30,8c11.889,0,21.732,8.653,23.641,20h4.625
        c0.004,0,0.006,0.001,0.01,0.001C60.369,28.001,60.309,29.547,59.05,31.254z"/>
</svg>
