<svg xmlns="http://www.w3.org/2000/svg" width="64" height="64" viewBox="0 0 64 64">
    <path d="M59.972,49.356c0.001,0.012,0.007,0.021,0.007,0.033
        c0,0.289-0.228,0.523-0.508,0.523c-0.197,0-0.361-0.117-0.446-0.285c-0.007,0.004-0.017,0.006-0.022,0.012
        c-1.924-3.492-7.744-9.641-24.9-9.641c-1.562,0-2.911,0-4.102,0v6.029c0,1.402-0.764,2.701-2.009,3.416s-2.789,0.742-4.059,0.068
        C22.396,48.7,17.02,45.749,12.34,41.94c-4.407-3.584-8.062-7.785-9.43-9.424C2.304,31.788,2,30.905,2,30.021
        c0-0.881,0.302-1.763,0.907-2.49c1.697-2.041,5.177-5.98,9.412-9.426c4.631-3.768,10.056-6.752,11.608-7.577
        c1.271-0.675,2.814-0.651,4.062,0.063C29.235,11.306,30,12.606,30,14.009v6.023l3.903,0.01c23.788,0,26.032,21.685,26.086,29.316
        C59.983,49.358,59.978,49.358,59.972,49.356z"/>
</svg>
