<svg xmlns="http://www.w3.org/2000/svg" width="64" height="64" viewBox="0 0 64 64">
    <path d="M49.023,32.883c-0.059-0.568-0.104-1.088-0.176-1.551l0.133-0.098
        c0,0,6.471-7.749,3.012-16.384C47.445,3.495,41,5.191,41,5.191l0.033,27.816l-1.998,18.24c-0.428,4.158,2.137,7.873,5.773,7.873
        h0.4c3.637,0,6.201-3.715,5.773-7.873L49.023,32.883z M28.789,6.767c0,0-0.01,0.005-0.014,0.006
        c-0.109-1.224-1.527-1.568-3.619-1.657l1.062,10.946c0,0.958-0.551,2.179-1.559,2.179c-1.007,0-1.824-0.816-1.824-1.824
        L22.276,5.093C21.86,5.095,21.436,5.098,21,5.098c-0.428,0-0.844-0.003-1.253-0.005l-0.56,11.325c0,1.008-0.816,1.824-1.824,1.824
        c-1.008,0-1.558-1.221-1.558-2.179l1.062-10.948c-2.197,0.088-3.662,0.452-3.662,1.809c0,0.006,0.002,0.014,0.002,0.021
        l-2.145,14.723c-0.559,4.697,2.693,7.359,5.868,8.593l-1.888,20.984c-0.429,4.16,2.138,7.877,5.776,7.877h0.401
        c3.638,0,6.204-3.717,5.776-7.877l-1.84-21.018c3.146-1.25,6.357-3.903,5.803-8.56L28.789,6.767z"/>
</svg>
