<svg xmlns="http://www.w3.org/2000/svg" width="64" height="64" viewBox="0 0 64 64">
    <path d="M35,41c-0.066,0-0.133-0.009-0.199-0.01V41H27v4h10.654C40.124,45,41,47.239,41,50
        c0,2.762-0.876,5-3.346,5H27v4.407C27,61.876,24.762,63,22,63c-2.761,0-5-1.124-5-3.593V57l0,0v-2h-2.904C11.627,55,11,52.762,11,50
        c0-2.761,0.627-5,3.096-5H17v-4h-2.803C11.672,41,11,38.762,11,36s0.672-5,3.197-5H17V9h0V5h0c0-2.209,1.791-4,4-4H35.6v0.03
        C46.365,1.351,55,10.157,55,21C55,32.046,46.046,41,35,41z M35,11.01V11h-8v20h7.817c0,0,0.001,0,0.002,0s0.002,0,0.003,0H35v-0.009
        c5.539-0.097,10-4.528,10-9.991C45,15.538,40.539,11.105,35,11.01z"/>
</svg>
