<svg xmlns="http://www.w3.org/2000/svg" width="64" height="64" viewBox="0 0 64 64">
    <path d="M47.953,26.008C47.953,13.854,38.113,4,25.977,4C13.839,4,4,13.854,4,26.008
        c0,12.153,9.839,22.007,21.977,22.007C38.113,48.015,47.953,38.161,47.953,26.008z M25.978,40.018
        c-7.73,0-13.998-6.267-13.998-13.998s6.268-13.998,13.998-13.998c7.731,0,13.999,6.267,13.999,13.998S33.709,40.018,25.978,40.018
        z M58.985,53.786l-10.871-10.87c-0.87-0.871-2.281-0.871-3.151,0l-3.152,3.151c-0.871,0.871-0.871,2.282,0,3.152l10.87,10.87
        c0.87,0.871,2.282,0.871,3.152,0l3.152-3.151C59.855,56.067,59.855,54.656,58.985,53.786z"/>
</svg>
