<svg xmlns="http://www.w3.org/2000/svg" width="64" height="64" viewBox="0 0 64 64">
    <path d="M58.25,45.667c2.071,0,3.75-1.642,3.75-3.667c0-0.839-0.299-1.602-0.783-2.219
        c-0.064-0.104-0.146-0.202-0.249-0.295c-0.05-0.052-0.101-0.101-0.153-0.149c-1.84-1.656-3.426-4.263-4.122-6.097
        c-0.009-0.023-0.018-0.048-0.026-0.071c-0.094-0.253-0.173-0.493-0.23-0.71c-0.033-0.125-0.088-0.227-0.156-0.312
        c-3.487-8.283-11.226-14.393-20.541-15.7c0.003-0.038,0.012-0.074,0.012-0.113v-1.362h3.75c2.302,0,1.875-2.208,1.875-2.208
        h-0.008c0.001-0.014,0.008-0.025,0.008-0.04C41.375,11.206,37.178,9,32,9s-9.375,2.206-9.375,3.724
        c0,0.014,0.007,0.025,0.007,0.04h-0.007c0,0-0.294,2.208,1.875,2.208h3.75v1.362c0,0.039,0.009,0.075,0.012,0.113
        c-9.315,1.308-17.053,7.417-20.541,15.699c-0.068,0.087-0.123,0.188-0.156,0.313c-0.023,0.088-0.064,0.193-0.093,0.287
        c-0.104,0.266-0.199,0.535-0.294,0.805c-0.746,1.806-2.242,4.208-3.977,5.774c-0.07,0.064-0.136,0.131-0.201,0.2
        c-0.087,0.084-0.164,0.17-0.22,0.261C2.297,40.402,2,41.164,2,42c0,2.025,1.679,3.667,3.75,3.667c-2.071,0-3.75,1.642-3.75,3.667
        C2,51.358,3.679,53,5.75,53h52.5c2.071,0,3.75-1.642,3.75-3.666C62,47.309,60.321,45.667,58.25,45.667z M51.022,34.068
        c2.12,3.2,3.455,6.954,1.529,6.954c-5.151,0-5.134-2.161-5.631-3.511c-3.429-9.3-8.354-14.092-11.431-15.904
        C43.238,22.321,47.559,28.839,51.022,34.068z M12.606,36.502c3.113-7.355,8.618-14.564,16.146-14.857
        c-1.205,1.579-4.674,7.87-4.674,14.117c0,2.381-1.258,5.261-4.296,5.261c-3.039,0-11.06-0.042-11.06-0.042
        C8.809,40.669,11.09,40.084,12.606,36.502z"/>
</svg>
