<svg xmlns="http://www.w3.org/2000/svg" width="64" height="64" viewBox="0 0 64 64">
    <path d="M54.928,33.683c0.041-0.557,0.069-1.117,0.069-1.684
        c0-0.631-0.032-1.255-0.083-1.873l5.885-6.424c-1.375-4.672-3.876-8.865-7.195-12.276l-8.652,1.795
        c-0.983-0.665-2.017-1.263-3.102-1.772l-2.675-8.261C36.881,2.631,34.486,2.33,32.02,2.33c-2.471,0-4.869,0.302-7.166,0.86
        l-2.748,8.295c-1.104,0.523-2.153,1.14-3.15,1.824l-8.565-1.837c-3.303,3.409-5.79,7.594-7.157,12.254l5.88,6.504
        c-0.045,0.583-0.071,1.172-0.071,1.767c0,0.648,0.035,1.289,0.088,1.923l-5.887,6.426c1.37,4.651,3.856,8.828,7.156,12.23
        l8.691-1.803c1.008,0.681,2.066,1.292,3.18,1.81l2.685,8.29c2.267,0.542,4.632,0.837,7.066,0.837c2.487,0,4.902-0.306,7.214-0.871
        l2.774-8.375c1.088-0.521,2.131-1.119,3.115-1.797l8.584,1.84c3.297-3.422,5.773-7.619,7.127-12.292L54.928,33.683z
         M32.019,42.007c-5.529,0-10.011-4.479-10.011-10.007c0-5.526,4.481-10.007,10.011-10.007S42.029,26.474,42.029,32
        C42.029,37.527,37.548,42.007,32.019,42.007z"/>
</svg>
