<svg xmlns="http://www.w3.org/2000/svg" width="64" height="64" viewBox="0 0 64 64">
    <path d="M46,28c-3.516,0-6.668-1.521-8.862-3.93l-6.147,2.705
        c-0.58-2.71-1.883-5.146-3.688-7.117l6.733-2.963C34.021,16.464,34,16.234,34,16c0-6.627,5.373-12,12-12s12,5.373,12,12
        C58,22.628,52.627,28,46,28z M16,42C9.373,42,4,36.628,4,30c0-6.627,5.373-12,12-12s12,5.373,12,12C28,36.628,22.627,42,16,42z
         M30.406,35.221l5.851,3.62C38.348,37.071,41.047,36,44,36c6.627,0,12,5.373,12,12c0,6.628-5.373,12-12,12s-12-5.372-12-12
        c0-0.77,0.08-1.521,0.219-2.251l-6.408-3.965C27.878,40.062,29.471,37.799,30.406,35.221z"/>
</svg>
