<svg xmlns="http://www.w3.org/2000/svg" width="64" height="64" viewBox="0 0 64 64">
    <path d="M55.976,34.365c0.008,0.34,0.018,0.678,0.018,1.021
        c0,8.746-2.438,16.336-5.667,18.023c-3.514,2.318-12.173,3.63-22.322,3.63c-0.871,0-1.727-0.017-2.574-0.04l-7.786,4.999
        c-3.609,2.047-5.621,0.683-5.621-1.659c0-0.018-0.005-0.033-0.006-0.05l-0.011-4.518c-2.718-0.635-4.886-1.428-6.271-2.324
        C2.475,51.857,0,44.215,0,35.387c0-8.85,2.486-16.506,5.758-18.071c3.562-2.291,12.173-3.908,22.246-3.908
        c0.35,0,0.692,0.007,1.038,0.01c2.46-7.012,9.112-12.048,16.956-12.048c9.933,0,17.986,8.064,17.986,18.013
        C63.984,25.632,60.803,31.135,55.976,34.365z M14.111,41h21.714c1.184,0,2.143-0.886,2.143-1.979s-0.959-1.979-2.143-1.979H14.111
        c-1.184,0-2.144,0.886-2.144,1.979S12.928,41,14.111,41z M29.896,27H14.111c-1.184,0-2.144,0.899-2.144,2.009
        s0.96,2.009,2.144,2.009h18.506C31.538,29.812,30.621,28.465,29.896,27z M45.968,7.372c-6.632,0-12.009,5.378-12.009,12.012
        c0,6.635,5.377,12.013,12.009,12.013s12.009-5.378,12.009-12.013C57.977,12.75,52.6,7.372,45.968,7.372z M51.985,25.397
        c0,0.885-0.769,1.603-1.717,1.603h-8.586c-0.948,0-1.717-0.718-1.717-1.603c0-0.556,0.321-1.021,0.782-1.31l2.826-1.988
        c-0.014-0.006-0.026-0.014-0.04-0.02l3.63-3.044c0.046-0.024,0.097-0.038,0.142-0.064l0.68-0.569
        c0.333-0.405,0.565-0.889,0.565-1.439c0-1.328-1.152-2.403-2.575-2.403s-2.576,1.075-2.576,2.403c0,0.291,0.077,0.562,0.178,0.82
        l-3.546-0.007c-0.042-0.266-0.065-0.537-0.065-0.813c0-3.098,2.69-5.608,6.01-5.608s6.01,2.511,6.01,5.608
        c0,1.26-0.461,2.41-1.212,3.346l0.07,0.087l-0.58,0.49c-0.059,0.056-0.124,0.103-0.185,0.156l-3.711,2.752h3.9
        C51.217,23.794,51.985,24.512,51.985,25.397z"/>
</svg>
