<svg xmlns="http://www.w3.org/2000/svg" width="64" height="64" viewBox="0 0 64 64">
    <path d="M51,2H13c-2.209,0-4,1.791-4,4v52c0,0.883,0.294,1.692,0.78,2.353
        c0.392,0.539,0.889,0.814,1.465,0.827c0.779,0.017,1.705-0.414,2.753-1.068c0.024-0.016,0.05-0.022,0.075-0.036l17.931-10.414
        l17.928,10.413c0.026,0.014,0.053,0.021,0.078,0.037c1.047,0.654,1.973,1.085,2.752,1.068c0.536-0.012,1-0.259,1.379-0.726
        C54.674,59.776,55,58.93,55,58V6C55,3.791,53.209,2,51,2z M44.635,24.533l-4.961,5.005l0.992,6.729
        c0.045,0.54-0.203,1.065-0.656,1.388c-0.285,0.204-0.627,0.309-0.971,0.309c-0.203,0-0.408-0.037-0.602-0.111l-6.426-2.954
        l-6.424,2.954c-0.194,0.074-0.398,0.111-0.601,0.111c-0.345,0-0.686-0.104-0.971-0.309c-0.453-0.322-0.702-0.848-0.656-1.39
        l0.993-6.727l-4.96-5.006c-0.366-0.421-0.477-0.994-0.293-1.514c0.184-0.52,0.634-0.909,1.19-1.029l6.989-1.121l3.334-6.105
        c0.295-0.473,0.826-0.762,1.399-0.762c0.572,0,1.104,0.288,1.398,0.761l3.338,6.106l6.988,1.121
        c0.557,0.12,1.008,0.51,1.191,1.029S45,24.111,44.635,24.533z"/>
</svg>
