<svg xmlns="http://www.w3.org/2000/svg" width="64" height="64" viewBox="0 0 64 64">
    <path d="M21.995,39.026h4.018l0.629-10.003h-5.277L21.995,39.026z M29.995,39.026h4.018
        l0.629-10.003h-5.276L29.995,39.026z M58,11H6c-3.313,0-6,2.687-6,6v30c0,3.313,2.687,6,6,6h52c3.314,0,6-2.687,6-6V17
        C64,13.687,61.314,11,58,11z M50,27.997c0,0.567-0.504,1.026-1.125,1.026h-3.509l0.63,10.003H47c0.553,0,1,0.446,1,0.996v1.991
        c0,0.55-0.447,0.995-1,0.995h-9.001C37.994,44.109,37.102,45,36,45h-8c-1.102,0-1.994-0.891-1.999-1.991H17
        c-0.552,0-1-0.445-1-0.995v-1.991c0-0.55,0.448-0.996,1-0.996h1.013l0.63-10.003h-3.518c-0.621,0-1.125-0.459-1.125-1.026
        C14,27.431,14,27,14,27s0.051-0.01,0.132-0.026l17.511-7.879c0.231-0.135,0.606-0.135,0.837,0l17.507,7.863l-0.21,0
        C49.908,26.983,50,27,50,27S50,27.431,50,27.997z M37.996,39.026h4.017l0.629-10.003h-5.275L37.996,39.026z"/>
</svg>
