<svg xmlns="http://www.w3.org/2000/svg" width="64" height="64" viewBox="0 0 64 64">
    <path d="M54.008,2h-2.231c-0.364,0-0.714,0.143-0.976,0.396l-2.344,2.277l-2.344-2.277
        C45.853,2.143,45.502,2,45.138,2h-1.59c-0.364,0-0.714,0.143-0.976,0.396l-2.344,2.277l-2.344-2.277
        C37.624,2.143,37.273,2,36.909,2h-1.59c-0.364,0-0.714,0.143-0.976,0.396L32,4.674l-2.343-2.277C29.396,2.143,29.045,2,28.681,2
        h-1.59c-0.364,0-0.715,0.143-0.976,0.396l-2.344,2.277l-2.343-2.277C21.167,2.143,20.816,2,20.452,2h-1.59
        c-0.364,0-0.714,0.143-0.976,0.396l-2.343,2.277L13.2,2.396C12.938,2.143,12.588,2,12.224,2H9.992C8.894,2,8,2.897,8,4v56
        c0,1.103,0.897,2,2,2h2.224c0.364,0,0.715-0.143,0.976-0.396l2.343-2.278l2.343,2.278C18.147,61.857,18.498,62,18.862,62h1.59
        c0.364,0,0.715-0.143,0.976-0.396l2.343-2.277l2.344,2.277C26.376,61.857,26.727,62,27.091,62h1.59
        c0.365,0,0.715-0.143,0.976-0.396L32,59.325l2.344,2.278C34.604,61.857,34.955,62,35.319,62h1.59c0.364,0,0.715-0.143,0.976-0.396
        l2.344-2.278l2.344,2.278C42.834,61.857,43.184,62,43.549,62h1.589c0.364,0,0.715-0.143,0.976-0.396l2.344-2.278l2.344,2.278
        C51.062,61.857,51.412,62,51.776,62H54c1.103,0,2-0.897,2-2V4C56,2.897,55.106,2,54.008,2z M34,50H18c-1.104,0-2-0.896-2-2
        s0.896-2,2-2h16c1.104,0,2,0.896,2,2S35.104,50,34,50z M16,38c0-1.104,0.896-2,2-2h10c1.104,0,2,0.896,2,2s-0.896,2-2,2H18
        C16.896,40,16,39.104,16,38z M34,30H18c-1.104,0-2-0.896-2-2s0.896-2,2-2h16c1.104,0,2,0.896,2,2S35.104,30,34,30z M38,18H26
        c-1.104,0-2-0.896-2-2s0.896-2,2-2h12c1.104,0,2,0.896,2,2S39.104,18,38,18z M46,50h-2c-1.104,0-2-0.896-2-2s0.896-2,2-2h2
        c1.104,0,2,0.896,2,2S47.104,50,46,50z M46,40h-2c-1.104,0-2-0.896-2-2s0.896-2,2-2h2c1.104,0,2,0.896,2,2S47.104,40,46,40z
         M46,30h-2c-1.104,0-2-0.896-2-2s0.896-2,2-2h2c1.104,0,2,0.896,2,2S47.104,30,46,30z"/>
</svg>
