<svg xmlns="http://www.w3.org/2000/svg" width="64" height="64" viewBox="0 0 64 64">
    <path d="M58.43,30.079C51.482,20.407,37.021,10.462,29.514,5.54
        c-0.436-0.347-1.1-0.538-1.708-0.54c-0.355,0-0.877,0.067-1.218,0.215c-0.937,0.39-1.816,1.372-1.807,2.42
        c1.18,5.021,3.5,9.965,5.566,15.364H10.4C7.418,23,5,25.424,5,28.414v7.219c0,2.99,2.418,5.412,5.4,5.412h20.288
        c-2.14,5.401-4.661,10.295-5.907,15.318c-0.01,1.049,0.87,2.031,1.807,2.42C26.929,58.934,27.609,59,27.965,59
        c0.608,0,1.188-0.191,1.624-0.537c7.5-4.914,21.952-14.883,28.86-24.543c0.374-0.51,0.556-1.2,0.557-1.92
        C59.005,31.281,58.805,30.588,58.43,30.079z"/>
</svg>
