<svg xmlns="http://www.w3.org/2000/svg" width="64" height="64" viewBox="0 0 64 64">
    <path d="M58,64H6c-3.313,0-6-2.686-6-6V28c0-3.313,2.687-6,6-6h6v6H6v4h7.261
        c0.961,1.234,2.282,2.903,3.276,4.044c2.022,2.323,4.128,4.304,6.097,5.956H6v16h52V42H41.366c1.97-1.652,4.074-3.633,6.097-5.956
        c0.994-1.141,2.315-2.81,3.275-4.044H58v-4h-6v-6h6c3.314,0,6,2.687,6,6v30C64,61.314,61.314,64,58,64z M41.527,35.367
        c-2.758,2.722-5.91,4.959-7.544,6.05C33.401,41.806,32.695,42,31.99,42c-0.707,0-1.415-0.195-1.998-0.585
        c-1.312-0.879-4.674-3.229-7.543-6.062c-3.048-3.009-5.41-6.465-6.061-7.452c-0.539-0.817-0.518-1.809,0.055-2.609
        S18.055,24,19.177,24h2.806v-3.979h-5.942c-1.127,0-2.041-0.938-2.041-2.095V2.095C14,0.938,14.914,0,16.041,0h7.44
        c1.009,0.009,1.353,0.256,1.933,0.894c0.008,0.009,0.021,0.016,0.03,0.023l15.994,15.999c0.365,0.387,0.559,0.703,0.559,1.532
        c0,0.007,0.004,0.013,0.004,0.02V24h2.807c1.123,0,2.163,0.492,2.734,1.294c0.572,0.802,0.592,1.794,0.052,2.61
        C46.933,28.902,44.544,32.39,41.527,35.367z M32.38,13.507c-0.726,0.284-1.523,0.432-2.371,0.432c-3.182,0-5.762-2.603-5.762-5.813
        c0-0.812,0.128-1.576,0.382-2.275L22.756,4H18v12h16.904L32.38,13.507z M20.957,7.505c0.855,0,1.549,0.691,1.549,1.545
        s-0.694,1.546-1.549,1.546c-0.856,0-1.55-0.692-1.55-1.546S20.101,7.505,20.957,7.505z"/>
</svg>
