<svg xmlns="http://www.w3.org/2000/svg" width="64" height="64" viewBox="0 0 64 64">
    <path d="M58,11H6c-3.313,0-6,2.687-6,6v30c0,3.313,2.687,6,6,6h11.947c3.92-2.64,6.725-7.394,6.725-15.213
        c0-1.961,0.145-3.546,2.034-4.067c0.698-0.197,1.09-0.295,2.037-0.508c0.894-0.291,1.133-0.582,0.795-1.356
        c-0.567-1.307-4.754-7.975-4.754-9.926v-5.418c0-0.558,0.441-1.513,1.683-1.513c1.242,0,1.704,0.955,1.704,1.513v5.313
        c0,1.033,4.707,9.301,5.479,10.737c0.7,1.305,0.563,1.961-1.419,2.59c-0.513,0.163-1.264,0.382-2.116,0.606
        c-1.512,0.399-2.045,0.742-2.045,2.028c0,6.758-1.767,11.758-4.786,15.213H58c3.313,0,6-2.687,6-6V17C64,13.687,61.313,11,58,11z
         M12.985,17.015c1.65,0,2.99,1.343,2.99,2.992c0,1.659-1.34,2.997-2.99,2.997c-1.647,0-2.988-1.338-2.988-2.997
        C9.998,18.357,11.338,17.015,12.985,17.015z M16.24,45.01c-3.655,0-8.117-0.656-10.157-5.78c-0.344-0.862,0.099-1.832,0.989-2.166
        c0.891-0.333,1.894,0.097,2.238,0.96c1.071,2.684,2.883,3.635,6.93,3.635c0.956,0,1.73,0.751,1.73,1.676S17.196,45.01,16.24,45.01
        z"/>
</svg>
