<svg xmlns="http://www.w3.org/2000/svg" width="64" height="64" viewBox="0 0 64 64">
    <path d="M54.947,56.283c-0.065-0.095-0.125-0.187-0.193-0.283
        c-0.013-0.018-0.018-0.033-0.029-0.051l-3.971-5.964c3.488-0.149,6.149-3.014,5.992-6.499L54.611,7.522
        C54.474,4.458,51.684,2,48.377,2h-33.58c-3.306,0-5.763,2.458-5.901,5.522L6.762,43.486c-0.157,3.489,2.51,6.356,6.006,6.5
        l-4.849,7.282C6.133,60.206,6.249,62,9.629,62h2.481l1.345-2h36.607l1.346,2h2.471c3.533,0,3.496-1.963,1.451-5.142L54.947,56.283
        z M15.736,41c0-2.219,1.799-4.018,4.018-4.018s4.018,1.799,4.018,4.018s-1.799,4.018-4.018,4.018S15.736,43.219,15.736,41z
         M17.492,54l2.691-4h23.153l2.69,4H17.492z M43.754,45.018c-2.219,0-4.018-1.799-4.018-4.018s1.799-4.018,4.018-4.018
        s4.018,1.799,4.018,4.018S45.973,45.018,43.754,45.018z M13.754,30l1.193-18h33.615l1.192,18H13.754z"/>
</svg>
