<svg xmlns="http://www.w3.org/2000/svg" width="64" height="64" viewBox="0 0 64 64">
    <path d="M63.22,41.795c-1.172,1.807-4.305,6.437-8.082,10.388
        c-4.012,4.197-8.62,7.449-9.937,8.346c-1.089,0.741-2.411,0.713-3.479-0.075C40.654,59.664,40,58.233,40,56.688V53H29.92
        c-1.995-0.055-2.244-0.547-3.184-1.479c-0.041-0.04-0.075-0.066-0.111-0.096L1.363,26.146c-0.009-0.008-0.013-0.016-0.022-0.024
        c-0.026-0.023-0.044-0.044-0.069-0.067l-0.4-0.399c-0.804-0.889-0.868-1.594-0.868-2.671C0.003,22.979,0,22.977,0,22.971V6.429
        C0,4.535,1.508,3,3.367,3h25.256c1.859,0,3.367,1.535,3.367,3.429V25H40v-3.603c0-1.547,0.656-2.979,1.725-3.767
        c1.069-0.787,2.393-0.814,3.481-0.07c1.331,0.909,5.979,4.198,9.95,8.352c3.629,3.798,6.611,8.139,8.066,10.389
        C63.74,37.102,64,38.073,64,39.045C64,40.02,63.74,40.993,63.22,41.795z M11.844,29.312c0.442-0.172,0.904-0.29,1.393-0.29
        c2.635,0,4.772,1.755,4.772,5.951c0,0.217-0.012,0.386-0.03,0.53l2.213,2.234C20.349,36.889,20.4,35.976,20.4,35
        c0-4.555-3.077-8-6.4-8c-1.243,0-2.69,0.104-3.932,0.521L11.844,29.312z M25.991,13c-2.208,0-3.998-1.788-4-3.995L9.992,9.001
        c-0.001,2.2-1.778,3.982-3.975,3.996v10.435l1.514,1.528c1.662-1.083,3.632-1.56,5.758-1.56c5.919,0,10.717,4.935,10.717,11.515
        c0,1.935-0.35,3.903-1.034,5.63L26,43.6l0.018-30.603C26.009,12.997,26,13,25.991,13z M16.026,17.605
        c-1.439,0-2.606-1.167-2.606-2.605s1.167-2.605,2.606-2.605s2.606,1.167,2.606,2.605S17.466,17.605,16.026,17.605z"/>
</svg>
