<svg xmlns="http://www.w3.org/2000/svg" width="64" height="64" viewBox="0 0 64 64">
    <path d="M58,59H6c-3.313,0-6-2.686-6-6V23c0-3.313,2.687-6,6-6h6.125v6H6v4h7.378
        c0.955,1.234,2.268,2.903,3.255,4.044c2.01,2.323,4.102,4.304,6.059,5.956H6v16h52V37H41.309c1.956-1.652,4.049-3.633,6.059-5.956
        c0.987-1.141,2.301-2.81,3.255-4.044H58v-4h-6.124v-6H58c3.314,0,6,2.687,6,6v30C64,56.314,61.314,59,58,59z M41.531,30.367
        c-2.756,2.722-5.907,4.959-7.541,6.05C33.409,36.806,32.703,37,31.998,37c-0.707,0-1.413-0.195-1.996-0.585
        c-1.312-0.879-4.671-3.229-7.54-6.062c-3.047-3.009-5.407-6.465-6.058-7.452c-0.539-0.816-0.518-1.809,0.054-2.609
        C17.032,19.491,18.071,19,19.192,19h2.795L22,9c0-2.209,1.791-4,4-4h12c2.209,0,4,1.791,4,4v10h2.809
        c1.122,0,2.162,0.492,2.733,1.293c0.571,0.803,0.591,1.795,0.052,2.611C46.934,23.902,44.545,27.39,41.531,30.367z"/>
</svg>
