<svg xmlns="http://www.w3.org/2000/svg" width="64" height="64" viewBox="0 0 64 64">
    <path d="M28.73,56.821l-0.873-0.873l-1.463,1.666c-0.239,0.273-0.561,0.426-0.895,0.426
        h-1.457c-0.334,0-0.655-0.152-0.895-0.426L21,55.168l-2.148,2.446c-0.239,0.273-0.561,0.426-0.895,0.426H16.5
        c-0.334,0-0.655-0.152-0.895-0.426l-2.148-2.446l-2.148,2.446c-0.239,0.273-0.561,0.426-0.895,0.426H8.957
        c-0.334,0-0.655-0.152-0.895-0.426l-2.148-2.446l-2.147,2.446c-0.239,0.273-0.561,0.426-0.896,0.426H0.833
        C-0.178,58.04-1,57.076-1,55.892V2.188C-1,1.004-0.181,0.04,0.826,0.04h2.046c0.334,0,0.655,0.153,0.895,0.426l2.147,2.446
        l2.148-2.446C8.302,0.193,8.623,0.04,8.957,0.04h1.457c0.334,0,0.655,0.153,0.895,0.426l2.148,2.446l2.148-2.446
        C15.845,0.193,16.166,0.04,16.5,0.04h1.457c0.334,0,0.655,0.153,0.895,0.426L21,2.912l2.148-2.446
        c0.239-0.272,0.561-0.426,0.895-0.426H25.5c0.334,0,0.655,0.153,0.895,0.426l2.148,2.446l2.148-2.446
        c0.239-0.272,0.561-0.426,0.895-0.426h1.457c0.334,0,0.655,0.153,0.895,0.426l2.148,2.446l2.147-2.446
        c0.24-0.272,0.562-0.426,0.896-0.426h2.045C42.181,0.04,43,1.004,43,2.188v22.156l1.364-1.363c1.302-1.301,3.412-1.301,4.714,0
        l6.745,6.742L28.73,56.821z M36.994,7.337c-0.57,0.281-1.174,0.421-1.777,0.421c-1.213,0-2.426-0.564-3.351-1.693l-0.204-0.248
        l-0.203,0.248c-0.926,1.129-2.139,1.693-3.351,1.693s-2.425-0.564-3.351-1.693l-0.203-0.248l-0.204,0.248
        C23.425,7.193,22.213,7.758,21,7.758c-1.212,0-2.425-0.564-3.351-1.693l-0.203-0.248l-0.204,0.248
        c-0.926,1.129-2.138,1.693-3.351,1.693c-1.212,0-2.425-0.564-3.351-1.693l-0.203-0.248l-0.204,0.248
        C9.208,7.193,7.996,7.758,6.783,7.758c-0.604,0-1.207-0.14-1.776-0.421v43.291c0.567-0.281,1.173-0.421,1.776-0.421
        c1.213,0,2.426,0.564,3.351,1.693l0.204,0.248l0.203-0.248c0.925-1.129,2.139-1.693,3.351-1.693c1.213,0,2.427,0.564,3.351,1.693
        l0.204,0.248l0.203-0.248c0.925-1.129,2.139-1.693,3.351-1.693c0.473,0,0.941,0.112,1.397,0.284l-0.422-0.422
        c-1.302-1.301-1.302-3.41,0-4.711l15.019-15.01V7.337z M9,30.04c0-1.104,0.896-2,2-2h14c1.104,0,2,0.896,2,2c0,1.105-0.896,2-2,2H11
        C9.896,32.04,9,31.146,9,30.04z M13,14.04c0-1.104,0.896-2,2-2h12c1.104,0,2,0.896,2,2s-0.896,2-2,2H15
        C13.896,16.04,13,15.145,13,14.04z M29,20.04h2c1.104,0,2,0.896,2,2.001c0,1.104-0.896,1.999-2,1.999h-2c-1.104,0-2-0.895-2-1.999
        C27,20.936,27.896,20.04,29,20.04z M23,22.041c0,1.104-0.896,1.999-2,1.999H11c-1.104,0-2-0.895-2-1.999
        c0-1.105,0.896-2.001,2-2.001h10C22.104,20.04,23,20.936,23,22.041z M11,36.04h6c1.104,0,2,0.896,2,2s-0.896,2-2,2h-6
        c-1.104,0-2-0.896-2-2S9.896,36.04,11,36.04z M59.308,33.206l2.731,2.73c1.303,1.301,1.303,3.41,0,4.711L39.65,63.024
        c-1.301,1.301-3.411,1.301-4.713,0l-2.722-2.721L59.308,33.206z"/>
</svg>
