<svg xmlns="http://www.w3.org/2000/svg" width="64" height="64" viewBox="0 0 64 64">
    <path d="M31.998,1.997c-16.569,0-30.002,13.433-30.002,30.002S15.429,62,31.998,62
        S62,48.568,62,31.999S48.567,1.997,31.998,1.997z M11.474,19.937c1.438,0.199,2.913-0.171,4.14,2.307
        c0.621,1.281,1.876,2.683,2.658,3.445c0.404,0.39,0.721,0.642,0.95,0.754c0.115,0.057,0.209,0.079,0.28,0.067
        c0.072-0.012,0.121-0.06,0.138-0.148c0.356-0.56,0.49-3.848-0.873-5.531c-1.237-1.6-1.131-3.061-1.12-3.054
        c0.152,0.11,2.145-0.361,2.531-3.09c0.222-1.057,0.578-1.811,0.922-2.406c1.082,0.104,2.209,0.043,2.922-0.266
        c2.141-0.929,4.073-2.295,3.854-3.563c1.429-0.266,2.897-0.416,4.401-0.416c1.005,0,1.994,0.07,2.966,0.192
        c3.171,0.429,6.144,1.477,8.795,3.019c-0.316-0.027-0.64,0.033-0.981,0.269c-2.166,1.503-3.385-0.25-3.926,1.753
        c-0.542,2.004,0.338,4.195,0.338,4.195l-4.196,0.062c-2.844,1.315-1.354,5.573-1.354,5.573s4.603,1.565,7.31,0.062
        c2.709-1.503,4.401-4.194,4.401-4.194l5.009,5.697c1.828,0.938,2.572-2.693,2.572-2.693c-0.848-1.212-1.037-2.138-0.961-2.835
        c1.554,2.441,2.683,5.179,3.272,8.114l-0.687,0.23c0,0-1.788,2.416-7.738,0.765c-5.951-1.65-11.841-1.073-12.032,1.942
        c-0.187,2.938-3.839-0.648-2.798,5.725c0,0-0.305,8.552,5.596,8.586c3.181,0.018,2.111-1.658,2.797-2.862
        c3.305,1.394,4.582,6.366,5.078,10.039c-3.894,2.726-8.63,4.33-13.744,4.33c-4.285,0-8.305-1.128-11.788-3.096l-0.195-2.341
        c0,0,0.634-1.342,1.688-2.109c1.055-0.769,1.477-1.342,2.321-2.877c0.844-1.534,2.833-3.836,3.045-4.795
        c0.211-0.959,3.165-3.838,1.477-5.372s-4.643-1.726-6.119-2.109c-1.478-0.384-6.211-1.727-6.632-3.261
        c-0.423-1.535-4.01-0.958-5.276-0.383c-0.516,0.234-1.49,0.682-2.488,1.051c0.188-3.552,1.152-6.896,2.72-9.873
        C11.03,20.545,11.286,20.248,11.474,19.937z"/>
</svg>
