<svg xmlns="http://www.w3.org/2000/svg" width="64" height="64" viewBox="0 0 64 64">
    <path d="M54,43.996c-3.344,0-23.507,0-29.88,0c-2.827,0-4.12-3.244-4.12-3.244
        s-0.054-0.272-0.145-0.746c3.896,0,13.577,0,25.451,0c12.946,0,15.729-18.08,16.296-24.081c-0.006-1.208-0.602-1.916-2.36-1.916
        c-0.011,0-0.017-0.003-0.027-0.003H16c0-0.003,0-0.007,0-0.01c0-8.532-10-8-10-8v0.01c-2.209,0-4,1.791-4,4s1.791,4,4,4
        c0.062,0,0.121-0.016,0.183-0.019C6.662,13.99,7.925,14.17,8,15.997c0.092,2.233,2.143,14.916,4,24.601
        c1.111,5.792,3.957,8.644,6.599,10.048C17.057,51.497,16,53.119,16,55.006c0,2.762,2.238,5,5,5s5-2.238,5-5
        c0-1.136-0.393-2.17-1.03-3.01c2.227,0,8.32,0,18.061,0c-0.638,0.84-1.03,1.874-1.03,3.01c0,2.762,2.238,5,5,5s5-2.238,5-5
        c0-1.558-0.727-2.931-1.843-3.848C56.435,49.108,56.674,43.996,54,43.996z"/>
</svg>
