<svg xmlns="http://www.w3.org/2000/svg" width="64" height="64" viewBox="0 0 64 64">
    <path d="M58,7H6c-3.313,0-6,2.687-6,6v30c0,3.313,2.687,6,6,6h14.019v4H18
        c-1.104,0-2,0.896-2,2v2c0,1.104,0.896,2,2,2h28c1.104,0,2-0.896,2-2v-2c0-1.104-0.896-2-2-2h-2.019v-4H58c3.313,0,6-2.687,6-6V13
        C64,9.687,61.313,7,58,7z M18.625,39h-2c-1.104,0-1.855-0.896-1.676-2l1.942-12h-4c-1.104,0-1.855-0.896-1.676-2l0.324-2
        c0.179-1.104,1.219-2,2.323-2h14c1.104,0,1.855,0.896,1.677,2l-0.323,2c-0.18,1.104-1.22,2-2.324,2h-4l-1.942,12
        C20.77,38.104,19.729,39,18.625,39z M52.826,21l-8.278,16c-0.571,1.104-1.931,2-3.034,2h-3.777c-1.104,0-2.173-0.896-2.387-2
        l-3.101-16c-0.214-1.104,0.508-2,1.612-2h2c1.105,0,2.174,0.896,2.388,2l2.337,12.061L46.826,21c0.572-1.104,1.931-2,3.035-2h2
        C52.967,19,53.398,19.896,52.826,21z"/>
</svg>
