<svg xmlns="http://www.w3.org/2000/svg" width="64" height="64" viewBox="0 0 64 64">
    <path d="M56.55,13.541c1.668-0.207,3.279-0.59,4.838-1.103
        c0.082,0.007,0.174,0.002,0.295-0.038c1.285-0.441,1.49-0.001,1.205,0.698c-1.537,2.03-3.332,3.845-5.348,5.354
        c0.023,0.586,0.037,1.174,0.037,1.765c0,18.021-13.211,38.801-37.371,38.801c-5.514,0-10.743-1.253-15.452-3.482
        c-2.15-1.255-2.69-2.696,0.779-2.513c0.353,0.018,0.589-0.051,0.775-0.151c4.946-0.602,9.482-2.596,13.209-5.628
        c-5.748-0.109-10.599-4.053-12.27-9.471c0.802,0.159,1.625,0.245,2.471,0.245c1.198,0,2.358-0.167,3.46-0.479
        C7.171,36.287,2.644,30.775,2.644,24.168c0-0.058,0-0.114,0.001-0.171c1.771,1.021,3.796,1.635,5.949,1.705
        c-3.525-2.445-5.843-6.619-5.843-11.351c0-0.488,0.044-0.964,0.093-1.439c0.054-0.487,0.122-0.918,0.203-1.305
        c0.008-0.039,0.015-0.079,0.023-0.118c0.638-2.856,2.146-2.772,5.586,0.494c0.104,0.099,0.208,0.14,0.313,0.215
        c6.122,5.551,13.973,9.095,22.633,9.546c-0.225-0.998-0.341-2.039-0.341-3.107C31.261,11.105,37.144,5,44.397,5
        c3.777,0,7.191,1.655,9.586,4.306C56.286,8.835,58.479,8.048,60.526,7c1.26-0.27,0.746,1.399,0.004,2.632
        C59.47,11.199,58.136,12.554,56.55,13.541z"/>
</svg>
