<svg xmlns="http://www.w3.org/2000/svg" width="64" height="64" viewBox="0 0 64 64">
    <path d="M32,4.001C16.537,4.001,4,16.536,4,32c0,15.465,12.536,28,28,28c15.464,0,28-12.535,28-28
        C60,16.536,47.465,4.001,32,4.001z M32,54c-12.15,0-22-9.85-22-22c0-12.149,9.85-22,22-22c12.15,0,22,9.851,22,22
        C54,44.15,44.15,54,32,54z M47.404,35.658L34,31.168V16c0-1.097-0.843-2-2.003-2C30.836,14,30,14.903,30,16v14.896l-6.493,6.102
        c-0.655,0.617-0.848,2.387-0.194,3.004c0.653,0.617,1.811,0.812,2.466,0.195L34,33.169l13.004,4.332
        c1.121,0.283,1.516-0.054,1.627-0.439C48.743,36.672,48.523,35.942,47.404,35.658z"/>
</svg>
