<svg xmlns="http://www.w3.org/2000/svg" width="64" height="64" viewBox="0 0 64 64">
    <path d="M32,4C16.536,4,4,16.535,4,31.999c0,15.465,12.536,28,28,28
        c15.463,0,28-12.535,28-28C60,16.535,47.464,4,32,4z M43.67,32.711L27.64,47.688c-0.421,0.394-1.105,0.394-1.527,0l-3.816-3.566
        c-0.422-0.394-0.422-1.032,0-1.426l11.449-10.698L22.297,21.3c-0.422-0.394-0.422-1.032,0-1.427l3.816-3.565
        c0.422-0.394,1.105-0.394,1.527,0l16.03,14.977C44.091,31.678,44.091,32.316,43.67,32.711z"/>
</svg>
