<svg xmlns="http://www.w3.org/2000/svg" width="64" height="64" viewBox="0 0 64 64">
    <path d="M54.008,2h-2.231c-0.364,0-0.714,0.143-0.976,0.396l-2.344,2.277l-2.344-2.277
        C45.853,2.143,45.502,2,45.138,2h-1.59c-0.364,0-0.714,0.143-0.976,0.396l-2.344,2.277l-2.344-2.277
        C37.624,2.143,37.273,2,36.909,2h-1.59c-0.364,0-0.714,0.143-0.976,0.396L32,4.674l-2.344-2.277C29.396,2.143,29.045,2,28.681,2
        h-1.59c-0.364,0-0.715,0.143-0.976,0.396l-2.344,2.277l-2.344-2.277C21.167,2.143,20.816,2,20.452,2h-1.59
        c-0.364,0-0.715,0.143-0.976,0.396l-2.344,2.277l-2.344-2.277C12.938,2.143,12.588,2,12.224,2H9.992C8.894,2,8,2.897,8,4v56
        c0,1.103,0.897,2,2,2h2.224c0.364,0,0.715-0.143,0.976-0.396l2.344-2.278l2.344,2.278C18.147,61.857,18.498,62,18.862,62h1.59
        c0.364,0,0.715-0.143,0.976-0.396l2.344-2.278l2.344,2.278C26.376,61.857,26.727,62,27.091,62h1.59
        c0.364,0,0.715-0.143,0.976-0.396L32,59.326l2.344,2.278C34.604,61.857,34.955,62,35.319,62h1.59c0.364,0,0.715-0.143,0.977-0.396
        l2.343-2.279l2.344,2.279C42.834,61.857,43.184,62,43.548,62h1.59c0.364,0,0.715-0.143,0.977-0.396l2.343-2.279l2.344,2.279
        C51.062,61.857,51.412,62,51.776,62H54c1.103,0,2-0.897,2-2V4C56,2.897,55.106,2,54.008,2z M43.669,32.712L27.64,47.688
        c-0.421,0.394-1.104,0.394-1.526,0l-3.816-3.566c-0.422-0.394-0.422-1.032,0-1.426l11.449-10.698L22.297,21.301
        c-0.422-0.394-0.422-1.032,0-1.427l3.816-3.565c0.422-0.394,1.105-0.394,1.526,0l16.029,14.977
        C44.091,31.679,44.091,32.317,43.669,32.712z"/>
</svg>
