<svg xmlns="http://www.w3.org/2000/svg" width="64" height="64" viewBox="0 0 64 64">
    <path d="M50,57H14c-4.418,0-8-3.581-8-8v-7.8V39v-1.2C6,37.358,6.358,37,6.8,37h6.4
        c0.441,0,0.8,0.358,0.8,0.8V39v2.2V49h36v-7.8V39v-1.2c0-0.441,0.358-0.8,0.8-0.8h6.4c0.441,0,0.8,0.358,0.8,0.8V39v2.2V49
        C58,53.419,54.418,57,50,57z M43.207,27h-3.201v9.993c0,2.213-1.792,4.007-4.003,4.007h-8.006c-2.211,0-4.003-1.794-4.003-4.007V27
        h-3.201c-0.982,0-1.892-0.547-2.393-1.438c-0.5-0.891-0.517-1.993-0.044-2.9c0.577-1.109,2.666-4.983,5.304-8.292
        c2.412-3.024,5.169-5.51,6.598-6.723C30.767,7.216,31.384,7,32.002,7s1.236,0.217,1.746,0.65c1.147,0.977,4.088,3.587,6.598,6.735
        c2.665,3.343,4.73,7.183,5.3,8.28c0.471,0.907,0.453,2.009-0.048,2.898C45.098,26.454,44.188,27,43.207,27z"/>
</svg>
