<svg xmlns="http://www.w3.org/2000/svg" width="64" height="64" viewBox="0 0 64 64">
    <path d="M59.998,31.266c0,0-0.086,9.979-5.062,10.797C49.787,54.221,39.27,64,32.01,64
        c-7.262,0-17.779-9.779-22.926-21.938c-4.978-0.818-5.063-10.797-5.063-10.797c-0.166-1.416,0.66-2.711,1.996-3.458
        C6.104,10.255,17.704,0,32.01,0c14.307,0,25.906,10.255,25.992,27.808C59.338,28.555,60.164,29.85,59.998,31.266z M52.252,30.163
        c0.074-0.783,0.119-1.564,0.119-2.343c-1.104,0.093-2.223,0.152-3.361,0.152c-8.486,0-16.1-2.656-21.391-6.871
        c0.336,2.898,1.359,5.999,3.871,8.293c0,0-6.549,0.803-12.673-5.756c-2.107,1.883-4.517,3.434-7.16,4.555
        c0.011,0.653,0.056,1.31,0.118,1.966c-1.436,0.453-2.176,2.516-1.649,4.719c0.527,2.21,2.127,3.719,3.617,3.463
        C17.642,48.604,26.17,57.273,32.01,57.273s14.375-8.668,18.277-18.932c1.486,0.247,3.08-1.259,3.605-3.464
        C54.418,32.68,53.682,30.622,52.252,30.163z M40.01,40c-2.209,0-4-1.791-4-4s1.791-4,4-4s4,1.791,4,4S42.219,40,40.01,40z
         M40.01,46.544c0,2.196-4.688,3.644-8,3.644c-3.314,0-8-1.447-8-3.644c0-2.197,4.686-0.481,8-0.481
        C35.322,46.062,40.01,44.347,40.01,46.544z M24.01,40c-2.209,0-4-1.791-4-4s1.791-4,4-4c2.209,0,4,1.791,4,4S26.219,40,24.01,40z"/>
</svg>
