<svg xmlns="http://www.w3.org/2000/svg" width="64" height="64" viewBox="0 0 64 64">
    <path d="M33.037,41.363c6.166,0,16.127-10.981,16.127-21.572
        c0-10.59-7.221-16.778-16.127-16.778S16.911,9.201,16.911,19.791C16.911,30.382,26.871,41.363,33.037,41.363z M22.375,19.119
        c0.574-0.319,1.119-0.674,1.637-1.057c2.557,3.451,9.053,4.936,9.053,4.936c-2.347-2.21-2.786-5.08-2.85-7.108
        c3.272,2.5,8.022,4.093,13.367,4.093c0.066,0,0.128-0.013,0.193-0.014c0.002,0.08,0.021,0.148,0.021,0.229
        c0,6.902-6.646,14.967-10.76,14.967S22.278,27.1,22.278,20.197C22.278,19.818,22.346,19.481,22.375,19.119z M42.135,40.251
        c-2.993,3.238-4.032,4.833-9.098,4.833c-5.075,0-6.117-1.603-9.115-4.852c-7.224,1.668-12.848,6.234-12.848,12.779
        c0,7.986,9.833,7.988,21.963,7.988C45.168,61,55,60.998,55,53.012C55,46.486,49.357,41.927,42.135,40.251z"/>
</svg>
