<svg xmlns="http://www.w3.org/2000/svg" width="64" height="64" viewBox="0 0 64 64">
    <path d="M58,58H6c-3.313,0-6-2.687-6-6V12c0-3.313,2.687-6,6-6h52c3.313,0,6,2.687,6,6v40
        C64,55.313,61.313,58,58,58z M8,9.543c-1.357,0-2.457,1.101-2.457,2.457c0,1.357,1.1,2.457,2.457,2.457
        c1.356,0,2.457-1.1,2.457-2.457C10.457,10.644,9.356,9.543,8,9.543z M58,18H6v34h52V18z M16,22h32c2.209,0,4,1.791,4,4v18
        c0,2.209-1.791,4-4,4H16c-2.209,0-4-1.791-4-4V26C12,23.791,13.791,22,16,22z M41.333,42h3.733C45.582,42,46,41.553,46,41
        c0-0.552-0.418-1-0.934-1h-3.733c-0.515,0-0.933,0.448-0.933,1C40.4,41.553,40.818,42,41.333,42z M33.867,42H37.6
        c0.516,0,0.934-0.447,0.934-1c0-0.552-0.418-1-0.934-1h-3.732c-0.516,0-0.934,0.448-0.934,1C32.934,41.553,33.352,42,33.867,42z
         M26.4,42h3.732c0.516,0,0.934-0.447,0.934-1c0-0.552-0.418-1-0.934-1H26.4c-0.516,0-0.934,0.448-0.934,1
        C25.467,41.553,25.885,42,26.4,42z M25,33.222C25.531,33.7,26.229,34,27,34c1.656,0,3-1.343,3-3s-1.344-3-3-3
        c-0.771,0-1.469,0.3-2,0.778c0.609,0.55,1,1.337,1,2.222S25.609,32.673,25,33.222z M18.934,42h3.733c0.515,0,0.933-0.447,0.933-1
        c0-0.552-0.418-1-0.933-1h-3.733C18.418,40,18,40.448,18,41C18,41.553,18.418,42,18.934,42z M21,34c1.656,0,3-1.343,3-3
        s-1.344-3-3-3c-1.657,0-3,1.343-3,3S19.343,34,21,34z"/>
</svg>
