<svg xmlns="http://www.w3.org/2000/svg" width="64" height="64" viewBox="0 0 64 64">
    <path d="M46.621,35.035h3.294l-1.638-5.196L46.621,35.035z M58,11H6
        c-3.313,0-6,2.687-6,6v30c0,3.314,2.687,6,6,6h52c3.314,0,6-2.686,6-6V17C64,13.687,61.314,11,58,11z M17.024,41.018H12.8
        l0.025-0.079L7.967,22.985l4.177-0.002l2.94,10.866l3.463-10.866h4.224L17.024,41.018z M27.073,41.018H22.85l1.785-18.034h4.224
        L27.073,41.018z M40.262,36.099c-1.04,6.436-10.526,4.488-10.526,4.488l1.076-5.267c0,0,4.655,1.479,4.994,0.107
        c0.568-2.3-4.546-0.2-4.145-7.278s10.347-4.818,10.347-4.818l-1.296,4.818c0,0-4.209-1.117-4.601,0.76
        C35.532,31.68,41.182,30.408,40.262,36.099z M51.801,41.018l-0.594-1.884h-5.892l-0.601,1.884h-4.223l5.686-17.843l-0.061-0.191
        h4.346l-0.085,0.267l5.6,17.768H51.801z"/>
</svg>
