<svg xmlns="http://www.w3.org/2000/svg" width="64" height="64" viewBox="0 0 64 64">
    <path d="M54,60H10c-3.313,0-6-2.687-6-6V10c0-3.313,2.687-6,6-6h44c3.313,0,6,2.687,6,6v44
        C60,57.313,57.313,60,54,60z M44.453,33.896c-1.014-1.366-2.465-2.332-4.353-2.898c1.338-0.625,2.398-1.562,3.181-2.812
        c0.781-1.249,1.172-2.622,1.172-4.119c0-1.38-0.316-2.626-0.95-3.737s-1.427-2.001-2.378-2.669
        c-0.951-0.669-2.028-1.108-3.232-1.318c-1.205-0.211-3.033-0.316-5.484-0.316l-6.345-0.02C26.042,16.006,26.022,16,26,16h-4
        c-1.104,0-2,0.896-2,2v28c0,1.104,0.896,2,2,2h4c0.028,0,0.054-0.007,0.082-0.008l4.488-0.018c3.986-0.029,6.501-0.102,7.543-0.219
        c1.663-0.188,3.061-0.693,4.195-1.515c1.134-0.82,2.029-1.917,2.684-3.29c0.655-1.373,0.982-2.786,0.982-4.239
        C45.975,36.867,45.468,35.262,44.453,33.896z M32.758,27.993c-0.242,0-0.477-0.026-0.704-0.073h-4.029v-5.928h5.188v0.033
        c1.566,0.206,2.772,1.454,2.772,2.967C35.985,26.649,34.54,27.993,32.758,27.993z M33.204,36.019
        c1.564,0.206,2.769,1.453,2.769,2.965c0,1.655-1.443,2.997-3.224,2.997c-0.241,0-0.477-0.026-0.702-0.073h-4.025v-5.922h5.183
        V36.019z"/>
</svg>
