<svg xmlns="http://www.w3.org/2000/svg" width="64" height="64" viewBox="0 0 64 64">
    <path d="M52.67,44.751c1.002,0.729,1.736,1.517,2.148,2.347
        c0.492,0.867,0.803,2.089,0.803,3.455c0,1.394-0.326,2.635-0.834,3.504C52.787,58.01,43.531,61,32.006,61
        c-11.526,0-20.781-2.99-22.781-6.943c-0.51-0.869-0.835-2.11-0.835-3.504c0-1.367,0.312-2.591,0.805-3.457
        c0.412-0.829,1.145-1.617,2.147-2.345c-3.33-4.373-5.33-9.814-5.33-15.737c0-7.626,3.299-14.465,8.524-19.223
        c1.28,2.18,3.192,3.858,5.953,3.858c1.324,0,2.744-0.407,4.216-1.215c1.994-1.091,4.451-1.645,7.301-1.645s5.305,0.554,7.299,1.645
        c1.473,0.808,2.895,1.215,4.217,1.215c2.762,0,4.674-1.679,5.953-3.858C54.699,14.549,58,21.388,58,29.014
        C58,34.937,56,40.378,52.67,44.751z M32.006,15.016c-7.738,0-14.012,6.268-14.012,13.999s6.273,14,14.012,14s14.012-6.269,14.012-14
        S39.744,15.016,32.006,15.016z M32.006,35.006c-3.326,0-6.021-2.693-6.021-6.017s2.695-6.017,6.021-6.017s6.021,2.693,6.021,6.017
        S35.332,35.006,32.006,35.006z M43.521,10.354c-0.686,0-1.49-0.251-2.396-0.746c-2.562-1.401-5.629-2.113-9.119-2.113
        s-6.559,0.712-9.12,2.113c-0.906,0.495-1.713,0.746-2.397,0.746c-1.451,0-2.431-1.343-3.076-2.867C21.573,4.657,26.596,3,32.006,3
        s10.432,1.657,14.592,4.487C45.953,9.012,44.973,10.354,43.521,10.354z"/>
</svg>
