<svg xmlns="http://www.w3.org/2000/svg" width="24" height="24" viewBox="0 0 24 24">
    <path d="M17.5,14.996c0.521,0,1.022,0.077,1.5,0.213V1.75C19,1.336,18.654,1,18.228,1
        H2.772C2.346,1,2,1.336,2,1.75v19.495c0,0.415,0.346,0.75,0.772,0.75h9.44C12.077,21.518,12,21.016,12,20.495
        C12,17.458,14.463,14.996,17.5,14.996z M5.833,4.997h3.334C9.627,4.997,10,5.444,10,5.996c0,0.553-0.373,1-0.833,1H5.833
        c-0.46,0-0.833-0.447-0.833-1C5,5.444,5.373,4.997,5.833,4.997z M11.223,14.994H5.778c-0.43,0-0.778-0.447-0.778-1
        c0-0.552,0.349-0.999,0.778-0.999h5.444c0.43,0,0.777,0.447,0.777,0.999C12,14.547,11.652,14.994,11.223,14.994z M5.75,10.995
        c-0.414,0-0.75-0.448-0.75-1s0.336-1,0.75-1h7.5c0.414,0,0.75,0.448,0.75,1s-0.336,1-0.75,1H5.75z M20.2,18.996H19v-1.2
        c0-0.442-0.336-0.8-0.75-0.8h-1.5c-0.414,0-0.75,0.357-0.75,0.8v1.2h-1.2c-0.441,0-0.8,0.336-0.8,0.75v1.499
        c0,0.414,0.358,0.75,0.8,0.75H16v1.199c0,0.441,0.336,0.8,0.75,0.8h1.5c0.414,0,0.75-0.358,0.75-0.8v-1.199h1.2
        c0.441,0,0.8-0.336,0.8-0.75v-1.499C21,19.332,20.642,18.996,20.2,18.996z"/>
</svg>
