<svg xmlns="http://www.w3.org/2000/svg" width="24" height="24" viewBox="0 0 24 24">
    <path d="M11.364,15.53c2.345,0,6.131-4.161,6.131-8.174c0-4.014-2.745-6.358-6.131-6.358
        S5.233,3.343,5.233,7.356C5.233,11.369,9.021,15.53,11.364,15.53z M7.311,7.102c0.218-0.121,0.425-0.255,0.623-0.4
        c0.972,1.308,3.442,1.87,3.442,1.87c-0.897-0.842-1.059-1.933-1.082-2.703c1.245,0.95,3.045,1.56,5.08,1.56
        c0.025,0,0.049-0.005,0.074-0.005c0,0.03,0.008,0.056,0.008,0.086c0,2.616-2.526,5.672-4.091,5.672
        c-1.563,0-4.091-3.056-4.091-5.672C7.273,7.366,7.3,7.238,7.311,7.102z M11.364,16.94c-1.93,0-2.326-0.606-3.466-1.838
        c-2.746,0.632-4.885,2.362-4.885,4.843c0,3.025,3.739,3.026,8.351,3.026h0.228C11.217,22.228,11,21.39,11,20.5
        c0-1.35,0.488-2.585,1.296-3.542C12.02,16.949,11.721,16.94,11.364,16.94z M19.186,18.995h-1.192v-1.297
        c0-0.387-0.335-0.701-0.749-0.701h-1.5c-0.414,0-0.75,0.314-0.75,0.701v1.297h-1.193c-0.44,0-0.798,0.338-0.798,0.755v1.51
        c0,0.416,0.357,0.754,0.798,0.754h1.193v1.296c0,0.388,0.336,0.701,0.75,0.701h1.5c0.414,0,0.749-0.313,0.749-0.701v-1.296h1.192
        c0.441,0,0.799-0.338,0.799-0.754v-1.51C19.984,19.333,19.627,18.995,19.186,18.995z"/>
</svg>
