<svg xmlns="http://www.w3.org/2000/svg" width="24" height="24" viewBox="0 0 24 24">
    <path d="M23.186,15.006h-1.192v-1.297c0-0.387-0.335-0.701-0.749-0.701h-1.5
        c-0.414,0-0.75,0.314-0.75,0.701v1.297h-1.193c-0.44,0-0.798,0.338-0.798,0.755v1.509c0,0.417,0.357,0.755,0.798,0.755h1.193
        v1.296c0,0.388,0.336,0.701,0.75,0.701h1.5c0.414,0,0.749-0.313,0.749-0.701v-1.296h1.192c0.441,0,0.799-0.338,0.799-0.755v-1.509
        C23.984,15.344,23.627,15.006,23.186,15.006z M20.494,10.998c0.521,0,1.021,0.077,1.499,0.212V6.341
        c0-1.291-1.055-2.337-2.356-2.337H2.356C1.055,4.004,0,5.05,0,6.341v9.348c0,1.29,1.055,2.337,2.356,2.337h12.851
        c-0.141-0.485-0.22-0.996-0.22-1.526C14.987,13.461,17.452,10.998,20.494,10.998z M5.239,15.013H3.746
        C3.334,15.013,3,14.79,3,14.516c0-0.275,0.334-0.498,0.746-0.498h1.493c0.412,0,0.747,0.223,0.747,0.498
        C5.986,14.79,5.651,15.013,5.239,15.013z M4.495,10.008c-0.823,0-1.491-0.671-1.491-1.498s0.668-1.498,1.491-1.498
        S5.986,7.683,5.986,8.51S5.318,10.008,4.495,10.008z M6.694,9.77c0.212-0.374,0.343-0.8,0.343-1.261
        c0-0.46-0.131-0.886-0.343-1.259C6.926,7.101,7.2,7.012,7.495,7.012c0.823,0,1.491,0.671,1.491,1.498s-0.668,1.498-1.491,1.498
        C7.2,10.008,6.926,9.919,6.694,9.77z M10.255,15.013H8.747c-0.416,0-0.754-0.223-0.754-0.497c0-0.275,0.338-0.498,0.754-0.498
        h1.508c0.416,0,0.753,0.223,0.753,0.498C11.008,14.79,10.671,15.013,10.255,15.013z"/>
</svg>
