<svg xmlns="http://www.w3.org/2000/svg" width="24" height="24" viewBox="0 0 24 24">
    <path d="M10,9c-0.552,0-1,0.447-1,1s0.448,1,1,1h1c0.552,0,1-0.447,1-1s-0.448-1-1-1H10z
         M13,6c0-0.552-0.448-1-1-1h-2C9.448,5,9,5.448,9,6c0,0.553,0.448,1,1,1h2C12.552,7,13,6.553,13,6z M5,6v1c0,0.553,0.448,1,1,1h1
        c0.552,0,1-0.447,1-1V6c0-0.552-0.448-1-1-1H6C5.448,5,5,5.448,5,6z M23.635,13.31l-1.146-1.145L12.26,22.574l-1.304-1.327
        L21.174,10.85l-2.478-2.476C18.23,7.908,17.499,7.897,17,8.308V3c0-1.104-0.896-2-2-2h-3v2h3v7.273l-6.628,6.625
        c-0.496,0.496-0.496,1.299,0,1.795L9.679,20H3V3h3V1H3C1.896,1,1,1.896,1,3v17c0,1.104,0.896,2,2,2h8.68l1.63,1.629
        c0.495,0.495,1.3,0.495,1.796,0l8.529-8.524C24.13,14.608,24.13,13.805,23.635,13.31z M8,10c0-0.553-0.448-1-1-1H6
        c-0.552,0-1,0.447-1,1v1c0,0.553,0.448,1,1,1h1c0.552,0,1-0.447,1-1V10z M7,13H6c-0.552,0-1,0.447-1,1v1c0,0.553,0.448,1,1,1h1
        c0.552,0,1-0.447,1-1v-1C8,13.447,7.552,13,7,13z M8,4.016h2c0.552,0,1-0.447,1-1V3V1.016V1h-0.003
        C10.988,0.455,10.547,0.016,10,0.016H8C7.453,0.016,7.012,0.455,7.003,1H7v0.016V3v0.016C7,3.568,7.448,4.016,8,4.016z"/>
</svg>
