<svg xmlns="http://www.w3.org/2000/svg" width="24" height="24" viewBox="0 0 24 24">
    <path d="M18.62,13.126l-0.169,0.168l-1.033-3.738l1.593-1.436
        c0.294-0.178,0.691-0.509,1.252-1.068c0.133-0.132,0.235-0.253,0.357-0.382l0.282-0.254l-0.023-0.023
        C23.062,4,23.418,2.269,22.572,1.427c-0.847-0.843-2.585-0.488-4.988,1.686L17.562,3.09l-0.256,0.282
        c-0.128,0.121-0.25,0.223-0.382,0.354c-0.562,0.559-0.894,0.955-1.073,1.247l-1.429,1.574l-3.71-1.069l0.114-0.114
        c0.646-0.644,0.671-1.661,0.056-2.273C10.268,2.478,9.245,2.502,8.6,3.146L7.258,4.481l-4.335-1.25L1,5.227l9.508,5.629
        L7.815,13.82l-4.838-0.889l-1.555,1.797l4.794,2.989l3,4.774l1.804-1.548l-0.892-4.819l2.967-2.674L18.635,23l1.977-1.89
        l-1.199-4.338l1.435-1.428c0.646-0.644,0.67-1.661,0.056-2.273C20.287,12.458,19.266,12.482,18.62,13.126z"/>
</svg>
