<svg xmlns="http://www.w3.org/2000/svg" width="24" height="24" viewBox="0 0 24 24">
    <path d="M21.602,11.389l-3.285-1.928l3.285-1.928c0.588-0.346,0.588-0.904,0-1.25
        l-8.516-4.997c-0.588-0.346-1.541-0.346-2.129,0L2.44,6.284c-0.587,0.346-0.587,0.904,0,1.25l3.285,1.928L2.44,11.389
        c-0.587,0.345-0.587,0.904,0,1.25l3.285,1.928L2.44,16.494c-0.587,0.344-0.587,0.904,0,1.25l8.517,4.996
        c0.588,0.346,1.541,0.346,2.129,0l8.516-4.996c0.588-0.346,0.588-0.906,0-1.25l-3.285-1.928l3.285-1.928
        C22.189,12.293,22.189,11.734,21.602,11.389z M12.025,20.795l-6.223-3.676l2.129-1.258l3.025,1.775
        c0.588,0.344,1.541,0.344,2.129,0l3.029-1.777l2.133,1.26L12.025,20.795z M12.025,15.689l-6.223-3.675l2.129-1.258l3.025,1.775
        c0.588,0.346,1.541,0.346,2.129,0l3.027-1.778l2.135,1.261L12.025,15.689z"/>
</svg>
