<svg xmlns="http://www.w3.org/2000/svg" width="24" height="24" viewBox="0 0 24 24">
    <path d="M22,3H2C0.896,3,0,3.896,0,5v14c0,1.104,0.896,2,2,2h20c1.104,0,2-0.896,2-2V5
        C24,3.896,23.104,3,22,3z M20,10.713c0,0.636-0.859,0.206-1.781-0.549l-5.928,5.334l-2.837-2.5l-3.69,3.652
        c-0.223,0.254-0.535,0.369-0.838,0.342c-0.217-0.021-0.428-0.113-0.599-0.279c-0.413-0.4-0.438-1.076-0.058-1.511l5.201-5.331
        l2.859,2.622l4.382-3.828C15.996,7.788,15.662,7,16.474,7c2.114,0,2.938,0,2.938,0C19.736,7,20,7.277,20,7.619
        C20,7.619,20,9.082,20,10.713z"/>
</svg>
