<svg xmlns="http://www.w3.org/2000/svg" width="24" height="24" viewBox="0 0 24 24">
    <path d="M4,15h16c1.104,0,2-0.896,2-2V3c0-1.104-0.896-2-2-2H4C2.896,1,2,1.896,2,3v10
        C2,14.104,2.896,15,4,15z M16.76,11h1.867c0.258,0,0.467,0.224,0.467,0.5S18.885,12,18.627,12H16.76
        c-0.257,0-0.466-0.224-0.466-0.5S16.503,11,16.76,11z M12.934,11H14.8c0.258,0,0.467,0.224,0.467,0.5S15.058,12,14.8,12h-1.866
        c-0.258,0-0.467-0.224-0.467-0.5S12.676,11,12.934,11z M11.502,11.5c0,0.276-0.209,0.5-0.467,0.5H9.168
        c-0.257,0-0.466-0.224-0.466-0.5S8.911,11,9.168,11h1.867C11.293,11,11.502,11.224,11.502,11.5z M8.694,4.239
        C8.926,4.09,9.2,4.001,9.495,4.001c0.823,0,1.491,0.671,1.491,1.498s-0.668,1.498-1.491,1.498c-0.296,0-0.569-0.089-0.801-0.238
        c0.212-0.374,0.343-0.8,0.343-1.261C9.037,5.038,8.906,4.612,8.694,4.239z M6.495,4.001c0.823,0,1.491,0.671,1.491,1.498
        S7.318,6.997,6.495,6.997S5.004,6.326,5.004,5.499S5.672,4.001,6.495,4.001z M5.404,11h1.867c0.258,0,0.466,0.224,0.466,0.5
        S7.529,12,7.271,12H5.404c-0.258,0-0.467-0.224-0.467-0.5S5.146,11,5.404,11z M23,6.779V17c0,1.104-0.896,2-2,2h-6v0.4
        c0,0.887-0.672,1.605-1.5,1.605h-3c-0.828,0-1.5-0.719-1.5-1.605V19H3c-1.104,0-2-0.896-2-2V6.778C0.391,7.328,0,8.115,0,9v11
        c0,1.657,1.343,3,3,3h18c1.656,0,3-1.343,3-3V9C24,8.115,23.609,7.328,23,6.779z M4,18h16c1.104,0,2-0.896,2-2v-2
        c0,1.104-0.896,2-2,2H4c-1.104,0-2-0.896-2-2v2C2,17.104,2.896,18,4,18z"/>
</svg>
