<svg xmlns="http://www.w3.org/2000/svg" width="24" height="24" viewBox="0 0 24 24">
    <path d="M22,1H2C0.896,1,0,1.896,0,3v7c0,1.104,0.896,2,2,2h3v8.751
        C5,21.993,6.045,23,7.333,23h9.333C17.955,23,19,21.993,19,20.751V12h3c1.104,0,2-0.896,2-2V3C24,1.896,23.104,1,22,1z
         M9.5,19.995c-0.829,0-1.5-0.669-1.5-1.493s0.671-1.492,1.5-1.492s1.5,0.668,1.5,1.492S10.329,19.995,9.5,19.995z M10.751,16.328
        C10.382,16.113,9.958,15.98,9.5,15.98s-0.882,0.133-1.251,0.348C8.092,16.091,8,15.807,8,15.5c0-0.831,0.671-1.505,1.5-1.505
        S11,14.669,11,15.5C11,15.807,10.908,16.091,10.751,16.328z M16,19.312c0,0.383-0.225,0.693-0.5,0.693
        c-0.276,0-0.5-0.311-0.5-0.693v-1.386c0-0.383,0.224-0.693,0.5-0.693c0.275,0,0.5,0.311,0.5,0.693V19.312z M16,14.696
        c0,0.383-0.225,0.693-0.5,0.693c-0.276,0-0.5-0.311-0.5-0.693v-1.386c0-0.383,0.224-0.693,0.5-0.693c0.275,0,0.5,0.311,0.5,0.693
        V14.696z M16,10.081c0,0.383-0.225,0.693-0.5,0.693c-0.276,0-0.5-0.311-0.5-0.693V8.695c0-0.383,0.224-0.693,0.5-0.693
        c0.275,0,0.5,0.311,0.5,0.693V10.081z M22,9.986h-3V7.992h0.016c0.861,0,1.56-0.672,1.56-1.501s-0.698-1.502-1.56-1.502H19V4.986
        H5v0.003H4.984c-0.861,0-1.559,0.673-1.559,1.502s0.698,1.501,1.559,1.501H5v1.994H2V2.994h2.003v-0.01h17.004v0.01H22V9.986z"/>
</svg>
