<svg xmlns="http://www.w3.org/2000/svg" width="24" height="24" viewBox="0 0 24 24">
    <path d="M23.938,6.54c0.031-0.207,0.056-0.416,0.053-0.629
        c-0.012-1.053-0.441-2.039-1.208-2.776C22.023,2.403,21.018,2,19.951,2c-1.065,0-2.072,0.403-2.83,1.133
        c-0.029,0.028-0.058,0.057-0.084,0.087c-0.025,0.021-0.05,0.042-0.073,0.065L15.169,5.01H2c-1.104,0-2,0.896-2,2v12
        c0,1.104,0.896,2,2,2h20c1.104,0,2-0.896,2-2v-12C24,6.847,23.976,6.691,23.938,6.54z M4.495,9.011c0.823,0,1.49,0.671,1.49,1.498
        s-0.667,1.498-1.49,1.498s-1.491-0.671-1.491-1.498S3.672,9.011,4.495,9.011z M5.318,17.014H3.772C3.346,17.014,3,16.568,3,16.019
        s0.346-0.995,0.772-0.995h1.546c0.427,0,0.772,0.445,0.772,0.995S5.745,17.014,5.318,17.014z M6.694,11.769
        c0.212-0.374,0.343-0.8,0.343-1.261c0-0.46-0.131-0.886-0.343-1.259C6.926,9.1,7.2,9.011,7.495,9.011
        c0.823,0,1.491,0.671,1.491,1.498s-0.668,1.498-1.491,1.498C7.2,12.007,6.926,11.918,6.694,11.769z M9.955,17.014H8.409
        c-0.427,0-0.772-0.445-0.772-0.995s0.346-0.995,0.772-0.995h1.546c0.427,0,0.772,0.445,0.772,0.995S10.382,17.014,9.955,17.014z
         M14.591,17.014h-1.545c-0.427,0-0.773-0.445-0.773-0.995s0.347-0.995,0.773-0.995h1.545c0.427,0,0.772,0.445,0.772,0.995
        S15.018,17.014,14.591,17.014z M19.228,17.014h-1.546c-0.427,0-0.772-0.445-0.772-0.995s0.346-0.995,0.772-0.995h1.546
        c0.427,0,0.772,0.445,0.772,0.995S19.654,17.014,19.228,17.014z M22.021,7.859l-0.039,0.037c-0.003,0.003-0.005,0.007-0.008,0.01
        s-0.006,0.004-0.009,0.007L17.3,12.396h-0.001l-0.155,0.149l-0.016-0.015c-0.778,0.598-1.912,0.559-2.634-0.135
        c-0.721-0.692-0.762-1.781-0.14-2.529l-0.017-0.016l4.208-4.041c0,0,0,0,0.001,0l0.019-0.019l0.004,0.004
        c0.259-0.229,0.66-0.228,0.912,0.015c0.255,0.244,0.256,0.638,0.008,0.887l0.002,0.002l-2.745,2.637h0.001L15.435,10.6
        c-0.001,0.001-0.003,0.002-0.004,0.002c-0.001,0.001-0.001,0.003-0.002,0.004l-0.073,0.069l0.016,0.015
        c-0.183,0.247-0.171,0.586,0.06,0.808c0.237,0.228,0.605,0.235,0.863,0.044l0.01,0.008l0.046-0.044
        c0.004-0.003,0.01-0.004,0.014-0.008c0.003-0.004,0.004-0.009,0.008-0.013l1.309-1.252c0.001,0,0.001,0.001,0.002,0.001
        l0.704-0.677l0.005-0.004l2.493-2.396l-0.001-0.001l0.186-0.18l-0.004-0.004c0.57-0.579,0.563-1.49-0.027-2.058
        c-0.584-0.562-1.519-0.572-2.123-0.042l-0.005-0.005l-0.048,0.046C18.86,4.915,18.86,4.915,18.86,4.915L18.73,5.04h-1.875
        l0.912-0.876l0.016,0.015c0.048-0.054,0.086-0.113,0.14-0.165c1.119-1.074,2.933-1.074,4.052,0
        c1.103,1.06,1.113,2.764,0.043,3.842L22.021,7.859z"/>
</svg>
