<svg xmlns="http://www.w3.org/2000/svg" width="24" height="24" viewBox="0 0 24 24" enable-background="new 0 0 24 24" xml:space="preserve">
    <path d="M20.129,2.814C17.635,0.4,13.591,0.4,11.097,2.815
        c-0.117,0.113-0.223,0.233-0.329,0.353L10.75,3.151L6.125,7.628l0.027,0.026C5.983,7.887,5.955,8.224,6.084,8.628
        C6.255,9.16,6.545,9.979,7.358,9.979c0.462,0,0.808-0.203,1.035-0.511l4.44-4.298l0.006,0.005l0.346-0.334
        c0.001-0.001,0.002-0.001,0.002-0.002s0.001-0.001,0.002-0.001l0.106-0.104l0.014,0.013c0.946-0.776,3.348-1.246,4.729,0.091
        c1.316,1.274,1.332,3.323,0.062,4.625l0.009,0.009l-0.415,0.402l0.003,0.003l-7.138,6.91c0-0.001-0.001-0.002-0.002-0.004
        l-2.917,2.815c-0.008,0.008-0.01,0.019-0.019,0.026s-0.02,0.01-0.028,0.018l-0.104,0.101l-0.021-0.02
        c-0.576,0.431-1.396,0.413-1.924-0.099c-0.515-0.497-0.542-1.26-0.135-1.814l-0.033-0.031l0.164-0.159
        c0.002-0.001,0.002-0.004,0.004-0.006s0.004-0.002,0.006-0.004l2.927-2.84c0,0-0.001,0-0.002-0.001l6.118-5.922l-0.004-0.005
        c0.553-0.559,0.551-1.443-0.018-1.992c-0.561-0.543-1.455-0.548-2.034-0.032L12.528,6.81l-0.042,0.041c0,0,0,0,0,0s0,0,0,0
        L3.107,15.93l0.028,0.027c-1.615,1.837-1.453,3.974,0.319,5.689c1.61,1.559,3.979,1.827,5.874,0.306l0.032,0.03l0.343-0.332
        c0.001-0.002,0.003-0.003,0.004-0.004s0.002-0.003,0.003-0.004l10.393-10.065c0.008-0.007,0.017-0.012,0.024-0.019
        c0.015-0.014,0.026-0.03,0.041-0.044l0.062-0.06l-0.003-0.003C22.617,9.028,22.587,5.195,20.129,2.814z"/>
</svg>
