<svg xmlns="http://www.w3.org/2000/svg" width="24" height="24" viewBox="0 0 24 24">
    <path d="M14.994,7.073H13v8.867h1.994V7.073z M21.75,3H2.25C1.008,3,0,4.008,0,5.25v13.5
        C0,19.993,1.008,21,2.25,21h19.5c1.242,0,2.25-1.007,2.25-2.25V5.25C24,4.008,22.992,3,21.75,3z M21.996,18.989H2.004V4.99h19.992
        V18.989z M17.994,7.073H16v8.867h1.994V7.073z M20.008,7.073h-1.007v9.854h1.007V7.073z M11.993,7.073h-0.987v9.854h0.987V7.073z
         M8,7.073H6.006v8.867H8V7.073z M4.999,7.073H3.992v9.854h1.007V7.073z M10,7.073H9.003v8.867H10V7.073z"/>
</svg>
