<svg xmlns="http://www.w3.org/2000/svg" width="24" height="24" viewBox="0 0 24 24">
    <path d="M22.5,7h-2.515l0.55-0.303c1.279-0.746,0.82-1.603,0.242-2.491
        c-0.727-1.114-1.141-1.49-2.051-0.988L11.625,7H1.5C0.257,7,0,8.118,0,9.498s0.257,2.498,1.5,2.498h0.004
        c0,0.017-0.004,0.033-0.004,0.05l2.05,8.417c0,1.268,0.873,1.529,1.95,1.529h13c1.077,0,1.95-0.262,1.95-1.529l2.05-8.417
        c0-0.017-0.004-0.033-0.004-0.05H22.5c1.242,0,1.5-1.118,1.5-2.498S23.742,7,22.5,7z M7.266,19.977
        c-0.357,0.012-0.705-0.109-0.803-0.527l-1.439-6.745c-0.165-0.701,0.152-0.646,0.64-0.661c0.489-0.015,1.122-0.098,1.245,0.605
        l1.083,6.755C8.064,19.822,7.621,19.965,7.266,19.977z M12.786,19.557c-0.015,0.322-0.365,0.422-0.783,0.422
        c-0.419,0-0.769-0.1-0.784-0.422l-0.209-5.025c-0.024-0.541,0.42-0.492,0.993-0.492s1.017-0.049,0.992,0.492L12.786,19.557z
         M12,11.28c-0.713,0-1.291-0.58-1.291-1.296S11.287,8.687,12,8.687s1.291,0.581,1.291,1.297S12.713,11.28,12,11.28z
         M18.977,12.705l-1.439,6.745c-0.098,0.418-0.445,0.539-0.803,0.527c-0.355-0.012-0.799-0.154-0.726-0.572l1.083-6.755
        c0.123-0.703,0.756-0.62,1.244-0.605C18.825,12.059,19.141,12.003,18.977,12.705z"/>
</svg>
