<svg xmlns="http://www.w3.org/2000/svg" width="24" height="24" viewBox="0 0 24 24">
    <path d="M21.317,3.984H19.91C19.571,1.639,17.889,0,15.462,0
        c-2.36,0-3.968,1.557-4.358,3.8H9.68L6.099,2.823C5.756,2.729,5.403,2.935,5.312,3.281L1.015,19.604
        c-0.091,0.347,0.113,0.704,0.456,0.798l5.513,1.504v1.379C6.983,23.681,7.289,24,7.666,24h13.651C21.694,24,22,23.681,22,23.285
        V4.699C22,4.305,21.694,3.984,21.317,3.984z M6.983,19.677L3.36,18.688L6.983,4.928V19.677z M10.285,8.982h1.877
        c0.369,0,0.669,0.452,0.669,1.009c0,0.558-0.3,1.009-0.669,1.009h-1.877c-0.369,0-0.669-0.451-0.669-1.009
        C9.616,9.435,9.916,8.982,10.285,8.982z M15.087,19h-4.742c-0.402,0-0.729-0.452-0.729-1.009s0.326-1.009,0.729-1.009h4.742
        c0.403,0,0.729,0.452,0.729,1.009S15.49,19,15.087,19z M15.162,15h-4.877c-0.369,0-0.669-0.451-0.669-1.009
        c0-0.557,0.3-1.009,0.669-1.009h4.877c0.369,0,0.669,0.452,0.669,1.009C15.831,14.549,15.531,15,15.162,15z M17.945,8.18
        c0,2.153-2.999,2.14-2.999-0.033s0-1.056,0-2.551c0-0.749,1.045-0.81,1.045,0.033c0,1.549,0,1.626,0,2.357
        c0,0.663,0.974,0.691,0.974,0c0-0.69,0-2.453,0-3.961s-2.932-1.437-2.932,0.035c0,0.474-0.021,0.906-0.049,1.308V3.8H13
        c0.193-1.647,1.078-1.958,2.395-1.995c1.568-0.043,2.582,0.475,2.582,2.359C17.977,7.916,17.945,6.026,17.945,8.18z
         M19.316,18.999h-0.669c-0.37,0-0.669-0.452-0.669-1.009s0.299-1.009,0.669-1.009h0.669c0.369,0,0.669,0.452,0.669,1.009
        S19.686,18.999,19.316,18.999z M19.316,15h-0.669c-0.37,0-0.669-0.451-0.669-1.009c0-0.557,0.299-1.009,0.669-1.009h0.669
        c0.369,0,0.669,0.452,0.669,1.009C19.985,14.549,19.686,15,19.316,15z"/>
</svg>
