<svg xmlns="http://www.w3.org/2000/svg" width="24" height="24" viewBox="0 0 24 24">
    <path d="M22.004,21.277V3c0-0.552-0.447-1-1-1h-3V1c0-0.553-0.447-1-1-1h-11
        c-0.552,0-1,0.447-1,1v1h-2c-0.552,0-1,0.448-1,1v18.277c-0.595,0.347-1,0.984-1,1.723v1.008h21.999L23.004,23
        C23.004,22.262,22.6,21.624,22.004,21.277z M7.995,19.008H4.39v-3.006h3.605V19.008z M7.995,13.985H4.39v-2.993h3.605V13.985z
         M7.995,9.005H4.39V6.012h3.605V9.005z M13.775,19.008H10.11v-3.006h3.666V19.008z M13.775,13.985H10.11v-2.993h3.666V13.985z
         M13.775,9.005H10.11V6.012h3.666V9.005z M19.494,21h-3.479v-4.997h3.479V21z M19.494,13.985h-3.479v-2.993h3.479V13.985z
         M19.494,9.005h-3.479V6.012h3.479V9.005z"/>
</svg>
