<svg xmlns="http://www.w3.org/2000/svg" width="24" height="24" viewBox="0 0 24 24">
    <path d="M20,17h-4v2h4V17z M22,4h-1V3.606C21,2.719,20.403,2,19.667,2h-1.334
        C17.597,2,17,2.719,17,3.606V4h-3V3.606C14,2.719,13.403,2,12.667,2h-1.334C10.597,2,10,2.719,10,3.606V4H7V3.606
        C7,2.719,6.403,2,5.667,2H4.333C3.597,2,3,2.719,3,3.606V4H2C0.896,4,0,4.896,0,6v15c0,1.104,0.896,2,2,2h20c1.104,0,2-0.896,2-2
        V6C24,4.896,23.104,4,22,4z M22,20.997H2V9h20V20.997z M20,14h-4v2h4V14z M14,14h-4v2h4V14z M14,11h-4v2h4V11z M14,17h-4v2h4V17z
         M8,17H4v2h4V17z M8,14H4v2h4V14z M20,11h-4v2h4V11z"/>
</svg>
