<svg xmlns="http://www.w3.org/2000/svg" width="24" height="24" viewBox="0 0 24 24">
    <path d="M2.113,7.011C2.137,7.06,2.701,8.168,3.439,9.092
        c0.758,0.948,1.679,1.702,1.727,1.74l0.006,0.008c0.085,0.106,0.194,0.159,0.304,0.158c0.109,0.001,0.219-0.052,0.304-0.158
        l0.006-0.008c0.048-0.038,0.969-0.792,1.728-1.74C8.249,8.168,8.813,7.06,8.837,7.011l0.008-0.009
        c0.09-0.111,0.137-0.264,0.137-0.42c0-0.071-0.01-0.145-0.031-0.214c-0.066-0.22-0.227-0.364-0.406-0.364H6.988
        c0.149-2.586,2.121-2.656,2.121-2.656L9.101,3.293c0.498-0.122,0.877-0.567,0.877-1.125c0-0.651-0.506-1.179-1.129-1.179
        c-0.18,0-0.344,0.054-0.496,0.133C7.278,1.41,4.434,2.497,4.026,6.004H2.408c-0.18,0-0.342,0.145-0.408,0.364
        C1.979,6.438,1.968,6.511,1.968,6.582c0,0.156,0.048,0.309,0.137,0.42L2.113,7.011z M22.399,3.444
        c0.008-0.028,0.006-0.052-0.008-0.073c-0.111-0.176-0.838-0.998-2.025-1.581c-0.061-0.037-0.119-0.073-0.184-0.103L18.974,1.14
        c-0.639-0.289-1.381-0.101-1.676,0.412L14.63,6.204c-0.295,0.515-0.078,1.242,0.502,1.636l1.018,0.691
        c0.002,0.001,0.002,0.003,0.004,0.004c0.473,0.309,1.506,1.333,0.092,2.977c-0.01,0.011-0.012,0.02-0.021,0.031
        c-0.938,1.173-2.006,2.361-3.178,3.524c-0.521,0.454-1.041,0.888-1.561,1.295c-0.008,0.007-0.014,0.008-0.021,0.015
        c-1.646,1.388-2.662,0.386-2.967-0.074c-0.002-0.001-0.002-0.001-0.004-0.003l-0.684-0.991c-0.39-0.563-1.113-0.772-1.627-0.482
        l-4.651,2.629c-0.513,0.29-0.704,1.016-0.419,1.637l0.539,1.178c0.03,0.064,0.066,0.123,0.103,0.181
        c0.576,1.157,1.39,1.858,1.565,1.967c0.021,0.013,0.044,0.015,0.071,0.009c2.262,1.8,8.839-0.865,13.613-5.934
        C21.771,11.788,24.181,5.631,22.399,3.444z"/>
</svg>
