<svg xmlns="http://www.w3.org/2000/svg" width="24" height="24" viewBox="0 0 24 24">
    <path d="M22,4H2C0.896,4,0,4.896,0,6v12c0,1.104,0.896,2,2,2h20c1.104,0,2-0.896,2-2V6
        C24,4.896,23.104,4,22,4z M4.495,8.001c0.823,0,1.49,0.671,1.49,1.498s-0.667,1.498-1.49,1.498s-1.491-0.671-1.491-1.498
        S3.672,8.001,4.495,8.001z M5.318,16.004H3.772C3.346,16.004,3,15.559,3,15.009s0.346-0.995,0.772-0.995h1.546
        c0.427,0,0.772,0.445,0.772,0.995S5.745,16.004,5.318,16.004z M6.694,10.759c0.212-0.374,0.343-0.8,0.343-1.261
        c0-0.46-0.131-0.886-0.343-1.259C6.926,8.09,7.2,8.001,7.495,8.001c0.823,0,1.491,0.671,1.491,1.498s-0.668,1.498-1.491,1.498
        C7.199,10.997,6.926,10.908,6.694,10.759z M9.955,16.004H8.409c-0.427,0-0.772-0.445-0.772-0.995s0.346-0.995,0.772-0.995h1.546
        c0.427,0,0.772,0.445,0.772,0.995S10.382,16.004,9.955,16.004z M14.591,16.004h-1.545c-0.427,0-0.773-0.445-0.773-0.995
        s0.347-0.995,0.773-0.995h1.545c0.427,0,0.772,0.445,0.772,0.995S15.018,16.004,14.591,16.004z M19.228,16.004h-1.546
        c-0.427,0-0.772-0.445-0.772-0.995s0.346-0.995,0.772-0.995h1.546c0.427,0,0.772,0.445,0.772,0.995S19.654,16.004,19.228,16.004z"
        />
</svg>
