<svg xmlns="http://www.w3.org/2000/svg" width="24" height="24" viewBox="0 0 24 24">
    <path d="M22.221,19.957c1.103-1.164,1.783-2.729,1.783-4.457c0-1.84-0.771-3.498-2.004-4.68V6c0-1.104-0.896-2-2-2H2
        C0.896,4,0,4.896,0,6v10c0,1.104,0.896,2,2,2h9.49c0.98,2.345,3.3,3.993,6.006,3.993c0.919,0,1.793-0.192,2.585-0.535l1.424,1.988
        c0.411,0.573,1.253,0.744,1.88,0.38c0.627-0.363,0.803-1.124,0.392-1.697L22.221,19.957z M4.495,6.99
        c0.83,0,1.503,0.671,1.503,1.498S5.325,9.985,4.495,9.985s-1.503-0.67-1.503-1.497S3.665,6.99,4.495,6.99z M6,15H4
        c-0.552,0-1-0.447-1-1s0.448-1,1-1h2c0.553,0,1,0.447,1,1S6.553,15,6,15z M6.495,9.599c0.307-0.274,0.503-0.667,0.503-1.11
        S6.802,7.652,6.495,7.377c0.266-0.238,0.614-0.387,1-0.387c0.83,0,1.503,0.671,1.503,1.498S8.325,9.985,7.495,9.985
        C7.109,9.985,6.761,9.836,6.495,9.599z M11.014,14.997C11.009,14.997,11.005,15,11,15H9c-0.553,0-1-0.447-1-1s0.447-1,1-1h2
        c0.163,0,0.311,0.048,0.447,0.117C11.213,13.707,11.064,14.338,11.014,14.997z M17.497,19.995c-2.488,0-4.505-2.013-4.505-4.495
        s2.017-4.495,4.505-4.495s4.506,2.013,4.506,4.495S19.985,19.995,17.497,19.995z M19.56,15.957
        c-0.144-0.063-0.323-0.106-0.549-0.106h-0.03v-2.774c0-0.533-0.257-0.827-0.745-0.827c-0.163,0-0.294,0.055-0.412,0.163
        c-0.096,0.088-0.211,0.222-0.354,0.409l-2.074,2.712c-0.058,0.073-0.106,0.137-0.146,0.188c-0.04,0.053-0.079,0.107-0.12,0.168
        c-0.045,0.067-0.077,0.131-0.099,0.189c-0.024,0.067-0.037,0.137-0.037,0.205c0,0.236,0.081,0.43,0.24,0.571
        c0.154,0.136,0.378,0.209,0.665,0.209h1.792v0.542c0,0.232,0.065,0.415,0.184,0.544c0.122,0.132,0.287,0.199,0.479,0.199
        c0.194,0,0.342-0.066,0.462-0.195c0.117-0.126,0.165-0.311,0.165-0.548v-0.542h0.101c0.233,0,0.409-0.05,0.538-0.137
        c0.1-0.068,0.219-0.21,0.219-0.465C19.838,16.152,19.687,16.014,19.56,15.957z M17.963,16.014h-1.279l1.279-1.679V16.014z"/>
</svg>
