<svg xmlns="http://www.w3.org/2000/svg" width="24" height="24" viewBox="0 0 24 24">
    <path d="M12,1C5.925,1,1,5.925,1,12s4.925,11,11,11s11-4.925,11-11S18.075,1,12,1z
         M17.151,14.859c0.316,0.316,0.316,0.83,0,1.146l-1.146,1.146c-0.316,0.316-0.83,0.316-1.146,0l-2.865-2.864L9.13,17.151
        c-0.316,0.316-0.829,0.316-1.146,0l-1.146-1.146c-0.316-0.316-0.316-0.83,0-1.146l2.865-2.865L6.838,9.13
        c-0.316-0.316-0.316-0.829,0-1.146l1.146-1.146c0.316-0.316,0.829-0.316,1.146,0l2.864,2.865l2.865-2.865
        c0.316-0.316,0.83-0.316,1.146,0l1.146,1.146c0.316,0.316,0.316,0.829,0,1.146l-2.864,2.865L17.151,14.859z"/>
</svg>
