<svg xmlns="http://www.w3.org/2000/svg" width="24" height="24" viewBox="0 0 24 24">
    <path d="M15.829,12.009l4.775-4.775c0.527-0.528,0.527-1.383,0-1.91l-1.91-1.91
        c-0.527-0.528-1.383-0.528-1.91,0l-4.775,4.775L7.232,3.413c-0.527-0.528-1.383-0.528-1.91,0l-1.91,1.91
        c-0.527,0.527-0.527,1.382,0,1.91l4.776,4.775l-4.776,4.775c-0.527,0.527-0.527,1.382,0,1.909l1.91,1.91
        c0.527,0.528,1.383,0.528,1.91,0l4.776-4.775l4.775,4.775c0.527,0.528,1.383,0.528,1.91,0l1.91-1.91
        c0.527-0.527,0.527-1.382,0-1.909L15.829,12.009z"/>
</svg>
