<svg xmlns="http://www.w3.org/2000/svg" width="24" height="24" viewBox="0 0 24 24">
    <path d="M21.801,19.23c-0.342-0.748-2.025-4.965-7.121-9.145
        c3.406-3.353,5.832-5.54,5.932-5.62c1.979-1.572,0.334-2.858-1-2.354c-2.264,0.856-5.248,2.207-8.691,5.341
        C9.222,6.429,7.288,5.453,5.05,4.59C1.332,3.157-0.299,4.828,2.228,6.285C4.117,7.374,6.143,8.79,8.133,10.31
        c-1.845,2.091-3.786,4.704-5.797,8.038c-2.077,3.443,0.239,4.646,1.875,2.777c2.515-2.875,5.091-5.607,7.438-8.004
        c5.161,4.297,9.247,8.387,8.63,7.707C21.881,22.627,22.303,20.328,21.801,19.23z"/>
</svg>
