<svg xmlns="http://www.w3.org/2000/svg" width="24" height="24" viewBox="0 0 24 24">
    <path d="M11,14H9v1.99C9,17.094,8.289,18,7,18l-2-0.002v0.214c0,0.442-0.224,0.8-0.5,0.8
        c-0.276,0-0.5-0.357-0.5-0.8v-0.215l-3.544-0.004c0.243,0.753,0.589,1.419,1.012,2.016H11V14z M21,19.205
        c0,0.442-0.224,0.801-0.5,0.801c-0.275,0-0.5-0.358-0.5-0.801v-0.202L17,19c-1.289,0-2-0.812-2-2v-3h-2v6.009c0,1.909-1.291,2-2,2
        l-7.426-0.008C5.738,23.405,8.709,24,12,24c5.056,0,9.369-1.392,11.133-4.994L21,19.004V19.205z M23.987,15.221
        c0.001-0.052,0.009-0.099,0.009-0.151h-0.025c-0.138-0.614-0.743-1.077-1.471-1.077H19V10l0.677-0.041V9.932
        c0.291,0.049,0.601-0.015,0.825-0.224c0.365-0.338,0.365-0.886,0-1.224c0,0-1.645-2.131-3.57-3.917
        c-1.9-1.762-4.084-3.305-4.084-3.305c-0.232-0.216-0.557-0.279-0.856-0.218c-0.3-0.061-0.624,0.001-0.856,0.218
        c0,0-2.184,1.542-4.084,3.305C5.125,6.354,3.48,8.485,3.48,8.485c-0.364,0.338-0.364,0.886,0,1.224
        c0.23,0.213,0.546,0.276,0.843,0.221v0.03L5,10v3.992H1.5c-0.728,0-1.333,0.463-1.47,1.077H0.004c0,0.053,0.008,0.1,0.009,0.151
        C0.009,15.258,0,15.295,0,15.333v0.661l4,0.004v-0.187c0-0.442,0.224-0.8,0.5-0.8c0.276,0,0.5,0.357,0.5,0.8v0.187L7,16v-2
        l0.01-5.461l-0.004-0.23c0.48-0.554,1.166-1.357,1.957-2.071c1.353-1.222,2.9-2.219,2.916-2.229L11.87,4.006l0.121,0.025
        l0.063-0.017c0.131,0.084,1.635,1.054,2.929,2.223c0.793,0.716,1.528,1.521,2.009,2.075L17,8.4V14v3h3v-0.195
        c0-0.441,0.225-0.8,0.5-0.8c0.276,0,0.5,0.358,0.5,0.8V17h2.798c0.062-0.32,0.112-0.65,0.144-0.996H24v-0.671
        C24,15.295,23.991,15.258,23.987,15.221z"/>
</svg>
