<svg xmlns="http://www.w3.org/2000/svg" width="24" height="24" viewBox="0 0 24 24">
    <path d="M15.044,2.442C14.709,1.042,13.479,0,12,0S9.291,1.042,8.956,2.442
        C4.363,3.763,1,7.987,1,13.003C1,19.076,5.925,24,12,24s11-4.924,11-10.997C23,7.987,19.637,3.763,15.044,2.442z M13.724,20.8
        L12,19.63l-1.723,1.17c-3.023-0.662-5.402-3.028-6.085-6.038l1.162-1.774l-1.161-1.773c0.694-3.057,3.133-5.451,6.222-6.07
        L12,6.221l1.586-1.077c3.088,0.62,5.527,3.013,6.222,6.069l-1.161,1.774l1.162,1.775C19.124,17.772,16.746,20.138,13.724,20.8z
         M14.7,7.397l-3.993,4.451c-0.078,0.087-0.141,0.197-0.176,0.311l-1.775,5.715c-0.062,0.201-0.029,0.379,0.083,0.445
        s0.28,0.007,0.419-0.149l3.994-4.45c0.078-0.088,0.141-0.197,0.176-0.311l1.775-5.716c0.062-0.2,0.029-0.379-0.084-0.444
        C15.008,7.183,14.84,7.242,14.7,7.397z"/>
</svg>
