<svg xmlns="http://www.w3.org/2000/svg" width="24" height="24" viewBox="0 0 24 24">
    <path d="M21.519,22l-7.582-0.029c-0.016-0.002-0.031-0.008-0.046-0.008
        c-0.409,0-0.614-0.069-0.98-0.417L1.432,10.528c-0.271-0.262-0.447-0.506-0.447-0.86c0-0.001-0.001-0.003-0.001-0.005V2.511
        c0-0.827,0.698-1.497,1.559-1.497h11.857c0.861,0,1.56,0.67,1.56,1.497v5.511l5.56-0.031C22.337,7.99,23,8.663,23,9.494v11.002
        C23,21.327,22.337,22,21.519,22z M7.805,13.818c0.151-0.029,0.308-0.045,0.468-0.045c1.317,0,2.386,1.025,2.386,2.29
        c0,0.184-0.029,0.358-0.072,0.528l1.538,1.535c0.113-0.381,0.192-0.777,0.192-1.196c0-2.368-1.903-4.288-4.252-4.288
        c-0.432,0-0.84,0.084-1.231,0.207L7.805,13.818z M21.007,11.912c-0.158,0.057-0.323,0.102-0.501,0.102
        c-0.827,0-1.497-0.675-1.497-1.506c0-0.179,0.044-0.349,0.101-0.508L3.972,9.994l1.567,1.564c0.769-0.35,1.616-0.553,2.525-0.553
        c3.287,0,5.952,2.609,5.952,5.925c0,0.902-0.22,1.744-0.576,2.509l0.566,0.565h5.103c-0.057-0.158-0.101-0.322-0.101-0.5
        c0-0.827,0.67-1.497,1.497-1.497c0.178,0,0.343,0.045,0.501,0.102V11.912z M17.012,16.012c-0.552,0-0.998-0.446-0.998-0.997
        c0-0.552,0.446-0.998,0.998-0.998c0.551,0,0.997,0.446,0.997,0.998C18.009,15.565,17.562,16.012,17.012,16.012z"/>
</svg>
