<svg xmlns="http://www.w3.org/2000/svg" width="24" height="24" viewBox="0 0 24 24">
    <path d="M18.789,1H9.211C7.989,1,7,2.008,7,3.25V5H5.211C3.989,5,3,6.008,3,7.25v13.5
        C3,21.993,3.989,23,5.211,23h9.578C16.01,23,17,21.993,17,20.75V19h1.789C20.01,19,21,17.993,21,16.75V3.25
        C21,2.008,20.01,1,18.789,1z M15.009,21H4.991V7H7v9.75C7,17.993,7.989,19,9.211,19h5.798V21z M19.009,17H8.991V3h10.018V17z
         M10.803,6.98h2.409c0.443,0,0.803-0.443,0.803-0.99S13.655,5,13.212,5h-2.409C10.359,5,10,5.443,10,5.99S10.359,6.98,10.803,6.98
        z M10.803,9.98h5.409c0.443,0,0.803-0.443,0.803-0.99S16.655,8,16.212,8h-5.409C10.359,8,10,8.443,10,8.99
        S10.359,9.98,10.803,9.98z M10.803,12.98h2.409c0.443,0,0.803-0.443,0.803-0.99S13.655,11,13.212,11h-2.409
        C10.359,11,10,11.443,10,11.99S10.359,12.98,10.803,12.98z"/>
</svg>
