<svg xmlns="http://www.w3.org/2000/svg" width="24" height="24" viewBox="0 0 24 24">
    <path d="M22,4H2C0.896,4,0,4.896,0,6v12c0,1.104,0.896,2,2,2h20c1.104,0,2-0.896,2-2V6C24,4.896,23.104,4,22,4z M6.317,13.627
        c-0.322,0.258-0.731,0.387-1.227,0.387c-0.613,0-1.117-0.221-1.512-0.662c-0.395-0.44-0.593-1.043-0.593-1.809
        c0-0.809,0.199-1.437,0.596-1.885c0.396-0.447,0.919-0.671,1.565-0.671c0.564,0,1.023,0.176,1.376,0.527
        c0.21,0.207,0.367,0.506,0.473,0.895l-0.923,0.232c-0.055-0.252-0.169-0.451-0.342-0.597C5.559,9.898,5.348,9.826,5.1,9.826
        c-0.342,0-0.619,0.129-0.832,0.388c-0.214,0.259-0.32,0.678-0.32,1.257c0,0.614,0.105,1.052,0.315,1.312s0.482,0.392,0.818,0.392
        c0.248,0,0.461-0.083,0.64-0.249s0.307-0.427,0.384-0.782l0.904,0.302C6.87,12.976,6.64,13.369,6.317,13.627z M10.417,13.99H9.312
        l-1.83-5.073h1.121L9.9,12.672l1.254-3.755h1.097L10.417,13.99z M15.564,13.99h-1.104L12.63,8.917h1.121l1.297,3.755l1.254-3.755
        h1.097L15.564,13.99z M20.979,13.087v0.903h-3.441c0.037-0.342,0.149-0.665,0.335-0.971c0.187-0.306,0.555-0.711,1.104-1.217
        c0.442-0.408,0.714-0.685,0.814-0.83c0.135-0.201,0.202-0.399,0.202-0.596c0-0.217-0.059-0.383-0.177-0.5
        c-0.117-0.116-0.279-0.175-0.487-0.175c-0.205,0-0.368,0.062-0.489,0.184s-0.19,0.325-0.209,0.609l-0.979-0.098
        c0.059-0.534,0.241-0.919,0.549-1.151c0.308-0.233,0.691-0.35,1.152-0.35c0.506,0,0.902,0.135,1.191,0.404
        c0.289,0.271,0.434,0.605,0.434,1.007c0,0.229-0.041,0.446-0.124,0.652c-0.083,0.207-0.214,0.423-0.394,0.649
        c-0.118,0.149-0.333,0.365-0.643,0.646c-0.31,0.282-0.506,0.469-0.589,0.561c-0.082,0.093-0.149,0.183-0.2,0.271H20.979z"/>
</svg>
