<svg xmlns="http://www.w3.org/2000/svg" width="24" height="24" viewBox="0 0 24 24">
    <path d="M13.995,4.81c-0.662,0-1.199,0.536-1.199,1.198s0.537,1.198,1.199,1.198
        c0.661,0,1.197-0.536,1.197-1.198S14.656,4.81,13.995,4.81z M8.317,12.141c-0.372,0.261-0.462,0.774-0.201,1.146l3.781,5.389
        c0.262,0.371,0.775,0.461,1.146,0.201c0.372-0.262,0.462-0.775,0.201-1.146l-3.781-5.389C9.202,11.97,8.689,11.88,8.317,12.141z
         M9.995,7.206c0.661,0,1.197-0.536,1.197-1.198S10.656,4.81,9.995,4.81c-0.662,0-1.199,0.536-1.199,1.198S9.333,7.206,9.995,7.206
        z M16.995,7.81c-0.662,0-1.198,0.536-1.198,1.198s0.536,1.198,1.198,1.198c0.66,0,1.197-0.536,1.197-1.198
        S17.655,7.81,16.995,7.81z M12.005,1.021C5.927,1.021,1,5.941,1,12.011C1,18.08,5.927,23,12.005,23s11.006-4.92,11.006-10.989
        C23.011,5.941,18.083,1.021,12.005,1.021z M19.094,16.962c-1.795-1.812-4.275-2.938-7.021-2.957l2.066,2.854
        c0.65,0.896,0.449,2.15-0.447,2.801c-0.897,0.648-2.151,0.448-2.801-0.448L7.8,14.941c-1.078,0.504-2.057,1.185-2.884,2.021
        c-0.979-1.404-1.557-3.109-1.557-4.951c0-4.784,3.871-8.662,8.646-8.662s8.646,3.878,8.646,8.662
        C20.651,13.853,20.073,15.558,19.094,16.962z M6.995,7.81c-0.662,0-1.198,0.536-1.198,1.198s0.536,1.198,1.198,1.198
        c0.66,0,1.197-0.536,1.197-1.198S7.655,7.81,6.995,7.81z"/>
</svg>
