<svg xmlns="http://www.w3.org/2000/svg" width="24" height="24" viewBox="0 0 24 24">
    <path d="M24,17.642c0,0,0-2.616,0-3.595c0-1.886-1.247-4.471-2.186-6.731
        C21.02,5.403,17.054,5.527,15,5.078s-2,0.768-2,1.84V15H0v2.504c0,2.38,1.509,2.484,1.509,2.484s0.203,0,0.548,0
        C2.293,21.692,3.735,23.01,5.5,23.01s3.207-1.317,3.443-3.021h5.113c0.236,1.704,1.679,3.021,3.443,3.021s3.207-1.317,3.443-3.021
        h0.859C24.312,19.988,24,17.642,24,17.642z M5.5,21.006c-0.818,0-1.481-0.669-1.481-1.494c0-0.826,0.663-1.494,1.481-1.494
        s1.481,0.668,1.481,1.494C6.981,20.337,6.318,21.006,5.5,21.006z M17.5,21.006c-0.818,0-1.481-0.669-1.481-1.494
        c0-0.826,0.663-1.494,1.481-1.494s1.481,0.668,1.481,1.494C18.981,20.337,18.318,21.006,17.5,21.006z M16.714,12.995
        c-0.395,0-0.714-0.372-0.714-0.831V8.838c0-0.459,0.319-0.831,0.714-0.831h2.857L21,12.995H16.714z M1.467,13.004h8.066
        c0.811,0,1.467-0.656,1.467-1.467v-8.07C11,2.657,10.344,2,9.533,2H1.467C0.656,2,0,2.657,0,3.467v8.07
        C0,12.348,0.656,13.004,1.467,13.004z M8.986,10.99H3.984l5.002-5.004V10.99z M2.014,4.015h4.995L2.014,9.011V4.015z"/>
</svg>
