<svg xmlns="http://www.w3.org/2000/svg" width="24" height="24" viewBox="0 0 24 24">
    <path d="M16.993,7.493v3.5h0.5c0.276,0,0.5,0.224,0.5,0.5s-0.224,0.5-0.5,0.5h-1
        c-0.276,0-0.5-0.224-0.5-0.5v-4c0-0.276,0.224-0.5,0.5-0.5S16.993,7.217,16.993,7.493z M10.493,11.993c-0.276,0-0.5-0.224-0.5-0.5
        v-4c0-0.051,0.015-0.097,0.029-0.143c-0.028-0.205,0.097-0.357,0.338-0.357c0.022,0,0.047,0.01,0.071,0.013
        c0.021-0.003,0.04-0.013,0.062-0.013c0.174,0,0.32,0.095,0.41,0.23c0.092,0.078,0.174,0.168,0.221,0.27l1.48,3.212l1.288-3.212
        c0.035-0.088,0.098-0.167,0.17-0.239c0.085-0.153,0.243-0.261,0.431-0.261c0.021,0,0.041,0.01,0.062,0.013
        c0.023-0.003,0.047-0.013,0.071-0.013c0.261,0,0.396,0.18,0.349,0.412c0.006,0.03,0.018,0.057,0.018,0.088v4
        c0,0.276-0.224,0.5-0.5,0.5s-0.5-0.224-0.5-0.5V9.901l-0.639,1.592c-0.08,0.199-0.274,0.368-0.486,0.448
        c-0.056,0.031-0.121,0.052-0.203,0.052c-0.008,0-0.016-0.004-0.022-0.004s-0.015,0.004-0.022,0.004
        c-0.082,0-0.148-0.021-0.206-0.052c-0.217-0.08-0.421-0.249-0.513-0.448l-0.908-1.969v1.969
        C10.993,11.77,10.77,11.993,10.493,11.993z M7.493,11.993c-0.276,0-0.5-0.224-0.5-0.5v-3.5h-0.5c-0.276,0-0.5-0.224-0.5-0.5
        s0.224-0.5,0.5-0.5h2c0.276,0,0.5,0.224,0.5,0.5s-0.224,0.5-0.5,0.5h-0.5v3.5C7.993,11.77,7.77,11.993,7.493,11.993z M21.993,12.925
        c0,1.694-0.217,2.215-1.568,3.493c-0.04,0.038-0.063,0.076-0.096,0.114l-5.175,5.136C14.003,22.709,13.528,23,12.039,23H5.638
        c-0.903,0-1.637-0.703-1.637-1.571v-7.428h2.003v6.984h4.959c0.011,0,0.021,0.003,0.032,0.003c1.106,0,2.004-0.888,2.009-1.983
        h0.001v-0.002c0-0.003,0-0.005,0-0.008c0-0.002,0-0.004,0-0.007v-3.466c0-0.851,0.758-1.539,1.692-1.539h3.31v-0.004
        c1.092-0.004,1.977-0.883,1.987-1.972h0.003V2.986H6.004v1.999H4.001V2.574c0-0.868,0.733-1.571,1.637-1.571h14.727
        C21.268,1.003,22,1.706,22,2.574v10.284C21.999,12.882,21.993,12.9,21.993,12.925z M4.493,6.993c0.276,0,0.5,0.224,0.5,0.5v4
        c0,0.276-0.224,0.5-0.5,0.5s-0.5-0.224-0.5-0.5v-1.5h-1v1.5c0,0.276-0.224,0.5-0.5,0.5s-0.5-0.224-0.5-0.5v-4
        c0-0.276,0.224-0.5,0.5-0.5s0.5,0.224,0.5,0.5v1.5h1v-1.5C3.993,7.217,4.217,6.993,4.493,6.993z"/>
</svg>
