<svg xmlns="http://www.w3.org/2000/svg" width="24" height="24" viewBox="0 0 24 24">
    <path d="M11.188,7.49l0.805,2.552l0.805-2.552c0.088-0.276,0.424-0.5,0.751-0.5
        s0.521,0.224,0.435,0.5l-1.263,4c-0.059,0.187-0.234,0.343-0.441,0.429c-0.073,0.041-0.157,0.071-0.264,0.071
        c-0.008,0-0.015-0.003-0.022-0.004c-0.008,0.001-0.015,0.004-0.022,0.004c-0.106,0-0.191-0.03-0.264-0.071
        c-0.207-0.086-0.383-0.242-0.442-0.429l-1.262-4c-0.087-0.276,0.107-0.5,0.435-0.5S11.101,7.214,11.188,7.49z M7.493,9.99
        c-0.828,0-1.5-0.672-1.5-1.5c0-0.76,0.573-1.361,1.306-1.461C7.358,7.004,7.424,6.99,7.493,6.99h0.5h0.5c0.276,0,0.5,0.224,0.5,0.5
        s-0.224,0.5-0.5,0.5h-0.5h-0.5c-0.276,0-0.5,0.224-0.5,0.5s0.224,0.5,0.5,0.5h0.1v0.021c0.779,0.054,1.4,0.687,1.4,1.479
        c0,0.76-0.573,1.361-1.306,1.461c-0.06,0.025-0.125,0.039-0.194,0.039h-0.5h-0.5c-0.276,0-0.5-0.224-0.5-0.5s0.224-0.5,0.5-0.5h0.5
        h0.5c0.276,0,0.5-0.224,0.5-0.5S7.77,9.99,7.493,9.99z M21.993,12.922c0,1.694-0.217,2.215-1.568,3.493
        c-0.04,0.038-0.063,0.076-0.096,0.114l-5.175,5.136c-1.151,1.041-1.626,1.332-3.115,1.332H5.638c-0.903,0-1.637-0.703-1.637-1.571
        v-7.428h2.003v6.984h4.959c0.011,0,0.021,0.003,0.032,0.003c1.106,0,2.004-0.888,2.009-1.983h0.001v-0.003c0-0.002,0-0.004,0-0.007
        c0-0.002,0-0.004,0-0.006V15.52c0-0.851,0.758-1.539,1.692-1.539h3.31v-0.004c1.092-0.004,1.977-0.883,1.987-1.972h0.003V2.983
        H6.004v1.999H4.001V2.571C4.001,1.703,4.734,1,5.638,1h14.727C21.268,1,22,1.703,22,2.571v10.283
        C21.999,12.878,21.993,12.897,21.993,12.922z M4.993,7.49c0,0.276-0.224,0.5-0.5,0.5c-0.828,0-1.5,0.672-1.5,1.5s0.672,1.5,1.5,1.5
        c0.276,0,0.5,0.224,0.5,0.5s-0.224,0.5-0.5,0.5c-1.381,0-2.5-1.119-2.5-2.5s1.119-2.5,2.5-2.5C4.77,6.99,4.993,7.214,4.993,7.49z"/>
</svg>
