<svg xmlns="http://www.w3.org/2000/svg" width="24" height="24" viewBox="0 0 24 24">
    <path d="M12.5,11.99c-0.276,0-0.5-0.224-0.5-0.5v-4c0-0.276,0.224-0.5,0.5-0.5h3
        c0.276,0,0.5,0.224,0.5,0.5s-0.224,0.5-0.5,0.5H13v1h1.5c0.276,0,0.5,0.224,0.5,0.5s-0.224,0.5-0.5,0.5H13v1.5
        C13,11.767,12.776,11.99,12.5,11.99z M8.5,6.99c1.381,0,2.5,1.119,2.5,2.5s-1.119,2.5-2.5,2.5H7.6V11.97
        c-0.033,0.007-0.064,0.021-0.1,0.021c-0.276,0-0.5-0.224-0.5-0.5v-4c0-0.276,0.224-0.5,0.5-0.5c0.035,0,0.066,0.014,0.1,0.021V6.99
        H8.5z M8,10.99c0,0,0.383,0,0.5,0c0.828,0,1.5-0.672,1.5-1.5s-0.672-1.5-1.5-1.5c-0.128,0-0.5,0-0.5,0V10.99z M22,12.922
        c0,1.694-0.217,2.215-1.568,3.493c-0.04,0.038-0.063,0.076-0.096,0.114l-5.175,5.136c-1.151,1.041-1.626,1.332-3.115,1.332H5.645
        c-0.903,0-1.637-0.703-1.637-1.571v-7.428h2.003v6.984h4.959c0.011,0,0.021,0.003,0.032,0.003c1.106,0,2.004-0.888,2.009-1.983
        h0.001V19c0-0.003,0-0.005,0-0.008c0-0.002,0-0.004,0-0.007V15.52c0-0.851,0.758-1.539,1.692-1.539h3.31v-0.004
        c1.092-0.004,1.977-0.883,1.987-1.972h0.003V2.983H6.011v1.999H4.008V2.571C4.008,1.703,4.741,1,5.645,1h14.727
        c0.903,0,1.636,0.703,1.636,1.571v10.284C22.006,12.879,22,12.897,22,12.922z M4.5,6.99c0.828,0,1.5,0.672,1.5,1.5
        s-0.672,1.5-1.5,1.5H3v1.5c0,0.276-0.224,0.5-0.5,0.5S2,11.767,2,11.49v-4c0-0.276,0.224-0.5,0.5-0.5
        c0.011,0,0.021,0.006,0.031,0.006V6.99H4.5z M3,8.99h1.5c0.276,0,0.5-0.224,0.5-0.5s-0.224-0.5-0.5-0.5H3V8.99z"/>
</svg>
