<svg xmlns="http://www.w3.org/2000/svg" width="24" height="24" viewBox="0 0 24 24">
    <path d="M11.493,11.99c-0.276,0-0.5-0.224-0.5-0.5v-3.5h-0.5c-0.276,0-0.5-0.224-0.5-0.5
        s0.224-0.5,0.5-0.5h2c0.276,0,0.5,0.224,0.5,0.5s-0.224,0.5-0.5,0.5h-0.5v3.5C11.993,11.767,11.77,11.99,11.493,11.99z M6.217,7.054
        c0.221-0.141,0.513-0.037,0.653,0.23l0.623,1.191l0.623-1.191c0.141-0.268,0.433-0.371,0.653-0.23s0.286,0.472,0.146,0.74
        l-0.89,1.701l0.873,1.669c0.14,0.268,0.074,0.6-0.146,0.74s-0.514,0.037-0.653-0.23l-0.606-1.16l-0.606,1.16
        c-0.14,0.268-0.433,0.371-0.653,0.23s-0.286-0.473-0.146-0.74L6.96,9.495L6.07,7.794C5.931,7.525,5.996,7.194,6.217,7.054z
         M21.993,12.922c0,1.694-0.217,2.215-1.568,3.493c-0.04,0.038-0.063,0.076-0.096,0.114l-5.175,5.136
        c-1.151,1.041-1.626,1.332-3.115,1.332H5.638c-0.903,0-1.637-0.703-1.637-1.571v-7.428h2.003v6.984h4.959
        c0.011,0,0.021,0.003,0.032,0.003c1.106,0,2.004-0.888,2.009-1.983h0.001V19c0-0.003,0-0.005,0-0.008c0-0.002,0-0.004,0-0.007V15.52
        c0-0.851,0.758-1.539,1.692-1.539h3.31v-0.004c1.092-0.004,1.977-0.883,1.987-1.972h0.003V2.983H6.004v1.999H4.001V2.571
        C4.001,1.703,4.734,1,5.638,1h14.727C21.268,1,22,1.703,22,2.571v10.284C21.999,12.879,21.993,12.897,21.993,12.922z M4.993,7.49
        c0,0.276-0.224,0.5-0.5,0.5h-0.5v3.5c0,0.276-0.224,0.5-0.5,0.5s-0.5-0.224-0.5-0.5v-3.5h-0.5c-0.276,0-0.5-0.224-0.5-0.5
        s0.224-0.5,0.5-0.5h2C4.77,6.99,4.993,7.214,4.993,7.49z"/>
</svg>
