<svg xmlns="http://www.w3.org/2000/svg" width="24" height="24" viewBox="0 0 24 24">
    <path d="M19.645,14.75c-0.833-1.842-3.04-2.83-5.645-3.573V5.244
        c1.449,0.493,1.813,1.618,1.877,2.429c0.272,0.762,0.938,0.88,1.756,0.921h1.288c0.754-0.099,1.357-0.496,1.051-1.749
        C19.33,5.049,17.765,2.42,14,1.729V1.169C14,0.34,13.105,0,12.004,0c-1.103,0-1.996,0.34-1.996,1.169v0.525
        c-5.2,0.786-6.032,4.602-5.908,6.327c0.156,2.16,2.147,4.161,5.908,5.521v5.271c-1.62-0.506-2.142-1.618-2.277-2.555
        c-0.003-0.012-0.012-0.015-0.012-0.03c-0.043-1.015-0.59-1.434-1.686-1.479c-1.045-0.043-2.168-0.141-1.93,1.562
        c0.329,1.993,1.538,5.25,5.905,5.974v0.595c0,0.828,0.893,1.122,1.996,1.122C13.105,24,14,23.706,14,22.878v-0.604
        C18.986,21.464,21.046,17.852,19.645,14.75z M10.009,10.017C8.275,9.241,7.825,8.223,7.866,7.39
        c0.05-1.021,0.812-1.749,2.143-2.119V10.017z M14,18.988V14.75c1.106,0.375,1.874,0.759,2.048,1.201
        C16.716,17.662,16.206,18.677,14,18.988z"/>
</svg>
