<svg xmlns="http://www.w3.org/2000/svg" width="24" height="24" viewBox="0 0 24 24">
    <path d="M21.699,14.99h-2.412c-0.166,0-0.301,0.146-0.301,0.324v1.378
        c0,0.014,0.012,0.022,0.014,0.035v2.279H5v-2.277c0.002-0.014,0.014-0.022,0.014-0.037v-1.378c0-0.179-0.135-0.324-0.301-0.324
        H2.301C2.135,14.99,2,15.136,2,15.314v3.692c0,1.679,1.377,2.989,3.077,2.989h13.846c1.7,0,3.077-1.36,3.077-3.039v-3.643
        C22,15.136,21.865,14.99,21.699,14.99z M8.417,13.425c1.077,1.102,2.34,2.017,2.833,2.358c0.219,0.151,0.484,0.228,0.75,0.228
        c0.265,0,0.529-0.075,0.748-0.227c0.613-0.425,1.797-1.295,2.832-2.354c1.133-1.158,2.029-2.516,2.277-2.903
        c0.203-0.318,0.196-0.704-0.019-1.017c-0.215-0.312-0.605-0.503-1.027-0.503h-1.825V4.502C14.986,3.673,14.317,3,13.493,3h-2.986
        C9.683,3,9.014,3.673,9.014,4.502v4.505H7.188c-0.421,0-0.812,0.191-1.026,0.503s-0.223,0.697-0.021,1.015
        C6.386,10.909,7.272,12.254,8.417,13.425z"/>
</svg>
