<svg xmlns="http://www.w3.org/2000/svg" width="24" height="24" viewBox="0 0 24 24">
    <path d="M9.918,2.95h4.164v1.025h2.396V3.196C16.479,1.983,15.477,1,14.239,1H9.761
        C8.523,1,7.521,1.983,7.521,3.196v0.779h2.396V2.95z M19.188,5H4.812C3.93,5,3.215,5.79,3.215,6.765v0.882
        c0,0.72,0.391,1.337,0.951,1.611l1.512,11.559c0,1.348,0.955,2.146,2.278,2.146h8.08c1.323,0,2.22-0.799,2.22-2.146l1.569-11.553
        c0.564-0.272,0.96-0.893,0.96-1.617V6.765C20.785,5.79,20.07,5,19.188,5z M17.487,9.464h-0.456
        c-0.001,0.032,0.008,0.047,0.003,0.085l-1.249,9.974c-0.074,0.536-0.482,0.492-0.912,0.492c-0.431,0-0.719,0.044-0.646-0.492
        l0.952-9.974c0.005-0.033,0.018-0.057,0.027-0.085H13.01c0.005,0.032,0.023,0.047,0.023,0.085l-0.334,9.974
        c0,0.536-0.128,0.492-0.699,0.492c-0.57,0-0.662,0.044-0.662-0.492l-0.371-9.974c0-0.038,0.019-0.053,0.023-0.085H8.793
        c0.01,0.028,0.022,0.052,0.027,0.085l0.952,9.974c0.073,0.536-0.215,0.492-0.646,0.492c-0.43,0-0.838,0.044-0.912-0.492
        L6.966,9.549C6.96,9.511,6.97,9.496,6.969,9.464H6.513V9.411H6.97c0.006-0.36,0.261-0.332,0.641-0.332
        c0.387,0,0.994-0.05,1.165,0.332h2.228c0.09-0.36,0.491-0.332,0.996-0.332c0.506,0,0.906-0.028,0.996,0.332h2.228
        c0.171-0.382,0.778-0.332,1.165-0.332c0.38,0,0.635-0.028,0.641,0.332h0.458V9.464z"/>
</svg>
