<svg xmlns="http://www.w3.org/2000/svg" width="24" height="24" viewBox="0 0 24 24">
    <path d="M21.268,2.72c-3.17-3.167-4.829-1.164-5.345-0.648
        c-0.002,0.001-0.002,0.004-0.003,0.006L3.266,14.727c-0.189,0.209-0.316,0.408-0.444,0.736l-1.168,3.355L1,21.902
        c0.005,0,0.01,0,0.016,0c-0.025,0.297,0.06,0.592,0.273,0.807c0.214,0.217,0.506,0.301,0.799,0.275c-0.001,0.004,0,0.01,0,0.016
        l2.889-0.617l2.994-1.02c0.641-0.232,1.42-0.746,1.781-1.113c0.003-0.004,0.009-0.006,0.012-0.01l8.747-8.749
        c0.013-0.009,0.034-0.009,0.045-0.021s0.011-0.032,0.021-0.045l1.831-1.831c0.019-0.015,0.047-0.019,0.063-0.036
        c0.018-0.017,0.021-0.045,0.036-0.064l1.397-1.397c0.009-0.007,0.023-0.008,0.031-0.016C22.451,7.566,24.439,5.887,21.268,2.72z
         M7.979,20.064c-1.281,0.541-3.505,1.266-3.505,1.266l-1.742-1.74c0,0,0.658-2.152,1.203-3.441C4.27,15.355,4.6,15.174,4.6,15.174
        c0.758,0.354,1.655,0.971,2.455,1.768c0.837,0.836,1.468,1.766,1.814,2.533C8.869,19.475,8.492,19.85,7.979,20.064z M7.629,14.73
        c0,0-0.349-0.264-0.703-0.467c-0.34-0.197-0.684-0.334-0.684-0.334l9.121-9.107c0,0,0.324,0.076,0.621,0.272
        c0.355,0.236,0.693,0.602,0.693,0.602L7.629,14.73z M21.307,6.531L21.307,6.531c-0.007,0.007-0.008,0.017-0.015,0.023
        c-0.006,0.006-0.016,0.008-0.022,0.014l-1.056,1.061c-0.364-0.678-0.927-1.437-1.658-2.167c-0.732-0.731-1.493-1.293-2.173-1.657
        l1.084-1.083l0.003,0.002c0.458-0.44,1.675,0.048,2.728,1.098C21.239,4.863,21.727,6.062,21.307,6.531z"/>
</svg>
