<svg xmlns="http://www.w3.org/2000/svg" width="24" height="24" viewBox="0 0 24 24">
    <path d="M3.014,7.125v1.638c1.194-0.401,2.677-0.746,4.264-0.746
        c1.303,0,2.146,0.238,2.717,0.549V6.845c-0.676-0.225-1.527-0.38-2.631-0.388C5.583,6.444,4.143,6.74,3.014,7.125z M3.014,10.213
        v1.388c1.194-0.401,2.677-0.746,4.264-0.746c1.303,0,2.146,0.239,2.717,0.549v-1.47C9.319,9.709,8.468,9.553,7.364,9.545
        C5.583,9.533,4.143,9.828,3.014,10.213z M3.014,13.018v1.637c1.194-0.4,2.677-0.744,4.264-0.744c1.303,0,2.146,0.238,2.717,0.549
        v-1.722c-0.676-0.224-1.527-0.38-2.631-0.388C5.583,12.337,4.143,12.632,3.014,13.018z M23.987,7.389
        c-0.018-1.334-0.212-2.471-2.107-3.407c-0.007-0.003-0.009-0.008-0.016-0.012c-1.162-0.515-2.824-0.975-5.068-0.959
        c-3.352,0.023-4.411,1.415-4.698,1.958h-0.195c-0.297-0.544-1.38-1.935-4.695-1.958c-2.19-0.016-3.85,0.446-5.022,0.962
        C2.181,3.977,2.179,3.98,2.174,3.982C0.226,4.944,0.029,6.117,0.017,7.499v10.016c0,0.008,0.004,0.013,0.004,0.021
        c0,1.351-0.004,2.168,1.13,2.374c1.301-0.567,3.448-0.946,5.143-0.946c1.76,0,3.277,0.413,4.089,1.018h3.226
        c0.816-0.604,2.342-1.018,4.103-1.018c1.786,0,3.916,0.383,5.188,0.953c1.148-0.206,1.084-1.039,1.084-2.381
        c0-0.008,0.004-0.013,0.004-0.021V7.389z M11.003,17.018c-0.702-0.516-1.869-1.002-3.795-1.016
        c-2.31-0.017-4.031,0.509-5.211,1.071V6.064c1.255-0.528,3.109-1.119,5.129-1.119c1.958,0,2.879,0.575,3.316,1.104
        c0.027-0.014,0.059,0,0.102,0.061c0.114,0.161,0.303,0.426,0.459,0.783V17.018z M22.001,17.045
        c-1.166-0.551-2.872-1.059-5.205-1.043c-1.947,0.013-3.115,0.5-3.812,1.015V6.87c0.015-0.069,0.055-0.216,0.157-0.402h0.01
        c0,0,0-0.008,0.002-0.021c0.325-0.583,1.233-1.502,3.728-1.502c2.126,0,3.889,0.587,5.121,1.113V17.045z M14.116,7.025v0.386
        v1.282v1.379v0.959v0.38c0.57-0.301,1.309-0.533,2.611-0.533c1.586,0,3.068,0.335,4.264,0.724v-0.571v-0.688V8.884V7.411V7.296
        c-1.129-0.374-2.568-0.758-4.35-0.745C15.538,6.558,14.792,6.808,14.116,7.025z M14.116,12.82v1.668
        c0.57-0.301,1.309-0.531,2.611-0.531c1.586,0,3.068,0.334,4.264,0.723v-1.588c-1.129-0.374-2.568-0.659-4.35-0.647
        C15.538,12.452,14.792,12.603,14.116,12.82z"/>
</svg>
