<svg xmlns="http://www.w3.org/2000/svg" width="24" height="24" viewBox="0 0 24 24">
    <path d="M15.275,13.877c-1.791,0.725-3.243,1.773-3.382,2.243l-0.027,0.011l-0.027-0.011
        c-0.14-0.47-1.592-1.519-3.382-2.243C6.574,13.115,5,13.012,5,13.439c0,0.069,0.056,0.157,0.134,0.253l0,2.242
        C5.049,16.193,5,16.458,5,16.73C5,19.09,8,21,11.866,21c3.67,0,6.674-1.722,6.971-3.914h0.029v-0.354V16.73v-0.001l-0.001-3.159
        c0.027-0.046,0.057-0.093,0.057-0.131C18.922,13.012,17.158,13.115,15.275,13.877z M23.93,16.977L23,14.045v-1.509l0.007-0.013
        c0,0,0.12-1.459-0.755-2.489l1.024-0.396c0.797-0.321,0.702-0.944,0.159-1.164c-0.005-0.002-0.007-0.006-0.012-0.009l-11.17-4.316
        c-0.004,0.001-0.01,0.001-0.015,0.003c-0.11-0.04-0.232-0.068-0.372-0.068s-0.262,0.029-0.372,0.068
        c-0.005-0.001-0.011-0.001-0.016-0.003L0.309,8.465C0.304,8.468,0.302,8.472,0.297,8.474c-0.542,0.22-0.636,0.842,0.158,1.164
        l11.023,4.259c0.006-0.002,0.014-0.002,0.02-0.004c0.109,0.042,0.231,0.072,0.37,0.072s0.26-0.03,0.37-0.072
        c0.005,0.002,0.013,0.002,0.019,0.004l7.185-2.776c-0.255-0.304-0.648-0.429-1.291-0.608l-6.304-1.7l-0.001-0.05
        c0.01,0.007,0.021,0.016,0.021,0.016s-0.146-1.167,1.05-0.773c0.093,0.031,0.166,0.046,0.23,0.055l5.451,1.375
        c0.032,0.011,0.052,0.026,0.087,0.036c2.252,0.625,3.309,2.037,3.317,3.033H22v1.543l-0.93,2.932
        C21.029,17.048,21,17.121,21,17.199c0,0.428,0.672,0.773,1.5,0.773s1.5-0.346,1.5-0.773C24,17.121,23.971,17.048,23.93,16.977z"/>
</svg>
