<svg xmlns="http://www.w3.org/2000/svg" width="24" height="24" viewBox="0 0 24 24">
    <path d="M6,12.999H4v2h2V12.999z M6,9.999H4v2h2V9.999z M23.973,9.129
        c-0.003-0.043-0.009-0.087-0.012-0.13c-1.764,0-4.428,0-4.428,0c-1.239,0-2.533,1.255-2.533,2l-0.245,0.087
        c0.143,0.087,0.243,0.238,0.243,0.417c0,0.273-0.223,0.496-0.498,0.496s-0.499-0.223-0.499-0.496c0-0.057,0.015-0.109,0.032-0.159
        L16,11.355c0-1.849,0.67-3.356,3.143-3.356h4.73c-0.099-1.128-0.222-2.257-0.398-3.385c-0.143-0.862-1.125-1.762-2.013-1.951
        c-4.319-0.89-8.03-0.89-12.351,0c-0.888,0.189-1.75,1.089-1.893,1.951c-0.072,0.461-0.131,0.923-0.19,1.385H0.823
        C0.369,5.999,0,6.363,0,6.812v11.375c0,0.449,0.369,0.812,0.823,0.812h6.206c0.06,0.461,0.117,0.922,0.189,1.383
        c0.143,0.862,1.005,1.762,1.893,1.951c4.32,0.889,8.031,0.889,12.351,0c0.888-0.189,1.87-1.089,2.013-1.951
        c0.183-1.162,0.318-2.324,0.42-3.486C24.536,16.654,25,16,25,15.222v-4.445C25,10.029,24.574,9.393,23.973,9.129z M8,16.999H2v-9
        h6V16.999z M21.496,13.99c-0.836,0-1.514-0.67-1.514-1.496s0.678-1.496,1.514-1.496c0.837,0,1.515,0.67,1.515,1.496
        S22.333,13.99,21.496,13.99z"/>
</svg>
