<svg xmlns="http://www.w3.org/2000/svg" width="24" height="24" viewBox="0 0 24 24">
    <path d="M22.509,2.384l-8.675-2.329c-1.065-0.286-2.159,0.347-2.445,1.414L9.108,10H11
        c1.657,0,3,1.343,3,3v0.559l5.151,1.383c1.064,0.285,2.159-0.348,2.444-1.414l2.324-8.694C24.205,3.767,23.573,2.67,22.509,2.384z
         M13.758,4.405c-0.749-0.232-1.168-1.028-0.937-1.778c0.232-0.75,1.027-1.169,1.776-0.938s1.168,1.028,0.937,1.778
        C15.302,4.217,14.507,4.637,13.758,4.405z M16.26,8.697c-0.749-0.232-1.168-1.028-0.936-1.778c0.231-0.75,1.026-1.169,1.775-0.937
        c0.749,0.232,1.169,1.028,0.937,1.778C17.805,8.509,17.009,8.929,16.26,8.697z M20.381,12.216
        c-0.231,0.75-1.027,1.169-1.775,0.938c-0.75-0.233-1.169-1.029-0.937-1.779c0.231-0.75,1.026-1.169,1.775-0.938
        C20.193,10.67,20.613,11.466,20.381,12.216z M11,11H2c-1.104,0-2,0.896-2,2v9c0,1.105,0.896,2,2,2h9c1.104,0,2-0.895,2-2v-9
        C13,11.896,12.104,11,11,11z M3.131,22.439c-0.837,0-1.515-0.68-1.515-1.516c0-0.838,0.678-1.518,1.515-1.518
        c0.836,0,1.515,0.68,1.515,1.518C4.646,21.76,3.967,22.439,3.131,22.439z M3.131,15.615c-0.837,0-1.515-0.678-1.515-1.516
        c0-0.837,0.678-1.516,1.515-1.516c0.836,0,1.515,0.679,1.515,1.516C4.646,14.938,3.967,15.615,3.131,15.615z M6.491,19.061
        c-0.829,0-1.501-0.672-1.501-1.502s0.672-1.502,1.501-1.502s1.501,0.672,1.501,1.502S7.32,19.061,6.491,19.061z M9.946,22.439
        c-0.837,0-1.515-0.68-1.515-1.516c0-0.838,0.678-1.518,1.515-1.518c0.836,0,1.514,0.68,1.514,1.518
        C11.46,21.76,10.782,22.439,9.946,22.439z M9.946,15.615c-0.837,0-1.515-0.678-1.515-1.516c0-0.837,0.678-1.516,1.515-1.516
        c0.836,0,1.514,0.679,1.514,1.516C11.46,14.938,10.782,15.615,9.946,15.615z"/>
</svg>
