<svg xmlns="http://www.w3.org/2000/svg" width="24" height="24" viewBox="0 0 24 24">
    <path d="M15.918,8.289l1.396,0.145c0.639,0.614,1.324,0.996,1.881,0.996
        s1.241-0.382,1.88-0.996l2.92-0.301c0,0-0.559-2.928-1.008-4.833c-0.023-0.15-0.066-0.287-0.104-0.428
        C22.83,2.66,22.779,2.463,22.733,2.3c-0.005-0.019-0.013-0.003-0.019,0.027c-0.605-1.467-1.95-2.293-3.521-2.293
        s-2.915,0.826-3.521,2.293c-0.007-0.03-0.014-0.046-0.019-0.027c-0.047,0.164-0.098,0.36-0.15,0.572
        c-0.037,0.141-0.079,0.278-0.104,0.428c-0.269,1.139-0.573,2.634-0.778,3.66C15.122,7.318,15.561,7.762,15.918,8.289z
         M16.703,3.526c0.686,0.598,1.6,0.441,2.547,0.441S21,4.125,21.686,3.526c0.071,0.272,0.121,0.562,0.121,0.885
        c0,1.781-1.613,3.733-2.612,3.733s-2.612-1.952-2.612-3.733C16.582,4.088,16.631,3.799,16.703,3.526z M11.994,17.852
        c1.555,0,4.066-2.832,4.066-5.562s-1.82-4.325-4.066-4.325S7.928,9.561,7.928,12.29S10.439,17.852,11.994,17.852z M9.306,12.055
        c0.589-0.35,1.065-0.848,1.413-1.431c0.777,0.987,2.238,1.661,3.935,1.661c0.017,0,0.032-0.003,0.049-0.003
        c0.001,0.021,0.005,0.04,0.005,0.062c0,1.85-1.676,3.877-2.713,3.877s-2.713-2.027-2.713-3.877
        C9.281,12.242,9.299,12.151,9.306,12.055z M14.537,18.416c-0.836,0.926-1.127,1.576-2.543,1.576c-1.419,0-1.71-0.652-2.548-1.582
        c-2.02,0.477-3.592,1.436-3.592,3.307c0,2.282,2.749,2.283,6.14,2.283s6.14-0.001,6.14-2.283
        C18.134,19.852,16.557,18.895,14.537,18.416z M21.185,10.041c-0.655,0.678-1.401,0.86-1.99,0.86c-0.491,0-0.871-0.146-1.437-0.581
        c0.159,0.596,0.247,1.248,0.247,1.955c0,0.562-0.082,1.126-0.217,1.682c0.51,0.017,0.833,0.02,1.406,0.02
        c2.653,0,4.806,0,4.806-1.67C24,10.942,22.766,10.393,21.185,10.041z M4.481,9.26c1.478,0,3.865-2.633,3.865-5.172
        s-1.73-4.022-3.865-4.022c-2.134,0-3.864,1.483-3.864,4.022S3.004,9.26,4.481,9.26z M4.481,7.998
        c-0.575,0-1.041-0.527-1.041-0.811c0-0.284,0.466-0.181,1.041-0.181s1.042-0.103,1.042,0.181C5.523,7.471,5.057,7.998,4.481,7.998
        z M1.869,4.036c0-0.061,0.012-0.114,0.014-0.173c0.6-0.322,1.082-0.809,1.428-1.384c0.713,0.906,2.053,1.526,3.61,1.526
        c0.058,0,0.112-0.01,0.17-0.012c0,0.015,0.003,0.028,0.003,0.043c0,0.596-0.189,1.144-0.467,1.699
        C6.058,5.989,5.283,6.29,4.512,6.29c-0.793,0-1.588-0.295-2.158-0.519C2.065,5.207,1.869,4.645,1.869,4.036z M5.983,12.275
        c0-0.727,0.116-1.377,0.284-1.986c-0.576,0.459-0.972,0.612-1.474,0.612c-0.59,0-1.339-0.185-1.994-0.863
        c-1.581,0.349-2.812,0.9-2.812,2.269c0,1.67,2.152,1.67,4.806,1.67c0.573,0,0.896-0.003,1.406-0.02
        C6.065,13.401,5.983,12.838,5.983,12.275z"/>
</svg>
