<svg xmlns="http://www.w3.org/2000/svg" width="24" height="24" viewBox="0 0 24 24">
    <path d="M23.311,20.591v-1.376c-0.021-2.201-1.831-1.045-2.85-0.333
        c-0.038,0.027-0.069,0.036-0.103,0.051c-1.275,0.833-2.792,1.329-4.435,1.329c-2.674,0-5.04-1.285-6.527-3.262h6.178
        c0.284,0,0.697-0.205,0.839-0.453l1.38-2.343c0.141-0.247,0.242-0.551,0.101-0.798c-0.142-0.246-0.402-0.398-0.685-0.398H7.812
        c-0.03-0.283-0.047-0.57-0.047-0.861c0-0.049,0.006-0.097,0.007-0.146h11.038c0.277,0,0.634-0.152,0.772-0.4l1.305-2.395
        c0.138-0.247,0.138-0.552-0.001-0.798c-0.14-0.246-0.396-0.398-0.672-0.398h-11.3c1.422-2.378,4.025-3.977,7.009-3.977
        c1.91,0,3.657,0.661,5.045,1.756c0.042-0.001,0.093,0.02,0.154,0.08c0.554,0.546,1.15,0.744,1.641-0.11
        c0.008-0.013,0.016-0.018,0.023-0.029l0.743-1.287c0.004-0.006,0.005-0.012,0.009-0.019c0.441-0.67,0.359-1.225-0.24-1.739
        c-2.036-1.579-4.592-2.523-7.375-2.523c-5.191,0-9.602,3.271-11.298,7.849H3.188c-0.245,0-0.476,0.119-0.622,0.321l-1.419,2.395
        c-0.176,0.242-0.203,0.565-0.071,0.836C1.208,11.83,1.476,12,1.77,12h2.11c0,0.049-0.007,0.097-0.007,0.146
        c0,0.291,0.023,0.576,0.043,0.861H2.602c-0.249,0-0.483,0.119-0.632,0.32l-1.811,2.395c-0.18,0.242-0.208,0.565-0.075,0.836
        C0.218,16.829,0.491,17,0.791,17h4.12c1.874,4.2,6.096,7.134,11.013,7.134c2.492,0,4.798-0.764,6.718-2.053
        C23.085,21.764,23.311,21.221,23.311,20.591z"/>
</svg>
