<svg xmlns="http://www.w3.org/2000/svg" width="24" height="24" viewBox="0 0 24 24">
    <path d="M22,0H9C7.758,0,7,0.771,7,2v5.363C6.941,7.39,6.883,7.414,6.82,7.448
        c-1.515,0.829-2.913,2.289-3.123,3.514c-0.181,1.058-0.088,2.598,1.371,2.569c0.442-0.009,1.379-0.089,1.3,0.26
        c-0.096,0.42-1.274,2.026-1.274,2.026l-2.996-1.086c0,0-1.832,0.06-0.773,2.461c0.728,1.65,2.324,4.009,5.675,3.711V22
        c0,1.257,0.709,2,2,2h11V3.295L9.002,2.013H20V2l2.014,0.012v21.987C23.264,23.993,24,23.236,24,22V2C24,0.759,23.258,0,22,0z
         M5.446,19.336c-1.384-0.419-3.198-2.802-3.198-2.802l0.347-0.529l2.609,1.864l1.565-1.843c0,0-0.11,0.789,0.437,1.285
        c0.615,0.558,1.071,0.782,1.071,0.782S6.002,19.504,5.446,19.336z M11.506,5.944c0.22-0.979,1.185-1.606,2.154-1.4
        c0.971,0.206,1.578,1.166,1.357,2.146c-0.221,0.979-1.186,1.605-2.155,1.399C11.893,7.883,11.286,6.923,11.506,5.944z
         M12.354,9.129l2.049,2.726l3.227-1.388l0.182,0.993c0,0-2.354,2.038-3.621,1.828c-0.967-0.159-2.432-1.308-2.432-1.308
        s-0.637,1.404-1.122,1.981c-0.471,0.56-1.029,1.139-1.029,1.139s2.846,1.634,3.27,2.712s-1.095,4.761-1.095,4.761l-0.792,0.604
        l0.073-4.778c0,0-1.958-0.992-2.783-1.737c-2.217-2.004,0.553-4.975,2.047-6.254C11.569,9.345,12.354,9.129,12.354,9.129z
         M10.05,8.938l-1.624,1.77l-0.891-0.093l-2.297,1.647l-0.263-0.63c0,0,0.643-1.397,2.238-2.304
        C8.74,8.461,10.05,8.938,10.05,8.938z"/>
</svg>
