<svg xmlns="http://www.w3.org/2000/svg" width="24" height="24" viewBox="0 0 24 24">
    <path d="M22.263,18H1.728c-0.405,0-0.733,0.297-0.733,0.664v0.664
        c0,0.367,0.328,0.666,0.733,0.666h3.262c0,0.001,0,0.001,0,0.002c0,1.102,0.84,1.994,1.876,1.994h11.258
        c1.037,0,1.877-0.893,1.877-1.994c0-0.001,0-0.001,0-0.002h2.262c0.404,0,0.733-0.299,0.733-0.666v-0.664
        C22.996,18.297,22.667,18,22.263,18z M23.624,7.668c0,0-0.783-0.67-1.951-1.546l-0.01-0.136h-0.171
        c-0.79-0.586-1.737-1.25-2.745-1.871C16.151,2.516,13.17,1.23,13.17,1.23c-0.218-0.134-0.494-0.182-0.777-0.195
        c-0.126-0.019-0.258-0.032-0.396-0.032s-0.269,0.013-0.396,0.032c-0.282,0.013-0.557,0.062-0.773,0.195
        c0,0-2.981,1.286-5.577,2.885C4.244,4.735,3.296,5.399,2.505,5.986H2.383L2.376,6.083C1.178,6.979,0.374,7.668,0.374,7.668
        c-0.498,0.307-0.498,0.804,0,1.11c0.189,0.117,0.424,0.169,0.667,0.193C1.014,9.131,0.994,9.307,0.994,9.524
        c0,1.19,0.446,1.435,1.042,1.479L1.76,15.002H1.693c-0.358,0-0.649,0.447-0.649,1C1.044,16.553,0.808,17,1.28,17h3.421
        c0.473,0,0.238-0.447,0.238-0.998c0-0.553-0.291-1-0.649-1H4.286l-0.277-4.007c0.564-0.058,0.98-0.324,0.98-1.471
        c0-0.201-0.016-0.368-0.04-0.519h2.085c-0.024,0.151-0.04,0.318-0.04,0.519c0,1.19,0.446,1.435,1.042,1.479l-0.276,3.999H7.693
        c-0.358,0-0.649,0.447-0.649,1C7.044,16.553,6.808,17,7.28,17h3.421c0.473,0,0.238-0.447,0.238-0.998c0-0.553-0.291-1-0.649-1
        h-0.004l-0.277-4.007c0.564-0.058,0.98-0.324,0.98-1.471c0-0.201-0.016-0.368-0.04-0.519h2.085
        c-0.024,0.151-0.04,0.318-0.04,0.519c0,1.191,0.447,1.435,1.043,1.479l-0.276,3.999h-0.067c-0.358,0-0.648,0.447-0.648,1
        c0,0.551-0.237,0.998,0.234,0.998h3.422c0.473,0,0.238-0.447,0.238-0.998c0-0.553-0.291-1-0.649-1h-0.004l-0.277-4.007
        c0.563-0.058,0.98-0.324,0.98-1.471c0-0.201-0.016-0.368-0.04-0.519h2.085c-0.024,0.151-0.04,0.318-0.04,0.519
        c0,1.191,0.447,1.435,1.043,1.479l-0.276,3.999h-0.067c-0.358,0-0.649,0.447-0.649,1c0,0.551-0.236,0.998,0.236,0.998h3.421
        c0.473,0,0.238-0.447,0.238-0.998c0-0.553-0.291-1-0.649-1h-0.004l-0.277-4.007c0.563-0.058,0.98-0.324,0.98-1.471
        c0-0.217-0.02-0.393-0.047-0.552c0.248-0.022,0.488-0.074,0.682-0.193C24.122,8.472,24.122,7.975,23.624,7.668z M11.995,6.406
        c-0.771,0-1.395-0.623-1.395-1.393c0-0.769,0.625-1.393,1.395-1.393s1.396,0.624,1.396,1.393
        C13.391,5.783,12.766,6.406,11.995,6.406z"/>
</svg>
