<svg xmlns="http://www.w3.org/2000/svg" width="24" height="24" viewBox="0 0 24 24">
    <path d="M23.771,17.262l-1.211-1.484c0.01-0.014,0.023-0.029,0.033-0.043
        c1.32-1.702-0.988-2.37-2.461-1.017c-1.533,1.675-4.295,3.368-8.129,3.275c-3.834,0.093-6.595-1.601-8.129-3.275
        c-1.471-1.354-3.78-0.686-2.46,1.017c0.01,0.014,0.023,0.028,0.034,0.042l-1.212,1.485c-0.407,0.5-0.277,1.194,0.292,1.553
        c0.569,0.357,1.361,0.242,1.769-0.257l0.823-1.008c0.475,0.43,1.018,0.865,1.63,1.279l-0.634,1.384
        c-0.304,0.664,0.047,1.426,0.785,1.7c0.738,0.273,1.583-0.042,1.888-0.707l0.476-1.038c0.975,0.387,2.057,0.665,3.239,0.782v1.361
        c0,0.933,0.672,1.688,1.5,1.688s1.5-0.756,1.5-1.688V20.95c1.182-0.117,2.266-0.396,3.24-0.782l0.477,1.038
        c0.303,0.665,1.148,0.98,1.887,0.707c0.738-0.274,1.088-1.036,0.785-1.7l-0.635-1.384c0.611-0.414,1.156-0.85,1.631-1.279
        l0.822,1.008c0.408,0.499,1.199,0.614,1.768,0.257C24.049,18.456,24.18,17.762,23.771,17.262z"/>
</svg>
