<svg xmlns="http://www.w3.org/2000/svg" width="24" height="24" viewBox="0 0 24 24">
    <path d="M19.857,2.003H4.143C2.959,2.003,2,2.961,2,4.144v15.702
        c0,1.183,0.959,2.141,2.143,2.141h8.865v-7.01h-1.273c-0.4,0-0.725-0.313-0.725-0.7v-1.673c0-0.387,0.325-0.7,0.725-0.7h1.273
        v-1.399c0-2.264,0.243-3.567,3.08-3.567h2.178c0.4,0,0.726,0.313,0.726,0.7V9.31c0,0.387-0.325,0.7-0.726,0.7h-1.52
        c-1.105,0-0.717,0.198-0.717,0.922l-0.004,0.972h1.309c0.401,0,0.727,0.313,0.727,0.7v1.673c0,0.387-0.325,0.7-0.727,0.7H16.02
        v7.01h3.838c1.184,0,2.143-0.958,2.143-2.141V4.144C22,2.961,21.041,2.003,19.857,2.003z"/>
</svg>
