<svg xmlns="http://www.w3.org/2000/svg"	width="24" height="24" viewBox="0 0 24 24">
    <path d="M23.645,8.92c-0.172-0.529-0.668-0.889-1.23-0.892l-7.018,0.009l-2.161-6.614c-0.172-0.532-0.673-0.894-1.239-0.894
        c-0.565,0.001-1.066,0.362-1.238,0.895L8.604,8.042H1.585c-0.562,0.004-1.059,0.364-1.23,0.893
        c-0.172,0.529,0.02,1.107,0.475,1.434l5.692,4.172l-2.188,6.785c-0.172,0.533,0.025,1.114,0.487,1.438
        C5.047,22.922,5.311,23,5.574,23c0.275,0,0.551-0.087,0.782-0.259l5.647-4.201l5.652,4.194c0.23,0.172,0.506,0.258,0.781,0.258
        c0.264,0,0.527-0.079,0.753-0.237c0.462-0.324,0.658-0.906,0.486-1.439l-2.192-6.783l5.688-4.179
        C23.627,10.026,23.817,9.448,23.645,8.92z M14.492,13.279l1.879,5.731l-4.355-3.613L7.66,19.011l1.879-5.731L4.644,9.994
        l5.95,0.004l1.368-4.249l0.033-0.231l0.021,0.063l0.021-0.063l0.033,0.231l1.368,4.249l5.825-0.004L14.492,13.279z"/>
</svg>
