<svg xmlns="http://www.w3.org/2000/svg" width="24" height="24" viewBox="0 0 24 24">
    <path d="M20,2.75C20,2.336,19.654,2,19.228,2H4.772C4.346,2,4,2.336,4,2.75v19.5
        C4,22.664,4.346,23,4.772,23H12.5v-0.051c1.416-0.239,2.497-1.464,2.497-2.949v-1.25c0-0.414,0.346-0.75,0.772-0.75h1.14v-0.01
        c0.032,0.002,0.062,0.01,0.094,0.01C18.658,18,20,16.657,20,15c0-0.086-0.018-0.166-0.025-0.25H20V2.75z M7.823,5h3.342
        C11.626,5,12,5.448,12,6c0,0.553-0.374,1-0.835,1H7.823C7.361,7,6.988,6.553,6.988,6C6.988,5.448,7.361,5,7.823,5z M16.26,15
        H7.741c-0.416,0-0.752-0.447-0.752-1c0-0.552,0.336-1,0.752-1h8.519c0.415,0,0.751,0.448,0.751,1
        C17.011,14.553,16.675,15,16.26,15z M16.26,11H7.741c-0.416,0-0.752-0.447-0.752-1c0-0.552,0.336-1,0.752-1h8.519
        c0.415,0,0.751,0.448,0.751,1C17.011,10.553,16.675,11,16.26,11z"/>
</svg>
