<svg xmlns="http://www.w3.org/2000/svg" width="24" height="24" viewBox="0 0 24 24">
    <path d="M22,9.739c0-0.78-0.481-1.763-1.074-2.195l-0.15-0.109
        c-0.02-0.024-0.029-0.052-0.052-0.074l-3.096-3.106c-0.375-0.375-0.981-0.375-1.355,0c-0.375,0.376-0.375,0.985,0,1.36
        l1.719,1.724v1.925c0,0.78,0.48,1.763,1.074,2.195l0.776,0.565c0.032,1.242-0.167,2.592-0.925,3.651
        c-0.876,1.226-2.46,1.288-3.917,1.002V3.539C15,2.689,14.304,2,13.444,2H3.556C2.696,2,2,2.689,2,3.539v16.922
        C2,21.311,2.696,22,3.556,22h9.889C14.304,22,15,21.311,15,20.461v-1.544c1.634,0.223,3.48,0.026,4.95-1.353
        c1.558-1.461,2.006-3.455,2.035-5.203C21.992,12.304,22,12.249,22,12.185V9.739z M9.91,9.005C9.704,8.419,9.154,7.998,8.501,7.998
        S7.298,8.419,7.092,9.005H4.051c0.252-2.242,2.136-3.991,4.45-3.991s4.197,1.749,4.45,3.991H9.91z"/>
</svg>
