<svg xmlns="http://www.w3.org/2000/svg" width="24" height="24" viewBox="0 0 24 24">
    <path d="M20.724,3H3.275C2.019,3,1,4.007,1,5.25v13.5C1,19.992,2.019,21,3.275,21h17.448
        C21.981,21,23,19.992,23,18.75V5.25C23,4.007,21.981,3,20.724,3z M4.994,18.082c-0.663,0-1.144-0.369-1.144-1.033
        s0.48-1.032,1.144-1.032c0.662,0,1.199,0.368,1.199,1.032S5.656,18.082,4.994,18.082z M4.994,15.064
        c-0.663,0-1.144-0.426-1.144-1.09s0.48-1.032,1.144-1.032c0.662,0,1.199,0.368,1.199,1.032S5.656,15.064,4.994,15.064z
         M9.598,18.082c-0.662,0-1.199-0.369-1.199-1.033s0.537-1.032,1.199-1.032c0.663,0,1.2,0.368,1.2,1.032
        S10.261,18.082,9.598,18.082z M9.598,15.064c-0.662,0-1.199-0.426-1.199-1.09s0.537-1.032,1.199-1.032
        c0.663,0,1.2,0.368,1.2,1.032S10.261,15.064,9.598,15.064z M14.484,18.082c-0.662,0-1.199-0.369-1.199-1.033
        s0.537-1.032,1.199-1.032c0.663,0,1.2,0.368,1.2,1.032S15.147,18.082,14.484,18.082z M14.484,15.064
        c-0.662,0-1.199-0.426-1.199-1.09s0.537-1.032,1.199-1.032c0.663,0,1.2,0.368,1.2,1.032S15.147,15.064,14.484,15.064z
         M19.997,17.285c0,0.395-0.298,0.715-0.665,0.715h-0.665c-0.367,0-0.665-0.32-0.665-0.715v-3.57C18.002,13.32,18.3,13,18.667,13
        h0.665c0.367,0,0.665,0.32,0.665,0.715V17.285z M21.005,10H2.995V6h18.01V10z"/>
</svg>
