<svg xmlns="http://www.w3.org/2000/svg" width="24" height="24" viewBox="0 0 24 24">
    <path d="M9.604,18.021c-0.743,0-1.354,0.222-1.834,0.665s-0.741,1.057-0.783,1.838
        c-0.039,0.74,0.157,1.342,0.589,1.807s1.019,0.697,1.761,0.697c0.762,0,1.383-0.232,1.863-0.697
        c0.482-0.465,0.742-1.066,0.783-1.807c0.041-0.781-0.154-1.395-0.588-1.838S10.363,18.021,9.604,18.021z M17.768,3.39
        C13.877-0.619,7.952,1.4,5.627,2.427C5.609,2.443,5.595,2.461,5.57,2.473C4.917,2.79,4.886,3.24,5.171,3.958l0.846,1.644
        C6.033,5.619,6.05,5.633,6.063,5.658c0.329,0.676,0.786,0.69,1.529,0.365c0.946-0.449,2.404-1.01,3.931-1.071
        c2.58-0.104,3.908,1.608,1.865,3.618c-1.945,1.911-5.122,3.041-5.447,7.68l-0.005,0.006c0,0.421,0.337,0.762,0.753,0.762h2.826
        c0.416,0,0.754-0.341,0.754-0.762v-0.237c0.158-0.882,0.783-2.24,2.926-3.669C18.828,9.929,20.238,5.937,17.768,3.39z"/>
</svg>
