<svg xmlns="http://www.w3.org/2000/svg" width="24" height="24" viewBox="0 0 24 24">
    <path d="M22.645,11.005c-0.667-0.817-2.033-2.395-3.697-3.774
        c-1.818-1.509-3.948-2.703-4.558-3.034c-0.499-0.271-1.105-0.261-1.595,0.025c-0.49,0.287-0.791,0.807-0.791,1.369v2.411H2.905
        c-1.046,0-1.895,0.896-1.895,2.003v4.006c0,1.106,0.849,2.003,1.895,2.003h9.099v2.397c0,0.562,0.301,1.081,0.789,1.367
        c0.49,0.287,1.096,0.297,1.595,0.027c0.603-0.325,2.714-1.507,4.552-3.031c1.73-1.436,3.166-3.117,3.703-3.773
        C22.881,12.709,23,12.355,23,12.002S22.881,11.296,22.645,11.005z"/>
</svg>
