<svg xmlns="http://www.w3.org/2000/svg" width="24" height="24" viewBox="0 0 24 24">
    <path d="M22.469,17.45l-4.651-2.629c-0.514-0.29-1.237-0.081-1.627,0.482l-0.685,0.991
        c-0.001,0.002-0.002,0.002-0.003,0.003c-0.306,0.46-1.321,1.462-2.967,0.074c-0.008-0.007-0.015-0.008-0.021-0.015
        c-0.52-0.407-1.04-0.841-1.562-1.295c-1.171-1.163-2.239-2.351-3.178-3.524c-0.009-0.011-0.011-0.02-0.021-0.031
        C6.341,9.864,7.373,8.84,7.847,8.531c0.001,0,0.001-0.002,0.002-0.002l1.02-0.693C9.447,7.442,9.665,6.715,9.37,6.2L6.702,1.548
        C6.407,1.035,5.665,0.847,5.026,1.136L3.817,1.684C3.752,1.713,3.693,1.75,3.634,1.786C2.445,2.37,1.72,3.191,1.609,3.367
        C1.596,3.389,1.594,3.412,1.6,3.439c-1.782,2.187,0.629,8.344,5.397,13.048c4.772,5.068,11.351,7.733,13.612,5.934
        c0.027,0.006,0.05,0.004,0.071-0.009c0.176-0.108,0.989-0.81,1.565-1.967c0.036-0.058,0.073-0.116,0.103-0.181l0.539-1.178
        C23.173,18.466,22.981,17.74,22.469,17.45z"/>
</svg>
