<svg xmlns="http://www.w3.org/2000/svg" width="24" height="24" viewBox="0 0 24 24">
    <path d="M16.503,15.294v-1.802c0-0.414-0.335-0.75-0.748-0.75s-0.747,0.336-0.747,0.75
        v2.229c-0.04,0.261,0.025,0.534,0.228,0.734l1.288,1.282c0.336,0.335,0.881,0.335,1.218,0s0.337-0.878,0-1.213L16.503,15.294z
         M17.01,8.312V0.75c0-0.414-0.346-0.75-0.772-0.75H0.773C0.346,0,0,0.336,0,0.75v19.501c0,0.414,0.346,0.75,0.773,0.75h9.172
        c1.385,1.752,3.498,2.896,5.885,2.984V24h0.494v-0.01C20.58,23.883,24,20.409,24,16.129C24,12.082,20.941,8.752,17.01,8.312z M5,4
        h7c0.553,0,1,0.447,1,1s-0.447,1-1,1H5C4.448,6,4,5.553,4,5S4.448,4,5,4z M8,14H5c-0.552,0-1-0.447-1-1s0.448-1,1-1h3
        c0.553,0,1,0.447,1,1S8.553,14,8,14z M5,10c-0.552,0-1-0.447-1-1s0.448-1,1-1h7c0.553,0,1,0.447,1,1s-0.447,1-1,1H5z M16.125,21
        c-2.693,0-4.877-2.182-4.877-4.872c0-2.691,2.184-4.873,4.877-4.873c2.691,0,4.875,2.182,4.875,4.873
        C21,18.818,18.816,21,16.125,21z"/>
</svg>
