<svg xmlns="http://www.w3.org/2000/svg" width="24" height="24" viewBox="0 0 24 24">
    <path d="M18.926,18.365c-0.009-0.226-0.05-0.44-0.104-0.649l-0.65-9.084
        C18.091,6.613,17.885,1.975,11.915,2C7.018,2.021,6.061,5.532,5.978,7.589c0,0.481,0.281,1.428,1.402,1.427
        c1.244-0.002,1.69-0.717,1.792-1.56c0.145-1.125,0.727-2.818,2.866-2.748c2.104,0.115,2.805,1.215,2.889,2.542
        c0.268,4.264-9.286,1.586-9.528,7.668l-0.208,2.764c-0.061,0.219-0.106,0.444-0.115,0.683l-0.073,1.824
        C4.942,21.73,6.014,23,7.4,23h9.2c1.386,0,2.458-1.27,2.398-2.811L18.926,18.365z M11.999,21c-2.213,0-4.006-1.791-4.006-4
        s1.793-4,4.006-4s4.008,1.791,4.008,4S14.212,21,11.999,21z M10.012,18h3.975v-2h-3.975V18z"/>
</svg>
