<svg xmlns="http://www.w3.org/2000/svg" width="24" height="24" viewBox="0 0 24 24">
    <path d="M23.626,12.808c0,0-2.246-3.134-4.877-5.76c-2.596-2.59-5.578-4.675-5.578-4.675
        c-0.271-0.271-0.631-0.369-0.985-0.34c-0.062-0.006-0.118-0.026-0.183-0.026c-0.065,0-0.122,0.021-0.185,0.027
        c-0.355-0.03-0.717,0.067-0.989,0.339c0,0-2.981,2.084-5.578,4.675c-2.631,2.626-4.878,5.76-4.878,5.76
        c-0.498,0.497-0.498,1.302,0,1.799c0.313,0.313,0.747,0.406,1.151,0.324v0.044H3v5.027C3,21.105,3.896,22,5,22h14.002
        c1.104,0,2-0.895,2-1.998v-5.027h1.497v-0.039c0.397,0.072,0.819-0.021,1.127-0.329C24.124,14.109,24.124,13.305,23.626,12.808z
         M13.996,12.006c0.553,0,1,0.447,1,1v1.019h-2.012v-2.018H13.996z M9.996,12.006h0.99v2.018h-1.99v-1.019
        C8.996,12.454,9.443,12.006,9.996,12.006z M9.996,18.003c-0.553,0-1-0.447-1-0.999v-1.015h1.99v2.014H9.996z M13.996,18.003
        h-1.012v-2.014h2.012v1.015C14.996,17.556,14.549,18.003,13.996,18.003z"/>
</svg>
