<svg xmlns="http://www.w3.org/2000/svg" width="24" height="24" viewBox="0 0 24 24">
    <path d="M12,2C6.478,2,2,6.478,2,12c0,5.523,4.478,10,10,10c5.523,0,10-4.477,10-10
        C22,6.478,17.523,2,12,2z M12.812,17.297c-0.052,0.386-0.455,0.699-0.9,0.699H10.6c-0.445,0-0.764-0.313-0.712-0.699l0.754-5.59
        c0.052-0.386,0.455-0.698,0.9-0.698h1.312c0.445,0,0.764,0.312,0.712,0.698L12.812,17.297z M13.926,8.241
        c-0.045,0.411-0.397,0.745-0.785,0.745h-1.407c-0.388,0-0.667-0.334-0.621-0.745l0.165-1.491c0.045-0.411,0.396-0.745,0.785-0.745
        h1.406c0.389,0,0.667,0.334,0.621,0.745L13.926,8.241z"/>
</svg>
