<svg xmlns="http://www.w3.org/2000/svg" width="24" height="24" viewBox="0 0 24 24">
    <path d="M21.442,14.642c-0.304-0.25-0.655-0.487-1.06-0.708
        C22.012,12.564,23,10.795,23,8.857C23,4.518,18.075,1,12,1S1,4.518,1,8.857c0,1.938,0.988,3.708,2.617,5.077
        c-0.404,0.221-0.756,0.458-1.06,0.708C1.469,15.22,1,16.63,1,18.285c0,2.04,0.718,3.697,2.424,3.892C5.353,22.84,8.471,23,12,23
        s6.647-0.16,8.576-0.823C22.282,21.982,23,20.325,23,18.285C23,16.63,22.531,15.22,21.442,14.642z M19.857,16.465
        c0,1.735-3.518,1.57-7.857,1.57s-7.857,0.165-7.857-1.57c0-0.772,0.706-1.478,1.862-2.024v-1.326
        c-1.21-0.763-1.949-1.755-1.949-2.844c0-2.4,3.557-4.346,7.944-4.346s7.944,1.946,7.944,4.346c0,1.084-0.733,2.072-1.934,2.833
        v1.345C19.157,14.994,19.857,15.695,19.857,16.465z M13.41,12.455l3.847-2.308l-3.154-3.154H9.897l-3.154,3.154l3.847,2.308
        c-2.102,0.561-3.713,2.316-4.027,4.51h0.927c-0.001,0.004-0.002,0.008-0.003,0.013h1.315c0.302-1.485,1.614-2.603,3.188-2.603
        c1.573,0,2.886,1.117,3.188,2.603h1.315c-0.001-0.005-0.002-0.009-0.003-0.013h0.947C17.123,14.771,15.512,13.016,13.41,12.455z
         M9.643,9.991L11,9h2l1.357,0.991H9.643z"/>
</svg>
