<svg xmlns="http://www.w3.org/2000/svg" width="24" height="24" viewBox="0 0 24 24">
    <path d="M22,10.804V4c0-1.104-0.896-2-2-2H2C0.896,2,0,2.896,0,4v10c0,1.104,0.896,2,2,2
        h9.014c0.259,3.357,3.059,6.003,6.482,6.003c3.594,0,6.508-2.914,6.508-6.508C24.004,13.65,23.233,11.988,22,10.804z
         M5.229,13.002H3.826c-0.387,0-0.701-0.222-0.701-0.495s0.314-0.495,0.701-0.495h1.403c0.387,0,0.701,0.222,0.701,0.495
        S5.616,13.002,5.229,13.002z M4.495,7.919c-0.83,0-1.503-0.663-1.503-1.481c0-0.817,0.673-1.48,1.503-1.48s1.503,0.663,1.503,1.48
        C5.998,7.256,5.325,7.919,4.495,7.919z M6.745,5.164c0.222-0.128,0.478-0.207,0.753-0.207c0.83,0,1.503,0.663,1.503,1.48
        c0,0.818-0.673,1.481-1.503,1.481c-0.276,0-0.531-0.079-0.753-0.207c0.446-0.257,0.75-0.729,0.75-1.275
        C7.494,5.892,7.191,5.42,6.745,5.164z M9.406,13.002H8.003c-0.387,0-0.701-0.222-0.701-0.495s0.314-0.495,0.701-0.495h1.403
        c0.387,0,0.701,0.222,0.701,0.495S9.793,13.002,9.406,13.002z M17.5,20c-2.486,0-4.502-2.013-4.502-4.494s2.016-4.493,4.502-4.493
        c2.487,0,4.503,2.012,4.503,4.493S19.987,20,17.5,20z M17.957,15.848C17.979,15.781,18,15.713,18,15.64v-2.02
        c0-0.383-0.314-0.692-0.701-0.692s-0.701,0.31-0.701,0.692v2.02c0,0.086,0.021,0.167,0.05,0.243
        c-0.151,0.276-0.119,0.622,0.118,0.855l1.109,1.088c0.29,0.284,0.76,0.284,1.05,0s0.29-0.745,0-1.029L17.957,15.848z"/>
</svg>
