<svg xmlns="http://www.w3.org/2000/svg" width="24" height="24" viewBox="0 0 24 24">
    <path d="M22.4,4H1.6C0.716,4,0,4.718,0,5.603v12.824c0,0.886,0.716,1.603,1.6,1.603h20.8
        c0.883,0,1.6-0.717,1.6-1.603V5.603C24,4.718,23.283,4,22.4,4z M3.236,17.864l-0.047-0.056c-0.125,0.117-0.288,0.193-0.47,0.193
        c-0.39,0-0.706-0.328-0.706-0.732c0-0.333,0.219-0.603,0.513-0.691l5.587-3.552l1.207,0.971L3.236,17.864z M21.281,18.002
        c-0.174,0-0.328-0.072-0.451-0.182l-0.029,0.035l-6.068-3.856l1.207-0.971l5.609,3.565c0.021,0.01,0.039,0.026,0.061,0.038
        l0.141,0.091l-0.004,0.005c0.146,0.135,0.241,0.324,0.241,0.542C21.987,17.674,21.672,18.002,21.281,18.002z M21.801,7.214
        l0.021,0.026l-8.851,5.517c-0.534,0.334-1.401,0.334-1.936,0L2.2,7.249l0.014-0.017c-0.123-0.129-0.2-0.303-0.2-0.496
        c0-0.396,0.316-0.718,0.706-0.718c0.141,0,0.265,0.053,0.375,0.125l0.021-0.026l7.92,4.937c0.534,0.333,1.401,0.333,1.936,0
        l7.935-4.945l0.018,0.022c0.107-0.065,0.225-0.112,0.357-0.112c0.391,0,0.706,0.321,0.706,0.718
        C21.987,6.921,21.914,7.086,21.801,7.214z"/>
</svg>
