<svg xmlns="http://www.w3.org/2000/svg" width="24" height="24" viewBox="0 0 24 24">
    <path d="M23,15.709C23,21.008,18.3,23,12.5,23C6.701,23,2,21.008,2,15.709
        c0-0.38,0.033-0.725,0.081-1.05H2.072l0.418-2.852c0.108-0.646,0.804-1.175,1.66-1.347c-0.019-0.194-0.04-0.387-0.04-0.584
        C4.109,5.526,7.868,2,12.504,2C17.14,2,20.9,5.526,20.9,9.875c0,0.201-0.021,0.395-0.041,0.59c0.843,0.178,1.522,0.702,1.63,1.341
        l0.429,2.791H22.91C22.963,14.941,23,15.304,23,15.709z M11.966,16.79v1.127c0,0.496,0.245,0.898,0.543,0.898
        c0.301,0,0.544-0.402,0.544-0.898v-1.166c0.356-0.201,0.61-0.567,0.61-1.006c0-0.647-0.53-1.174-1.182-1.174
        c-0.653,0-1.181,0.526-1.181,1.174C11.301,16.208,11.575,16.599,11.966,16.79z M17.718,10.26c0.007-0.02,0.005-0.042,0-0.064V9.806
        c0,0-0.028-0.015-0.036-0.02h0.021c-0.072-2.54-2.386-4.583-5.242-4.583s-5.17,2.042-5.243,4.583h0.025
        c-0.009,0.004-0.039,0.02-0.039,0.02v0.589h0.353c0.028,0.002,0.049,0.008,0.082,0.008c1.318,0,1.774,0.338,2.548,0.69
        c0.038,0.016,0.075,0.021,0.112,0.034c0.555,0.2,1.333,0.326,2.204,0.326c0.896,0,1.693-0.135,2.251-0.346
        c0.016-0.005,0.03-0.006,0.045-0.014c0.033-0.015,0.061-0.029,0.091-0.042c0.065-0.029,0.128-0.057,0.183-0.086
        c0.628-0.302,1.118-0.562,2.275-0.562c0.034,0,0.054-0.005,0.082-0.008h0.289V10.26z"/>
</svg>
