<svg xmlns="http://www.w3.org/2000/svg" width="24" height="24" viewBox="0 0 24 24">
    <path d="M23,15.709C23,21.008,18.3,23,12.5,23C6.702,23,2,21.008,2,15.709
        c0-0.173,0.016-0.329,0.025-0.491H2.011l0.024-0.189c0.013-0.146,0.032-0.284,0.053-0.422l0.403-3.176
        c0.118-0.709,0.943-1.282,1.913-1.39v-0.037H4.69C3.915,7.263,4.467,4.276,6.453,2.211c2.888-3.002,7.665-2.925,10.84,0.099
        l0.013-0.014l1.633,1.695l-1.04,1.081l0.813,0.838c0.498,0.5,0.334,0.819,0.025,1.128l-0.071,0.069
        c-0.325,0.293-0.723,0.292-1.223-0.207l-0.655-0.674l-0.002,0.002l-0.438-0.456l-0.436-0.45l0.002-0.002l-0.767-0.796l-0.001,0.001
        c-0.001-0.001-0.002-0.003-0.003-0.004c-1.809-1.879-4.721-1.897-6.505-0.042c-1.472,1.53-1.697,3.85-0.724,5.672
        c0.823,0.117,1.418,0.301,2.144,0.498c0.555,0.257,1.438,0.426,2.444,0.426c0.983,0,1.85-0.163,2.406-0.41
        c1.24-0.333,2.068-0.64,4.258-0.64c0.15,0,0.271-0.008,0.367-0.022h1.038v0.037c0.972,0.106,1.8,0.679,1.919,1.39l0.431,3.227
        c0.015,0.104,0.032,0.205,0.042,0.314l0.024,0.185h-0.015C22.984,15.338,23,15.515,23,15.709z M12.481,14.57
        c-0.652,0-1.181,0.526-1.181,1.174c0,0.463,0.275,0.854,0.666,1.046v1.127c0,0.496,0.244,0.897,0.544,0.897s0.543-0.401,0.543-0.897
        v-1.166c0.357-0.201,0.608-0.569,0.608-1.007C13.662,15.097,13.134,14.57,12.481,14.57z"/>
</svg>
