<svg xmlns="http://www.w3.org/2000/svg" width="24" height="24" viewBox="0 0 24 24">
    <path d="M22,4H2C0.896,4,0,4.896,0,6v12c0,1.104,0.896,2,2,2h20c1.104,0,2-0.896,2-2V6
        C24,4.896,23.104,4,22,4z M8.994,16.003c-2.208,0-3.998-1.792-3.998-4.003s1.79-4.003,3.998-4.003
        c2.208,0,3.998,1.792,3.998,4.003S11.202,16.003,8.994,16.003z M15.006,16.003c-0.474,0-0.922-0.097-1.344-0.248
        c0.827-1.028,1.324-2.333,1.324-3.755c0-1.422-0.497-2.727-1.324-3.754c0.422-0.151,0.87-0.249,1.344-0.249
        c2.209,0,3.999,1.792,3.999,4.003S17.215,16.003,15.006,16.003z"/>
</svg>
