<svg xmlns="http://www.w3.org/2000/svg" width="24" height="24" viewBox="0 0 24 24">
    <path d="M23.051,7.426c-0.32-0.83-1.137-1.422-2.101-1.422H17V6c0-1.657-1.343-3-3-3h-4
        C8.343,3,7,4.343,7,6v0.003H3.051c-0.961,0-1.775,0.589-2.098,1.415C0.392,8.537,0,11.061,0,14c0,2.942,0.393,5.469,0.955,6.586
        c0.324,0.822,1.137,1.409,2.096,1.409H20.95c0.962,0,1.776-0.591,2.099-1.417C23.608,19.457,24,16.937,24,14
        C24,11.066,23.609,8.548,23.051,7.426z M9,6c0-0.552,0.447-1,1-1h4c0.553,0,1,0.448,1,1v0.003H9V6z M20.779,19.984
        c-0.01,0-0.02-0.007-0.029-0.009v0.031L3.25,20v-0.024c-0.01,0.002-0.02,0.009-0.029,0.009c-0.556,0-1.007-2.68-1.007-5.984
        s0.451-5.984,1.007-5.984c0.01,0,0.02,0.007,0.029,0.009V8l17.5-0.007v0.032c0.01-0.001,0.02-0.009,0.029-0.009
        c0.557,0,1.007,2.679,1.007,5.984S21.336,19.984,20.779,19.984z M15,13h-2v-2c0-0.553-0.447-1-1-1s-1,0.447-1,1v2H9
        c-0.553,0-1,0.447-1,1s0.447,1,1,1h2v2c0,0.553,0.447,1,1,1s1-0.447,1-1v-2h2c0.553,0,1-0.447,1-1S15.553,13,15,13z"/>
</svg>
