<svg xmlns="http://www.w3.org/2000/svg" width="24" height="24" viewBox="0 0 24 24">
    <path d="M21.042,3.731C19.889,2.73,16.28,2,12.001,2C7.762,2,4.178,2.716,2.99,3.702
        C1.841,4.563,1,7.32,1,10.494c0,3.165,0.836,5.916,1.979,6.785c0.542,0.455,1.612,0.85,3.005,1.146l0.011,2.423
        c0.007,0.026,0.021,0.05,0.021,0.08c0,0.85,0.701,1.345,1.958,0.814l4.409-2.757c4.123-0.043,7.56-0.762,8.668-1.736
        c1.126-0.904,1.945-3.63,1.945-6.756C22.997,7.359,22.173,4.627,21.042,3.731z M14.994,13h-8c-0.553-0.011-1-0.458-1-1.011
        s0.447-1,1-1h8c0.553,0,1,0.448,1,1S15.547,12.989,14.994,13z M16.994,9h-10c-0.553-0.011-1-0.458-1-1.011s0.447-1,1-1h10
        c0.553,0,1,0.448,1,1S17.547,8.989,16.994,9z"/>
</svg>
