<svg xmlns="http://www.w3.org/2000/svg" width="24" height="24" viewBox="0 0 24 24">
    <path d="M20.42,20.998h-4.473c-0.938-0.137-0.768-0.607,0.479-1.377
        c0.011-0.006,0.009-0.016,0.019-0.021c1.992-1.359,3.297-3.604,3.297-6.146c0-2.781-1.561-5.204-3.875-6.502L12,18.232L8.133,6.951
        c-2.313,1.299-3.875,3.722-3.875,6.502c0,2.533,1.298,4.762,3.277,6.121c0.017,0.016,0.016,0.031,0.038,0.047
        c1.185,0.773,1.396,1.24,0.477,1.377H3.58C1.972,19.141,1,16.748,1,14.135c0-4.477,2.84-8.306,6.866-9.892
        c0.005-0.002,0.011-0.004,0.015-0.006c0.127-0.05,0.258-0.088,0.385-0.133c0.789-0.224,1.423-0.063,1.763,0.724l1.938,6.072
        l1.954-6.02c0.329-0.827,0.957-1.013,1.755-0.798C19.941,5.552,23,9.491,23,14.135C23,16.748,22.028,19.141,20.42,20.998z"/>
</svg>
