<svg xmlns="http://www.w3.org/2000/svg" width="24" height="24" viewBox="0 0 24 24">
    <path fill="#414446" d="M16.75,0h-9.5C6.008,0,5,1.007,5,2.25v19.5C5,22.992,6.008,24,7.25,24h9.5
        c1.242,0,2.25-1.008,2.25-2.25V2.25C19,1.007,17.992,0,16.75,0z M10.983,2h2.033c0.418,0,0.758,0.224,0.758,0.5
        c0,0.276-0.34,0.5-0.758,0.5h-2.033c-0.418,0-0.758-0.224-0.758-0.5C10.226,2.224,10.565,2,10.983,2z M11.991,22.816
        c-0.718,0-1.3-0.588-1.3-1.312s0.582-1.312,1.3-1.312s1.299,0.587,1.299,1.312S12.709,22.816,11.991,22.816z M17,18.264
        C17,18.67,16.648,19,16.215,19H7.786C7.352,19,7,18.67,7,18.264V5.737C7,5.33,7.352,5,7.786,5h8.429C16.648,5,17,5.33,17,5.737
        V18.264z"/>
</svg>
