<svg xmlns="http://www.w3.org/2000/svg" width="24" height="24" viewBox="0 0 24 24">
    <path d="M12.002,1C5.926,1,1,5.926,1,12.002s4.926,11.002,11.002,11.002
        s11.002-4.926,11.002-11.002S18.078,1,12.002,1z M15.926,14.085l-0.336,0.587c-0.186,0.324-0.597,0.435-0.918,0.248l-3.663-2.167
        l0.091-0.157c-0.053-0.106-0.09-0.222-0.09-0.351v-5.51c0-0.409,0.297-0.74,0.663-0.74h0.662c0.366,0,0.663,0.331,0.663,0.74
        v4.838l2.682,1.587C16.001,13.348,16.111,13.762,15.926,14.085z"/>
</svg>
