<svg xmlns="http://www.w3.org/2000/svg" width="24" height="24" viewBox="0 0 24 24">
    <path d="M18.5,8.986c-0.82,0-1.486,0.674-1.486,1.505s0.666,1.505,1.486,1.505
        s1.486-0.674,1.486-1.505S19.32,8.986,18.5,8.986z M21,19H3v-1H1v1c0,1.104,0.896,2,2,2h18c1.104,0,2-0.896,2-2v-0.997L21,18V19z
         M5.5,9.018c-0.82,0-1.486,0.667-1.486,1.49c0,0.822,0.666,1.489,1.486,1.489s1.486-0.667,1.486-1.489
        C6.986,9.685,6.32,9.018,5.5,9.018z M22,4H2C0.896,4,0,4.896,0,6v9c0,1.104,0.896,2,2,2h20c1.104,0,2-0.896,2-2V6
        C24,4.896,23.104,4,22,4z M3.89,15.006c0.06-0.161,0.097-0.332,0.097-0.514c0-0.822-0.666-1.489-1.486-1.489
        c-0.176,0-0.343,0.036-0.5,0.093V7.918c0.157,0.058,0.324,0.094,0.5,0.094c0.82,0,1.486-0.676,1.486-1.51
        c0-0.175-0.035-0.34-0.089-0.496h6.935C9.196,6.6,8,8.378,8,10.507c0,2.127,1.194,3.903,2.828,4.499H3.89z M12,12.992
        c-1.104,0-2-1.12-2-2.501s0.896-2.501,2-2.501s2,1.12,2,2.501S13.104,12.992,12,12.992z M22,13.096
        c-0.157-0.057-0.324-0.093-0.5-0.093c-0.82,0-1.486,0.667-1.486,1.489c0,0.182,0.037,0.353,0.097,0.514h-6.938
        C14.806,14.41,16,12.634,16,10.507c0-2.128-1.196-3.907-2.832-4.501h6.935c-0.054,0.156-0.089,0.321-0.089,0.496
        c0,0.834,0.666,1.51,1.486,1.51c0.176,0,0.343-0.037,0.5-0.094V13.096z"/>
</svg>
