<svg xmlns="http://www.w3.org/2000/svg" width="24" height="24" viewBox="0 0 24 24">
    <path d="M21.753,6.481l-0.012-0.011c-0.062-0.082-1.27-1.658-2.79-2.955
        c-1.48-1.263-3.257-2.227-3.335-2.269l-0.015-0.014C15.423,1.082,15.179,1,14.93,1c-0.115,0-0.232,0.018-0.344,0.054
        c-0.353,0.113-0.584,0.39-0.584,0.697v2.264C9.487,4.1,5.588,5.679,3.441,8.447C3.358,8.529,3.289,8.624,3.227,8.723
        c-0.068,0.095-0.152,0.18-0.216,0.278c0.027,0.008,0.047,0.021,0.073,0.03C3.034,9.18,3,9.335,3,9.5
        c0,0.822,0.675,1.489,1.507,1.489c0.151,0,0.293-0.028,0.431-0.069c0.025,0.027,0.046,0.055,0.073,0.081
        c1.659-1.104,4.536-1.775,6.917-1.775c0.716,0,1.404,0.08,2.074,0.195v2.829c0,0.308,0.231,0.584,0.584,0.697
        c0.111,0.036,0.229,0.054,0.344,0.054c0.249,0,0.493-0.081,0.672-0.233l0.015-0.013c0.078-0.042,1.854-1.007,3.335-2.269
        c1.521-1.298,2.728-2.874,2.79-2.956l0.012-0.01c0.17-0.146,0.255-0.333,0.254-0.52C22.008,6.813,21.923,6.627,21.753,6.481z
         M21.003,14.502c0-0.822-0.668-1.489-1.492-1.489c-0.149,0-0.291,0.028-0.427,0.069c-0.025-0.027-0.047-0.055-0.073-0.081
        c-1.662,1.104-4.537,1.775-6.922,1.775c-0.714,0-1.4-0.079-2.068-0.193v-2.842c0-0.308-0.232-0.584-0.585-0.698
        c-0.111-0.036-0.229-0.054-0.345-0.054c-0.25,0-0.495,0.082-0.674,0.234l-0.015,0.013c-0.078,0.042-1.857,1.008-3.341,2.271
        c-1.523,1.298-2.732,2.876-2.795,2.958l-0.012,0.01C2.084,16.622,1.999,16.809,2,16.996c-0.001,0.187,0.084,0.374,0.255,0.52
        l0.012,0.011c0.062,0.082,1.271,1.659,2.795,2.958c1.483,1.264,3.263,2.229,3.341,2.271l0.015,0.014
        c0.179,0.151,0.424,0.233,0.674,0.233c0.116,0,0.233-0.018,0.345-0.054c0.353-0.113,0.585-0.39,0.585-0.697v-2.265
        c4.82-0.093,8.956-1.866,10.99-4.985c-0.032-0.01-0.058-0.025-0.089-0.037C20.971,14.817,21.003,14.664,21.003,14.502z"/>
</svg>
