<svg xmlns="http://www.w3.org/2000/svg" width="24" height="24" viewBox="0 0 24 24">
    <path d="M23.543,17.673c0.001-0.001,0.002-0.002,0.002-0.002L13.697,1.997
        c-0.006,0.002-0.012,0.005-0.018,0.007C13.401,1.414,12.757,1,12.006,1s-1.396,0.414-1.674,1.004
        c-0.006-0.002-0.012-0.005-0.018-0.007L0.452,17.694C0.174,18.049,0,18.506,0,19.013c0,1.112,0.811,2.014,1.81,2.014
        c0.003,0,0.005-0.001,0.008-0.001c0,0.001,0,0.001,0,0.001h20.448V21.02c0.969-0.038,1.746-0.919,1.746-2.007
        C24.012,18.496,23.831,18.029,23.543,17.673z M14.016,17.343c0,0.368-0.45,0.666-1.005,0.666h-2.01
        c-0.555,0-1.004-0.298-1.004-0.666v-0.666c0-0.368,0.449-0.667,1.004-0.667h2.01c0.555,0,1.005,0.299,1.005,0.667V17.343z
         M14.016,13.223c0,0.43-0.45,0.777-1.005,0.777h-2.01c-0.555,0-1.004-0.348-1.004-0.777v-5.44c0-0.43,0.449-0.777,1.004-0.777
        h2.01c0.555,0,1.005,0.348,1.005,0.777V13.223z"/>
</svg>
