<svg xmlns="http://www.w3.org/2000/svg" width="24" height="24" viewBox="0 0 24 24">
    <path d="M22.538,6.981l-5.53-5.522C16.713,1.165,16.313,1,15.897,1H8.091
        C7.674,1,7.275,1.165,6.98,1.46l-5.52,5.522C1.166,7.277,1,7.678,1,8.095v7.826c0,0.417,0.165,0.817,0.46,1.112l5.52,5.533
        c0.295,0.296,0.694,0.461,1.112,0.461h7.806c0.416,0,0.815-0.165,1.11-0.46l5.531-5.533C22.834,16.739,23,16.339,23,15.921V8.096
        C23,7.678,22.834,7.276,22.538,6.981z M17.273,14.945c0.323,0.324,0.323,0.851,0,1.175l-1.173,1.173
        c-0.323,0.324-0.849,0.324-1.172,0l-2.931-2.935l-2.932,2.935c-0.324,0.324-0.849,0.324-1.173,0L6.722,16.12
        c-0.324-0.324-0.324-0.851,0-1.175l2.931-2.935L6.722,9.076c-0.324-0.324-0.324-0.85,0-1.174l1.172-1.174
        c0.324-0.324,0.849-0.324,1.173,0l2.932,2.935l2.931-2.935c0.323-0.324,0.849-0.324,1.172,0l1.173,1.174
        c0.323,0.324,0.323,0.85,0,1.174l-2.931,2.935L17.273,14.945z"/>
</svg>
