<svg xmlns="http://www.w3.org/2000/svg" width="24" height="24" viewBox="0 0 24 24">
    <path d="M12,0.972c-6.075,0-11,4.931-11,11.014S5.925,23,12,23
        c6.075,0,11-4.932,11-11.015S18.075,0.972,12,0.972z M12.141,18.743c-0.325,0.303-0.744,0.454-1.258,0.454
        c-0.5,0-0.896-0.151-1.188-0.454c-0.291-0.303-0.423-0.695-0.396-1.177c0.028-0.51,0.205-0.909,0.528-1.198
        s0.735-0.434,1.236-0.434c0.513,0,0.916,0.145,1.208,0.434s0.424,0.688,0.396,1.198C12.641,18.048,12.465,18.44,12.141,18.743z
         M14.541,11.934c-1.369,0.873-1.77,1.703-1.871,2.241v0.146c0,0.257-0.215,0.465-0.48,0.465h-1.927
        c-0.267,0-0.481-0.208-0.481-0.465l0.004-0.004c0.207-2.834,2.357-3.524,3.601-4.691c1.306-1.228,0.458-2.274-1.192-2.21
        c-0.98,0.037-1.922,0.384-2.526,0.659c-0.466,0.191-0.756,0.18-0.964-0.229C8.695,7.83,8.684,7.822,8.674,7.811L8.125,6.79
        C7.949,6.36,7.976,6.091,8.388,5.9c0.016-0.008,0.025-0.019,0.037-0.028c1.485-0.628,5.273-1.86,7.761,0.588
        C17.766,8.017,16.863,10.455,14.541,11.934z"/>
</svg>
