<svg xmlns="http://www.w3.org/2000/svg" width="24" height="24" viewBox="0 0 24 24">
    <path d="M22.955,12.28c0.029-0.319,0.049-0.656,0.049-1.03c0-2.129-0.5-2.808-1.17-2.959
        C20.949,3.022,16.893,0,12.016,0c-1.793,0-3.471,0.414-4.926,1.191C7.043,1.917,7.057,2.903,7.357,3.75
        c0.369,1.041,0.952,1.833,1.441,2.365c0.004-0.007,0.01-0.013,0.014-0.021c0.215,0.242,0.455,0.472,0.705,0.694
        c0.099,0.078,0.17,0.13,0.17,0.13s0.091,0.078,0.211,0.182c2.01,1.613,4.918,2.64,8.175,2.64c0.646,0,1.273-0.048,1.888-0.125
        c0.005,0.06,0.004,0.123,0.008,0.184v0.545l-2.278,1.589c-0.522-0.679-1.496-0.953-2.625-0.953c-1.591,0-2.881,0.536-3.009,2.007
        h-0.27c-0.127-1.473-1.419-2.021-3.01-2.021c-1.336,0-2.458,0.39-2.863,1.384l-1.898-1.323c-0.009-0.135-0.022-0.27-0.022-0.403
        c0-0.033,0.003-0.062,0.004-0.095c1.651-0.713,3.047-1.87,4.082-3.301c-1.692-1.261-2.286-3.47-2.484-5.047
        c-2.151,1.757-3.527,4.53-3.575,8.13c-0.656,0.242-1.086,0.797-1.013,1.414c0,0,0.032,4.121,2.207,4.073
        C5.2,20.345,9.228,24,12.016,24c1.26,0,2.771-0.761,4.234-2h-4.163c-0.028,0.001-0.059,0.009-0.087,0.009
        c-2.356,0-5.82-3.529-7.294-7.632c-0.568,0.104-1.181-0.464-1.382-1.298c-0.055-0.229-0.071-0.451-0.058-0.661l2.699,1.882
        C6.413,15.345,7.5,16,8.777,16c1.117,0,2.082-0.507,2.609-1.33v0.349h0.99v-0.484C12.88,15.438,13.889,16,15.065,16
        c1.545,0,2.806-0.962,2.995-2.409l1.775-1.238c-0.295,1.667-0.988,3.311-1.873,4.763c0.627,0.169,1.25,0.511,1.489,1.199
        c0.668-1.031,1.249-2.147,1.684-3.315h0.351c0.155,0,0.303-0.059,0.444-0.146c0.019,0.573,0.032,1.105,0.032,1.478
        c0,1.959-1.585,2.54-2.972,2.673c0.025-0.035,0.048-0.073,0.072-0.108c-0.047,0.024-0.104,0.049-0.153,0.073
        C18.687,18.404,18.122,18,17.456,18h-3.897C12.697,18,12,18.672,12,19.5s0.697,1.5,1.559,1.5h3.897
        c0.114,0,0.225-0.014,0.332-0.036c4.62-0.181,5.199-1.77,5.22-4.047C23.022,15.32,22.985,13.479,22.955,12.28z M8.855,14.969
        c-0.829,0-1.501-0.698-1.501-1.405s0.672-0.933,1.501-0.933c0.83,0,1.502,0.226,1.502,0.933S9.686,14.969,8.855,14.969z
         M14.878,14.969c-0.821,0-1.486-0.698-1.486-1.405s0.665-0.928,1.486-0.928s1.486,0.221,1.486,0.928S15.699,14.969,14.878,14.969z
        "/>
</svg>
