<svg xmlns="http://www.w3.org/2000/svg" width="24" height="24" viewBox="0 0 24 24">
    <path d="M22.451,11.158l-0.016-0.059l-4.143-0.009c-1.194,0-1.362,0.569-1.378,1.748
        c0.008,0.049,0.028,0.094,0.028,0.145c0,0.564-0.438,1.022-0.978,1.022s-0.978-0.458-0.978-1.022c0-0.016,0.008-0.03,0.009-0.046
        c0.016-2.72,1.003-3.939,3.198-3.939l4.389-0.044c0.012-0.021,0.021-0.039,0.034-0.062c-0.06-0.006-0.101-0.034-0.101-0.11
        c0-1.8-1.521-1.727-2.813-1.727c-6.841,0-14.693,0-14.693,0l12.401-2.765l0.592,1.529h2.99l-0.871-3.194
        c-0.307-1.126-1.486-1.825-2.633-1.56L2.197,4.837C2.114,4.852,2.032,4.871,1.95,4.898L1.921,4.905L1.92,4.91
        C1.252,5.147,0.666,5.777,0.55,6.465c-0.733,4.474-0.733,8.946,0,13.421c0.139,0.819,0.944,1.566,1.763,1.65
        c6.213,0.618,11.675,0.618,17.887,0c0.819-0.084,1.625-0.831,1.764-1.65c0.203-1.243,0.332-2.047,0.407-2.914
        c0.929-0.172,1.634-0.983,1.634-1.963v-2C24.004,12.059,23.34,11.341,22.451,11.158z M20.012,15.229
        c-0.675,0-1.221-0.544-1.221-1.216c0-0.671,0.546-1.215,1.221-1.215c0.674,0,1.22,0.544,1.22,1.215
        C21.231,14.685,20.686,15.229,20.012,15.229z"/>
</svg>
