<svg xmlns="http://www.w3.org/2000/svg" width="24" height="24" viewBox="0 0 24 24">
    <path d="M22,10.006c-0.031,0-0.06,0.018-0.091,0.021 c-0.108-0.028-0.221-0.048-0.338-0.048l0.179-0.055l-1.975-4.459c-1.121-2.3-2.535-2.457-4.141-2.457H8.357
        c-1.584,0-2.979,0.158-4.093,2.366L2.25,9.924l0.192,0.055H2.429c-0.117,0-0.229,0.02-0.338,0.048
        C2.06,10.023,2.031,10.006,2,10.006c-1.104,0-2,2.014-2,4.496C0,16.986,0.896,19,2,19c0.048,0,0.093-0.024,0.14-0.031
        c0.034,0.008,0.071,0.007,0.106,0.012v0.648C2.246,20.547,2.917,22,3.744,22h1.499c0.828,0,1.499-1.453,1.499-2.371V19h10.505
        v0.629c0,0.918,0.67,2.371,1.498,2.371h1.498c0.828,0,1.499-1.453,1.499-2.371v-0.647c0.025-0.003,0.047-0.019,0.072-0.023
        C21.876,18.971,21.936,19,22,19c1.104,0,2-2.014,2-4.498C24,12.02,23.104,10.006,22,10.006z M6.552,5.529
        C6.686,5.226,7.023,4.99,7.312,4.99h9.413c0.289,0,0.627,0.235,0.761,0.539l1.962,4.45H4.59L6.552,5.529z M6.322,16.02H4.655
        c-0.92,0-1.667-0.451-1.667-1.01s0.746-1.012,1.667-1.012h1.667c0.92,0,1.667,0.453,1.667,1.012S7.242,16.02,6.322,16.02z
         M19.345,16.02h-1.666c-0.921,0-1.667-0.451-1.667-1.01s0.746-1.012,1.667-1.012h1.666c0.921,0,1.667,0.453,1.667,1.012
        S20.266,16.02,19.345,16.02z"/>
</svg>
