<svg xmlns="http://www.w3.org/2000/svg" width="24" height="24" viewBox="0 0 24 24">
    <path d="M19.692,1H5.308C4.033,1,3,2.03,3,3.3v0.852C1.854,4.439,1,5.49,1,6.75v0.767
        c0,1.261,0.854,2.311,2,2.599v4.77c-1.146,0.287-2,1.338-2,2.599v0.767c0,1.261,0.854,2.311,2,2.599V21.7
        C3,22.971,4.033,24,5.308,24h14.385C20.967,24,22,22.971,22,21.7V3.3C22,2.03,20.967,1,19.692,1z M12.45,6.004
        c3.245,0.03,3.905,2.504,4.038,3.638c0.091,0.326,0.154,0.661,0.154,1.015c0,2.186-1.408,3.831-1.408,3.831
        s-0.188,0.398-0.501,0.89c-0.5,0.484-1.308,0.876-2.23,0.876c-0.973,0-1.817-0.436-2.309-0.955
        c-0.27-0.453-0.429-0.811-0.429-0.811s-1.407-1.646-1.407-3.831c0-0.033,0.009-0.063,0.01-0.097
        C8.317,9.453,8.469,5.967,12.45,6.004z M17.526,19.226c0,0-2.565,0.764-5.045,0.764c-2.546,0-5.008-0.764-5.008-0.764
        c-0.033-0.104-0.486-1.342-0.486-1.459c0-0.739,0.749-1.173,1.916-1.486c0.703,0.926,2.04,1.709,3.601,1.709
        c1.562,0,2.898-0.783,3.603-1.709c1.161,0.312,1.907,0.749,1.907,1.486C18.014,17.884,17.56,19.122,17.526,19.226z M12.455,15.137
        c1.729,0,2.622-3.304,2.622-4.271c0-0.694-0.277-1.321-0.723-1.785l-1.146-0.461l-3.274,2.415
        C9.969,11.776,10.746,15.137,12.455,15.137z"/>
</svg>
