<svg xmlns="http://www.w3.org/2000/svg" width="24" height="24" viewBox="0 0 24 24">
    <path d="M19.834,14.923c-2.096-1.321-1.662-2.705-3.135-4.356 c-0.498-0.56-0.885-0.919-1.283-1.161c0.973-1.002,1.254-2.211-0.125-2.42c-1.51-0.228-1.381,1.866-3.186,1.866
        c-0.031,0-0.059,0.021-0.09,0.026c-0.031-0.006-0.057-0.026-0.09-0.026c-1.803,0-1.676-2.094-3.184-1.866
        C7.368,7.193,7.64,8.393,8.604,9.393C8.199,9.634,7.809,9.996,7.3,10.567c-1.472,1.651-1.038,3.035-3.133,4.356
        c-1.272,0.801-2.472,1.554-2.934,3.015c-0.134,0.246-0.212,0.521-0.212,0.833v1.07c0,0.001,0.004,0.001,0.004,0.002
        C1.025,21.034,1.969,22,3.134,22h17.817c1.135,0,2.057-0.966,2.057-2.158c0-0.111-0.016-0.219-0.031-0.326
        c0.02-0.067,0.031-0.139,0.031-0.214C23.008,16.866,21.453,15.942,19.834,14.923z M12.016,16.996c-2.203,0-3.99-1.343-3.99-2.998
        c0-1.656,1.787-2.998,3.99-2.998c2.205,0,3.99,1.342,3.99,2.998C16.006,15.653,14.221,16.996,12.016,16.996z M23.975,8.365
        c-0.004-0.018-0.016-0.03-0.031-0.041c-0.209-2.225-5.225-5.223-11.441-5.318L12.5,3.003h-0.062C12.41,3.002,12.387,3,12.359,3
        C12.338,3,12.178,3,12,3.001C11.824,3,11.662,3,11.641,3c-0.025,0-0.051,0.002-0.076,0.003H11.5v0.002
        C5.281,3.101,0.267,6.099,0.058,8.324C0.042,8.335,0.03,8.347,0.026,8.365c-0.036,0.153-0.088,0.974,0.262,1.907
        c0.012,0.042,0.022,0.085,0.039,0.127l0.372,0.915c0.197,0.482,0.715,0.766,1.163,0.645l4.061-1.097
        c0.449-0.122,0.729-0.621,0.624-1.129c0,0-0.234-1.268-0.458-1.806c-0.293-0.704-0.408-1.511,1.32-1.764
        c1.367-0.2,2.44-0.179,3.763-0.199c0.23,0.046,0.506,0.073,0.803,0.073c0.299,0,0.576-0.027,0.809-0.074
        c1.346,0.021,2.428-0.003,3.812,0.2c1.729,0.252,1.613,1.06,1.32,1.764c-0.225,0.538-0.459,1.806-0.459,1.806
        c-0.105,0.508,0.174,1.007,0.623,1.129l4.061,1.097c0.449,0.121,0.967-0.162,1.162-0.645l0.373-0.915
        c0.018-0.042,0.027-0.085,0.039-0.127C24.062,9.339,24.01,8.518,23.975,8.365z"/>
</svg>
