<svg xmlns="http://www.w3.org/2000/svg" width="24" height="24" viewBox="0 0 24 24">
    <path d="M12,0C7.029,0,3,4.029,3,9c0,1.083,0.201,2.117,0.552,3.079
        c1.262,3.998,5.093,8.932,7.133,11.375c0.011,0.014,0.021,0.027,0.033,0.04c0.008,0.01,0.018,0.021,0.026,0.031
        c0.001-0.001,0.003-0.002,0.004-0.003c0.285,0.301,0.737,0.498,1.251,0.498c0.515,0,0.966-0.197,1.251-0.498
        c0.004,0.003,0.008,0.004,0.011,0.007c2.225-2.646,6.692-8.367,7.512-12.542C20.917,10.347,21,9.684,21,9C21,4.029,16.971,0,12,0z
         M12,13.011c-2.208,0-3.998-1.788-3.998-3.993c0-2.206,1.79-3.994,3.998-3.994s3.999,1.788,3.999,3.994
        C15.999,11.223,14.208,13.011,12,13.011z"/>
</svg>
