<svg xmlns="http://www.w3.org/2000/svg" width="24" height="24" viewBox="0 0 24 24">
    <path d="M19.857,8.007h-0.849V1H4.991v7.007H4.143C2.407,8.007,1,9.421,1,11.166v6.33
        h0.009c0.046,0.84,0.725,1.508,1.562,1.508h2.42v0.995c0,1.654,1.255,2.995,2.804,2.995h8.41c1.549,0,2.804-1.341,2.804-2.995
        v-0.995h2.42c0.839,0,1.517-0.668,1.562-1.508H23v-6.33C23,9.421,21.593,8.007,19.857,8.007z M16.995,21.015h-9.99v-4.021h9.99
        V21.015z M16.995,10.02h-9.99V3.012h9.99V10.02z M19.494,14.011c-0.822,0-1.488-0.675-1.488-1.508s0.666-1.509,1.488-1.509
        s1.488,0.676,1.488,1.509S20.316,14.011,19.494,14.011z"/>
</svg>
