<svg xmlns="http://www.w3.org/2000/svg" width="24" height="24" viewBox="0 0 24 24">
    <path d="M19.992,8.791V0.75c0-0.414-0.346-0.75-0.772-0.75H3.772C3.346,0,3,0.336,3,0.75
        v19.502c0,0.414,0.346,0.75,0.772,0.75h8.326l-0.036,0.303c-0.346,1.589,0.892,2.341,2.197,2.045l1.561-0.484l1.423,0.832
        c1.183,0.567,2.408,0.097,2.603-1.528l0.367-3.098c1.474-0.938,2.529-2.507,2.746-4.379C23.244,12.235,22.006,9.953,19.992,8.791z
         M9.833,4.005h3.328c0.458,0,0.831,0.224,0.831,0.5c0,0.276-0.373,0.5-0.831,0.5H9.833c-0.46,0-0.832-0.225-0.832-0.5
        C9.001,4.229,9.373,4.005,9.833,4.005z M10.203,15H7.792c-0.445,0-0.804-0.222-0.804-0.497c0-0.274,0.359-0.498,0.804-0.498h2.411
        c0.443,0,0.804,0.224,0.804,0.498C11.007,14.778,10.646,15,10.203,15z M11.346,11.988c-0.026,0.002-0.049,0.011-0.075,0.011H7.702
        c-0.395,0-0.714-0.225-0.714-0.503s0.32-0.503,0.714-0.503h3.568c0.178,0,0.336,0.051,0.461,0.126
        C11.581,11.396,11.452,11.687,11.346,11.988z M7.737,9.008c-0.414,0-0.75-0.225-0.75-0.503s0.335-0.503,0.75-0.503h7.487
        c0.189,0,0.358,0.052,0.49,0.13c-0.741,0.163-1.438,0.461-2.055,0.876H7.737z M20.149,15.311c0.328,1.486-0.193,2.12-1.544,1.921
        l-0.642,4.825l-1.924-1.232l-2.161,0.768l0.582-4.375c-0.681-0.175-0.911-0.803-0.668-1.906c-1.377-0.881-1.377-1.763,0-2.644
        c-0.353-1.602,0.268-2.225,1.861-1.87c0.878-1.383,1.756-1.383,2.634,0c1.595-0.355,2.215,0.268,1.861,1.87
        C21.527,13.548,21.527,14.43,20.149,15.311z M17.219,11.991c-1.106-0.129-2.106,0.666-2.235,1.774
        c-0.129,1.108,0.664,2.112,1.77,2.241c1.106,0.129,2.107-0.665,2.236-1.774C19.118,13.124,18.324,12.12,17.219,11.991z"/>
</svg>
