<svg xmlns="http://www.w3.org/2000/svg" width="24" height="24" viewBox="0 0 24 24">
    <path d="M13.879,14.562c-2.516-1.035-4.398-3.283-4.924-6.017
        C8.803,8.699,7.66,9.844,6.254,11.25c-1.508,1.51-2.731,2.734-2.731,2.734s-1.934-0.311,1.609-3.858
        c2.838-2.842,3.6-2.165,3.792-1.783C8.852,7.904,8.805,7.457,8.805,6.997c0-0.648,0.084-1.276,0.227-1.882
        C8.107,4.887,6.938,5.026,6.218,5.506c-2.251,1.561-4.156,3.468-5.717,5.722c-0.616,0.926-0.679,2.6-0.109,3.53
        c1.264,1.972,2.88,3.589,4.849,4.853c0.93,0.57,2.601,0.508,3.527-0.108c0.48-0.334,0.939-0.692,1.389-1.059L15.365,24h1.467
        L18,22.723v-1.865l-4.869-5.324C13.393,15.223,13.631,14.887,13.879,14.562z M16.994,0C13.127,0,9.99,3.133,9.99,6.998
        s3.137,6.998,7.004,6.998c3.869,0,7.006-3.133,7.006-6.998S20.863,0,16.994,0z M16.994,11.993c-2.76,0-4.998-2.237-4.998-4.996
        c0-2.759,2.238-4.996,4.998-4.996c2.762,0,4.998,2.236,4.998,4.996C21.992,9.756,19.756,11.993,16.994,11.993z M19.25,6h-1.5
        c-0.08,0-0.152,0.03-0.225,0.06L16.6,4.445c-0.24-0.417-0.77-0.561-1.186-0.32C15,4.367,14.857,4.9,15.098,5.318l1.301,2.267
        C16.621,7.977,17.1,8.113,17.5,7.933C17.578,7.97,17.662,8,17.75,8h1.5C19.664,8,20,7.552,20,7S19.664,6,19.25,6z"/>
</svg>
