<svg xmlns="http://www.w3.org/2000/svg" width="24" height="24" viewBox="0 0 24 24">
    <path d="M21.184,19.297l-0.594-0.654l0.893-0.922c0.689-0.711,0.689-1.867,0-2.58
        l-0.625-0.645c-0.689-0.713-1.807-0.713-2.498,0l-0.791,0.816l-1.709-1.885c0.707-1.144,1.123-2.489,1.123-3.934
        C16.982,5.355,13.627,2,9.488,2c-4.14,0-7.496,3.355-7.496,7.494c0,4.139,3.356,7.494,7.496,7.494
        c1.041,0,2.033-0.213,2.936-0.598l6.131,6.068l0.01-0.01c0,0.002,0.002,0.004,0.002,0.004c0.816,0.783,2.096,0.738,2.857-0.104
        c0.762-0.84,0.717-2.158-0.1-2.943C21.281,19.365,21.23,19.334,21.184,19.297z M7.992,10.001C6.892,10.001,6,9.103,6,7.993
        c0-1.109,0.892-2.008,1.992-2.008c1.1,0,1.992,0.899,1.992,2.008C9.984,9.103,9.092,10.001,7.992,10.001z"/>
</svg>
