<svg xmlns="http://www.w3.org/2000/svg" width="24" height="24" viewBox="0 0 24 24">
    <path d="M22.27,9.995c0,0-0.001-0.001-0.002-0.001h-1.859
        c-0.909-4.565-4.863-8.001-9.605-8.001C5.389,1.993,1,6.472,1,11.997C1,17.521,5.389,22,10.803,22c2.197,0,4.22-0.747,5.854-1.993
        l-2.563-2.898c-0.906,0.549-1.966,0.87-3.103,0.87c-3.315,0-6.004-2.685-6.004-5.997s2.688-5.997,6.004-5.997
        c2.617,0,4.837,1.676,5.658,4.01h-1.892l-0.001,0.001c-1.121,0-0.896,1.062-0.011,2.072c0.001,0.001,0.001,0.001,0.002,0.002
        l2.841,3.447c0.503,0.61,1.318,0.61,1.82,0l3.214-3.898C23.196,10.767,23.224,9.995,22.27,9.995z"/>
</svg>
