<svg xmlns="http://www.w3.org/2000/svg" width="24" height="24" viewBox="0 0 24 24">
    <path d="M13.103,8.027l-1.107-0.003V5.59c0-0.562-0.301-1.082-0.791-1.369
        c-0.489-0.286-1.096-0.296-1.595-0.025C9,4.526,6.87,5.721,5.051,7.229c-1.663,1.38-3.03,2.957-3.696,3.774
        c-0.237,0.291-0.356,0.644-0.356,0.997S1.118,12.708,1.356,13c0.537,0.656,1.972,2.338,3.703,3.773
        c1.838,1.524,3.95,2.706,4.553,3.031c0.498,0.27,1.104,0.26,1.594-0.027c0.488-0.286,0.789-0.806,0.789-1.367v-2.408h1.184
        c6.967,0,9.042,2.344,9.583,3.463C22.89,19.729,23,19.825,23,19.523C23,17.257,22.714,8.027,13.103,8.027z"/>
</svg>
