<svg xmlns="http://www.w3.org/2000/svg" width="24" height="24" viewBox="0 0 24 24">
    <path d="M18.578,12.194l0.516-0.415c0,0,2.441-3.198,1.137-6.763
        c-1.717-4.687-4.15-3.987-4.15-3.987l0.014,11.295L15.547,19.7c-0.164,1.68,0.277,3.3,1.672,3.3h0.154
        c1.393,0,2.172-1.5,2.008-3.181L18.578,12.194z M10.443,2.053c0.018-0.091,0.035-0.183,0.035-0.263
        c0-0.638-0.562-0.753-1.576-0.77L9.25,5.239C9.238,5.634,9.201,6.137,8.773,6.137S8.146,5.801,8.158,5.385L8.01,1.019
        C7.855,1.02,7.703,1.021,7.537,1.021c-0.143,0-0.27-0.001-0.4-0.002L7.033,5.385c0.012,0.416-0.188,0.752-0.616,0.752
        c-0.427,0-0.466-0.503-0.478-0.898l0.349-4.221C5.239,1.028,4.702,1.13,4.702,1.79c0,0.052,0.015,0.114,0.021,0.17L4.034,7.55
        c-0.244,1.995,0.872,3,2.04,3.429l-0.33,8.709C5.596,21.438,6.24,23,7.494,23h0.139c1.254,0,1.83-1.562,1.682-3.312l-0.25-8.735
        c1.172-0.442,2.297-1.448,2.057-3.402L10.443,2.053z"/>
</svg>
