<svg xmlns="http://www.w3.org/2000/svg" width="24" height="24" viewBox="0 0 24 24">
    <path d="M12.007,14.996v-0.019c0.128,0.006,0.256,0.019,0.385,0.019
        c4.21,0,7.623-3.356,7.623-7.496c0-4.099-3.346-7.423-7.496-7.491V0.003H6.878v0.016c-1.031,0.074-1.846,0.92-1.854,1.968H5.021
        v0.015v2.067v6.86v0.068v0.008H4.212c-0.946,0-1.198,0.894-1.198,1.995s0.252,1.995,1.198,1.995h0.799v1.014H4.252
        c-0.987,0-1.238,0.894-1.238,1.995S3.266,20,4.252,20h0.759v2.711C5.012,23.597,5.905,24,7.006,24C8.107,24,9,23.597,9,22.711
        v-1.718h0.009V20h4.665c0.987,0,1.338-0.894,1.338-1.995s-0.351-1.995-1.338-1.995H9.009v-1.014H12.007z M9,11V3.997h2.998v0.023
        c0.117-0.016,0.244-0.026,0.389-0.026c2.01,0,3.639,1.569,3.639,3.506c0,1.936-1.629,3.506-3.639,3.506
        c-0.145,0-0.271-0.01-0.389-0.026V11H9z"/>
</svg>
