<svg xmlns="http://www.w3.org/2000/svg" width="24" height="24" viewBox="0 0 24 24">
    <path d="M17.987,9.493C17.987,4.803,14.185,1,9.493,1C4.803,1,1,4.803,1,9.493
        c0,4.691,3.803,8.494,8.493,8.494C14.185,17.987,17.987,14.185,17.987,9.493z M9.478,15.001c-3.037,0-5.499-2.464-5.499-5.503
        S6.44,3.996,9.478,3.996s5.5,2.463,5.5,5.502S12.515,15.001,9.478,15.001z M22.214,19.878l-4.119-4.11
        c-0.33-0.329-0.865-0.329-1.194,0l-1.194,1.192c-0.33,0.329-0.33,0.862,0,1.191l4.119,4.109c0.329,0.329,0.864,0.329,1.194,0
        l1.194-1.191C22.544,20.74,22.544,20.207,22.214,19.878z"/>
</svg>
