<svg xmlns="http://www.w3.org/2000/svg" width="24" height="24" viewBox="0 0 24 24">
    <path d="M21.981,18.282C22.8,18.146,24,17.617,24,17.065c0-0.466-0.357-0.815-0.87-0.973
        c-0.824-0.727-1.515-1.883-1.699-2.546c-0.018-0.062-0.051-0.106-0.091-0.144c-1.271-3.326-4.246-5.8-7.853-6.342
        C13.489,7.04,13.5,7.022,13.5,7V6.25c0-0.089-0.022-0.173-0.051-0.252H15.2c0.981,0,0.8-0.75,0.8-0.75h-0.008
        C15.951,4.731,14.183,4,12,4S8.049,4.731,8.008,5.247H8c0,0-0.125,0.75,0.8,0.75h1.751C10.522,6.077,10.5,6.161,10.5,6.25V7
        c0,0.022,0.011,0.041,0.013,0.062c-3.606,0.542-6.58,3.016-7.852,6.341c-0.041,0.036-0.074,0.081-0.092,0.144
        c-0.185,0.663-0.876,1.819-1.699,2.546C0.358,16.25,0,16.6,0,17.065c0,0.552,1.2,1.081,2.019,1.217C1.2,18.408,0,18.908,0,19.619
        c0,0.824,0.672,1.369,1.5,1.369h21c0.828,0,1.5-0.545,1.5-1.369C24,18.908,22.8,18.408,21.981,18.282z M9.145,14.828
        c0,0.986-0.504,2.179-1.719,2.179c-1.216,0-4.424-0.019-4.424-0.019c0.035-0.128,0.947-0.37,1.554-1.854
        c1.246-3.044,3.447-6.028,6.458-6.15C10.531,9.639,9.145,12.243,9.145,14.828z M19.637,17.006c-2.006,0-2-0.891-2.193-1.447
        c-1.336-3.834-3.255-5.81-4.453-6.557c3.018,0.294,4.701,2.981,6.051,5.137C19.867,15.459,20.387,17.006,19.637,17.006z"/>
</svg>
