<svg xmlns="http://www.w3.org/2000/svg" width="24" height="24" viewBox="0 0 24 24">
    <path d="M20.018,12.001l0.278-0.16l2.249-2.96c-0.498-1.687-1.392-3.201-2.57-4.443
        l-3.761,0.508l-0.205,0.118V4.827l-1.442-3.513C13.742,1.117,12.886,1.001,12,1.001s-1.742,0.116-2.566,0.313L7.991,4.741v0.321
        L7.789,4.945L4.027,4.437C2.848,5.679,1.955,7.192,1.456,8.877l2.25,2.963l0.278,0.161l-0.202,0.117l-2.325,3.007
        c0.5,1.686,1.395,3.199,2.575,4.44L7.716,19.1l0.275-0.159v0.319l1.44,3.422c0.825,0.197,1.683,0.313,2.568,0.313
        s1.743-0.116,2.568-0.313l1.44-3.508v-0.234l0.278,0.16l3.681,0.466c1.182-1.242,2.076-2.756,2.575-4.443l-2.322-3.004
        L20.018,12.001z M12.018,15.987c-2.211,0-4.001-1.79-4.001-3.998c0-2.208,1.79-3.997,4.001-3.997c2.21,0,4.001,1.79,4.001,3.997
        C16.019,14.197,14.228,15.987,12.018,15.987z"/>
</svg>
