<svg xmlns="http://www.w3.org/2000/svg" width="24" height="24" viewBox="0 0 24 24">
    <path d="M10.945,10.836l3.2-1.376c0.823,0.936,2.016,1.538,3.359,1.538
        c2.483,0,4.496-2.014,4.496-4.499C22.001,4.015,19.988,2,17.505,2c-2.482,0-4.494,2.015-4.494,4.499
        c0,0.057,0.015,0.109,0.017,0.165L9.78,8.061C10.405,8.84,10.82,9.793,10.945,10.836z M16.504,13.998
        c-1.095,0-2.086,0.405-2.867,1.052l-2.944-1.78c-0.334,0.983-0.935,1.843-1.722,2.486l3.109,1.88
        c-0.055,0.279-0.087,0.566-0.087,0.861c0,2.484,2.02,4.499,4.511,4.499s4.511-2.015,4.511-4.499
        C21.015,16.012,18.995,13.998,16.504,13.998z M5.494,6.999c-2.482,0-4.495,2.015-4.495,4.499c0,2.485,2.013,4.499,4.495,4.499
        c2.483,0,4.496-2.014,4.496-4.499C9.99,9.014,7.977,6.999,5.494,6.999z"/>
</svg>
