<svg xmlns="http://www.w3.org/2000/svg" width="24" height="24" viewBox="0 0 24 24">
    <path d="M21.927,17.434c-0.185-3.473-0.674-9.91-0.674-9.91
        c0-0.842-0.689-1.524-1.541-1.524c0,0-1.164,0.067-2.716,0.133C16.793,3.823,14.656,2,12.023,2C9.389,2,7.252,3.824,7.049,6.134
        C5.482,6.067,4.303,5.999,4.303,5.999c-0.851,0-1.541,0.683-1.541,1.524c0,0-0.487,6.393-0.674,9.91c-0.198,3.719,0,3.049,0,3.049
        c0,0.556,0.304,1.037,0.753,1.304c0.941,0.64,5.009,1.185,9.191,1.185c4.5,0,8.865-0.632,9.347-1.332
        c0.333-0.279,0.548-0.691,0.548-1.156C21.927,20.482,22.127,21.191,21.927,17.434z M12.042,3.989c1.64,0,2.97,0.99,2.995,2.217
        c-1.035,0.034-2.1,0.058-3.029,0.058c-0.91,0-1.948-0.023-2.962-0.055C9.069,4.98,10.4,3.989,12.042,3.989z M7.945,8.531h0.03
        C8.013,8.217,8.32,7.968,8.708,7.968c0.387,0,0.694,0.249,0.731,0.563h0.005v0.018c0.001,0.014,0.01,0.026,0.01,0.041
        S9.445,8.616,9.444,8.63v0.7c0,1.047,1.305,1.888,2.563,1.888c1.258,0,2.562-0.841,2.562-1.888V8.531H14.6
        c0.037-0.314,0.346-0.563,0.732-0.563c0.388,0,0.695,0.249,0.732,0.563h0.006v0.022c0.001,0.013,0.009,0.023,0.009,0.036
        s-0.008,0.023-0.009,0.036v0.705c0,1.746-1.966,3.161-4.062,3.161c-2.098,0-4.062-1.415-4.062-3.161V8.531z"/>
</svg>
