<svg xmlns="http://www.w3.org/2000/svg" width="24" height="24" viewBox="0 0 24 24">
    <path d="M23.994,7.005C23.994,3.136,20.862,0,16.999,0c-3.173,0-5.849,2.117-6.704,5.018
        c-4.075,0.029-7.436,0.9-8.149,2.046C0.934,7.519,0,10.285,0,13.497c0,3.196,0.925,5.951,2.128,6.427
        c0.259,0.447,0.923,0.854,1.875,1.186l0.005,2.189c0.205,0.687,0.996,0.985,2.276,0.28l2.602-1.625
        C9.409,21.983,9.948,22,10.501,22c4.218,0,7.708-0.902,8.379-2.085c1.186-0.499,2.036-3.24,2.036-6.418
        c0-0.229-0.014-0.45-0.022-0.674C22.764,11.566,23.994,9.43,23.994,7.005z M5.774,10h4.909c0.356,0.752,0.839,1.433,1.426,2.009
        H5.774c-0.435,0-0.786-0.45-0.786-1.005S5.34,10,5.774,10z M14.164,15.995H5.812c-0.455,0-0.824-0.442-0.824-0.989
        c0-0.546,0.369-0.989,0.824-0.989h8.352c0.455,0,0.824,0.443,0.824,0.989C14.988,15.553,14.619,15.995,14.164,15.995z
         M16.987,12.011c-2.763,0-5.004-2.241-5.004-5.005C11.983,4.241,14.225,2,16.987,2c2.764,0,5.004,2.241,5.004,5.006
        C21.991,9.77,19.751,12.011,16.987,12.011z M16.995,4.004c-2.161,0-2,2-2,2h1c0,0,0.285-1.047,1.062-1
        c0.536,0.032,1.519,0.647-0.062,2.232c-1.135,1.138-2,1.768-2,1.768v1h4v-1h-2c0,0,0.814-0.867,1.723-1.993
        C19.556,5.972,19.156,4.004,16.995,4.004z"/>
</svg>
