<svg xmlns="http://www.w3.org/2000/svg" width="24" height="24" viewBox="0 0 24 24">
    <path d="M19.223,0H6.777C6.348,0,6,0.336,6,0.75v7.779c-0.918,0.098-1.562,1.188-1.971,2.027C2.057,14.594,1.205,16.841,5,19.821
        c1.861,1.462,1.752,3.292,1.746,3.363L6.674,24h5.588l0.227-0.319c0.086-0.121,2.23-2.275,0.879-5.78
        c0.836-0.071,1.379-0.372,1.576-0.927c0.189-0.528,0.189-1.219,0.08-1.974h4.199C19.65,15,20,14.664,20,14.25V0.75
        C20,0.336,19.65,0,19.223,0z M15.781,3.232c0.379,0.381,0.246,0.909-0.135,1.29L11.514,8.66c-0.246,0.247-0.535,0.353-0.811,0.306
        c-0.115-0.07-0.24-0.131-0.379-0.18c-0.018-0.016-0.037-0.02-0.055-0.037c-0.381-0.381-0.291-0.865,0.09-1.246l4.133-4.138
        C14.873,2.985,15.4,2.852,15.781,3.232z M11,2.794c0.666,0,1.205,0.542,1.205,1.21S11.666,5.215,11,5.215s-1.205-0.542-1.205-1.21
        S10.334,2.794,11,2.794z M11.377,22.02L8.375,22c-0.119-0.902-0.525-2.224-2.158-3.455c-2.946-2.223-1.461-4.607-0.234-7.614
        v4.127l0.078,0.476c0.072,0.041,0.447,0.11,0.793,0.11c0.582,0,1.141-1.445,1.182-2.678c0.068-2.164,0.383-2.539,1.102-2.561
        c0.635,0,0.854,0.328,0.916,2.267c0.008,0.252-0.004,0.505-0.002,0.754c0.01,1.166,0.225,2.355,0.799,3.366
        C12.502,19.694,11.785,21.246,11.377,22.02z M13.543,16.375c-0.076,0.023-0.24,0.057-0.545,0.057
        c-0.119,0-0.256-0.013-0.389-0.021c-0.076-0.123-0.141-0.242-0.227-0.368c-0.193-0.286-0.289-0.648-0.348-1.042h1.449
        C13.588,15.561,13.625,16.047,13.543,16.375z M15,9.2c-0.662,0-1.199-0.54-1.199-1.205S14.338,6.791,15,6.791
        c0.66,0,1.197,0.54,1.197,1.205S15.66,9.2,15,9.2z"/>
</svg>
