<svg xmlns="http://www.w3.org/2000/svg" width="24" height="24" viewBox="0 0 24 24">
    <path d="M19.518,1H4.485C3.669,1,3.008,1.657,3.008,2.468v19.078c0,0.81,0.662,1.467,1.478,1.467h0.05l7.467-4.024l7.467,4.024
        h0.049c0.816,0,1.479-0.657,1.479-1.467V2.468C20.996,1.657,20.334,1,19.518,1z M16.846,8.961l-1.908,1.882l0.381,2.53
        c0.018,0.203-0.078,0.4-0.252,0.521c-0.109,0.077-0.24,0.116-0.373,0.116c-0.078,0-0.156-0.014-0.232-0.042l-2.473-1.11
        l-2.471,1.11c-0.074,0.028-0.154,0.042-0.232,0.042c-0.133,0-0.264-0.039-0.373-0.116c-0.174-0.121-0.27-0.318-0.252-0.522
        l0.381-2.529L7.133,8.961C6.992,8.803,6.949,8.587,7.02,8.392C7.09,8.196,7.264,8.05,7.479,8.005l2.689-0.422l1.283-2.296
        c0.113-0.178,0.316-0.286,0.537-0.286s0.426,0.108,0.539,0.286l1.283,2.296L16.5,8.005c0.215,0.045,0.389,0.191,0.459,0.387
        S16.986,8.803,16.846,8.961z"/>
</svg>
