<svg xmlns="http://www.w3.org/2000/svg" width="24" height="24" viewBox="0 0 24 24">
    <path d="M22,4H2C0.896,4,0,4.896,0,6v12c0,1.104,0.896,2,2,2h6.266c1.021-1.09,1.7-2.755,1.7-5.197
        c0-0.758,0.054-1.371,0.75-1.572c0.257-0.076,0.402-0.114,0.751-0.196c0.33-0.112,0.418-0.226,0.293-0.524
        c-0.209-0.506-1.753-3.084-1.753-3.838V6.577c0-0.216,0.101-0.585,0.558-0.585c0.459,0,0.441,0.369,0.441,0.585v2.054
        c0,0.4,1.986,3.597,2.271,4.152c0.259,0.504,0.208,0.758-0.523,1.001c-0.189,0.062-0.529,0.147-0.843,0.234
        c-0.558,0.154-0.88,0.287-0.88,0.784c0,2.195-0.469,3.911-1.286,5.197H22c1.104,0,2-0.896,2-2V6C24,4.896,23.104,4,22,4z
         M4.994,6.882c0.621,0,1.125,0.506,1.125,1.127c0,0.625-0.504,1.129-1.125,1.129c-0.619,0-1.123-0.504-1.123-1.129
        C3.871,7.388,4.375,6.882,4.994,6.882z M6.09,17.019c-1.371,0-3.043-0.25-3.809-2.202c-0.129-0.328,0.037-0.697,0.371-0.825
        c0.334-0.127,0.71,0.037,0.839,0.366c0.401,1.021,1.081,1.385,2.599,1.385c0.358,0,0.649,0.285,0.649,0.638
        S6.448,17.019,6.09,17.019z"/>
</svg>
