<svg xmlns="http://www.w3.org/2000/svg" width="24" height="24" viewBox="0 0 24 24">
    <path d="M21.75,23.997H2.25c-1.243,0-2.25-1.022-2.25-2.284v-5.706l0,0V11.99l0,0v-1.699
        C0,9.03,1.007,8.007,2.25,8.007h1.751v1.994H2v1.989h2.493c0.386,0.465,0.919,1.099,1.322,1.532c0.925,0.998,1.89,1.817,2.769,2.484
        H2V22h20v-5.993h-6.584c0.88-0.667,1.844-1.486,2.769-2.484c0.403-0.434,0.937-1.067,1.322-1.532H22v-1.989h-2.001V8.007h1.751
        c1.242,0,2.25,1.023,2.25,2.284v11.422C24,22.975,22.992,23.997,21.75,23.997z M15.574,13.424c-1.033,1.061-2.215,1.932-2.828,2.356
        c-0.218,0.151-0.482,0.227-0.746,0.227c-0.266,0-0.531-0.076-0.749-0.228c-0.491-0.343-1.752-1.258-2.827-2.36
        c-1.143-1.172-2.027-2.518-2.271-2.902c-0.202-0.318-0.194-0.704,0.02-1.016c0.215-0.312,0.604-0.504,1.025-0.504H8V7L5.77,7.013
        C5.344,7.013,5,6.66,5,6.226V0.81C5,0.365,5.357,0,5.8,0h2.921c0.357,0.004,0.486,0.106,0.705,0.316l6.338,6.154
        c0.154,0.168,0.233,0.289,0.233,0.639C15.997,7.114,16,7.117,16,7.122v1.875h0.803c0.422,0,0.811,0.192,1.025,0.504
        c0.215,0.312,0.222,0.699,0.02,1.017C17.6,10.906,16.705,12.265,15.574,13.424z M9,2H7v3h5L9,2z M8.5,2.914
        c0.324,0,0.586,0.263,0.586,0.586S8.824,4.086,8.5,4.086S7.914,3.823,7.914,3.5S8.176,2.914,8.5,2.914z"/>
</svg>
