<svg xmlns="http://www.w3.org/2000/svg" width="24" height="24" viewBox="0 0 24 24">
    <path d="M19.96,21.047l-1.048-1.657c1.27-0.058,2.24-1.15,2.183-2.486L20.317,3.117
        C20.268,1.942,19.252,1,18.049,1H5.829C4.626,1,3.731,1.942,3.681,3.117L2.905,16.903c-0.057,1.338,0.916,2.433,2.188,2.487
        l-1.066,1.687c-0.011,0.019-0.01,0.034-0.023,0.054C2.879,22.812,2.688,23.891,4.166,24h0.677l0.697-0.987h12.923L19.16,24h0.674
        c1.478-0.109,1.287-1.188,0.161-2.869C19.976,21.102,19.975,21.076,19.96,21.047z M6.109,15.497c0-0.825,0.662-1.493,1.478-1.493
        c0.817,0,1.478,0.668,1.478,1.493s-0.66,1.493-1.478,1.493C6.771,16.99,6.109,16.322,6.109,15.497z M6.963,20.996l0.707-1.002
        h8.663l0.707,1.002H6.963z M16.412,16.99c-0.815,0-1.476-0.668-1.476-1.493s0.66-1.493,1.476-1.493
        c0.817,0,1.478,0.668,1.478,1.493S17.229,16.99,16.412,16.99z M5.204,11.983l0.434-7.025h12.664l0.434,7.025H5.204z"/>
</svg>
