<svg xmlns="http://www.w3.org/2000/svg" width="24" height="24" viewBox="0 0 24 24">
    <path d="M11.25,14.705h1.503l0.23-3.715H11.02L11.25,14.705z M8.25,14.705h1.503
        l0.231-3.715H8.02L8.25,14.705z M22,4H2C0.896,4,0,4.896,0,6v12c0,1.104,0.896,2,2,2h20c1.104,0,2-0.896,2-2V6
        C24,4.896,23.104,4,22,4z M18.474,10.581c0,0.226-0.181,0.409-0.405,0.409H17.02l0.23,3.715h0.375
        c0.207,0,0.375,0.226,0.375,0.505v0.293c0,0.279-0.168,0.506-0.375,0.506h-3.411c0.015,0.06,0.036,0.117,0.036,0.182
        c0,0.421-0.336,0.762-0.75,0.762h-3c-0.414,0-0.75-0.341-0.75-0.762c0-0.064,0.021-0.122,0.036-0.182H6.375
        C6.168,16.009,6,15.782,6,15.503V15.21c0-0.279,0.168-0.505,0.375-0.505h0.378l0.23-3.715H5.931c-0.224,0-0.405-0.184-0.405-0.409
        c0-0.227,0-0.399,0-0.399s0.02-0.004,0.05-0.011l6.294-3.148c0.084-0.054,0.219-0.054,0.301,0l6.297,3.143h-0.074
        c0.047,0.01,0.079,0.017,0.079,0.017S18.474,10.354,18.474,10.581z M14.25,14.705h1.503l0.23-3.715H14.02L14.25,14.705z"/>
</svg>
