<svg xmlns="http://www.w3.org/2000/svg" width="24" height="24" viewBox="0 0 24 24">
    <path d="M23.707,15.555c-0.44,0.696-1.617,2.482-3.036,4.007
        c-1.507,1.619-3.237,2.874-3.732,3.22c-0.409,0.286-0.905,0.274-1.307-0.029s-0.647-0.856-0.647-1.452v-1.303l-3.613,0.002
        c-0.016-0.001-0.021-0.004-0.038-0.004c-0.639,0-0.845-0.104-1.056-0.309l-0.113-0.114c-0.044-0.046-0.084-0.088-0.137-0.142
        c-0.006-0.006-0.009-0.006-0.015-0.011L0.503,9.808C0.498,9.802,0.498,9.797,0.491,9.791C0.034,9.368,0,9.085,0,8.618V2.299
        C0,1.579,0.557,1,1.256,1h9.486C11.441,1,12,1.579,12,2.299v6.7h2.984V7.686c0-0.597,0.246-1.149,0.648-1.453
        c0.401-0.304,0.898-0.314,1.308-0.027c0.499,0.351,2.246,1.62,3.737,3.222c1.363,1.465,2.484,3.14,3.03,4.008
        C23.902,13.744,24,14.118,24,14.493C24,14.869,23.902,15.245,23.707,15.555z M7.604,13.729c0.001-0.032,0.004-0.062,0.004-0.095
        c0-1.817-1.195-3.191-2.487-3.191c-0.283,0-0.592,0.024-0.897,0.069L7.604,13.729z M9.488,5.006c-0.83,0-1.504-0.672-1.504-1.499
        c0-0.182,0.045-0.352,0.104-0.512L3.907,2.998C3.966,3.158,4.01,3.326,4.01,3.507c0,0.827-0.672,1.499-1.502,1.499
        C2.327,5.006,2.16,4.961,2,4.903v3.496l1.051,0.999c0.545-0.258,1.146-0.392,1.793-0.392c2.301,0,4.166,1.969,4.166,4.594
        c0,0.445-0.062,0.889-0.15,1.322L9.991,16L9.998,4.903C9.838,4.961,9.669,5.006,9.488,5.006z M5.995,7
        C5.439,7,4.989,6.551,4.989,5.997s0.45-1.002,1.006-1.002S7,5.443,7,5.997S6.551,7,5.995,7z"/>
</svg>
