<svg xmlns="http://www.w3.org/2000/svg" width="24" height="24" viewBox="0 0 24 24">
    <path d="M18.696,8.368C18.229,7.901,17.499,7.891,17,8.302V0.814
        C17,0.365,16.684,0,16.295,0h-0.791c-0.129,0-0.253,0.058-0.346,0.161l-0.83,0.928l-0.829-0.928C13.406,0.058,13.282,0,13.153,0
        H12.59c-0.129,0-0.253,0.058-0.346,0.161l-0.83,0.928l-0.83-0.928C10.492,0.058,10.368,0,10.238,0H9.676
        C9.547,0,9.423,0.058,9.33,0.161L8.5,1.089L7.67,0.161C7.577,0.058,7.453,0,7.324,0H6.762c-0.13,0-0.254,0.058-0.346,0.161
        l-0.83,0.928l-0.83-0.928C4.663,0.058,4.539,0,4.41,0H3.847C3.718,0,3.594,0.058,3.502,0.161l-0.83,0.928l-0.83-0.928
        C1.749,0.058,1.625,0,1.496,0H0.705C0.316,0,0,0.365,0,0.814v20.363c0,0.449,0.317,0.814,0.708,0.814h0.788
        c0.129,0,0.253-0.058,0.346-0.161l0.83-0.928l0.83,0.928c0.092,0.104,0.216,0.161,0.345,0.161H4.41
        c0.129,0,0.253-0.058,0.346-0.161l0.83-0.928l0.83,0.928c0.092,0.104,0.216,0.161,0.346,0.161h0.562
        c0.129,0,0.253-0.058,0.346-0.161l0.83-0.928l0.83,0.928c0.093,0.104,0.217,0.161,0.346,0.161h0.562
        c0.13,0,0.254-0.058,0.346-0.161l0.434-0.485l0.139,0.139l10.332-10.322L18.696,8.368z M14.997,10.272l-6.626,6.629
        c-0.495,0.496-0.495,1.301,0,1.797l0.637,0.637c-0.167-0.054-0.337-0.09-0.508-0.09c-0.492,0-0.985,0.22-1.361,0.658l-0.082,0.096
        l-0.083-0.096c-0.376-0.438-0.869-0.658-1.361-0.658s-0.985,0.22-1.361,0.658l-0.083,0.096l-0.082-0.096
        c-0.376-0.438-0.869-0.658-1.361-0.658c-0.245,0-0.491,0.055-0.722,0.163V2.603c0.231,0.109,0.477,0.163,0.722,0.163
        c0.492,0,0.985-0.219,1.361-0.657l0.082-0.097l0.083,0.097C4.627,2.547,5.12,2.766,5.612,2.766s0.985-0.219,1.361-0.657
        l0.083-0.097l0.082,0.097C7.515,2.547,8.008,2.766,8.5,2.766s0.985-0.219,1.361-0.657l0.083-0.097l0.082,0.097
        c0.376,0.438,0.869,0.657,1.361,0.657c0.493,0,0.985-0.219,1.361-0.657l0.083-0.097l0.082,0.097
        c0.376,0.438,0.869,0.657,1.361,0.657c0.245,0,0.491-0.054,0.722-0.163V10.272z M9.286,9.009H4.714C4.32,9.009,4,9.457,4,10.01
        s0.32,1.001,0.714,1.001h4.572c0.395,0,0.714-0.448,0.714-1.001S9.681,9.009,9.286,9.009z M9.223,12.014H4.777
        C4.349,12.014,4,12.462,4,13.015s0.349,1.001,0.777,1.001h4.445c0.429,0,0.777-0.448,0.777-1.001S9.651,12.014,9.223,12.014z
         M10.375,5.005h-3.75C6.28,5.005,6,5.453,6,6.006s0.28,1.001,0.625,1.001h3.75C10.72,7.007,11,6.559,11,6.006
        S10.72,5.005,10.375,5.005z M23.634,13.309l-0.792-0.792L12.51,22.839l0.8,0.8c0.496,0.496,1.3,0.496,1.796,0l8.528-8.533
        C24.13,14.609,24.13,13.805,23.634,13.309z M12.333,9.009h-0.666C11.299,9.009,11,9.457,11,10.01s0.299,1.001,0.667,1.001h0.666
        c0.368,0,0.667-0.448,0.667-1.001S12.701,9.009,12.333,9.009z"/>
</svg>
