<svg xmlns="http://www.w3.org/2000/svg" width="24" height="24" viewBox="0 0 24 24">
    <path d="M21.75,21.996H2.25c-1.243,0-2.25-1.022-2.25-2.284v-5.706l0,0V9.989l0,0V8.29
        c0-1.261,1.007-2.284,2.25-2.284h1.767V8.01H2v1.979h2.507c0.385,0.465,0.918,1.099,1.321,1.534
        c0.923,0.996,1.885,1.815,2.763,2.482H2v5.986h20v-5.986h-6.59c0.877-0.667,1.839-1.486,2.762-2.482
        c0.403-0.436,0.937-1.069,1.321-1.534H22V8.01h-2.017V6.006h1.767c1.242,0,2.25,1.023,2.25,2.284v11.422
        C24,20.974,22.992,21.996,21.75,21.996z M15.574,11.423c-1.033,1.061-2.215,1.932-2.828,2.356c-0.218,0.151-0.482,0.227-0.746,0.227
        c-0.266,0-0.531-0.076-0.749-0.228c-0.491-0.343-1.752-1.258-2.827-2.36C7.281,10.246,6.396,8.9,6.152,8.516
        C5.95,8.197,5.958,7.812,6.172,7.5c0.215-0.312,0.604-0.504,1.025-0.504h0.799L8,3.551C8,2.694,8.717,2,9.6,2H14.4
        C15.283,2,16,2.694,16,3.551v3.445h0.803c0.422,0,0.811,0.192,1.025,0.504c0.215,0.312,0.222,0.699,0.02,1.017
        C17.6,8.905,16.705,10.264,15.574,11.423z"/>
</svg>
