<svg xmlns="http://www.w3.org/2000/svg" width="24" height="24" viewBox="0 0 24 24">
    <path d="M20.253,1h-0.837c-0.137,0-0.268,0.055-0.365,0.151l-0.879,0.874l-0.879-0.873
        C17.194,1.055,17.063,1,16.927,1H16.33c-0.137,0-0.268,0.055-0.365,0.151l-0.879,0.874l-0.879-0.873
        C14.109,1.055,13.978,1,13.842,1h-0.598c-0.137,0-0.267,0.055-0.365,0.152L12,2.025l-0.879-0.874C11.023,1.055,10.892,1,10.755,1
        h-0.596c-0.137,0-0.268,0.055-0.366,0.152L8.915,2.025L8.036,1.151C7.938,1.055,7.806,1,7.669,1H7.073
        C6.937,1,6.805,1.055,6.708,1.152L5.829,2.025L4.95,1.152C4.852,1.055,4.721,1,4.584,1H3.747C3.335,1,3,1.344,3,1.767v20.467
        C3,22.656,3.336,23,3.75,23h0.834c0.137,0,0.268-0.055,0.366-0.151l0.879-0.874l0.879,0.874C6.805,22.945,6.937,23,7.073,23h0.596
        c0.137,0,0.268-0.055,0.366-0.151l0.879-0.874l0.878,0.874C9.891,22.945,10.022,23,10.159,23h0.596
        c0.137,0,0.268-0.055,0.366-0.151L12,21.975l0.879,0.874C12.977,22.945,13.107,23,13.244,23h0.598
        c0.136,0,0.268-0.055,0.365-0.151l0.879-0.874l0.879,0.874C16.062,22.945,16.193,23,16.33,23h0.597
        c0.137,0,0.269-0.055,0.366-0.151l0.879-0.874l0.879,0.874C19.148,22.945,19.279,23,19.416,23h0.834
        c0.414,0,0.75-0.344,0.75-0.767V1.767C21,1.344,20.665,1,20.253,1z M10,16H7c-0.552,0-1-0.447-1-1s0.448-1,1-1h3
        c0.552,0,1,0.447,1,1S10.552,16,10,16z M13,12H7c-0.552,0-1-0.447-1-1s0.448-1,1-1h6c0.553,0,1,0.447,1,1S13.553,12,13,12z M14,7
        h-4C9.448,7,9,6.553,9,6c0-0.552,0.448-1,1-1h4c0.553,0,1,0.448,1,1C15,6.553,14.553,7,14,7z M17,16.225
        c-0.677,0-1.225-0.548-1.225-1.225s0.548-1.225,1.225-1.225s1.225,0.548,1.225,1.225S17.677,16.225,17,16.225z M17,12.225
        c-0.677,0-1.225-0.548-1.225-1.225S16.323,9.775,17,9.775s1.225,0.548,1.225,1.225S17.677,12.225,17,12.225z"/>
</svg>
