<svg xmlns="http://www.w3.org/2000/svg" width="24" height="24" viewBox="0 0 24 24">
    <path d="M22.776,7.398l-0.012-0.015c-0.039-0.078-0.921-1.853-2.077-3.331
        c-1.188-1.52-2.632-2.726-2.707-2.787l-0.01-0.012C17.838,1.083,17.666,0.999,17.495,1c-0.171-0.001-0.343,0.083-0.476,0.254
        l-0.01,0.012c-0.074,0.062-1.519,1.268-2.706,2.787c-1.156,1.479-2.04,3.253-2.078,3.331l-0.012,0.015
        C12.074,7.577,12,7.821,12,8.07c0,0.115,0.016,0.232,0.049,0.344c0.104,0.352,0.357,0.583,0.639,0.583h0.004H15v7.53
        c0,0.814,0.639,1.475,1.426,1.475h2.14c0.787,0,1.425-0.66,1.425-1.475v-7.53h2.309h0.004c0.282,0,0.535-0.231,0.639-0.583
        c0.033-0.111,0.05-0.229,0.05-0.344C22.991,7.821,22.916,7.577,22.776,7.398z M11.303,15.015h-0.004H9v-7.54
        C9,6.66,8.36,6,7.571,6H5.429C4.64,6,4,6.66,4,7.475v7.54H1.691H1.688c-0.281,0-0.535,0.231-0.639,0.583
        C1.016,15.709,1,15.826,1,15.941c0,0.249,0.074,0.493,0.214,0.672l0.012,0.015c0.039,0.078,0.922,1.853,2.078,3.331
        c1.188,1.52,2.632,2.726,2.706,2.788l0.01,0.012c0.133,0.17,0.305,0.254,0.476,0.254s0.343-0.084,0.476-0.254l0.01-0.012
        c0.075-0.062,1.519-1.269,2.707-2.788c1.156-1.479,2.039-3.253,2.077-3.331l0.012-0.015c0.14-0.179,0.215-0.423,0.215-0.672
        c0-0.115-0.017-0.232-0.05-0.344C11.838,15.246,11.585,15.015,11.303,15.015z"/>
</svg>
