<svg xmlns="http://www.w3.org/2000/svg" width="24" height="24" viewBox="0 0 24 24">
    <path d="M21.789,11.289C19.216,7.706,13.859,4.023,11.08,2.2
        c-0.162-0.128-0.408-0.199-0.634-0.2c-0.132,0-0.325,0.025-0.45,0.08c-0.348,0.145-0.674,0.508-0.67,0.896
        c0.388,1.65,1.107,3.282,1.8,5.026H3.949C2.873,8.002,2,9.076,2,10.401V13.6c0,1.324,0.873,2.398,1.949,2.398h7.3
        c-0.727,1.748-1.512,3.369-1.923,5.025c-0.004,0.389,0.322,0.752,0.67,0.896c0.125,0.056,0.378,0.08,0.51,0.08
        c0.225,0,0.439-0.07,0.602-0.199c2.777-1.82,8.13-5.512,10.689-9.09c0.138-0.188,0.205-0.444,0.205-0.711
        C22.002,11.734,21.928,11.478,21.789,11.289z"/>
</svg>
