<svg xmlns="http://www.w3.org/2000/svg" width="24" height="24" viewBox="0 0 24 24">
    <path d="M12.001,1C5.926,1,1,5.925,1,12c0,6.076,4.926,11.001,11.001,11.001
        S23.002,18.076,23.002,12C23.002,5.925,18.076,1,12.001,1z M4.476,7.578c0.527,0.073,1.068-0.062,1.518,0.846
        c0.229,0.47,0.688,0.984,0.975,1.263C7.116,9.83,7.232,9.922,7.316,9.963c0.042,0.021,0.077,0.029,0.103,0.025
        C7.445,9.983,7.463,9.966,7.47,9.934c0.131-0.205,0.18-1.411-0.32-2.028c-0.453-0.586-0.414-1.122-0.41-1.12
        c0.056,0.04,0.786-0.133,0.928-1.133C7.748,5.265,7.879,4.989,8.005,4.77c0.396,0.038,0.81,0.016,1.071-0.097
        c0.771-0.335,1.465-0.825,1.412-1.283c0.487-0.084,0.985-0.137,1.496-0.137c1.569,0,3.039,0.418,4.313,1.141
        c-0.078,0.01-0.159,0.038-0.242,0.096c-0.794,0.551-1.241-0.092-1.439,0.643c-0.198,0.735,0.124,1.539,0.124,1.539l-1.538,0.022
        c-1.043,0.482-0.497,2.043-0.497,2.043s1.688,0.574,2.681,0.023s1.613-1.538,1.613-1.538l1.837,2.089
        c0.67,0.344,0.943-0.987,0.943-0.987c-0.266-0.38-0.353-0.682-0.355-0.922c0.546,0.877,0.946,1.853,1.154,2.9l-0.203,0.042
        c0,0-0.655,0.886-2.838,0.28c-2.182-0.604-4.341-0.394-4.411,0.712c-0.068,1.078-1.408-0.238-1.026,2.1
        c0,0-0.111,3.135,2.052,3.147c1.167,0.007,0.774-0.608,1.026-1.05c1.201,0.507,1.667,2.298,1.853,3.641
        c-1.427,1.009-3.165,1.606-5.046,1.606c-1.567,0-3.035-0.417-4.309-1.138l-0.069-0.834c0,0,0.231-0.492,0.618-0.773
        c0.388-0.281,0.542-0.492,0.852-1.055s1.039-1.406,1.116-1.758c0.078-0.352,1.161-1.407,0.542-1.97S9.032,12.62,8.49,12.479
        s-2.277-0.634-2.432-1.196s-1.47-0.352-1.935-0.14C3.94,11.227,3.6,11.383,3.246,11.515c0.077-1.357,0.456-2.633,1.082-3.756
        C4.378,7.698,4.438,7.64,4.476,7.578z M21.801,10.048c-0.053-0.264-0.121-0.521-0.194-0.777c0.183,0.234,0.325,0.478,0.387,0.737
        L21.801,10.048z"/>
</svg>
