<svg xmlns="http://www.w3.org/2000/svg" width="24" height="24" viewBox="0 0 24 24">
    <path d="M23,5H5.634c0-0.015-0.001-0.035-0.001-0.05c0-2.215-1.785-2.776-2.849-2.915
        C2.739,2.026,2.692,2.025,2.646,2.02C2.61,2.016,2.574,2.012,2.54,2.009C2.519,2.008,2.499,2.002,2.477,2.002
        c-0.004,0-0.008,0.001-0.012,0.001C2.19,1.985,2.008,1.993,2.008,1.993v0.093C1.426,2.284,1.004,2.832,1.004,3.484
        s0.422,1.2,1.004,1.398V4.95c0,0,0.691-0.095,0.725,0.739c0.033,0.826,0.777,5.514,1.45,9.096
        c0.415,2.202,1.495,3.255,2.475,3.758c-0.4,0.364-0.656,0.884-0.656,1.467c0,1.102,0.895,1.992,1.998,1.992
        c1.103,0,1.996-0.891,1.996-1.992c0-0.371-0.108-0.714-0.286-1.012c1.185,0,3.251,0,6.168,0c0.152,0,0.288-0.012,0.431-0.019
        c-0.184,0.302-0.296,0.651-0.296,1.03c0,1.102,0.895,1.992,1.997,1.992s1.997-0.891,1.997-1.992c0-0.766-0.438-1.423-1.073-1.756
        c1.354-0.876,1.291-2.213,0.476-2.213c-1.213,0-8.522,0-10.833,0c-1.024,0-1.493-1.199-1.493-1.199s-0.062-0.321-0.158-0.837
        c1.209,0,5.065,0,9.882,0C22.656,14.005,23,5,23,5z"/>
</svg>
