<svg xmlns="http://www.w3.org/2000/svg" width="24" height="24" viewBox="0 0 24 24">
    <path d="M22,2H2C0.896,2,0,2.896,0,4v12c0,1.104,0.896,2,2,2h6.006v2H7
        c-0.552,0-1,0.447-1,1s0.448,1,1,1h10c0.553,0,1-0.447,1-1s-0.447-1-1-1h-1.006v-2H22l2-2V4C24,2.896,23.104,2,22,2z
         M10.871,7.591c-0.068,0.442-0.467,0.801-0.889,0.801h-1.53l-0.743,4.803c-0.068,0.442-0.466,0.801-0.888,0.801H6.056
        c-0.422,0-0.709-0.358-0.641-0.801l0.743-4.803h-1.53c-0.422,0-0.709-0.358-0.641-0.801l0.124-0.8
        c0.069-0.442,0.466-0.8,0.889-0.8h5.354c0.422,0,0.709,0.358,0.641,0.8L10.871,7.591z M19.902,6.791l-3.167,6.404
        c-0.218,0.442-0.738,0.801-1.161,0.801h-1.443c-0.423,0-0.832-0.358-0.914-0.801l-1.186-6.404c-0.082-0.442,0.194-0.8,0.617-0.8
        h0.765c0.423,0,0.831,0.358,0.913,0.8l0.894,4.829l2.388-4.829c0.219-0.442,0.738-0.8,1.16-0.8h0.766
        C19.955,5.99,20.121,6.349,19.902,6.791z"/>
</svg>
