<svg xmlns="http://www.w3.org/2000/svg" width="24" height="24" viewBox="0 0 24 24">
    <path d="M21.622,7.635c0,6.673-4.958,14.367-14.025,14.367
        c-2.069,0-4.032-0.464-5.799-1.289c-0.807-0.465-1.009-0.999,0.292-0.931c0.133,0.007,0.221-0.019,0.291-0.056
        c1.856-0.223,3.559-0.962,4.958-2.084c-2.157-0.041-3.978-1.501-4.605-3.507c0.301,0.059,0.61,0.091,0.928,0.091
        c0.449,0,0.885-0.062,1.298-0.178c-2.255-0.464-3.954-2.505-3.954-4.951c0-0.021,0-0.043,0-0.063C1.67,9.412,2.431,9.64,3.239,9.666
        C1.916,8.76,1.045,7.215,1.045,5.463c0-0.181,0.017-0.357,0.035-0.533c0.02-0.181,0.045-0.34,0.076-0.483
        C1.16,4.432,1.162,4.417,1.165,4.402c0.24-1.058,0.806-1.026,2.097,0.184C3.301,4.622,3.34,4.637,3.379,4.665
        C5.677,6.721,8.624,8.033,11.873,8.2c-0.084-0.37-0.127-0.755-0.127-1.151c0-2.788,2.207-5.049,4.93-5.049
        c1.418,0,2.65,0.132,3.55,1.113c1.128,0.151,1.567,0.201,2.503-0.154c0.473-0.1,0.24,0.413-0.03,1.408s-1.259,2.254-1.259,2.254
        S21.622,8.349,21.622,7.635z"/>
</svg>
