<svg xmlns="http://www.w3.org/2000/svg" width="24" height="24" viewBox="0 0 24 24">
    <path d="M12,0.985c-6.075,0-11,4.931-11,11.014s4.925,11.015,11,11.015c6.075,0,11-4.932,11-11.015S18.075,0.985,12,0.985z
         M12,21.011c-4.97,0-9-4.034-9-9.012c0-4.977,4.03-9.011,9-9.011c4.971,0,9,4.034,9,9.011C21,16.977,16.971,21.011,12,21.011z
         M17.589,13.12L13,11.688V6c0-0.411-0.629-0.719-1.063-0.719C11.501,5.281,11,5.589,11,6v5.321l-2.373,2.044
        c-0.246,0.231-0.982,0.866-0.13,1.633c0.245,0.231,0.651,0.228,1.262-0.059l2.803-2.44l4.877,1.624
        c0.42,0.106,0.568-0.113,0.609-0.258C18.092,13.719,18.009,13.227,17.589,13.12z"/>
</svg>
