<svg xmlns="http://www.w3.org/2000/svg" width="24" height="24" viewBox="0 0 24 24">
    <path d="M20.253,1h-0.837c-0.137,0-0.268,0.055-0.366,0.152l-0.878,0.873l-0.879-0.873
        C17.194,1.055,17.063,1,16.927,1H16.33c-0.137,0-0.268,0.055-0.365,0.152l-0.879,0.873l-0.879-0.873
        C14.109,1.055,13.978,1,13.841,1h-0.596c-0.137,0-0.269,0.055-0.366,0.152L12,2.025l-0.879-0.873C11.023,1.055,10.892,1,10.756,1
        h-0.597c-0.137,0-0.269,0.055-0.366,0.152L8.914,2.025L8.035,1.152C7.938,1.055,7.807,1,7.67,1H7.073
        C6.937,1,6.806,1.055,6.707,1.152L5.829,2.025L4.95,1.152C4.852,1.055,4.721,1,4.584,1H3.747C3.335,1,3,1.344,3,1.767v20.467
        C3,22.656,3.337,23,3.75,23h0.834c0.137,0,0.268-0.055,0.366-0.151l0.878-0.874l0.879,0.874C6.806,22.945,6.937,23,7.073,23H7.67
        c0.137,0,0.268-0.055,0.365-0.151l0.879-0.874l0.879,0.874C9.891,22.945,10.022,23,10.159,23h0.596
        c0.137,0,0.269-0.055,0.366-0.151L12,21.975l0.879,0.874C12.977,22.945,13.108,23,13.245,23h0.596
        c0.137,0,0.269-0.055,0.366-0.151l0.879-0.874l0.879,0.874C16.062,22.945,16.194,23,16.331,23h0.596
        c0.137,0,0.268-0.055,0.366-0.151l0.879-0.874l0.878,0.874C19.148,22.945,19.279,23,19.416,23h0.834
        c0.414,0,0.75-0.344,0.75-0.767V1.767C21,1.344,20.665,1,20.253,1z M16.126,12.328l-6.011,5.615c-0.158,0.147-0.414,0.147-0.572,0
        l-1.432-1.337c-0.158-0.147-0.158-0.388,0-0.535l4.293-4.011L8.111,8.05c-0.158-0.147-0.158-0.387,0-0.534l1.432-1.337
        c0.158-0.148,0.414-0.148,0.572,0l6.011,5.614C16.284,11.941,16.284,12.181,16.126,12.328z"/>
</svg>
