<svg xmlns="http://www.w3.org/2000/svg" width="24" height="24" viewBox="0 0 24 24">
    <path d="M23,24h-1.111c-0.183,0-0.357-0.061-0.488-0.17l-1.172-0.977
        l-1.172,0.977c-0.13,0.109-0.306,0.17-0.487,0.17h-0.795c-0.183,0-0.357-0.061-0.488-0.17l-1.172-0.977l-1.172,0.977
        C14.812,23.939,14.637,24,14.455,24H13.66c-0.183,0-0.357-0.061-0.488-0.17L12,22.854l-1.171,0.977
        C10.698,23.939,10.522,24,10.34,24H9.545c-0.182,0-0.357-0.061-0.488-0.17l-1.172-0.977L6.714,23.83C6.583,23.939,6.408,24,6.226,24
        H5.431c-0.182,0-0.357-0.061-0.488-0.17l-1.172-0.977L2.6,23.83C2.469,23.939,2.294,24,2.112,24H1c-0.551,0-1-0.385-1-0.857V0.857
        C0,0.385,0.447,0,0.996,0h1.116C2.294,0,2.469,0.061,2.6,0.17l1.172,0.976L4.943,0.17C5.074,0.061,5.249,0,5.431,0h0.795
        c0.182,0,0.357,0.061,0.488,0.17l1.172,0.976L9.058,0.17C9.188,0.061,9.363,0,9.545,0h0.795c0.182,0,0.357,0.061,0.488,0.17
        L12,1.146l1.172-0.976C13.303,0.061,13.478,0,13.66,0h0.795c0.182,0,0.356,0.061,0.487,0.17l1.172,0.976l1.172-0.976
        C17.417,0.061,17.592,0,17.773,0h0.796c0.182,0,0.356,0.061,0.487,0.17l1.172,0.976L21.4,0.17C21.531,0.061,21.706,0,21.889,0h1.115
        C23.554,0,24,0.385,24,0.857v22.285C24,23.615,23.552,24,23,24z M17.836,11.693l-1.907-1.531l0,0L9.826,5.264
        c-0.211-0.169-0.552-0.169-0.763,0L7.155,6.795c-0.21,0.169-0.21,0.443,0,0.612L12.877,12l-5.722,4.592
        c-0.21,0.169-0.21,0.443,0,0.612l1.907,1.53c0.211,0.169,0.552,0.169,0.763,0l6.103-4.898l0,0l1.907-1.53
        C18.047,12.136,18.047,11.862,17.836,11.693z"/>
</svg>
