<svg xmlns="http://www.w3.org/2000/svg" width="24" height="24" viewBox="0 0 24 24">
    <path d="M21.698,14.987h-2.411c-0.166,0-0.301,0.146-0.301,0.324v1.378
        c0,0.014,0.012,0.022,0.014,0.035v2.279H5v-2.279c0.001-0.013,0.014-0.021,0.014-0.035v-1.378c0-0.179-0.135-0.324-0.301-0.324
        H2.302C2.135,14.987,2,15.133,2,15.312v3.692c0,1.679,1.378,2.989,3.077,2.989h13.846c1.699,0,3.077-1.36,3.077-3.039v-3.643
        C22,15.133,21.865,14.987,21.698,14.987z M7.186,10.004h1.821v4.505c0,0.829,0.666,1.502,1.488,1.502h2.979
        c0.822,0,1.489-0.673,1.489-1.502v-4.505h1.82c0.421,0,0.811-0.191,1.024-0.503c0.215-0.312,0.222-0.698,0.02-1.017
        c-0.247-0.388-1.142-1.745-2.271-2.903c-1.033-1.06-2.214-1.93-2.825-2.354C12.513,3.075,12.248,3,11.984,3
        c-0.266,0-0.53,0.076-0.748,0.228c-0.492,0.342-1.751,1.257-2.825,2.358c-1.142,1.171-2.026,2.516-2.271,2.9
        C5.939,8.804,5.947,9.189,6.161,9.501C6.376,9.813,6.766,10.004,7.186,10.004z"/>
</svg>
