<svg xmlns="http://www.w3.org/2000/svg" width="24" height="24" viewBox="0 0 24 24">
    <path d="M11.974,18.263c-1.091,0-2.635-0.723-2.635,0.202s1.544,1.534,2.635,1.534
        c1.092,0,2.635-0.609,2.635-1.534S13.065,18.263,11.974,18.263z M10.474,13.512c0-0.828-0.672-1.5-1.5-1.5
        c-0.829,0-1.5,0.672-1.5,1.5s0.671,1.5,1.5,1.5C9.802,15.012,10.474,14.34,10.474,13.512z M21.968,10.602
        c0-0.034,0.006-0.068,0.006-0.102c0-6.627-4.477-10.5-10-10.5c-5.523,0-10,3.873-10,10.5c0,0.047,0.007,0.094,0.008,0.141
        c-0.554,0.27-0.902,0.783-0.837,1.346c0,0,0.033,4.072,2.148,4.07C5.314,20.482,9.239,24,11.974,24
        c2.733,0,6.658-3.518,8.681-7.941c0.012,0.001,0.02,0.003,0.032,0.003c2.168,0.072,2.199-4.075,2.199-4.075
        C22.955,11.396,22.57,10.858,21.968,10.602z M20.5,13.411c-0.226,0.944-0.859,1.625-1.501,1.676
        c-1.597,3.796-4.803,6.934-7.025,6.934s-5.428-3.137-7.021-6.933c-0.643-0.048-1.279-0.73-1.505-1.677
        c-0.222-0.93,0.026-1.809,0.559-2.156C4,11.16,3.984,11.063,3.98,10.968c0.997-0.377,1.908-0.919,2.714-1.583
        c2.188,2.032,4.395,1.591,4.395,1.591c-0.927-0.847-1.195-2.037-1.187-3.171c1.989,1.792,5.024,2.947,8.446,2.947
        c0.558,0,1.101-0.04,1.636-0.099c0,0.202-0.021,0.406-0.035,0.609C20.477,11.613,20.722,12.486,20.5,13.411z M14.974,12.016
        c-0.828,0-1.5,0.672-1.5,1.5s0.672,1.5,1.5,1.5s1.5-0.672,1.5-1.5S15.802,12.016,14.974,12.016z"/>
</svg>
