<svg xmlns="http://www.w3.org/2000/svg" width="24" height="24" viewBox="0 0 24 24">
    <path d="M12.016,15.282c2.574,0,6.732-4.377,6.732-8.598s-3.014-6.688-6.732-6.688
        c-3.718,0-6.732,2.467-6.732,6.688S9.442,15.282,12.016,15.282z M9.905,4.289c0.006,0.006,0.013,0.012,0.019,0.018
        c-0.011-0.001-0.021,0-0.031-0.001C9.896,4.3,9.901,4.295,9.905,4.289z M7.564,6.416c0.092-0.049,0.173-0.109,0.262-0.161
        c0.996,1.513,3.92,2.159,3.92,2.159c-1.273-1.163-1.219-2.771-1.203-3.518c1.367,1.128,3.477,1.865,5.875,1.865
        c0.027,0,0.055-0.006,0.082-0.006c0,0.032,0.008,0.06,0.008,0.091c0,2.752-2.773,5.966-4.492,5.966
        c-1.717,0-4.492-3.214-4.492-5.966C7.524,6.695,7.552,6.561,7.564,6.416z M15.738,15.271c-1.225,1.362-1.65,2.033-3.723,2.033
        c-2.076,0-2.502-0.674-3.729-2.041c-2.955,0.701-5.256,2.623-5.256,5.376c0,3.36,4.023,3.361,8.984,3.361
        C16.979,24,21,23.999,21,20.639C21,17.894,18.693,15.976,15.738,15.271z"/>
</svg>
