<svg xmlns="http://www.w3.org/2000/svg" width="24" height="24" viewBox="0 0 24 24">
    <path d="M5.6,18.023H18.4c0.883,0,1.6-0.689,1.6-1.54V9.551
        c0-0.852-0.717-1.541-1.6-1.541H5.6C4.717,8.01,4,8.699,4,9.551v6.933C4,17.334,4.717,18.023,5.6,18.023z M15.167,14.998h1.467
        c0.202,0,0.366,0.228,0.366,0.509s-0.164,0.51-0.366,0.51h-1.467c-0.203,0-0.367-0.229-0.367-0.51S14.964,14.998,15.167,14.998z
         M12.233,14.998H13.7c0.202,0,0.366,0.228,0.366,0.509s-0.164,0.51-0.366,0.51h-1.467c-0.202,0-0.366-0.229-0.366-0.51
        S12.031,14.998,12.233,14.998z M11.133,15.507c0,0.281-0.164,0.51-0.366,0.51H9.3c-0.202,0-0.366-0.229-0.366-0.51
        s0.164-0.509,0.366-0.509h1.467C10.969,14.998,11.133,15.226,11.133,15.507z M8.496,10.174c0.15-0.09,0.316-0.156,0.504-0.156
        c0.553,0,1,0.449,1,1.004c0,0.554-0.447,1.003-1,1.003c-0.188,0-0.354-0.066-0.504-0.156c0.291-0.176,0.496-0.481,0.496-0.847
        C8.992,10.655,8.787,10.35,8.496,10.174z M7,10.018c0.553,0,1,0.449,1,1.004c0,0.554-0.447,1.003-1,1.003s-1-0.449-1-1.003
        C6,10.467,6.447,10.018,7,10.018z M6.367,14.998h1.466c0.203,0,0.367,0.228,0.367,0.509s-0.164,0.51-0.367,0.51H6.367
        C6.164,16.017,6,15.788,6,15.507S6.164,14.998,6.367,14.998z M21.75,2H2.25C1.008,2,0,2.982,0,4.195v15.636
        c0,1.212,1.008,2.195,2.25,2.195h19.5c1.242,0,2.25-0.983,2.25-2.195V4.195C24,2.982,22.992,2,21.75,2z M3,3.015
        c0.562,0,1.017,0.444,1.017,0.992S3.562,4.999,3,4.999S1.983,4.555,1.983,4.007S2.438,3.015,3,3.015z M22,20.019H2V6.016h20
        V20.019z"/>
</svg>
