<svg xmlns="http://www.w3.org/2000/svg" width="24" height="24" viewBox="0 0 24 24">
    <path d="M22,4H2C0.896,4,0,4.896,0,6v12c0,1.104,0.896,2,2,2h20c1.104,0,2-0.896,2-2V6
        C24,4.896,23.104,4,22,4z M6.384,14.998H4.8l0.009-0.025l-1.822-5.97l1.566-0.001l1.103,3.613l1.298-3.613h1.584L6.384,14.998z
         M10.152,14.998H8.568l0.67-5.996h1.584L10.152,14.998z M15.098,13.362c-0.39,2.14-3.947,1.492-3.947,1.492l0.404-1.751
        c0,0,1.745,0.492,1.873,0.036c0.213-0.765-1.705-0.066-1.555-2.42c0.15-2.353,3.88-1.602,3.88-1.602l-0.485,1.602
        c0,0-1.579-0.371-1.727,0.253C13.324,11.894,15.443,11.471,15.098,13.362z M19.426,14.998l-0.223-0.626h-2.21l-0.226,0.626h-1.583
        l2.132-5.932l-0.022-0.064h1.63l-0.032,0.09l2.101,5.906H19.426z M17.483,13.009h1.235l-0.614-1.728L17.483,13.009z"/>
</svg>
