<svg xmlns="http://www.w3.org/2000/svg" width="24" height="24" viewBox="0 0 24 24">
    <path d="M11.77,11.015c0.671,0,1.215-0.677,1.215-1.513c0-0.763-0.453-1.392-1.044-1.496
        V7.989h-1.931v2.988h1.495C11.59,11.001,11.678,11.015,11.77,11.015z M19.857,2.005H4.143C2.959,2.005,2,2.964,2,4.147v15.711
        C2,21.041,2.959,22,4.143,22h15.714C21.041,22,22,21.041,22,19.858V4.147C22,2.964,21.041,2.005,19.857,2.005z M16.587,16.105
        c-0.269,0.514-0.635,0.925-1.1,1.232s-1.038,0.497-1.719,0.567c-0.427,0.044-1.458,0.071-3.092,0.082l-1.397,0.005
        c-0.008,0-0.015,0.005-0.023,0.005H7.749c-0.417,0-0.754-0.336-0.754-0.749V6.758c0-0.413,0.337-0.749,0.754-0.749h1.507
        c0.006,0,0.012,0.003,0.018,0.004l2.156,0.006c1.004,0,1.753,0.04,2.248,0.118c0.493,0.079,0.936,0.244,1.324,0.494
        c0.391,0.251,0.715,0.584,0.975,1c0.26,0.417,0.39,0.883,0.39,1.4c0,0.561-0.16,1.075-0.48,1.543s-0.755,0.819-1.304,1.053
        c0.773,0.213,1.369,0.574,1.784,1.086c0.416,0.512,0.624,1.113,0.624,1.805C16.99,15.062,16.855,15.591,16.587,16.105z
         M11.959,13.002v-0.018h-1.95v2.985h1.508c0.086,0.023,0.176,0.037,0.268,0.037c0.679,0,1.229-0.677,1.229-1.511
        C13.014,13.734,12.555,13.105,11.959,13.002z"/>
</svg>
