<svg xmlns="http://www.w3.org/2000/svg" width="24" height="24" viewBox="0 0 24 24">
    <path d="M7.125,2.895c0.289,0,0.631-0.108,1.014-0.321
        c1.083-0.604,2.381-0.91,3.858-0.91s2.773,0.307,3.858,0.91c0.384,0.213,0.724,0.321,1.014,0.321c0.556,0,0.946-0.475,1.219-1.052
        C16.344,0.68,14.25,0,11.997,0S7.65,0.68,5.906,1.843C6.179,2.419,6.569,2.895,7.125,2.895z M11.997,8.999
        c-1.097,0-1.986,0.894-1.986,1.995c0,1.103,0.89,1.996,1.986,1.996c1.098,0,1.986-0.894,1.986-1.996
        C13.983,9.893,13.095,8.999,11.997,8.999z M20.919,17.413c1.301-1.807,2.076-4.018,2.076-6.414c0-3.266-1.432-6.189-3.69-8.204
        c-0.54,0.868-1.327,1.518-2.436,1.518c-0.56,0-1.161-0.175-1.784-0.522c-0.844-0.47-1.883-0.708-3.088-0.708
        S9.753,3.32,8.909,3.79C8.285,4.138,7.685,4.312,7.125,4.312c-1.108,0-1.895-0.649-2.435-1.518C2.431,4.81,1,7.734,1,10.999
        c0,2.396,0.774,4.606,2.075,6.413c-0.306,0.242-0.534,0.5-0.685,0.769c-0.233,0.36-0.384,0.894-0.384,1.496
        c0,0.577,0.138,1.091,0.354,1.451C3.206,22.764,7.122,24,11.997,24c4.874,0,8.789-1.236,9.637-2.871
        c0.216-0.359,0.354-0.874,0.354-1.452c0-0.604-0.151-1.138-0.386-1.498C21.451,17.911,21.224,17.655,20.919,17.413z
         M11.997,16.995c-3.309,0-5.99-2.685-5.99-5.996s2.682-5.996,5.99-5.996s5.99,2.685,5.99,5.996S15.306,16.995,11.997,16.995z"/>
</svg>
